<svg width="330" height="539" viewBox="0 0 330 539" fill="none" xmlns="http://www.w3.org/2000/svg">
<path d="M253.248 40.2306L224.443 90.1229L176.124 173.813C168.508 175.854 159.963 179.504 152.347 181.545C137.115 185.626 121.543 188.438 107.241 190.91C100.554 191.341 95.5681 198.119 96.3394 206.075C96.7707 212.762 103.548 217.748 111.504 216.976C127.076 214.164 143.918 211.012 159.149 206.931C189.613 198.768 217.787 187.138 240.543 175.598L220.532 217.692L167.221 231.977C159.605 234.018 155.888 240.455 157.929 248.071C159.97 255.687 166.407 259.404 174.023 257.363L207.025 248.52L184.567 296.712L28.4278 186.179L26.4782 183.981C24.8688 183.051 24.8688 183.051 24.5287 181.782C22.1479 172.897 58.5935 141.364 137.291 120.277C153.792 115.856 170.633 112.704 187.815 110.821C194.501 110.39 199.488 103.612 198.716 95.6558C198.285 88.9691 191.507 83.983 183.551 84.7543C166.37 86.6371 148.259 90.1294 130.489 94.891C59.4072 113.937 -11.061 150.505 -0.857602 188.584C0.842958 194.931 5.42226 201.867 11.86 205.583L178.336 324.23L220.51 481.625C222.55 489.241 228.988 492.958 236.604 490.918C242.95 489.217 247.937 482.439 245.896 474.823C275.43 468.27 294.901 469.855 301.339 473.572C296.353 480.35 275.546 494.088 240.005 503.611C204.464 513.134 179.576 511.64 171.869 508.263C174.996 504.704 180.323 499.196 194.874 492.576C200.881 489.606 204.257 481.899 200.947 474.623C196.708 468.957 189.341 466.849 183.335 469.819C146.027 487.979 142.492 505.251 145.553 516.675C152.696 543.331 201.452 542.51 247.147 530.266C292.843 518.022 335.477 494.354 328.335 467.699C321.873 443.582 280.732 442.361 239.434 450.706L203.722 317.428L286.712 134.658L287.301 131.779C287.89 128.9 289.749 125.682 290.338 122.803C290.587 118.655 291.176 115.776 290.156 111.968C287.775 103.083 279.297 91.7502 257.536 86.6973L276.12 54.5088C279.837 48.0711 277.796 40.4552 271.358 36.7383C264.921 33.0215 256.965 33.7929 253.248 40.2306ZM263.84 120.38L262.911 121.989C257.336 131.646 241.606 144.023 216.311 156.243L244.187 107.96C258.581 110.905 265.018 114.622 265.699 117.161C264.769 118.77 263.84 120.38 263.84 120.38ZM279.357 0.583989C271.741 2.62466 268.024 9.06237 270.065 16.6783C272.105 24.2942 278.543 28.011 286.159 25.9703C293.775 23.9296 297.492 17.4919 295.451 9.87602C293.41 2.26013 286.973 -1.45668 279.357 0.583989Z" fill="url(#paint0_linear_128:47541)"/>
<defs>
<linearGradient id="paint0_linear_128:47541" x1="131.481" y1="40.207" x2="131.481" y2="569" gradientUnits="userSpaceOnUse">
<stop stop-color="#184670"/>
<stop offset="1" stop-color="#184670" stop-opacity="0"/>
</linearGradient>
</defs>
</svg>
