<svg width="375" height="461" viewBox="0 0 375 461" fill="none" xmlns="http://www.w3.org/2000/svg">
<mask id="mask0_128:55398" style="mask-type:alpha" maskUnits="userSpaceOnUse" x="0" y="0" width="375" height="461">
<rect width="375" height="461" fill="url(#paint0_linear_128:55398)"/>
</mask>
<g mask="url(#mask0_128:55398)">
<path d="M79.1886 155.899C68.9768 173.587 46.3378 179.653 28.6504 169.441C10.9629 159.229 4.89679 136.59 15.1086 118.903C25.3205 101.215 47.9595 95.1494 65.647 105.361C83.3344 115.573 89.4148 138.187 79.1886 155.899Z" stroke="#184670" stroke-width="1000"/>
<path d="M181.622 203.94C171.41 221.627 148.771 227.693 131.084 217.481C113.396 207.27 107.33 184.631 117.542 166.943C127.754 149.256 150.393 143.19 168.081 153.401C185.768 163.613 191.848 186.228 181.622 203.94Z" stroke="#184670" stroke-width="1000"/>
<path d="M224.761 281.315C214.549 299.003 191.91 305.069 174.223 294.857C156.535 284.645 150.469 262.006 160.681 244.319C170.893 226.631 193.532 220.565 211.219 230.777C228.907 240.989 234.973 263.628 224.761 281.315Z" stroke="#184670" stroke-width="1000"/>
<path d="M213.474 408.229C203.262 425.916 180.623 431.982 162.936 421.77C145.249 411.559 139.182 388.92 149.394 371.232C159.606 353.545 182.245 347.479 199.933 357.69C217.645 367.917 223.686 390.541 213.474 408.229Z" stroke="#184670" stroke-width="1000"/>
<path d="M-109.057 -46.5569C-101.232 -59.5953 -91.7114 -68.3274 -87.4606 -71.8678C-81.743 -76.6364 -75.867 -80.4243 -70.922 -82.5429C-70.135 -82.879 -69.4155 -83.1553 -68.8415 -83.3509C-68.9024 -83.1884 -68.9385 -83.0117 -68.9994 -82.8492C-70.1695 -79.1111 -72.6055 -74.7205 -75.8797 -70.4187C-80.7625 -64.0152 -91.1489 -53.2137 -109.057 -46.5569ZM89.2085 51.7721C78.4096 59.8652 64.0215 67.5 48.3711 73.3849C41.4121 61.3634 39.9768 50.7851 44.1667 41.8736C47.8031 34.0919 55.7924 27.6704 66.5937 23.7948C76.5834 20.241 87.4703 19.412 95.7115 21.5681C97.687 22.0828 99.4705 22.816 100.928 23.6575C105.622 26.3674 105.943 29.7477 105.741 32.036C105.452 35.7886 100.959 42.9438 89.2085 51.7721ZM265.62 81.5558C264.507 78.8053 263.429 76.108 262.436 73.4925C252.643 48.01 251.717 38.0886 251.899 34.6363C252.461 34.8617 253.181 35.2116 254.07 35.725C254.169 35.7821 254.268 35.8391 254.367 35.8962C262.635 40.8014 267.676 47.3021 269.346 55.249C271.244 64.2832 268.707 73.9839 265.62 81.5558ZM209 385.06C207.474 377.262 202.639 370.518 195.722 366.525C195.352 366.311 194.981 366.097 194.596 365.907L192.815 356.842C192.472 355.096 191.4 353.588 189.868 352.704C189.646 352.575 189.385 352.457 189.148 352.354C189.828 346.554 187.091 340.626 181.731 337.531C180.693 336.932 179.585 336.457 178.429 336.119C177.56 327.811 177.315 316.142 179.931 303.225C180.911 298.389 182.231 293.651 183.882 289.136C187.231 290.181 190.746 290.596 194.289 290.336C199.552 289.949 204.574 288.04 208.767 284.828C220.564 275.862 223.076 259.131 214.557 247.131C222.755 240.632 232.341 234.869 243.189 229.999C267.697 218.985 283.527 203.717 290.182 184.602C298.905 159.567 289.974 133.561 280.948 116.163C280.341 114.989 276.727 107.501 272.205 97.2483C273.606 94.7637 275.312 91.4668 276.96 87.6423C280.683 78.8561 284.58 65.6587 281.857 52.6901C279.421 41.1061 272.366 31.7625 260.865 24.9252C260.742 24.8539 260.594 24.7683 260.47 24.697C257.086 22.743 254.108 21.6825 251.388 21.4298C248.096 21.1427 245.176 22.0921 242.955 24.1697C239.69 27.258 238.505 32.107 239.243 39.3846C240.135 48.1666 243.797 60.821 250.453 78.1023C252.643 83.7801 255.103 89.8448 257.803 96.1793L257.76 96.2534L257.731 96.3028L257.703 96.3523C257.66 96.4264 251.838 105.483 241.316 115.778C225.798 130.961 200.567 148.476 167.277 147.832C167.176 146.753 166.801 145.746 166.14 144.837C165.634 144.117 164.979 143.541 164.237 143.113C163.595 142.742 162.906 142.509 162.16 142.375L151.239 140.582C148.266 140.084 145.399 141.854 144.453 144.635C133.794 141.874 122.899 137.296 112.03 131.021C107.287 128.282 102.489 125.183 97.7207 121.804C95.7597 120.408 93.8377 119.002 91.93 117.572C93.8607 115.425 94.0699 112.154 92.2442 109.782L85.5398 100.971C85.0544 100.328 84.4483 99.7805 83.7319 99.3669C83.0402 98.9676 82.3019 98.706 81.5027 98.6069C79.8797 98.3945 78.2821 98.8226 76.958 99.8038L73.3831 102.516C66.4232 96.2577 60.5418 90.1283 55.8236 84.2093C69.0829 78.9859 81.3742 72.6438 91.6159 65.7441C103.323 57.8462 117.505 45.7772 118.474 33.0302C118.798 28.7046 117.977 24.7064 116.019 21.1384C114.106 17.6625 111.161 14.7765 107.307 12.5515C104.861 11.1395 102.029 9.99832 98.9085 9.18482C88.2537 6.35995 74.5463 7.33912 62.2177 11.7493C48.1526 16.7709 37.6196 25.5445 32.4798 36.4437C29.665 42.4601 28.5177 49.011 29.0742 55.9199C29.6412 62.8677 31.951 70.1629 35.9512 77.6107C34.2187 78.1585 32.4757 78.6673 30.7222 79.1371C9.76822 85.0232 -29.6506 92.3696 -64.0714 77.7668L-63.7291 77.1739C-62.0214 74.2732 -63.0094 70.5078 -65.9348 68.7859L-75.4911 63.2027C-78.4061 61.5197 -82.1468 62.522 -83.8545 65.4228L-84.154 65.9415C-90.6096 60.8639 -96.3921 54.7916 -101.407 47.8452C-120.638 21.1956 -125.756 -5.30986 -116.559 -30.9944C-106.37 -33.4115 -96.8843 -37.2895 -88.3661 -42.5162C-79.4752 -47.989 -71.6464 -54.9313 -65.7492 -62.6924C-61.589 -68.1296 -58.414 -73.971 -56.8026 -79.1011C-54.2361 -87.3688 -56.2578 -91.7969 -58.4238 -94.0355C-59.0014 -94.6325 -59.6607 -95.1449 -60.3771 -95.5585C-64.3049 -97.8263 -70.0534 -97.2256 -77.4422 -93.7841C-83.1362 -91.1099 -89.6405 -86.8613 -95.7487 -81.7583C-99.6374 -78.5028 -105.521 -73.1052 -111.398 -65.8924C-117.481 -58.4364 -122.396 -50.4374 -126.063 -42.1463C-126.321 -42.0979 -126.565 -42.0742 -126.824 -42.0259C-141.892 -39.6588 -158.5 -40.6172 -176.199 -44.8745L-175.876 -46.8615C-175.6 -48.4807 -175.989 -50.0887 -176.931 -51.4232C-177.437 -52.1437 -178.093 -52.7198 -178.834 -53.1477C-179.476 -53.5185 -180.19 -53.7658 -180.911 -53.8858L-191.832 -55.6787C-194.781 -56.1624 -197.58 -54.4518 -198.572 -51.7637C-209.896 -55.9962 -221.735 -61.448 -233.799 -68.0508C-235.359 -68.8856 -236.915 -69.7841 -238.447 -70.6684C-241.955 -72.6937 -245.43 -74.832 -248.849 -77.0691L-248.447 -77.5945C-247.411 -78.8742 -246.958 -80.4573 -247.167 -82.0928C-247.351 -83.7141 -248.158 -85.1683 -249.438 -86.2036L-258.097 -93.1131C-258.34 -93.3194 -258.587 -93.462 -258.859 -93.6189C-259.995 -94.275 -261.282 -94.5567 -262.595 -94.3927C-264.216 -94.2089 -265.67 -93.4016 -266.706 -92.1219L-267.755 -90.8175C-294.467 -112.498 -316.593 -140.522 -333.599 -174.22C-329.879 -178.496 -327.577 -183.853 -327.003 -189.582C-326.346 -196.482 -328.276 -203.294 -332.444 -208.797C-334.646 -211.715 -337.377 -214.115 -340.539 -215.941C-344.096 -217.994 -348.036 -219.215 -352.107 -219.523C-366.974 -265.655 -368.208 -303.225 -368.224 -303.596C-368.281 -305.836 -369.489 -307.851 -371.416 -308.964C-372.429 -309.548 -373.598 -309.862 -374.777 -309.817C-378.322 -309.723 -381.106 -306.785 -381.012 -303.239C-381.01 -302.843 -379.811 -264.701 -364.882 -217.478C-367.005 -216.596 -368.991 -215.438 -370.866 -214.017C-382.904 -204.861 -385.281 -187.623 -376.125 -175.584C-373.898 -172.652 -371.191 -170.266 -368.029 -168.44C-360.693 -164.204 -351.91 -163.613 -344.187 -166.664C-336.962 -152.48 -328.753 -139.143 -319.785 -126.95C-308.063 -111.026 -294.749 -96.7189 -280.083 -84.2986C-280.445 -84.0136 -280.811 -83.665 -281.103 -83.2735L-287.169 -75.6759C-290.803 -75.6001 -294.391 -74.8059 -297.673 -73.3416C-301.665 -71.562 -305.23 -68.8111 -307.98 -65.3595C-312.541 -59.6269 -314.593 -52.4785 -313.791 -45.1971C-312.964 -37.9014 -309.38 -31.3859 -303.648 -26.8246C-302.562 -25.9671 -301.433 -25.1836 -300.247 -24.499C-294.615 -21.2472 -287.986 -20.1209 -281.538 -21.3058C-275.051 -22.501 -269.204 -26.0096 -265.074 -31.1674C-262.242 -34.7035 -260.326 -38.9336 -259.546 -43.4235C-258.889 -47.1285 -258.982 -50.9041 -259.825 -54.5202L-254.076 -61.7406C-253.453 -62.5339 -253.042 -63.4166 -252.857 -64.364C-250.246 -62.7249 -247.607 -61.1351 -244.964 -59.609C-243.309 -58.6535 -241.639 -57.7226 -239.97 -56.7917C-228.524 -50.5456 -217.201 -45.2269 -206.223 -40.9642C-206.331 -40.6639 -206.399 -40.3741 -206.457 -40.0453L-207.323 -34.7809C-210.551 -32.9555 -213.42 -30.4952 -215.641 -27.5613C-218.346 -24.0176 -220.173 -19.7694 -220.915 -15.29C-222.09 -8.06332 -220.392 -0.792069 -216.123 5.16387C-213.823 8.36901 -210.952 10.9823 -207.567 12.9362C-204.702 14.5907 -201.586 15.6978 -198.284 16.2538C-191.057 17.4288 -183.786 15.7311 -177.83 11.4624C-171.874 7.19365 -167.94 0.835499 -166.765 -6.39113C-166.041 -10.7822 -166.407 -15.3409 -167.803 -19.5398C-168.962 -23.0087 -170.827 -26.2261 -173.256 -28.9789L-172.918 -30.9906C-158.145 -27.9953 -144.021 -27.1858 -130.868 -28.5177C-130.965 -28.1785 -131.051 -27.8003 -131.149 -27.4611C-134.397 -14.6464 -134.7 -1.51438 -132.009 11.5673C-129.007 26.2779 -122.198 41.0126 -111.828 55.3986C-106.778 62.3982 -100.993 68.6369 -94.5813 74.0186C-95.5071 74.5381 -96.2818 75.3095 -96.8628 76.2586L-101.776 84.6539C-105.352 85.2571 -108.804 86.5579 -111.859 88.4832C-115.552 90.8302 -118.698 94.0535 -120.908 97.8825C-124.599 104.217 -125.604 111.607 -123.743 118.709C-121.882 125.811 -117.369 131.744 -111.035 135.434L-111.01 135.448L-110.936 135.491C-97.8924 143.021 -81.1125 138.546 -73.5222 125.57C-71.244 121.682 -69.9644 117.183 -69.8061 112.63C-69.6833 108.881 -70.3283 105.149 -71.6928 101.693L-67.0471 93.7033C-66.5051 92.7646 -66.2282 91.7716 -66.2307 90.7491C-59.2621 93.4549 -51.8344 95.5365 -44.0462 96.9369C-14.3606 102.284 14.8418 96.9444 34.0671 91.5424C37.018 90.7099 40.0118 89.8034 42.9703 88.8436C47.2259 94.5942 52.4572 100.48 58.6151 106.473L52.9386 110.771C49.3971 109.945 45.7356 109.84 42.1842 110.458C37.8715 111.196 33.7381 112.992 30.2164 115.669C24.3906 120.112 20.6434 126.545 19.6451 133.808C18.6469 141.071 20.5395 148.29 24.9822 154.116C27.2087 157.048 29.9648 159.463 33.1021 161.274C36.19 163.057 39.5461 164.204 43.1209 164.687C50.3837 165.685 57.6028 163.792 63.4286 159.35C67.0178 156.613 69.9069 152.978 71.8183 148.812C73.3655 145.39 74.1887 141.682 74.2583 137.968L81.6106 132.364C82.91 131.369 83.7373 129.936 83.9744 128.327C83.9964 128.175 84.0078 127.984 84.0297 127.832C86.0362 129.32 88.0675 130.822 90.152 132.289C95.2872 135.946 100.491 139.312 105.629 142.279C115.955 148.241 126.326 152.812 136.569 155.893C136.537 156.006 136.529 156.134 136.497 156.247L135.631 161.511C132.404 163.337 129.534 165.797 127.313 168.731C124.608 172.274 122.781 176.523 122.04 181.002C120.865 188.229 122.563 195.5 126.831 201.456C129.131 204.661 132.003 207.274 135.387 209.228C138.253 210.883 141.368 211.99 144.67 212.546C151.897 213.721 159.168 212.023 165.124 207.754C171.08 203.486 175 197.152 176.19 189.901C176.913 185.51 176.548 180.951 175.151 176.752C173.992 173.283 172.128 170.066 169.699 167.313L170.6 161.872C170.658 161.543 170.667 161.186 170.676 160.829C185.707 160.581 200.423 157.055 214.542 150.286C227.186 144.246 239.147 135.737 250.117 125.009C256.09 119.169 260.604 113.804 263.679 109.848C266.773 116.641 268.978 121.208 269.448 122.105C277.316 137.287 285.184 159.715 277.959 180.444C272.508 196.104 259.013 208.866 237.817 218.367C225.274 224.004 214.155 230.825 204.673 238.691C195.266 233.819 183.926 234.749 175.462 241.193C163.424 250.349 161.047 267.587 170.203 279.625C170.949 280.616 171.787 281.56 172.668 282.431C170.374 288.287 168.549 294.414 167.29 300.703C164.248 315.613 164.588 328.886 165.63 338.15C163.777 339.419 162.181 341.099 161.054 343.051C159.101 346.435 158.531 350.388 159.491 354.203C159.789 355.396 160.23 356.573 160.806 357.63C160.401 357.989 160.045 358.377 159.749 358.832C158.838 360.183 158.508 361.837 158.809 363.427L160.677 372.971C158.386 375.798 156.645 379.042 155.646 382.483C154.41 386.678 154.178 391.188 155.043 395.508C156.451 402.711 160.563 408.938 166.645 413.009C167.184 413.387 167.752 413.715 168.296 414.029C174.002 417.323 180.734 418.443 187.225 417.184C202.168 414.349 211.891 399.904 209 385.06Z" fill="#184670"/>
<path d="M169.987 374.36L170.285 374.301C170.327 374.227 170.346 374.139 170.388 374.064C170.229 374.17 170.108 374.265 169.987 374.36Z" fill="#232F40"/>
<path d="M191.457 401.809C194.661 401.451 197.588 400.375 200.115 398.737C201.907 395.062 202.584 390.809 201.733 386.464C200.506 380.09 196.075 374.699 190.103 372.207L169.582 376.202C168.913 378.615 168.683 381.183 168.996 383.834C170.266 395.042 180.314 403.082 191.457 401.809Z" fill="#1B4D7C"/>
<path d="M163.535 393.922C164.531 399.042 167.462 403.436 171.748 406.338C176.059 409.255 181.248 410.308 186.344 409.297C192.576 408.087 197.523 404.026 200.115 398.737C197.564 400.361 194.637 401.437 191.458 401.809C180.304 403.043 170.242 395.027 169.007 383.873C168.718 381.236 168.924 378.654 169.593 376.241L168.959 376.369C164.325 380.972 162.272 387.495 163.535 393.922Z" fill="#184670"/>
<path d="M169.494 347.429C171.192 344.49 174.932 343.487 177.872 345.185C180.812 346.882 181.814 350.623 180.117 353.562C178.42 356.502 174.679 357.504 171.739 355.807C168.824 354.124 167.797 350.369 169.494 347.429ZM174.215 358.422L178.34 357.609C179.762 356.915 180.913 355.834 181.698 354.475C183.894 350.671 182.575 345.825 178.795 343.643C174.991 341.446 170.145 342.766 167.963 346.545C165.766 350.35 167.086 355.195 170.865 357.378C171.864 357.987 173.019 358.325 174.215 358.422Z" fill="#1D568A"/>
<path d="M167.678 363.64L185.936 360.084L187.665 368.955L186.139 369.259L171.514 372.113L169.393 372.535L167.678 363.64ZM167.938 346.531C170.134 342.726 174.99 341.446 178.77 343.628C182.574 345.825 183.855 350.681 181.673 354.461C180.888 355.819 179.737 356.9 178.315 357.595L174.19 358.408C172.994 358.31 171.839 357.973 170.801 357.374C167.046 355.206 165.741 350.335 167.938 346.531ZM169.986 374.36C170.107 374.265 170.228 374.17 170.348 374.075C170.305 374.149 170.287 374.237 170.245 374.311L169.986 374.36ZM190.113 372.245C196.085 374.738 200.491 380.114 201.743 386.503C202.584 390.809 201.917 395.101 200.125 398.776C197.532 404.065 192.586 408.125 186.353 409.336C181.233 410.332 176.082 409.269 171.758 406.377C167.447 403.46 164.516 399.067 163.544 393.961C162.296 387.509 164.31 380.997 168.983 376.383L169.617 376.255L190.113 372.245ZM205.376 385.8C203.892 378.159 198.579 371.731 191.42 368.784L189.23 357.572C189.022 356.563 188.077 355.919 187.043 356.112L183.552 356.797C183.747 356.515 183.958 356.208 184.129 355.912C187.109 350.749 185.32 344.149 180.182 341.183C175.019 338.202 168.42 339.991 165.453 345.129C162.558 350.144 164.153 356.566 169.029 359.644L165.162 360.409C164.153 360.617 163.508 361.562 163.702 362.596L165.957 374.207C160.71 379.643 158.441 387.226 159.897 394.687C161.066 400.764 164.559 406.009 169.681 409.46C170.136 409.756 170.616 410.066 171.086 410.337C175.927 413.132 181.545 414.07 187.066 413.008C199.598 410.527 207.818 398.343 205.376 385.8Z" fill="#184670"/>
<path d="M62.5394 130.313L55.9547 121.636C54.4646 121.764 52.9773 122.058 51.4785 122.543C40.6507 126.008 34.6763 137.611 38.1414 148.439C39.0974 151.462 40.7025 154.101 42.7202 156.254C43.4376 156.438 44.1693 156.597 44.9048 156.692C50.0638 157.398 55.1787 156.069 59.304 152.917C64.4729 148.985 67.3459 142.639 66.9536 136.188L62.5394 130.313Z" fill="#1B4D7C"/>
<path d="M51.4778 122.543C52.9623 122.083 54.4639 121.764 55.954 121.636L53.9526 118.998C47.7811 116.852 41.008 117.915 35.7858 121.882C31.6358 125.02 28.983 129.615 28.2668 134.735C27.5609 139.894 28.8897 145.008 32.0661 149.148C34.7676 152.684 38.4787 155.156 42.7338 156.229C40.6914 154.062 39.1109 151.437 38.155 148.415C34.6756 137.611 40.65 126.008 51.4778 122.543Z" fill="#184670"/>
<path d="M75.6804 120.443L71.2273 114.578L80.9084 107.223L85.3615 113.088L75.6804 120.443ZM76.0508 127.046L68.8477 132.505L68.1372 131.568L60.6872 121.766L59.7268 120.52L58.8159 119.302L57.5848 117.669L64.7879 112.21L67.1446 115.317L73.8489 124.128L76.0508 127.046ZM59.3173 152.892C55.1673 156.029 50.0629 157.397 44.9039 156.691C44.1684 156.596 43.4367 156.437 42.7193 156.253C38.4642 155.18 34.7531 152.708 32.0516 149.172C28.9141 145.022 27.5464 139.918 28.2522 134.759C28.9581 129.6 31.6213 125.044 35.7713 121.906C40.9935 117.939 47.7419 116.861 53.9381 119.022L55.9395 121.66L62.5242 130.337L66.9773 136.201C67.3839 142.628 64.5252 148.949 59.3173 152.892ZM68.8507 135.01C68.8507 135.01 68.8365 135.035 68.8507 135.01C68.8365 135.035 68.8507 135.01 68.8507 135.01ZM89.4338 112.31L82.7294 103.498C82.434 103.097 81.9894 102.84 81.4943 102.785C80.9992 102.73 80.5069 102.841 80.1305 103.15L68.976 111.631L66.6194 108.525C66.0038 107.708 64.8369 107.562 64.0204 108.177L54.5807 115.342C47.3839 113.032 39.5977 114.366 33.52 118.96C23.356 126.695 21.3453 141.245 29.0803 151.409C30.9763 153.887 33.3057 155.957 35.9243 157.469C38.4934 158.952 41.3478 159.941 44.3781 160.34C50.513 161.181 56.6021 159.592 61.5296 155.849C67.7423 151.136 71.1373 143.544 70.6304 135.807L79.7222 128.902C80.1233 128.607 80.38 128.162 80.4353 127.667C80.5153 127.186 80.3796 126.68 80.0699 126.303L77.8538 123.41L89.0082 114.929C89.9026 114.293 90.0493 113.126 89.4338 112.31Z" fill="#184670"/>
<path d="M169.042 188.475C170.075 182.122 167.963 175.797 163.362 171.329C163.133 171.098 162.89 170.892 162.646 170.686C162.428 170.494 162.209 170.302 161.977 170.134C161.903 170.092 161.867 170.038 161.793 169.996C161.61 169.857 161.426 169.718 161.243 169.579C161.194 169.551 161.144 169.522 161.109 169.469C160.876 169.301 160.644 169.134 160.397 168.992C160.347 168.963 160.273 168.92 160.224 168.892C160.026 168.778 159.843 168.639 159.645 168.525C159.571 168.482 159.522 168.453 159.447 168.411C159.25 168.296 159.052 168.182 158.84 168.093C158.816 168.079 158.766 168.05 158.742 168.036C158.519 167.908 158.283 167.804 158.021 167.686C157.947 167.643 157.898 167.615 157.809 167.597C157.622 167.522 157.449 167.422 157.287 167.361C157.213 167.318 157.124 167.3 157.05 167.257C156.863 167.182 156.676 167.107 156.489 167.032C156.439 167.003 156.351 166.985 156.302 166.957C156.051 166.878 155.8 166.799 155.549 166.72C155.5 166.691 155.436 166.687 155.386 166.659C155.185 166.608 154.984 166.558 154.772 166.469C154.683 166.451 154.595 166.432 154.521 166.39C154.344 166.353 154.143 166.303 153.966 166.267C153.878 166.249 153.814 166.245 153.725 166.227C153.46 166.173 153.195 166.118 152.955 166.078C149.437 165.497 145.848 165.895 142.548 167.217C142.246 167.34 141.97 167.477 141.683 167.574C141.516 167.807 141.359 168.079 141.216 168.326C139.969 170.372 139.038 172.668 138.582 175.171C136.473 186.239 143.742 196.925 154.811 199.033C157.957 199.631 161.046 199.472 163.93 198.699C166.628 195.909 168.398 192.386 169.042 188.475Z" fill="#1B4D7C"/>
<path d="M154.821 199.072C143.752 196.964 136.483 186.278 138.592 175.21C139.073 172.721 139.979 170.411 141.226 168.365C141.369 168.118 141.55 167.86 141.693 167.613C141.562 167.669 141.431 167.725 141.299 167.781C135.587 170.544 131.615 175.826 130.596 182.155C129.739 187.292 130.95 192.438 133.982 196.658C137.013 200.879 141.497 203.665 146.634 204.523C151.771 205.381 156.917 204.169 161.138 201.138C162.139 200.431 163.069 199.618 163.901 198.748C161.056 199.51 157.967 199.67 154.821 199.072Z" fill="#184670"/>
<path d="M148.648 159.903L159.569 161.696L163.151 162.281L162.547 165.951C162.24 165.741 161.944 165.57 161.623 165.384C161.549 165.342 161.475 165.299 161.4 165.256C161.079 165.071 160.783 164.899 160.447 164.739C160.112 164.578 159.801 164.432 159.466 164.271C159.392 164.228 159.303 164.21 159.229 164.167C158.569 163.885 157.909 163.602 157.22 163.369C157.131 163.351 157.057 163.308 156.994 163.305C156.305 163.071 155.612 162.902 154.895 162.718C154.806 162.7 154.718 162.682 154.629 162.664C154.276 162.592 153.922 162.52 153.555 162.472C153.201 162.4 152.858 162.366 152.515 162.333C152.427 162.315 152.338 162.297 152.236 162.303C151.893 162.27 151.55 162.237 151.192 162.228C150.835 162.219 150.492 162.186 150.135 162.177C150.046 162.159 149.968 162.18 149.866 162.187C149.508 162.178 149.176 162.184 148.829 162.214C148.482 162.244 148.149 162.25 147.778 162.266C147.675 162.272 147.597 162.293 147.534 162.289C147.187 162.32 146.84 162.35 146.504 162.419C146.142 162.474 145.82 162.519 145.484 162.588C145.406 162.609 145.303 162.616 145.225 162.637C144.889 162.706 144.552 162.775 144.202 162.869L144.787 159.287L148.648 159.903ZM159.64 149.879L158.338 157.724L151.062 156.52L152.364 148.675L159.64 149.879ZM161.282 169.568C161.465 169.707 161.649 169.846 161.832 169.985C161.906 170.028 161.941 170.081 162.016 170.124C162.234 170.316 162.467 170.483 162.685 170.675C162.929 170.881 163.158 171.112 163.401 171.319C168.016 175.762 170.114 182.111 169.081 188.465C168.437 192.375 166.652 195.923 163.979 198.727C163.147 199.597 162.217 200.411 161.216 201.117C156.996 204.148 151.849 205.36 146.712 204.502C141.575 203.644 137.077 200.882 134.06 196.637C131.029 192.417 129.817 187.271 130.675 182.134C131.718 175.819 135.666 170.523 141.378 167.76C141.509 167.704 141.64 167.648 141.771 167.592C142.048 167.455 142.349 167.333 142.636 167.235C145.936 165.912 149.525 165.514 153.043 166.096C153.308 166.15 153.573 166.205 153.814 166.245C153.902 166.263 153.966 166.267 154.054 166.285C154.231 166.321 154.432 166.371 154.609 166.407C154.698 166.426 154.786 166.444 154.86 166.486C155.062 166.537 155.263 166.587 155.475 166.677C155.524 166.705 155.588 166.709 155.637 166.737C155.888 166.816 156.139 166.895 156.39 166.974C156.439 167.003 156.528 167.021 156.577 167.05C156.764 167.125 156.951 167.2 157.139 167.275C157.213 167.318 157.301 167.336 157.375 167.379C157.562 167.454 157.75 167.529 157.898 167.614C157.972 167.657 158.036 167.661 158.11 167.704C158.346 167.807 158.569 167.936 158.83 168.054C158.855 168.068 158.904 168.097 158.929 168.111C159.126 168.225 159.324 168.339 159.536 168.428C159.61 168.471 159.659 168.5 159.733 168.542C159.931 168.657 160.129 168.771 160.312 168.909C160.361 168.938 160.436 168.981 160.485 169.009C160.718 169.177 160.965 169.319 161.198 169.487C161.183 169.511 161.233 169.54 161.282 169.568ZM172.712 189.079C173.959 181.499 171.424 173.909 165.889 168.605L167.123 161.05C167.203 160.569 167.091 160.077 166.796 159.676C166.501 159.274 166.07 158.993 165.589 158.913L162.008 158.328L163.597 148.672C163.677 148.191 163.566 147.699 163.271 147.298C162.975 146.897 162.545 146.615 162.064 146.535L151.143 144.742C150.117 144.579 149.195 145.264 149.006 146.275L147.417 155.931L143.57 155.291C143.089 155.211 142.597 155.322 142.196 155.618C141.795 155.913 141.513 156.343 141.434 156.824L140.222 164.228C133.167 167.434 128.246 173.847 126.966 181.541C125.973 187.654 127.407 193.784 131.004 198.793C132.963 201.504 135.412 203.709 138.228 205.335C140.624 206.718 143.277 207.657 146.074 208.119C152.186 209.112 158.317 207.678 163.326 204.081C168.369 200.537 171.694 195.177 172.712 189.079Z" fill="#184670"/>
<path d="M208.283 251.15C206.672 249.034 204.716 247.345 202.542 246.09C198.071 243.508 192.746 242.805 187.758 244.142C185.826 245.892 184.129 247.975 182.745 250.371C176.883 260.524 178.59 272.972 186.082 281.217C192.098 283.406 199.086 282.598 204.549 278.44C213.105 271.951 214.773 259.706 208.283 251.15Z" fill="#1B4D7C"/>
<path d="M182.745 250.371C184.129 247.975 185.826 245.892 187.758 244.142C185.381 244.779 183.105 245.869 181.018 247.43C172.462 253.92 170.794 266.165 177.298 274.696C179.644 277.763 182.72 279.967 186.097 281.192C178.59 272.972 176.883 260.524 182.745 250.371Z" fill="#184670"/>
<path d="M204.55 278.441C199.086 282.598 192.098 283.406 186.083 281.217C182.706 279.992 179.616 277.813 177.284 274.721C170.794 266.165 172.448 253.945 181.004 247.455C183.066 245.88 185.382 244.779 187.744 244.167C192.732 242.83 198.082 243.548 202.528 246.115C204.702 247.37 206.658 249.059 208.27 251.175C214.773 259.706 213.106 271.951 204.55 278.441ZM211.23 248.899C203.495 238.735 188.945 236.724 178.781 244.459C168.617 252.194 166.606 266.745 174.341 276.909C176.248 279.426 178.606 281.446 181.175 282.929C189.006 287.45 199.158 287.152 206.805 281.324C216.965 273.652 218.951 259.088 211.23 248.899Z" fill="#184670"/>
</g>
<defs>
<linearGradient id="paint0_linear_128:55398" x1="187.5" y1="0" x2="187.5" y2="461" gradientUnits="userSpaceOnUse">
<stop stop-color="#1B4D7C"/>
<stop offset="1" stop-color="#1B4D7C" stop-opacity="0"/>
</linearGradient>
</defs>
</svg>
