<svg width="660" height="520" fill="none" xmlns="http://www.w3.org/2000/svg"><path d="M0 32c0-11.201 0-16.802 2.18-21.08a20 20 0 018.74-8.74C15.198 0 20.8 0 32 0h596c11.201 0 16.802 0 21.08 2.18a19.998 19.998 0 018.74 8.74C660 15.198 660 20.8 660 32v456c0 11.201 0 16.802-2.18 21.08a19.996 19.996 0 01-8.74 8.74C644.802 520 639.201 520 628 520H32c-11.201 0-16.802 0-21.08-2.18a19.998 19.998 0 01-8.74-8.74C0 504.802 0 499.201 0 488V32z" fill="#1A4975"/><path d="M404.417 392.268l-40.722-71.22c-10.148.638-21.009 1.766-30.424 1.51-30.573 1.341-56.241-.01-75.389-3.457-3.639-.67-3.224-5.031.51-5.095 100.176-2.106 120.164-20.839 124.473-27.254.67-.989 2.67-8.234.063-9.255l-41.306-71.241c1.617-2.032 1.234-3.064-1.149-1.096-28.818 2.936-50.104-3.691-61.688-9.595-2.872-1.468-2.787-2.84.468-2.808 49.816.415 73.709-11.181 80.57-15.521 1.436-.925 1.883-2.808.958-4.244l-50.902-86.603-58.88 102.836c-.734 1.213-.543 4.808.478 5.798 3.064 2.968 8.372 7.159 20.212 12.488l-56.987 92.996c-.861 1.436 6.617 4.319 8.054 5.18 3.319 2.011 4.861 4.649 14.594 8.447l-59.965 100.941c-.925 1.468-2.446 3.415-.946 4.277 6.318 3.67 31.679 15.829 59.38 23.648 122.292-.288 161.045-35.86 169.151-44.03.989-.99.181-5.521-.553-6.702z" fill="#FEFEFE"/><path d="M349.037 456.467c-1.596.064-3.192.128-4.756.16-2.489.063-4.914.127-7.34.127h-.127c-13.659.096-26.169-.574-37.403-1.723-3.861-.383-7.595-.862-11.169-1.341-.83-.127-1.628-.223-2.458-.351-14.616-2.138-26.52-4.946-35.328-7.499a3.826 3.826 0 01-.638-.256c-.032-.031-.096-.063-.128-.095-.159-.096-.287-.192-.414-.287-.032-.032-.064-.064-.096-.064a3.926 3.926 0 01-.351-.383l-.032-.032a1.596 1.596 0 01-.287-.511c-5.936-1.34-11.521-2.744-16.723-4.212-27.701-7.819-45.061-16.978-51.38-20.648a3.055 3.055 0 01-1.053-4.277l62.964-100.941c-9.733-3.798-16.275-7.436-19.594-9.447-1.436-.861-1.883-2.744-1.022-4.18l54.987-93.028c-11.84-5.297-19.148-11.488-22.212-14.488a3.045 3.045 0 01-.478-3.798l55.88-92.804 12.063-20.041c.064-.192.16-.383.255-.575l1.788-2.968a1.935 1.935 0 01-1.117-.83l-3.766-5.744c-.255-.415-.638-.447-.862-.447-.191 0-.606.064-.83.48l-8.01 13.211c-.064.16-.127.351-.223.51l-67.273 111.697c-.256.415-.192.926.159 1.245 2.777 2.681 8.872 7.883 18.669 12.701a5.169 5.169 0 012.681 3.16 5.104 5.104 0 01-.51 4.085l-53.264 90.123a.995.995 0 00.351 1.372c3.064 1.883 8.33 4.755 15.925 7.947a5.108 5.108 0 012.936 3.191c.447 1.436.255 3-.542 4.276l-61.019 97.846c-.191.32-.159.639-.127.766.032.16.159.447.478.607 6.67 3.861 25.467 13.754 55.593 21.733a2.8 2.8 0 01.479.159c9.574 3.575 36.094 12.191 75.379 14.617.128 0 .224.031.319.063.926.224 1.628 1.022 1.628 2.011v1.244c16.531.926 35.264.766 55.976-1.276v-1.436c-2.681.128-5.33.255-7.978.351z" fill="#FEFEFE"/><path d="M382.865 283.784c-4.309 6.383-26.297 28.148-126.473 30.254-3.702.064-4.148 5.457-.51 6.095 19.148 3.447 46.816 6.798 77.389 5.457-21.19-.606-39.987-3.095-54.125-5.616-3.638-.67-3.223-6.032.511-6.096 100.176-2.106 122.164-23.839 126.472-30.253.671-.99.671-2.234.064-3.256l-43.466-73.496c-8.361.926-16.084.957-23.137.383l43.338 73.273c.607.989.575 2.266-.063 3.255zM251.35 439.84c125.196.415 166.683-33.796 174.853-42.03a3.088 3.088 0 00.479-3.733l-41.998-71.295a265.689 265.689 0 01-22.02 2.266l40.753 69.188a3.09 3.09 0 01-.479 3.734c-8.106 8.17-48.859 41.774-171.151 42.03a296.236 296.236 0 0016.723 4.212c-.798-1.819.287-4.372 2.84-4.372zm105.41-263.604c-6.83 4.34-28.722 14.936-78.571 14.521-3.223-.032-4.34 4.34-1.468 5.808 11.585 5.904 32.871 13.563 61.688 10.595-17.169-1.564-30.253-6.606-38.455-10.786-2.872-1.468-1.787-5.841 1.468-5.809 49.817.415 71.709-10.18 78.57-14.52 1.437-.926 1.883-2.809.958-4.245l-58.721-92.772a3.06 3.06 0 01-.287-2.68l-12.063 20.041 47.838 75.603c.925 1.436.511 3.319-.957 4.244z" fill="#967DB7"/><path d="M493.444 422.064v-.319.319zm0 .096c0-.032 0-.032 0 0zm0 0c0 .128-.032.224-.064.351.032-.127.032-.255.064-.351zm-.128-1.244zm-.287-.607c.096.192.192.383.256.543-.064-.16-.128-.351-.256-.543zm-.223 3.447zm-.064.064c0-.032.032-.032.032-.064 0 .032 0 .032-.032.064zm0 0c-.128.127-.255.287-.383.383.16-.128.287-.256.383-.383zm-.415.415a2.796 2.796 0 01-.51.319c.191-.064.351-.192.51-.319zm1.085-2.777c.032.032.032.032 0 0zm-61.72 22.754c.064-.032.128-.032.191-.064a.446.446 0 01-.191.064zm-.415.096c-1.436.351-2.84.702-4.276 1.053 1.436-.319 2.84-.67 4.276-1.053zM251.35 439.84c-2.553 0-3.638 2.553-2.808 4.404.063.16.191.351.287.511l.032.032c.095.127.223.255.351.383.032.032.064.063.095.063.128.096.256.192.415.288.032.032.096.064.128.095.192.096.415.192.638.256 8.84 2.521 20.744 5.361 35.328 7.499.798.128 1.628.224 2.458.351 3.574.479 7.276.958 11.169 1.341a330.93 330.93 0 0026.01 1.627c3.702.096 7.499.128 11.393.096h.127c2.394-.032 4.851-.064 7.34-.128 1.564-.031 3.16-.095 4.755-.159 2.617-.096 5.298-.255 7.979-.415.83-.064 1.691-.096 2.521-.16-.83.064-1.691.128-2.521.16v.096s-35.009 1.723-57.604-.639c-.095-.031-.223-.031-.319-.063-39.285-2.394-65.805-11.01-75.379-14.617-.16-.063-.287-.095-.479-.159-30.158-7.979-48.923-17.872-55.593-21.733-.319-.192-.415-.479-.478-.607a1.037 1.037 0 01.127-.765l60.987-97.815a5.173 5.173 0 00.542-4.276 5.108 5.108 0 00-2.936-3.191c-7.595-3.16-12.861-6.064-15.925-7.947-.478-.287-.606-.893-.351-1.372l53.264-90.123c.734-1.213.893-2.713.51-4.085a5.271 5.271 0 00-2.681-3.16c-9.797-4.818-15.892-10.02-18.669-12.701-.319-.319-.383-.83-.159-1.245l67.305-111.728c.095-.16.159-.32.223-.51l8.01-13.213a.963.963 0 01.83-.478c.224 0 .606.063.862.446l3.766 5.745c.255.415.67.702 1.117.83l.638-1.022-.638 1.021-1.788 2.968c-.095.16-.127.32-.191.447l-.064.096a3.071 3.071 0 00.287 2.68l58.721 92.773a3.059 3.059 0 01-.958 4.244c-6.829 4.34-28.722 14.935-78.57 14.521-3.223-.032-4.34 4.34-1.468 5.808 8.202 4.18 21.286 9.255 38.455 10.786l1.053-.095.128.191c7.053.575 14.776.543 23.137-.383l43.434 73.465a3.068 3.068 0 01-.064 3.255c-4.308 6.382-26.296 28.147-126.472 30.254-3.702.063-4.149 5.457-.511 6.095 14.138 2.521 32.967 5.042 54.125 5.617 9.191-.415 18.638-1.213 28.18-2.617l1.244 2.106a298.08 298.08 0 0022.021-2.266l41.966 71.295a3.088 3.088 0 01-.479 3.733c-8.17 8.298-49.657 42.509-174.853 42.094zm165.47 7.851h-.032c-.191.032-.414.096-.606.127.606-.127 1.245-.255 1.851-.414-.415.127-.83.223-1.213.287zm-4.436.925s0 .032 0 0h.064-.064zm-1.148.256c.382-.064.765-.16 1.148-.224-.414.064-.766.128-1.148.224zm-3.288.638c-.031 0-.031 0 0 0 1.086-.224 2.171-.415 3.288-.638h-.032c-1.085.223-2.17.446-3.256.638zm-1.404.287c.128-.032.224-.032.319-.064a.946.946 0 00-.319.064zm-3.127.574c-.032 0-.032 0 0 0 1.021-.191 2.074-.382 3.127-.574-1.053.192-2.106.383-3.127.574zm-1.341.224c-1.404.255-2.84.51-4.244.734h-.064c1.436-.224 2.872-.479 4.308-.734zm-69.539-388.29c.032 0 .096.033.128.033-.064 0-.096-.032-.128-.032zm.192.033c-.032 0-.064 0-.096-.032.032.032.064.032.096.032zm.191.064c.064 0 .096.032.16.032-.064 0-.128-.032-.16-.032zm.383.127c.064.032.096.032.16.064a.54.54 0 00-.16-.064zm.351.16c.032.032.096.064.128.096-.032-.032-.064-.064-.128-.096zm.351.255c.032.032.096.064.128.096-.032-.032-.096-.064-.128-.096zm.351.287c-.031 0-.031 0 0 0-.031-.032-.063-.064-.095-.064.032 0 .064.032.095.064zm.096.096l-.096-.096.096.096zm.255.351c-.031-.064-.095-.096-.127-.16.032.064.096.096.127.16zm159.918 355.897a3.913 3.913 0 00-.255-.51l-61.88-106.527c7.212-2.713 14.201-5.808 20.807-9.223l.128-.064c1.436-.542 2.521-1.691 3.032-3.127.51-1.436.319-3.032-.447-4.34l-12.638-20.936-44.04-74.741a306.705 306.705 0 0015.063-7.116c.032 0 .032-.032.032-.032.287-.16.542-.319.798-.543.095-.063.159-.127.223-.191l.032-.032.447-.447c.096-.096.191-.223.255-.319.128-.16.223-.319.255-.415l.032-.032c.064-.095.128-.223.224-.415a1.97 1.97 0 00.095-.255 4.634 4.634 0 00.351-2.17v-.064c-.063-.925-.319-1.755-.797-2.489v-.064L335.984 62.338a5.112 5.112 0 00-3.032-2.17 4.04 4.04 0 00-1.372-.16 5.14 5.14 0 00-1.532.255c-.191.064-.415.16-.606.256-.894.447-1.66 1.117-2.17 1.978l-2.713 4.468-1.947-3c-.957-1.5-2.617-2.361-4.404-2.33a5.094 5.094 0 00-4.308 2.49l-8.266 13.627c-.095.16-.159.351-.223.51l-67.018 111.282a5.126 5.126 0 00.83 6.351c2.936 2.84 9.414 8.361 19.722 13.435.351.192.479.479.543.639.032.159.096.478-.096.798l-53.295 90.123c-1.436 2.425-.638 5.553 1.755 7.021 3.191 1.946 8.649 4.946 16.467 8.201.383.16.543.479.575.639.064.159.096.478-.096.829l-61.018 97.846a5.226 5.226 0 00-.638 3.958c.351 1.372 1.18 2.489 2.393 3.191 6.83 3.957 25.978 14.042 56.614 22.18.032 0 .064 0 .064.032 9.606 3.606 42.477 13.116 74.645 14.744 32.169 1.627 64.274-1.5 64.274-1.5 3.893-.415 7.755-.894 11.52-1.436.479-.064.926-.096 1.405-.16l.542-.064c.606-.064 1.245-.127 1.851-.191.67-.064 1.34-.16 2.011-.224.638-.064 1.276-.159 1.946-.223l.415-.064c.511-.064 1.021-.128 1.564-.191 1.181-.16 2.33-.32 3.51-.479.447-.064.862-.128 1.309-.192l.542-.063c.702-.096 1.436-.192 2.139-.32.67-.095 1.308-.191 1.978-.287a50.862 50.862 0 002.202-.351l.383-.064c.511-.063.989-.159 1.5-.255 1.245-.191 2.489-.415 3.734-.638.383-.064.734-.128 1.117-.192l.542-.095c.83-.16 1.66-.288 2.522-.447.606-.128 1.244-.224 1.882-.351l2.49-.479.478-.096c.415-.095.862-.159 1.277-.255 1.308-.255 2.649-.542 3.989-.798.287-.064.606-.127.894-.191l.51-.096a96.644 96.644 0 002.904-.638c.575-.128 1.181-.256 1.756-.383a86.742 86.742 0 002.776-.639l.415-.095 1.245-.287c1.404-.32 2.808-.671 4.212-1.022.223-.064.447-.095.67-.159l.479-.128c1.117-.287 2.234-.542 3.351-.83.542-.127 1.085-.287 1.659-.415 1.022-.255 2.011-.542 3.032-.797l.479-.128 1.053-.287c1.628-.447 3.064-.83 4.436-1.213l.83-.223c1.244-.351 2.521-.734 3.797-1.085a33.58 33.58 0 001.373-.415l.191-.064c1.085-.319 2.202-.67 3.287-.989l.383-.128c.351-.128.734-.223 1.117-.351 1.691-.511 3.191-.989 4.628-1.468l.542-.16c1.404-.446 2.808-.893 4.213-1.372a18.27 18.27 0 001.212-.415l.288-.096c1.148-.383 2.297-.765 3.478-1.18l.415-.16c.351-.128.702-.223 1.021-.351 1.787-.638 3.351-1.181 4.819-1.691l.255-.096a250.006 250.006 0 004.628-1.692c.383-.127.766-.287 1.117-.414l.351-.128c1.213-.447 2.393-.894 3.606-1.372l.415-.16c.351-.128.702-.255 1.053-.415 1.883-.734 3.447-1.34 4.947-1.946a4.98 4.98 0 002.84-2.841 5.039 5.039 0 00-.032-4.021z" fill="#232F40"/><mask id="a" style="mask-type:alpha" maskUnits="userSpaceOnUse" x="252" y="144" width="165" height="110"><path d="M252 166l13-22 35 12.5 32.5 19.5 56 .5L405 168l-12.5-19 3.5-1 20 16 1 32-22.5 45-45.5 13-60.5-20.5-20-28.5-16.5-39z" fill="#C4C4C4"/></mask><g mask="url(#a)"><path d="M363.468 217.023c0 7.285 5.929 13.196 13.235 13.196 7.306 0 13.234-5.911 13.234-13.196 0-7.284-5.928-13.195-13.234-13.195s-13.235 5.911-13.235 13.195z" fill="#967DB7"/><path d="M324.703 221.805c0 7.284 5.929 13.195 13.235 13.195 7.306 0 13.235-5.911 13.235-13.195 0-7.285-5.929-13.195-13.235-13.195-7.316 0-13.235 5.91-13.235 13.195z" fill="#EC6A8B"/><path d="M273.428 185.862c0 7.284 5.929 13.195 13.235 13.195 7.306 0 13.235-5.911 13.235-13.195 0-7.284-5.929-13.195-13.235-13.195-7.306 0-13.235 5.9-13.235 13.195z" fill="#F3BC8F"/><path d="M256.337 151.577l1.306-.794 1.306-.783.796 1.302c5.275 8.658 12.265 16.848 21.959 25.699a9.73 9.73 0 011-.468 10.553 10.553 0 013.99-.784c1.398 0 2.775.275 4.081.824a10.48 10.48 0 015.582 5.494 10.402 10.402 0 01.592 6.633c1.949 1.333 3.53 2.381 4.316 2.849a106.112 106.112 0 0016.561 8.037c6.01 2.289 12.122 3.957 18.183 4.985l.235-1.516a2.19 2.19 0 012.163-1.862c.113 0 .215.01.327.021l4.296.651a2.2 2.2 0 011.439.864c.346.468.489 1.048.408 1.618l-.194 1.251a88.415 88.415 0 008.316.173 79.81 79.81 0 0014.48-1.76 2.137 2.137 0 01.173-1.231 2.168 2.168 0 011.224-1.139l4.062-1.526c.245-.092.51-.143.775-.143.908 0 1.725.57 2.051 1.415l.123.315a76.164 76.164 0 0011.54-4.975c5.908-3.164 10.255-7.01 13.306-11.75 3.531-5.514 5.164-11.68 4.592-17.336-.071-.672-.306-1.129-.479-1.343a4.821 4.821 0 00-.154.122l-2.673-1.241-1.02-1.14-1.021-1.139-1.02-1.139 1.143-1.018c1.265-1.129 4.01.896 4.806.896.51 0 1.02.091 1.49.274 2.255.875 3.275 3.378 3.469 5.26.673 6.674-1.204 13.877-5.306 20.266-3.48 5.422-8.388 9.776-15 13.317a79.976 79.976 0 01-10.061 4.507l.653 1.729a10.556 10.556 0 013.704 2.106 10.662 10.662 0 012.888 4.171c2.051 5.423-.704 11.506-6.143 13.551a10.567 10.567 0 01-3.714.682c-2.123 0-4.174-.631-5.939-1.821a10.47 10.47 0 01-3.939-4.975 10.614 10.614 0 01-.602-5.097 10.545 10.545 0 011.439-4.049l-.776-2.045a2.232 2.232 0 01-.142-.722 84.23 84.23 0 01-13.817 1.546c-.816.021-1.653.031-2.479.031-1.51 0-3.041-.041-4.572-.122.021.173.011.356-.01.539l-.561 3.673a10.406 10.406 0 012.286 3.693c.602 1.648.775 3.428.52 5.147a10.426 10.426 0 01-4.163 6.888 10.479 10.479 0 01-7.827 1.933 10.468 10.468 0 01-6.908-4.151 10.431 10.431 0 01-1.939-7.813 10.599 10.599 0 011.909-4.639 10.757 10.757 0 013.122-2.829l.582-3.855c.01-.061.02-.112.03-.163a102.324 102.324 0 01-16.928-4.833 109.857 109.857 0 01-17.286-8.383c-.775-.468-2.194-1.393-4-2.624a10.609 10.609 0 01-8.234 3.927 10.41 10.41 0 01-4.072-.824 10.462 10.462 0 01-5.683-5.718 10.43 10.43 0 01.041-8.047c.326-.784.744-1.516 1.244-2.188-9.816-9.013-16.948-17.417-22.387-26.329L255 152.35l1.337-.773z" fill="#FEFEFE"/><path d="M350.591 208.905c.816 0 1.622-.011 2.439-.031 12.581-.356 24.948-3.612 35.775-9.4 6.377-3.408 11.102-7.6 14.438-12.799 3.919-6.104 5.725-12.951 5.082-19.289-.163-1.566-1.265-3.408-2.582-4.354-.755-.539-3.255-2.33-4.642-1.088l1.02 1.139c.602-.529 1.939.214 3.082 1.119 1.071.855 1.479 2.055 1.612 3.337.612 6.002-1.112 12.503-4.847 18.312-3.194 4.975-7.735 8.994-13.877 12.28-10.613 5.677-22.755 8.871-35.092 9.217-11.857.336-23.887-1.78-35.765-6.297a106.995 106.995 0 01-16.806-8.149c-2.755-1.649-13.551-9.207-16.214-11.537-11.663-10.174-19.867-19.462-25.816-29.229l-1.306.794c6.041 9.909 14.336 19.309 26.122 29.584 2.714 2.361 13.653 10.032 16.439 11.69a108.62 108.62 0 0017.04 8.271 100.46 100.46 0 0017.857 4.975 90.581 90.581 0 0016.041 1.455z" fill="#C8762C"/><path d="M339.815 226.912c-4.408-.661-7.438-4.761-6.775-9.156.143-.916.429-1.78.837-2.554.234-.132.469-.264.714-.376l8.388 1.261c1.898 1.72 2.836 4.304 2.449 6.837a7.647 7.647 0 01-1.511 3.54 7.934 7.934 0 01-4.102.448z" fill="#EC6A8B"/><path d="M341.887 204.622l-.735 4.822-2.979-.447.734-4.823 2.98.448z" fill="#399FCF"/><path d="M342.397 227.96a7.642 7.642 0 01-5.714 1.414 7.633 7.633 0 01-5.041-3.032 7.586 7.586 0 01-1.418-5.697 7.63 7.63 0 013.653-5.433 7.936 7.936 0 00-.837 2.554c-.663 4.395 2.367 8.495 6.776 9.156a8.092 8.092 0 004.112-.447 8.493 8.493 0 01-1.531 1.485z" fill="#D9547A"/><path d="M335.744 209.973l7.337 1.099-.551 3.611-.48-.071-6.561-.987-.225-.03-.071-.01.551-3.612z" fill="#399FCF"/><path d="M331.632 226.332a7.66 7.66 0 005.041 3.032 7.647 7.647 0 005.714-1.414 8.143 8.143 0 001.531-1.486 7.611 7.611 0 001.51-3.54 7.693 7.693 0 00-2.449-6.837l-8.388-1.261a7.659 7.659 0 00-4.377 5.809 7.675 7.675 0 001.418 5.697zm4.112-16.359l-.551 3.612.072.01.224.03 6.551.987.49.071.551-3.611-7.337-1.099zm3.163-5.799l-.734 4.822 2.979.448.735-4.822-2.98-.448zm-10 16.267a8.955 8.955 0 014.929-6.714l.694-4.609a.703.703 0 01.265-.437.648.648 0 01.49-.122l1.571.234.827-5.484a.703.703 0 01.265-.437.695.695 0 01.49-.122l4.286.651c.173.03.326.122.438.264a.698.698 0 01.123.489l-.827 5.483 1.47.224a.653.653 0 01.551.753l-.674 4.446a9.031 9.031 0 012.929 8.057 8.918 8.918 0 01-3.561 5.891 9 9 0 01-6.704 1.658 8.948 8.948 0 01-5.908-3.551 8.958 8.958 0 01-1.654-6.674z" fill="#232F40"/><path d="M381.07 220.543c-4.173 1.455-8.734-.743-10.183-4.904a7.756 7.756 0 01-.388-1.637c.02.01.031.02.051.03.01 0 .01.01.02.01.031.01.051.021.082.031.01 0 .01 0 .02.01.021.01.051.01.072.02h.01c.031 0 .061.01.082.01h.02c.031 0 .072 0 .102-.01h.01l.113-.03 8.183-3.083a.666.666 0 00.388-.854l-.102-.265a7.65 7.65 0 014.877 8.444 8.165 8.165 0 01-3.357 2.228z" fill="#967DB7"/><path d="M370.427 204.123l2.827-1.068 1.143 3.021-2.827 1.069-1.143-3.022z" fill="#399FCF"/><path d="M379.55 224.216c-3.969 1.495-8.418-.509-9.918-4.466-.807-2.137-.633-4.456.459-6.41l.132.336c.011.031.021.061.041.081 0 .011.01.011.01.021.011.03.031.051.051.071 0 0 0 .01.011.01.02.021.03.041.051.061.01 0 .01.01.01.01.02.021.041.041.071.051l.011.01c.01 0 .01.011.02.011a7.78 7.78 0 00.388 1.638c1.459 4.161 6.01 6.348 10.183 4.903a7.99 7.99 0 003.347-2.238 7.667 7.667 0 01-4.867 5.911z" fill="#6C569F"/><path d="M376.876 206.555l.807 2.116.489 1.302-6.938 2.615-.347-.926-.215-.56-.734-1.933 6.938-2.614z" fill="#399FCF"/><path d="M369.632 219.75c1.5 3.957 5.948 5.961 9.918 4.466a7.666 7.666 0 004.867-5.911 7.543 7.543 0 00-.388-3.978 7.622 7.622 0 00-4.489-4.466l.102.265a.657.657 0 01-.388.854l-8.184 3.083c-.03.01-.071.02-.112.03h-.01c-.031.01-.072.01-.102.01h-.021c-.03 0-.061 0-.081-.01h-.01a.195.195 0 01-.072-.02c-.01 0-.01 0-.02-.01-.031-.01-.051-.021-.082-.031-.01 0-.01-.01-.02-.01-.021-.01-.031-.02-.051-.03-.011 0-.011-.011-.021-.011l-.01-.01c-.02-.02-.041-.03-.071-.051-.011 0-.011-.01-.011-.01a.306.306 0 01-.051-.061s0-.01-.01-.01c-.02-.02-.03-.051-.051-.071 0-.01-.01-.01-.01-.021-.01-.03-.031-.05-.041-.081l-.132-.336a7.672 7.672 0 00-.449 6.42zm.795-15.627l1.143 3.022 2.817-1.058-1.143-3.022-2.817 1.058zm7.245 4.558l-.806-2.116-6.939 2.614.735 1.933.214.56.347.926 6.939-2.615-.49-1.302zm-8.163 3.113l-1.051-2.777a.632.632 0 01.021-.509.643.643 0 01.367-.346l1.49-.559-1.378-3.643a.63.63 0 01.021-.508.643.643 0 01.367-.346l4.061-1.526a.66.66 0 01.857.386l1.368 3.653 1.387-.529a.66.66 0 01.857.386l1.072 2.829a8.958 8.958 0 016.316 5.564c1.755 4.64-.602 9.838-5.255 11.588a8.912 8.912 0 01-3.173.58c-3.643 0-7.082-2.218-8.449-5.819a8.941 8.941 0 011.122-8.424z" fill="#232F40"/><path d="M280.694 183.858c0-1.008.153-1.984.418-2.91a7.751 7.751 0 012.602-1.75 7.646 7.646 0 012.908-.57c1.01 0 2.02.204 2.98.601 3.908 1.638 5.755 6.144 4.112 10.041a7.72 7.72 0 01-5.378 4.507c-4.398-1.16-7.642-5.158-7.642-9.919z" fill="#F3BC8F"/><path d="M283.653 193.38a7.627 7.627 0 01-4.143-4.171 7.601 7.601 0 01.031-5.87 7.713 7.713 0 011.581-2.381 10.155 10.155 0 00-.418 2.91c0 4.751 3.245 8.749 7.643 9.919a7.796 7.796 0 01-4.694-.407z" fill="#DFA076"/><path d="M293.724 189.27c1.643-3.897-.204-8.404-4.112-10.041a7.79 7.79 0 00-2.98-.601c-.989 0-1.969.194-2.908.57a7.663 7.663 0 00-2.602 1.75 7.709 7.709 0 00-1.581 2.38 7.604 7.604 0 00-.031 5.871 7.63 7.63 0 004.143 4.171 7.642 7.642 0 004.694.397 7.637 7.637 0 005.377-4.497zm-15.408-6.45a8.908 8.908 0 014.908-4.843 9.005 9.005 0 016.898.031c4.582 1.923 6.745 7.203 4.827 11.771-1.449 3.438-4.807 5.514-8.327 5.514a8.933 8.933 0 01-3.479-.702 8.91 8.91 0 01-4.858-4.894 8.926 8.926 0 01.031-6.877z" fill="#232F40"/></g><mask id="b" style="mask-type:alpha" maskUnits="userSpaceOnUse" x="204" y="176" width="284" height="178"><path fill-rule="evenodd" clip-rule="evenodd" d="M227.5 288.5l9 36.5-23.5 29 274.5-3-61-174.5-173 32.5-18.5 16.5-30.5 22.5 12.5 26.5s4 8.5 6 11c.119.149.151-.069.152-.456L224 282.5c1.125 1.5 1.5 2 4.5 5.5.603.253-1 .5-1 .5zm-1.375-5.937c1.125 1.593 2.25 3.187 3.375 3.937 1.2.8 5.5 0 7.5-.5l6-12.5-6-12.5-5.5-3-3.5 6-3 17c.375.5.75 1.031 1.125 1.563z" fill="#fff"/></mask><g mask="url(#b)"><path d="M338.224 304.522c0 7.17 5.819 12.989 12.99 12.989s12.99-5.819 12.99-12.989c0-7.171-5.819-12.99-12.99-12.99s-12.99 5.819-12.99 12.99z" fill="#F3BC8F"/><path d="M384.255 272.303c0 7.171 5.819 12.989 12.99 12.989 7.17 0 12.989-5.818 12.989-12.989 0-7.171-5.819-12.99-12.989-12.99-7.181 0-12.99 5.819-12.99 12.99z" fill="#E95228"/><path d="M303.451 299.815c0 7.17 5.819 12.989 12.99 12.989s12.99-5.819 12.99-12.989c0-7.171-5.819-12.99-12.99-12.99-7.181 0-12.99 5.819-12.99 12.99z" fill="#8ECCBD"/><path d="M252.304 319.565c0 7.17 5.818 12.989 12.989 12.989 7.171 0 12.99-5.819 12.99-12.989 0-7.171-5.819-12.99-12.99-12.99s-12.989 5.809-12.989 12.99z" fill="#E95228"/><path d="M296.911 273.865c-.09-5.338-1.452-9.665-2.123-11.488-.901-2.453-2.023-4.637-3.155-6.149-.18-.24-.35-.451-.49-.611-.01.06-.03.12-.04.18-.301 1.342-.331 3.105-.091 4.988.361 2.804 1.623 7.912 5.899 13.08zm-77.548-4.908c1.863 4.357 4.898 9.204 8.623 13.741 4.227-2.433 6.52-5.398 6.811-8.843.26-3.005-1.042-6.36-3.646-9.435-2.414-2.834-5.578-4.997-8.463-5.788a7.44 7.44 0 00-1.953-.281c-1.903 0-2.594.972-2.934 1.703-.571 1.192-.461 4.156 1.562 8.903zm-58.87-21.913a138.68 138.68 0 002.384-1.893c7.451-6.029 9.474-8.883 10.025-9.965-.21-.03-.49-.05-.851-.05h-.12c-3.375.04-6.049 1.132-7.952 3.255-2.164 2.413-3.095 5.809-3.486 8.653zM124.428 349.27a9.656 9.656 0 017.742-3.295l2.133-2.444a2.154 2.154 0 011.623-.741c.09 0 .19.01.28.02a5.298 5.298 0 016.11-3.055c1.722-2.373 3.845-5.879 5.318-10.265a34.305 34.305 0 001.272-4.978 9.817 9.817 0 01-3.375-1.462 9.497 9.497 0 01-3.436-4.216c-2.013-4.798.161-10.326 4.858-12.48-1.352-3.415-3.255-6.85-5.699-10.235-5.518-7.652-7.652-15.073-6.32-22.054 1.743-9.144 9.024-15.483 14.823-19.189.391-.25 2.804-1.893 5.979-4.217.01-1.001.07-2.303.24-3.755.411-3.325 1.543-8.022 4.648-11.488 2.774-3.095 6.56-4.697 11.257-4.757h.16c1.372 0 2.464.2 3.335.601 1.052.491 1.773 1.292 2.083 2.313.451 1.513-.04 3.195-1.542 5.278-1.813 2.514-5.148 5.719-10.206 9.805a196.48 196.48 0 01-5.408 4.207v.07c0 .03.18 3.806 1.572 8.783 2.054 7.342 6.651 17.096 16.886 22.745a2.1 2.1 0 01.872-.711c.28-.13.58-.19.881-.19.26 0 .511.05.761.14l3.636 1.372a2.152 2.152 0 011.352 2.424c3.725 1.031 7.842 1.552 12.248 1.552 1.923 0 3.926-.1 5.969-.29.842-.081 1.673-.171 2.504-.271a2.14 2.14 0 011.272-2.424l3.586-1.502a2.129 2.129 0 011.642-.01c.531.221.942.631 1.172 1.162l.611 1.452c3.215-.681 6.079-1.512 8.553-2.484-3.115-3.916-5.739-8.002-7.642-11.898-2.173-4.457-4.366-10.616-2.423-14.662.661-1.372 1.612-2.444 2.834-3.185 1.192-.721 2.594-1.082 4.156-1.082.992 0 2.053.151 3.145.451 3.736 1.012 7.732 3.716 10.706 7.221 3.396 3.996 5.058 8.513 4.708 12.729-.201 2.324-1.002 4.517-2.384 6.52-1.392 2.013-3.375 3.826-5.899 5.389.431.47.871.931 1.322 1.382 5.338 5.468 16.034 14.622 29.064 16.225v-.241a2.156 2.156 0 012.144-2.163l3.886-.02a2.16 2.16 0 012.153 2.143v.21c2.854-.41 5.678-1.241 8.423-2.473 10.526-4.728 16.735-11.889 18.448-21.313-2.674-2.524-4.878-5.368-6.55-8.453-1.743-3.225-2.905-6.71-3.335-10.105-.311-2.384-.251-4.717.16-6.56.671-2.965 2.063-3.956 3.115-4.257.28-.08.571-.12.861-.12 1.592 0 3.235 1.192 4.877 3.535 1.262 1.813 2.494 4.247 3.456 6.871a41.895 41.895 0 011.973 7.572c.541 3.335.631 6.63.29 9.794.07.061.14.111.211.171 4.166 3.365 9.384 5.989 15.513 7.802l.251-.661a2.129 2.129 0 012.003-1.392c.26 0 .52.05.761.14l3.635 1.372a2.151 2.151 0 011.362 2.373c4.187.702 8.744 1.122 13.571 1.232.621.02 1.252.02 1.873.02 1.422 0 2.854-.04 4.287-.12l-.031-.23a2.068 2.068 0 01.401-1.593c.341-.46.841-.761 1.412-.851l3.846-.581c.11-.02.21-.02.321-.02.46 0 .901.14 1.272.421.46.34.761.841.851 1.412l.09.581c11.928-1.903 23.576-6.54 34.663-13.801a9.669 9.669 0 01.691-5.829 9.624 9.624 0 015.028-4.888 9.483 9.483 0 013.715-.751c1.442 0 2.855.321 4.147.942 12.619-11.418 19.589-22.625 19.66-22.735a2.233 2.233 0 011.912-1.072 2.247 2.247 0 011.913 3.426c-.07.12-7.13 11.507-19.96 23.245a9.516 9.516 0 011.212 2.103c2.053 4.898-.251 10.556-5.148 12.61a9.528 9.528 0 01-3.716.751 9.65 9.65 0 01-7.561-3.646c-4.687 3.045-9.525 5.659-14.392 7.792-6.36 2.784-12.92 4.797-19.56 5.999.06.15.11.321.13.491l.511 3.375a9.548 9.548 0 012.784 2.554 9.69 9.69 0 011.733 4.236 9.601 9.601 0 01-1.773 7.151 9.543 9.543 0 01-6.31 3.806c-.48.07-.961.11-1.442.11a9.653 9.653 0 01-9.524-8.202 9.502 9.502 0 01.47-4.697 9.69 9.69 0 012.034-3.325l-.481-3.205c-.05-.351-.02-.691.09-1.012-1.082.04-2.163.06-3.235.06-.671 0-1.342-.01-2.013-.02-4.577-.11-8.954-.481-13.04-1.112a1.9 1.9 0 01-.09.321l-.661 1.753a9.572 9.572 0 011.262 3.655c.2 1.553.01 3.165-.551 4.657a9.607 9.607 0 01-5.048 5.379 9.569 9.569 0 01-3.966.861 9.698 9.698 0 01-3.405-.621 9.602 9.602 0 01-5.378-5.048 9.55 9.55 0 01-.23-7.371 9.699 9.699 0 012.624-3.816 9.641 9.641 0 013.315-1.913l.25-.671c-5.018-1.682-9.454-3.916-13.22-6.63-.03.12-.07.25-.1.371a30.411 30.411 0 01-6.59 12.018c-3.496 3.946-8.153 7.231-13.832 9.785a36.049 36.049 0 01-8.513 2.634c.191.32.291.691.301 1.082l.02 3.415a9.689 9.689 0 012.394 2.934 9.646 9.646 0 011.101 4.447 9.591 9.591 0 01-2.794 6.83 9.548 9.548 0 01-6.8 2.855h-.04c-5.288 0-9.605-4.307-9.635-9.585a9.69 9.69 0 011.142-4.587 9.61 9.61 0 012.493-2.994l-.01-3.245c0-.381.091-.731.271-1.042a42.088 42.088 0 01-7.832-2.013c-9.965-3.585-17.907-10.336-22.805-15.353a86.21 86.21 0 01-2.233-2.384c-2.304 1.002-4.928 1.873-7.852 2.614l.971 2.303a9.488 9.488 0 013.325 1.793 9.668 9.668 0 012.724 3.686 9.59 9.59 0 01.03 7.371 9.536 9.536 0 01-5.187 5.238 9.595 9.595 0 01-7.372.03 9.54 9.54 0 01-5.238-5.188 9.783 9.783 0 01-.701-4.677 9.7 9.7 0 011.162-3.726l-1.252-2.994a2.173 2.173 0 01-.01-1.643c.02-.05.05-.11.07-.16-.871.1-1.752.2-2.644.28a68.118 68.118 0 01-6.46.321c-4.186 0-8.142-.431-11.798-1.292-.01.04-.03.08-.04.12l-.661 1.753a9.577 9.577 0 011.262 3.655c.2 1.553.01 3.165-.551 4.658a9.61 9.61 0 01-5.047 5.378 9.553 9.553 0 01-3.966.861 9.703 9.703 0 01-3.406-.621 9.608 9.608 0 01-5.378-5.048 9.552 9.552 0 01-.23-7.371 9.71 9.71 0 012.624-3.816 9.641 9.641 0 013.315-1.913l.681-1.812c.04-.11.1-.221.16-.331-4.527-2.714-8.383-6.37-11.487-10.906-2.785-4.057-4.928-8.744-6.38-13.932a52.739 52.739 0 01-1.462-6.99c-2.134 1.522-3.606 2.523-3.906 2.714-5.058 3.235-11.388 8.673-12.83 16.245-1.092 5.718.771 11.968 5.549 18.578 2.824 3.916 5.007 7.942 6.51 11.998 3.715.17 7 2.444 8.442 5.889 2.054 4.898-.25 10.556-5.147 12.609a8.987 8.987 0 01-1.242.421 38.218 38.218 0 01-1.573 6.5 42.599 42.599 0 01-6.069 11.678c.341.711.531 1.502.531 2.293a5.237 5.237 0 01-1.482 3.666c-.301.31-.641.591-1.002.811a2.161 2.161 0 01-.411 2.113l-2.243 2.574a9.59 9.59 0 01-.14 3.776 9.605 9.605 0 01-2.103 4.066 9.544 9.544 0 01-6.601 3.285c-.23.02-.46.02-.681.02a9.631 9.631 0 01-6.309-2.363c-4.046-3.486-4.467-9.585-.982-13.591z" fill="#FEFEFE"/><path d="M171.881 233.523c1.462 0 2.373.281 2.524.781.18.601-.06 3.245-10.747 11.899a161.488 161.488 0 01-5.088 3.956c.081-3.355.752-9.114 4.117-12.88 2.193-2.444 5.238-3.706 9.054-3.756h.14zm118.651 19.78c.2 0 .941.291 2.143 1.903 1.212 1.633 2.414 3.946 3.355 6.53.791 2.164 2.754 8.393 2.073 15.674-6.5-6.239-8.282-12.919-8.753-16.555-.27-2.043-.22-4.006.11-5.508.311-1.363.781-1.963 1.022-2.034.03-.01.04-.01.05-.01zm-69.957 3.426c.871 0 1.703.16 2.354.34 3.164.862 6.61 3.205 9.214 6.26 2.874 3.385 4.296 7.121 4.006 10.536-.361 4.286-3.345 7.872-8.673 10.626-8.904-10.506-13.07-21.252-11.177-25.198.951-2.013 2.674-2.564 4.276-2.564zm-79.481 88.445c.19 0 .38-.07.521-.211.23-.23 5.678-5.648 8.683-14.652 1.773-5.288 2.313-10.716 1.602-16.125-.881-6.74-3.705-13.45-8.393-19.95-5.017-6.961-6.97-13.601-5.798-19.74 1.542-8.093 8.192-13.831 13.49-17.226.381-.241 2.774-1.873 5.949-4.187.04.781.311 4.467 1.673 9.324 3.185 11.378 12.489 29.525 39.46 29.525 2.003 0 4.106-.1 6.32-.31 9.454-.901 17.006-2.674 22.494-5.268a79.104 79.104 0 002.914 3.165c4.798 4.907 12.55 11.497 22.244 14.993 9.315 3.355 18.338 3.134 26.801-.671 5.489-2.464 9.965-5.629 13.321-9.415a29.065 29.065 0 006.269-11.427c.241-.862.441-1.723.611-2.574.06.05.13.1.19.15 4.157 3.355 9.285 6.019 15.244 7.932 6.8 2.173 14.762 3.385 23.676 3.606 12.268.29 24.357-2.124 35.955-7.201 9.264-4.046 18.217-9.795 26.63-17.056 14.312-12.379 22.184-25.089 22.264-25.219a.742.742 0 00-.25-1.031.742.742 0 00-1.032.25c-.08.13-7.852 12.669-21.993 24.888-13.02 11.247-34.263 24.517-61.534 23.866-16.515-.39-29.305-4.166-38.018-11.197-.291-.24-.581-.47-.851-.711.991-7.401-.782-13.931-2.084-17.476-1.893-5.158-5.037-10.036-7.361-9.355-.951.271-1.662 1.362-2.063 3.145-.381 1.673-.431 3.816-.14 6.029.42 3.215 1.512 6.52 3.175 9.585 1.722 3.175 4.016 6.059 6.84 8.613-1.252 8.142-6.059 17.216-19.45 23.225-21.142 9.485-40.161-6.63-47.352-14.001a84.02 84.02 0 01-2.604-2.804c.431-.231.841-.461 1.242-.701 2.504-1.503 4.457-3.245 5.789-5.168 1.232-1.783 1.953-3.736 2.123-5.799.321-3.816-1.222-7.942-4.357-11.628-2.784-3.285-6.51-5.799-9.965-6.74-3.906-1.062-6.96.04-8.383 3.015-1.312 2.734-.45 7.481 2.424 13.36 2.123 4.347 5.148 8.894 8.723 13.16-5.288 2.414-12.559 4.106-21.623 4.968-30.776 2.944-40.892-16.355-44.187-28.123-1.452-5.198-1.622-9.094-1.632-9.134v-.04c0-.02-.03-.311-.051-.811a181.422 181.422 0 006.01-4.648c11.026-8.923 11.697-11.968 11.247-13.49-.371-1.252-1.763-1.873-4.116-1.853-4.257.05-7.672 1.482-10.156 4.257-2.844 3.174-3.896 7.551-4.276 10.666a31.47 31.47 0 00-.231 4.326c-3.525 2.604-6.259 4.467-6.67 4.728-5.548 3.545-12.519 9.594-14.162 18.207-1.252 6.56.792 13.591 6.06 20.902 8.252 11.428 10.466 23.116 6.58 34.723-2.895 8.653-8.263 14.002-8.313 14.052-.3.29-.3.761-.01 1.061.14.151.33.221.531.221z" fill="#C8762C"/><path d="M394.21 266.203a6.81 6.81 0 012.634-.531c1.953 0 3.836.842 5.138 2.314.22.781.33 1.602.33 2.454a9.224 9.224 0 01-6.5 8.813 6.842 6.842 0 01-5.258-4.106c-1.452-3.475.181-7.492 3.656-8.944z" fill="#E95228"/><path d="M402.322 270.44c0-.852-.12-1.673-.33-2.454a6.662 6.662 0 011.172 1.873c1.462 3.475-.181 7.491-3.656 8.943a6.746 6.746 0 01-3.686.451 9.224 9.224 0 006.5-8.813z" fill="#C64527"/><path d="M390.554 275.147a6.842 6.842 0 005.258 4.106c1.212.19 2.484.06 3.686-.451 3.475-1.462 5.118-5.468 3.656-8.943a6.662 6.662 0 00-1.172-1.873 6.878 6.878 0 00-5.138-2.314 6.81 6.81 0 00-2.634.531c-3.475 1.452-5.108 5.469-3.656 8.944zm3.155-10.146c4.136-1.732 8.914.211 10.646 4.347 1.733 4.136-.21 8.914-4.346 10.646a8.071 8.071 0 01-3.135.631c-3.175 0-6.209-1.873-7.511-4.987-1.743-4.127.21-8.904 4.346-10.637z" fill="#232F40"/><path d="M346.407 299.314l7.481-1.132.361.18a6.802 6.802 0 013.505 4.988c.561 3.726-2.013 7.211-5.738 7.782a6.839 6.839 0 01-6.19-2.294 6.756 6.756 0 01-1.582-3.445 6.862 6.862 0 012.163-6.079z" fill="#F3BC8F"/><path d="M349.041 309.079c3.946-.601 6.67-4.277 6.069-8.233a7.169 7.169 0 00-.861-2.484 6.802 6.802 0 013.505 4.988c.561 3.726-2.013 7.211-5.738 7.782a6.839 6.839 0 01-6.19-2.294 7.202 7.202 0 003.215.241z" fill="#DFA076"/><path d="M347.428 289.008l2.554-.391.641 4.227-2.554.39-.641-4.226zm.191 5.609l5.198-.792.47 3.135-.691.11-3.004.451-2.284.341-.48.08-.471-3.135 1.262-.19z" fill="#399FCF"/><path d="M347.429 289.008l.64 4.226 2.554-.39-.641-4.227-2.553.391zm5.858 7.952l-.47-3.135-5.198.781-1.262.191.471 3.135.48-.071 2.284-.34 3.004-.451.691-.11zm-9.043 8.443a6.878 6.878 0 001.582 3.445 6.839 6.839 0 006.19 2.294c3.725-.561 6.299-4.056 5.738-7.782a6.802 6.802 0 00-3.505-4.988l-.361-.18-7.481 1.132a6.842 6.842 0 00-2.163 6.079zm1.332-7.081l-.601-3.966a.654.654 0 01.541-.741l1.262-.19-.732-4.868c-.03-.17.02-.34.121-.48.1-.141.26-.231.43-.261l3.846-.581a.64.64 0 01.481.12c.14.101.23.261.26.431l.731 4.867 1.352-.2a.66.66 0 01.742.541l.621 4.106a8.108 8.108 0 014.416 6.06c.671 4.436-2.393 8.593-6.83 9.254-.411.06-.821.09-1.222.09-3.956 0-7.431-2.895-8.042-6.921a8.161 8.161 0 012.624-7.261z" fill="#232F40"/><path d="M319.486 286.975l2.424.911-.992 2.614-.501-.19-1.913-.731.982-2.604z" fill="#399FCF"/><path d="M312.265 302.709a7.017 7.017 0 01-2.674-1.673 6.785 6.785 0 01.26-3.986 6.804 6.804 0 013.866-3.936l-.05.12a.67.67 0 00.02.501c.07.16.2.281.361.341l7.331 2.764.11.03h.01c.03.01.07.01.1.01h.02c.03 0 .06 0 .09-.01h.03c-.06.481-.17.961-.34 1.432-1.312 3.736-5.398 5.709-9.134 4.407z" fill="#8ECCBD"/><path d="M315.4 292.353l.13-.34.711-1.893 1.192.45 3.635 1.372 1.282.481-.701 1.863-.42 1.102-6.11-2.304.281-.731z" fill="#399FCF"/><path d="M321.81 296.85c.03-.01.05-.02.08-.03 0 0 .01 0 .01-.01.02-.01.05-.02.07-.04 0 0 .01 0 .01-.01.02-.02.05-.03.07-.05l.01-.01c.02-.02.04-.04.05-.06l.01-.01c.02-.02.03-.05.05-.071 0-.01.01-.01.01-.02.01-.03.03-.05.04-.08l.07-.19a6.805 6.805 0 01.351 5.609 6.76 6.76 0 01-3.576 3.815 6.806 6.806 0 01-5.228.171 6.76 6.76 0 01-3.815-3.576 6.885 6.885 0 01-.421-1.242 7.14 7.14 0 002.674 1.673 7.166 7.166 0 009.124-4.407c.17-.471.28-.951.34-1.432.02 0 .04-.01.061-.01 0-.02 0-.02.01-.02z" fill="#69A796"/><path d="M309.591 301.036c.1.421.24.841.421 1.242a6.761 6.761 0 003.815 3.575 6.765 6.765 0 005.228-.17 6.759 6.759 0 003.576-3.816 6.805 6.805 0 00-.351-5.608l-.07.19c-.01.03-.02.06-.04.08 0 .01-.01.01-.01.02-.01.03-.03.05-.05.07l-.01.01c-.02.02-.04.04-.05.06l-.01.01a.18.18 0 01-.07.05s-.01 0-.01.011c-.02.01-.04.03-.07.04 0 0-.01 0-.01.01-.03.01-.05.02-.08.03h-.02c-.021.01-.041.01-.061.01h-.03c-.03 0-.06.01-.09.01h-.02c-.03 0-.07 0-.1-.01h-.01l-.11-.03-7.331-2.765a.632.632 0 01-.361-.34.67.67 0 01-.02-.501l.05-.12a6.804 6.804 0 00-3.866 3.936 7.032 7.032 0 00-.24 4.006zm9.895-14.061l-.981 2.614 1.922.721.501.19.982-2.614-2.424-.911zm-4.086 5.378l-.281.731 6.11 2.303.42-1.101.701-1.863-1.282-.481-3.635-1.372-1.192-.451-.711 1.893-.13.341zm-6.771 4.236a8.09 8.09 0 015.669-5.027l.952-2.514c.06-.16.18-.291.34-.361a.67.67 0 01.501-.02l1.192.451 1.212-3.215c.06-.16.18-.29.34-.361a.67.67 0 01.501-.02l3.635 1.372a.666.666 0 01.381.842l-1.212 3.215 1.282.48c.16.06.29.181.361.341.07.16.08.34.02.501l-.932 2.463a8.091 8.091 0 01.992 7.592 8.093 8.093 0 01-4.257 4.537 8.135 8.135 0 01-3.345.721c-.971 0-1.943-.18-2.874-.531a8.091 8.091 0 01-4.537-4.256 8 8 0 01-.221-6.21z" fill="#232F40"/><path d="M263.31 324.532c-1.041.17-2.063.1-3.014-.16a6.807 6.807 0 01-1.803-4.587 6.886 6.886 0 013.024-5.709l7.061-.03a6.96 6.96 0 01.721 2.193 7.219 7.219 0 01-5.989 8.293z" fill="#E95228"/><path d="M266.605 304.021l.02 4.276-2.584.01-.02-4.276 2.584-.01z" fill="#399FCF"/><path d="M272.164 319.725a6.742 6.742 0 01-1.983 4.837 6.808 6.808 0 01-4.828 2.023h-.03a6.817 6.817 0 01-5.037-2.213c.951.26 1.983.32 3.014.16a7.233 7.233 0 005.278-10.476h.501a6.782 6.782 0 013.085 5.669z" fill="#C64527"/><path d="M268.658 309.59l.01 3.164h-.901l-5.008.03h-.621l-.02-3.164 6.54-.03z" fill="#399FCF"/><path d="M260.296 324.382a6.817 6.817 0 005.037 2.213h.03a6.843 6.843 0 006.811-6.86 6.815 6.815 0 00-3.075-5.679h-.501l-7.061.03a6.888 6.888 0 00-3.024 5.709 6.714 6.714 0 001.783 4.587zm8.362-14.793l-6.53.031.01 3.174h.621l5.018-.02h.901l-.02-3.185zm-2.053-5.568l-2.584.01.02 4.277 2.584-.011-.02-4.276zm-5.769 8.964l-.02-4.006a.65.65 0 01.651-.651l1.272-.01-.02-4.918a.65.65 0 01.651-.651l3.886-.02a.65.65 0 01.651.651l.02 4.917 1.372-.01a.68.68 0 01.461.191c.12.12.19.29.19.46l.02 4.157a8.103 8.103 0 013.496 6.64 8.1 8.1 0 01-2.354 5.759 8.09 8.09 0 01-5.739 2.413h-.04c-4.467 0-8.112-3.625-8.132-8.092a8.165 8.165 0 013.635-6.83z" fill="#232F40"/></g><mask id="c" style="mask-type:alpha" maskUnits="userSpaceOnUse" x="202" y="316" width="140" height="132"><path d="M224.5 316l-16 26.5L202 394l67 54 32.5-11 22.5-38 18-7.5-45.5-35.5-72-40z" fill="#C4C4C4"/></mask><g mask="url(#c)"><path d="M266.419 411.888c-2.193 8.285 2.75 16.787 11.034 18.98 8.285 2.193 16.787-2.75 18.98-11.034 2.193-8.284-2.75-16.786-11.034-18.979-8.296-2.197-16.786 2.749-18.98 11.033z" fill="#EC6A8B"/><path d="M219.101 355.619c-2.194 8.284 2.749 16.786 11.034 18.979 8.284 2.193 16.786-2.749 18.979-11.034 2.193-8.284-2.75-16.786-11.034-18.979-8.284-2.193-16.783 2.738-18.979 11.034z" fill="#8ECCBD"/><path d="M210.043 311.496l1.72-.51 1.717-.499.51 1.72c3.375 11.43 8.835 22.842 17.162 35.818.422-.098.853-.183 1.275-.232a12.348 12.348 0 014.76.307 12.275 12.275 0 014.38 2.162 12.315 12.315 0 014.675 7.924 12.263 12.263 0 01-1.327 7.721c1.809 2.101 3.287 3.768 4.037 4.536a124.39 124.39 0 0016.359 14.112c6.126 4.407 12.554 8.139 19.117 11.127l.723-1.653a2.577 2.577 0 013.013-1.468c.127.034.24.076.364.121l4.675 2.03a2.58 2.58 0 011.347 3.378l-.596 1.365a104.926 104.926 0 009.377 2.693 93.455 93.455 0 0016.948 2.345c.057-.493.24-.952.568-1.348a2.546 2.546 0 011.731-.929l5.065-.516a2.59 2.59 0 01.922.071 2.59 2.59 0 011.9 2.224l.044.395a89.177 89.177 0 0014.584-2.194c7.651-1.824 13.738-4.893 18.625-9.369 5.664-5.211 9.371-11.733 10.426-18.337.121-.785-.007-1.377-.139-1.672a5.95 5.95 0 00-.211.093l-2.657-2.214-.814-1.602-.814-1.602-.814-1.602 1.602-.814c1.775-.905 4.277 2.222 5.18 2.461.578.153 1.129.41 1.607.759 2.293 1.672 2.697 4.825 2.35 7.023-1.246 7.793-5.544 15.421-12.118 21.456-5.578 5.122-12.455 8.601-21.018 10.643a93.609 93.609 0 01-12.766 2.105l.22 2.163a12.35 12.35 0 013.566 3.507 12.517 12.517 0 012.019 5.611c.693 6.782-4.263 12.874-11.046 13.567-1.488.151-2.982.04-4.416-.34a12.387 12.387 0 01-6.186-3.853 12.307 12.307 0 01-2.968-6.841 12.511 12.511 0 01.852-5.977 12.409 12.409 0 012.85-4.173l-.263-2.558a2.61 2.61 0 01.055-.865 98.426 98.426 0 01-16.132-2.389c-.932-.221-1.883-.461-2.821-.709a101.68 101.68 0 01-5.146-1.511 2.838 2.838 0 01-.174.61l-1.742 4.008a12.269 12.269 0 011.48 4.886 12.436 12.436 0 01-.96 6.011 12.277 12.277 0 01-6.795 6.584 12.263 12.263 0 01-9.456-.151 12.272 12.272 0 01-6.583-6.795 12.291 12.291 0 01.154-9.468 12.476 12.476 0 013.56-4.703 12.627 12.627 0 014.392-2.279l1.821-4.211a4.37 4.37 0 01.083-.176 119.634 119.634 0 01-17.74-10.577 128.807 128.807 0 01-17.076-14.723c-.738-.765-2.068-2.244-3.745-4.186a12.43 12.43 0 01-10.52 1.994 12.152 12.152 0 01-4.368-2.159 12.29 12.29 0 01-4.724-8.209 12.307 12.307 0 012.47-9.14c.606-.792 1.301-1.5 2.07-2.113-8.417-13.198-13.975-24.897-17.458-36.665l-.511-1.72 1.749-.478z" fill="#FEFEFE"/><path d="M299.657 404.988c.926.245 1.843.476 2.775.698 14.373 3.371 29.377 3.381 43.396.048 8.257-1.962 14.876-5.311 20.225-10.221 6.281-5.766 10.39-13.011 11.569-20.412.287-1.831-.408-4.256-1.616-5.727-.694-.84-2.989-3.627-4.937-2.632l.814 1.602c.842-.421 2.134.825 3.158 2.198.957 1.294 1.059 2.781.823 4.279-1.113 7.01-5.026 13.886-11.009 19.372-5.12 4.699-11.478 7.906-19.433 9.799-13.742 3.271-28.473 3.259-42.565-.051-13.546-3.178-26.55-9.195-38.658-17.898a125.289 125.289 0 01-16.603-14.313c-2.628-2.701-12.593-14.539-14.912-17.988-10.162-15.071-16.667-28.098-20.472-40.991l-1.72.511c3.866 13.082 10.442 26.264 20.712 41.488 2.367 3.499 12.461 15.506 15.121 18.228 5.218 5.356 10.881 10.248 16.832 14.522a117.54 117.54 0 0018.75 11.019 105.823 105.823 0 0017.75 6.469z" fill="#C8762C"/><path d="M282.017 422.233c-4.799-2.075-7.001-7.648-4.925-12.447a9.619 9.619 0 011.717-2.653c.306-.08.612-.16.923-.214l9.131 3.953c1.635 2.525 1.921 5.746.719 8.51a8.998 8.998 0 01-2.779 3.573 9.282 9.282 0 01-4.786-.722z" fill="#EC6A8B"/><path d="M291.077 397.504l-2.285 5.264-3.243-1.403 2.285-5.264 3.243 1.403z" fill="#399FCF"/><path d="M284.629 424.2a8.943 8.943 0 01-6.905-.107 8.953 8.953 0 01-4.803-4.961 8.947 8.947 0 01.107-6.905 8.974 8.974 0 015.778-5.082 9.342 9.342 0 00-1.718 2.653c-2.075 4.799.127 10.372 4.926 12.447a9.458 9.458 0 004.798.725 9.96 9.96 0 01-2.183 1.23z" fill="#D9547A"/><path d="M282.501 401.746l7.988 3.452-1.712 3.942-.522-.225-7.143-3.091-.245-.103-.078-.033 1.712-3.942z" fill="#399FCF"/><path d="M272.913 419.117a8.976 8.976 0 004.803 4.961 8.943 8.943 0 006.905.107 9.557 9.557 0 002.183-1.23 8.955 8.955 0 002.778-3.573 9.062 9.062 0 00-.719-8.51l-9.131-3.953c-.311.054-.617.134-.923.214a9.012 9.012 0 00-5.789 5.079 9.047 9.047 0 00-.107 6.905zm9.588-17.371l-1.712 3.942.078.033.245.102 7.131 3.089.534.228 1.712-3.942-7.988-3.452zm5.333-5.645l-2.285 5.264 3.243 1.403 2.285-5.264-3.243-1.403zM271.597 411.6a10.53 10.53 0 017.61-6.157l2.174-5.033a.83.83 0 01.433-.418.76.76 0 01.592.008l1.711.738 2.589-5.988a.825.825 0 01.432-.418.817.817 0 01.592.008l4.664 2.027a.838.838 0 01.418.433.817.817 0 01-.009.592l-2.588 5.988 1.599.696c.39.165.578.623.398 1.021l-2.102 4.854a10.649 10.649 0 01.895 10.043 10.495 10.495 0 01-5.812 5.63c-2.128.836-4.406.976-6.581.4a10.448 10.448 0 01-1.52-.526 10.495 10.495 0 01-5.63-5.812 10.564 10.564 0 01.135-8.086z" fill="#232F40"/><path d="M330.714 427.374c-5.171.402-9.681-3.467-10.071-8.634a9.186 9.186 0 01.053-1.979c.02.018.029.032.049.05.012.003.008.015.02.018.032.021.052.038.083.059.012.003.012.003.021.018.02.017.054.027.074.044l.012.003c.035.009.066.03.089.036l.012.003.012.004a.422.422 0 00.118.019l.012.003c.049 0 .087-.002.136-.001l10.208-1.05a.784.784 0 00.697-.855l-.036-.332a8.986 8.986 0 013.746 6.428 9.002 9.002 0 01-.758 4.64 9.592 9.592 0 01-4.477 1.526z" fill="#8ECCBD"/><path d="M323.59 405.505l3.526-.366.386 3.779-3.526.366-.386-3.779z" fill="#399FCF"/><path d="M327.884 431.095c-4.951.509-9.392-3.106-9.902-8.057-.271-2.672.625-5.258 2.451-7.152l.049.422a.235.235 0 00.022.105c-.003.011.008.015.005.026.003.038.02.067.037.096 0 0-.003.012.008.015.017.029.023.056.04.085.011.003.008.014.008.014a.21.21 0 00.066.08l.008.014c.012.003.009.015.02.018a9.186 9.186 0 00-.053 1.979 9.382 9.382 0 0010.071 8.634 9.384 9.384 0 004.469-1.541 9.015 9.015 0 01-7.299 5.262z" fill="#69A796"/><path d="M330.17 410.206l.277 2.649.163 1.628-8.655.89-.115-1.157-.074-.7-.251-2.419 8.655-.891z" fill="#399FCF"/><path d="M317.982 423.038c.51 4.951 4.951 8.566 9.902 8.057a9.015 9.015 0 007.299-5.262 8.916 8.916 0 00.758-4.64 8.952 8.952 0 00-3.747-6.427l.036.331a.773.773 0 01-.697.856l-10.207 1.049c-.038.003-.087.002-.137.001l-.011-.003c-.038.002-.084-.01-.119-.019l-.011-.003-.012-.003a.232.232 0 01-.09-.036l-.011-.003a.218.218 0 01-.075-.045c-.012-.003-.012-.003-.02-.018-.032-.02-.052-.038-.083-.059-.012-.003-.009-.014-.021-.017-.02-.018-.028-.033-.048-.05-.012-.004-.009-.015-.02-.018l-.009-.015c-.017-.029-.037-.047-.065-.079-.012-.003-.009-.015-.009-.015-.017-.029-.034-.058-.039-.084 0 0 .003-.012-.009-.015-.017-.029-.019-.067-.036-.096.003-.012-.009-.015-.006-.027-.002-.037-.019-.067-.022-.104l-.049-.422a9.054 9.054 0 00-2.442 7.166zm5.608-17.533l.386 3.779 3.512-.357-.386-3.78-3.512.358zm6.842 7.358l-.277-2.648-8.655.89.251 2.419.075.701.115 1.157 8.655-.891-.164-1.628zm-10.193 1.09l-.356-3.474a.748.748 0 01.176-.572.756.756 0 01.521-.283l1.858-.19-.466-4.555a.747.747 0 01.177-.573.762.762 0 01.52-.283l5.065-.516a.774.774 0 01.855.697l.451 4.564 1.733-.185a.774.774 0 01.855.697l.364 3.538a10.517 10.517 0 015.486 8.225c.594 5.803-3.644 11.008-9.447 11.601-1.3.139-2.581.023-3.773-.293-4.131-1.094-7.362-4.648-7.828-9.154a10.547 10.547 0 013.809-9.244z" fill="#232F40"/><path d="M227.942 355.52c.303-1.145.771-2.21 1.35-3.183a9.118 9.118 0 013.478-1.209 8.927 8.927 0 013.469.225 9.126 9.126 0 013.198 1.577c3.938 3.036 4.675 8.716 1.639 12.654a9.063 9.063 0 01-7.454 3.512 12.07 12.07 0 01-5.68-13.576z" fill="#8ECCBD"/><path d="M228.43 367.238a8.958 8.958 0 01-3.441-5.987 8.97 8.97 0 011.802-6.667 9.08 9.08 0 012.51-2.233 11.962 11.962 0 00-1.35 3.184c-1.431 5.403 1.045 10.924 5.679 13.575a9.117 9.117 0 01-5.2-1.872z" fill="#69A796"/><path d="M241.088 365.587c3.036-3.938 2.298-9.618-1.64-12.654a9.11 9.11 0 00-3.198-1.577 9.101 9.101 0 00-3.469-.225 8.978 8.978 0 00-3.477 1.209 9.076 9.076 0 00-2.51 2.232 8.971 8.971 0 00-1.802 6.667 8.963 8.963 0 003.441 5.988 8.948 8.948 0 005.203 1.86 8.963 8.963 0 007.452-3.5zm-15.529-11.961a10.46 10.46 0 017.023-4.034c2.806-.359 5.58.388 7.812 2.105 4.616 3.563 5.48 10.217 1.929 14.836-2.678 3.476-7.11 4.829-11.102 3.772a10.451 10.451 0 01-3.734-1.843 10.465 10.465 0 01-4.034-7.023 10.534 10.534 0 012.106-7.813z" fill="#232F40"/></g><mask id="d" style="mask-type:alpha" maskUnits="userSpaceOnUse" x="321" y="307" width="127" height="141"><path d="M321 385.5l3 6 19.5 44 37.5 12 62-42.5 4.5-68-14-24.5-23-5.5-89.5 78.5z" fill="#C86F6F"/></mask><g mask="url(#d)"><path d="M381.84 411.835c2.218 8.278-2.699 16.795-10.977 19.013s-16.795-2.7-19.013-10.977c-2.218-8.278 2.7-16.795 10.977-19.013 8.29-2.221 16.795 2.699 19.013 10.977z" fill="#E95228"/><path d="M428.99 355.423c2.218 8.278-2.699 16.795-10.977 19.013s-16.795-2.699-19.013-10.977 2.699-16.794 10.977-19.012 16.792 2.687 19.013 10.976z" fill="#F3BC8F"/><path d="M437.915 311.274l-1.722-.505-1.718-.494-.505 1.721c-3.341 11.44-8.767 22.869-17.055 35.87-.422-.097-.853-.18-1.275-.228a12.343 12.343 0 00-4.759.321 12.266 12.266 0 00-4.373 2.175 12.309 12.309 0 00-4.651 7.938 12.254 12.254 0 001.349 7.717c-1.803 2.107-3.276 3.778-4.023 4.548a124.256 124.256 0 01-16.317 14.161c-6.112 4.426-12.529 8.177-19.083 11.185l-.728-1.651a2.576 2.576 0 00-3.018-1.459c-.127.034-.239.076-.364.122l-4.668 2.044a2.576 2.576 0 00-1.337 3.382l.601 1.363a104.364 104.364 0 01-9.37 2.721 93.39 93.39 0 01-16.941 2.396 2.541 2.541 0 00-.571-1.347 2.554 2.554 0 00-1.735-.923l-5.066-.501a2.59 2.59 0 00-.922.074 2.592 2.592 0 00-1.893 2.229l-.043.396a89.129 89.129 0 01-14.59-2.15c-7.657-1.802-13.753-4.852-18.654-9.313-5.679-5.195-9.406-11.705-10.481-18.307-.123-.784.003-1.376.135-1.671.055.022.126.053.21.092l2.652-2.222.809-1.605.809-1.604.809-1.605-1.605-.809c-1.777-.899-4.271 2.235-5.172 2.476a4.823 4.823 0 00-1.605.765c-2.288 1.679-2.682 4.833-2.329 7.03 1.269 7.789 5.59 15.404 12.183 21.419 5.593 5.106 12.48 8.564 21.049 10.58a93.69 93.69 0 0012.772 2.067l-.213 2.163a12.377 12.377 0 00-3.556 3.518 12.528 12.528 0 00-2.001 5.617c-.673 6.784 4.301 12.862 11.086 13.534 1.489.146 2.982.031 4.415-.353a12.384 12.384 0 006.174-3.872 12.307 12.307 0 002.948-6.849 12.508 12.508 0 00-.87-5.975 12.418 12.418 0 00-2.863-4.165l.256-2.559a2.604 2.604 0 00-.058-.864 98.498 98.498 0 0016.125-2.437 117.65 117.65 0 002.818-.718 101.49 101.49 0 005.142-1.527c.03.203.097.408.176.61l1.754 4.003a12.266 12.266 0 00-1.465 4.891c-.18 2.055.166 4.131.978 6.008a12.272 12.272 0 006.814 6.562 12.26 12.26 0 009.456-.179 12.271 12.271 0 006.563-6.814 12.299 12.299 0 00-.182-9.467 12.49 12.49 0 00-3.575-4.693 12.638 12.638 0 00-4.399-2.266l-1.833-4.205c-.03-.066-.057-.121-.084-.176a119.661 119.661 0 0017.708-10.631 128.667 128.667 0 0017.032-14.773c.736-.768 2.061-2.25 3.733-4.198a12.424 12.424 0 0010.525 1.963 12.17 12.17 0 004.362-2.172 12.289 12.289 0 004.699-8.223 12.307 12.307 0 00-2.497-9.133 12.075 12.075 0 00-2.076-2.107c8.377-13.223 13.899-24.938 17.348-36.717l.505-1.721-1.75-.473z" fill="#FEFEFE"/><path d="M348.581 405.035c-.924.247-1.841.481-2.772.705-14.363 3.415-29.366 3.47-43.395.179-8.264-1.937-14.893-5.266-20.256-10.161-6.298-5.747-10.429-12.979-11.631-20.377-.292-1.83.396-4.257 1.599-5.732.691-.842 2.979-3.635 4.929-2.646l-.809 1.604c-.843-.418-2.132.832-3.151 2.208-.954 1.296-1.05 2.784-.81 4.281 1.134 7.007 5.067 13.871 11.067 19.339 5.133 4.683 11.502 7.871 19.462 9.741 13.752 3.229 28.482 3.173 42.565-.179 13.536-3.218 26.522-9.275 38.604-18.014a125.293 125.293 0 0016.56-14.363c2.619-2.709 12.549-14.576 14.857-18.032 10.117-15.102 16.584-28.148 20.35-41.052l1.721.505c-3.826 13.094-10.363 26.295-20.588 41.55-2.356 3.506-12.414 15.544-15.065 18.274-5.202 5.371-10.851 10.28-16.789 14.572a117.493 117.493 0 01-18.717 11.075 105.928 105.928 0 01-17.731 6.523z" fill="#C8762C"/><path d="M366.273 422.227c4.793-2.09 6.978-7.669 4.889-12.462a9.648 9.648 0 00-1.726-2.648c-.306-.079-.612-.158-.924-.211l-9.119 3.98c-1.627 2.53-1.904 5.751-.693 8.512a9.007 9.007 0 002.789 3.565 9.291 9.291 0 004.784-.736z" fill="#E95228"/><path d="M357.139 397.525l2.301 5.257 3.239-1.413-2.301-5.257-3.239 1.413z" fill="#399FCF"/><path d="M363.667 424.201a8.939 8.939 0 006.905-.128 8.949 8.949 0 004.788-4.975 8.948 8.948 0 00-.128-6.905 8.977 8.977 0 00-5.793-5.065 9.339 9.339 0 011.726 2.648c2.089 4.793-.096 10.372-4.889 12.462a9.456 9.456 0 01-4.795.74 9.958 9.958 0 002.186 1.223z" fill="#C64527"/><path d="M365.728 401.741l-7.978 3.476 1.724 3.937.522-.227 7.133-3.113.245-.103.078-.033-1.724-3.937z" fill="#399FCF"/><path d="M375.368 419.083a8.977 8.977 0 01-4.788 4.976 8.94 8.94 0 01-6.904.127 9.581 9.581 0 01-2.187-1.223 8.95 8.95 0 01-2.789-3.565 9.06 9.06 0 01.693-8.512l9.119-3.98c.312.053.618.132.924.211a9.013 9.013 0 015.805 5.061 9.053 9.053 0 01.127 6.905zm-9.64-17.342l1.724 3.937-.078.033-.245.103-7.122 3.111-.533.229-1.724-3.937 7.978-3.476zm-5.35-5.629l2.301 5.257-3.239 1.413-2.301-5.257 3.239-1.413zm16.284 15.45a10.533 10.533 0 00-7.629-6.134l-2.189-5.026a.834.834 0 00-.434-.417.764.764 0 00-.592.01l-1.709.743-2.607-5.981a.83.83 0 00-.433-.416.817.817 0 00-.592.01l-4.658 2.041a.829.829 0 00-.416.434.812.812 0 00.01.592l2.606 5.98-1.597.701a.766.766 0 00-.395 1.022l2.117 4.848a10.649 10.649 0 00-.865 10.046 10.494 10.494 0 005.829 5.612c2.13.83 4.408.963 6.582.38.509-.136 1.02-.31 1.518-.531a10.494 10.494 0 005.613-5.828 10.57 10.57 0 00-.159-8.086z" fill="#232F40"/><path d="M420.148 355.352a12.485 12.485 0 00-1.36-3.18 9.105 9.105 0 00-3.481-1.198 8.921 8.921 0 00-3.468.235 9.12 9.12 0 00-3.193 1.587c-3.929 3.047-4.65 8.73-1.602 12.659a9.066 9.066 0 007.465 3.489 12.068 12.068 0 005.639-13.592z" fill="#F3BC8F"/><path d="M419.695 367.071a8.963 8.963 0 003.423-5.998 8.967 8.967 0 00-1.822-6.661 9.057 9.057 0 00-2.516-2.225 11.92 11.92 0 011.359 3.179c1.447 5.399-1.012 10.928-5.638 13.592a9.124 9.124 0 005.194-1.887z" fill="#DFA076"/><path d="M407.032 365.458c-3.047-3.929-2.327-9.612 1.602-12.659a9.128 9.128 0 013.193-1.587 9.122 9.122 0 013.469-.235 8.971 8.971 0 013.48 1.198 9.077 9.077 0 012.517 2.225 8.97 8.97 0 011.822 6.662 8.963 8.963 0 01-3.423 5.997 8.937 8.937 0 01-5.198 1.876 8.962 8.962 0 01-7.462-3.477zm15.494-12.008a10.466 10.466 0 00-7.036-4.013 10.537 10.537 0 00-7.806 2.129c-4.605 3.576-5.448 10.233-1.884 14.842 2.689 3.467 7.124 4.807 11.113 3.738a10.445 10.445 0 003.728-1.854 10.457 10.457 0 004.013-7.036 10.533 10.533 0 00-2.128-7.806z" fill="#232F40"/></g><path d="M342.5 404.5c-14.5 3-23.5 2-35.5.5-.5.5-.977 1.544 5 2.5 12.5 2 24 0 26.5-.5s9.112-3.557 4-2.5z" fill="#C8762C"/><path stroke="#F3BC8F" stroke-width="2" d="M57 329h30M57 229h30M57 129h30"/><path opacity=".2" stroke="#F3BC8F" stroke-width="2" stroke-dasharray="4 4" d="M167 329h325"/><path opacity=".4" stroke="#F3BC8F" stroke-width="2" stroke-dasharray="4 4" d="M197 229h265"/><path opacity=".6" stroke="#F3BC8F" stroke-width="2" stroke-dasharray="4 4" d="M227 129h205"/><path d="M63.785 352.905h-.81L62.75 351h-5.64l-.225 1.905h-.81v-2.955h.885c.08-.11.185-.305.315-.585.13-.29.255-.69.375-1.2.13-.52.24-1.16.33-1.92.1-.77.16-1.685.18-2.745h4.53v6.45h1.095v2.955zm-2.295-2.955v-5.4h-2.25c-.02.42-.055.88-.105 1.38-.05.49-.12.985-.21 1.485-.08.49-.185.955-.315 1.395-.13.44-.28.82-.45 1.14h3.33zm3.36-2.7c0-1.27.28-2.24.84-2.91.57-.68 1.385-1.02 2.445-1.02.56 0 1.045.095 1.455.285.42.18.765.445 1.035.795.27.34.47.755.6 1.245.13.48.195 1.015.195 1.605 0 1.27-.285 2.245-.855 2.925-.56.67-1.37 1.005-2.43 1.005-.56 0-1.05-.09-1.47-.27-.41-.19-.75-.455-1.02-.795-.27-.35-.47-.765-.6-1.245a6.31 6.31 0 01-.195-1.62zm1.245 0c0 .38.035.745.105 1.095.08.35.2.655.36.915.16.26.37.47.63.63.26.16.575.24.945.24 1.36.01 2.04-.95 2.04-2.88 0-.39-.04-.76-.12-1.11a2.766 2.766 0 00-.345-.915c-.16-.26-.37-.465-.63-.615-.26-.16-.575-.24-.945-.24-1.36-.01-2.04.95-2.04 2.88zm11.681 2.64h2.1v-7.26l.15-.885-.6.705-1.65 1.185-.57-.765 3.3-2.55h.54v9.57h2.055V351h-5.325v-1.11zm9.75.24c.69 0 1.26-.2 1.71-.6.45-.4.674-.98.674-1.74 0-.73-.225-1.275-.675-1.635-.44-.36-1.05-.54-1.83-.54l-1.26.075v-5.19h4.68v1.11H87.27v2.985l.645-.03c.99.01 1.77.285 2.34.825.57.54.855 1.315.855 2.325 0 .56-.095 1.06-.285 1.5-.19.43-.45.79-.78 1.08-.32.29-.7.51-1.14.66-.44.15-.91.225-1.41.225-.45 0-.83-.025-1.14-.075-.31-.05-.6-.125-.87-.225l.315-1.02c.23.09.475.16.735.21.27.04.6.06.99.06zm5.623-4.38c0-1.8.29-3.155.87-4.065.59-.91 1.445-1.365 2.565-1.365 1.21 0 2.085.45 2.625 1.35.55.89.825 2.25.825 4.08 0 1.8-.295 3.155-.885 4.065-.58.91-1.435 1.365-2.565 1.365-1.19 0-2.06-.475-2.61-1.425-.55-.95-.825-2.285-.825-4.005zm1.245 0c0 .65.04 1.245.12 1.785.09.53.225.99.405 1.38.18.38.405.68.675.9.28.21.61.315.99.315.76 0 1.315-.35 1.665-1.05.36-.71.54-1.82.54-3.33 0-.64-.04-1.23-.12-1.77-.07-.54-.195-1.005-.375-1.395-.17-.39-.395-.69-.675-.9-.28-.21-.625-.315-1.035-.315-.75 0-1.305.355-1.665 1.065-.35.71-.525 1.815-.525 3.315zm16.553 4.755c-.3.22-.655.385-1.065.495-.41.12-.84.18-1.29.18-.58 0-1.07-.09-1.47-.27-.4-.19-.73-.455-.99-.795a3.635 3.635 0 01-.555-1.245 7.403 7.403 0 01-.165-1.62c0-1.27.28-2.24.84-2.91.56-.68 1.365-1.02 2.415-1.02.48 0 .885.04 1.215.12.34.07.645.175.915.315l-.345 1.035a3.05 3.05 0 00-.765-.3c-.28-.08-.58-.12-.9-.12-1.42 0-2.13.96-2.13 2.88 0 .38.035.745.105 1.095.08.34.205.645.375.915.18.26.41.47.69.63.29.16.645.24 1.065.24.36 0 .68-.055.96-.165.29-.11.525-.235.705-.375l.39.915zm7.847-3.96l.09-1.425h-.075l-.54 1.155-1.815 2.94h-.42l-1.89-2.94-.495-1.155h-.06l.12 1.41V351h-1.11v-7.5h1.185l2.1 3.36.435.87h.03l.45-.9 1.965-3.33h1.2v7.5h-1.17v-4.455zM56.735 247.25c0-1.27.28-2.24.84-2.91.57-.68 1.385-1.02 2.445-1.02.56 0 1.045.095 1.455.285.42.18.765.445 1.035.795.27.34.47.755.6 1.245.13.48.195 1.015.195 1.605 0 1.27-.285 2.245-.855 2.925-.56.67-1.37 1.005-2.43 1.005-.56 0-1.05-.09-1.47-.27-.41-.19-.75-.455-1.02-.795-.27-.35-.47-.765-.6-1.245a6.31 6.31 0 01-.195-1.62zm1.245 0c0 .38.035.745.105 1.095.08.35.2.655.36.915.16.26.37.47.63.63.26.16.575.24.945.24 1.36.01 2.04-.95 2.04-2.88 0-.39-.04-.76-.12-1.11a2.766 2.766 0 00-.345-.915c-.16-.26-.37-.465-.63-.615-.26-.16-.575-.24-.945-.24-1.36-.01-2.04.95-2.04 2.88zm11.768-2.7h-2.355V251h-1.2v-6.45h-2.355v-1.05h5.91v1.05zm5.186 5.34h2.1v-7.26l.15-.885-.6.705-1.65 1.185-.57-.765 3.3-2.55h.54v9.57h2.056V251h-5.326v-1.11zm9.75.24c.69 0 1.26-.2 1.71-.6.45-.4.674-.98.674-1.74 0-.73-.225-1.275-.675-1.635-.44-.36-1.05-.54-1.83-.54l-1.26.075v-5.19h4.68v1.11h-3.555v2.985l.645-.03c.99.01 1.77.285 2.34.825.57.54.855 1.315.855 2.325 0 .56-.095 1.06-.285 1.5-.19.43-.45.79-.78 1.08-.32.29-.7.51-1.14.66-.44.15-.91.225-1.41.225-.45 0-.83-.025-1.14-.075-.31-.05-.6-.125-.87-.225l.315-1.02c.23.09.475.16.735.21.27.04.6.06.99.06zm5.623-4.38c0-1.8.29-3.155.87-4.065.59-.91 1.445-1.365 2.565-1.365 1.21 0 2.085.45 2.625 1.35.55.89.825 2.25.825 4.08 0 1.8-.295 3.155-.885 4.065-.58.91-1.435 1.365-2.565 1.365-1.19 0-2.06-.475-2.61-1.425-.55-.95-.825-2.285-.825-4.005zm1.245 0c0 .65.04 1.245.12 1.785.09.53.225.99.405 1.38.18.38.405.68.675.9.28.21.61.315.99.315.76 0 1.315-.35 1.665-1.05.36-.71.54-1.82.54-3.33 0-.64-.04-1.23-.12-1.77-.07-.54-.195-1.005-.375-1.395-.17-.39-.395-.69-.675-.9-.28-.21-.625-.315-1.035-.315-.75 0-1.305.355-1.665 1.065-.35.71-.525 1.815-.525 3.315zm18.068 7.155h-.81l-.225-1.905h-5.64l-.225 1.905h-.81v-2.955h.885c.08-.11.185-.305.315-.585.13-.29.255-.69.375-1.2.13-.52.24-1.16.33-1.92.1-.77.16-1.685.18-2.745h4.53v6.45h1.095v2.955zm-2.295-2.955v-5.4h-2.25c-.02.42-.055.88-.105 1.38-.05.49-.12.985-.21 1.485-.08.49-.185.955-.315 1.395-.13.44-.28.82-.45 1.14h3.33zm3.36-2.7c0-1.27.28-2.24.84-2.91.57-.68 1.385-1.02 2.445-1.02.56 0 1.045.095 1.455.285.42.18.765.445 1.035.795.27.34.47.755.6 1.245.13.48.195 1.015.195 1.605 0 1.27-.285 2.245-.855 2.925-.56.67-1.37 1.005-2.43 1.005-.56 0-1.05-.09-1.47-.27-.41-.19-.75-.455-1.02-.795-.27-.35-.47-.765-.6-1.245a6.31 6.31 0 01-.195-1.62zm1.245 0c0 .38.035.745.105 1.095.08.35.2.655.36.915.16.26.37.47.63.63.26.16.575.24.945.24 1.36.01 2.04-.95 2.04-2.88 0-.39-.04-.76-.12-1.11a2.766 2.766 0 00-.345-.915c-.16-.26-.37-.465-.63-.615-.26-.16-.575-.24-.945-.24-1.36-.01-2.04.95-2.04 2.88zm11.681 2.64h2.1v-7.26l.15-.885-.6.705-1.65 1.185-.57-.765 3.3-2.55h.54v9.57h2.055V251h-5.325v-1.11zm7.574-1.395c0-.63.165-1.175.495-1.635.33-.47.845-.895 1.545-1.275a9.563 9.563 0 01-.705-.465c-.21-.17-.4-.36-.57-.57-.16-.21-.29-.445-.39-.705-.09-.26-.135-.56-.135-.9 0-.39.065-.745.195-1.065.14-.32.335-.595.585-.825.26-.23.565-.41.915-.54a3.56 3.56 0 011.215-.195c.42 0 .8.06 1.14.18.34.12.625.285.855.495.24.21.425.46.555.75.13.29.195.61.195.96 0 .57-.13 1.075-.39 1.515-.26.43-.69.855-1.29 1.275.26.15.505.315.735.495.24.18.445.38.615.6.18.22.32.47.42.75.1.27.15.58.15.93 0 .43-.07.825-.21 1.185-.14.35-.345.655-.615.915-.27.25-.6.45-.99.6-.39.14-.835.21-1.335.21-.48 0-.905-.07-1.275-.21-.37-.14-.685-.33-.945-.57-.25-.24-.44-.52-.57-.84a2.88 2.88 0 01-.195-1.065zm4.965-.15c0-.3-.06-.56-.18-.78a2.18 2.18 0 00-.48-.615c-.19-.19-.41-.36-.66-.51-.25-.15-.51-.295-.78-.435-.61.34-1.045.72-1.305 1.14-.26.42-.39.82-.39 1.2 0 .24.04.47.12.69.08.22.2.41.36.57.16.16.355.29.585.39.24.09.515.135.825.135.25 0 .49-.035.72-.105.23-.08.43-.19.6-.33.18-.15.32-.335.42-.555.11-.23.165-.495.165-.795zm-3.555-5.43c0 .28.055.53.165.75.11.21.255.4.435.57.19.17.405.33.645.48.24.14.49.275.75.405.45-.35.78-.695.99-1.035.22-.34.33-.715.33-1.125 0-.51-.16-.9-.48-1.17a1.62 1.62 0 00-1.125-.42 1.813 1.813 0 00-1.26.48c-.15.14-.265.305-.345.495-.07.18-.105.37-.105.57zm6.389 2.835c0-1.8.29-3.155.87-4.065.59-.91 1.445-1.365 2.565-1.365 1.21 0 2.085.45 2.625 1.35.55.89.825 2.25.825 4.08 0 1.8-.295 3.155-.885 4.065-.58.91-1.435 1.365-2.565 1.365-1.19 0-2.06-.475-2.61-1.425-.55-.95-.825-2.285-.825-4.005zm1.245 0c0 .65.04 1.245.12 1.785.09.53.225.99.405 1.38.18.38.405.68.675.9.28.21.61.315.99.315.76 0 1.315-.35 1.665-1.05.36-.71.54-1.82.54-3.33 0-.64-.04-1.23-.12-1.77-.07-.54-.195-1.005-.375-1.395-.17-.39-.395-.69-.675-.9-.28-.21-.625-.315-1.035-.315-.75 0-1.305.355-1.665 1.065-.35.71-.525 1.815-.525 3.315zm16.553 4.755c-.3.22-.655.385-1.065.495-.41.12-.84.18-1.29.18-.58 0-1.07-.09-1.47-.27-.4-.19-.73-.455-.99-.795a3.635 3.635 0 01-.555-1.245 7.403 7.403 0 01-.165-1.62c0-1.27.28-2.24.84-2.91.56-.68 1.365-1.02 2.415-1.02.48 0 .885.04 1.215.12.34.07.645.175.915.315l-.345 1.035a3.05 3.05 0 00-.765-.3c-.28-.08-.58-.12-.9-.12-1.42 0-2.13.96-2.13 2.88 0 .38.035.745.105 1.095.08.34.205.645.375.915.18.26.41.47.69.63.29.16.645.24 1.065.24.36 0 .68-.055.96-.165.29-.11.525-.235.705-.375l.39.915zm7.847-3.96l.09-1.425h-.075l-.54 1.155-1.815 2.94h-.42l-1.89-2.94-.495-1.155h-.06l.12 1.41V251h-1.11v-7.5h1.185l2.1 3.36.435.87h.03l.45-.9 1.965-3.33h1.2v7.5h-1.17v-4.455zM56.735 147.25c0-1.27.28-2.24.84-2.91.57-.68 1.385-1.02 2.445-1.02.56 0 1.045.095 1.455.285.42.18.765.445 1.035.795.27.34.47.755.6 1.245.13.48.195 1.015.195 1.605 0 1.27-.285 2.245-.855 2.925-.56.67-1.37 1.005-2.43 1.005-.56 0-1.05-.09-1.47-.27-.41-.19-.75-.455-1.02-.795-.27-.35-.47-.765-.6-1.245a6.31 6.31 0 01-.195-1.62zm1.245 0c0 .38.035.745.105 1.095.08.35.2.655.36.915.16.26.37.47.63.63.26.16.575.24.945.24 1.36.01 2.04-.95 2.04-2.88 0-.39-.04-.76-.12-1.11a2.766 2.766 0 00-.345-.915c-.16-.26-.37-.465-.63-.615-.26-.16-.575-.24-.945-.24-1.36-.01-2.04.95-2.04 2.88zm11.768-2.7h-2.355V151h-1.2v-6.45h-2.355v-1.05h5.91v1.05zm5.186 5.34h2.1v-7.26l.15-.885-.6.705-1.65 1.185-.57-.765 3.3-2.55h.54v9.57h2.056V151h-5.326v-1.11zm7.574-1.395c0-.63.165-1.175.495-1.635.33-.47.845-.895 1.545-1.275a9.563 9.563 0 01-.705-.465c-.21-.17-.4-.36-.57-.57-.16-.21-.29-.445-.39-.705-.09-.26-.135-.56-.135-.9 0-.39.065-.745.195-1.065.14-.32.335-.595.585-.825.26-.23.565-.41.915-.54a3.56 3.56 0 011.215-.195c.42 0 .8.06 1.14.18.34.12.625.285.855.495.24.21.425.46.555.75.13.29.195.61.195.96 0 .57-.13 1.075-.39 1.515-.26.43-.69.855-1.29 1.275.26.15.505.315.735.495.24.18.445.38.615.6.18.22.32.47.42.75.1.27.15.58.15.93 0 .43-.07.825-.21 1.185-.14.35-.345.655-.615.915-.27.25-.6.45-.99.6-.39.14-.835.21-1.335.21-.48 0-.905-.07-1.275-.21-.37-.14-.685-.33-.945-.57-.25-.24-.44-.52-.57-.84a2.88 2.88 0 01-.195-1.065zm4.965-.15c0-.3-.06-.56-.18-.78a2.18 2.18 0 00-.48-.615c-.19-.19-.41-.36-.66-.51-.25-.15-.51-.295-.78-.435-.61.34-1.045.72-1.305 1.14-.26.42-.39.82-.39 1.2 0 .24.04.47.12.69.08.22.2.41.36.57.16.16.355.29.585.39.24.09.515.135.825.135.25 0 .49-.035.72-.105.23-.08.43-.19.6-.33.18-.15.32-.335.42-.555.11-.23.165-.495.165-.795zm-3.555-5.43c0 .28.055.53.165.75.11.21.255.4.435.57.19.17.405.33.645.48.24.14.49.275.75.405.45-.35.78-.695.99-1.035.22-.34.33-.715.33-1.125 0-.51-.16-.9-.48-1.17a1.62 1.62 0 00-1.125-.42 1.813 1.813 0 00-1.26.48c-.15.14-.265.305-.345.495-.07.18-.105.37-.105.57zm6.39 2.835c0-1.8.29-3.155.87-4.065.59-.91 1.444-1.365 2.564-1.365 1.21 0 2.085.45 2.625 1.35.55.89.825 2.25.825 4.08 0 1.8-.295 3.155-.885 4.065-.58.91-1.435 1.365-2.565 1.365-1.19 0-2.06-.475-2.61-1.425-.55-.95-.825-2.285-.825-4.005zm1.244 0c0 .65.04 1.245.12 1.785.09.53.225.99.405 1.38.18.38.405.68.675.9.28.21.61.315.99.315.76 0 1.315-.35 1.665-1.05.36-.71.54-1.82.54-3.33 0-.64-.04-1.23-.12-1.77-.07-.54-.195-1.005-.375-1.395-.17-.39-.395-.69-.675-.9-.28-.21-.625-.315-1.035-.315-.75 0-1.305.355-1.665 1.065-.35.71-.525 1.815-.525 3.315zm16.553 4.755c-.3.22-.655.385-1.065.495-.41.12-.84.18-1.29.18-.58 0-1.07-.09-1.47-.27-.4-.19-.73-.455-.99-.795a3.635 3.635 0 01-.555-1.245 7.403 7.403 0 01-.165-1.62c0-1.27.28-2.24.84-2.91.56-.68 1.365-1.02 2.415-1.02.48 0 .885.04 1.215.12.34.07.645.175.915.315l-.345 1.035a3.05 3.05 0 00-.765-.3c-.28-.08-.58-.12-.9-.12-1.42 0-2.13.96-2.13 2.88 0 .38.035.745.105 1.095.08.34.205.645.375.915.18.26.41.47.69.63.29.16.645.24 1.065.24.36 0 .68-.055.96-.165.29-.11.525-.235.705-.375l.39.915zm7.848-3.96l.09-1.425h-.075l-.54 1.155-1.815 2.94h-.42l-1.89-2.94-.495-1.155h-.06l.12 1.41V151h-1.11v-7.5h1.185l2.1 3.36.435.87h.03l.45-.9 1.965-3.33h1.2v7.5h-1.17v-4.455z" fill="#fff"/><path stroke="#F3BC8F" stroke-width="2" d="M572 329h30m-30-100h30m-30-100h30"/><path d="M568.788 352.905h-.81l-.225-1.905h-5.64l-.225 1.905h-.81v-2.955h.885c.08-.11.185-.305.315-.585.13-.29.255-.69.375-1.2.13-.52.24-1.16.33-1.92.1-.77.16-1.685.18-2.745h4.53v6.45h1.095v2.955zm-2.295-2.955v-5.4h-2.25c-.02.42-.055.88-.105 1.38-.05.49-.12.985-.21 1.485-.08.49-.185.955-.315 1.395-.13.44-.28.82-.45 1.14h3.33zm3.36-2.7c0-1.27.28-2.24.84-2.91.57-.68 1.385-1.02 2.445-1.02.56 0 1.045.095 1.455.285.42.18.765.445 1.035.795.27.34.47.755.6 1.245.13.48.195 1.015.195 1.605 0 1.27-.285 2.245-.855 2.925-.56.67-1.37 1.005-2.43 1.005-.56 0-1.05-.09-1.47-.27-.41-.19-.75-.455-1.02-.795-.27-.35-.47-.765-.6-1.245a6.31 6.31 0 01-.195-1.62zm1.245 0c0 .38.035.745.105 1.095.08.35.2.655.36.915.16.26.37.47.63.63.26.16.575.24.945.24 1.36.01 2.04-.95 2.04-2.88 0-.39-.04-.76-.12-1.11a2.766 2.766 0 00-.345-.915c-.16-.26-.37-.465-.63-.615-.26-.16-.575-.24-.945-.24-1.36-.01-2.04.95-2.04 2.88zm13.256 2.88c.69 0 1.26-.2 1.71-.6.45-.4.675-.98.675-1.74 0-.73-.225-1.275-.675-1.635-.44-.36-1.05-.54-1.83-.54l-1.26.075v-5.19h4.68v1.11h-3.555v2.985l.645-.03c.99.01 1.77.285 2.34.825.57.54.855 1.315.855 2.325 0 .56-.095 1.06-.285 1.5-.19.43-.45.79-.78 1.08-.32.29-.7.51-1.14.66-.44.15-.91.225-1.41.225-.45 0-.83-.025-1.14-.075-.31-.05-.6-.125-.87-.225l.315-1.02c.23.09.475.16.735.21.27.04.6.06.99.06zm16.328-3.585l.09-1.425h-.075l-.54 1.155-1.815 2.94h-.42l-1.89-2.94-.495-1.155h-.06l.12 1.41V351h-1.11v-7.5h1.185l2.1 3.36.435.87h.03l.45-.9 1.965-3.33h1.2v7.5h-1.17v-4.455zm-68.431-99.295c0-1.27.28-2.24.84-2.91.57-.68 1.385-1.02 2.445-1.02.56 0 1.045.095 1.455.285.42.18.765.445 1.035.795.27.34.47.755.6 1.245.13.48.195 1.015.195 1.605 0 1.27-.285 2.245-.855 2.925-.56.67-1.37 1.005-2.43 1.005-.56 0-1.05-.09-1.47-.27-.41-.19-.75-.455-1.02-.795-.27-.35-.47-.765-.6-1.245a6.31 6.31 0 01-.195-1.62zm1.245 0c0 .38.035.745.105 1.095.08.35.2.655.36.915.16.26.37.47.63.63.26.16.575.24.945.24 1.36.01 2.04-.95 2.04-2.88 0-.39-.04-.76-.12-1.11a2.766 2.766 0 00-.345-.915c-.16-.26-.37-.465-.63-.615-.26-.16-.575-.24-.945-.24-1.36-.01-2.04.95-2.04 2.88zm11.767-2.7h-2.355V251h-1.2v-6.45h-2.355v-1.05h5.91v1.05zm6.762 5.58c.69 0 1.26-.2 1.71-.6.45-.4.675-.98.675-1.74 0-.73-.225-1.275-.675-1.635-.44-.36-1.05-.54-1.83-.54l-1.26.075v-5.19h4.68v1.11h-3.555v2.985l.645-.03c.99.01 1.77.285 2.34.825.57.54.855 1.315.855 2.325 0 .56-.095 1.06-.285 1.5-.19.43-.45.79-.78 1.08-.32.29-.7.51-1.14.66-.44.15-.91.225-1.41.225-.45 0-.83-.025-1.14-.075-.31-.05-.6-.125-.87-.225l.315-1.02c.23.09.475.16.735.21.27.04.6.06.99.06zm16.763 2.775h-.81l-.225-1.905h-5.64l-.225 1.905h-.81v-2.955h.885c.08-.11.185-.305.315-.585.13-.29.255-.69.375-1.2.13-.52.24-1.16.33-1.92.1-.77.16-1.685.18-2.745h4.53v6.45h1.095v2.955zm-2.295-2.955v-5.4h-2.25c-.02.42-.055.88-.105 1.38-.05.49-.12.985-.21 1.485-.08.49-.185.955-.315 1.395-.13.44-.28.82-.45 1.14h3.33zm3.36-2.7c0-1.27.28-2.24.84-2.91.57-.68 1.385-1.02 2.445-1.02.56 0 1.045.095 1.455.285.42.18.765.445 1.035.795.27.34.47.755.6 1.245.13.48.195 1.015.195 1.605 0 1.27-.285 2.245-.855 2.925-.56.67-1.37 1.005-2.43 1.005-.56 0-1.05-.09-1.47-.27-.41-.19-.75-.455-1.02-.795-.27-.35-.47-.765-.6-1.245a6.31 6.31 0 01-.195-1.62zm1.245 0c0 .38.035.745.105 1.095.08.35.2.655.36.915.16.26.37.47.63.63.26.16.575.24.945.24 1.36.01 2.04-.95 2.04-2.88 0-.39-.04-.76-.12-1.11a2.766 2.766 0 00-.345-.915c-.16-.26-.37-.465-.63-.615-.26-.16-.575-.24-.945-.24-1.36-.01-2.04.95-2.04 2.88zm10.841-3.57c0-.48.07-.925.21-1.335.14-.41.345-.765.615-1.065.27-.3.605-.535 1.005-.705.41-.17.885-.255 1.425-.255 1.02 0 1.815.33 2.385.99.57.66.855 1.59.855 2.79 0 1.13-.13 2.12-.39 2.97-.25.84-.6 1.55-1.05 2.13a4.979 4.979 0 01-1.605 1.365c-.61.32-1.275.525-1.995.615l-.27-.96c.58-.09 1.1-.26 1.56-.51.47-.25.87-.565 1.2-.945.34-.38.615-.81.825-1.29.21-.49.355-1.02.435-1.59-.27.32-.57.545-.9.675-.32.12-.745.18-1.275.18-.41 0-.8-.065-1.17-.195a2.99 2.99 0 01-.96-.6c-.28-.26-.5-.58-.66-.96-.16-.38-.24-.815-.24-1.305zm1.245-.12c0 .71.185 1.245.555 1.605.38.35.875.525 1.485.525.49 0 .91-.08 1.26-.24.35-.16.6-.37.75-.63a2.3 2.3 0 00.03-.345v-.315c0-.36-.045-.705-.135-1.035-.08-.34-.205-.64-.375-.9-.17-.27-.395-.48-.675-.63-.27-.15-.59-.225-.96-.225-.61 0-1.085.195-1.425.585-.34.38-.51.915-.51 1.605zm17.498 2.985l.09-1.425h-.075l-.54 1.155-1.815 2.94h-.42l-1.89-2.94-.495-1.155h-.06l.12 1.41V251h-1.11v-7.5h1.185l2.1 3.36.435.87h.03l.45-.9 1.965-3.33h1.2v7.5h-1.17v-4.455zM564.58 147.25c0-1.27.28-2.24.84-2.91.57-.68 1.385-1.02 2.445-1.02.56 0 1.045.095 1.455.285.42.18.765.445 1.035.795.27.34.47.755.6 1.245.13.48.195 1.015.195 1.605 0 1.27-.285 2.245-.855 2.925-.56.67-1.37 1.005-2.43 1.005-.56 0-1.05-.09-1.47-.27-.41-.19-.75-.455-1.02-.795-.27-.35-.47-.765-.6-1.245a6.31 6.31 0 01-.195-1.62zm1.245 0c0 .38.035.745.105 1.095.08.35.2.655.36.915.16.26.37.47.63.63.26.16.575.24.945.24 1.36.01 2.04-.95 2.04-2.88 0-.39-.04-.76-.12-1.11a2.766 2.766 0 00-.345-.915c-.16-.26-.37-.465-.63-.615-.26-.16-.575-.24-.945-.24-1.36-.01-2.04.95-2.04 2.88zm11.767-2.7h-2.355V151h-1.2v-6.45h-2.355v-1.05h5.91v1.05zm4.347-.87c0-.48.07-.925.21-1.335.14-.41.345-.765.615-1.065.27-.3.605-.535 1.005-.705.41-.17.885-.255 1.425-.255 1.02 0 1.815.33 2.385.99.57.66.855 1.59.855 2.79 0 1.13-.13 2.12-.39 2.97-.25.84-.6 1.55-1.05 2.13a4.979 4.979 0 01-1.605 1.365c-.61.32-1.275.525-1.995.615l-.27-.96c.58-.09 1.1-.26 1.56-.51.47-.25.87-.565 1.2-.945.34-.38.615-.81.825-1.29.21-.49.355-1.02.435-1.59-.27.32-.57.545-.9.675-.32.12-.745.18-1.275.18-.41 0-.8-.065-1.17-.195a2.99 2.99 0 01-.96-.6c-.28-.26-.5-.58-.66-.96-.16-.38-.24-.815-.24-1.305zm1.245-.12c0 .71.185 1.245.555 1.605.38.35.875.525 1.485.525.49 0 .91-.08 1.26-.24.35-.16.6-.37.75-.63a2.3 2.3 0 00.03-.345v-.315c0-.36-.045-.705-.135-1.035-.08-.34-.205-.64-.375-.9-.17-.27-.395-.48-.675-.63-.27-.15-.59-.225-.96-.225-.61 0-1.085.195-1.425.585-.34.38-.51.915-.51 1.605zm17.498 2.985l.09-1.425h-.075l-.54 1.155-1.815 2.94h-.42l-1.89-2.94-.495-1.155h-.06l.12 1.41V151h-1.11v-7.5h1.185l2.1 3.36.435.87h.03l.45-.9 1.965-3.33h1.2v7.5h-1.17v-4.455zm-533-80.359c0 .381-.051.763-.154 1.144a3.094 3.094 0 01-.462 1.056c-.22.308-.506.587-.858.836-.352.235-.777.41-1.276.528v.132c.44.073.858.198 1.254.374s.74.418 1.034.726a3.2 3.2 0 01.682 1.122c.176.44.264.96.264 1.562 0 .792-.169 1.481-.506 2.068a4.172 4.172 0 01-1.364 1.408 6.083 6.083 0 01-1.914.814 9.307 9.307 0 01-2.222.264h-.968c-.381 0-.8-.015-1.254-.044-.44-.015-.895-.044-1.364-.088a9.78 9.78 0 01-1.254-.198V62.71a24.348 24.348 0 012.112-.242 34.25 34.25 0 012.552-.088c.719 0 1.415.059 2.09.176.69.103 1.298.293 1.826.572.543.279.975.667 1.298 1.166.323.499.484 1.13.484 1.892zm-5.5 9.548c.367 0 .719-.044 1.056-.132.352-.088.66-.22.924-.396a2.25 2.25 0 00.638-.704c.161-.279.242-.609.242-.99 0-.484-.095-.865-.286-1.144a1.858 1.858 0 00-.748-.638 2.933 2.933 0 00-1.034-.308 9.972 9.972 0 00-1.144-.066h-1.606v4.246c.073.03.19.051.352.066.161.015.33.03.506.044.19 0 .381.007.572.022h.528zm-.99-6.666c.205 0 .44-.007.704-.022.279-.015.506-.037.682-.066a3.879 3.879 0 001.43-.792c.41-.352.616-.814.616-1.386 0-.381-.073-.697-.22-.946a1.648 1.648 0 00-.594-.594 2.35 2.35 0 00-.814-.308 5.163 5.163 0 00-.968-.088c-.381 0-.733.007-1.056.022a6.712 6.712 0 00-.748.066v4.114h.968zm11.92 6.534c.44.088.858.132 1.254.132.66 0 1.122-.117 1.386-.352.264-.25.396-.63.396-1.144 0-.47-.132-.821-.396-1.056-.264-.25-.704-.374-1.32-.374-.484 0-.924.051-1.32.154v2.64zm0-4.686a8.594 8.594 0 011.056-.11c.367-.03.697-.044.99-.044.748 0 1.371.088 1.87.264.499.161.902.396 1.21.704.308.308.528.675.66 1.1.132.41.198.858.198 1.342 0 .66-.088 1.24-.264 1.738a2.873 2.873 0 01-.858 1.254c-.396.323-.91.572-1.54.748-.63.161-1.408.242-2.332.242-.836 0-1.562-.015-2.178-.044a45.725 45.725 0 01-1.672-.11V67h2.86v3.916zM80.35 67h2.86v11h-2.86V67zm13.159 10.318c-.44.323-.975.565-1.606.726a6.933 6.933 0 01-1.914.264c-.88 0-1.628-.14-2.244-.418a3.867 3.867 0 01-1.474-1.166c-.382-.513-.66-1.13-.836-1.848a10.86 10.86 0 01-.242-2.376c0-1.863.418-3.293 1.254-4.29.836-1.012 2.053-1.518 3.652-1.518.806 0 1.452.066 1.936.198.499.132.946.3 1.342.506l-.682 2.332a5.654 5.654 0 00-1.012-.374 4.284 4.284 0 00-1.122-.132c-.792 0-1.394.264-1.804.792-.41.513-.616 1.342-.616 2.486 0 .47.051.902.154 1.298.102.396.257.74.462 1.034.205.293.47.528.792.704.337.161.726.242 1.166.242.484 0 .894-.059 1.232-.176.337-.132.638-.286.902-.462l.66 2.178zm.836-4.818c0-1.863.455-3.293 1.364-4.29.91-1.012 2.185-1.518 3.828-1.518.88 0 1.643.14 2.288.418a4.223 4.223 0 011.606 1.188c.425.499.741 1.107.946 1.826.22.719.33 1.51.33 2.376 0 1.863-.455 3.3-1.364 4.312-.895.997-2.163 1.496-3.806 1.496-.88 0-1.643-.14-2.288-.418a4.534 4.534 0 01-1.628-1.166c-.425-.513-.748-1.13-.968-1.848a8.632 8.632 0 01-.308-2.376zm2.948 0c0 .484.044.931.132 1.342.088.41.22.77.396 1.078.176.308.404.55.682.726.293.161.638.242 1.034.242.748 0 1.305-.271 1.672-.814.367-.543.55-1.4.55-2.574 0-1.012-.169-1.826-.506-2.442-.337-.63-.909-.946-1.716-.946-.704 0-1.254.264-1.65.792-.396.528-.594 1.393-.594 2.596zm17.145-2.97h-3.102V78h-2.948v-8.47h-3.102V67h9.152v2.53zm1.209-1.892c.587-.264 1.283-.47 2.09-.616.807-.161 1.65-.242 2.53-.242.763 0 1.401.095 1.914.286.513.176.917.433 1.21.77.308.337.521.74.638 1.21.132.47.198.997.198 1.584 0 .645-.022 1.298-.066 1.958a43.246 43.246 0 00-.088 1.914c0 .63.022 1.247.066 1.848.044.587.154 1.144.33 1.672h-2.332l-.462-1.518h-.11c-.293.455-.704.85-1.232 1.188-.513.323-1.181.484-2.002.484-.513 0-.975-.073-1.386-.22a3.218 3.218 0 01-1.056-.66 3.159 3.159 0 01-.682-1.012 3.475 3.475 0 01-.242-1.32c0-.675.147-1.24.44-1.694.308-.47.741-.843 1.298-1.122.572-.293 1.247-.491 2.024-.594a13.812 13.812 0 012.64-.11c.103-.821.044-1.408-.176-1.76-.22-.367-.711-.55-1.474-.55-.572 0-1.181.059-1.826.176-.631.117-1.151.271-1.562.462l-.682-2.134zm3.63 8.184c.572 0 1.027-.125 1.364-.374.337-.264.587-.543.748-.836v-1.43a7.992 7.992 0 00-1.32-.022c-.411.03-.777.095-1.1.198-.323.103-.579.25-.77.44a.982.982 0 00-.286.726c0 .41.117.733.352.968.249.22.587.33 1.012.33zm21.715 1.232c-.44.352-1.042.653-1.804.902a7.97 7.97 0 01-2.398.352c-1.775 0-3.073-.513-3.894-1.54-.822-1.041-1.233-2.464-1.233-4.268 0-1.936.463-3.388 1.387-4.356.924-.968 2.222-1.452 3.894-1.452.557 0 1.1.073 1.628.22.528.147.997.389 1.408.726.41.337.74.792.99 1.364.249.572.374 1.283.374 2.134 0 .308-.022.638-.066.99-.03.352-.081.719-.154 1.1h-6.6c.044.924.278 1.62.704 2.09.44.47 1.144.704 2.112.704.601 0 1.136-.088 1.606-.264.484-.19.85-.381 1.1-.572l.946 1.87zM136.9 68.98c-.748 0-1.306.227-1.672.682-.352.44-.565 1.034-.638 1.782h4.092c.058-.792-.066-1.4-.374-1.826-.294-.425-.763-.638-1.408-.638zm-4.092-4.884c0-.47.139-.843.418-1.122.293-.279.674-.418 1.144-.418.469 0 .836.14 1.1.418.278.279.418.653.418 1.122 0 .44-.14.8-.418 1.078-.264.279-.631.418-1.1.418-.47 0-.851-.14-1.144-.418-.279-.279-.418-.638-.418-1.078zm4.818 0c0-.47.132-.843.396-1.122.278-.279.652-.418 1.122-.418.469 0 .843.14 1.122.418.293.279.44.653.44 1.122 0 .44-.147.8-.44 1.078-.279.279-.653.418-1.122.418-.47 0-.844-.14-1.122-.418-.264-.279-.396-.638-.396-1.078zm11.485 5.434h-2.178a106.903 106.903 0 01-.308 3.102 14.403 14.403 0 01-.572 2.772c-.249.807-.594 1.467-1.034 1.98-.44.499-1.012.748-1.716.748-.851 0-1.452-.11-1.804-.33l.352-2.376c.235.088.455.132.66.132.293 0 .55-.125.77-.374.22-.25.403-.697.55-1.342.161-.645.286-1.518.374-2.618.103-1.115.176-2.523.22-4.224h7.546v11h-2.86v-8.47zm8.968 3.916h-.77V78h-2.86V67h2.86v4.686l.682-.308L160.565 67h3.058l-2.662 4.18-1.122.836 1.232.858 2.97 5.126h-3.278l-2.684-4.554zm13.756-.462l.11-1.562h-.066l-.946 1.606L167.017 78h-1.804V67h2.86v5.236l-.132 1.496h.088l.902-1.562 3.96-5.17h1.804v11h-2.86v-5.016zM456.48 80.75h-2.134l-.33-2.75h-9.9l-.33 2.75h-2.134v-5.434h1.628c.103-.161.272-.52.506-1.078.235-.557.47-1.342.704-2.354.235-1.027.433-2.303.594-3.828.162-1.54.235-3.359.22-5.456h9.218v12.716h1.958v5.434zm-4.972-5.434V65.284h-3.41c-.088 2.61-.3 4.752-.638 6.424-.322 1.657-.652 2.86-.99 3.608h5.038zm12.808-5.786h-2.178a106.903 106.903 0 01-.308 3.102 14.403 14.403 0 01-.572 2.772c-.249.807-.594 1.467-1.034 1.98-.44.499-1.012.748-1.716.748-.851 0-1.452-.11-1.804-.33l.352-2.376c.235.088.455.132.66.132.293 0 .55-.125.77-.374.22-.25.403-.697.55-1.342.161-.645.286-1.518.374-2.618.103-1.115.176-2.523.22-4.224h7.546v11h-2.86v-8.47zm11.96 3.454l.11-1.562h-.066l-.946 1.606L471.458 78h-1.804V67h2.86v5.236l-.132 1.496h.088l.902-1.562 3.96-5.17h1.804v11h-2.86v-5.016zm11.813.682h-3.586V78h-2.86V67h2.86v4.136h3.586V67h2.86v11h-2.86v-4.334zm5.304-6.028c.587-.264 1.283-.47 2.09-.616.807-.161 1.65-.242 2.53-.242.763 0 1.401.095 1.914.286.513.176.917.433 1.21.77.308.337.521.74.638 1.21.132.47.198.997.198 1.584 0 .645-.022 1.298-.066 1.958a43.246 43.246 0 00-.088 1.914c0 .63.022 1.247.066 1.848.044.587.154 1.144.33 1.672h-2.332l-.462-1.518h-.11c-.293.455-.704.85-1.232 1.188-.513.323-1.181.484-2.002.484-.513 0-.975-.073-1.386-.22a3.218 3.218 0 01-1.056-.66 3.159 3.159 0 01-.682-1.012 3.475 3.475 0 01-.242-1.32c0-.675.147-1.24.44-1.694.308-.47.741-.843 1.298-1.122.572-.293 1.247-.491 2.024-.594a13.812 13.812 0 012.64-.11c.103-.821.044-1.408-.176-1.76-.22-.367-.711-.55-1.474-.55-.572 0-1.181.059-1.826.176-.631.117-1.151.271-1.562.462l-.682-2.134zm3.63 8.184c.572 0 1.027-.125 1.364-.374.337-.264.587-.543.748-.836v-1.43a7.992 7.992 0 00-1.32-.022c-.411.03-.777.095-1.1.198-.323.103-.579.25-.77.44a.982.982 0 00-.286.726c0 .41.117.733.352.968.249.22.587.33 1.012.33zm20.021-6.292h-4.158V78h-2.948V67h7.106v2.53zm7.787 3.454l.11-1.562h-.066l-.946 1.606L520.013 78h-1.804V67h2.86v5.236l-.132 1.496h.088l.902-1.562 3.96-5.17h1.804v11h-2.86v-5.016zM530.197 67h2.09l.33 1.32h.088c.382-.557.829-.968 1.342-1.232.528-.264 1.166-.396 1.914-.396 1.379 0 2.413.44 3.102 1.32.69.865 1.034 2.266 1.034 4.202 0 .939-.11 1.79-.33 2.552-.22.748-.55 1.386-.99 1.914a4.159 4.159 0 01-1.584 1.21c-.616.279-1.327.418-2.134.418-.454 0-.828-.037-1.122-.11a3.516 3.516 0 01-.88-.308v4.51h-2.86V67zm4.906 2.112c-.557 0-.997.14-1.32.418-.308.279-.55.697-.726 1.254v4.576c.206.161.426.293.66.396.25.088.572.132.968.132.822 0 1.438-.286 1.848-.858.411-.587.616-1.547.616-2.882 0-.968-.161-1.716-.484-2.244-.322-.528-.843-.792-1.562-.792zm12.959.418h-2.178a103.7 103.7 0 01-.308 3.102 14.403 14.403 0 01-.572 2.772c-.249.807-.594 1.467-1.034 1.98-.44.499-1.012.748-1.716.748-.85 0-1.452-.11-1.804-.33l.352-2.376c.235.088.455.132.66.132.294 0 .55-.125.77-.374.22-.25.404-.697.55-1.342.162-.645.286-1.518.374-2.618.103-1.115.176-2.523.22-4.224h7.546v11h-2.86v-8.47zm11.146 4.312l-1.32.264L555.776 78h-3.41l2.134-3.454 1.078-.814a2.866 2.866 0 01-1.782-1.012c-.469-.572-.704-1.283-.704-2.134 0-1.335.44-2.317 1.32-2.948.895-.63 2.259-.946 4.092-.946.704 0 1.357.037 1.958.11a22.45 22.45 0 011.606.242V78h-2.86v-4.158zm0-1.496V69.31a2 2 0 00-.528-.154 3.616 3.616 0 00-.55-.044c-.66 0-1.173.14-1.54.418-.366.279-.55.697-.55 1.254s.198.968.594 1.232c.411.264 1.005.389 1.782.374l.792-.044zm11.703 1.32h-3.586V78h-2.86V67h2.86v4.136h3.586V67h2.86v11h-2.86v-4.334zm16.304 6.842h-2.09l-.33-2.508h-7.392l-.33 2.508h-2.09V75.47h1.298c.118-.161.264-.433.44-.814.191-.396.374-.931.55-1.606.191-.675.352-1.51.484-2.508.132-.997.198-2.178.198-3.542h7.656v8.47h1.606v5.038zm-4.466-4.906V69.42h-2.31a25.24 25.24 0 01-.154 1.694 20.503 20.503 0 01-.286 1.716 14.136 14.136 0 01-.374 1.562 6.426 6.426 0 01-.484 1.21h3.608zm8.896 0c.44.088.858.132 1.254.132.66 0 1.122-.117 1.386-.352.264-.25.396-.63.396-1.144 0-.47-.132-.821-.396-1.056-.264-.25-.704-.374-1.32-.374-.484 0-.924.051-1.32.154v2.64zm0-4.686a8.594 8.594 0 011.056-.11c.367-.03.697-.044.99-.044.748 0 1.372.088 1.87.264.499.161.902.396 1.21.704.308.308.528.675.66 1.1.132.41.198.858.198 1.342 0 .66-.088 1.24-.264 1.738a2.873 2.873 0 01-.858 1.254c-.396.323-.909.572-1.54.748-.63.161-1.408.242-2.332.242-.836 0-1.562-.015-2.178-.044a45.86 45.86 0 01-1.672-.11V67h2.86v3.916zM598.883 67h2.86v11h-2.86V67z" fill="#fff"/></svg>