<svg width="319" height="267" fill="none" xmlns="http://www.w3.org/2000/svg"><path d="M135.174 202.695c3.962 14.789-4.823 30.005-19.611 33.967-14.789 3.963-30.005-4.822-33.968-19.611-3.962-14.788 4.823-30.005 19.612-33.967 14.788-3.963 30.004 4.822 33.967 19.611zm83.991-11.726c3.963 14.789-4.822 30.005-19.611 33.967-14.788 3.963-30.004-4.822-33.967-19.611-3.962-14.788 4.823-30.004 19.611-33.967 14.81-3.968 30.005 4.822 33.967 19.611zM306.44 86.552c3.962 14.788-4.823 30.005-19.611 33.967-14.789 3.963-30.005-4.822-33.968-19.611-3.962-14.788 4.823-30.005 19.611-33.967 14.789-3.963 30 4.801 33.968 19.61z" stroke="#1D568A" stroke-width="2"/><path d="M323.926 4.572l-3.186-.935-3.181-.914-.935 3.187c-6.184 21.175-16.227 42.33-31.568 66.394a21.42 21.42 0 00-2.36-.422 22.867 22.867 0 00-8.809.594 22.715 22.715 0 00-8.096 4.027c-4.673 3.615-7.724 8.836-8.609 14.692a22.698 22.698 0 002.498 14.285c-3.336 3.899-6.063 6.992-7.447 8.417-9.36 9.664-19.54 18.493-30.201 26.212-11.314 8.192-23.192 15.137-35.325 20.704l-1.346-3.057a4.775 4.775 0 00-2.628-2.53 4.814 4.814 0 00-2.958-.17c-.235.063-.444.142-.673.226l-8.643 3.784a4.776 4.776 0 00-2.474 6.259l1.112 2.523a192.244 192.244 0 01-17.343 5.037 172.953 172.953 0 01-31.358 4.435 4.691 4.691 0 00-1.057-2.492 4.719 4.719 0 00-3.211-1.709l-9.377-.928a4.822 4.822 0 00-1.706.136c-1.905.511-3.296 2.168-3.505 4.127l-.079.733c-9.172-.593-18.244-1.924-27.006-3.98-14.174-3.335-25.458-8.981-34.528-17.239-10.512-9.614-17.41-21.665-19.4-33.884-.23-1.453.005-2.548.248-3.095.103.042.233.099.39.171l4.907-4.113 1.498-2.97 1.498-2.97 1.497-2.97-2.97-1.498c-3.29-1.664-7.905 4.137-9.574 4.584a8.917 8.917 0 00-2.97 1.415c-4.236 3.107-4.965 8.945-4.311 13.013 2.35 14.416 10.346 28.512 22.55 39.646 10.353 9.451 23.1 15.852 38.963 19.583 7.71 1.81 15.62 3.085 23.64 3.826l-.395 4.005c-2.615 1.71-4.867 3.919-6.581 6.511a23.19 23.19 0 00-3.705 10.397c-1.245 12.558 7.962 23.807 20.52 25.052 2.756.271 5.52.058 8.174-.653a22.932 22.932 0 0011.428-7.168 22.788 22.788 0 005.456-12.678c.366-3.768-.176-7.59-1.61-11.059a23.018 23.018 0 00-5.3-7.709l.474-4.737a4.837 4.837 0 00-.107-1.599 182.46 182.46 0 0029.846-4.511c1.724-.416 3.484-.865 5.217-1.33a186.15 186.15 0 009.519-2.825c.054.375.179.755.325 1.128l3.247 7.41c-1.528 2.772-2.443 5.861-2.712 9.053a23.007 23.007 0 001.81 11.12c2.443 5.607 6.922 9.912 12.613 12.148 4.587 1.798 9.525 2.081 14.233.819a22.434 22.434 0 003.27-1.151c5.606-2.443 9.911-6.922 12.147-12.613 2.237-5.691 2.105-11.917-.337-17.524a23.095 23.095 0 00-6.617-8.686c-2.397-1.927-5.183-3.336-8.142-4.194l-3.393-7.784a10.516 10.516 0 00-.156-.325c11.3-5.505 22.308-12.102 32.778-19.678 11.145-8.055 21.754-17.251 31.526-27.346 1.363-1.42 3.815-4.165 6.909-7.769a23.005 23.005 0 0019.483 3.633 22.538 22.538 0 008.074-4.021c4.843-3.752 7.918-9.14 8.697-15.22.758-6.075-.869-12.061-4.621-16.905a22.403 22.403 0 00-3.844-3.901c15.506-24.476 25.728-46.16 32.111-67.962l.935-3.187-3.239-.875z" fill="#184670"/><path d="M186.494 213.6c4.155 1.639 8.694 1.546 12.781-.237a16.563 16.563 0 008.862-9.209 16.556 16.556 0 00-.236-12.781 16.616 16.616 0 00-10.723-9.375 17.315 17.315 0 013.194 4.901c3.868 8.872-.177 19.199-9.049 23.067a17.506 17.506 0 01-8.876 1.369 18.449 18.449 0 004.047 2.265z" fill="#1D568A"/><path d="M208.153 204.127c-1.639 4.155-4.776 7.426-8.863 9.209-4.086 1.783-8.626 1.876-12.78.237a17.671 17.671 0 01-4.047-2.264 16.579 16.579 0 01-5.163-6.599c-2.241-5.11-1.734-11.095 1.283-15.756l16.879-7.367c.577.098 1.143.244 1.71.39 4.79 1.354 8.705 4.755 10.744 9.369 1.762 4.092 1.855 8.632.237 12.781zm-17.844-32.1l3.191 7.287-.144.062-.454.19-13.182 5.757-.987.425-3.191-7.287 14.767-6.434zm-9.902-10.42l4.258 9.731-5.996 2.615-4.259-9.73 5.997-2.616zm30.14 28.598c-2.593-5.91-7.823-10.105-14.121-11.354l-4.052-9.304a1.547 1.547 0 00-.803-.771c-.357-.134-.75-.143-1.096.019l-3.164 1.375-4.824-11.07a1.54 1.54 0 00-.803-.771 1.513 1.513 0 00-1.096.018l-8.621 3.778c-.346.162-.616.44-.771.803-.133.357-.122.744.019 1.096l4.824 11.07-2.956 1.296a1.42 1.42 0 00-.731 1.894l3.918 8.973c-3.615 5.51-4.228 12.555-1.6 18.594a19.427 19.427 0 0010.788 10.389c3.944 1.535 8.161 1.781 12.184.703a19.264 19.264 0 002.81-.982 19.42 19.42 0 0010.389-10.789c1.885-4.862 1.791-10.181-.294-14.967zm-104.079 36.397c9.168.916 17.368-5.8 18.283-14.967.487-4.947-1.184-9.729-4.575-13.224l-.089.781c-.004.07-.008.14-.04.194.006.021-.015.027-.01.048a.388.388 0 01-.067.179s.006.021-.015.027c-.032.054-.041.103-.073.157-.021.006-.015.027-.015.027-.032.054-.063.109-.122.147l-.015.027c-.022.006-.016.028-.037.033.16 1.196.212 2.42.11 3.663-.715 9.573-9.027 16.731-18.593 16.038a17.365 17.365 0 01-8.28-2.828c2.387 5.232 7.412 9.092 13.538 9.698z" fill="#1D568A"/><path d="M124.751 211.634c-.915 9.168-9.115 15.883-18.283 14.968-6.126-.606-11.15-4.466-13.539-9.698a16.481 16.481 0 01-1.429-8.585c.488-4.856 3.006-9.154 6.899-11.917l-.065.613a1.433 1.433 0 001.295 1.58l18.9 1.885c.07.005.161.003.252.002l.022-.006c.07.004.155-.019.219-.036l.022-.006.021-.006c.064-.017.129-.034.166-.067l.021-.006a.398.398 0 00.138-.083c.022-.005.022-.005.037-.032.059-.039.096-.072.154-.11.022-.006.016-.028.038-.033.037-.033.052-.06.089-.093.022-.006.016-.027.037-.033l.016-.027c.031-.055.068-.087.121-.147.022-.006.016-.027.016-.027.031-.055.063-.109.072-.158 0 0-.005-.021.016-.027.031-.054.036-.124.067-.178-.006-.022.016-.027.01-.049.004-.07.035-.124.04-.194l.089-.781a16.76 16.76 0 014.559 13.251zm-10.476-32.422l-.694 6.998-6.503-.643.694-6.998 6.503.643zM101.65 192.87l.498-4.904 16.025 1.6-.451 4.479-.134 1.298-.206 2.142-16.025-1.601.293-3.014zm18.874 1.961l.639-6.433a1.378 1.378 0 00-.33-1.058 1.398 1.398 0 00-.965-.521l-3.44-.34.837-8.435a1.384 1.384 0 00-.33-1.059 1.402 1.402 0 00-.965-.521l-9.377-.928a1.433 1.433 0 00-1.58 1.295l-.809 8.451-3.209-.333a1.433 1.433 0 00-1.58 1.295l-.652 6.551c-5.703 3.111-9.467 8.752-10.11 15.255-1.066 10.744 6.807 20.355 17.552 21.421 2.406.249 4.778.027 6.982-.564 7.639-2.047 13.601-8.644 14.439-16.988.641-6.594-2.018-12.923-7.102-17.088z" fill="#1E568A"/><path d="M290.201 107.853a16.592 16.592 0 006.337-11.102 16.603 16.603 0 00-3.373-12.33 16.79 16.79 0 00-4.658-4.12 22.132 22.132 0 012.517 5.886c2.678 9.994-1.874 20.227-10.438 25.159 3.378-.148 6.745-1.279 9.615-3.493z" fill="#1D568A"/><path d="M266.763 104.866c-5.641-7.272-4.308-17.79 2.965-23.432a16.868 16.868 0 015.91-2.937 16.88 16.88 0 016.42-.436 16.634 16.634 0 016.443 2.22 16.807 16.807 0 014.659 4.118 16.607 16.607 0 013.372 12.33 16.588 16.588 0 01-6.337 11.102c-2.87 2.214-6.231 3.367-9.62 3.472a16.589 16.589 0 01-13.812-6.437zm28.678-22.225c-3.197-4.144-7.826-6.78-13.023-7.428-5.196-.65-10.327.748-14.448 3.94-8.525 6.619-10.086 18.941-3.488 27.471 4.977 6.419 13.187 8.898 20.57 6.92a19.36 19.36 0 006.901-3.432c4.143-3.197 6.779-7.826 7.428-13.022.655-5.176-.743-10.306-3.94-14.45z" fill="#1D568A"/></svg>