<svg width="452" height="733" fill="none" xmlns="http://www.w3.org/2000/svg"><path d="M-59.195 557.314c0-.325-.082-.569 0-.894v.894zm0 0zm.162.732c-.081-.162-.081-.325-.081-.488 0 .163 0 .326.081.488zm0 .163c0 .081.081.163.081.244 0-.081 0-.163-.08-.244zm1.056 1.789l.163.163c-.081-.081-.163-.081-.163-.163zm.65.651c.081.081.163.081.244.163-.081-.082-.163-.163-.244-.163-.081-.081-.244-.163-.325-.325.081.081.244.162.325.325zm1.056.569c-.325-.081-.569-.244-.812-.406.243.162.569.325.812.406zm100.246-41.4c12.591 12.689 76.2 65.232 268.405 64.581 3.899 0 5.605 3.986 4.305 6.751-.081.244-.243.488-.406.732 0 0 0 .082-.081.082a1.917 1.917 0 01-.569.569c-.081 0-.081.081-.162.081a1.776 1.776 0 01-.65.407c-.081.081-.163.081-.163.163-.325.162-.65.325-.975.406-14.297 4.067-33.794 8.703-57.84 12.038-1.868.244-3.818.488-5.768.732-3.736.488-7.555.895-11.535 1.301-13.242 1.383-27.702 2.278-43.218 2.603-2.762.081-5.605.081-8.448.081h-5.849c-3.737 0-7.555-.081-11.455-.244-4.305-.081-8.692-.325-13.079-.488-2.112-.081-4.224-.244-6.418-.325-1.299-.081-2.518-.163-3.818-.244-4.63-.325-9.261-.651-13.972-1.139-.406 0-.894-.081-1.3-.081-1.706-.163-3.493-.325-5.199-.488-2.437-.244-4.874-.488-7.393-.813 2.437.325 4.956.569 7.393.813 6.986.976 13.81 1.789 20.471 2.521v.651c.244 0 .488.081.732.081 2.68.244 4.711 2.522 4.711 5.287v106.632h82.536V618.072c0-2.602 1.869-4.717 4.306-5.205.244 0 .406-.082.65-.082 60.521-3.741 101.301-16.999 116.087-22.53.324-.081.649-.244.893-.325 45.736-12.119 74.413-27.085 85.055-33.185l-.407-.732-93.665-150.472c-1.544-2.521-1.95-5.531-1.056-8.377a10.115 10.115 0 015.686-6.263c11.292-4.718 19.172-9.028 23.884-11.875l-82.13-139.085c-1.381-2.359-1.787-5.287-.975-7.971.812-2.684 2.681-4.961 5.199-6.181 14.541-7.158 23.721-14.885 28.027-19.033L221.882 33.998l-.487-.976-11.86-19.52-5.362 8.215c-.406.65-.975 1.138-1.625 1.545l-3.412-5.612 3.412 5.612.975 1.627c.894 1.545.894 3.497-.081 4.961l-7.961 12.607-82.212 129.975c-1.381 2.196-.731 5.125 1.463 6.507 10.479 6.67 44.111 22.937 120.554 22.286 4.956 0 6.662 6.67 2.194 8.947-6.418 3.254-14.704 6.914-24.859 9.923-18.278 5.612-42.405 9.435-71.488 6.182L74.438 339.171c-.893 1.546-.893 3.498.082 5.043 6.58 9.842 40.374 43.271 194.155 46.443 5.686.081 6.336 8.377.731 9.353a561.9 561.9 0 01-43.056 6.019c-34.281 3.498-75.956 4.555-119.011-1.626l-64.42 109.559c-.731 2.034-.406 4.311 1.056 5.856zm-109.1 38.554l.487-.976L29.92 394.398c-10.398-3.985-20.472-8.54-30.057-13.42l-.082-.082c-2.762-1.057-4.955-3.253-5.93-6.1-.975-2.846-.65-5.937.894-8.459l19.578-32.453 66.938-113.789a505.1 505.1 0 01-21.284-10.167s-.08 0-.08-.081c-.57-.244-1.057-.651-1.544-.976l-.488-.488c-.325-.325-.65-.57-.893-.895-.163-.244-.325-.407-.488-.651-.162-.244-.406-.569-.568-.813a3.796 3.796 0 01-.407-.813c-.08-.163-.162-.326-.243-.488-.569-1.383-.731-2.766-.65-4.23v-.162c.081-1.79.65-3.417 1.625-4.881L180.532 4.555c1.381-2.115 3.493-3.579 5.849-4.23.894-.244 1.787-.325 2.681-.325.975 0 2.031.163 3.006.488l1.218.488c1.787.813 3.25 2.196 4.225 3.823l2.518 4.148 1.218-1.87a9.852 9.852 0 018.53-4.556c3.493.082 6.58 1.871 8.449 4.8l12.835 21.147c.163.325.325.65.488 1.057l103.576 172.188c2.437 4.067 1.787 9.11-1.625 12.363-4.63 4.474-14.622 13.014-30.545 20.904l82.13 139.247c2.762 4.717 1.219 10.818-3.412 13.664-4.955 3.01-13.322 7.646-25.264 12.689l94.072 151.041c1.462 2.358 1.868 5.043 1.218 7.727-.65 2.684-2.356 4.88-4.712 6.263-10.642 6.181-40.455 21.879-88.141 34.567-14.785 5.531-54.916 18.626-114.137 22.774v104.761a5.274 5.274 0 01-5.281 5.287H146.25c-2.843-.081-5.118-2.44-5.118-5.287V620.594c-5.361-.57-10.804-1.302-16.003-2.034-.731-.081-1.544-.162-2.275-.244l-.731-.081c-.975-.081-1.949-.244-2.843-.325-1.056-.082-2.112-.244-3.168-.407-.975-.081-2.031-.244-3.006-.407h-.244c-.893-.081-1.868-.244-2.762-.325-1.787-.244-3.655-.488-5.443-.732-.65-.081-1.381-.163-2.031-.325l-.812-.082c-1.137-.162-2.193-.325-3.33-.488-1.057-.162-2.031-.325-3.088-.488-1.137-.163-2.274-.325-3.412-.569l-.65-.082c-.73-.081-1.462-.244-2.274-.325l-5.849-.976c-.569-.081-1.219-.244-1.787-.325l-.813-.163-3.899-.732c-.975-.163-1.95-.325-2.924-.569-1.3-.244-2.6-.488-3.819-.732l-.406-.082c-.73-.162-1.543-.325-2.274-.488-2.031-.406-4.143-.813-6.174-1.22a8.42 8.42 0 01-1.381-.325l-.813-.163c-1.462-.325-3.005-.65-4.549-.976-.893-.162-1.787-.406-2.762-.65-1.462-.326-2.843-.651-4.305-.977l-.65-.162c-.65-.163-1.219-.325-1.869-.407-2.193-.488-4.386-1.057-6.58-1.545l-1.787-.407c-1.706-.407-3.412-.895-5.2-1.301-.893-.244-1.705-.407-2.599-.651-1.543-.407-3.168-.813-4.711-1.22l-.488-.163-1.95-.488c-2.274-.65-4.549-1.22-6.905-1.87l-1.3-.407-5.849-1.708-2.437-.732c-1.706-.488-3.412-1.058-5.117-1.546l-2.275-.731c-2.356-.733-4.793-1.465-7.23-2.278l-.813-.244c-2.193-.732-4.386-1.383-6.498-2.115l-2.356-.813c-1.788-.569-3.575-1.22-5.362-1.871l-2.274-.813c-2.519-.895-4.956-1.708-7.474-2.603l-.325-.163c-2.356-.894-4.793-1.708-7.149-2.602l-2.275-.895c-1.868-.732-3.736-1.383-5.605-2.115l-2.275-.894c-2.518-.976-5.117-2.034-7.717-3.01-2.518-1.057-4.55-3.009-5.524-5.531-.975-2.358-.975-5.205.162-7.645z" fill="url(#paint0_linear_128:37035)"/><defs><linearGradient id="paint0_linear_128:37035" x1="193" y1="0" x2="193" y2="733" gradientUnits="userSpaceOnUse"><stop stop-color="#184670"/><stop offset="1" stop-color="#184670" stop-opacity="0"/></linearGradient></defs></svg>