<svg width="40" height="87" fill="none" xmlns="http://www.w3.org/2000/svg"><path d="M16.928 43.305c.453 0 .815.739.815 1.644 0 .91-.367 1.644-.815 1.644-.452 0-.815-.739-.815-1.644 0-.91.363-1.644.815-1.644zm5.128-2.002a.348.348 0 01-.2-.362.377.377 0 01.053-.138 2.34 2.34 0 00.362-1.254c0-.047 0-.1-.005-.148 0-.014-.005-.033-.005-.047-.004-.033-.004-.067-.01-.095a.237.237 0 00-.009-.058l-.014-.085c-.005-.02-.005-.038-.01-.058-.004-.028-.014-.057-.019-.085-.004-.02-.01-.034-.014-.053-.01-.038-.024-.076-.033-.114-.01-.024-.015-.043-.024-.067a1.389 1.389 0 01-.029-.076l-.028-.067c-.01-.019-.02-.038-.024-.057-.01-.024-.024-.048-.034-.072a.225.225 0 01-.023-.047l-.043-.072c-.024-.043-.057-.08-.062-.138a.153.153 0 00-.12-.143c-.018-.005-.028-.019-.037-.033-.024-.029-.043-.053-.067-.076-.005-.005-.01-.015-.02-.02a1.133 1.133 0 01-.07-.076.063.063 0 00-.02-.014c-.024-.024-.052-.048-.08-.076v.634c.056.08.109.162.152.247.005.005.005.01.01.02.028.052.052.109.07.161.006.015.01.029.02.048.005.014.01.033.019.048.005.014.01.028.014.047.005.02.014.043.02.062l.014.062c.004.015.004.024.01.038l.013.062c0 .01.005.02.005.034l.014.09v.02c.005.028.005.056.01.08v.029c0 .033.005.067.005.1 0 .496-.186.968-.53 1.33a.321.321 0 01-.304.1 4.517 4.517 0 00-.791-.072h-.482c-.31 0-.62.034-.92.09-.023.006-.047.006-.066.006a.36.36 0 01-.243-.1 1.942 1.942 0 01-.558-1.364c0-.038 0-.076.005-.114v-.029c0-.028.005-.057.01-.085 0-.01.004-.024.004-.034.005-.033.01-.071.02-.104v-.005a.808.808 0 01.023-.105c.005-.01.005-.024.01-.033a.472.472 0 01.023-.077c.005-.01.005-.023.01-.033.01-.029.019-.062.033-.09 0-.005 0-.005.005-.01a1.851 1.851 0 01.057-.129c.01-.024.024-.043.034-.066.004-.01.01-.02.019-.034a.408.408 0 01.047-.076c.005-.005.005-.01.01-.014l.057-.086c.005-.01.014-.02.02-.029l.042-.057c.01-.01.014-.02.024-.029.024-.028.043-.052.067-.076v-.572l-.015.01a2.168 2.168 0 00-.29.271c-.058.062-.11.13-.163.196-.023.033-.047.066-.071.105-.005.01-.01.019-.024.024-.043.019-.08.057-.08.104 0 .048-.02.081-.039.115-.02.038-.038.071-.053.11 0 .004-.004.009-.004.014-.015.038-.034.076-.048.119-.014.038-.029.076-.038.114 0 .01-.005.014-.005.024-.01.038-.024.076-.033.12-.01.033-.02.09-.029.123l-.005.014a1.143 1.143 0 00-.018.129c0 .01 0 .014-.005.024a1 1 0 00-.01.124v.024c0 .043-.005.085-.005.128 0 .467.134.915.391 1.306a.332.332 0 01.053.11.34.34 0 01-.186.39 4.562 4.562 0 00-2.588 4.1v2.963a.963.963 0 00.248-.296c.243-.414.643-.662 1.072-.662.429 0 .83.248 1.072.662.081.138.181.248.3.329a.533.533 0 00.13.062l.023.01c.305.095.615-.058.82-.41.205-.348.514-.577.872-.64.334-.056.672.034.948.263l.01.01c.014.014.038.028.062.052l.005.005c.033.033.057.062.08.09l.01.01.015.014c.023.024.052.053.08.096a.255.255 0 01.034.061c.01.01.014.024.024.039.162.276.4.438.648.438s.481-.162.648-.438c.243-.415.643-.663 1.072-.663.43 0 .83.248 1.073.663.09.152.2.266.319.343v-3.003a4.589 4.589 0 00-2.717-4.15z" fill="#ECA753"/><path d="M20.78.677h-1.65v37.385h1.65V.677z" fill="#E9533A"/><path d="M16.928 43.29c-.452 0-.815.739-.815 1.644 0 .91.367 1.645.815 1.645.453 0 .815-.74.815-1.645s-.362-1.644-.815-1.644z" fill="#FEFEFE"/><path d="M28.786 49.152c2.621 3.384 4.18 7.602 4.18 12.177 0 11.124-9.194 20.14-20.537 20.14-2.025 0-3.98-.29-5.828-.824 4.332 4.104 10.556 6.234 17.224 4.957 7.782-1.492 13.863-7.645 15.279-15.437 1.649-9.079-3.003-17.29-10.318-21.013z" fill="#C75C21"/><path d="M17.581 64.327c-3.522 3.064-8.13 3.536-10.284 1.058-2.155-2.479-1.049-6.973 2.478-10.037 3.522-3.065 8.13-3.536 10.285-1.058 2.154 2.478 1.043 6.972-2.479 10.037zm11.205-15.175a19.234 19.234 0 00-3.989-1.501v.815a.98.98 0 01-.324-.343c-.243-.42-.648-.667-1.082-.667-.434 0-.834.247-1.077.667-.167.281-.4.443-.653.443-.248 0-.486-.162-.653-.443l-.024-.038a.255.255 0 00-.033-.062c-.029-.043-.062-.077-.081-.1a.065.065 0 01-.015-.02l-.009-.009a.744.744 0 00-.086-.09l-.005-.005c-.023-.024-.047-.038-.061-.053l-.01-.01a1.153 1.153 0 00-.953-.261c-.358.062-.672.29-.877.643-.205.353-.524.51-.83.41-.004-.005-.014-.005-.023-.01a.538.538 0 01-.129-.062.957.957 0 01-.3-.328c-.243-.42-.648-.668-1.077-.668-.434 0-.834.248-1.077.668a.972.972 0 01-.253.295v-.777C6.744 49.791.52 57.421.52 66.51a19.4 19.4 0 006.086 14.135 20.98 20.98 0 005.828.825c11.343 0 20.536-9.017 20.536-20.141a19.88 19.88 0 00-4.184-12.177z" fill="#E06522"/><path d="M28.905 52.736c-1.649.334-2.783 8.546-5.676 14.203-3.398 6.648-10.366 11.066-8.202 13.101 1.663 1.563 9.527-5.052 12.3-12.077 4.333-10.961 2.77-15.465 1.578-15.226zm-8.845 1.549c.443.51.748 1.11.924 1.764 1.673-1.688 6.6-4.742 4.237-5.891-1.663-.81-4.056 1.01-5.628 1.973-.468.286-.92.591-1.363.91a4.45 4.45 0 011.83 1.244zm-6.472 13.64c-1.268 4.632-2.841 4.375-3.666 7.601-.033.13-.038.701.01.83.186.5 1.177.472 1.625.238 1.806-.939 2.674-1.93 3.684-3.698.648-1.135.858-2.46 1.092-3.746.333-1.835.567-3.174.872-4.509a11.133 11.133 0 01-3.37 1.868c-.066.534-.143 1.04-.248 1.416z" fill="#2D3344"/><path d="M12.653 62.158c-.729 0-2.197 2.064-3.307 4.542 1.31.42 2.893.343 4.49-.195.095-.825.147-1.72.17-2.321.03-.987-.419-2.026-1.353-2.026zm-.495-7.029c-1.058 1.11-2.112 2.225-3.18 3.34-1.033 1.082-1.948 2.016-2.73 2.927-.195 1.515.129 2.93 1.044 3.984.086.1.176.195.271.286 1.13-2.435 2.95-5.29 5.948-8.412 1.463-1.52 3.003-2.983 4.714-4.213-2.383-.882-5.739-.057-8.455 2.302-.267.229-.515.467-.753.715a29.522 29.522 0 012.636-1.592c.424-.229.833.315.505.663zm6.262 5.361c-.572 1.65-.93 2.898-1.215 4.146.129-.1.252-.204.376-.314 2.798-2.43 4.07-5.762 3.403-8.274a3.767 3.767 0 00-.195.21c-.772.882-2.069 3.365-2.369 4.232z" fill="#EF803C"/><path d="M13.516 57.254c-2.998 3.122-4.818 5.977-5.948 8.412.5.477 1.101.82 1.778 1.034 1.11-2.478 2.578-4.542 3.307-4.542.934 0 1.383 1.034 1.35 2.03-.02.601-.072 1.497-.172 2.322 1.148-.386 2.302-1.016 3.37-1.869a39.16 39.16 0 011.214-4.146c.3-.867 1.592-3.355 2.369-4.232a3.77 3.77 0 01.195-.21 4.451 4.451 0 00-.924-1.763 4.447 4.447 0 00-1.83-1.244c-1.702 1.23-3.246 2.688-4.709 4.208zM8.984 58.47c1.067-1.116 2.12-2.23 3.178-3.341.33-.348-.08-.892-.5-.663a28.899 28.899 0 00-2.635 1.592c-1.578 1.63-2.54 3.555-2.77 5.343.773-.91 1.692-1.85 2.727-2.932z" fill="#535252"/><path d="M38.399 72.357c-1.921 2.364-3.77 4.819-4.128 5.32-.905 1.281-2.945 3.416-4.38 5.37a19.267 19.267 0 01-8.492 2.674c1.053-.429 2.082-.92 3.036-1.54 2.216-1.439 6.886-5.942 8.688-9.503 1.73-3.417 4.56-11.576 3.822-17.514a19.199 19.199 0 012.373 9.284 19.36 19.36 0 01-.92 5.91zm-21.761 13.12a19.253 19.253 0 01-8.76-3.983.088.088 0 00.01-.034c.157-.581.567-2.335.352-3.77-.133-.876-.352-2.397-.386-3.498-.048-1.534.205-3.87.667-5.333.23-.729.515-1.458.825-2.159a4.567 4.567 0 01-1.778-1.034c-1.344 2.898-1.701 5.205-1.882 6.663-.23 1.859-.158 4.909.171 7.282a19.323 19.323 0 01-2.626-3.565c-.338-2.426-.696-7.03.739-10.995.486-1.339 1.263-2.473 2.283-3.66.233-1.787 1.191-3.708 2.769-5.342a26.439 26.439 0 00-4.304 3.636c-.638.672-2.016 2.33-2.65 4.227-.69 2.074-1.067 4.223-1.005 6.387a19.46 19.46 0 01-.386-3.86c0-8.765 5.833-16.167 13.835-18.53v.6c-3.727 1.373-5.762 2.988-6.31 3.46a27.094 27.094 0 00-2.22 2.154c-.492.534-.978 1.154-1.235 1.82-.258.654.443 1.273 1.063.935 1.277-.696 2.373-1.768 3.54-2.669 3.832-2.96 7.02-3.093 10.133-4.123.481-.157 1.177-.49 1.963-.867.067.01.134.014.2.014.449 0 .863-.233 1.15-.643.28-.129.566-.248.843-.362a.84.84 0 01.21.233c.29.5.748.782 1.253.777a.339.339 0 00.334-.338v-.996a19.324 19.324 0 017.949 4.613c-.024 2.14.39 5.528.257 8.054-.214 4.18-4.122 10.852-7.873 16.352-1.72 2.526-6.138 6.3-9.131 8.555zM15.194 48.28v-2.812a4.57 4.57 0 012.583-4.098.366.366 0 00.1-.067.341.341 0 00.043-.429 2.378 2.378 0 01-.396-1.31c0-.043 0-.086.005-.13v-.023c.005-.043.005-.081.01-.124 0-.01 0-.014.004-.024.005-.043.01-.086.02-.128v-.01a.957.957 0 01.028-.124c.01-.038.019-.076.033-.12 0-.009.005-.013.005-.023.014-.038.024-.076.038-.114a2.12 2.12 0 01.048-.12c0-.004.005-.009.005-.014a.78.78 0 01.052-.11c.014-.033.133-.233.138-.242.024-.034.048-.072.072-.105.052-.067.105-.134.162-.196l.014-.014c.029-.029.052-.057.081-.086.067-.066.138-.128.214-.186v.572a.932.932 0 00-.066.077c-.01.01-.015.019-.024.028l-.043.057c-.005.01-.014.02-.019.029l-.057.086c-.005.005-.005.01-.01.014-.014.024-.028.053-.047.076a.225.225 0 01-.02.034c-.009.023-.023.043-.033.066-.005.01-.01.02-.014.034l-.043.095c0 .005 0 .005-.005.01-.01.028-.024.062-.033.09-.005.01-.005.024-.01.033-.01.024-.014.048-.023.077-.005.01-.005.019-.01.033a.842.842 0 00-.024.105v.005c-.005.033-.014.071-.019.105 0 .01-.005.019-.005.033-.005.029-.005.057-.01.081 0 .01 0 .024-.004.033 0 .038-.005.077-.005.115 0 .51.196.996.558 1.363.067.067.152.1.243.1.024 0 .047 0 .067-.005.3-.062.61-.09.92-.09h.48c.263 0 .525.023.792.071.114.02.229-.02.305-.1.343-.362.529-.834.529-1.33 0-.033 0-.066-.005-.1v-.029a.418.418 0 00-.01-.08v-.02c-.004-.033-.009-.061-.014-.09 0-.01-.004-.02-.004-.033l-.015-.062c-.005-.015-.005-.024-.01-.039l-.014-.062a.305.305 0 00-.019-.061c-.004-.015-.01-.029-.014-.048-.005-.014-.01-.034-.019-.048-.005-.01-.01-.019-.01-.028a2.083 2.083 0 00-.08-.181c-.005-.005-.005-.01-.005-.015-.048-.085-.096-.171-.153-.248v-.629a.966.966 0 01.081.077c.005.004.01.01.02.014.023.024.047.047.07.076.006.005.01.014.02.02a.948.948 0 01.067.075c.01.015.19.267.219.31l.043.072a.17.17 0 01.023.047c.01.024.024.048.034.072.01.019.019.038.024.057l.028.067c.01.024.02.047.029.076.01.024.014.043.024.067a.978.978 0 01.033.114c.005.02.01.033.014.053.005.028.015.057.02.085.004.02.009.038.009.058l.014.085c.005.02.005.038.01.053.005.033.005.066.01.095 0 .014.004.033.004.048a2.34 2.34 0 01-.357 1.401.345.345 0 00.148.5 4.544 4.544 0 012.702 4.151v2.999a1.015 1.015 0 01-.32-.344 1.697 1.697 0 00-.105-.152c-.243-.32-.595-.51-.967-.51-.429 0-.83.247-1.072.662-.162.281-.4.438-.648.438s-.482-.162-.649-.438c-.01-.014-.014-.024-.023-.038-.01-.02-.02-.043-.034-.062-.028-.043-.062-.076-.08-.095l-.015-.015-.01-.01a1.24 1.24 0 00-.08-.09l-.005-.005c-.024-.023-.048-.038-.062-.052l-.01-.01a1.16 1.16 0 00-.948-.262c-.358.062-.668.291-.872.639-.205.348-.52.505-.82.41-.005-.005-.014-.005-.024-.01a.638.638 0 01-.129-.062.915.915 0 01-.3-.328 1.327 1.327 0 00-.42-.453 1.156 1.156 0 00-.652-.21c-.43 0-.83.248-1.073.663-.014.028-.033.052-.052.08a1.085 1.085 0 01-.2.215l.024-.148zm3.731-9.532h1.94a1.267 1.267 0 01.062 1.544 5.137 5.137 0 00-.71-.047h-.482c-.285 0-.576.024-.857.072a1.262 1.262 0 01-.248-.754c0-.314.11-.595.295-.815zM19.14.682h1.649v37.385h-1.65V.682zm19.287 57.983a20.013 20.013 0 00-1.797-3.331 20.048 20.048 0 00-3.197-3.703 19.884 19.884 0 00-6.954-4.113c-.343-.12-.69-.23-1.039-.324v-1.73a5.223 5.223 0 00-2.778-4.614c.19-.405.29-.843.29-1.291a3.06 3.06 0 00-1.482-2.617V.34a.34.34 0 00-.338-.338h-2.33a.34.34 0 00-.339.338v36.527a3.053 3.053 0 00-1.296 4.051 5.251 5.251 0 00-2.65 4.547v1.744a20.568 20.568 0 00-2.302.81 19.951 19.951 0 00-6.358 4.285 19.898 19.898 0 00-4.284 6.357A19.853 19.853 0 000 66.443c0 2.621.5 5.166 1.482 7.568.029.072.062.148.09.22a19.876 19.876 0 001.94 3.536 20.29 20.29 0 002.345 2.821c.067.067.134.129.2.196a19.89 19.89 0 0013.33 5.652c.206.005.41.01.615.01a19.851 19.851 0 009.06-2.17 19.991 19.991 0 005.08-3.693 19.897 19.897 0 004.285-6.357c.439-1.03.782-2.093 1.04-3.17.352-1.5.533-3.045.533-4.613 0-2.693-.529-5.314-1.573-7.778z" fill="#2D3344"/></svg>