<svg width="115" height="114" fill="none" xmlns="http://www.w3.org/2000/svg"><path d="M114.67 71.077L74.274 56.824a.25.25 0 01-.112-.399l27.465-32.88c.18-.218-.081-.524-.324-.374L64.969 45.868a.253.253 0 01-.38-.162L56.002 3.733c-.056-.28-.462-.262-.499.019l-4.91 42.552a.248.248 0 01-.362.194l-38.166-19.45c-.255-.132-.492.199-.292.398l30.213 30.375a.248.248 0 01-.075.405l-39 17.712c-.262.118-.156.51.13.48L45.62 71.73a.256.256 0 01.274.312l-10.47 41.537c-.068.274.306.436.455.193l22.884-36.209a.25.25 0 01.412-.018l25.944 34.083c.174.224.53.037.436-.237L71.515 70.92a.255.255 0 01.242-.337l42.827.966c.287.02.362-.38.087-.473z" fill="#2D3344"/><path d="M49.551 44.516l3.31 8.077.903-44.597-4.213 36.52z" fill="#407B7C"/><path d="M90.833 27.178L63.51 44.248l-7.248 7.516 34.57-24.586z" fill="#EB6135"/><path d="M52.175 54.157l-39.804-27.34 28.618 28.767 11.186-1.427z" fill="#D77E88"/><path d="M40.957 56.344L10.775 70.05l39.319-14.87-9.137 1.165z" fill="#399FCF"/><path d="M44.94 69.737l-8.495 33.691 15.176-45.482-6.681 11.79z" fill="#EB6135"/><path d="M57.915 75.003l23.863 31.347L54.07 56.737l3.845 18.266z" fill="#407B7C"/><path d="M56.425 54.811l51.085 12.52-35.025-12.358-16.06-.162z" fill="#399FCF"/><path d="M44.94 69.737l6.68-11.791-15.175 45.482 8.495-33.69zm-34.165.312l30.176-13.705 9.136-1.165-39.312 14.87zm1.596-43.232l39.804 27.34-11.186 1.427L12.37 26.817zM53.764 7.996l-.903 44.597-3.31-8.077 4.213-36.52zm28.014 98.355L57.915 75.003 54.07 56.737l27.708 49.614zM63.51 44.248l27.322-17.064-34.57 24.586 7.248-7.522zm43.999 23.084l-51.078-12.52 16.053.161 35.025 12.359zm-73.489 44.87c.05 0 .1-.024.13-.074l23.28-36.826a.168.168 0 01.093-.068l.044-.069.062.081c.019.013.044.025.056.044l26.387 34.663a.155.155 0 00.125.062c.1 0 .193-.093.15-.212L70.01 68.484h.094a.156.156 0 01.112-.05h.006l43.55.985h.006c.131 0 .187-.137.137-.23L72.554 54.593l.093-.112a.15.15 0 01.038-.119l27.92-33.44c.081-.1.018-.219-.075-.25l-37.25 23.27-.05-.236c-.005-.013-.012-.025-.012-.038L54.475.998a.152.152 0 00-.156-.125.163.163 0 00-.125.062l-5.035 43.63-39.131-19.948c-.106.025-.169.168-.075.261l30.724 30.887c.019.025.037.05.044.075l.137.137L.885 74.13c-.025.093.037.2.15.2h.018l43.3-4.762h.02c.043 0 .074.019.105.043l.119-.012-10.713 42.509c.012.05.075.093.137.093z" fill="#FEFEFE"/><path d="M113.773 69.425l-43.556-.984h-.006a.146.146 0 00-.112.05c-.038.043-.056.1-.038.162l14.278 41.156a.16.16 0 01-.15.212.163.163 0 01-.124-.062L57.678 75.296c-.019-.019-.037-.037-.056-.044-.019-.012-.044-.012-.069-.012-.012 0-.024 0-.037.006-.037.006-.069.031-.093.069L34.145 112.14a.154.154 0 01-.131.075.163.163 0 01-.15-.1.137.137 0 01-.006-.1l10.65-42.24a.158.158 0 00-.05-.156.15.15 0 00-.105-.044h-.019l-43.3 4.761h-.019c-.112 0-.175-.112-.15-.2a.167.167 0 01.088-.099l39.667-18.01a.16.16 0 00.087-.181.133.133 0 00-.044-.075L9.94 24.885c-.093-.094-.03-.237.075-.262.012 0 .025-.006.037-.006.025 0 .05.006.075.018l38.814 19.781c.025.013.05.019.068.019.075 0 .15-.056.156-.137l4.992-43.276a.207.207 0 01.031-.075.158.158 0 01.28.062L63.2 43.688a.09.09 0 00.012.037.15.15 0 00.137.088.125.125 0 00.081-.025l36.95-23.078a.156.156 0 01.088-.025c.018 0 .031 0 .043.006.094.032.156.156.075.25L72.666 54.38c-.031.031-.037.075-.037.119a.153.153 0 00.106.13l41.082 14.496a.136.136 0 01.087.075.148.148 0 01-.131.224zm.343-1.134l-40.11-14.153 27.259-32.644a1.02 1.02 0 00.144-1.096 1.039 1.039 0 00-.935-.599c-.193 0-.38.056-.549.156L63.86 42.49 55.335.823A1.022 1.022 0 0054.325 0c-.523 0-.966.393-1.022.91L48.43 43.163 10.539 23.85a1.032 1.032 0 00-1.421.524c-.162.386-.075.822.224 1.121l29.983 30.158-38.72 17.58c-.45.2-.686.68-.58 1.16.106.48.517.816 1.003.816.038 0 .075 0 .119-.007l42.272-4.655-10.395 41.244c-.081.312-.013.636.187.885.118.15.268.262.442.324.119.044.243.069.374.069.355 0 .68-.181.867-.48l22.722-35.953 25.763 33.84c.2.262.492.405.816.405.169 0 .33-.043.48-.118 0 0 .007 0 .007-.006a1.018 1.018 0 00.492-1.247L71.233 69.326l42.521.96h.025a1.03 1.03 0 001.016-.854 1.04 1.04 0 00-.679-1.14z" fill="#232F40"/><path d="M55.341 8.046l-.86-4.182-.069 3.402c.312.25.624.512.929.78z" fill="#E7C297"/><path d="M61.33 40.696a30.608 30.608 0 01-.729 1.9c-.18.418-.368.83-.567 1.24a27.605 27.605 0 01-2.892 4.693c-.143.187-.287.368-.43.549a29.67 29.67 0 01-.91 1.078 38 38 0 01-.48.523c-.324.35-.66.686-1.003 1.016-.175.168-.349.33-.524.492-.1.088-.199.181-.299.268l-.018.966 9.198-9.535-.922-4.512c-.006.013-.006.025-.013.038-.124.43-.261.86-.41 1.284zm-6.999-29.291a28.108 28.108 0 012.182 2.374L55.34 8.046a26.57 26.57 0 00-.922-.78l-.088 4.139z" fill="#F3BC8F"/><path d="M58.077 42.883a25.753 25.753 0 01-3.478 5.335c-.137.168-.28.33-.423.492-.144.162-.293.324-.443.486a3.664 3.664 0 01-.174.18l-.063 3.086c.1-.088.2-.175.3-.268.174-.162.349-.33.523-.492a30.864 30.864 0 001.483-1.54c.312-.355.617-.71.91-1.078.143-.18.293-.368.43-.548a27.605 27.605 0 004.188-7.834c.15-.43.28-.854.411-1.29.007-.013.007-.025.013-.038l-1.16-5.652a25.956 25.956 0 01-2.517 9.161zm-3.746-31.478l-.062 3.085c.013.018.031.03.044.05a25.927 25.927 0 013.353 4.86l-1.153-5.62a62.217 62.217 0 00-.561-.668 30.204 30.204 0 00-1.62-1.707z" fill="#F3BC8F"/><path d="M54.27 14.496l-.07 3.421c.455.642.867 1.296 1.247 1.97a23.476 23.476 0 011.882 4.256A23.74 23.74 0 0156.12 41.93c-.087.175-.168.343-.262.518a18.46 18.46 0 01-.56 1.016c-.1.168-.2.336-.3.498a22.15 22.15 0 01-1.327 1.932c-.019.019-.031.044-.05.062l-.069 3.422c.056-.063.112-.119.175-.18.15-.163.299-.319.442-.487.144-.162.287-.324.424-.492a25.753 25.753 0 003.477-5.335 25.952 25.952 0 002.518-9.167L57.66 19.394a25.924 25.924 0 00-3.352-4.86c-.013-.007-.026-.026-.038-.038z" fill="#E5B29B"/><path d="M55.005 43.961l.299-.498c.193-.337.38-.674.56-1.016a23.754 23.754 0 001.084-19.394 23.476 23.476 0 00-1.496-3.166 24.296 24.296 0 00-1.245-1.97l-.081 4.1c.374.755.698 1.528.978 2.307.056.162.119.33.169.498a21.525 21.525 0 011.021 8.183 21.575 21.575 0 01-2.118 7.97c-.144.294-.293.587-.455.873l-.081 4.107c.018-.018.03-.043.05-.062.467-.623.91-1.271 1.315-1.932z" fill="#D5A7A4"/><path d="M56.288 33.005a21.525 21.525 0 00-1.022-8.183l-.168-.498a21.302 21.302 0 00-.978-2.306l-.137 6.855.037.275a20.764 20.764 0 01.137 1.85c.019.617.006 1.24-.037 1.858-.05.71-.137 1.42-.262 2.125l-.137 6.868c.156-.287.311-.58.455-.873a21.69 21.69 0 002.112-7.97z" fill="#C69DAA"/><path d="M54.15 31.005a20.7 20.7 0 00-.087-1.39 8.893 8.893 0 00-.05-.461l-.037-.275-.124 6.108c.124-.704.218-1.415.261-2.125.044-.617.056-1.24.038-1.858z" fill="#B592AF"/><path d="M98.237 22.884l.349-.424-.374.268c.012.05.018.1.025.156z" fill="#967DB7"/><path d="M96.616 23.863l-1.614 1.146-1.627 1.16-1.645 1.165-1.664 1.184-1.683 1.197-1.707 1.215-1.733 1.234-3.246 2.306-3.39 2.412-3.603 2.56-3.932 2.8-.025.093.025-.094-4.544 3.234c-.018.038-.03.07-.05.106.02-.037.032-.068.05-.106l-6.12 4.35-5.876 4.182 2.218.025 4.313.044.031-.038-.031.038 4.032.037 3.845.038.013-.02-.013.02 3.465.037.848-1.016 6.924-8.301 4.437-5.316 2.082-2.493 1.931-2.312 1.82-2.181 1.733-2.075 1.664-1.995 1.608-1.925a38.29 38.29 0 00-.069-.76c.025.255.044.504.069.76l1.564-1.87 1.52-1.826-.018-.156-1.602 1.14zM59.846 50.18c-.061.087-.13.174-.192.262-.106.143-.219.28-.33.423.111-.137.217-.28.33-.423.062-.088.13-.175.193-.262zm-2.816 3.278c-.168.168-.343.343-.511.505l-.025.025.025-.025c.168-.169.343-.337.51-.505zm9.155-7.878c-.025.056-.05.106-.069.162.019-.056.044-.112.069-.162zm-.094.212c-.012.032-.025.056-.037.088l.037-.088zm-.417.88c-.025.049-.044.093-.069.142l.069-.143zm-.106.211c-.081.162-.162.33-.25.492.088-.162.169-.324.25-.492zm-.287.56l-.15.281a3.08 3.08 0 00.15-.28zm-.143.281l-.112.206.112-.206zm-.187.343c-.062.112-.125.23-.193.343.062-.112.13-.224.193-.343zm-.193.349c-.038.069-.075.137-.119.206.044-.069.081-.137.119-.206zm-.119.206c-.037.068-.08.137-.118.205.043-.068.08-.137.118-.205zm-.236.405c-.038.068-.082.137-.119.205.037-.068.081-.137.118-.205zm-.163.274c-.043.069-.08.137-.124.206.043-.069.08-.137.124-.206zm-3.097 4.325l-.05.062-.006.007.006-.007.05-.062zm7.528-5.902c-.043.087-.08.175-.124.262-.019.031-.031.069-.05.1.019-.031.031-.069.05-.1.043-.087.08-.175.124-.262zm-.174.362l-.087.18-.013.02c-.019.03-.03.068-.05.099-.018.031-.03.068-.05.1-.018.03-.03.068-.05.1-.018.03-.03.068-.05.099-.018.031-.03.069-.05.1l.35-.698zm3.029.984c-.05.1-.094.2-.144.3a40.301 40.301 0 01-2.144 3.851c.075-.118.156-.243.231-.368a39.56 39.56 0 002.057-3.783zm6.338-9.292zM74.99 49.09c-.063.137-.125.28-.187.418l.187-.418zm-.979 2.082c-.237.467-.48.934-.735 1.396.255-.462.505-.923.735-1.396zm7.684-16.522c0 .032-.006.056-.006.088A46.955 46.955 0 0180.382 43a47.727 47.727 0 001.308-8.263c.007-.032.007-.063.007-.088zm-1.352 8.507c-.025.106-.056.206-.08.312.03-.1.055-.206.08-.312zm-.08.312c-.026.106-.057.205-.082.311.025-.1.056-.205.081-.311zm-.082.311c-.025.106-.056.206-.087.312.031-.1.056-.206.087-.312zm4.768-11.623v.742a45.077 45.077 0 01-.15 2.699c.019-.218.031-.437.05-.648.044-.68.08-1.365.1-2.05v-.742zm10.12-6.537l.02.168a.699.699 0 01-.02-.168zM37.467 39.106l-2.28-1.165-5.759-2.936.037.063c-.012-.019-.025-.037-.037-.063l-2.281-1.159-1.838-.94-1.69-.86-1.613-.823-2.113-1.078-2.063-1.054-2.032-1.034v.006-.006l-1.352-.692 1.315.904c.006-.025.006-.05.013-.069-.007.025-.007.044-.013.069l2 1.377.013-.087-.012.087 2.075 1.427 2.212 1.52c-.006-.05-.006-.099-.012-.149.006.05.006.1.012.15l1.795 1.234 2.125 1.458 8.538 5.864 2.125 1.459 1.795 1.234 2.212 1.52 2.076 1.427 2 1.378 1.95 1.34 1.92 1.32c.038-.024.075-.055.119-.08-.038.025-.075.056-.119.08l1.895 1.303 1.789 1.228-.817-2-.224.186.224-.187-.872-2.125a.788.788 0 00-.069.063c.025-.019.044-.038.069-.063l-.88-2.15-.89-2.18-.007-.02-2.019-1.028-.336.318.336-.318-2.063-1.053-2.112-1.078L41 40.9l-1.689-.86-1.845-.935zm12.651 10.526c.094-.08.187-.156.275-.237.018-.018.037-.03.056-.05-.019.02-.038.032-.056.05-.088.081-.181.156-.275.237zm-2.567-.741zm.18-.137c.231-.169.456-.35.68-.53-.224.187-.449.361-.68.53zm1.484-1.216l.205-.187-.205.187zm-3.496-.012l.18-.125c-.062.044-.124.081-.18.125zm.53-.38c.03-.02.055-.044.087-.063a.768.768 0 01-.088.063zm.087-.063c.03-.018.056-.043.087-.062-.031.019-.056.044-.087.062zm.13-.1l.088-.068c-.031.025-.056.05-.087.069zm.306-.23l.087-.069a.477.477 0 00-.087.069zm.212-.175l.087-.068-.087.069zm.212-.174c.03-.025.056-.05.087-.069l-.087.069zm.087-.069c.031-.025.056-.05.087-.068-.031.019-.056.043-.087.068zm.087-.074c.056-.05.112-.094.168-.144l.187-.168-.187.168c-.056.05-.112.1-.168.144zm-6.587-3.372c.062-.037.13-.068.193-.106-.062.038-.125.069-.193.106zm.324-.18zm-17.4-9.685c0 .018.006.037.006.056 0-.019-.006-.038-.006-.056zm.012.112c.02.137.044.28.069.417-.025-.143-.044-.28-.069-.417zm10.663 4.799zm-1.233-.206c-.057-.012-.113-.031-.175-.05.056.019.118.038.175.05zm-3.03-1.826c-.043-.05-.087-.093-.13-.143-.019-.02-.031-.038-.05-.056.019.018.031.037.05.056.043.05.087.093.13.143zm-.174-.2c-.012-.018-.03-.037-.043-.056.012.02.024.038.043.056zM5.99 72.572l-1.952.736-.729.274.96-.106 2.618-.287 5.122-.56 5.896-.649 7.634-.84 18.79-2.07.829-1.464 2.337-4.126 2.717-4.793 2.05-3.614-19.998 7.56-5.859 2.218-4.786 1.807-4.269 1.614-3.97 1.502-3.764 1.427-3.627 1.371zM50.186 58.7l-.006.006c-.224.125-.455.256-.68.374.231-.125.456-.25.68-.374l.006-.006zm-5.864 2.567c-.212.069-.424.131-.636.194.212-.063.424-.125.636-.194zm-2.1.592c-.194.044-.38.094-.574.138-.274.062-.555.118-.829.174.28-.056.555-.112.83-.174.192-.05.386-.094.572-.138zm-7.417.885H34.7h.106zm-.106 0c-.255 0-.517-.006-.772-.012.255.006.517.006.772.012zm4.73-.342l.094-.013-.093.013zm7.08 1.458l-.162.056-.262.094.262-.094.162-.056zm-.436.15c-.175.062-.35.118-.524.174.181-.056.356-.112.524-.174zm-3.478 1.003l-.255.056c-.069.013-.137.031-.206.044.069-.013.137-.031.206-.044l.255-.056zm-4.33.717c-.556.056-1.104.1-1.659.124a48.22 48.22 0 001.658-.124zm5.084-.904l.1-.025-.1.025zm1.783 2.786c-.106.03-.212.062-.312.093l.312-.093zm-6.07 1.203c-.125.012-.25.024-.38.043.124-.012.249-.025.38-.044zm-1.558.143c-.038 0-.075.006-.112.006.037 0 .074 0 .112-.006zm-2.705.093zM4.07 73.326l.062.05c-.019-.018-.037-.03-.062-.05z" fill="#FEFEFE"/><path d="M35.174 109.224l-.15.442.28-.442h-.13z" fill="#CAC9A6"/><path d="M36.153 107.884c-.181 0-.356.006-.536.006l-.45 1.333h.132l.854-1.339z" fill="#D9C5A0"/><path d="M37.006 106.531h-.087l-.86.019-.449 1.334c.181 0 .355-.007.536-.007l.86-1.346z" fill="#E7C297"/><path d="M37.006 106.531l.86-1.365c-.33.013-.654.025-.984.031-.125.007-.25.007-.374.007l-.449 1.34.86-.019c.031.012.062.006.087.006z" fill="#F3BC8F"/><path d="M37.873 105.173l.903-1.428a82.79 82.79 0 01-1.795.075l-.467 1.396c.125 0 .25-.006.374-.006l.985-.037z" fill="#F3BC8F"/><path d="M39.686 102.3c-.748.049-1.49.087-2.237.118l-.468 1.402a82.826 82.826 0 001.795-.075l.91-1.445z" fill="#E5B29B"/><path d="M40.608 100.841a65.57 65.57 0 01-2.692.169l-.467 1.402c.748-.025 1.49-.069 2.237-.119l.922-1.452z" fill="#D5A7A4"/><path d="M41.537 99.364c-1.047.106-2.1.181-3.154.237l-.467 1.409a65.684 65.684 0 002.692-.169l.929-1.477z" fill="#C69DAA"/><path d="M42.484 97.875a71.21 71.21 0 01-3.627.318l-.474 1.414c1.054-.056 2.1-.13 3.154-.236l.947-1.496z" fill="#B592AF"/><path d="M43.438 96.36c-.175.025-.343.044-.518.069-1.196.15-2.393.262-3.59.343l-.473 1.42a64.778 64.778 0 003.627-.317l.954-1.515z" fill="#A487B4"/><path d="M43.438 96.36l.972-1.533c-.555.081-1.103.162-1.658.231a67.29 67.29 0 01-2.948.293l-.473 1.42c1.196-.08 2.4-.192 3.59-.342.174-.025.342-.044.517-.069z" fill="#967DB7"/><path d="M44.41 94.828l1.24-1.957c-1.034.18-2.069.336-3.11.467-.71.087-1.42.162-2.131.224l-.598 1.789a67.423 67.423 0 002.947-.293c.543-.075 1.097-.15 1.652-.23z" fill="#967DB7"/><path d="M45.644 92.87l1.265-2c-1.52.311-3.054.56-4.593.748-.436.056-.879.106-1.321.15l-.598 1.8a61.86 61.86 0 002.13-.224 73.619 73.619 0 003.117-.474z" fill="#958BBB"/><path d="M46.915 90.864l1.303-2.057a56.696 56.696 0 01-6.606 1.14l-.605 1.808c.443-.044.879-.094 1.321-.15 1.527-.18 3.06-.43 4.587-.741z" fill="#9397BF"/><path d="M48.212 88.807l1.34-2.119a57.042 57.042 0 01-7.342 1.446l-.604 1.82.498-.056a58.314 58.314 0 006.108-1.09z" fill="#92A3C1"/><path d="M50.941 84.488a55.489 55.489 0 01-8.12 1.814l-.611 1.832a57.229 57.229 0 007.341-1.446l1.39-2.2z" fill="#91AFC3"/><path d="M52.393 82.195l-.822.28a53.535 53.535 0 01-8.133 1.982l-.617 1.845a55.502 55.502 0 008.12-1.814l1.452-2.293z" fill="#90B9C1"/><path d="M51.57 82.475c.275-.087.549-.18.823-.28l1.527-2.412a51.386 51.386 0 01-9.86 2.81l-.622 1.864a54.28 54.28 0 008.133-1.982z" fill="#8FC3C1"/><path d="M51.028 80.824a50.29 50.29 0 002.892-1.047l1.627-2.574a16.03 16.03 0 01-.48.212 48.114 48.114 0 01-4.58 1.757A49.917 49.917 0 0144.69 80.7l-.63 1.882a50.46 50.46 0 006.968-1.757z" fill="#8ECCBD"/><path d="M50.486 79.179a50.535 50.535 0 004.58-1.758c.163-.068.319-.143.48-.212l1.484-2.343-.361-1.72c-.256.137-.518.268-.773.399a45.403 45.403 0 01-6.388 2.636 50.38 50.38 0 01-3.646 1.035l-1.165 3.49a50.153 50.153 0 005.79-1.527z" fill="#8ECCBD"/><path d="M49.502 76.181a46.1 46.1 0 006.387-2.636c.262-.131.518-.268.773-.399l-.679-3.222a44.08 44.08 0 01-5.453 2.543c-.667.255-1.34.492-2.013.716-.486.162-.972.306-1.465.45l-1.196 3.583a47.41 47.41 0 003.646-1.035z" fill="#A5CBB5"/><path d="M48.517 73.183a48.364 48.364 0 002.013-.716 44.07 44.07 0 005.453-2.543l-.686-3.24c-.155.087-.305.18-.46.267a40.045 40.045 0 01-6.37 2.91c-.062.02-.118.044-.18.063l-1.235 3.708c.486-.143.979-.287 1.465-.449z" fill="#BACBAF"/><path d="M54.836 66.951c.156-.087.312-.18.462-.268l-.686-3.272c-.436.275-.879.543-1.328.792-.274.156-.542.305-.816.449l-.823.43c-.679.342-1.364.654-2.056.953l-1.296 3.889a40.243 40.243 0 006.544-2.973z" fill="#CAC9A6"/><path d="M51.64 65.082c.273-.137.554-.28.822-.43.274-.144.548-.3.816-.45.449-.255.892-.516 1.328-.79l-.698-3.304a35.229 35.229 0 01-2.188 1.347c-.249.143-.505.28-.76.417l-1.39 4.163a37.513 37.513 0 002.07-.953z" fill="#D9C5A0"/><path d="M52.474 61.025a35.3 35.3 0 001.446-.917l-.71-3.359c-.131.094-.256.187-.387.28l-.299.206-1.546 4.637c.256-.137.505-.274.76-.417.244-.138.487-.287.736-.43z" fill="#E7C297"/><path d="M53.21 56.743l-.206-.966-.486 1.458.299-.205c.137-.094.262-.187.393-.287z" fill="#F3BC8F"/><path d="M82.57 106.381l-.562-1.626-.754-2.169-.754-2.169c-.355.119-.71.237-1.066.349l1.14 2.044.02-.006-.02.006 1.141 2.038c.044-.012.088-.031.125-.043l-.125.043.854 1.533zM56.85 57.996l-2.363-1.976-.037.019 1.103 1.975 1.59 2.848a35.73 35.73 0 002.835-.243l-3.129-2.623zm6.044 5.066l-2.91-2.436c-.941.118-1.888.199-2.836.243l1.558 2.785 2.213 3.964 2.181 3.901 2.156 3.858 2.132 3.82 2.119 3.796 2.106 3.77.118-.031-.118.03 2.1 3.759.05-.013-.05.013 1.147 2.056 1.147 2.057 1.146 2.05.119-.037-.119.037 1.147 2.05c.081-.024.168-.05.25-.08-.082.025-.169.056-.25.08l1.14 2.045c.356-.112.711-.231 1.066-.349l-.754-2.169c-.255.087-.51.175-.773.256.256-.081.518-.169.773-.256l-.754-2.169c-.056.019-.112.038-.174.056l.174-.056-.754-2.168c-.162.056-.324.105-.486.162.162-.056.324-.106.486-.162l-.754-2.17-.754-2.168-1.371-3.945-1.371-3.945-1.371-3.945-1.371-3.945-1.371-3.95-.45-1.303-2.56-2.144-3.977-3.347z" fill="#FEFEFE"/><path d="M54.419 55.964l-.006.006.037.069.037-.02-.068-.055z" fill="#D5A7A4"/><path d="M109.71 68.621c-.025.075-.044.15-.069.23l1.103.026-1.034-.256z" fill="#967DB7"/><path d="M107.46 68.073c-.075.243-.15.486-.231.723l2.406.056c.025-.075.043-.15.068-.23l-2.243-.549z" fill="#958BBB"/><path d="M105.21 67.519c-.125.41-.255.816-.392 1.221l2.411.056c.075-.243.156-.48.231-.723l-2.25-.554z" fill="#9397BF"/><path d="M102.96 66.97c-.18.573-.367 1.147-.56 1.72l2.418.056c.13-.405.268-.816.392-1.221l-2.25-.555z" fill="#92A3C1"/><path d="M100.704 66.415a68.022 68.022 0 01-.741 2.219l2.43.056c.193-.573.38-1.147.561-1.72l-2.25-.555z" fill="#91AFC3"/><path d="M98.455 65.867c-.293.91-.599 1.813-.923 2.71l2.437.057c.255-.735.505-1.47.742-2.219l-2.256-.548z" fill="#90B9C1"/><path d="M96.205 65.312a72.295 72.295 0 01-1.116 3.21l2.443.056c.324-.898.636-1.801.923-2.711l-2.25-.555z" fill="#8FC3C1"/><path d="M93.955 64.758a67.354 67.354 0 01-1.321 3.708l2.455.056a65.06 65.06 0 001.116-3.21l-2.25-.554z" fill="#8ECCBD"/><path d="M89.848 63.754a61.168 61.168 0 01-1.72 4.612l4.5.1a68.881 68.881 0 001.32-3.708l-4.1-1.004z" fill="#8ECCBD"/><path d="M89.848 63.754l-4.107-1.003a58.823 58.823 0 01-2.162 5.515l4.549.1a61.155 61.155 0 001.72-4.612z" fill="#A5CBB5"/><path d="M85.747 62.75l-4.107-1.002a53.715 53.715 0 01-2.667 6.412l4.606.106a59.508 59.508 0 002.168-5.515z" fill="#BACBAF"/><path d="M81.64 61.741l-4.106-1.01a50.374 50.374 0 01-3.247 7.317l4.692.106a54.293 54.293 0 002.662-6.413z" fill="#CAC9A6"/><path d="M77.534 60.738l-4.114-1.01a46.043 46.043 0 01-3.795 8.002l.268.225 4.394.1a50.672 50.672 0 003.246-7.317z" fill="#D9C5A0"/><path d="M73.42 59.728l-4.113-1.01a41.3 41.3 0 01-2.954 6.264l3.272 2.742a46.224 46.224 0 003.795-7.996z" fill="#E7C297"/><path d="M69.3 58.719l-4.119-1.01a37.766 37.766 0 01-2.112 4.525l3.284 2.748a41.862 41.862 0 002.948-6.263z" fill="#F3BC8F"/><path d="M65.181 57.71l-2.848-.699a34.115 34.115 0 01-1.539 3.322l2.275 1.9a38.235 38.235 0 002.112-4.524z" fill="#F3BC8F"/><path d="M62.333 57.011l-2.848-.698a32.284 32.284 0 01-.972 2.113l2.281 1.913a34.9 34.9 0 001.54-3.328z" fill="#E5B29B"/><path d="M59.485 56.313l-2.854-.698c-.13.3-.268.598-.405.891l2.293 1.92a37.56 37.56 0 00.966-2.113z" fill="#D5A7A4"/><path d="M56.625 55.615l-2.075-.511 1.67 1.402c.143-.299.28-.592.405-.891z" fill="#C69DAA"/></svg>