<svg width="330" height="539" fill="none" xmlns="http://www.w3.org/2000/svg"><path d="M253.248 40.23l-28.805 49.893-48.319 83.69c-7.616 2.041-16.161 5.691-23.777 7.732-15.232 4.081-30.804 6.893-45.106 9.365-6.687.431-11.673 7.209-10.902 15.165.432 6.687 7.209 11.673 15.165 10.901 15.572-2.812 32.414-5.964 47.645-10.045 30.464-8.163 58.638-19.793 81.394-31.333l-20.011 42.094-53.311 14.285c-7.616 2.041-11.333 8.478-9.292 16.094 2.041 7.616 8.478 11.333 16.094 9.292l33.002-8.843-22.458 48.192-156.14-110.533-1.949-2.198c-1.61-.93-1.61-.93-1.95-2.199-2.38-8.885 34.066-40.418 112.763-61.505a336.637 336.637 0 0150.524-9.456c6.686-.431 11.673-7.209 10.901-15.165-.431-6.687-7.209-11.673-15.165-10.902-17.181 1.883-35.292 5.375-53.062 10.137-71.082 19.046-141.55 55.614-131.347 93.693 1.701 6.347 6.28 13.283 12.718 16.999L178.336 324.23l42.174 157.395c2.04 7.616 8.478 11.333 16.094 9.293 6.346-1.701 11.333-8.479 9.292-16.095 29.534-6.553 49.005-4.968 55.443-1.251-4.986 6.778-25.793 20.516-61.334 30.039-35.541 9.523-60.429 8.029-68.136 4.652 3.127-3.559 8.454-9.067 23.005-15.687 6.007-2.97 9.383-10.677 6.073-17.953-4.239-5.666-11.606-7.774-17.612-4.804-37.308 18.16-40.843 35.432-37.782 46.856 7.143 26.656 55.899 25.835 101.594 13.591 45.696-12.244 88.33-35.912 81.188-62.567-6.462-24.117-47.603-25.338-88.901-16.993l-35.712-133.278 82.99-182.77.589-2.879c.589-2.879 2.448-6.097 3.037-8.976.249-4.148.838-7.027-.182-10.835-2.381-8.885-10.859-20.218-32.62-25.27l18.584-32.19c3.717-6.437 1.676-14.053-4.762-17.77-6.437-3.716-14.393-2.945-18.11 3.493zm10.592 80.15l-.929 1.609c-5.575 9.657-21.305 22.034-46.6 34.254l27.876-48.283c14.394 2.945 20.831 6.662 21.512 9.201l-1.859 3.219zM279.357.584c-7.616 2.04-11.333 8.478-9.292 16.094 2.04 7.616 8.478 11.333 16.094 9.292 7.616-2.04 11.333-8.478 9.292-16.094-2.041-7.616-8.478-11.333-16.094-9.292z" fill="url(#paint0_linear_128:47541)"/><defs><linearGradient id="paint0_linear_128:47541" x1="131.481" y1="40.207" x2="131.481" y2="569" gradientUnits="userSpaceOnUse"><stop stop-color="#184670"/><stop offset="1" stop-color="#184670" stop-opacity="0"/></linearGradient></defs></svg>