<svg width="368" height="534" viewBox="0 0 368 534" fill="none" xmlns="http://www.w3.org/2000/svg">
<path d="M347.406 201.016C347.295 201.016 347.183 201.053 347.072 201.053C314.917 206.451 282.762 211.848 250.905 217.283C246.886 217.953 242.867 218.66 238.81 219.33C235.87 219.814 232.93 220.335 230.027 220.819C228.836 221.042 227.608 221.229 226.417 221.452C223.924 221.861 221.393 222.308 218.9 222.718C216.741 223.09 214.62 223.462 212.461 223.834C210.638 224.132 208.814 224.467 206.991 224.765C202.822 225.472 198.654 226.179 194.523 226.887C189.834 227.706 185.145 228.487 180.493 229.306C139.964 236.267 100.106 243.117 61.4015 249.817C61.2898 249.705 61.2154 249.556 61.1038 249.482C58.6847 222.829 57.2705 208.275 54.4793 181.212C102.079 174.996 147.37 169.114 190.839 163.605C210.712 161.074 230.213 158.617 249.342 156.198C286.037 151.582 321.504 147.227 355.966 143.057C356.078 147.115 356.152 150.837 356.227 154.374C356.227 154.597 356.227 154.783 356.227 155.006C356.227 155.341 356.227 155.676 356.264 155.974C356.264 156.235 356.264 156.533 356.301 156.793C356.301 157.128 356.301 157.463 356.338 157.835C356.338 158.022 356.338 158.208 356.338 158.394C356.338 158.803 356.376 159.176 356.376 159.548C356.376 159.697 356.376 159.808 356.376 159.92C356.376 160.367 356.413 160.813 356.413 161.223C356.413 161.297 356.413 161.372 356.413 161.483C356.413 161.967 356.45 162.451 356.45 162.935V162.972C356.45 163.494 356.487 163.977 356.487 164.499C356.487 164.648 356.487 164.796 356.487 164.945C356.487 165.355 356.524 165.764 356.524 166.174C356.524 166.211 356.524 166.248 356.524 166.248C356.562 167.253 356.562 168.258 356.599 169.301C356.599 169.487 356.599 169.673 356.599 169.822C356.785 178.346 356.971 186.796 357.194 197.703C357.194 198.261 357.232 198.82 357.232 199.415C353.919 199.936 350.681 200.495 347.406 201.016ZM344.02 218.4C344.02 218.697 343.983 218.958 343.983 219.218C341.936 263.292 336.502 379.656 336.391 466.612C306.246 471.637 278.259 477.146 248.672 483.958C248.598 483.996 248.524 483.996 248.412 484.033C248.3 484.07 248.189 484.07 248.077 484.107C247.37 484.256 246.774 484.703 246.402 485.261C239.331 487.569 204.981 496.391 195.751 498.29C195.677 498.215 195.602 498.141 195.491 498.067C194.97 497.657 194.337 497.471 193.704 497.471C193.63 497.471 193.593 497.508 193.518 497.508C193.556 497.955 193.593 498.439 193.63 498.885C193.593 498.439 193.556 497.955 193.518 497.508C193.369 497.508 193.221 497.545 193.035 497.583C186.857 499.146 180.604 500.747 174.24 502.385C149.12 508.824 123.143 515.45 92.4396 522.709C91.6953 513.291 71.0777 331.636 64.4532 273.306C63.1879 262.101 62.4063 255.438 62.4063 255.438C100.888 248.812 140.486 241.963 180.79 235.076C185.629 234.257 190.467 233.438 195.305 232.582C204.981 230.944 214.731 229.269 224.482 227.594C229.357 226.775 234.233 225.919 239.145 225.1C274.017 219.181 309.223 213.225 344.541 207.307C344.392 209.875 344.243 213.747 344.02 218.4ZM76.7345 514.855C69.9612 510.76 63.3367 506.777 56.7123 502.868C56.6751 502.831 56.6378 502.831 56.6006 502.794C56.5634 502.757 56.5262 502.757 56.489 502.72C56.0052 502.459 55.5586 502.161 55.0748 501.901C54.9259 501.826 54.777 501.715 54.6282 501.64C53.3628 500.896 52.0975 500.151 50.8322 499.407C50.6833 499.332 50.5344 499.22 50.3856 499.146C49.1574 498.439 47.9293 497.694 46.664 496.987C46.664 496.987 46.6267 496.987 46.6267 496.95C45.4358 496.243 44.2077 495.535 42.9796 494.828C39.258 492.669 35.4247 490.473 31.4054 488.165C31.331 488.128 31.2565 488.053 31.1449 488.016C30.5122 487.644 29.8795 487.271 29.2096 486.899C28.7631 486.639 28.3165 486.378 27.8699 486.155C27.6466 486.043 27.4605 485.894 27.2372 485.782C26.679 485.485 26.1207 485.15 25.5997 484.852C24.2599 484.07 22.8829 483.326 21.5432 482.544C20.65 482.023 19.7568 481.539 18.8636 481.018C12.9835 477.668 6.95447 474.243 0.66497 470.632C-0.228214 464.23 -1.1214 457.864 -2.0518 451.61C-3.50322 441.783 -5.0663 432.142 -6.62937 422.613C-6.96432 420.565 -7.29926 418.518 -7.67142 416.471C-7.96915 414.609 -8.30409 412.785 -8.63903 410.961C-10.3138 401.283 -12.0629 391.754 -13.8493 382.261C-13.8865 382.001 -13.9609 381.74 -13.9981 381.48C-14.668 377.943 -15.3379 374.407 -16.0078 370.908C-17.0871 365.25 -18.2035 359.629 -19.32 353.971C-19.8038 351.514 -20.2876 349.057 -20.8087 346.6C-21.0692 345.298 -21.3297 344.032 -21.5902 342.729C-22.7439 337.108 -23.8976 331.487 -25.0513 325.866C-25.3862 324.229 -25.7212 322.591 -26.0561 320.953C-26.0933 320.692 -26.1678 320.469 -26.205 320.208C-26.9865 316.449 -27.7681 312.689 -28.5496 308.929C-29.3311 305.17 -30.1127 301.373 -30.9314 297.613C-31.0803 296.869 -31.2664 296.087 -31.4152 295.342C-32.0479 292.327 -32.6806 289.275 -33.3505 286.222C-34.5042 280.788 -35.6579 275.278 -36.8116 269.732C-37.7792 265.153 -38.7468 260.538 -39.7144 255.885C-40.5331 251.976 -41.3519 248.067 -42.1707 244.122C-42.4312 242.856 -42.6917 241.628 -42.9522 240.362C-43.8826 235.783 -44.813 231.205 -45.7806 226.589C-45.9295 225.956 -46.0411 225.286 -46.19 224.653C-46.2272 224.504 -46.2644 224.393 -46.3016 224.244C-46.3388 224.095 -46.4133 223.983 -46.4877 223.872C-46.711 222.755 -46.8971 221.675 -47.1204 220.67C-47.3065 219.628 -47.4925 218.623 -47.6786 217.655C-43.2127 219.218 -38.9329 220.707 -34.8019 222.159C-32.3084 223.015 -29.8894 223.872 -27.5075 224.728C-25.9073 225.286 -24.3442 225.844 -22.7811 226.403C-21.9996 226.663 -21.218 226.961 -20.4365 227.222C-18.0919 228.041 -15.8217 228.86 -13.5143 229.679C-11.9885 230.237 -10.4626 230.758 -8.93676 231.316L-8.82511 231.354C-7.11318 231.949 -5.43845 232.582 -3.72652 233.178C-3.24271 233.364 -2.75891 233.513 -2.2751 233.699C-0.600381 234.294 1.07434 234.89 2.74906 235.523C2.89793 235.56 3.00958 235.634 3.15844 235.672C4.83316 236.267 6.5451 236.9 8.25703 237.533C8.48033 237.607 8.70363 237.682 8.96414 237.793C9.18744 237.868 9.41073 237.98 9.67124 238.054C11.4576 238.724 13.244 239.357 15.1048 240.027C17.8588 241.032 20.65 242.074 23.5156 243.117C33.4895 246.802 44.2821 250.785 56.6378 255.401L73.8316 408.914L74.4271 414.125L75.097 420.044L81.7587 479.566L82.9496 490.324L86.3362 520.662C83.1356 518.726 79.9351 516.79 76.7345 514.855ZM-57.9875 208.051C-59.1784 207.642 -60.3693 207.232 -61.5602 206.786C-64.6863 186.573 -66.4355 175.517 -69.6733 155.937C-52.74 159.362 -38.7468 162.228 -25.4607 165.02C-13.8493 167.439 -2.72169 169.822 9.29908 172.427C21.0593 174.996 33.75 177.751 48.7481 181.063C51.502 208.126 52.9162 222.68 55.2981 248.849C43.3145 244.382 32.7824 240.474 23.0318 236.863C20.3522 235.895 17.7471 234.927 15.1792 233.997C13.9139 233.55 12.6857 233.066 11.4204 232.619C11.0482 232.47 10.6761 232.359 10.3039 232.21C9.44794 231.912 8.55476 231.577 7.69879 231.279C7.2522 231.13 6.80561 230.944 6.35902 230.795C5.50305 230.497 4.64708 230.162 3.79111 229.865C3.41895 229.716 3.04679 229.604 2.67463 229.455C1.55815 229.046 0.441668 228.636 -0.674812 228.264C-1.27027 228.041 -1.86573 227.817 -2.46118 227.631C-3.01942 227.445 -3.57765 227.222 -4.13589 227.036C-4.80578 226.775 -5.47567 226.552 -6.18278 226.291C-6.62937 226.142 -7.07596 225.956 -7.52255 225.807C-9.495 225.1 -11.4674 224.393 -13.4771 223.685C-14.7425 223.239 -16.0078 222.792 -17.2731 222.345C-29.5544 217.953 -42.5428 213.411 -57.9875 208.051ZM-49.5394 152.512C-46.4133 152.177 -43.3243 151.805 -40.2726 151.47C-37.407 151.135 -34.5414 150.837 -31.713 150.502C-29.1823 150.204 -26.6888 149.944 -24.1953 149.646C-21.7391 149.386 -19.32 149.088 -16.8638 148.827C-14.4447 148.567 -12.0257 148.306 -9.60665 148.008C-7.18761 147.748 -4.80578 147.487 -2.38674 147.189C0.0322986 146.929 2.41412 146.668 4.79594 146.408C7.21498 146.147 9.59681 145.886 11.9786 145.626C15.2536 145.254 18.4914 144.919 21.7292 144.546C25.0042 144.174 28.242 143.839 31.4426 143.467C34.7176 143.095 37.9554 142.76 41.156 142.387C44.3938 142.015 47.6688 141.68 50.8694 141.308C54.1072 140.936 57.3449 140.601 60.5827 140.228C63.8205 139.856 67.0583 139.521 70.2961 139.186C70.8916 139.112 71.5242 139.037 72.1197 139C74.762 138.702 77.4044 138.442 80.0095 138.144C80.1211 138.144 80.27 138.107 80.3817 138.107C80.791 138.069 81.2004 138.032 81.647 137.958C83.9916 137.697 86.299 137.436 88.6064 137.213C88.6436 137.213 88.6808 137.213 88.718 137.213C89.053 137.176 89.3879 137.139 89.6857 137.101C90.3555 137.288 91.0627 137.511 91.7325 137.697C92.5885 137.958 93.4445 138.181 94.3377 138.442C96.1985 138.963 98.0593 139.484 99.9573 140.005C101.111 140.303 102.265 140.638 103.418 140.936C105.279 141.419 107.177 141.903 109.075 142.387C111.122 142.908 113.169 143.392 115.253 143.914C115.365 143.914 115.439 143.876 115.551 143.876C116.183 143.802 116.742 143.727 117.188 143.653C116.742 143.727 116.183 143.765 115.551 143.876C115.476 143.876 115.365 143.914 115.29 143.914C115.29 143.914 115.29 143.914 115.253 143.914C116.481 144.211 117.709 144.509 118.975 144.807C120.501 145.179 122.026 145.514 123.589 145.849C124.557 146.073 125.562 146.296 126.529 146.519C127.795 146.817 129.097 147.078 130.363 147.375C130.474 147.413 130.549 147.413 130.66 147.413C132.149 147.562 133.526 147.71 134.866 147.822C135.945 147.934 136.913 148.008 137.88 148.045C138.104 148.045 138.327 148.083 138.55 148.083C139.704 148.157 140.746 148.194 141.751 148.232C142.235 148.232 142.718 148.269 143.165 148.269C143.612 148.269 144.021 148.269 144.43 148.269C144.84 148.306 145.249 148.343 145.696 148.343C146.998 148.418 148.375 148.455 149.901 148.455C150.571 148.455 151.315 148.455 152.022 148.418H152.06C152.097 148.418 152.097 148.418 152.134 148.418C152.209 148.418 152.32 148.418 152.395 148.38C152.432 148.38 152.469 148.38 152.506 148.38C152.618 148.343 152.767 148.306 152.878 148.269C152.878 148.269 152.878 148.269 152.916 148.269C152.99 148.232 153.102 148.194 153.176 148.157C155.149 147.226 158.238 145.738 162.182 143.727C163.336 143.132 164.601 142.499 165.904 141.829C169.03 140.228 172.528 138.367 176.325 136.283C177.367 135.724 178.409 135.129 179.451 134.57C181.832 133.267 184.289 131.853 186.819 130.401C188.01 129.694 189.238 128.987 190.467 128.279C191.806 128.391 193.146 128.503 194.449 128.577C197.128 128.8 199.771 128.987 202.339 129.21C205.018 129.433 207.66 129.619 210.228 129.843C212.908 130.066 215.55 130.252 218.118 130.476C219.309 130.587 220.5 130.662 221.691 130.773C223.142 130.885 224.594 130.997 226.008 131.108C227.683 131.257 229.357 131.369 230.995 131.518C231.962 131.592 232.893 131.667 233.86 131.741C234.419 131.778 234.977 131.816 235.535 131.89C237.024 132.002 238.512 132.151 240.001 132.262C240.597 132.3 241.155 132.374 241.713 132.411H241.75C242.346 132.448 242.941 132.523 243.499 132.56C244.988 132.672 246.514 132.821 248.003 132.932C248.226 132.97 248.486 132.97 248.747 133.007C250.459 133.156 252.171 133.305 253.883 133.416C254.032 133.416 254.143 133.453 254.292 133.453C256.413 133.64 258.497 133.788 260.544 133.975C261.698 134.086 262.852 134.161 263.968 134.272C264.936 134.347 265.866 134.421 266.797 134.496C268.062 134.607 269.365 134.719 270.63 134.831C271.449 134.905 272.267 134.98 273.086 135.054C274.463 135.166 275.877 135.277 277.254 135.426C277.961 135.501 278.631 135.538 279.338 135.612C281.423 135.799 283.507 135.985 285.591 136.171C287.6 136.357 289.61 136.506 291.62 136.692C293.629 136.878 295.639 137.027 297.649 137.213C299.658 137.399 301.631 137.585 303.678 137.734C305.65 137.92 307.66 138.107 309.669 138.255C311.642 138.442 313.652 138.628 315.661 138.777C317.634 138.963 319.643 139.149 321.653 139.335C323.625 139.521 325.635 139.707 327.645 139.893C329.022 140.005 330.362 140.154 331.776 140.266C330.436 140.414 329.059 140.601 327.719 140.749C325.747 141.01 323.774 141.233 321.765 141.494C319.792 141.755 317.783 141.978 315.81 142.238C313.838 142.499 311.865 142.722 309.855 142.983C307.883 143.243 305.873 143.467 303.901 143.727C301.929 143.988 299.956 144.211 297.946 144.472C295.974 144.732 293.964 144.956 291.992 145.216C290.019 145.477 288.047 145.7 286.037 145.961C283.99 146.221 281.906 146.482 279.859 146.743C277.813 147.003 275.728 147.264 273.682 147.524C271.635 147.785 269.551 148.045 267.504 148.306C265.457 148.567 263.373 148.827 261.326 149.088C259.279 149.348 257.195 149.609 255.148 149.869C253.101 150.13 251.017 150.391 248.97 150.651C246.923 150.912 244.839 151.172 242.792 151.433C241.75 151.582 240.708 151.693 239.666 151.842C238.14 152.028 236.577 152.215 235.051 152.438C232.483 152.773 229.878 153.071 227.273 153.406C224.705 153.741 222.1 154.076 219.495 154.374C216.927 154.709 214.322 155.044 211.717 155.341C209.149 155.676 206.544 156.011 203.939 156.346C201.334 156.682 198.766 157.017 196.161 157.352C193.853 157.649 191.546 157.947 189.238 158.245C188.941 158.282 188.68 158.319 188.383 158.357C186.224 158.617 184.103 158.915 181.944 159.176C181.498 159.213 181.051 159.287 180.604 159.362C175.878 159.957 171.151 160.553 166.425 161.186C161.699 161.781 156.972 162.377 152.246 163.01C147.519 163.605 142.793 164.238 138.029 164.834C133.303 165.429 128.539 166.062 123.776 166.658C119.012 167.253 114.248 167.886 109.485 168.519C104.721 169.152 99.9573 169.747 95.1192 170.38C90.3183 171.013 85.5175 171.646 80.6794 172.241C77.3672 172.688 74.0177 173.097 70.6683 173.544C67.3188 173.991 63.9694 174.438 60.5827 174.847C57.531 175.256 54.5165 175.629 51.4276 176.038C51.0927 175.964 50.7949 175.889 50.4972 175.815C47.2222 175.07 44.0588 174.4 40.9699 173.693C37.6949 172.986 34.5315 172.279 31.4426 171.608C28.1676 170.901 25.0042 170.194 21.9153 169.524C20.4267 169.189 18.9752 168.891 17.5238 168.556C15.7747 168.184 14.0627 167.812 12.3508 167.439C11.0482 167.142 9.74568 166.881 8.44312 166.583C7.40107 166.36 6.35902 166.136 5.31697 165.913C3.41895 165.504 1.55815 165.094 -0.30265 164.685C-0.786458 164.573 -1.23305 164.499 -1.67964 164.387C-4.02425 163.866 -6.40607 163.382 -8.71346 162.898C-10.1649 162.6 -11.6535 162.265 -13.105 161.967C-13.9981 161.781 -14.8913 161.595 -15.7473 161.409C-16.2683 161.297 -16.8266 161.186 -17.3476 161.074C-19.1712 160.702 -20.9575 160.329 -22.7811 159.92C-25.1257 159.436 -27.4703 158.952 -29.8522 158.431C-32.234 157.947 -34.6158 157.426 -37.0348 156.942C-41.3519 156.049 -45.8178 155.118 -50.507 154.187C-51.9212 153.89 -53.3355 153.592 -54.7869 153.294C-53.0749 152.922 -51.2886 152.736 -49.5394 152.512ZM34.1222 109.742C33.0057 109.183 31.9264 108.625 30.8472 108.029C30.8472 108.029 30.8099 108.029 30.8099 107.992C29.2096 107.136 27.6838 106.317 26.1952 105.461C24.7065 104.605 23.2923 103.786 21.8781 102.929C21.8409 102.892 21.7664 102.855 21.7292 102.818C20.3522 101.999 19.0497 101.18 17.7843 100.361C16.519 99.542 15.2909 98.7231 14.1372 97.9042C14.0627 97.8669 13.9883 97.7925 13.9511 97.7553C13.2068 97.2341 12.4997 96.713 11.7925 96.1918C11.7553 96.1546 11.6809 96.1174 11.6437 96.0802C10.2295 95.0379 8.8897 93.9956 7.62436 92.9905C7.54993 92.9533 7.47549 92.8789 7.40106 92.8044C6.80561 92.3205 6.21015 91.8366 5.65191 91.3527C5.57748 91.2782 5.50305 91.2038 5.42862 91.1665C4.87038 90.6826 4.31214 90.1987 3.79111 89.6776L3.7539 89.6404C3.23287 89.1564 2.71185 88.6725 2.22804 88.1886C2.19083 88.1514 2.11639 88.0769 2.07918 88.0397C1.59537 87.5558 1.14877 87.1091 0.702179 86.6624C0.627747 86.5879 0.553321 86.5135 0.478889 86.439C0.0322974 85.9924 -0.377077 85.5457 -0.749237 85.0617C-0.786453 84.9873 -0.860886 84.9501 -0.898102 84.8756C-1.27026 84.4289 -1.64242 83.9822 -2.01458 83.5728C-2.0518 83.5355 -2.08901 83.4983 -2.12623 83.4611C-2.49839 83.0144 -2.83334 82.5677 -3.16828 82.1582C-3.24271 82.0838 -3.27993 82.0093 -3.35436 81.8977C-3.65209 81.4882 -3.94982 81.0415 -4.24754 80.632C-4.28476 80.5576 -4.35919 80.4831 -4.39641 80.4087C-4.69414 79.962 -4.95464 79.5525 -5.21516 79.1058C-5.40124 78.7708 -5.58732 78.473 -5.7734 78.1752C-6.10834 77.5424 -6.40607 76.9468 -6.66658 76.3512C-7.29925 74.8623 -7.67142 73.485 -7.74585 72.2938C-7.55977 72.2938 -7.37369 72.2565 -7.15039 72.2193C-6.92709 72.2193 -6.7038 72.1821 -6.4805 72.1821C-5.5501 72.1077 -4.6197 72.0332 -3.6893 71.996C-2.42396 71.9215 -1.1214 71.8843 0.143944 71.8471C1.40929 71.8099 2.67464 71.8099 3.93998 71.8099C5.838 71.8471 7.69879 71.9215 9.55959 72.0332C14.2116 72.331 18.8264 73.001 23.404 73.9316C24.3344 74.1178 25.2275 74.3411 26.1579 74.5645C26.4184 74.6389 26.7162 74.7134 27.0139 74.7878C27.3116 74.8623 27.5721 74.9367 27.8699 75.0111C28.0187 75.0484 28.2048 75.0856 28.3909 75.1601C28.7631 75.2717 29.1352 75.3462 29.5074 75.4578C29.5818 75.4578 29.619 75.4951 29.6935 75.4951C29.6935 75.4951 29.6935 75.4951 29.7307 75.4951C29.8423 75.5323 29.9168 75.5323 30.0284 75.5695C30.3261 78.7336 31.517 81.8977 33.229 84.9873C33.8244 86.0296 34.4571 87.0346 35.1642 88.0397C35.9457 89.1564 36.8017 90.2732 37.7321 91.3899C40.6722 94.9262 44.1333 98.2392 47.6688 101.217C47.7432 101.292 47.8177 101.329 47.8549 101.366C48.3387 101.776 48.8225 102.148 49.3063 102.557C50.1623 103.227 50.981 103.897 51.837 104.53C52.0231 104.679 52.1719 104.791 52.358 104.94C54.6282 106.652 56.8239 108.215 58.7964 109.518C59.764 110.188 60.7688 110.821 61.7737 111.454C62.0342 111.64 62.3319 111.789 62.5924 111.975C63.4484 112.533 64.3043 113.054 65.1975 113.576C65.3836 113.687 65.5697 113.799 65.7186 113.911C66.7234 114.543 67.7654 115.139 68.8075 115.735C69.1052 115.884 69.3657 116.07 69.6635 116.219C70.4822 116.702 71.301 117.149 72.1569 117.596C72.4546 117.745 72.7152 117.931 73.0129 118.08C74.0549 118.638 75.097 119.197 76.1763 119.755C76.474 119.904 76.7717 120.053 77.0322 120.202C77.851 120.611 78.6697 121.058 79.5257 121.467C79.8979 121.653 80.27 121.839 80.6049 121.988C81.647 122.509 82.7263 123.031 83.8055 123.515C84.066 123.626 84.3266 123.738 84.5871 123.85C85.443 124.259 86.3362 124.631 87.1922 125.041C87.6016 125.227 88.0109 125.413 88.4203 125.599C89.2763 125.971 90.095 126.344 90.951 126.679C91.2487 126.828 91.5837 126.939 91.8814 127.088C92.9234 127.535 94.0027 127.944 95.0448 128.354C95.4913 128.54 95.9007 128.689 96.3473 128.875C97.1289 129.173 97.8732 129.47 98.6547 129.768C99.0641 129.917 99.4363 130.066 99.8456 130.215C100.404 130.438 100.962 130.624 101.52 130.811C103.232 131.406 104.944 132.002 106.656 132.56C106.768 132.597 106.879 132.635 106.991 132.672C107.363 132.783 107.698 132.895 108.033 133.007C109.782 133.565 111.531 134.086 113.281 134.57C115.29 135.129 117.3 135.687 119.272 136.171C119.942 136.841 120.575 137.511 121.208 138.181C121.356 138.33 121.505 138.479 121.654 138.665C122.026 139.037 122.361 139.409 122.733 139.782C117.858 138.665 113.095 137.511 108.517 136.32C107.438 136.022 106.321 135.761 105.242 135.464C102.935 134.868 100.702 134.235 98.5059 133.64C95.7519 132.895 93.0723 132.113 90.4672 131.332C88.718 130.811 87.0061 130.289 85.3314 129.768C64.5276 123.44 47.5944 116.591 34.1222 109.742ZM110.936 128.019C93.705 122.696 75.9529 114.357 61.8109 104.828C47.5571 95.224 38.3276 85.3595 36.0574 77.5052C59.6523 85.5457 84.2521 102.111 110.936 128.019ZM37.4716 45.6039C37.546 45.6039 37.6205 45.6039 37.6949 45.6039C38.5509 45.6411 39.4441 45.6783 40.3745 45.79C43.5378 46.0878 47.0361 46.7206 50.7205 47.614C51.0182 47.6884 51.2787 47.7629 51.5765 47.8373C51.6509 47.8373 51.7253 47.8746 51.7998 47.8746C52.7302 48.1351 53.6606 48.3957 54.6282 48.6563C56.5262 49.2146 58.4242 49.8475 60.3967 50.5175C61.3643 50.8525 62.3319 51.2248 63.2995 51.597C68.1748 53.4954 73.1618 55.7661 78.1115 58.3718C84.0288 61.5359 89.909 65.1839 95.5286 69.2414C97.3894 70.6187 99.2502 71.996 101.037 73.4477C102.823 74.8995 104.609 76.3885 106.321 77.9519C108.033 79.4781 109.708 81.0787 111.308 82.6794C112.127 83.4983 112.908 84.3173 113.69 85.1362C121.468 93.4372 127.795 102.706 131.628 112.571C131.703 112.906 131.814 113.278 131.926 113.687V113.725C131.963 113.911 132.037 114.097 132.075 114.32C132.075 114.357 132.075 114.395 132.112 114.432C132.149 114.618 132.224 114.804 132.261 114.99L132.298 115.139C132.335 115.325 132.41 115.511 132.447 115.697C132.447 115.772 132.484 115.809 132.484 115.884C132.521 116.07 132.559 116.256 132.633 116.442C132.67 116.516 132.67 116.591 132.707 116.665C132.745 116.851 132.819 117.038 132.856 117.261C132.893 117.335 132.893 117.41 132.931 117.484C132.968 117.67 133.042 117.894 133.08 118.117C133.117 118.191 133.117 118.303 133.154 118.378C133.191 118.601 133.266 118.787 133.303 119.01C133.34 119.085 133.34 119.197 133.377 119.271C133.414 119.494 133.489 119.718 133.526 119.941C133.563 120.015 133.563 120.127 133.563 120.202C133.601 120.425 133.675 120.686 133.712 120.946C133.712 121.021 133.749 121.095 133.749 121.169C133.787 121.43 133.861 121.691 133.898 121.951C133.898 122.026 133.936 122.1 133.936 122.174C134.01 122.472 134.047 122.77 134.122 123.068C134.122 123.105 134.122 123.142 134.159 123.217C134.531 125.152 134.903 127.163 135.201 129.247V129.284C135.201 129.322 135.201 129.396 135.238 129.433C135.834 133.751 136.206 138.218 135.945 142.052C134.829 141.941 133.675 141.866 132.41 141.717C132.372 141.68 132.372 141.68 132.335 141.643C132.298 141.606 132.261 141.568 132.224 141.531C131.963 141.233 131.665 140.936 131.405 140.675C131.33 140.563 131.219 140.489 131.144 140.377C130.884 140.079 130.586 139.782 130.326 139.484C129.953 139.074 129.581 138.702 129.209 138.293C129.097 138.181 128.986 138.032 128.874 137.92C128.539 137.548 128.167 137.176 127.832 136.804C127.274 136.208 126.716 135.65 126.157 135.054C125.86 134.756 125.599 134.459 125.301 134.161L125.264 134.124C125.19 134.049 125.152 133.975 125.078 133.937C124.445 133.305 123.813 132.635 123.18 132.002C123.031 131.853 122.882 131.704 122.733 131.518C122.51 131.294 122.324 131.108 122.101 130.885C121.17 129.954 120.277 129.024 119.347 128.093C112.685 121.43 106.135 115.325 99.6968 109.779C99.6595 109.742 99.6223 109.704 99.5851 109.667C98.8036 108.997 97.9848 108.327 97.2033 107.657C97.0544 107.545 96.9056 107.396 96.7567 107.285C96.0496 106.689 95.3053 106.094 94.5982 105.498C94.3749 105.312 94.1888 105.163 93.9655 104.977C93.2956 104.418 92.6257 103.86 91.9558 103.339C91.6953 103.116 91.4348 102.929 91.1743 102.706C90.5416 102.185 89.9089 101.701 89.2763 101.18C88.9785 100.957 88.6808 100.733 88.4203 100.51C87.8249 100.026 87.1922 99.5793 86.5967 99.0953C86.299 98.872 85.9641 98.6114 85.6663 98.3881C85.0709 97.9414 84.4754 97.4947 83.88 97.048C83.545 96.7874 83.2101 96.5641 82.8751 96.3035C82.3169 95.894 81.7214 95.4846 81.1632 95.0751C80.8282 94.8145 80.4561 94.5912 80.1211 94.3306C79.5629 93.9212 79.0047 93.5489 78.4464 93.1767C78.0743 92.9161 77.7393 92.6927 77.3672 92.4322C76.8089 92.0599 76.2879 91.6877 75.7297 91.3154C75.3575 91.0549 74.9853 90.8315 74.6132 90.571C74.0922 90.2359 73.5711 89.8637 73.0129 89.5287C72.6407 89.2681 72.2686 89.0448 71.8592 88.7842C71.3382 88.4492 70.8171 88.1141 70.3333 87.8164C69.9612 87.5558 69.5518 87.3324 69.1796 87.0719C68.6586 86.7741 68.1748 86.4391 67.6538 86.1413C67.2444 85.9179 66.8723 85.6573 66.4629 85.434C65.9791 85.1362 65.458 84.8384 64.9742 84.5406C64.5649 84.3172 64.1555 84.0567 63.7461 83.8333C63.2623 83.5728 62.7785 83.275 62.2947 83.0144C61.8853 82.7911 61.4759 82.5677 61.0666 82.3444C60.5828 82.0838 60.0989 81.8232 59.6523 81.5626C59.243 81.3393 58.8336 81.116 58.387 80.8926C57.9404 80.632 57.4566 80.4087 57.01 80.1481C56.6006 79.9248 56.154 79.7014 55.7447 79.5153C55.2981 79.292 54.8515 79.0686 54.3677 78.8453C53.9211 78.6219 53.5117 78.4358 53.0651 78.2124C52.6185 77.9891 52.1719 77.803 51.7253 77.5796C51.2787 77.3563 50.8321 77.1702 50.3856 76.984C49.939 76.7979 49.5296 76.5746 49.083 76.3885C48.6364 76.2023 48.1898 75.979 47.7432 75.7929C47.3338 75.6067 46.8873 75.4206 46.4779 75.2345C46.0313 75.0484 45.5475 74.8623 45.1009 74.6761C44.6915 74.5272 44.2821 74.3411 43.8728 74.1922C43.3889 74.0061 42.9051 73.82 42.4213 73.6339C42.0492 73.485 41.6398 73.3361 41.2676 73.1872C40.7466 73.001 40.2628 72.8149 39.7418 72.6288C39.3696 72.5171 39.0347 72.3682 38.6625 72.2565C38.1043 72.0704 37.546 71.8843 36.9878 71.6982C36.6901 71.5865 36.3923 71.4748 36.0574 71.4004C35.2014 71.1398 34.3827 70.8792 33.5267 70.6187C33.4895 70.6187 33.4895 70.6187 33.4523 70.5815C33.4151 70.5815 33.4151 70.5814 33.3778 70.5442C31.9264 70.0975 30.5122 69.7253 29.1352 69.353C28.5398 69.2041 27.9443 69.0552 27.3488 68.9063C26.7534 68.7575 26.1579 68.6086 25.5625 68.4969C25.3764 68.4597 25.1903 68.4224 25.0042 68.3852C24.5949 68.3108 24.1855 68.1991 23.7761 68.1246C23.5528 68.0874 23.3295 68.0502 23.1434 68.013C22.7341 67.9385 22.3247 67.8641 21.9525 67.7896C21.7292 67.7524 21.5432 67.7152 21.3199 67.6779C20.8733 67.6035 20.4267 67.5291 20.0173 67.4546C19.8684 67.4174 19.6823 67.4174 19.5335 67.3801C18.3054 67.194 17.1144 67.0079 15.8863 66.859C15.7375 66.8218 15.5514 66.8218 15.4025 66.7846C14.9559 66.7473 14.5093 66.6729 14.0627 66.6357C13.8766 66.5984 13.6906 66.5984 13.5045 66.5612C13.0579 66.524 12.6485 66.4868 12.2019 66.4495C12.0159 66.4495 11.8298 66.4123 11.6437 66.4123C11.1599 66.3751 10.6761 66.3379 10.1923 66.3006C10.0806 66.3006 9.93175 66.2634 9.82011 66.2634C9.18743 66.2262 8.55476 66.189 7.92209 66.1517C7.88487 66.1517 7.88487 66.1517 7.84766 66.1517C7.2522 66.1145 6.65674 66.1145 6.0985 66.0773C5.91242 66.0773 5.72635 66.0773 5.57748 66.0773C5.13089 66.0773 4.72151 66.0401 4.27492 66.0401C4.05162 66.0401 3.86555 66.0401 3.64225 66.0401C3.41895 66.0401 3.19565 66.0401 2.93514 66.0401C2.74906 66.0401 2.6002 66.0401 2.41412 66.0401C2.19083 66.0401 1.96753 66.0401 1.70702 66.0401C1.59537 66.0401 1.52093 66.0401 1.40929 66.0401C14.807 58.3346 33.229 47.6884 37.4716 45.6039ZM137.769 113.278C138.699 76.6863 155 47.279 170.965 30.3791C173.236 27.9595 175.506 25.8005 177.739 23.9021C178.148 23.5298 178.595 23.1948 179.004 22.8225C179.451 22.4875 179.86 22.1525 180.307 21.8175C189.834 14.3726 199.398 10.7246 206.879 11.6924C219.681 13.8142 246.03 20.6263 260.582 24.4976C260.656 24.4976 260.73 24.5349 260.805 24.5349H260.768C259.949 24.8327 259.13 25.1305 258.311 25.4283C258.125 25.5027 257.902 25.5771 257.716 25.6516C256.934 25.9494 256.153 26.2472 255.334 26.5822C255.297 26.5822 255.26 26.6194 255.222 26.6194C254.404 26.9545 253.585 27.2895 252.766 27.6617C252.58 27.7362 252.357 27.8478 252.134 27.9223C251.315 28.2573 250.533 28.6295 249.714 29.0018C249.677 29.0018 249.64 29.039 249.64 29.039C248.821 29.4113 248.003 29.8207 247.147 30.193C246.923 30.3046 246.737 30.3791 246.514 30.4908C245.695 30.863 244.914 31.2725 244.095 31.6819C244.058 31.6819 244.058 31.7192 244.02 31.7192C243.202 32.1286 242.383 32.5753 241.564 32.9848C241.341 33.0965 241.118 33.2082 240.932 33.3198C240.113 33.7665 239.331 34.176 238.512 34.6599C238.512 34.6599 238.512 34.6599 238.475 34.6599C238.475 34.6599 238.475 34.6599 238.438 34.6599C237.508 35.181 236.614 35.7022 235.721 36.2233C233.898 37.3028 232.074 38.4196 230.288 39.5735C228.092 40.9508 225.933 42.4398 223.775 43.966C221.468 45.6039 219.16 47.279 216.89 49.0285C216.853 49.0657 216.778 49.103 216.741 49.1402C215.625 49.9964 214.545 50.8897 213.429 51.7831C212.685 52.3787 211.94 53.0115 211.233 53.6071C210.489 54.2027 209.782 54.8355 209.075 55.4683C208.889 55.6545 208.702 55.8034 208.479 55.9895C207.958 56.4362 207.437 56.9201 206.879 57.3668C206.544 57.6646 206.246 57.9252 205.911 58.223C205.502 58.5952 205.13 58.9302 204.72 59.3025C204.311 59.6747 203.939 60.0469 203.529 60.382C203.232 60.6798 202.897 60.9403 202.599 61.2381C202.19 61.6476 201.743 62.0571 201.334 62.4665C201.073 62.7271 200.775 62.9877 200.515 63.2482C200.068 63.6949 199.622 64.1416 199.175 64.5883C198.952 64.8117 198.691 65.0722 198.468 65.2956C197.984 65.7795 197.5 66.2634 197.017 66.7473C196.831 66.9335 196.607 67.1568 196.421 67.3429C195.937 67.8641 195.416 68.3852 194.933 68.9063C194.746 69.0925 194.598 69.2786 194.411 69.4275C193.89 69.9859 193.369 70.5442 192.811 71.1398C192.662 71.2887 192.551 71.4376 192.402 71.5493C191.844 72.1449 191.285 72.7405 190.764 73.3733C190.653 73.4849 190.578 73.5966 190.467 73.7083C189.908 74.3411 189.313 74.9739 188.755 75.644C188.68 75.7184 188.606 75.8301 188.531 75.9045C187.936 76.5746 187.378 77.2446 186.819 77.9147C186.745 77.9891 186.708 78.0636 186.633 78.1008C186.075 78.7708 185.48 79.4781 184.921 80.1481C184.884 80.2226 184.81 80.2598 184.773 80.3342C184.177 81.0415 183.582 81.786 183.023 82.4933C182.986 82.5305 182.986 82.5677 182.949 82.5677C182.353 83.3122 181.758 84.0567 181.163 84.8384C181.163 84.8384 181.163 84.8384 181.125 84.8756C171.635 97.1224 163.485 110.412 157.195 124.147C157.158 124.259 157.121 124.333 157.047 124.445C156.972 124.594 156.898 124.78 156.823 124.929C156.526 125.562 156.265 126.195 155.967 126.828C155.893 126.976 155.856 127.088 155.781 127.237C155.707 127.386 155.632 127.572 155.558 127.721C155.372 128.093 155.223 128.503 155.074 128.875C155.037 128.987 154.963 129.098 154.925 129.21C154.814 129.508 154.665 129.805 154.553 130.14C154.553 130.178 154.516 130.215 154.516 130.215C154.367 130.513 154.255 130.848 154.144 131.146C154.069 131.294 153.995 131.481 153.958 131.629C153.809 131.964 153.697 132.3 153.548 132.672C153.437 132.932 153.325 133.23 153.213 133.491C153.139 133.677 153.064 133.863 152.99 134.086C152.841 134.421 152.73 134.794 152.581 135.129C152.395 135.612 152.246 136.059 152.06 136.506C151.985 136.655 151.948 136.841 151.874 136.99C151.799 137.139 151.762 137.325 151.688 137.474C151.688 137.511 151.65 137.511 151.65 137.548C151.576 137.809 151.464 138.032 151.39 138.293C151.315 138.516 151.241 138.739 151.167 138.963C151.055 139.298 150.906 139.633 150.794 139.968C150.645 140.377 150.534 140.749 150.385 141.159C150.348 141.233 150.311 141.345 150.311 141.419C150.273 141.494 150.273 141.568 150.236 141.643C150.162 141.866 150.087 142.127 149.976 142.35C149.938 142.462 149.901 142.536 149.864 142.648C149.492 142.648 149.12 142.648 148.747 142.648C148.561 142.648 148.375 142.648 148.226 142.648C147.259 142.648 146.366 142.611 145.547 142.536C145.286 142.536 144.989 142.499 144.728 142.499C144.654 142.499 144.579 142.499 144.505 142.499H144.468C144.244 142.499 144.021 142.499 143.798 142.499C143.128 142.499 142.384 142.499 141.565 142.462C141.602 141.829 141.639 141.196 141.639 140.526C141.639 140.377 141.639 140.191 141.639 140.042C141.639 139.782 141.639 139.484 141.639 139.223C141.639 139.186 141.639 139.149 141.639 139.112C141.639 138.702 141.639 138.255 141.602 137.846C141.602 137.436 141.565 136.99 141.565 136.543C141.49 134.942 141.341 133.305 141.193 131.667C141.193 131.555 141.155 131.406 141.155 131.294C141.044 130.476 140.969 129.657 140.858 128.838C140.858 128.763 140.858 128.689 140.82 128.652C140.709 127.795 140.56 126.976 140.448 126.157C140.411 125.934 140.374 125.711 140.337 125.487C140.262 125.152 140.225 124.78 140.151 124.445C140.113 124.185 140.076 123.961 140.002 123.701C139.927 123.366 139.89 122.993 139.816 122.658C139.778 122.435 139.741 122.212 139.667 121.951C139.592 121.616 139.518 121.281 139.481 120.909C139.443 120.686 139.406 120.462 139.332 120.276C139.257 119.941 139.183 119.606 139.109 119.271C139.071 119.085 139.034 118.862 138.997 118.675C138.922 118.34 138.848 118.005 138.774 117.67C138.736 117.484 138.699 117.335 138.662 117.149C138.587 116.814 138.513 116.479 138.439 116.144C138.401 115.995 138.364 115.846 138.327 115.735C138.253 115.362 138.141 115.027 138.066 114.692C138.029 114.618 138.029 114.506 137.992 114.432C137.88 114.022 137.806 113.613 137.694 113.241C137.732 113.352 137.769 113.315 137.769 113.278ZM168.472 114.469C179.004 95.3357 193.072 77.5052 209.298 62.8016C204.571 74.1178 193.667 92.0972 168.472 114.469ZM262.442 30.0069C262.852 29.858 263.298 29.7091 263.708 29.5602C263.894 29.4857 264.08 29.4113 264.266 29.374C264.861 29.1879 265.494 28.9646 266.09 28.7785C266.201 28.7412 266.313 28.704 266.424 28.6668C266.908 28.5179 267.429 28.369 267.913 28.2201C268.136 28.1456 268.36 28.1084 268.583 28.034C268.918 27.9223 269.253 27.8478 269.588 27.7362C272.416 33.841 272.64 40.3552 270.332 47.6884C265.271 63.6205 247.668 82.6794 219.383 102.892C209.112 110.225 198.691 116.814 189.127 122.509C187.489 123.477 185.926 124.408 184.326 125.301C182.986 126.083 181.684 126.828 180.381 127.535C179.823 127.833 179.265 128.168 178.744 128.465C178.446 128.652 178.148 128.8 177.813 128.987C177.627 129.098 177.478 129.173 177.292 129.284C176.473 129.731 175.692 130.178 174.873 130.624C174.724 130.699 174.575 130.773 174.426 130.848C173.682 131.257 172.975 131.629 172.231 132.039C172.119 132.076 172.045 132.151 171.933 132.188C171.151 132.597 170.407 133.007 169.663 133.416C169.514 133.491 169.328 133.602 169.179 133.677C168.435 134.086 167.728 134.459 167.021 134.831C166.946 134.868 166.872 134.905 166.797 134.942C166.276 135.203 165.792 135.464 165.271 135.724C165.122 135.799 164.974 135.873 164.825 135.948C164.713 136.022 164.601 136.059 164.49 136.134C163.82 136.469 163.15 136.804 162.517 137.139C162.406 137.213 162.294 137.25 162.182 137.325C160.917 137.958 159.763 138.553 158.647 139.112C158.535 139.186 158.424 139.223 158.312 139.298C157.791 139.558 157.27 139.819 156.786 140.042C156.823 139.931 156.861 139.782 156.935 139.67C157.047 139.335 157.195 139 157.307 138.665C157.456 138.218 157.642 137.809 157.791 137.362C157.865 137.176 157.94 136.99 158.014 136.766C158.386 135.799 158.759 134.868 159.131 133.937C159.242 133.677 159.354 133.416 159.466 133.156C159.763 132.448 160.024 131.778 160.322 131.071C160.47 130.736 160.619 130.401 160.731 130.066C160.805 129.88 160.88 129.694 160.954 129.508C161.178 129.024 161.364 128.54 161.587 128.056C161.699 127.833 161.773 127.646 161.885 127.423C162.294 127.088 162.666 126.79 163.038 126.455C164.415 125.339 165.718 124.222 167.021 123.105C205.427 90.6454 215.215 65.9284 217.709 55.6545C218.118 55.3194 218.49 55.0216 218.9 54.6866C219.346 54.3516 219.793 53.9794 220.239 53.6443C220.76 53.2349 221.319 52.8254 221.84 52.4159C222.286 52.0809 222.733 51.7459 223.179 51.4109C223.738 51.0014 224.259 50.6292 224.817 50.2197C225.264 49.8847 225.71 49.5869 226.157 49.2519C226.715 48.8424 227.273 48.4702 227.831 48.0979C228.278 47.8001 228.725 47.4651 229.171 47.1673C229.729 46.7951 230.288 46.4228 230.846 46.0506C231.293 45.7528 231.702 45.455 232.149 45.1944C232.744 44.8222 233.302 44.4499 233.898 44.0777C234.307 43.8171 234.754 43.5565 235.163 43.2587C235.796 42.8865 236.428 42.477 237.061 42.1048C237.433 41.8814 237.805 41.6581 238.178 41.4347C239.033 40.9136 239.927 40.4297 240.783 39.9458C240.931 39.8713 241.08 39.7969 241.192 39.6852C241.304 39.6107 241.378 39.5735 241.49 39.5363C242.011 39.2385 242.532 38.9779 243.053 38.6801C243.276 38.5685 243.537 38.4196 243.76 38.3079C244.132 38.0845 244.541 37.8984 244.914 37.6751C245.174 37.5262 245.435 37.4145 245.695 37.2656C246.067 37.0795 246.402 36.8934 246.774 36.7072C247.035 36.5583 247.333 36.4467 247.593 36.2978C247.928 36.1117 248.3 35.9628 248.635 35.7766C248.896 35.6277 249.193 35.5161 249.454 35.3672C249.789 35.2183 250.161 35.0321 250.496 34.8833C250.757 34.7716 251.054 34.6227 251.315 34.511C251.65 34.3621 251.985 34.2132 252.357 34.0271C252.617 33.9154 252.915 33.7665 253.176 33.6548C253.511 33.5059 253.845 33.3571 254.218 33.2082C254.478 33.0965 254.776 32.9848 255.036 32.8359C255.371 32.687 255.743 32.5381 256.078 32.3892C256.339 32.2775 256.637 32.1659 256.897 32.0542C257.232 31.9053 257.604 31.7564 257.939 31.6447C258.2 31.5331 258.46 31.4214 258.758 31.3097C259.13 31.1608 259.465 31.0491 259.837 30.9002C260.098 30.7886 260.358 30.7141 260.619 30.6024C260.991 30.4535 261.363 30.3419 261.735 30.193C261.959 30.193 262.219 30.0813 262.442 30.0069ZM361.697 146.37C361.66 144.249 361.586 142.052 361.549 139.744C361.549 139.633 361.549 139.558 361.511 139.447C361.511 139.409 361.511 139.409 361.511 139.372C361.511 139.298 361.474 139.223 361.474 139.186C361.474 139.149 361.474 139.112 361.437 139.112C361.437 139.037 361.4 139 361.4 138.925C361.4 138.888 361.362 138.851 361.362 138.851C361.325 138.777 361.325 138.739 361.288 138.665C361.288 138.628 361.251 138.59 361.251 138.59C361.214 138.516 361.176 138.479 361.176 138.442C361.176 138.404 361.139 138.367 361.139 138.367C361.102 138.33 361.065 138.255 361.028 138.218C361.028 138.181 360.99 138.181 360.99 138.144C360.916 138.069 360.879 137.995 360.804 137.92C360.73 137.846 360.693 137.809 360.618 137.734L360.581 137.697C360.544 137.66 360.469 137.623 360.432 137.585C360.395 137.585 360.395 137.548 360.358 137.548C360.32 137.511 360.246 137.474 360.209 137.436C360.172 137.436 360.172 137.399 360.134 137.399C360.06 137.362 360.023 137.325 359.948 137.325C359.911 137.325 359.911 137.288 359.874 137.288C359.799 137.25 359.762 137.25 359.688 137.213C359.651 137.213 359.651 137.213 359.613 137.176C359.539 137.139 359.464 137.139 359.39 137.139C359.353 137.139 359.353 137.139 359.316 137.139C359.241 137.139 359.13 137.101 359.055 137.101C296.272 131.332 261.289 128.242 199.026 123.403C206.73 118.675 214.843 113.39 222.807 107.657C252.506 86.4391 270.332 66.8962 275.84 49.5497C278.855 40.0202 278.148 31.1608 273.682 23.1948C273.682 23.1576 273.644 23.1576 273.644 23.1203C273.607 23.0831 273.57 23.0087 273.533 22.9714C273.495 22.897 273.421 22.8225 273.384 22.7481C273.347 22.6736 273.272 22.6364 273.235 22.5992C273.161 22.5247 273.123 22.4875 273.049 22.4131L273.012 22.3758C272.974 22.3386 272.937 22.3386 272.9 22.3014C272.826 22.227 272.751 22.1897 272.677 22.1153C272.602 22.0781 272.565 22.0408 272.491 22.0036C272.416 21.9664 272.305 21.9292 272.23 21.8919C272.193 21.8919 272.156 21.8547 272.119 21.8547C272.081 21.8547 272.044 21.8175 272.007 21.8175C271.672 21.7058 271.337 21.6314 270.89 21.5197C263.187 19.4351 224.37 8.93784 207.735 6.22046C207.698 6.22046 207.698 6.22046 207.66 6.22046C197.761 4.88038 185.815 9.68233 174.017 19.7329C162.927 29.1879 152.767 42.7376 145.472 57.8507C138.848 71.6237 134.531 86.6252 132.856 101.85C124.52 86.4763 111.829 74.6761 101.781 66.9707C86.9317 55.6545 69.2541 46.7578 53.2884 42.5143C48.8969 41.3603 44.7287 40.5786 40.9327 40.2436C39.4813 40.0947 38.1415 40.0202 36.9134 40.0202C36.504 40.0202 36.1318 40.0947 35.7597 40.2436C34.9781 40.5786 32.5963 41.5836 10.0434 54.6866C4.23771 58.0368 -1.38192 61.3498 -5.0663 63.5088C-7.07596 64.7 -8.78789 65.6678 -9.94159 66.3751L-11.2814 67.1568C-11.393 67.2313 -11.5419 67.3057 -11.6535 67.3801C-12.1001 67.6035 -12.4723 67.9757 -12.7328 68.3852C-12.9561 68.683 -13.105 69.0552 -13.1422 69.5019C-13.9981 73.0755 -12.9189 77.468 -10.0532 82.2699C-3.72652 92.73 10.6761 104.158 30.5122 114.395C43.5378 121.058 58.7964 127.274 76.0274 132.932C30.2145 137.92 -18.9479 143.355 -73.4693 149.497C-73.5065 149.497 -73.5065 149.497 -73.5437 149.497C-73.581 149.497 -73.6554 149.497 -73.6926 149.534C-73.767 149.534 -73.8043 149.572 -73.8787 149.572C-73.9159 149.572 -73.9531 149.609 -74.0276 149.609C-74.102 149.646 -74.1392 149.646 -74.2136 149.683C-74.2508 149.683 -74.2881 149.721 -74.3253 149.721C-74.4369 149.758 -74.5114 149.795 -74.5858 149.869C-74.623 149.869 -74.623 149.907 -74.6602 149.907C-74.7347 149.944 -74.8091 149.981 -74.8835 150.056C-74.9207 150.093 -74.958 150.093 -74.958 150.13C-75.0324 150.167 -75.0696 150.204 -75.1068 150.279L-75.144 150.316L-75.1812 150.353C-75.2185 150.391 -75.2929 150.465 -75.3301 150.502C-75.3673 150.539 -75.3673 150.577 -75.4045 150.577L-75.4418 150.614C-75.479 150.651 -75.5162 150.726 -75.5534 150.763C-75.5534 150.8 -75.5906 150.8 -75.5906 150.837C-75.6278 150.912 -75.7023 151.023 -75.7395 151.135V151.172C-75.7767 151.247 -75.8139 151.358 -75.8511 151.433C-75.8511 151.47 -75.8884 151.507 -75.8884 151.545C-75.8884 151.582 -75.9256 151.619 -75.9256 151.693C-75.9256 151.731 -75.9256 151.768 -75.9628 151.805C-75.9628 151.88 -76 151.954 -76 151.991C-76 152.028 -76 152.066 -76 152.103C-76 152.177 -76 152.252 -76 152.326C-76 152.363 -76 152.401 -76 152.438C-76 152.55 -76 152.661 -75.9628 152.773C-72.204 175.554 -70.4176 186.684 -66.9565 209.354C-66.9193 209.615 -66.8449 209.875 -66.7332 210.099C-66.3983 210.806 -65.8028 211.364 -65.0585 211.625C-63.7559 212.071 -62.5278 212.518 -61.2625 212.928C-60.667 213.114 -60.1088 213.337 -59.5133 213.523C-59.4017 213.56 -59.3272 213.598 -59.2156 213.635C-57.3548 214.268 -55.5312 214.9 -53.7448 215.533C-53.1866 218.511 -52.5167 221.936 -51.7724 225.733C-51.6979 226.031 -51.6235 226.328 -51.4747 226.552C-47.2692 247.397 -42.9894 267.759 -38.8212 287.414C-25.9445 348.648 -13.7376 406.494 -4.69414 472.754C-4.58249 473.61 -4.06147 474.392 -3.27993 474.839C3.41895 478.71 9.89454 482.358 16.1468 485.931C19.6079 487.904 23.0318 489.84 26.4929 491.813C36.5784 497.583 45.287 502.608 53.8839 507.708C53.9583 507.745 54.0327 507.782 54.1071 507.819C65.3092 514.445 76.5484 521.22 88.4575 528.591C88.532 528.628 88.6436 528.702 88.718 528.739C88.7552 528.739 88.7553 528.739 88.7925 528.777C88.8669 528.814 88.9413 528.851 89.0158 528.851C89.053 528.851 89.053 528.851 89.0902 528.888C89.1646 528.926 89.2391 528.926 89.3135 528.963C89.3507 528.963 89.3507 528.963 89.3879 528.963C89.4996 529 89.574 529 89.6857 529C89.6857 529 89.6857 529 89.7229 529C89.7601 529 89.7601 529 89.7973 529C89.8345 529 89.909 529 89.9834 529C90.095 529 90.2067 529 90.2811 529C90.3183 529 90.3555 529 90.3928 529C90.4672 529 90.5044 528.963 90.5788 528.963C90.5788 528.963 90.5788 528.963 90.6161 528.963C122.808 521.406 149.715 514.52 175.729 507.857C181.237 506.442 186.671 505.065 192.067 503.687C192.588 504.097 193.258 504.32 193.928 504.32C197.686 504.209 246.477 491.738 250.049 489.952C250.384 489.803 250.682 489.579 250.905 489.319C280.827 482.469 309.111 476.923 339.74 471.861C341.117 471.637 342.122 470.446 342.122 469.031C342.122 381.926 347.816 259.644 349.714 219.479C350.049 212.704 350.235 208.61 350.309 206.302C351.537 206.115 352.728 205.892 353.956 205.706C356.189 205.334 358.385 204.962 360.618 204.589C361.474 204.44 362.218 203.919 362.628 203.175C362.888 202.728 363 202.244 363 201.723C362.479 178.979 362.218 166.844 361.697 146.37Z" stroke="url(#paint0_linear_128:42176)" stroke-width="10"/>
<defs>
<linearGradient id="paint0_linear_128:42176" x1="143.5" y1="6" x2="143.5" y2="529" gradientUnits="userSpaceOnUse">
<stop stop-color="#184670"/>
<stop offset="1" stop-color="#184670" stop-opacity="0"/>
</linearGradient>
</defs>
</svg>
