<svg width="1920" height="210" fill="none" xmlns="http://www.w3.org/2000/svg"><mask id="a" style="mask-type:alpha" maskUnits="userSpaceOnUse" x="-207" y="28" width="2335" height="154"><path d="M-6.013 93.648c.091.341.386.08.511-.137-1.066-7.388 1.573-15.953 7.445-20.632.091.34.228.852.49 1.147 1.916 4.42 6.754 9.52 11.914 8.32 3.455-.743 6.35-4.26 4.106-7.862-2.643-4.408-7.819-6.675-12.9-5.862-1.068.104-2.045.548-3.023.993-1.075-5.377.624-11.313 5.281-14.389 6.226-4.043 15.892-2.065 21.65 1.691.045.17.17-.046.124-.216-7.112-5.403-20.94-7.91-26.785.964-2.587 3.983-2.855 8.44-1.713 12.702C-5.853 75.15-9 86.592-6.013 93.648zm19.461-21.477c2.332 1.203 4.734 4.03 3.282 6.795-1.406 2.935-5.58 1.678-7.696.6C6.054 77.99 4.038 75.242 3 72.047c3.431-2.198 7.16-1.918 10.449.124z" fill="#F3BC8F"/><path d="M5.19 87.723c-2.046.548-3.124 2.664-2.621 4.54.548 2.045 2.664 3.123 4.54 2.62 2.045-.548 3.123-2.664 2.62-4.54-.502-1.875-2.664-3.123-4.54-2.62zm-.979-47.978l-.34.092c-1.41.195-2.238 1.878-1.873 3.242.366 1.364 1.924 2.408 3.243 1.872l.34-.091c1.319-.536 2.284-1.708 1.873-3.243-.411-1.534-1.833-2.067-3.243-1.872zM2.733 150.52a296.11 296.11 0 01-5.48.006c-3.9-.234-2.807 1.118-.213 2.615 1.513.874 2.81 1.623 3.937 2.417-.125.217-.204.603-.329.819-.204.603-.408 1.206-.566 1.979-.737 2.025-.064 3.855 2.901 1.964.637-.353 1.273-.707 1.693-1.185.295-.262.636-.353.932-.615.91.67 1.945 1.123 2.855 1.793 3.505 2.168 3.684.109 2.999-2.448l-.73-2.728 2.282-1.708c1.818-1.4 2.862-2.959-1.163-2.977-.898.058-1.671-.1-2.57-.042-.365-1.364-.9-2.683-1.266-4.046-1.62-4.683-2.552-4.068-4.15.198-.453 1.035-.736 2.024-1.19 3.06.262.295.183.682.058.898zm41.823-13.034c1.705-.457.974-3.185-.73-2.728-1.705.457-.974 3.184.73 2.728zm5.225 5.178c1.58-.241.554-2.707-.594-2.216-1.069.103-1.09 1.388-.395 1.933.432.25.648.374.989.283zm-5.741-.289c.51-.137.76-.569.623-1.08-.045-.171-.091-.341-.307-.466-.354-.636-1.377-.362-1.364.365-.125.216-.08.387-.034.557.092.341.57.761 1.081.624zm-8.337 26.171c.898-.058 1.75-.287 2.295-.981.42-.478.67-.91.703-1.467l.125-.217-.046-.17c.283-.99.01-2.012-.776-2.898-1.264-1.306-3.014-1.02-4.366.073-.76.57-.873 1.513-.986 2.457-.055 1.842 1.425 3.273 3.05 3.203zm-15.118 12.455a6.327 6.327 0 004.493-7.782 6.327 6.327 0 00-7.782-4.492 6.327 6.327 0 00-4.493 7.782c.697 3.284 4.372 5.406 7.782 4.492zm71.605-36.91c3.921-1.05 6.293-5.157 5.242-9.079-1.05-3.921-5.158-6.292-9.079-5.241-3.921 1.05-6.292 5.158-5.242 9.079 1.221 3.875 5.329 6.246 9.08 5.241zm-25.255-12.419c4.214 6.179 7.022 15.294 3.46 22.461-.078.387-.374.649-.623 1.081-3.532-6.363-15.102-12.033-17.205-2.151-2.136 10.44 9.086 10.722 15.607 6.416.465-.307.76-.569 1.056-.831 2.604 9.718-6.218 19.756-15.723 19.745 0 0-.125.216.046.17 11.338 2.079 20.11-10.87 17.154-21.224 6.3-7.17 2.455-19.479-3.476-25.929-.046-.171-.341.091-.296.262zm-11.758 26.356c-2.552-4.067.523-9.641 5.254-8.351 3.31.758 6.485 3.744 8.08 6.971-3.668 3.358-10.691 5.788-13.334 1.38zm60.048-23.179c.931-.616 1.647-1.355 2.578-1.97.911.669 1.867 1.509 2.777 2.179 3.209 2.429 3.754 1.735 2.441-2.481-.274-1.023-.718-2-.992-3.023.931-.615 1.647-1.355 2.532-2.141 2.533-2.14 1.452-2.764-1.117-2.807l-3.343-.2c-.445-.978-.843-1.784-1.118-2.807-1.732-3.739-2.913-2.691-4.058.539-.204.603-.362 1.376-.736 2.025l-2.183.036c-3.684-.109-3.318 1.255-.974 3.185.694.545 1.172.965 1.866 1.51-.158.773-1.007 3.742-1.165 4.515-.85 2.968.323 3.933 3.492 1.44zM243.55 59.35c1.455-.025 3.468-.016 5.48-.007 3.9.234 2.807-1.118.213-2.615-1.513-.874-2.81-1.623-3.937-2.417.125-.216.204-.603.329-.82.204-.602.408-1.205.566-1.978.737-2.025.064-3.854-2.901-1.964-.637.354-1.273.707-1.693 1.185-.295.262-.636.353-.931.615-.911-.67-1.946-1.123-2.856-1.793-3.505-2.167-3.684-.11-2.999 2.448l.731 2.728-2.283 1.708c-1.818 1.4-2.862 2.96 1.163 2.977.898-.058 1.672.1 2.57.043.365 1.364.901 2.682 1.266 4.046 1.62 4.682 2.552 4.067 4.15-.199.454-1.035.737-2.024 1.19-3.06-.262-.295-.183-.681-.058-.898zm40.437 34.298c.091.341.386.08.511-.137-1.066-7.388 1.573-15.953 7.445-20.632.091.34.228.852.49 1.147 1.916 4.42 6.754 9.52 11.914 8.32 3.455-.743 6.35-4.26 4.106-7.862-2.643-4.408-7.818-6.675-12.9-5.862-1.068.104-2.045.548-3.023.993-1.075-5.377.624-11.313 5.281-14.389 6.226-4.043 15.892-2.065 21.649 1.691.046.17.171-.046.125-.216-7.112-5.403-20.94-7.91-26.785.964-2.587 3.983-2.855 8.44-1.713 12.702-6.941 4.783-10.088 16.225-7.1 23.281zm19.461-21.477c2.332 1.203 4.734 4.03 3.282 6.795-1.406 2.935-5.58 1.678-7.696.6-2.98-1.576-4.996-4.325-6.035-7.519 3.431-2.198 7.161-1.918 10.449.124zm-101.721.213c-1.705.457-.974 3.184.731 2.728 1.705-.457.974-3.185-.731-2.728zm-5.225-5.179c-1.58.24-.554 2.707.594 2.216 1.069-.103 1.09-1.388.396-1.933-.433-.25-.649-.374-.99-.283zm5.742.289c-.511.137-.761.57-.624 1.081.046.17.091.341.308.466.353.636 1.376.362 1.363-.366.125-.216.08-.386.034-.557-.092-.34-.57-.76-1.081-.624zm71.748-2.962c.511-.137 1.023-.274 1.272-.707.5-.864.009-2.012-.934-2.125-2.196-.69-2.259 3.164-.338 2.832zm2.847 3.805c-.171.046-.295.262-.466.308l-.125.216c-.125.216-.125.216-.079.387 0 0 .046.17-.125.216l.046.17.046.17.045.171.046.17s.046.171.216.126c.046.17.216.124.262.295l.216.125c.216.124.387.079.557.033l.341-.091.341-.092c.171-.045.125-.216.296-.261.295-.262.328-.82.237-1.16-.137-.512-.399-.807-.786-.886-.17.045-.216-.125-.386-.08l-.341.092-.341.091zm-5.434.178c-1.023.274-.612 1.808.411 1.534 1.069-.104.612-1.808-.411-1.534zm-133.864 36.417l.511-.137c1.535-.411 2.841-1.675 3.328-3.267.487-1.592.03-3.297-1.234-4.603-1.479-1.431-3.97-1.86-5.662-.676-1.102.661-1.772 1.572-2.01 2.731-.362 1.377.016 3.468 1.188 4.433.478.42.911.67 1.513.874-.383 2.661-.937 5.367-2.31 7.745-7.827-4.663-14.565-10.715-20.122-17.814 2.77-3.3 4.721-6.93 5.808-11.058 1.796-.116 3.58-.96 4.579-2.689 1.543-2.424.459-5.788-1.919-7.16-1.297-.75-2.628-.94-3.991-.575-1.876.502-3.136 1.936-3.748 3.745-.861 2.24.552 4.785 2.497 5.909l.216.124c-.882 3.526-2.584 6.723-4.888 9.716-4.647-6.43-8.02-13.566-10.417-21.146 1.863-1.23 2.679-3.642 2.131-5.687-.777-2.899-3.758-4.475-6.486-3.744-2.727.73-4.475 3.757-3.744 6.485.686 2.557 3.325 4.225 5.974 3.88 1.13 3.535 2.476 7.195 4.117 10.592-3.796.835-7.31.68-10.847-.93l-.183-.683c-.594-2.216-2.926-3.418-4.972-2.87-2.216.594-3.419 2.926-2.87 4.972.593 2.216 2.925 3.418 4.971 2.87 1.023-.274 1.91-1.06 2.408-1.924 3.63 1.951 7.53 2.185 11.962.997 1.857 3.523 3.84 6.829 6.117 9.873.092.341.308.466.524.59 2.892 3.976 6.205 7.474 9.983 10.664-4.17 1.483-8.478 2.455-13.014 2.574-.594-2.216-2.926-3.419-5.143-2.825-2.216.594-3.589 2.972-2.995 5.188.594 2.217 2.972 3.589 5.188 2.996 1.364-.366 2.545-1.413 2.907-2.789 5.218-.302 10.254-1.286 15.186-3.338 6.555 5.369 14.075 9.567 22.173 12.513 1.593.487 2.238-1.878.646-2.365a58.415 58.415 0 01-10.397-4.706c1.884-2.515 2.562-5.438 3.025-8.485zm19.468 22.191c.386.079.557.034.943.113a3.406 3.406 0 00-1.842-.055c-.681.183-1.318.536-1.738 1.014-1.726 1.742-1.415 4.947.747 6.195 2.161 1.248 5.139.085 5.738-2.451.645-2.365-1.233-4.603-3.848-4.816zM262.52 54.45c2.753.725 4.774-1.279 4.987-3.894.191-1.33-.731-2.728-1.982-3.306-1.297-.749-3.48-.712-4.616.506-.59.523-.965 1.172-1.294 1.99-.395 1.934.756 4.184 2.905 4.704zm-51.94-13.126c-.898.058-1.75.286-2.295.98-.42.478-.67.91-.703 1.468l-.125.216.046.17c-.283.99-.009 2.013.776 2.898 1.264 1.306 3.014 1.02 4.366-.073.761-.57.874-1.513.986-2.457.055-1.842-1.425-3.273-3.051-3.202zm-73.483 34.673c-2.217.594-3.76 3.017-3.12 5.404.593 2.217 3.017 3.76 5.404 3.12 2.216-.594 3.759-3.017 3.12-5.404-.81-2.34-3.188-3.714-5.404-3.12z" fill="#F3BC8F"/><path d="M295.19 87.723c-2.046.548-3.124 2.664-2.621 4.54.548 2.045 2.664 3.123 4.539 2.62 2.046-.548 3.124-2.664 2.621-4.54-.502-1.875-2.664-3.123-4.539-2.62zm-69.492-58.855a6.327 6.327 0 00-4.492 7.782 6.327 6.327 0 007.782 4.493 6.327 6.327 0 004.492-7.782c-.697-3.285-4.372-5.407-7.782-4.493zm61.904 17.582c-.913-3.41-4.588-5.531-7.998-4.618-3.409.914-5.531 4.589-4.617 7.998.913 3.41 4.588 5.532 7.998 4.618 3.409-.913 5.531-4.588 4.617-7.998zm6.609-6.705l-.341.092c-1.409.195-2.237 1.878-1.872 3.242.366 1.364 1.924 2.408 3.243 1.872l.341-.091c1.318-.536 2.283-1.708 1.872-3.243-.411-1.534-1.833-2.067-3.243-1.872zM154.093 65.778c-3.921 1.05-6.292 5.158-5.242 9.08 1.051 3.92 5.158 6.292 9.079 5.24 3.921-1.05 6.293-5.157 5.242-9.078-1.221-3.876-5.328-6.247-9.079-5.242zM99.037 98.986a2.778 2.778 0 00-1.629-2.67c-.864-.5-2.15-.52-3.126-.076-1.102.66-1.431 1.48-1.498 2.594-.304 2.274 2.892 3.976 4.756 2.746.931-.615 1.43-1.48 1.497-2.594zm80.311-20.788c-4.214-6.18-7.022-15.295-3.461-22.462.08-.386.375-.648.625-1.08 3.532 6.362 15.101 12.033 17.204 2.15 2.136-10.44-9.086-10.721-15.607-6.416-.465.308-.761.57-1.056.831-2.604-9.717 6.218-19.755 15.723-19.744 0 0 .125-.216-.046-.17-11.337-2.079-20.11 10.87-17.153 21.224-6.302 7.17-2.456 19.478 3.476 25.929.045.17.341-.091.295-.262zm11.758-26.357c2.552 4.067-.522 9.642-5.254 8.352-3.309-.758-6.485-3.744-8.08-6.971 3.668-3.359 10.691-5.789 13.334-1.38zm101.627 98.679a296.11 296.11 0 01-5.48.006c-3.9-.234-2.807 1.118-.213 2.615 1.513.874 2.81 1.623 3.937 2.417-.125.217-.204.603-.329.819-.204.603-.408 1.206-.566 1.979-.737 2.025-.064 3.855 2.901 1.964.637-.353 1.273-.707 1.693-1.185.295-.262.636-.353.932-.615.91.67 1.945 1.123 2.855 1.793 3.505 2.168 3.684.109 2.999-2.448l-.731-2.728 2.283-1.708c1.818-1.4 2.862-2.959-1.163-2.977-.898.058-1.671-.1-2.569-.042-.366-1.364-.902-2.683-1.267-4.046-1.62-4.683-2.552-4.068-4.15.198-.453 1.035-.736 2.024-1.19 3.06.262.295.183.682.058.898zm-40.436-34.299c-.092-.341-.387-.079-.512.137 1.066 7.389-1.573 15.953-7.445 20.633-.091-.341-.228-.852-.49-1.148-1.915-4.42-6.754-9.519-11.914-8.319-3.455.743-6.35 4.26-4.106 7.861 2.643 4.408 7.819 6.676 12.9 5.863 1.068-.104 2.046-.549 3.023-.993 1.075 5.376-.623 11.313-5.281 14.388-6.226 4.044-15.892 2.066-21.649-1.691-.046-.17-.171.046-.125.217 7.112 5.403 20.94 7.91 26.785-.965 2.587-3.982 2.855-8.439 1.713-12.701 6.941-4.784 10.088-16.225 7.101-23.282zm-19.462 21.477c-2.332-1.202-4.734-4.03-3.282-6.794 1.406-2.935 5.58-1.678 7.696-.601 2.981 1.577 4.996 4.326 6.035 7.519-3.431 2.199-7.161 1.919-10.449-.124zm101.721-.212c1.705-.457.974-3.185-.731-2.728-1.704.457-.974 3.184.731 2.728zm5.225 5.178c1.58-.241.554-2.707-.594-2.216-1.068.103-1.09 1.388-.395 1.933.432.25.648.374.989.283zm-5.742-.289c.512-.137.761-.569.624-1.08-.045-.171-.091-.341-.307-.466-.354-.636-1.376-.362-1.364.365-.125.216-.079.387-.034.557.092.341.57.761 1.081.624zm-71.748 2.963c-.511.137-1.023.274-1.272.706-.499.865-.009 2.013.935 2.125 2.195.691 2.258-3.163.337-2.831zm-2.847-3.806c.171-.045.296-.261.466-.307l.125-.216c.125-.216.125-.216.079-.387 0 0-.046-.17.125-.216l-.046-.171-.045-.17-.046-.171-.046-.17s-.046-.171-.216-.125c-.046-.17-.216-.125-.262-.295l-.216-.125c-.216-.125-.387-.079-.557-.033l-.341.091-.341.091c-.171.046-.125.216-.295.262-.296.262-.329.819-.238 1.16.137.512.399.807.786.886.17-.046.216.125.386.079l.341-.091.341-.092zm5.434-.177c1.023-.274.612-1.808-.411-1.534-1.068.103-.612 1.808.411 1.534zm8.885 14.064c-2.752-.724-4.773 1.279-4.986 3.895-.192 1.33.731 2.727 1.982 3.306 1.297.749 3.48.712 4.615-.506.591-.524.965-1.172 1.294-1.991.396-1.933-.755-4.183-2.905-4.704zm51.94 13.127c.898-.058 1.75-.287 2.295-.981.42-.478.67-.91.703-1.467l.125-.217-.046-.17c.283-.99.009-2.012-.776-2.898-1.264-1.306-3.014-1.02-4.366.073-.761.57-.873 1.513-.986 2.457-.055 1.842 1.425 3.273 3.051 3.203z" fill="#F3BC8F"/><path d="M241.094 122.146c2.045-.548 3.123-2.664 2.621-4.539-.549-2.046-2.665-3.124-4.54-2.621-2.046.548-3.123 2.664-2.621 4.539.503 1.876 2.664 3.124 4.54 2.621zm69.491 58.855a6.328 6.328 0 004.493-7.782 6.328 6.328 0 00-7.782-4.492 6.327 6.327 0 00-4.493 7.782c.697 3.284 4.372 5.406 7.782 4.492zm-61.904-17.582c.913 3.41 4.588 5.532 7.998 4.618 3.41-.914 5.531-4.589 4.618-7.998-.914-3.41-4.589-5.532-7.999-4.618-3.409.914-5.531 4.588-4.617 7.998zm-6.609 6.705l.341-.091c1.41-.195 2.237-1.879 1.872-3.243-.365-1.364-1.924-2.408-3.242-1.872l-.341.091c-1.319.536-2.284 1.709-1.873 3.243.412 1.534 1.833 2.067 3.243 1.872zm140.118-26.033c3.921-1.05 6.293-5.157 5.242-9.079-1.051-3.921-5.158-6.292-9.079-5.241-3.921 1.05-6.292 5.158-5.242 9.079 1.221 3.875 5.329 6.246 9.079 5.241zm-25.255-12.419c4.214 6.179 7.022 15.294 3.461 22.461-.079.387-.375.649-.624 1.081-3.532-6.363-15.102-12.033-17.205-2.151-2.136 10.44 9.086 10.722 15.607 6.416a8.57 8.57 0 001.056-.831c2.604 9.718-6.218 19.756-15.723 19.745 0 0-.125.216.046.17 11.338 2.079 20.111-10.87 17.154-21.224 6.301-7.17 2.455-19.479-3.476-25.929-.046-.171-.341.091-.296.262zm-11.758 26.356c-2.552-4.067.523-9.641 5.254-8.351 3.309.758 6.485 3.744 8.08 6.971-3.668 3.358-10.691 5.788-13.334 1.38zm60.048-23.179c.931-.616 1.647-1.355 2.578-1.97.911.669 1.867 1.509 2.777 2.179 3.209 2.429 3.754 1.735 2.441-2.481-.274-1.023-.718-2-.992-3.023.931-.615 1.647-1.355 2.532-2.141 2.533-2.14 1.452-2.764-1.117-2.807l-3.343-.2c-.445-.978-.843-1.784-1.118-2.807-1.732-3.739-2.913-2.691-4.058.539-.204.603-.362 1.376-.736 2.025l-2.183.036c-3.684-.109-3.318 1.255-.974 3.185.694.545 1.172.965 1.866 1.51-.158.773-1.007 3.742-1.165 4.515-.85 2.968.323 3.933 3.492 1.44zM533.55 59.35c1.455-.025 3.468-.016 5.48-.007 3.9.234 2.807-1.118.213-2.615-1.513-.874-2.81-1.623-3.937-2.417.125-.216.204-.603.329-.82.204-.602.408-1.205.566-1.978.737-2.025.064-3.854-2.901-1.964-.637.354-1.273.707-1.693 1.185-.295.262-.636.353-.931.615-.911-.67-1.946-1.123-2.856-1.793-3.505-2.167-3.684-.11-2.999 2.448l.731 2.728-2.283 1.708c-1.818 1.4-2.862 2.96 1.163 2.977.898-.058 1.672.1 2.57.043.365 1.364.901 2.682 1.266 4.046 1.62 4.682 2.552 4.067 4.15-.199.454-1.035.737-2.024 1.19-3.06-.262-.295-.183-.681-.058-.898zm40.437 34.298c.091.341.386.08.511-.137-1.066-7.388 1.573-15.953 7.445-20.632.091.34.228.852.49 1.147 1.916 4.42 6.754 9.52 11.914 8.32 3.455-.743 6.35-4.26 4.106-7.862-2.643-4.408-7.818-6.675-12.9-5.862-1.068.104-2.045.548-3.023.993-1.075-5.377.624-11.313 5.281-14.389 6.226-4.043 15.892-2.065 21.649 1.691.046.17.171-.046.125-.216-7.112-5.403-20.94-7.91-26.785.964-2.587 3.983-2.855 8.44-1.713 12.702-6.941 4.783-10.088 16.225-7.1 23.281zm19.461-21.477c2.332 1.203 4.734 4.03 3.282 6.795-1.406 2.935-5.58 1.678-7.696.6-2.98-1.576-4.996-4.325-6.035-7.519 3.431-2.198 7.161-1.918 10.449.124zm-101.721.213c-1.705.457-.974 3.184.731 2.728 1.705-.457.974-3.185-.731-2.728zm-5.225-5.179c-1.58.24-.554 2.707.594 2.216 1.069-.103 1.09-1.388.396-1.933-.433-.25-.649-.374-.99-.283zm5.742.289c-.511.137-.761.57-.624 1.081.046.17.091.341.308.466.353.636 1.376.362 1.363-.366.125-.216.08-.386.034-.557-.092-.34-.57-.76-1.081-.624zm71.748-2.962c.511-.137 1.023-.274 1.272-.707.5-.864.009-2.012-.934-2.125-2.196-.69-2.259 3.164-.338 2.832zm2.847 3.805c-.171.046-.295.262-.466.308l-.125.216c-.125.216-.125.216-.079.387 0 0 .046.17-.125.216l.046.17.046.17.045.171.046.17s.046.171.216.126c.046.17.216.124.262.295l.216.125c.216.124.387.079.557.033l.341-.091.341-.092c.171-.045.125-.216.296-.261.295-.262.328-.82.237-1.16-.137-.512-.399-.807-.786-.886-.17.045-.216-.125-.386-.08l-.341.092-.341.091zm-5.434.178c-1.023.274-.612 1.808.411 1.534 1.069-.104.612-1.808-.411-1.534zm-133.864 36.417l.511-.137c1.535-.411 2.841-1.675 3.328-3.267.487-1.592.03-3.297-1.234-4.603-1.479-1.431-3.97-1.86-5.662-.676-1.102.661-1.772 1.572-2.01 2.731-.362 1.377.016 3.468 1.188 4.433.478.42.911.67 1.513.874-.383 2.661-.937 5.367-2.31 7.745-7.827-4.663-14.565-10.715-20.122-17.814 2.77-3.3 4.721-6.93 5.808-11.058 1.796-.116 3.58-.96 4.579-2.689 1.543-2.424.459-5.788-1.919-7.16-1.297-.75-2.628-.94-3.991-.575-1.876.502-3.136 1.936-3.748 3.745-.861 2.24.552 4.785 2.497 5.909l.216.124c-.882 3.526-2.584 6.723-4.888 9.716-4.647-6.43-8.02-13.566-10.417-21.146 1.863-1.23 2.679-3.642 2.131-5.687-.777-2.899-3.758-4.475-6.485-3.744-2.728.73-4.475 3.757-3.745 6.485.686 2.557 3.325 4.225 5.974 3.88 1.13 3.535 2.476 7.195 4.117 10.592-3.796.835-7.31.68-10.847-.93l-.183-.683c-.594-2.216-2.926-3.418-4.972-2.87-2.216.594-3.419 2.926-2.871 4.972.594 2.216 2.927 3.418 4.972 2.87 1.023-.274 1.909-1.06 2.408-1.924 3.629 1.951 7.529 2.185 11.962.997 1.857 3.523 3.84 6.829 6.117 9.873.092.341.308.466.524.59 2.892 3.976 6.205 7.474 9.983 10.664-4.17 1.483-8.478 2.455-13.014 2.574-.594-2.216-2.926-3.419-5.143-2.825-2.216.594-3.589 2.972-2.995 5.188.594 2.217 2.972 3.589 5.188 2.996 1.364-.366 2.545-1.413 2.907-2.789 5.218-.302 10.254-1.286 15.186-3.338 6.555 5.369 14.075 9.567 22.173 12.513 1.593.487 2.238-1.878.646-2.365a58.415 58.415 0 01-10.397-4.706c1.884-2.515 2.562-5.438 3.025-8.485zm19.468 22.191c.386.079.557.034.943.113a3.406 3.406 0 00-1.842-.055c-.681.183-1.318.536-1.738 1.014-1.726 1.742-1.415 4.947.747 6.195 2.161 1.248 5.139.085 5.738-2.451.645-2.365-1.233-4.603-3.848-4.816zM552.52 54.45c2.753.725 4.774-1.279 4.987-3.894.191-1.33-.731-2.728-1.982-3.306-1.297-.749-3.48-.712-4.616.506-.59.523-.965 1.172-1.294 1.99-.395 1.934.756 4.184 2.905 4.704zm-51.94-13.126c-.898.058-1.75.286-2.295.98-.42.478-.67.91-.703 1.468l-.125.216.046.17c-.283.99-.009 2.013.776 2.898 1.264 1.306 3.014 1.02 4.366-.073.761-.57.874-1.513.986-2.457.055-1.842-1.425-3.273-3.051-3.202zm-73.483 34.673c-2.217.594-3.76 3.017-3.12 5.404.593 2.217 3.017 3.76 5.404 3.12 2.216-.594 3.759-3.017 3.12-5.404-.81-2.34-3.188-3.714-5.404-3.12z" fill="#F3BC8F"/><path d="M585.19 87.723c-2.046.548-3.124 2.664-2.621 4.54.548 2.045 2.664 3.123 4.539 2.62 2.046-.548 3.124-2.664 2.621-4.54-.502-1.875-2.664-3.123-4.539-2.62zm-69.492-58.855a6.327 6.327 0 00-4.492 7.782 6.327 6.327 0 007.782 4.493 6.327 6.327 0 004.492-7.782c-.697-3.285-4.372-5.407-7.782-4.493zm61.904 17.582c-.913-3.41-4.588-5.531-7.998-4.618-3.409.914-5.531 4.589-4.617 7.998.913 3.41 4.588 5.532 7.998 4.618 3.409-.913 5.531-4.588 4.617-7.998zm6.609-6.705l-.341.092c-1.409.195-2.237 1.878-1.872 3.242.366 1.364 1.924 2.408 3.243 1.872l.341-.091c1.318-.536 2.283-1.708 1.872-3.243-.411-1.534-1.833-2.067-3.243-1.872zM444.093 65.778c-3.921 1.05-6.292 5.158-5.242 9.08 1.051 3.92 5.158 6.292 9.079 5.24 3.921-1.05 6.293-5.157 5.242-9.078-1.221-3.876-5.328-6.247-9.079-5.242zm-55.056 33.208a2.779 2.779 0 00-1.629-2.67c-.864-.5-2.149-.52-3.126-.076-1.102.66-1.431 1.48-1.498 2.594-.304 2.274 2.893 3.976 4.756 2.746.931-.615 1.43-1.48 1.497-2.594zm80.311-20.788c-4.214-6.18-7.022-15.295-3.461-22.462.08-.386.375-.648.625-1.08 3.532 6.362 15.101 12.033 17.204 2.15 2.136-10.44-9.086-10.721-15.607-6.416-.465.308-.761.57-1.056.831-2.604-9.717 6.218-19.755 15.723-19.744 0 0 .125-.216-.046-.17-11.337-2.079-20.11 10.87-17.153 21.224-6.302 7.17-2.456 19.478 3.476 25.929.045.17.341-.091.295-.262zm11.758-26.357c2.552 4.067-.522 9.642-5.254 8.352-3.309-.758-6.485-3.744-8.08-6.971 3.668-3.359 10.691-5.789 13.334-1.38zm101.627 98.679a296.11 296.11 0 01-5.48.006c-3.9-.234-2.807 1.118-.213 2.615 1.513.874 2.81 1.623 3.937 2.417-.125.217-.204.603-.329.819-.204.603-.408 1.206-.566 1.979-.737 2.025-.064 3.855 2.901 1.964.637-.353 1.273-.707 1.693-1.185.295-.262.636-.353.932-.615.91.67 1.945 1.123 2.855 1.793 3.505 2.168 3.684.109 2.999-2.448l-.731-2.728 2.283-1.708c1.818-1.4 2.862-2.959-1.163-2.977-.898.058-1.671-.1-2.569-.042-.366-1.364-.902-2.683-1.267-4.046-1.62-4.683-2.552-4.068-4.15.198-.453 1.035-.736 2.024-1.19 3.06.262.295.183.682.058.898zm-40.436-34.299c-.092-.341-.387-.079-.512.137 1.066 7.389-1.573 15.953-7.445 20.633-.091-.341-.228-.852-.49-1.148-1.915-4.42-6.754-9.519-11.914-8.319-3.455.743-6.35 4.26-4.106 7.861 2.643 4.408 7.819 6.676 12.9 5.863 1.068-.104 2.046-.549 3.023-.993 1.075 5.376-.623 11.313-5.281 14.388-6.226 4.044-15.892 2.066-21.649-1.691-.046-.17-.171.046-.125.217 7.112 5.403 20.94 7.91 26.785-.965 2.587-3.982 2.855-8.439 1.713-12.701 6.941-4.784 10.088-16.225 7.101-23.282zm-19.462 21.477c-2.332-1.202-4.734-4.03-3.282-6.794 1.406-2.935 5.58-1.678 7.696-.601 2.981 1.577 4.996 4.326 6.035 7.519-3.431 2.199-7.161 1.919-10.449-.124zm101.721-.212c1.705-.457.974-3.185-.731-2.728-1.704.457-.974 3.184.731 2.728zm5.225 5.178c1.58-.241.554-2.707-.594-2.216-1.068.103-1.09 1.388-.395 1.933.432.25.648.374.989.283zm-5.742-.289c.512-.137.761-.569.624-1.08-.045-.171-.091-.341-.307-.466-.354-.636-1.376-.362-1.364.365-.125.216-.079.387-.034.557.092.341.57.761 1.081.624zm-71.748 2.963c-.511.137-1.023.274-1.272.706-.499.865-.009 2.013.935 2.125 2.195.691 2.258-3.163.337-2.831zm-2.847-3.806c.171-.045.296-.261.466-.307l.125-.216c.125-.216.125-.216.079-.387 0 0-.046-.17.125-.216l-.046-.171-.045-.17-.046-.171-.046-.17s-.046-.171-.216-.125c-.046-.17-.216-.125-.262-.295l-.216-.125c-.216-.125-.387-.079-.557-.033l-.341.091-.341.091c-.171.046-.125.216-.295.262-.296.262-.329.819-.238 1.16.137.512.399.807.786.886.17-.046.216.125.386.079l.341-.091.341-.092zm5.434-.177c1.023-.274.612-1.808-.411-1.534-1.068.103-.612 1.808.411 1.534zm8.885 14.064c-2.752-.724-4.773 1.279-4.986 3.895-.192 1.33.731 2.727 1.982 3.306 1.297.749 3.48.712 4.615-.506.591-.524.965-1.172 1.294-1.991.396-1.933-.755-4.183-2.905-4.704zm51.94 13.127c.898-.058 1.75-.287 2.295-.981.42-.478.67-.91.703-1.467l.125-.217-.046-.17c.283-.99.009-2.012-.776-2.898-1.264-1.306-3.014-1.02-4.366.073-.761.57-.873 1.513-.986 2.457-.055 1.842 1.425 3.273 3.051 3.203z" fill="#F3BC8F"/><path d="M531.094 122.146c2.045-.548 3.123-2.664 2.621-4.539-.549-2.046-2.665-3.124-4.54-2.621-2.046.548-3.123 2.664-2.621 4.539.503 1.876 2.664 3.124 4.54 2.621zm69.491 58.855a6.328 6.328 0 004.493-7.782 6.328 6.328 0 00-7.782-4.492 6.327 6.327 0 00-4.493 7.782c.697 3.284 4.372 5.406 7.782 4.492zm-61.904-17.582c.913 3.41 4.588 5.532 7.998 4.618 3.41-.914 5.531-4.589 4.618-7.998-.914-3.41-4.589-5.532-7.999-4.618-3.409.914-5.531 4.588-4.617 7.998zm-6.609 6.705l.341-.091c1.41-.195 2.237-1.879 1.872-3.243-.365-1.364-1.924-2.408-3.242-1.872l-.341.091c-1.319.536-2.284 1.709-1.873 3.243.412 1.534 1.833 2.067 3.243 1.872zm140.118-26.033c3.921-1.05 6.293-5.157 5.242-9.079-1.051-3.921-5.158-6.292-9.079-5.241-3.921 1.05-6.292 5.158-5.242 9.079 1.221 3.875 5.329 6.246 9.079 5.241zm-25.255-12.419c4.214 6.179 7.022 15.294 3.461 22.461-.079.387-.375.649-.624 1.081-3.532-6.363-15.102-12.033-17.205-2.151-2.136 10.44 9.086 10.722 15.607 6.416a8.57 8.57 0 001.056-.831c2.604 9.718-6.218 19.756-15.723 19.745 0 0-.125.216.046.17 11.338 2.079 20.111-10.87 17.154-21.224 6.301-7.17 2.455-19.479-3.476-25.929-.046-.171-.341.091-.296.262zm-11.758 26.356c-2.552-4.067.523-9.641 5.254-8.351 3.309.758 6.485 3.744 8.08 6.971-3.668 3.358-10.691 5.788-13.334 1.38zm60.048-23.179c.931-.616 1.647-1.355 2.578-1.97.911.669 1.867 1.509 2.777 2.179 3.209 2.429 3.754 1.735 2.441-2.481-.274-1.023-.718-2-.992-3.023.931-.615 1.647-1.355 2.532-2.141 2.533-2.14 1.452-2.764-1.117-2.807l-3.343-.2c-.445-.978-.843-1.784-1.118-2.807-1.732-3.739-2.913-2.691-4.058.539-.204.603-.362 1.376-.736 2.025l-2.183.036c-3.684-.109-3.318 1.255-.974 3.185.694.545 1.172.965 1.866 1.51-.158.773-1.007 3.742-1.165 4.515-.85 2.968.323 3.933 3.492 1.44zM823.55 59.35c1.455-.025 3.468-.016 5.48-.007 3.9.234 2.807-1.118.213-2.615-1.513-.874-2.81-1.623-3.937-2.417.125-.216.204-.603.329-.82.204-.602.408-1.205.566-1.978.737-2.025.064-3.854-2.901-1.964-.637.354-1.273.707-1.693 1.185-.295.262-.636.353-.931.615-.911-.67-1.946-1.123-2.856-1.793-3.505-2.167-3.684-.11-2.999 2.448l.731 2.728-2.283 1.708c-1.818 1.4-2.862 2.96 1.163 2.977.898-.058 1.672.1 2.57.043.365 1.364.901 2.682 1.266 4.046 1.62 4.682 2.552 4.067 4.15-.199.454-1.035.737-2.024 1.19-3.06-.262-.295-.183-.681-.058-.898zm40.437 34.298c.091.341.386.08.511-.137-1.066-7.388 1.573-15.953 7.445-20.632.091.34.228.852.49 1.147 1.916 4.42 6.754 9.52 11.914 8.32 3.455-.743 6.35-4.26 4.106-7.862-2.643-4.408-7.818-6.675-12.9-5.862-1.068.104-2.045.548-3.023.993-1.075-5.377.624-11.313 5.281-14.389 6.226-4.043 15.892-2.065 21.649 1.691.046.17.171-.046.125-.216-7.112-5.403-20.94-7.91-26.785.964-2.587 3.983-2.855 8.44-1.713 12.702-6.941 4.783-10.088 16.225-7.1 23.281zm19.461-21.477c2.332 1.203 4.734 4.03 3.282 6.795-1.406 2.935-5.58 1.678-7.696.6-2.98-1.576-4.996-4.325-6.035-7.519 3.431-2.198 7.161-1.918 10.449.124zm-101.721.213c-1.705.457-.974 3.184.731 2.728 1.705-.457.974-3.185-.731-2.728zm-5.225-5.179c-1.58.24-.554 2.707.594 2.216 1.069-.103 1.09-1.388.396-1.933-.433-.25-.649-.374-.99-.283zm5.742.289c-.511.137-.761.57-.624 1.081.046.17.091.341.308.466.353.636 1.376.362 1.363-.366.125-.216.08-.386.034-.557-.092-.34-.57-.76-1.081-.624zm71.748-2.962c.511-.137 1.023-.274 1.272-.707.5-.864.009-2.012-.934-2.125-2.196-.69-2.259 3.164-.338 2.832zm2.847 3.805c-.171.046-.295.262-.466.308l-.125.216c-.125.216-.125.216-.079.387 0 0 .046.17-.125.216l.046.17.046.17.045.171.046.17s.046.171.216.126c.046.17.216.124.262.295l.216.125c.216.124.387.079.557.033l.341-.091.341-.092c.171-.045.125-.216.296-.261.295-.262.328-.82.237-1.16-.137-.512-.399-.807-.786-.886-.17.045-.216-.125-.386-.08l-.341.092-.341.091zm-5.434.178c-1.023.274-.612 1.808.411 1.534 1.069-.104.612-1.808-.411-1.534zm-133.864 36.417l.511-.137c1.535-.411 2.841-1.675 3.328-3.267.487-1.592.03-3.297-1.234-4.603-1.479-1.431-3.97-1.86-5.662-.676-1.102.661-1.772 1.572-2.01 2.731-.362 1.377.016 3.468 1.188 4.433.478.42.911.67 1.513.874-.383 2.661-.937 5.367-2.31 7.745-7.827-4.663-14.565-10.715-20.122-17.814 2.77-3.3 4.721-6.93 5.808-11.058 1.796-.116 3.58-.96 4.579-2.689 1.543-2.424.459-5.788-1.919-7.16-1.297-.75-2.628-.94-3.991-.575-1.876.502-3.136 1.936-3.748 3.745-.861 2.24.552 4.785 2.497 5.909l.216.124c-.882 3.526-2.584 6.723-4.888 9.716-4.647-6.43-8.02-13.566-10.417-21.146 1.863-1.23 2.679-3.642 2.131-5.687-.777-2.899-3.758-4.475-6.485-3.744-2.728.73-4.475 3.757-3.745 6.485.686 2.557 3.325 4.225 5.974 3.88 1.13 3.535 2.476 7.195 4.117 10.592-3.796.835-7.31.68-10.847-.93l-.183-.683c-.594-2.216-2.926-3.418-4.972-2.87-2.216.594-3.419 2.926-2.871 4.972.594 2.216 2.927 3.418 4.972 2.87 1.023-.274 1.909-1.06 2.408-1.924 3.629 1.951 7.529 2.185 11.962.997 1.857 3.523 3.84 6.829 6.117 9.873.092.341.308.466.524.59 2.892 3.976 6.205 7.474 9.983 10.664-4.17 1.483-8.478 2.455-13.014 2.574-.594-2.216-2.926-3.419-5.143-2.825-2.216.594-3.589 2.972-2.995 5.188.594 2.217 2.972 3.589 5.188 2.996 1.364-.366 2.545-1.413 2.907-2.789 5.218-.302 10.254-1.286 15.186-3.338 6.555 5.369 14.075 9.567 22.173 12.513 1.593.487 2.238-1.878.646-2.365a58.415 58.415 0 01-10.397-4.706c1.884-2.515 2.562-5.438 3.025-8.485zm19.468 22.191c.386.079.557.034.943.113a3.406 3.406 0 00-1.842-.055c-.681.183-1.318.536-1.738 1.014-1.726 1.742-1.415 4.947.747 6.195 2.161 1.248 5.139.085 5.738-2.451.645-2.365-1.233-4.603-3.848-4.816zM842.52 54.45c2.753.725 4.774-1.279 4.987-3.894.191-1.33-.731-2.728-1.982-3.306-1.297-.749-3.48-.712-4.616.506-.59.523-.965 1.172-1.294 1.99-.395 1.934.756 4.184 2.905 4.704zm-51.94-13.126c-.898.058-1.75.286-2.295.98-.42.478-.67.91-.703 1.468l-.125.216.046.17c-.283.99-.009 2.013.776 2.898 1.264 1.306 3.014 1.02 4.366-.073.761-.57.874-1.513.986-2.457.055-1.842-1.425-3.273-3.051-3.202zm-73.483 34.673c-2.217.594-3.76 3.017-3.12 5.404.593 2.217 3.017 3.76 5.404 3.12 2.216-.594 3.759-3.017 3.12-5.404-.81-2.34-3.188-3.714-5.404-3.12z" fill="#F3BC8F"/><path d="M875.19 87.723c-2.046.548-3.124 2.664-2.621 4.54.548 2.045 2.664 3.123 4.539 2.62 2.046-.548 3.124-2.664 2.621-4.54-.502-1.875-2.664-3.123-4.539-2.62zm-69.492-58.855a6.327 6.327 0 00-4.492 7.782 6.327 6.327 0 007.782 4.493 6.327 6.327 0 004.492-7.782c-.697-3.285-4.372-5.407-7.782-4.493zm61.904 17.582c-.913-3.41-4.588-5.531-7.998-4.618-3.409.914-5.531 4.589-4.617 7.998.913 3.41 4.588 5.532 7.998 4.618 3.409-.913 5.531-4.588 4.617-7.998zm6.609-6.705l-.341.092c-1.409.195-2.237 1.878-1.872 3.242.366 1.364 1.924 2.408 3.243 1.872l.341-.091c1.318-.536 2.283-1.708 1.872-3.243-.411-1.534-1.833-2.067-3.243-1.872zM734.093 65.778c-3.921 1.05-6.292 5.158-5.242 9.08 1.051 3.92 5.158 6.292 9.079 5.24 3.921-1.05 6.293-5.157 5.242-9.078-1.221-3.876-5.328-6.247-9.079-5.242zm-55.056 33.208a2.779 2.779 0 00-1.629-2.67c-.864-.5-2.149-.52-3.126-.076-1.102.66-1.431 1.48-1.498 2.594-.304 2.274 2.893 3.976 4.756 2.746.931-.615 1.43-1.48 1.497-2.594zm80.311-20.788c-4.214-6.18-7.022-15.295-3.461-22.462.08-.386.375-.648.625-1.08 3.532 6.362 15.101 12.033 17.204 2.15 2.136-10.44-9.086-10.721-15.607-6.416-.465.308-.761.57-1.056.831-2.604-9.717 6.218-19.755 15.723-19.744 0 0 .125-.216-.046-.17-11.337-2.079-20.11 10.87-17.153 21.224-6.302 7.17-2.456 19.478 3.476 25.929.045.17.341-.091.295-.262zm11.758-26.357c2.552 4.067-.522 9.642-5.254 8.352-3.309-.758-6.485-3.744-8.08-6.971 3.668-3.359 10.691-5.789 13.334-1.38zm101.627 98.679a296.11 296.11 0 01-5.48.006c-3.9-.234-2.807 1.118-.213 2.615 1.513.874 2.81 1.623 3.937 2.417-.125.217-.204.603-.329.819-.204.603-.408 1.206-.566 1.979-.737 2.025-.064 3.855 2.901 1.964.637-.353 1.273-.707 1.693-1.185.295-.262.636-.353.932-.615.91.67 1.945 1.123 2.855 1.793 3.505 2.168 3.684.109 2.999-2.448l-.731-2.728 2.283-1.708c1.818-1.4 2.862-2.959-1.163-2.977-.898.058-1.671-.1-2.569-.042-.366-1.364-.902-2.683-1.267-4.046-1.62-4.683-2.552-4.068-4.15.198-.453 1.035-.736 2.024-1.19 3.06.262.295.183.682.058.898zm-40.436-34.299c-.092-.341-.387-.079-.512.137 1.066 7.389-1.573 15.953-7.445 20.633-.091-.341-.228-.852-.49-1.148-1.915-4.42-6.754-9.519-11.914-8.319-3.455.743-6.35 4.26-4.106 7.861 2.643 4.408 7.819 6.676 12.9 5.863 1.068-.104 2.046-.549 3.023-.993 1.075 5.376-.623 11.313-5.281 14.388-6.226 4.044-15.892 2.066-21.649-1.691-.046-.17-.171.046-.125.217 7.112 5.403 20.94 7.91 26.785-.965 2.587-3.982 2.855-8.439 1.713-12.701 6.941-4.784 10.088-16.225 7.101-23.282zm-19.462 21.477c-2.332-1.202-4.734-4.03-3.282-6.794 1.406-2.935 5.58-1.678 7.696-.601 2.981 1.577 4.996 4.326 6.035 7.519-3.431 2.199-7.161 1.919-10.449-.124zm101.721-.212c1.705-.457.974-3.185-.731-2.728-1.704.457-.974 3.184.731 2.728zm5.225 5.178c1.58-.241.554-2.707-.594-2.216-1.068.103-1.09 1.388-.395 1.933.432.25.648.374.989.283zm-5.742-.289c.512-.137.761-.569.624-1.08-.045-.171-.091-.341-.307-.466-.354-.636-1.376-.362-1.364.365-.125.216-.079.387-.034.557.092.341.57.761 1.081.624zm-71.748 2.963c-.511.137-1.023.274-1.272.706-.499.865-.009 2.013.935 2.125 2.195.691 2.258-3.163.337-2.831zm-2.847-3.806c.171-.045.296-.261.466-.307l.125-.216c.125-.216.125-.216.079-.387 0 0-.046-.17.125-.216l-.046-.171-.045-.17-.046-.171-.046-.17s-.046-.171-.216-.125c-.046-.17-.216-.125-.262-.295l-.216-.125c-.216-.125-.387-.079-.557-.033l-.341.091-.341.091c-.171.046-.125.216-.295.262-.296.262-.329.819-.238 1.16.137.512.399.807.786.886.17-.046.216.125.386.079l.341-.091.341-.092zm5.434-.177c1.023-.274.612-1.808-.411-1.534-1.068.103-.612 1.808.411 1.534zm8.885 14.064c-2.752-.724-4.773 1.279-4.986 3.895-.192 1.33.731 2.727 1.982 3.306 1.297.749 3.48.712 4.615-.506.591-.524.965-1.172 1.294-1.991.396-1.933-.755-4.183-2.905-4.704zm51.94 13.127c.898-.058 1.75-.287 2.295-.981.42-.478.67-.91.703-1.467l.125-.217-.046-.17c.283-.99.009-2.012-.776-2.898-1.264-1.306-3.014-1.02-4.366.073-.761.57-.873 1.513-.986 2.457-.055 1.842 1.425 3.273 3.051 3.203z" fill="#F3BC8F"/><path d="M821.094 122.146c2.045-.548 3.123-2.664 2.621-4.539-.549-2.046-2.665-3.124-4.54-2.621-2.046.548-3.123 2.664-2.621 4.539.503 1.876 2.664 3.124 4.54 2.621zm69.491 58.855a6.328 6.328 0 004.493-7.782 6.328 6.328 0 00-7.782-4.492 6.327 6.327 0 00-4.493 7.782c.697 3.284 4.372 5.406 7.782 4.492zm-61.904-17.582c.913 3.41 4.588 5.532 7.998 4.618 3.41-.914 5.531-4.589 4.618-7.998-.914-3.41-4.589-5.532-7.999-4.618-3.409.914-5.531 4.588-4.617 7.998zm-6.609 6.705l.341-.091c1.41-.195 2.237-1.879 1.872-3.243-.365-1.364-1.924-2.408-3.242-1.872l-.341.091c-1.319.536-2.284 1.709-1.873 3.243.412 1.534 1.833 2.067 3.243 1.872zm140.118-26.033c3.921-1.05 6.293-5.157 5.242-9.079-1.051-3.921-5.158-6.292-9.079-5.241-3.921 1.05-6.292 5.158-5.242 9.079 1.221 3.875 5.329 6.246 9.079 5.241zm-25.255-12.419c4.214 6.179 7.022 15.294 3.461 22.461-.079.387-.375.649-.624 1.081-3.532-6.363-15.102-12.033-17.205-2.151-2.136 10.44 9.086 10.722 15.607 6.416a8.57 8.57 0 001.056-.831c2.604 9.718-6.218 19.756-15.723 19.745 0 0-.125.216.046.17 11.338 2.079 20.111-10.87 17.154-21.224 6.301-7.17 2.455-19.479-3.476-25.929-.046-.171-.341.091-.296.262zm-11.758 26.356c-2.552-4.067.523-9.641 5.254-8.351 3.309.758 6.485 3.744 8.08 6.971-3.668 3.358-10.691 5.788-13.334 1.38zm60.048-23.179c.931-.616 1.647-1.355 2.578-1.97.911.669 1.867 1.509 2.777 2.179 3.209 2.429 3.754 1.735 2.441-2.481-.274-1.023-.718-2-.992-3.023.931-.615 1.647-1.355 2.532-2.141 2.533-2.14 1.452-2.764-1.117-2.807l-3.343-.2c-.445-.978-.843-1.784-1.118-2.807-1.732-3.739-2.913-2.691-4.058.539-.204.603-.362 1.376-.736 2.025l-2.183.036c-3.684-.109-3.318 1.255-.974 3.185.694.545 1.172.965 1.866 1.51-.158.773-1.007 3.742-1.165 4.515-.85 2.968.323 3.933 3.492 1.44zM1113.55 59.35c1.46-.025 3.47-.016 5.48-.007 3.9.234 2.81-1.118.21-2.615-1.51-.874-2.81-1.623-3.93-2.417.12-.216.2-.603.33-.82.2-.602.4-1.205.56-1.978.74-2.025.06-3.854-2.9-1.964-.64.354-1.27.707-1.69 1.185-.3.262-.64.353-.93.615-.91-.67-1.95-1.123-2.86-1.793-3.5-2.167-3.68-.11-3 2.448.23.852.5 1.875.73 2.728l-2.28 1.708c-1.82 1.4-2.86 2.96 1.16 2.977.9-.058 1.67.1 2.57.043.37 1.364.9 2.682 1.27 4.046 1.62 4.682 2.55 4.067 4.15-.199.45-1.035.73-2.024 1.19-3.06-.26-.295-.18-.681-.06-.898zm40.44 34.298c.09.341.38.08.51-.137-1.07-7.388 1.57-15.953 7.44-20.632.09.34.23.852.49 1.147 1.92 4.42 6.76 9.52 11.92 8.32 3.45-.743 6.35-4.26 4.1-7.862-2.64-4.408-7.82-6.675-12.9-5.862-1.07.104-2.04.548-3.02.993-1.07-5.377.62-11.313 5.28-14.389 6.23-4.043 15.89-2.065 21.65 1.691.05.17.17-.046.13-.216-7.12-5.403-20.95-7.91-26.79.964-2.59 3.983-2.85 8.44-1.71 12.702-6.94 4.783-10.09 16.225-7.1 23.281zm19.46-21.477c2.33 1.203 4.73 4.03 3.28 6.795-1.41 2.935-5.58 1.678-7.7.6-2.98-1.576-4.99-4.325-6.03-7.519 3.43-2.198 7.16-1.918 10.45.124zm-101.72.213c-1.71.457-.98 3.184.73 2.728 1.7-.457.97-3.185-.73-2.728zm-5.23-5.179c-1.58.24-.55 2.707.6 2.216 1.06-.103 1.09-1.388.39-1.933-.43-.25-.65-.374-.99-.283zm5.74.289c-.51.137-.76.57-.62 1.081.05.17.09.341.31.466.35.636 1.37.362 1.36-.366.13-.216.08-.386.03-.557-.09-.34-.56-.76-1.08-.624zm71.75-2.962c.51-.137 1.02-.274 1.27-.707.5-.864.01-2.012-.93-2.125-2.2-.69-2.26 3.164-.34 2.832zm2.85 3.805c-.17.046-.3.262-.47.308l-.12.216c-.13.216-.13.216-.08.387 0 0 .04.17-.13.216l.05.17.05.17.04.171.05.17s.04.171.21.126c.05.17.22.124.27.295l.21.125c.22.124.39.079.56.033l.34-.091.34-.092c.17-.045.13-.216.3-.261.29-.262.32-.82.23-1.16-.13-.512-.4-.807-.78-.886-.17.045-.22-.125-.39-.08l-.34.092-.34.091zm-5.44.178c-1.02.274-.61 1.808.42 1.534 1.06-.104.61-1.808-.42-1.534zm-133.86 36.417l.51-.137c1.54-.411 2.84-1.675 3.33-3.267.49-1.592.03-3.297-1.23-4.603-1.48-1.431-3.97-1.86-5.67-.676-1.1.661-1.77 1.572-2.01 2.731-.36 1.377.02 3.468 1.19 4.433.48.42.91.67 1.52.874-.39 2.661-.94 5.367-2.31 7.745-7.832-4.663-14.57-10.715-20.127-17.814 2.77-3.3 4.721-6.93 5.808-11.058 1.796-.116 3.58-.96 4.579-2.689 1.543-2.424.459-5.788-1.919-7.16-1.297-.75-2.628-.94-3.991-.575-1.876.502-3.136 1.936-3.748 3.745-.861 2.24.552 4.785 2.497 5.909l.216.124c-.882 3.526-2.584 6.723-4.888 9.716-4.647-6.43-8.02-13.566-10.417-21.146 1.863-1.23 2.679-3.642 2.131-5.687-.777-2.899-3.758-4.475-6.485-3.744-2.728.73-4.475 3.757-3.745 6.485.686 2.557 3.325 4.225 5.974 3.88 1.13 3.535 2.476 7.195 4.117 10.592-3.796.835-7.31.68-10.847-.93l-.183-.683c-.594-2.216-2.926-3.418-4.972-2.87-2.216.594-3.419 2.926-2.871 4.972.594 2.216 2.927 3.418 4.972 2.87 1.023-.274 1.909-1.06 2.408-1.924 3.629 1.951 7.529 2.185 11.962.997 1.857 3.523 3.84 6.829 6.117 9.873.092.341.308.466.524.59 2.892 3.976 6.205 7.474 9.983 10.664-4.17 1.483-8.478 2.455-13.014 2.574-.594-2.216-2.926-3.419-5.143-2.825-2.216.594-3.589 2.972-2.995 5.188.594 2.217 2.972 3.589 5.188 2.996 1.364-.366 2.545-1.413 2.907-2.789 5.218-.302 10.254-1.286 15.186-3.338 6.555 5.369 14.076 9.567 22.176 12.513 1.59.487 2.23-1.878.64-2.365a58.51 58.51 0 01-10.39-4.706c1.88-2.515 2.56-5.438 3.02-8.485zm19.47 22.191c.39.079.56.034.94.113-.6-.204-1.33-.192-1.84-.055-.68.183-1.32.536-1.74 1.014-1.72 1.742-1.41 4.947.75 6.195 2.16 1.248 5.14.085 5.74-2.451.64-2.365-1.24-4.603-3.85-4.816zm105.51-72.673c2.75.725 4.77-1.279 4.99-3.894.19-1.33-.73-2.728-1.99-3.306-1.29-.749-3.48-.712-4.61.506-.59.523-.97 1.172-1.29 1.99-.4 1.934.75 4.184 2.9 4.704zm-51.94-13.126c-.9.058-1.75.286-2.29.98-.43.478-.67.91-.71 1.468l-.12.216.04.17c-.28.99-.01 2.013.78 2.898 1.26 1.306 3.01 1.02 4.37-.073.76-.57.87-1.513.98-2.457.06-1.842-1.42-3.273-3.05-3.202zm-73.48 34.673c-2.22.594-3.76 3.017-3.12 5.404.59 2.217 3.01 3.76 5.4 3.12 2.22-.594 3.76-3.017 3.12-5.404-.81-2.34-3.19-3.714-5.4-3.12z" fill="#F3BC8F"/><path d="M1165.19 87.723c-2.05.548-3.12 2.664-2.62 4.54.55 2.045 2.66 3.123 4.54 2.62 2.04-.548 3.12-2.664 2.62-4.54-.5-1.875-2.67-3.123-4.54-2.62zm-69.49-58.855a6.32 6.32 0 00-4.49 7.782 6.324 6.324 0 007.78 4.493 6.328 6.328 0 004.49-7.782c-.7-3.285-4.37-5.407-7.78-4.493zm61.9 17.582c-.91-3.41-4.59-5.531-8-4.618-3.41.914-5.53 4.589-4.61 7.998.91 3.41 4.59 5.532 7.99 4.618 3.41-.913 5.54-4.588 4.62-7.998zm6.61-6.705l-.34.092c-1.41.195-2.24 1.878-1.87 3.242.36 1.364 1.92 2.408 3.24 1.872l.34-.091c1.32-.536 2.28-1.708 1.87-3.243-.41-1.534-1.83-2.067-3.24-1.872zm-140.12 26.033c-3.92 1.05-6.29 5.158-5.24 9.08 1.05 3.92 5.16 6.292 9.08 5.24 3.92-1.05 6.29-5.157 5.24-9.078-1.22-3.876-5.33-6.247-9.08-5.242zm-55.053 33.208a2.779 2.779 0 00-1.629-2.67c-.864-.5-2.149-.52-3.126-.076-1.102.66-1.431 1.48-1.498 2.594-.304 2.274 2.893 3.976 4.756 2.746.931-.615 1.43-1.48 1.497-2.594zm80.313-20.788c-4.22-6.18-7.02-15.295-3.46-22.462.08-.386.37-.648.62-1.08 3.53 6.362 15.1 12.033 17.21 2.15 2.13-10.44-9.09-10.721-15.61-6.416-.47.308-.76.57-1.06.831-2.6-9.717 6.22-19.755 15.73-19.744 0 0 .12-.216-.05-.17-11.34-2.079-20.11 10.87-17.15 21.224-6.3 7.17-2.46 19.478 3.47 25.929.05.17.34-.091.3-.262zm11.76-26.357c2.55 4.067-.53 9.642-5.26 8.352-3.31-.758-6.48-3.744-8.08-6.971 3.67-3.359 10.69-5.789 13.34-1.38zm101.62 98.679c-1.45.024-3.46.015-5.48.006-3.9-.234-2.8 1.118-.21 2.615 1.51.874 2.81 1.623 3.94 2.417-.13.217-.21.603-.33.819a14.84 14.84 0 00-.57 1.979c-.73 2.025-.06 3.855 2.9 1.964.64-.353 1.28-.707 1.7-1.185.29-.262.63-.353.93-.615.91.67 1.94 1.123 2.85 1.793 3.51 2.168 3.69.109 3-2.448-.23-.852-.5-1.875-.73-2.728l2.28-1.708c1.82-1.4 2.87-2.959-1.16-2.977-.9.058-1.67-.1-2.57-.042-.36-1.364-.9-2.683-1.27-4.046-1.62-4.683-2.55-4.068-4.14.198-.46 1.035-.74 2.024-1.19 3.06.26.295.18.682.05.898zm-40.43-34.299c-.09-.341-.39-.079-.51.137 1.06 7.389-1.58 15.953-7.45 20.633-.09-.341-.23-.852-.49-1.148-1.92-4.42-6.75-9.519-11.91-8.319-3.46.743-6.35 4.26-4.11 7.861 2.64 4.408 7.82 6.676 12.9 5.863 1.07-.104 2.05-.549 3.02-.993 1.08 5.376-.62 11.313-5.28 14.388-6.22 4.044-15.89 2.066-21.65-1.691-.04-.17-.17.046-.12.217 7.11 5.403 20.94 7.91 26.78-.965 2.59-3.982 2.86-8.439 1.72-12.701 6.94-4.784 10.08-16.225 7.1-23.282zm-19.46 21.477c-2.34-1.202-4.74-4.03-3.29-6.794 1.41-2.935 5.58-1.678 7.7-.601 2.98 1.577 5 4.326 6.03 7.519-3.43 2.199-7.16 1.919-10.44-.124zm101.72-.212c1.7-.457.97-3.185-.73-2.728-1.71.457-.98 3.184.73 2.728zm5.22 5.178c1.58-.241.55-2.707-.59-2.216-1.07.103-1.09 1.388-.4 1.933.43.25.65.374.99.283zm-5.74-.289c.51-.137.76-.569.62-1.08-.04-.171-.09-.341-.3-.466-.36-.636-1.38-.362-1.37.365-.12.216-.08.387-.03.557.09.341.57.761 1.08.624zm-71.75 2.963c-.51.137-1.02.274-1.27.706-.5.865-.01 2.013.93 2.125 2.2.691 2.26-3.163.34-2.831zm-2.85-3.806c.17-.045.3-.261.47-.307l.12-.216c.13-.216.13-.216.08-.387 0 0-.04-.17.13-.216l-.05-.171-.04-.17-.05-.171-.04-.17s-.05-.171-.22-.125c-.05-.17-.22-.125-.26-.295l-.22-.125c-.21-.125-.38-.079-.56-.033l-.34.091-.34.091c-.17.046-.12.216-.29.262-.3.262-.33.819-.24 1.16.14.512.4.807.79.886.17-.046.21.125.38.079l.34-.091.34-.092zm5.44-.177c1.02-.274.61-1.808-.41-1.534-1.07.103-.61 1.808.41 1.534zm8.88 14.064c-2.75-.724-4.77 1.279-4.98 3.895-.19 1.33.73 2.727 1.98 3.306 1.3.749 3.48.712 4.61-.506.6-.524.97-1.172 1.3-1.991.39-1.933-.76-4.183-2.91-4.704zm51.94 13.127c.9-.058 1.75-.287 2.3-.981.42-.478.67-.91.7-1.467l.13-.217-.05-.17c.28-.99.01-2.012-.78-2.898-1.26-1.306-3.01-1.02-4.36.073-.76.57-.88 1.513-.99 2.457-.05 1.842 1.43 3.273 3.05 3.203z" fill="#F3BC8F"/><path d="M1111.09 122.146c2.05-.548 3.13-2.664 2.62-4.539-.54-2.046-2.66-3.124-4.53-2.621-2.05.548-3.13 2.664-2.63 4.539.51 1.876 2.67 3.124 4.54 2.621zm69.49 58.855a6.334 6.334 0 004.5-7.782 6.328 6.328 0 00-7.78-4.492 6.334 6.334 0 00-4.5 7.782c.7 3.284 4.38 5.406 7.78 4.492zm-61.9-17.582c.91 3.41 4.59 5.532 8 4.618 3.41-.914 5.53-4.589 4.62-7.998-.92-3.41-4.59-5.532-8-4.618-3.41.914-5.53 4.588-4.62 7.998zm-6.61 6.705l.34-.091c1.41-.195 2.24-1.879 1.88-3.243-.37-1.364-1.93-2.408-3.25-1.872l-.34.091c-1.32.536-2.28 1.709-1.87 3.243.41 1.534 1.83 2.067 3.24 1.872zm140.12-26.033c3.92-1.05 6.29-5.157 5.24-9.079-1.05-3.921-5.16-6.292-9.08-5.241-3.92 1.05-6.29 5.158-5.24 9.079 1.22 3.875 5.33 6.246 9.08 5.241zm-25.25-12.419c4.21 6.179 7.02 15.294 3.46 22.461-.08.387-.38.649-.63 1.081-3.53-6.363-15.1-12.033-17.2-2.151-2.14 10.44 9.08 10.722 15.6 6.416.47-.307.76-.569 1.06-.831 2.6 9.718-6.22 19.756-15.72 19.745 0 0-.13.216.04.17 11.34 2.079 20.11-10.87 17.16-21.224 6.3-7.17 2.45-19.479-3.48-25.929-.05-.171-.34.091-.29.262zm-11.76 26.356c-2.55-4.067.52-9.641 5.25-8.351 3.31.758 6.49 3.744 8.08 6.971-3.67 3.358-10.69 5.788-13.33 1.38zm60.04-23.179c.94-.616 1.65-1.355 2.58-1.97.91.669 1.87 1.509 2.78 2.179 3.21 2.429 3.75 1.735 2.44-2.481-.27-1.023-.72-2-.99-3.023.93-.615 1.65-1.355 2.53-2.141 2.53-2.14 1.45-2.764-1.12-2.807l-3.34-.2c-.44-.978-.84-1.784-1.12-2.807-1.73-3.739-2.91-2.691-4.05.539-.21.603-.37 1.376-.74 2.025l-2.18.036c-3.69-.109-3.32 1.255-.98 3.185.7.545 1.17.965 1.87 1.51-.16.773-1.01 3.742-1.17 4.515-.85 2.968.33 3.933 3.49 1.44zm128.33-75.499c1.46-.025 3.47-.016 5.48-.007 3.9.234 2.81-1.118.21-2.615-1.51-.874-2.81-1.623-3.93-2.417.12-.216.2-.603.33-.82.2-.602.4-1.205.56-1.978.74-2.025.06-3.854-2.9-1.964-.64.354-1.27.707-1.69 1.185-.3.262-.64.353-.93.615-.91-.67-1.95-1.123-2.86-1.793-3.5-2.167-3.68-.11-3 2.448.23.852.5 1.875.73 2.728l-2.28 1.708c-1.82 1.4-2.86 2.96 1.16 2.977.9-.058 1.67.1 2.57.043.37 1.364.9 2.682 1.27 4.046 1.62 4.682 2.55 4.067 4.15-.199.45-1.035.73-2.024 1.19-3.06-.26-.295-.18-.681-.06-.898zm40.44 34.298c.09.341.38.08.51-.137-1.07-7.388 1.57-15.953 7.44-20.632.09.34.23.852.49 1.147 1.92 4.42 6.76 9.52 11.92 8.32 3.45-.743 6.35-4.26 4.1-7.862-2.64-4.408-7.82-6.675-12.9-5.862-1.07.104-2.04.548-3.02.993-1.07-5.377.62-11.313 5.28-14.389 6.23-4.043 15.89-2.065 21.65 1.691.05.17.17-.046.13-.216-7.12-5.403-20.95-7.91-26.79.964-2.59 3.983-2.85 8.44-1.71 12.702-6.94 4.783-10.09 16.225-7.1 23.281zm19.46-21.477c2.33 1.203 4.73 4.03 3.28 6.795-1.41 2.935-5.58 1.678-7.7.6-2.98-1.576-4.99-4.325-6.03-7.519 3.43-2.198 7.16-1.918 10.45.124zm-101.72.213c-1.71.457-.98 3.184.73 2.728 1.7-.457.97-3.185-.73-2.728zm-5.23-5.179c-1.58.24-.55 2.707.6 2.216 1.06-.103 1.09-1.388.39-1.933-.43-.25-.65-.374-.99-.283zm5.74.289c-.51.137-.76.57-.62 1.081.05.17.09.341.31.466.35.636 1.37.362 1.36-.366.13-.216.08-.386.03-.557-.09-.34-.56-.76-1.08-.624zm71.75-2.962c.51-.137 1.02-.274 1.27-.707.5-.864.01-2.012-.93-2.125-2.2-.69-2.26 3.164-.34 2.832zm2.85 3.805c-.17.046-.3.262-.47.308l-.12.216c-.13.216-.13.216-.08.387 0 0 .04.17-.13.216l.05.17.05.17.04.171.05.17s.04.171.21.126c.05.17.22.124.27.295l.21.125c.22.124.39.079.56.033l.34-.091.34-.092c.17-.045.13-.216.3-.261.29-.262.32-.82.23-1.16-.13-.512-.4-.807-.78-.886-.17.045-.22-.125-.39-.08l-.34.092-.34.091zm-5.44.178c-1.02.274-.61 1.808.42 1.534 1.06-.104.61-1.808-.42-1.534zm-133.86 36.417l.51-.137c1.54-.411 2.84-1.675 3.33-3.267.49-1.592.03-3.297-1.23-4.603-1.48-1.431-3.97-1.86-5.67-.676-1.1.661-1.77 1.572-2.01 2.731-.36 1.377.02 3.468 1.19 4.433.48.42.91.67 1.52.874-.39 2.661-.94 5.367-2.31 7.745-7.83-4.663-14.57-10.715-20.13-17.814 2.77-3.3 4.72-6.93 5.81-11.058 1.8-.116 3.58-.96 4.58-2.689 1.54-2.424.46-5.788-1.92-7.16-1.3-.75-2.63-.94-3.99-.575-1.88.502-3.14 1.936-3.75 3.745-.86 2.24.55 4.785 2.5 5.909l.22.124c-.89 3.526-2.59 6.723-4.89 9.716-4.65-6.43-8.02-13.566-10.42-21.146 1.86-1.23 2.68-3.642 2.13-5.687-.78-2.899-3.76-4.475-6.48-3.744-2.73.73-4.48 3.757-3.75 6.485.69 2.557 3.33 4.225 5.97 3.88 1.13 3.535 2.48 7.195 4.12 10.592-3.79.835-7.31.68-10.85-.93a17.2 17.2 0 00-.18-.683c-.59-2.216-2.92-3.418-4.97-2.87-2.22.594-3.42 2.926-2.87 4.972.59 2.216 2.93 3.418 4.97 2.87 1.02-.274 1.91-1.06 2.41-1.924 3.63 1.951 7.53 2.185 11.96.997 1.86 3.523 3.84 6.829 6.12 9.873.09.341.31.466.52.59 2.89 3.976 6.21 7.474 9.99 10.664-4.18 1.483-8.48 2.455-13.02 2.574-.59-2.216-2.93-3.419-5.14-2.825-2.22.594-3.59 2.972-3 5.188.6 2.217 2.97 3.589 5.19 2.996 1.36-.366 2.55-1.413 2.91-2.789 5.22-.302 10.25-1.286 15.18-3.338 6.56 5.369 14.08 9.567 22.18 12.513 1.59.487 2.23-1.878.64-2.365a58.51 58.51 0 01-10.39-4.706c1.88-2.515 2.56-5.438 3.02-8.485zm19.47 22.191c.39.079.56.034.94.113-.6-.204-1.33-.192-1.84-.055-.68.183-1.32.536-1.74 1.014-1.72 1.742-1.41 4.947.75 6.195 2.16 1.248 5.14.085 5.74-2.451.64-2.365-1.24-4.603-3.85-4.816zm105.51-72.673c2.75.725 4.77-1.279 4.99-3.894.19-1.33-.73-2.728-1.99-3.306-1.29-.749-3.48-.712-4.61.506-.59.523-.97 1.172-1.29 1.99-.4 1.934.75 4.184 2.9 4.704zm-51.94-13.126c-.9.058-1.75.286-2.29.98-.43.478-.67.91-.71 1.468l-.12.216.04.17c-.28.99-.01 2.013.78 2.898 1.26 1.306 3.01 1.02 4.37-.073.76-.57.87-1.513.98-2.457.06-1.842-1.42-3.273-3.05-3.202zm-73.48 34.673c-2.22.594-3.76 3.017-3.12 5.404.59 2.217 3.01 3.76 5.4 3.12 2.22-.594 3.76-3.017 3.12-5.404-.81-2.34-3.19-3.714-5.4-3.12z" fill="#F3BC8F"/><path d="M1455.19 87.723c-2.05.548-3.12 2.664-2.62 4.54.55 2.045 2.66 3.123 4.54 2.62 2.04-.548 3.12-2.664 2.62-4.54-.5-1.875-2.67-3.123-4.54-2.62zm-69.49-58.855a6.32 6.32 0 00-4.49 7.782 6.324 6.324 0 007.78 4.493 6.328 6.328 0 004.49-7.782c-.7-3.285-4.37-5.407-7.78-4.493zm61.9 17.582c-.91-3.41-4.59-5.531-8-4.618-3.41.914-5.53 4.589-4.61 7.998.91 3.41 4.59 5.532 7.99 4.618 3.41-.913 5.54-4.588 4.62-7.998zm6.61-6.705l-.34.092c-1.41.195-2.24 1.878-1.87 3.242.36 1.364 1.92 2.408 3.24 1.872l.34-.091c1.32-.536 2.28-1.708 1.87-3.243-.41-1.534-1.83-2.067-3.24-1.872zm-140.12 26.033c-3.92 1.05-6.29 5.158-5.24 9.08 1.05 3.92 5.16 6.292 9.08 5.24 3.92-1.05 6.29-5.157 5.24-9.078-1.22-3.876-5.33-6.247-9.08-5.242zm-55.05 33.208c.06-1.114-.6-2.217-1.63-2.67-.87-.5-2.15-.52-3.13-.076-1.1.66-1.43 1.48-1.5 2.594-.3 2.274 2.9 3.976 4.76 2.746.93-.615 1.43-1.48 1.5-2.594zm80.31-20.788c-4.22-6.18-7.02-15.295-3.46-22.462.08-.386.37-.648.62-1.08 3.53 6.362 15.1 12.033 17.21 2.15 2.13-10.44-9.09-10.721-15.61-6.416-.47.308-.76.57-1.06.831-2.6-9.717 6.22-19.755 15.73-19.744 0 0 .12-.216-.05-.17-11.34-2.079-20.11 10.87-17.15 21.224-6.3 7.17-2.46 19.478 3.47 25.929.05.17.34-.091.3-.262zm11.76-26.357c2.55 4.067-.53 9.642-5.26 8.352-3.31-.758-6.48-3.744-8.08-6.971 3.67-3.359 10.69-5.789 13.34-1.38zm101.62 98.679c-1.45.024-3.46.015-5.48.006-3.9-.234-2.8 1.118-.21 2.615 1.51.874 2.81 1.623 3.94 2.417-.13.217-.21.603-.33.819a14.84 14.84 0 00-.57 1.979c-.73 2.025-.06 3.855 2.9 1.964.64-.353 1.28-.707 1.7-1.185.29-.262.63-.353.93-.615.91.67 1.94 1.123 2.85 1.793 3.51 2.168 3.69.109 3-2.448-.23-.852-.5-1.875-.73-2.728l2.28-1.708c1.82-1.4 2.87-2.959-1.16-2.977-.9.058-1.67-.1-2.57-.042-.36-1.364-.9-2.683-1.27-4.046-1.62-4.683-2.55-4.068-4.14.198-.46 1.035-.74 2.024-1.19 3.06.26.295.18.682.05.898zm-40.43-34.299c-.09-.341-.39-.079-.51.137 1.06 7.389-1.58 15.953-7.45 20.633-.09-.341-.23-.852-.49-1.148-1.92-4.42-6.75-9.519-11.91-8.319-3.46.743-6.35 4.26-4.11 7.861 2.64 4.408 7.82 6.676 12.9 5.863 1.07-.104 2.05-.549 3.02-.993 1.08 5.376-.62 11.313-5.28 14.388-6.22 4.044-15.89 2.066-21.65-1.691-.04-.17-.17.046-.12.217 7.11 5.403 20.94 7.91 26.78-.965 2.59-3.982 2.86-8.439 1.72-12.701 6.94-4.784 10.08-16.225 7.1-23.282zm-19.46 21.477c-2.34-1.202-4.74-4.03-3.29-6.794 1.41-2.935 5.58-1.678 7.7-.601 2.98 1.577 5 4.326 6.03 7.519-3.43 2.199-7.16 1.919-10.44-.124zm101.72-.212c1.7-.457.97-3.185-.73-2.728-1.71.457-.98 3.184.73 2.728zm5.22 5.178c1.58-.241.55-2.707-.59-2.216-1.07.103-1.09 1.388-.4 1.933.43.25.65.374.99.283zm-5.74-.289c.51-.137.76-.569.62-1.08-.04-.171-.09-.341-.3-.466-.36-.636-1.38-.362-1.37.365-.12.216-.08.387-.03.557.09.341.57.761 1.08.624zm-71.75 2.963c-.51.137-1.02.274-1.27.706-.5.865-.01 2.013.93 2.125 2.2.691 2.26-3.163.34-2.831zm-2.85-3.806c.17-.045.3-.261.47-.307l.12-.216c.13-.216.13-.216.08-.387 0 0-.04-.17.13-.216l-.05-.171-.04-.17-.05-.171-.04-.17s-.05-.171-.22-.125c-.05-.17-.22-.125-.26-.295l-.22-.125c-.21-.125-.38-.079-.56-.033l-.34.091-.34.091c-.17.046-.12.216-.29.262-.3.262-.33.819-.24 1.16.14.512.4.807.79.886.17-.046.21.125.38.079l.34-.091.34-.092zm5.44-.177c1.02-.274.61-1.808-.41-1.534-1.07.103-.61 1.808.41 1.534zm8.88 14.064c-2.75-.724-4.77 1.279-4.98 3.895-.19 1.33.73 2.727 1.98 3.306 1.3.749 3.48.712 4.61-.506.6-.524.97-1.172 1.3-1.991.39-1.933-.76-4.183-2.91-4.704zm51.94 13.127c.9-.058 1.75-.287 2.3-.981.42-.478.67-.91.7-1.467l.13-.217-.05-.17c.28-.99.01-2.012-.78-2.898-1.26-1.306-3.01-1.02-4.36.073-.76.57-.88 1.513-.99 2.457-.05 1.842 1.43 3.273 3.05 3.203z" fill="#F3BC8F"/><path d="M1401.09 122.146c2.05-.548 3.13-2.664 2.62-4.539-.54-2.046-2.66-3.124-4.53-2.621-2.05.548-3.13 2.664-2.63 4.539.51 1.876 2.67 3.124 4.54 2.621zm69.49 58.855a6.334 6.334 0 004.5-7.782 6.328 6.328 0 00-7.78-4.492 6.334 6.334 0 00-4.5 7.782c.7 3.284 4.38 5.406 7.78 4.492zm-61.9-17.582c.91 3.41 4.59 5.532 8 4.618 3.41-.914 5.53-4.589 4.62-7.998-.92-3.41-4.59-5.532-8-4.618-3.41.914-5.53 4.588-4.62 7.998zm-6.61 6.705l.34-.091c1.41-.195 2.24-1.879 1.88-3.243-.37-1.364-1.93-2.408-3.25-1.872l-.34.091c-1.32.536-2.28 1.709-1.87 3.243.41 1.534 1.83 2.067 3.24 1.872zm140.12-26.033c3.92-1.05 6.29-5.157 5.24-9.079-1.05-3.921-5.16-6.292-9.08-5.241-3.92 1.05-6.29 5.158-5.24 9.079 1.22 3.875 5.33 6.246 9.08 5.241zm-25.25-12.419c4.21 6.179 7.02 15.294 3.46 22.461-.08.387-.38.649-.63 1.081-3.53-6.363-15.1-12.033-17.2-2.151-2.14 10.44 9.08 10.722 15.6 6.416.47-.307.76-.569 1.06-.831 2.6 9.718-6.22 19.756-15.72 19.745 0 0-.13.216.04.17 11.34 2.079 20.11-10.87 17.16-21.224 6.3-7.17 2.45-19.479-3.48-25.929-.05-.171-.34.091-.29.262zm-11.76 26.356c-2.55-4.067.52-9.641 5.25-8.351 3.31.758 6.49 3.744 8.08 6.971-3.67 3.358-10.69 5.788-13.33 1.38zm60.04-23.179c.94-.616 1.65-1.355 2.58-1.97.91.669 1.87 1.509 2.78 2.179 3.21 2.429 3.75 1.735 2.44-2.481-.27-1.023-.72-2-.99-3.023.93-.615 1.65-1.355 2.53-2.141 2.53-2.14 1.45-2.764-1.12-2.807l-3.34-.2c-.44-.978-.84-1.784-1.12-2.807-1.73-3.739-2.91-2.691-4.05.539-.21.603-.37 1.376-.74 2.025l-2.18.036c-3.69-.109-3.32 1.255-.98 3.185.7.545 1.17.965 1.87 1.51-.16.773-1.01 3.742-1.17 4.515-.85 2.968.33 3.933 3.49 1.44zm128.33-75.499c1.46-.025 3.47-.016 5.48-.007 3.9.234 2.81-1.118.21-2.615-1.51-.874-2.81-1.623-3.93-2.417.12-.216.2-.603.33-.82.2-.602.4-1.205.56-1.978.74-2.025.06-3.854-2.9-1.964-.64.354-1.27.707-1.69 1.185-.3.262-.64.353-.93.615-.91-.67-1.95-1.123-2.86-1.793-3.5-2.167-3.68-.11-3 2.448.23.852.5 1.875.73 2.728l-2.28 1.708c-1.82 1.4-2.86 2.96 1.16 2.977.9-.058 1.67.1 2.57.043.37 1.364.9 2.682 1.27 4.046 1.62 4.682 2.55 4.067 4.15-.199.45-1.035.73-2.024 1.19-3.06-.26-.295-.18-.681-.06-.898zm40.44 34.298c.09.341.38.08.51-.137-1.07-7.388 1.57-15.953 7.44-20.632.09.34.23.852.49 1.147 1.92 4.42 6.76 9.52 11.92 8.32 3.45-.743 6.35-4.26 4.1-7.862-2.64-4.408-7.82-6.675-12.9-5.862-1.07.104-2.04.548-3.02.993-1.07-5.377.62-11.313 5.28-14.389 6.23-4.043 15.89-2.065 21.65 1.691.05.17.17-.046.13-.216-7.12-5.403-20.95-7.91-26.79.964-2.59 3.983-2.85 8.44-1.71 12.702-6.94 4.783-10.09 16.225-7.1 23.281zm19.46-21.477c2.33 1.203 4.73 4.03 3.28 6.795-1.41 2.935-5.58 1.678-7.7.6-2.98-1.576-4.99-4.325-6.03-7.519 3.43-2.198 7.16-1.918 10.45.124zm-101.72.213c-1.71.457-.98 3.184.73 2.728 1.7-.457.97-3.185-.73-2.728zm-5.23-5.179c-1.58.24-.55 2.707.6 2.216 1.06-.103 1.09-1.388.39-1.933-.43-.25-.65-.374-.99-.283zm5.74.289c-.51.137-.76.57-.62 1.081.05.17.09.341.31.466.35.636 1.37.362 1.36-.366.13-.216.08-.386.03-.557-.09-.34-.56-.76-1.08-.624zm71.75-2.962c.51-.137 1.02-.274 1.27-.707.5-.864.01-2.012-.93-2.125-2.2-.69-2.26 3.164-.34 2.832zm2.85 3.805c-.17.046-.3.262-.47.308l-.12.216c-.13.216-.13.216-.08.387 0 0 .04.17-.13.216l.05.17.05.17.04.171.05.17s.04.171.21.126c.05.17.22.124.27.295l.21.125c.22.124.39.079.56.033l.34-.091.34-.092c.17-.045.13-.216.3-.261.29-.262.32-.82.23-1.16-.13-.512-.4-.807-.78-.886-.17.045-.22-.125-.39-.08l-.34.092-.34.091zm-5.44.178c-1.02.274-.61 1.808.42 1.534 1.06-.104.61-1.808-.42-1.534zm-133.86 36.417l.51-.137c1.54-.411 2.84-1.675 3.33-3.267.49-1.592.03-3.297-1.23-4.603-1.48-1.431-3.97-1.86-5.67-.676-1.1.661-1.77 1.572-2.01 2.731-.36 1.377.02 3.468 1.19 4.433.48.42.91.67 1.52.874-.39 2.661-.94 5.367-2.31 7.745-7.83-4.663-14.57-10.715-20.13-17.814 2.77-3.3 4.72-6.93 5.81-11.058 1.8-.116 3.58-.96 4.58-2.689 1.54-2.424.46-5.788-1.92-7.16-1.3-.75-2.63-.94-3.99-.575-1.88.502-3.14 1.936-3.75 3.745-.86 2.24.55 4.785 2.5 5.909l.22.124c-.89 3.526-2.59 6.723-4.89 9.716-4.65-6.43-8.02-13.566-10.42-21.146 1.86-1.23 2.68-3.642 2.13-5.687-.78-2.899-3.76-4.475-6.48-3.744-2.73.73-4.48 3.757-3.75 6.485.69 2.557 3.33 4.225 5.97 3.88 1.13 3.535 2.48 7.195 4.12 10.592-3.79.835-7.31.68-10.85-.93a17.2 17.2 0 00-.18-.683c-.59-2.216-2.92-3.418-4.97-2.87-2.22.594-3.42 2.926-2.87 4.972.59 2.216 2.93 3.418 4.97 2.87 1.02-.274 1.91-1.06 2.41-1.924 3.63 1.951 7.53 2.185 11.96.997 1.86 3.523 3.84 6.829 6.12 9.873.09.341.31.466.52.59 2.89 3.976 6.21 7.474 9.99 10.664-4.18 1.483-8.48 2.455-13.02 2.574-.59-2.216-2.93-3.419-5.14-2.825-2.22.594-3.59 2.972-3 5.188.6 2.217 2.97 3.589 5.19 2.996 1.36-.366 2.55-1.413 2.91-2.789 5.22-.302 10.25-1.286 15.18-3.338 6.56 5.369 14.08 9.567 22.18 12.513 1.59.487 2.23-1.878.64-2.365a58.51 58.51 0 01-10.39-4.706c1.88-2.515 2.56-5.438 3.02-8.485zm19.47 22.191c.39.079.56.034.94.113-.6-.204-1.33-.192-1.84-.055-.68.183-1.32.536-1.74 1.014-1.72 1.742-1.41 4.947.75 6.195 2.16 1.248 5.14.085 5.74-2.451.64-2.365-1.24-4.603-3.85-4.816zm105.51-72.673c2.75.725 4.77-1.279 4.99-3.894.19-1.33-.73-2.728-1.99-3.306-1.29-.749-3.48-.712-4.61.506-.59.523-.97 1.172-1.29 1.99-.4 1.934.75 4.184 2.9 4.704zm-51.94-13.126c-.9.058-1.75.286-2.29.98-.43.478-.67.91-.71 1.468l-.12.216.04.17c-.28.99-.01 2.013.78 2.898 1.26 1.306 3.01 1.02 4.37-.073.76-.57.87-1.513.98-2.457.06-1.842-1.42-3.273-3.05-3.202zm-73.48 34.673c-2.22.594-3.76 3.017-3.12 5.404.59 2.217 3.01 3.76 5.4 3.12 2.22-.594 3.76-3.017 3.12-5.404-.81-2.34-3.19-3.714-5.4-3.12z" fill="#F3BC8F"/><path d="M1745.19 87.723c-2.05.548-3.12 2.664-2.62 4.54.55 2.045 2.66 3.123 4.54 2.62 2.04-.548 3.12-2.664 2.62-4.54-.5-1.875-2.67-3.123-4.54-2.62zm-69.49-58.855a6.32 6.32 0 00-4.49 7.782 6.324 6.324 0 007.78 4.493 6.328 6.328 0 004.49-7.782c-.7-3.285-4.37-5.407-7.78-4.493zm61.9 17.582c-.91-3.41-4.59-5.531-8-4.618-3.41.914-5.53 4.589-4.61 7.998.91 3.41 4.59 5.532 7.99 4.618 3.41-.913 5.54-4.588 4.62-7.998zm6.61-6.705l-.34.092c-1.41.195-2.24 1.878-1.87 3.242.36 1.364 1.92 2.408 3.24 1.872l.34-.091c1.32-.536 2.28-1.708 1.87-3.243-.41-1.534-1.83-2.067-3.24-1.872zm-140.12 26.033c-3.92 1.05-6.29 5.158-5.24 9.08 1.05 3.92 5.16 6.292 9.08 5.24 3.92-1.05 6.29-5.157 5.24-9.078-1.22-3.876-5.33-6.247-9.08-5.242zm-55.05 33.208c.06-1.114-.6-2.217-1.63-2.67-.87-.5-2.15-.52-3.13-.076-1.1.66-1.43 1.48-1.5 2.594-.3 2.274 2.9 3.976 4.76 2.746.93-.615 1.43-1.48 1.5-2.594zm80.31-20.788c-4.22-6.18-7.02-15.295-3.46-22.462.08-.386.37-.648.62-1.08 3.53 6.362 15.1 12.033 17.21 2.15 2.13-10.44-9.09-10.721-15.61-6.416-.47.308-.76.57-1.06.831-2.6-9.717 6.22-19.755 15.73-19.744 0 0 .12-.216-.05-.17-11.34-2.079-20.11 10.87-17.15 21.224-6.3 7.17-2.46 19.478 3.47 25.929.05.17.34-.091.3-.262zm11.76-26.357c2.55 4.067-.53 9.642-5.26 8.352-3.31-.758-6.48-3.744-8.08-6.971 3.67-3.359 10.69-5.789 13.34-1.38zm101.62 98.679c-1.45.024-3.46.015-5.48.006-3.9-.234-2.8 1.118-.21 2.615 1.51.874 2.81 1.623 3.94 2.417-.13.217-.21.603-.33.819a14.84 14.84 0 00-.57 1.979c-.73 2.025-.06 3.855 2.9 1.964.64-.353 1.28-.707 1.7-1.185.29-.262.63-.353.93-.615.91.67 1.94 1.123 2.85 1.793 3.51 2.168 3.69.109 3-2.448-.23-.852-.5-1.875-.73-2.728l2.28-1.708c1.82-1.4 2.87-2.959-1.16-2.977-.9.058-1.67-.1-2.57-.042-.36-1.364-.9-2.683-1.27-4.046-1.62-4.683-2.55-4.068-4.14.198-.46 1.035-.74 2.024-1.19 3.06.26.295.18.682.05.898zm-40.43-34.299c-.09-.341-.39-.079-.51.137 1.06 7.389-1.58 15.953-7.45 20.633-.09-.341-.23-.852-.49-1.148-1.92-4.42-6.75-9.519-11.91-8.319-3.46.743-6.35 4.26-4.11 7.861 2.64 4.408 7.82 6.676 12.9 5.863 1.07-.104 2.05-.549 3.02-.993 1.08 5.376-.62 11.313-5.28 14.388-6.22 4.044-15.89 2.066-21.65-1.691-.04-.17-.17.046-.12.217 7.11 5.403 20.94 7.91 26.78-.965 2.59-3.982 2.86-8.439 1.72-12.701 6.94-4.784 10.08-16.225 7.1-23.282zm-19.46 21.477c-2.34-1.202-4.74-4.03-3.29-6.794 1.41-2.935 5.58-1.678 7.7-.601 2.98 1.577 5 4.326 6.03 7.519-3.43 2.199-7.16 1.919-10.44-.124zm101.72-.212c1.7-.457.97-3.185-.73-2.728-1.71.457-.98 3.184.73 2.728zm5.22 5.178c1.58-.241.55-2.707-.59-2.216-1.07.103-1.09 1.388-.4 1.933.43.25.65.374.99.283zm-5.74-.289c.51-.137.76-.569.62-1.08-.04-.171-.09-.341-.3-.466-.36-.636-1.38-.362-1.37.365-.12.216-.08.387-.03.557.09.341.57.761 1.08.624zm-71.75 2.963c-.51.137-1.02.274-1.27.706-.5.865-.01 2.013.93 2.125 2.2.691 2.26-3.163.34-2.831zm-2.85-3.806c.17-.045.3-.261.47-.307l.12-.216c.13-.216.13-.216.08-.387 0 0-.04-.17.13-.216l-.05-.171-.04-.17-.05-.171-.04-.17s-.05-.171-.22-.125c-.05-.17-.22-.125-.26-.295l-.22-.125c-.21-.125-.38-.079-.56-.033l-.34.091-.34.091c-.17.046-.12.216-.29.262-.3.262-.33.819-.24 1.16.14.512.4.807.79.886.17-.046.21.125.38.079l.34-.091.34-.092zm5.44-.177c1.02-.274.61-1.808-.41-1.534-1.07.103-.61 1.808.41 1.534zm8.88 14.064c-2.75-.724-4.77 1.279-4.98 3.895-.19 1.33.73 2.727 1.98 3.306 1.3.749 3.48.712 4.61-.506.6-.524.97-1.172 1.3-1.991.39-1.933-.76-4.183-2.91-4.704zm51.94 13.127c.9-.058 1.75-.287 2.3-.981.42-.478.67-.91.7-1.467l.13-.217-.05-.17c.28-.99.01-2.012-.78-2.898-1.26-1.306-3.01-1.02-4.36.073-.76.57-.88 1.513-.99 2.457-.05 1.842 1.43 3.273 3.05 3.203z" fill="#F3BC8F"/><path d="M1691.09 122.146c2.05-.548 3.13-2.664 2.62-4.539-.54-2.046-2.66-3.124-4.53-2.621-2.05.548-3.13 2.664-2.63 4.539.51 1.876 2.67 3.124 4.54 2.621zm69.49 58.855a6.334 6.334 0 004.5-7.782 6.328 6.328 0 00-7.78-4.492 6.334 6.334 0 00-4.5 7.782c.7 3.284 4.38 5.406 7.78 4.492zm-61.9-17.582c.91 3.41 4.59 5.532 8 4.618 3.41-.914 5.53-4.589 4.62-7.998-.92-3.41-4.59-5.532-8-4.618-3.41.914-5.53 4.588-4.62 7.998zm-6.61 6.705l.34-.091c1.41-.195 2.24-1.879 1.88-3.243-.37-1.364-1.93-2.408-3.25-1.872l-.34.091c-1.32.536-2.28 1.709-1.87 3.243.41 1.534 1.83 2.067 3.24 1.872zm140.12-26.033c3.92-1.05 6.29-5.157 5.24-9.079-1.05-3.921-5.16-6.292-9.08-5.241-3.92 1.05-6.29 5.158-5.24 9.079 1.22 3.875 5.33 6.246 9.08 5.241zm-25.25-12.419c4.21 6.179 7.02 15.294 3.46 22.461-.08.387-.38.649-.63 1.081-3.53-6.363-15.1-12.033-17.2-2.151-2.14 10.44 9.08 10.722 15.6 6.416.47-.307.76-.569 1.06-.831 2.6 9.718-6.22 19.756-15.72 19.745 0 0-.13.216.04.17 11.34 2.079 20.11-10.87 17.16-21.224 6.3-7.17 2.45-19.479-3.48-25.929-.05-.171-.34.091-.29.262zm-11.76 26.356c-2.55-4.067.52-9.641 5.25-8.351 3.31.758 6.49 3.744 8.08 6.971-3.67 3.358-10.69 5.788-13.33 1.38zm60.04-23.179c.94-.616 1.65-1.355 2.58-1.97.91.669 1.87 1.509 2.78 2.179 3.21 2.429 3.75 1.735 2.44-2.481-.27-1.023-.72-2-.99-3.023.93-.615 1.65-1.355 2.53-2.141 2.53-2.14 1.45-2.764-1.12-2.807l-3.34-.2c-.44-.978-.84-1.784-1.12-2.807-1.73-3.739-2.91-2.691-4.05.539-.21.603-.37 1.376-.74 2.025l-2.18.036c-3.69-.109-3.32 1.255-.98 3.185.7.545 1.17.965 1.87 1.51-.16.773-1.01 3.742-1.17 4.515-.85 2.968.33 3.933 3.49 1.44zm22.32-29.917l.51-.137c1.54-.411 2.84-1.675 3.33-3.267.49-1.592.03-3.297-1.23-4.603-1.48-1.431-3.97-1.86-5.67-.676-1.1.661-1.77 1.572-2.01 2.731-.36 1.377.02 3.468 1.19 4.433.48.42.91.67 1.52.874-.39 2.661-.94 5.367-2.31 7.745-7.83-4.663-14.57-10.715-20.13-17.814 2.77-3.3 4.72-6.93 5.81-11.058 1.8-.116 3.58-.96 4.58-2.689 1.54-2.424.46-5.788-1.92-7.16-1.3-.75-2.63-.94-3.99-.575-1.88.502-3.14 1.936-3.75 3.745-.86 2.24.55 4.785 2.5 5.909l.22.124c-.89 3.526-2.59 6.723-4.89 9.716-4.65-6.43-8.02-13.566-10.42-21.146 1.86-1.23 2.68-3.642 2.13-5.687-.78-2.899-3.76-4.475-6.48-3.744-2.73.73-4.48 3.757-3.75 6.485.69 2.557 3.33 4.225 5.97 3.88 1.13 3.535 2.48 7.195 4.12 10.592-3.79.835-7.31.68-10.85-.93a17.2 17.2 0 00-.18-.683c-.59-2.216-2.92-3.418-4.97-2.87-2.22.594-3.42 2.926-2.87 4.972.59 2.216 2.93 3.418 4.97 2.87 1.02-.274 1.91-1.06 2.41-1.924 3.63 1.951 7.53 2.185 11.96.997 1.86 3.523 3.84 6.829 6.12 9.873.09.341.31.466.52.59 2.89 3.976 6.21 7.474 9.99 10.664-4.18 1.483-8.48 2.455-13.02 2.574-.59-2.216-2.93-3.419-5.14-2.825-2.22.594-3.59 2.972-3 5.188.6 2.217 2.97 3.589 5.19 2.996 1.36-.366 2.55-1.413 2.91-2.789 5.22-.302 10.25-1.286 15.18-3.338 6.56 5.369 14.08 9.567 22.18 12.513 1.59.487 2.23-1.878.64-2.365a58.51 58.51 0 01-10.39-4.706c1.88-2.515 2.56-5.438 3.02-8.485zm19.47 22.191c.39.079.56.034.94.113-.6-.204-1.33-.192-1.84-.055-.68.183-1.32.536-1.74 1.014-1.72 1.742-1.41 4.947.75 6.195 2.16 1.248 5.14.085 5.74-2.451.64-2.365-1.24-4.603-3.85-4.816zm-19.91-51.126c-2.22.594-3.76 3.017-3.12 5.404.59 2.217 3.01 3.76 5.4 3.12 2.22-.594 3.76-3.017 3.12-5.404-.81-2.34-3.19-3.714-5.4-3.12zm16.99-10.219c-3.92 1.05-6.29 5.158-5.24 9.08 1.05 3.92 5.16 6.292 9.08 5.24 3.92-1.05 6.29-5.157 5.24-9.078-1.22-3.876-5.33-6.247-9.08-5.242z" fill="#F3BC8F"/><path d="M1839.04 98.986c.06-1.114-.6-2.217-1.63-2.67-.87-.5-2.15-.52-3.13-.076-1.1.66-1.43 1.48-1.5 2.594-.3 2.274 2.9 3.976 4.76 2.746.93-.615 1.43-1.48 1.5-2.594zm80.31-20.788c-4.22-6.18-7.02-15.295-3.46-22.462.08-.386.37-.648.62-1.08 3.53 6.362 15.1 12.033 17.21 2.15 2.13-10.44-9.09-10.721-15.61-6.416-.47.308-.76.57-1.06.831-2.6-9.717 6.22-19.755 15.73-19.744 0 0 .12-.216-.05-.17-11.34-2.079-20.11 10.87-17.15 21.224-6.3 7.17-2.46 19.478 3.47 25.929.05.17.34-.091.3-.262zm11.76-26.357c2.55 4.067-.53 9.642-5.26 8.352-3.31-.758-6.48-3.744-8.08-6.971 3.67-3.359 10.69-5.789 13.34-1.38z" fill="#F3BC8F"/></mask><g mask="url(#a)"><path d="M163.472 324.247c-7.573-121.482 8.169-246.549 50.376-368.923a977.942 977.942 0 0124.135-62.876L2.92-117.753l-31.558 660.22 234.987 10.181a915.657 915.657 0 01-14.407-49.83c-15.077-58.031-24.673-117.87-28.47-178.571zM1963.53-32.53c5.26 16.417 10.05 33.054 14.4 49.83 15.06 58.11 24.68 117.87 28.45 178.651 7.57 121.482-8.17 246.548-50.3 368.943a979.197 979.197 0 01-24.13 62.876l234.98 10.181 31.58-660.3-234.98-10.182z" fill="#3FBDD8"/><path d="M184.492 322.807c-7.422-118.681 8.067-240.97 49.192-360.529a927.305 927.305 0 0126.789-68.806l-22.588-.964a977.975 977.975 0 00-24.136 62.876c-42.13 122.395-57.872 247.461-50.376 368.923a948.735 948.735 0 0028.449 178.651c4.348 16.776 9.165 33.333 14.407 49.83l22.588.964c-6.088-18.536-11.61-37.351-16.587-56.365-14.647-56.881-24.054-115.29-27.738-174.58zM2006.41 195.87a949.28 949.28 0 00-28.45-178.65c-4.35-16.777-9.17-33.333-14.41-49.831l-22.59-.964c6.09 18.536 11.61 37.351 16.59 56.365 14.77 56.74 24.15 115.23 27.83 174.52 7.43 118.682-7.96 240.91-49.17 360.449a928.282 928.282 0 01-26.78 68.806l22.58.963a973.139 973.139 0 0024.14-62.875c42.01-122.254 57.83-247.301 50.26-368.783z" fill="#3FBDD8"/><path d="M205.611 321.308c-7.196-115.861 7.844-235.25 48.062-352.034 8.82-25.581 18.623-50.554 29.464-74.817l-22.588-.963c-9.768 22.394-18.704 45.356-26.789 68.805-41.202 119.54-56.593 241.768-49.17 360.449 3.684 59.291 13.069 117.78 27.836 174.52 4.9 18.994 10.444 37.729 16.587 56.365l22.664.985c-6.989-20.675-13.314-41.689-18.766-62.901-14.556-55.39-23.751-112.448-27.3-170.409zM1985.28 197.369a919.881 919.881 0 00-27.83-174.52c-4.9-18.994-10.45-37.729-16.59-56.365l-22.66-.985c6.99 20.675 13.31 41.689 18.76 62.9a902.801 902.801 0 0127.2 170.469c7.2 115.861-7.84 235.251-48.06 352.035-8.82 25.581-18.62 50.553-29.46 74.816l22.59.964a937.782 937.782 0 0026.79-68.806c41.3-119.598 56.69-241.827 49.26-360.508z" fill="#60C2D0"/><path d="M1964.26 198.81a902.809 902.809 0 00-27.2-170.47c-5.53-21.231-11.77-42.225-18.76-62.9l-22.74-1.004c7.96 22.834 15.03 45.946 21.12 69.396 14.07 54.139 22.98 109.826 26.49 166.397 7.02 113.141-7.65 229.612-46.88 343.641-9.55 27.712-20.38 54.654-32.29 80.786l22.74 1.005c10.84-24.263 20.64-49.236 29.46-74.817 40.22-116.783 55.24-236.093 48.06-352.034zM226.633 319.867c-7.024-113.141 7.644-229.612 46.877-343.64 9.555-27.713 20.377-54.655 32.292-80.787l-22.741-1.004c-10.841 24.263-20.644 49.235-29.463 74.816-40.218 116.784-55.258 236.174-48.062 352.035a903.117 903.117 0 0027.201 170.468c5.53 21.233 11.778 42.226 18.767 62.901l22.74 1.004c-7.966-22.833-15.038-45.945-21.12-69.395-13.974-54.199-22.957-109.907-26.491-166.398z" fill="#7AC7C7"/><path d="M1943.15 200.311c-3.52-56.571-12.5-112.279-26.5-166.398a864.352 864.352 0 00-21.12-69.395l-22.81-1.026c64.36 178.183 70.42 379.557 3.66 573.405-10.31 29.925-22.08 58.857-35.2 86.735l22.82 1.025c11.91-26.131 22.74-53.073 32.29-80.786 39.21-113.948 53.98-230.479 46.86-343.56zM293.424-16.8c10.311-29.924 22.076-58.856 35.196-86.735l-22.817-1.025c-11.916 26.132-22.738 53.074-32.292 80.786-39.212 113.948-53.901 230.5-46.877 343.641 3.512 56.571 12.495 112.279 26.491 166.397a865.54 865.54 0 0021.12 69.396l22.817 1.025c-64.26-178.242-70.401-379.636-3.638-573.484z" fill="#8ECCBD"/><path d="M303.315-13.374a867.903 867.903 0 0136.648-89.71l-11.343-.452a872.015 872.015 0 00-35.196 86.735c-66.763 193.849-60.622 395.243 3.66 573.405l11.343.452c-64.856-176.936-71.561-377.447-5.112-570.43zM1872.72-36.51l-11.35-.451c64.91 177.036 71.62 377.547 5.19 570.45a867.436 867.436 0 01-36.65 89.71l11.32.532c13.15-27.959 24.91-56.89 35.2-86.735 66.69-193.869 60.57-395.344-3.71-573.505z" fill="#8ECCBD"/><path d="M313.183-9.865a848.822 848.822 0 0138.177-92.664l-11.419-.472a867.62 867.62 0 00-36.649 89.71c-66.449 192.983-59.82 393.473 5.189 570.45l11.419.472c-65.638-175.852-72.831-375.458-6.717-567.496zM1861.37-36.96l-11.42-.473c65.57 175.831 72.76 375.438 6.62 567.557a849.032 849.032 0 01-38.17 92.663l11.42.473a867.387 867.387 0 0036.64-89.71c66.47-193.064 59.85-393.554-5.09-570.51z" fill="#A0CCB8"/><path d="M1849.98-37.513l-11.42-.472c66.21 174.625 74.04 373.368 8.17 564.522a853.88 853.88 0 01-39.63 95.638l11.42.472a852.15 852.15 0 0038.17-92.664c66.12-192.038 58.85-391.665-6.71-567.496zM323.073-6.438a852.313 852.313 0 0139.629-95.638l-11.419-.473a853.523 853.523 0 00-38.177 92.664c-66.114 192.038-58.943 391.725 6.619 567.556l11.419.473c-66.135-174.605-73.871-373.408-8.071-564.582z" fill="#B0CCB2"/><path d="M332.965-3.012a827.818 827.818 0 0141.233-98.572l-11.419-.472c-15.009 30.65-28.302 62.535-39.629 95.638-65.8 191.174-58.064 389.977 8.169 564.522l11.419.472c-66.96-173.36-75.337-371.299-9.773-561.588zM1838.56-37.986l-11.42-.473c66.88 173.34 75.26 371.28 9.77 561.589a831.243 831.243 0 01-41.25 98.652l11.42.472c15-30.649 28.3-62.535 39.62-95.638 65.9-191.234 58.09-390.057-8.14-564.602z" fill="#BCCAAC"/><path d="M1827.14-38.458l-11.5-.493c67.61 172.154 76.55 369.211 11.3 558.634-12.16 35.295-26.47 69.15-42.78 101.607l11.42.472c15.65-31.513 29.45-64.383 41.25-98.652 65.57-190.289 57.19-388.229-9.69-561.568zM342.835.495c12.159-35.295 26.471-69.15 42.784-101.607l-11.42-.472a827.775 827.775 0 00-41.233 98.572c-65.564 190.288-57.187 388.228 9.773 561.588l11.496.492c-67.709-172.094-76.628-369.23-11.4-558.573z" fill="#CAC9A6"/><path d="M1815.66-39.031l-11.49-.493c68.34 170.969 77.92 367.162 12.98 555.721a804.872 804.872 0 01-44.46 104.52l11.49.492c16.29-32.376 30.7-66.291 42.79-101.606 65.22-189.343 56.28-386.399-11.31-558.634zM352.725 3.922a805.037 805.037 0 0144.465-104.52l-11.496-.493C369.403-68.715 354.993-34.799 342.91.516c-65.25 189.423-56.232 386.5 11.302 558.634l11.496.492c-68.338-170.969-77.92-367.161-12.983-555.72z" fill="#D6C7A2"/><path d="M1804.17-39.525l-11.5-.492c69.09 169.703 79.21 365.092 14.61 552.706-12.91 37.507-28.34 73.392-46.07 107.454l11.5.492a802.107 802.107 0 0044.46-104.519c64.9-188.398 55.34-384.672-13-555.64zM362.538 7.327c12.916-37.507 28.345-73.391 46.07-107.453l-11.496-.493a803.598 803.598 0 00-44.465 104.52c-64.936 188.558-55.354 384.751 12.984 555.72l11.496.493c-69.01-169.683-79.211-365.093-14.589-552.787z" fill="#E1C59C"/><path d="M372.408 10.833c13.294-38.613 29.309-75.462 47.773-110.447l-11.572-.513C390.862-65.985 375.433-30.1 362.539 7.326c-64.623 187.694-54.422 383.104 14.61 552.707l11.572.513c-69.78-168.337-80.6-362.964-16.313-549.713zm1420.262-50.85l-11.57-.513c69.83 168.437 80.58 363.044 16.29 549.793-13.29 38.613-29.31 75.462-47.77 110.447l11.57.513c17.75-34.142 33.18-70.026 46.07-107.453 64.62-187.694 54.42-383.104-14.59-552.787z" fill="#ECC296"/><path d="M382.299 14.26A773.215 773.215 0 01431.753-99.1l-11.572-.513c-18.464 34.985-34.479 71.834-47.773 110.447-64.309 186.83-53.467 381.376 16.292 549.793l11.572.514c-70.507-167.152-81.968-360.916-17.973-546.88zM1781.08-40.45l-11.57-.514c70.58 167.172 82.04 360.936 18.07 546.821-13.68 39.719-30.28 77.532-49.46 113.36l11.58.513c18.46-34.985 34.47-71.834 47.77-110.447 64.21-186.769 53.47-381.376-16.39-549.734z" fill="#F3BC8F"/><path d="M1769.51-40.964l-12.05-.556c71.43 165.847 83.6 358.768 19.87 543.767-14.08 40.906-31.28 79.763-51.36 116.474l12.15.495a773.054 773.054 0 0049.46-113.359c63.99-185.966 52.53-379.729-18.07-546.82zM392.551 17.87c14.072-40.906 31.281-79.763 51.353-116.474l-12.129-.576a773.32 773.32 0 00-49.454 113.36c-63.995 185.965-52.534 379.729 18.071 546.821l12.052.555C340.992 395.79 328.891 202.89 392.551 17.87z" fill="#F3BC8F"/><path d="M402.878 21.5a750.287 750.287 0 0153.153-119.528l-12.15-.496c-19.974 36.65-37.204 75.589-51.353 116.474-63.638 184.939-51.537 377.84 19.894 543.686l12.15.496c-72.299-164.44-85.117-356.498-21.694-540.633zM1757.38-41.539l-12.15-.495c72.3 164.44 85.19 356.518 21.75 540.733a750.048 750.048 0 01-53.16 119.528l12.15.495a760.388 760.388 0 0051.36-116.473c63.66-185.02 51.48-377.941-19.95-543.788z" fill="#E9B598"/><path d="M1745.23-42.034l-12.23-.517c73.15 163.115 86.76 354.351 23.65 537.621a734.278 734.278 0 01-55.11 122.539l12.23.517a750.012 750.012 0 0053.15-119.528c63.5-184.114 50.61-376.192-21.69-540.632zM413.151 25.028a734.423 734.423 0 0155.108-122.54l-12.227-.516c-20.866 37.533-38.681 77.435-53.153 119.527-63.424 184.135-50.528 376.213 21.748 540.734l12.227.516c-73.221-163.135-86.834-354.371-23.703-537.721z" fill="#DDAD9F"/><path d="M423.403 28.637c15.272-44.465 34.532-86.395 57.082-125.633l-12.226-.516a735.66 735.66 0 00-55.107 122.54c-63.11 183.27-49.498 374.505 23.647 537.62l12.227.516c-74.111-161.648-88.419-352.121-25.623-534.527zM1733-42.552l-12.22-.516c74.09 161.729 88.49 352.142 25.67 534.628-15.27 44.465-34.53 86.396-57.08 125.633l12.23.516a736.41 736.41 0 0055.11-122.54c63.13-183.35 49.51-374.586-23.71-537.72z" fill="#D1A4A5"/><path d="M1720.8-43.147l-12.31-.537c75.04 160.344 90.24 349.935 27.66 531.535-15.75 45.631-35.64 88.687-59.14 128.706l12.3.536c22.56-39.237 41.74-81.188 57.09-125.633 62.87-182.384 48.46-372.798-25.6-534.607zM433.654 32.246c15.748-45.631 35.637-88.687 59.134-128.706l-12.302-.536c-22.551 39.237-41.735 81.188-57.083 125.633-62.796 182.405-48.488 372.878 25.678 534.628l12.302.536c-75.11-160.364-90.211-350.014-27.729-531.555z" fill="#C69DAA"/><path d="M1708.47-43.605l-12.38-.557c.26.585.53 1.09.86 1.696 75.33 158.612 90.94 346.674 28.92 526.787-16.17 46.898-36.79 90.877-61.18 131.778l12.38.557c23.49-40.018 43.36-82.994 59.13-128.705 62.51-181.621 47.31-371.212-27.73-531.556zM443.905 35.855c16.169-46.899 36.797-90.877 61.185-131.779l-12.379-.557c-23.497 40.02-43.365 82.994-59.134 128.706-62.482 181.541-47.381 371.191 27.653 531.535l12.379.557c-.253-.585-.527-1.09-.856-1.696-75.257-158.592-90.845-346.734-28.848-526.766z" fill="#B994AE"/><path d="M454.178 39.385C470.747-8.7 492.08-53.783 517.492-95.445l-12.379-.558c-24.444 40.8-45.017 84.88-61.186 131.779-62.018 180.112-46.409 368.174 28.925 526.787.252.585.527 1.09.856 1.695l12.455.578c-1.163-2.382-2.348-4.683-3.435-7.044-74.213-156.07-89.541-341.21-28.55-518.407zM1696.95-42.466c-.26-.585-.53-1.09-.86-1.695l-12.45-.578c1.16 2.382 2.34 4.683 3.43 7.044 74.21 156.07 89.62 341.231 28.55 518.407-16.57 48.085-37.9 93.168-63.31 134.831l12.38.557c24.44-40.801 45.01-84.88 61.18-131.779 62.02-180.112 46.43-368.255-28.92-526.787z" fill="#AD8CB1"/><path d="M1687.15-37.673c-1.16-2.382-2.35-4.683-3.44-7.044l-12.45-.578c2.09 4.098 4.09 8.255 6.07 12.493 72.94 153.487 88.01 335.625 28.04 509.906-16.99 49.352-39.08 95.439-65.52 137.862l12.46.577c25.41-41.662 46.72-86.665 63.31-134.83 61.07-177.176 45.67-362.337-28.47-518.387zM464.428 42.995c16.991-49.352 39.085-95.439 65.519-137.862l-12.456-.577C492.08-53.782 470.768-8.78 454.177 39.386c-60.991 177.197-45.663 362.337 28.474 518.386 1.163 2.382 2.327 4.764 3.435 7.045l12.456.577c-2.074-4.178-4.093-8.255-6.069-12.493-72.941-153.487-88.03-335.545-28.045-509.906z" fill="#A285B5"/><path d="M474.756 46.623c17.412-50.62 40.343-97.69 67.8-140.874l-12.554-.517c-26.434 42.423-48.528 88.51-65.518 137.862-60.041 174.26-44.952 356.318 27.989 509.804 1.997 4.158 3.995 8.316 6.069 12.494l12.554.517a1155.47 1155.47 0 01-8.9-17.822c-71.646-150.984-86.474-330.04-27.44-501.464zM1677.33-32.802c-2-4.157-4-8.315-6.07-12.493l-12.56-.518c3.01 5.894 6 11.869 8.9 17.823 71.73 151.004 86.55 330.06 27.6 501.505-17.42 50.619-40.35 97.689-67.8 140.873l12.55.518c26.43-42.423 48.53-88.51 65.52-137.862 59.94-174.201 44.8-356.359-28.14-509.846z" fill="#967DB7"/><path d="M486.744 50.784C504.719-1.323 528.55-49.618 557.302-93.663l-14.724-.668c-27.457 43.184-50.387 90.255-67.799 140.874-59.035 171.424-44.206 350.48 27.593 501.504 2.81 6.014 5.816 11.908 8.899 17.823l14.724.668a708.2 708.2 0 01-12.125-24.121C443.466 394.44 428.844 218.89 486.744 50.784zM1667.51-27.93c-2.81-6.014-5.82-11.908-8.9-17.823l-14.73-.668a714.912 714.912 0 0112.13 24.121c70.33 147.957 84.85 323.567 27.05 491.613-17.98 52.107-41.81 100.402-70.56 144.447l14.72.668c27.46-43.184 50.31-90.275 67.8-140.874 59.13-171.484 44.23-350.56-27.51-501.484z" fill="#967DB7"/><path d="M525.216 536.748c-68.912-144.99-83.153-317.074-26.507-481.722 18.461-53.615 43.292-103.195 73.394-148l-14.899-.628c-28.752 44.045-52.584 92.34-70.558 144.447-57.879 168.026-43.257 343.576 27.049 491.613a708.2 708.2 0 0012.125 24.121l14.899.628c-5.353-9.972-10.564-20.166-15.503-30.459zM1656.08-22.28a696.213 696.213 0 00-12.12-24.121l-14.9-.629a681.944 681.944 0 0115.58 30.48c68.91 144.99 83.15 317.075 26.51 481.722-18.47 53.616-43.37 103.175-73.4 147.999l14.9.629c28.75-44.044 52.58-92.34 70.56-144.447 57.72-168.067 43.2-343.677-27.13-491.633z" fill="#9585BA"/><path d="M1644.58-16.65c-4.93-10.293-10.07-20.466-15.58-30.48l-14.97-.649c6.75 12.074 13.14 24.307 19.03 36.84 67.5 142.023 81.46 310.581 25.97 471.83-18.97 55.204-44.91 105.867-76.41 151.591l14.98.649c30.05-44.905 54.93-94.384 73.39-147.999 56.82-164.687 42.49-336.711-26.41-481.782zM536.736 531.037c-67.496-142.023-81.453-310.581-25.964-471.83C529.741 4.002 555.68-46.66 587.175-92.385l-14.975-.648C542.153-48.13 517.268 1.35 498.807 54.965c-56.722 164.627-42.406 336.732 26.506 481.721 4.94 10.294 10.075 20.467 15.58 30.481l14.975.648c-6.853-12.013-13.237-24.246-19.132-36.779z" fill="#948FBE"/><path d="M1633.14-10.919a629 629 0 00-19.03-36.84l-15.13-.69c8.1 14.074 15.71 28.447 22.66 43.16 66.08 139.056 79.76 304.089 25.42 461.939-19.53 56.692-46.49 108.72-79.47 155.083l15.13.689c31.48-45.643 57.36-96.407 76.41-151.591 55.49-161.249 41.51-329.727-25.99-471.75zM548.158 525.387c-66.08-139.056-79.753-304.088-25.344-461.918 19.531-56.692 46.491-108.72 79.468-155.083l-15.128-.69C555.68-46.66 529.795 4.105 510.751 59.289c-55.588 161.309-41.533 329.807 25.963 471.83a623.886 623.886 0 0019.035 36.839l15.128.69a630.375 630.375 0 01-22.719-43.26z" fill="#9397BE"/><path d="M559.657 519.756c-64.665-136.089-78.054-297.596-24.856-452.127 20.06-58.362 48.206-111.452 82.728-158.694l-15.302-.65c-32.921 46.463-59.937 98.39-79.468 155.082-54.354 157.93-40.66 322.882 25.421 461.939 6.948 14.712 14.561 29.086 22.663 43.159l15.226.63a569.398 569.398 0 01-26.412-49.339zM1621.64-5.29c-6.95-14.712-14.56-29.086-22.66-43.159l-15.23-.63c9.63 16.034 18.39 32.527 26.47 49.44 64.66 136.089 78.07 297.515 24.85 452.128-20.06 58.361-48.2 111.451-82.72 158.693l15.3.651c32.92-46.464 59.94-98.391 79.47-155.083 54.27-157.951 40.6-322.983-25.48-462.04z" fill="#92A0C1"/><path d="M1610.2.44a569.31 569.31 0 00-26.47-49.439l-15.45-.69c11.12 18.073 21.29 36.667 30.4 55.84 63.27 133.042 76.4 290.942 24.33 442.156-20.64 59.93-49.96 114.344-86.12 162.183l15.38.671c34.5-47.161 62.59-100.352 82.73-158.694 53.27-154.511 39.86-315.937-24.8-452.026zM571.102 514.025c-63.249-133.123-76.376-291.023-24.236-442.216 20.644-59.93 49.963-114.344 86.119-162.183l-15.378-.671C583.106-43.884 555.015 9.307 534.9 67.568c-53.198 154.532-39.808 316.039 24.856 452.128a571.467 571.467 0 0026.467 49.439l15.455.691a547.496 547.496 0 01-30.576-55.801z" fill="#91A9C2"/><path d="M1598.7 6.072c-9.11-19.173-19.28-37.767-30.4-55.841l-15.53-.712c90.36 141.337 117.51 322.399 58.2 494.528-21.27 61.659-51.87 117.196-89.69 165.713l15.63.651c36.08-47.859 65.48-102.253 86.12-162.183 52.04-151.133 38.92-309.034-24.33-442.156zM558.83 76.052c21.249-61.58 51.874-117.197 89.685-165.714l-15.629-.651c-36.08 47.86-65.476 102.253-86.12 162.183-52.042 151.133-38.936 309.114 24.312 442.237 9.111 19.173 19.278 37.767 30.403 55.841l15.531.712C526.671 429.243 499.524 248.18 558.83 76.052z" fill="#91B0C2"/><path d="M570.893 80.231c21.8-63.329 53.806-120.128 93.404-169.201l-15.706-.672C610.78-41.126 580.155 14.492 558.906 76.07 499.6 248.199 526.747 429.262 617.11 570.599l15.706.672c-92.33-139.19-120.937-319.695-61.923-491.04zM1552.74-50.401l-15.7-.672c92.33 139.19 120.96 319.614 61.94 490.958-21.8 63.329-53.8 120.129-93.4 169.202l15.7.672c37.82-48.517 68.44-104.134 89.69-165.713 59.28-172.048 32.14-353.11-58.23-494.447z" fill="#90B8C3"/><path d="M1537.04-51.074l-16.04-.674c94.48 137.004 124.74 316.831 65.92 487.451-22.43 65.059-55.84 123.121-97.38 172.709l16.04.674c39.6-49.073 71.6-105.872 93.4-169.201 59.02-171.345 30.39-351.77-61.94-490.96zM582.858 84.471c22.427-65.058 55.836-123.12 97.374-172.709l-16.033-.673C624.601-39.84 592.595 16.96 570.795 80.29c-59.014 171.344-30.385 351.769 61.944 490.959l16.033.673c-94.395-136.983-124.657-316.81-65.914-487.45z" fill="#8FBDC0"/><path d="M1521.03-51.827l-16.19-.714c96.66 134.657 128.68 314.008 70.11 484.005-23 66.889-57.96 126.173-101.59 176.235l16.18.715c41.54-49.588 74.95-107.651 97.38-172.709 58.82-170.62 28.58-350.528-65.89-487.532zM594.923 88.654c23-66.888 57.964-126.173 101.594-176.235l-16.185-.715c-41.538 49.588-74.947 107.65-97.375 172.71-58.742 170.64-28.502 350.548 65.915 487.451l16.185.714c-96.754-134.597-128.705-313.928-70.134-483.925z" fill="#8FC5BF"/><path d="M606.908 92.816c23.67-68.78 60.267-129.265 106.044-179.7l-16.436-.696C652.962-37.497 617.998 21.787 594.922 88.655c-58.571 169.997-26.543 349.348 70.113 484.005l16.436.696c-99.113-132.211-132.884-311.167-74.563-480.54zM1504.82-52.462l-16.44-.695c99.12 132.21 132.89 311.166 74.59 480.459-23.67 68.779-60.27 129.265-106.05 179.7l16.44.696c43.55-50.083 78.52-109.367 101.59-176.235 58.48-169.937 26.55-349.349-70.13-483.925z" fill="#8ECCBD"/><path d="M1488.4-53.238l-32.87-1.391c104.32 127.137 141.96 305.405 84 473.753-25.03 72.64-65.17 135.628-115.56 186.466l32.95 1.412c45.7-50.456 82.3-110.942 106.05-179.7 58.24-169.394 24.53-348.25-74.57-480.54zM630.326 101.073c25.032-72.64 65.165-135.628 115.554-186.467l-32.949-1.411C667.23-36.35 630.633 24.136 606.887 92.894c-58.322 169.373-24.529 348.249 74.584 480.46l32.873 1.391C610.023 447.607 572.361 269.42 630.326 101.072z" fill="#8ECCBD"/><path d="M1455.45-54.65l-34.41-1.458c110.46 121.363 152.74 299.409 94.97 467.033-26.5 76.904-70.8 142.31-126.6 193.166l34.41 1.458c50.41-50.919 90.52-113.827 115.55-186.467 58.12-168.307 20.41-346.595-83.92-473.732zM653.689 109.23c26.502-76.903 70.805-142.31 126.603-193.166l-34.411-1.458c-50.411 50.92-90.522 113.827-115.554 186.467-57.965 168.348-20.325 346.616 83.996 473.753l34.39 1.539C638.28 454.921 595.995 276.874 653.689 109.23z" fill="#A0CCB8"/><path d="M1421.12-56.087l-36.35-1.547c117.83 114.628 165.59 293.02 107.96 460.423-28.1 81.65-77.5 149.572-139.6 199.776l36.43 1.568c55.8-50.856 100.13-116.343 126.61-193.166 57.71-167.725 15.4-345.69-95.05-467.054zM677.128 117.408c28.101-81.65 77.499-149.573 139.592-199.777l-36.429-1.567C724.493-33.081 680.169 32.407 653.689 109.23c-57.695 167.644-15.409 345.69 94.968 467.033l36.352 1.547c-117.75-114.607-165.511-293-107.881-460.402z" fill="#B0CCB2"/><path d="M1384.71-57.735l-39.25-1.721c126.95 106.55 181.63 286.02 123.85 453.986-29.99 87.181-85.76 157.795-155.51 206.294l39.33 1.741c62.1-50.204 111.52-118.207 139.6-199.777 57.65-167.483 9.79-345.815-108.02-460.523zM700.567 125.587c29.993-87.18 85.762-157.794 155.505-206.293l-39.33-1.742C754.649-32.244 705.229 35.76 677.15 117.33c-57.63 167.403-9.869 345.795 107.958 460.423l39.253 1.721C697.388 473.002 642.732 293.452 700.567 125.587z" fill="#BCCAAC"/><path d="M723.93 133.744c32.382-93.958 96.572-167.576 176.009-212.53l-43.943-1.942C786.198-32.329 730.483 38.386 700.491 125.566c-57.836 167.865-3.103 347.436 123.849 453.986l43.867 1.922c-138.86-96.028-202.642-278.196-144.277-447.73zm621.53-193.199l-43.87-1.922c138.88 95.948 202.67 278.116 144.3 447.65-32.38 93.958-96.57 167.577-176.01 212.53l43.94 1.942c69.8-48.398 125.52-119.113 155.51-206.294 57.81-167.784 3.08-347.355-123.87-453.906z" fill="#CAC9A6"/><path d="M1445.87 386.353c58.36-169.534-5.42-351.702-144.3-447.65l-52.54-2.261c156.14 80.735 233.23 268.278 173.48 441.754-35.56 103.37-112.36 180.338-205.11 218.445l52.46 2.241c79.44-44.952 143.7-118.551 176.01-212.529zM747.347 142.002C782.906 38.632 859.703-38.336 952.455-76.443l-52.462-2.242c-79.437 44.953-143.704 118.552-176.009 212.53-58.365 169.534 5.417 351.702 144.299 447.649l52.538 2.262C764.603 503 687.62 315.398 747.347 142.002z" fill="#D6C7A2"/><path d="M770.71 150.16c41.623-120.806 143.726-202.981 259.7-223.225l-78.031-3.399C859.703-38.336 782.906 38.633 747.271 141.982c-59.749 173.476 17.311 361.099 173.474 441.754l78.278 3.38c-8.099-2.17-16.209-4.602-24.211-7.436-173.463-60.71-264.823-253.027-204.102-429.52zm651.8 228.036c59.75-173.476-17.31-361.099-173.48-441.754l-78.27-3.38c8.09 2.17 16.2 4.602 24.21 7.436 173.54 60.73 264.92 252.967 204.1 429.52-41.62 120.806-143.73 202.981-259.7 223.224l78.03 3.4c92.67-38.129 169.47-115.097 205.11-218.446z" fill="#E1C59C"/><path d="M983.081 555.848c-160.602-56.143-245.156-234.131-188.932-397.511C850.373-5.043 1026.21-91.956 1186.8-35.733c160.6 56.143 245.15 234.131 188.93 397.512-56.3 163.36-232.07 250.292-392.649 194.069zm416.009-185.912c60.82-176.553-30.64-368.81-204.1-429.52-8-2.834-16.11-5.266-24.21-7.436l-140.28-6.106C914.513-52.802 812.431 29.294 770.808 150.1 709.99 326.653 801.447 518.91 974.91 579.62c8.002 2.834 16.112 5.266 24.211 7.436l140.269 6.105c115.97-20.243 218.06-102.338 259.7-223.224z" fill="#ECC296"/><path d="M1352.29 353.602c-51.71 150.188-213.39 230.112-361.038 178.476-147.643-51.635-225.392-215.293-173.663-365.562C869.295 16.329 1030.98-63.595 1178.62-11.96c147.63 51.717 225.4 215.294 173.67 365.562zM1186.8-35.731C1026.19-91.873 850.45-5.02 794.149 158.338c-56.224 163.381 28.33 341.369 188.932 397.511 160.599 56.143 336.349-30.709 392.649-194.069 56.22-163.38-28.33-341.368-188.93-397.51z" fill="#F3BC8F"/><path d="M1336.11 347.972c-48.64 141.178-200.5 216.23-339.226 167.674-138.725-48.555-211.83-202.345-163.214-343.442C882.308 31.026 1034.17-44.026 1172.9 4.53c138.74 48.475 211.85 202.264 163.21 343.442zM1178.63-11.961c-147.65-51.636-309.313 28.208-361.041 178.476-51.707 150.188 26.042 313.846 173.664 365.562 147.647 51.636 309.307-28.208 361.037-178.476 51.73-150.268-26.04-313.846-173.66-365.562z" fill="#F3BC8F"/><path d="M1320.03 342.284c-45.47 132.108-187.61 202.348-317.44 156.952-129.828-45.395-198.213-189.295-152.743-321.403C895.318 45.725 1037.46-24.515 1167.29 20.88c129.82 45.395 198.21 189.295 152.74 321.404zM1172.92 4.45c-138.73-48.556-290.614 26.576-339.23 167.674-48.638 141.178 24.467 294.967 163.213 343.442 138.727 48.556 290.607-26.577 339.227-167.674 48.62-141.097-24.49-294.887-163.21-343.442z" fill="#E9B598"/><path d="M1303.85 336.655c-42.3 123.039-174.72 188.467-295.63 146.151-120.907-42.315-184.649-176.346-142.27-299.364 42.38-123.018 174.72-188.467 295.7-146.13 120.91 42.315 184.58 176.325 142.2 299.343zM1167.29 20.881c-129.83-45.396-271.972 24.844-317.442 156.953-45.471 132.108 22.915 276.008 152.742 321.403 129.83 45.395 271.97-24.845 317.44-156.953 45.47-132.108-22.92-276.008-152.74-321.403z" fill="#DDAD9F"/><path d="M1287.75 331.047c-39.21 113.948-161.83 174.585-273.92 135.409-112.009-39.155-171.009-163.377-131.797-277.325C921.246 75.183 1043.86 14.546 1155.95 53.721c112.01 39.155 171.03 163.297 131.8 277.326zM1161.66 37.311C1040.75-5.004 908.332 60.424 865.952 183.442c-42.379 123.018 21.363 257.049 142.268 299.364 120.91 42.316 253.33-23.113 295.63-146.151 42.38-123.018-21.29-257.028-142.19-299.344z" fill="#D1A4A5"/><path d="M1271.59 325.337c-36.07 104.959-148.94 160.703-252.13 124.688-103.09-36.075-157.392-150.327-121.326-255.286C934.256 89.881 1047.15 34.056 1150.24 70.131c103.17 36.096 157.47 150.348 121.35 255.206zM1155.95 53.721c-112.01-39.155-234.608 21.402-273.918 135.41-39.213 113.948 19.733 238.069 131.798 277.325 112.01 39.155 234.61-21.401 273.92-135.409 39.23-114.029-19.79-238.17-131.8-277.326z" fill="#C69DAA"/><path d="M1255.49 319.729c-32.98 95.869-136.13 146.801-230.32 113.886-94.195-32.915-143.832-137.378-110.78-233.226 32.975-95.869 136.12-146.802 230.32-113.887 94.17 32.996 143.75 137.359 110.78 233.227zM1150.32 70.152c-103.09-36.075-215.988 19.75-252.109 124.608-36.122 104.858 18.159 219.19 121.249 255.266 103.09 36.075 215.99-19.75 252.11-124.608 36.14-104.938-18.16-219.19-121.25-255.266z" fill="#B994AE"/><path d="M1239.31 314.101c-29.89 86.778-123.24 132.919-208.51 103.084-85.275-29.835-130.213-124.329-100.328-211.107 29.884-86.778 123.238-132.92 208.508-103.084 85.37 29.775 130.21 124.328 100.33 211.107zm-94.62-227.518c-94.2-32.915-197.345 18.018-230.321 113.887-32.976 95.868 16.606 200.231 110.781 233.226 94.19 32.915 197.34-18.017 230.31-113.886 33-95.949-16.58-200.312-110.77-233.227z" fill="#AD8CB1"/><path d="M1223.23 308.411c-26.72 77.708-110.35 119.038-186.8 92.343-76.354-26.756-116.573-111.36-89.855-189.068 26.718-77.709 110.345-119.038 186.795-92.343 76.36 26.755 116.65 111.38 89.86 189.068zM1139 102.912c-85.27-29.835-178.621 16.307-208.506 103.085-29.885 86.778 15.054 181.272 100.326 211.107 85.28 29.835 178.62-16.306 208.51-103.085 29.86-86.697-14.98-181.251-100.33-211.107z" fill="#A285B5"/><path d="M1207.12 302.803c-23.62 68.618-97.53 105.136-164.98 81.541-67.46-23.595-103.013-98.411-79.387-167.029 23.627-68.618 97.527-105.136 164.987-81.541s103.01 98.411 79.38 167.029zm-73.75-183.459c-76.35-26.756-160.002 14.654-186.796 92.342-26.794 77.688 13.48 162.394 89.856 189.068 76.38 26.675 159.98-14.574 186.8-92.342 26.79-77.688-13.51-162.313-89.86-189.068z" fill="#967DB7"/><path d="M1195.95 298.948c-21.46 62.384-88.67 95.607-149.99 74.174-61.318-21.433-93.623-89.428-72.158-151.811 21.465-62.384 88.668-95.608 149.988-74.174 61.35 21.353 93.65 89.347 72.16 151.811zm-68.21-163.174c-67.46-23.595-141.36 12.923-164.987 81.541-23.626 68.618 11.927 143.434 79.387 167.029 67.45 23.595 141.36-12.923 164.98-81.541 23.63-68.618-11.92-143.434-79.38-167.029z" fill="#967DB7"/><path d="M1184.89 295.033c-19.31 56.149-79.8 85.998-134.98 66.726-55.187-19.272-84.319-80.465-64.918-136.675 19.308-56.149 79.788-85.998 134.978-66.726 55.16 19.352 84.22 80.525 64.92 136.675zm-61.07-147.978c-61.33-21.433-128.509 11.71-149.996 74.174-21.465 62.384 10.84 130.378 72.166 151.812 61.32 21.433 128.5-11.71 149.99-74.174 21.46-62.384-10.84-130.378-72.16-151.812z" fill="#9184BC"/><path d="M1173.74 291.096c-17.22 49.895-70.93 76.469-119.96 59.279-49.03-17.191-74.914-71.563-57.696-121.457 17.216-49.895 70.936-76.47 119.956-59.279 49.03 17.191 74.92 71.562 57.7 121.457zm-53.77-132.739c-55.19-19.272-115.67 10.576-134.978 66.726-19.303 56.15 9.752 117.322 64.918 136.675 55.18 19.271 115.67-10.577 134.97-66.727 19.31-56.149-9.75-117.322-64.91-136.674z" fill="#8B8DC0"/><path d="M1162.65 287.262c-15.06 43.66-62.08 66.941-104.97 51.911-42.97-15.05-65.529-62.579-50.55-106.26 15.06-43.66 62.07-66.941 104.97-51.911 42.99 14.969 65.6 62.599 50.55 106.26zm-46.61-117.623c-49.03-17.191-102.82 9.364-119.958 59.279-17.218 49.895 8.648 104.346 57.698 121.457 49.03 17.191 102.82-9.364 119.96-59.279 17.21-49.895-8.67-104.266-57.7-121.457z" fill="#8495C6"/><path d="M1151.58 283.347c-12.9 37.427-53.2 57.333-89.95 44.465-36.84-12.889-56.2-53.697-43.31-91.124 12.9-37.426 53.2-57.332 89.95-44.464 36.84 12.889 56.2 53.697 43.31 91.123zm-39.38-102.405c-42.97-15.05-89.91 8.251-104.97 51.912-15.056 43.66 7.56 91.291 50.55 106.26 42.97 15.05 89.91-8.251 104.97-51.912 14.95-43.6-7.66-91.23-50.55-106.26z" fill="#7F9CC9"/><path d="M1140.41 279.493c-10.73 31.192-44.34 47.803-74.96 37.097-30.7-10.727-46.81-44.714-36.08-75.906 10.73-31.192 44.34-47.803 74.96-37.097 30.7 10.727 46.89 44.734 36.08 75.906zm-32.16-87.188c-36.83-12.888-77.06 7.038-89.95 44.464s6.47 78.235 43.3 91.123c36.84 12.889 77.06-7.038 89.95-44.464 12.92-37.507-6.44-78.315-43.3-91.123z" fill="#77A3CE"/></g></svg>