<svg width="440" height="186" fill="none" xmlns="http://www.w3.org/2000/svg"><g filter="url(#filter0_d_128:36735)"><path d="M60 38a8 8 0 018-8h304a8 8 0 018 8v50a8 8 0 01-8 8H68a8 8 0 01-8-8V38z" fill="#A14228"/></g><path d="M60 39a8 8 0 018-8h304a8 8 0 018 8v49a8 8 0 01-8 8H68a8 8 0 01-8-8V39z" fill="#A14228"/><path d="M60 38a8 8 0 018-8h304a8 8 0 018 8v44a8 8 0 01-8 8H68a8 8 0 01-8-8V38z" fill="url(#paint0_linear_128:36735)"/><path d="M102.41 64.1h-2.2V68h-2.42v-3.9h-6.06v-1.48l6.34-8.72h2.14v8.12h2.2v2.08zm-4.62-5.14l.18-1.68h-.08l-.68 1.44-2.08 2.7-1 .76 1.28-.16h2.38v-3.06zM108.896 68V58h2.6v7.7h2.5V58h2.6v7.7h2.5V58h2.6v10h-12.8zm15.018-9.42c.533-.24 1.167-.427 1.9-.56a11.7 11.7 0 012.3-.22c.693 0 1.273.087 1.74.26.467.16.833.393 1.1.7.28.307.473.673.58 1.1.12.427.18.907.18 1.44 0 .587-.02 1.18-.06 1.78-.04.587-.067 1.167-.08 1.74 0 .573.02 1.133.06 1.68.04.533.14 1.04.3 1.52h-2.12l-.42-1.38h-.1c-.267.413-.64.773-1.12 1.08-.467.293-1.073.44-1.82.44-.467 0-.887-.067-1.26-.2a2.94 2.94 0 01-.96-.6 2.872 2.872 0 01-.62-.92c-.147-.36-.22-.76-.22-1.2 0-.613.133-1.127.4-1.54.28-.427.673-.767 1.18-1.02.52-.267 1.133-.447 1.84-.54.72-.107 1.52-.14 2.4-.1.093-.747.04-1.28-.16-1.6-.2-.333-.647-.5-1.34-.5-.52 0-1.073.053-1.66.16-.573.107-1.047.247-1.42.42l-.62-1.94zm3.3 7.44c.52 0 .933-.113 1.24-.34.307-.24.533-.493.68-.76v-1.3a7.257 7.257 0 00-1.2-.02 4.321 4.321 0 00-1 .18 1.698 1.698 0 00-.7.4.895.895 0 00-.26.66c0 .373.107.667.32.88.227.2.533.3.92.3zm13.142-5.72h-3.78V68h-2.68V58h6.46v2.3zm.999-1.72c.534-.24 1.167-.427 1.9-.56.734-.147 1.5-.22 2.3-.22.694 0 1.274.087 1.74.26.467.16.834.393 1.1.7.28.307.474.673.58 1.1.12.427.18.907.18 1.44 0 .587-.02 1.18-.06 1.78a39.93 39.93 0 00-.08 1.74c0 .573.02 1.133.06 1.68.04.533.14 1.04.3 1.52h-2.12l-.42-1.38h-.1c-.266.413-.64.773-1.12 1.08-.466.293-1.073.44-1.82.44-.466 0-.886-.067-1.26-.2a2.94 2.94 0 01-.96-.6 2.888 2.888 0 01-.62-.92c-.146-.36-.22-.76-.22-1.2 0-.613.134-1.127.4-1.54.28-.427.674-.767 1.18-1.02.52-.267 1.134-.447 1.84-.54.72-.107 1.52-.14 2.4-.1.094-.747.04-1.28-.16-1.6-.2-.333-.646-.5-1.34-.5-.52 0-1.073.053-1.66.16-.573.107-1.046.247-1.42.42l-.62-1.94zm3.3 7.44c.52 0 .934-.113 1.24-.34.307-.24.534-.493.68-.76v-1.3a7.257 7.257 0 00-1.2-.02 4.331 4.331 0 00-1 .18 1.704 1.704 0 00-.7.4.895.895 0 00-.26.66c0 .373.107.667.32.88.227.2.534.3.92.3zm21.681 4.26h-1.9l-.3-2.28h-6.72l-.3 2.28h-1.9V65.7h1.18c.107-.147.24-.393.4-.74.173-.36.34-.847.5-1.46.173-.613.32-1.373.44-2.28.12-.907.18-1.98.18-3.22h6.96v7.7h1.46v4.58zm-4.06-4.46V60.2h-2.1c-.027.48-.073.993-.14 1.54a19.03 19.03 0 01-.26 1.56c-.093.507-.207.98-.34 1.42a5.85 5.85 0 01-.44 1.1h3.28zm11.533-5.52h-1.98c-.08.947-.174 1.887-.28 2.82-.107.933-.28 1.773-.52 2.52-.227.733-.54 1.333-.94 1.8-.4.453-.92.68-1.56.68-.774 0-1.32-.1-1.64-.3l.32-2.16c.213.08.413.12.6.12.266 0 .5-.113.7-.34.2-.227.366-.633.5-1.22.146-.587.26-1.38.34-2.38.093-1.013.16-2.293.2-3.84h6.86v10h-2.6v-7.7zm10.132 3.92l-1.2.24-1.92 3.54h-3.1l1.94-3.14.98-.74a2.604 2.604 0 01-1.62-.92c-.426-.52-.64-1.167-.64-1.94 0-1.213.4-2.107 1.2-2.68.814-.573 2.054-.86 3.72-.86.64 0 1.234.033 1.78.1.56.067 1.047.14 1.46.22V68h-2.6v-3.78zm0-1.36V60.1a1.81 1.81 0 00-.48-.14 3.282 3.282 0 00-.5-.04c-.6 0-1.066.127-1.4.38-.333.253-.5.633-.5 1.14 0 .507.18.88.54 1.12.374.24.914.353 1.62.34l.72-.04zm15.118 1.36l-1.2.24-1.92 3.54h-3.1l1.94-3.14.98-.74a2.6 2.6 0 01-1.62-.92c-.427-.52-.64-1.167-.64-1.94 0-1.213.4-2.107 1.2-2.68.813-.573 2.053-.86 3.72-.86.64 0 1.233.033 1.78.1.56.067 1.046.14 1.46.22V68h-2.6v-3.78zm0-1.36V60.1a1.832 1.832 0 00-.48-.14 3.292 3.292 0 00-.5-.04c-.6 0-1.067.127-1.4.38-.334.253-.5.633-.5 1.14 0 .507.18.88.54 1.12.373.24.913.353 1.62.34l.72-.04zm4.778-4.86h1.9l.3 1.2h.08c.347-.507.754-.88 1.22-1.12.48-.24 1.06-.36 1.74-.36 1.254 0 2.194.4 2.82 1.2.627.787.94 2.06.94 3.82 0 .853-.1 1.627-.3 2.32-.2.68-.5 1.26-.9 1.74-.386.48-.866.847-1.44 1.1-.56.253-1.206.38-1.94.38-.413 0-.753-.033-1.02-.1a3.198 3.198 0 01-.8-.28V72h-2.6V58zm4.46 1.92c-.506 0-.906.127-1.2.38-.28.253-.5.633-.66 1.14v4.16c.187.147.387.267.6.36.227.08.52.12.88.12.747 0 1.307-.26 1.68-.78.374-.533.56-1.407.56-2.62 0-.88-.146-1.56-.44-2.04-.293-.48-.766-.72-1.42-.72zm9.641 3.94h-.7V68h-2.6V58h2.6v4.26l.62-.28 2.34-3.98h2.78l-2.42 3.8-1.02.76 1.12.78 2.7 4.66h-2.98l-2.44-4.14zm5.751-.86c0-1.693.414-2.993 1.24-3.9.827-.92 1.987-1.38 3.48-1.38.8 0 1.494.127 2.08.38a3.83 3.83 0 011.46 1.08c.387.453.674 1.007.86 1.66.2.653.3 1.373.3 2.16 0 1.693-.413 3-1.24 3.92-.813.907-1.966 1.36-3.46 1.36-.8 0-1.493-.127-2.08-.38a4.128 4.128 0 01-1.48-1.06 4.813 4.813 0 01-.88-1.68 7.87 7.87 0 01-.28-2.16zm2.68 0c0 .44.04.847.12 1.22.08.373.2.7.36.98.16.28.367.5.62.66.267.147.58.22.94.22.68 0 1.187-.247 1.52-.74.334-.493.5-1.273.5-2.34 0-.92-.153-1.66-.46-2.22-.306-.573-.826-.86-1.56-.86-.64 0-1.14.24-1.5.72-.36.48-.54 1.267-.54 2.36zm15.002-2.7h-3.78V68h-2.68V58h6.46v2.3zm.424 2.7c0-1.693.413-2.993 1.24-3.9.826-.92 1.986-1.38 3.48-1.38.8 0 1.493.127 2.08.38a3.846 3.846 0 011.46 1.08c.386.453.673 1.007.86 1.66.2.653.3 1.373.3 2.16 0 1.693-.414 3-1.24 3.92-.814.907-1.967 1.36-3.46 1.36-.8 0-1.494-.127-2.08-.38a4.119 4.119 0 01-1.48-1.06 4.796 4.796 0 01-.88-1.68 7.833 7.833 0 01-.28-2.16zm2.68 0c0 .44.04.847.12 1.22.08.373.2.7.36.98.16.28.366.5.62.66.266.147.58.22.94.22.68 0 1.186-.247 1.52-.74.333-.493.5-1.273.5-2.34 0-.92-.154-1.66-.46-2.22-.307-.573-.827-.86-1.56-.86-.64 0-1.14.24-1.5.72-.36.48-.54 1.267-.54 2.36zm19.361-2.7h-3.16V68h-2.6V58h8.36v10h-2.6v-7.7zm4.884-2.3h1.9l.3 1.2h.08c.347-.507.753-.88 1.22-1.12.48-.24 1.06-.36 1.74-.36 1.253 0 2.193.4 2.82 1.2.627.787.94 2.06.94 3.82 0 .853-.1 1.627-.3 2.32-.2.68-.5 1.26-.9 1.74a3.79 3.79 0 01-1.44 1.1c-.56.253-1.207.38-1.94.38-.413 0-.753-.033-1.02-.1a3.184 3.184 0 01-.8-.28V72h-2.6V58zm4.46 1.92c-.507 0-.907.127-1.2.38-.28.253-.5.633-.66 1.14v4.16c.187.147.387.267.6.36.227.08.52.12.88.12.747 0 1.307-.26 1.68-.78.373-.533.56-1.407.56-2.62 0-.88-.147-1.56-.44-2.04-.293-.48-.767-.72-1.42-.72zm6.281-1.34c.533-.24 1.167-.427 1.9-.56a11.7 11.7 0 012.3-.22c.693 0 1.273.087 1.74.26.467.16.833.393 1.1.7.28.307.473.673.58 1.1.12.427.18.907.18 1.44 0 .587-.02 1.18-.06 1.78-.04.587-.067 1.167-.08 1.74 0 .573.02 1.133.06 1.68.04.533.14 1.04.3 1.52h-2.12l-.42-1.38h-.1c-.267.413-.64.773-1.12 1.08-.467.293-1.073.44-1.82.44-.467 0-.887-.067-1.26-.2a2.94 2.94 0 01-.96-.6 2.872 2.872 0 01-.62-.92c-.147-.36-.22-.76-.22-1.2 0-.613.133-1.127.4-1.54.28-.427.673-.767 1.18-1.02.52-.267 1.133-.447 1.84-.54.72-.107 1.52-.14 2.4-.1.093-.747.04-1.28-.16-1.6-.2-.333-.647-.5-1.34-.5-.52 0-1.073.053-1.66.16-.573.107-1.047.247-1.42.42l-.62-1.94zm3.3 7.44c.52 0 .933-.113 1.24-.34.307-.24.533-.493.68-.76v-1.3a7.257 7.257 0 00-1.2-.02 4.321 4.321 0 00-1 .18 1.698 1.698 0 00-.7.4.895.895 0 00-.26.66c0 .373.107.667.32.88.227.2.533.3.92.3zm7.722-2.16v-1.82h1.22c.466 0 .846-.093 1.14-.28.306-.187.46-.433.46-.74 0-.36-.134-.613-.4-.76-.267-.16-.674-.24-1.22-.24-.52 0-.98.067-1.38.2-.4.133-.72.273-.96.42l-.56-1.98c.4-.227.926-.42 1.58-.58a8.392 8.392 0 012.12-.26c1.146 0 2 .213 2.56.64.573.427.86 1.047.86 1.86 0 .227-.034.46-.1.7a2.212 2.212 0 01-.28.66c-.134.213-.3.407-.5.58a2.1 2.1 0 01-.68.38v.08c.706.16 1.206.447 1.5.86.293.4.44.94.44 1.62 0 .427-.087.827-.26 1.2a2.55 2.55 0 01-.8.94c-.347.267-.787.48-1.32.64-.534.16-1.167.24-1.9.24-.734 0-1.374-.073-1.92-.22-.534-.16-.98-.34-1.34-.54l.56-2.02c.306.173.673.313 1.1.42.44.107.926.16 1.46.16 1.213 0 1.82-.387 1.82-1.16 0-.347-.16-.6-.48-.76-.307-.16-.887-.24-1.74-.24h-.98zm17.533 6.42h-1.9l-.3-2.28h-6.72l-.3 2.28h-1.9V65.7h1.18c.106-.147.24-.393.4-.74.173-.36.34-.847.5-1.46.173-.613.32-1.373.44-2.28.12-.907.18-1.98.18-3.22h6.96v7.7h1.46v4.58zm-4.06-4.46V60.2h-2.1c-.027.48-.074.993-.14 1.54a19.467 19.467 0 01-.26 1.56c-.094.507-.207.98-.34 1.42-.134.44-.28.807-.44 1.1h3.28zm11.347-1.76h-3.26V68h-2.6V58h2.6v3.76h3.26V58h2.6v10h-2.6v-3.94zm10.902-.62l.1-1.42h-.06l-.86 1.46-3.56 4.52h-1.64V58h2.6v4.76l-.12 1.36h.08l.82-1.42 3.6-4.7h1.64v10h-2.6v-4.56zm8.178.42h-.7V68h-2.6V58h2.6v4.26l.62-.28 2.34-3.98h2.78l-2.42 3.8-1.02.76 1.12.78 2.7 4.66h-2.98l-2.44-4.14zm6.426-5.28c.533-.24 1.166-.427 1.9-.56a11.7 11.7 0 012.3-.22c.693 0 1.273.087 1.74.26.466.16.833.393 1.1.7.28.307.473.673.58 1.1.12.427.18.907.18 1.44 0 .587-.02 1.18-.06 1.78-.04.587-.067 1.167-.08 1.74 0 .573.02 1.133.06 1.68.04.533.14 1.04.3 1.52h-2.12l-.42-1.38h-.1c-.267.413-.64.773-1.12 1.08-.467.293-1.074.44-1.82.44-.467 0-.887-.067-1.26-.2a2.92 2.92 0 01-.96-.6 2.856 2.856 0 01-.62-.92c-.147-.36-.22-.76-.22-1.2 0-.613.133-1.127.4-1.54.28-.427.673-.767 1.18-1.02.52-.267 1.133-.447 1.84-.54.72-.107 1.52-.14 2.4-.1.093-.747.04-1.28-.16-1.6-.2-.333-.647-.5-1.34-.5a9.29 9.29 0 00-1.66.16c-.574.107-1.047.247-1.42.42l-.62-1.94zm3.3 7.44c.52 0 .933-.113 1.24-.34.306-.24.533-.493.68-.76v-1.3a7.26 7.26 0 00-1.2-.02 4.311 4.311 0 00-1 .18 1.691 1.691 0 00-.7.4.892.892 0 00-.26.66c0 .373.106.667.32.88.226.2.533.3.92.3z" fill="#fff"/><circle cx="220" cy="90" r="15" fill="url(#paint1_linear_128:36735)"/><path d="M215 88l5 5 5-5" stroke="#fff" stroke-width="2"/><defs><linearGradient id="paint0_linear_128:36735" x1="220" y1="30" x2="220" y2="90" gradientUnits="userSpaceOnUse"><stop stop-color="#E9533A"/><stop offset="1" stop-color="#CF4A33"/></linearGradient><linearGradient id="paint1_linear_128:36735" x1="220" y1="75" x2="220" y2="105" gradientUnits="userSpaceOnUse"><stop stop-color="#D44B34"/><stop offset=".469" stop-color="#CF4933"/><stop offset="1" stop-color="#CE4933"/></linearGradient><filter id="filter0_d_128:36735" x="0" y="0" width="440" height="186" filterUnits="userSpaceOnUse" color-interpolation-filters="sRGB"><feFlood flood-opacity="0" result="BackgroundImageFix"/><feColorMatrix in="SourceAlpha" values="0 0 0 0 0 0 0 0 0 0 0 0 0 0 0 0 0 0 127 0" result="hardAlpha"/><feOffset dy="30"/><feGaussianBlur stdDeviation="30"/><feComposite in2="hardAlpha" operator="out"/><feColorMatrix values="0 0 0 0 0.41 0 0 0 0 0.148251 0 0 0 0 0.10206 0 0 0 1 0"/><feBlend in2="BackgroundImageFix" result="effect1_dropShadow_128:36735"/><feBlend in="SourceGraphic" in2="effect1_dropShadow_128:36735" result="shape"/></filter></defs></svg>