<svg width="1920" height="115" fill="none" xmlns="http://www.w3.org/2000/svg"><path d="M286.43 36.845C174.305 9.476-1 94.6-37.165 0l7.087 54.714s1.049.023 3.076.081L-1 74.599h186l202 10.196 273.05 14.804H910l1020 5.196 170.88-60.798h-.37l4.81-37.106c-36.9-2.731 14.81 6.845-97.32 34.202C1814 64.6 1683.3 5.745 1541 6.891 1398.7 8.038 1395 32.6 1272 32.6c-144-9-211-32.599-388-9 0 0-70 8-243 0S398.556 64.202 286.43 36.845z" fill="#D4EDFC"/><path d="M286.43 56.845C174.305 29.476-1 104.6-37.165 10l7.087 54.714s1.049.023 3.076.081L-1 84.599h186l202 10.196 273.05 14.804H910l1020 5.196 170.88-60.798h-.37l4.81-37.106c-36.9-2.731 14.81 6.845-97.32 34.202-194 23.506-324.7-25.348-467-24.202-142.3 1.147-146 25.708-269 25.708-144-9-211-42.599-388-19 0 0-70 3-243-5S398.556 84.202 286.43 56.845z" fill="#fff"/></svg>