<svg width="1920" height="115" fill="none" xmlns="http://www.w3.org/2000/svg"><path d="M1781.73 77.97c112.12 27.37 287.43-57.753 323.59 36.846l-7.08-54.714s-1.05-.023-3.08-.081l-26-19.804h-186l-202-10.196-273.05-14.804h-249.95L138.158 10.021-32.717 70.819h.369l-4.817 37.106c36.898 2.731-14.802-6.845 97.323-34.203 194-23.505 324.702 35.349 467 34.203 142.299-1.147 146-25.708 269-25.708 144 9 211.002 32.599 388.002 9 0 0 70-8 243 0s242.44-40.603 354.57-13.246z" fill="#D4EDFC"/><path d="M1781.73 57.97c112.12 27.37 287.43-47.753 323.59 46.846l-7.08-54.714s-1.05-.023-3.08-.081l-26-19.804-186-20-202-10.196-273.05 5.196h-249.95L138.158.021-32.717.819l.369 60-4.817 37.106c36.898 2.731-14.802-6.845 97.323-34.203 194-23.505 324.702 25.35 467 24.203 142.299-1.147 146-25.708 269-25.708 144 9 211.002 42.599 388.002 19 0 0 70-3 243 5s242.44-55.603 354.57-28.246z" fill="#fff"/></svg>