<svg width="614" height="382" fill="none" xmlns="http://www.w3.org/2000/svg"><path d="M585.16 228.13c.566 0 1.019.923 1.019 2.055 0 1.138-.459 2.055-1.019 2.055-.565 0-1.018-.923-1.018-2.055 0-1.138.453-2.055 1.018-2.055zm6.411-2.502a.437.437 0 01-.251-.453.47.47 0 01.066-.173 2.925 2.925 0 00.453-1.567c0-.059 0-.125-.006-.184 0-.018-.006-.042-.006-.06-.006-.042-.006-.083-.012-.119a.301.301 0 00-.012-.072l-.018-.107c-.006-.024-.006-.048-.012-.071-.006-.036-.018-.072-.024-.108l-.018-.065c-.012-.048-.029-.095-.041-.143-.012-.03-.018-.054-.03-.084a1.384 1.384 0 01-.036-.095l-.036-.083c-.011-.024-.023-.048-.029-.072-.012-.03-.03-.059-.042-.089a.28.28 0 01-.03-.06 2.61 2.61 0 01-.053-.089c-.03-.054-.072-.101-.078-.173a.191.191 0 00-.149-.179c-.024-.005-.036-.023-.047-.041-.03-.036-.054-.066-.084-.096-.006-.005-.012-.017-.024-.023-.029-.03-.059-.06-.089-.096a.083.083 0 00-.024-.018c-.03-.029-.065-.059-.101-.095v.792c.071.102.137.203.19.31.006.006.006.012.012.024a1.5 1.5 0 01.09.203c.006.017.012.035.024.059.006.018.011.042.023.06l.018.059c.006.024.018.054.024.078l.018.077c.006.018.006.03.012.048l.018.077c0 .012.006.024.006.042l.018.113v.024c.006.036.006.072.011.101v.036c0 .042.006.083.006.125 0 .62-.232 1.21-.661 1.662a.399.399 0 01-.381.125 5.708 5.708 0 00-.989-.089h-.602c-.387 0-.774.042-1.149.113-.03.006-.06.006-.084.006a.449.449 0 01-.304-.125 2.43 2.43 0 01-.697-1.704c0-.047 0-.095.006-.143v-.035c0-.036.006-.072.012-.108 0-.012.006-.029.006-.041.006-.042.012-.09.024-.131v-.006a.993.993 0 01.03-.131c.006-.012.006-.03.012-.042a.65.65 0 01.029-.095c.006-.012.006-.03.012-.042.012-.036.024-.078.042-.113 0-.006 0-.006.006-.012.018-.042.036-.084.054-.119.006-.012.012-.024.018-.042.011-.03.029-.054.041-.084.006-.011.012-.023.024-.041a.518.518 0 01.06-.096c.006-.006.006-.011.012-.017l.071-.108c.006-.012.018-.023.024-.035l.053-.072c.012-.012.018-.024.03-.036.03-.035.054-.065.084-.095v-.715l-.018.012a2.708 2.708 0 00-.239.209 3.683 3.683 0 00-.327.375c-.03.042-.06.083-.09.131-.005.012-.011.024-.029.03-.054.024-.102.071-.102.131a.273.273 0 01-.047.143c-.024.047-.048.089-.066.137 0 .006-.006.012-.006.018-.018.047-.041.095-.059.149a1.264 1.264 0 00-.048.143c0 .011-.006.017-.006.029-.012.048-.03.096-.042.149-.012.042-.023.113-.035.155l-.006.018a1.49 1.49 0 00-.024.161c0 .012 0 .018-.006.03a1.235 1.235 0 00-.012.155v.029c0 .054-.006.108-.006.161 0 .584.167 1.144.489 1.633a.42.42 0 01.065.137.426.426 0 01-.232.488 5.701 5.701 0 00-3.235 5.123v3.706c.119-.09.22-.215.31-.37.303-.518.804-.828 1.34-.828s1.037.31 1.34.828c.102.173.227.31.376.412a.686.686 0 00.161.077l.029.012c.382.119.769-.072 1.025-.512.256-.435.643-.721 1.09-.799.417-.071.84.042 1.186.328l.012.012c.018.018.047.036.077.065l.006.006c.042.042.072.078.101.114l.012.011.018.018c.03.03.066.066.101.119.018.024.03.048.042.078.012.012.018.03.03.048.202.345.5.548.81.548.31 0 .602-.203.81-.548.304-.519.805-.828 1.341-.828.536 0 1.036.309 1.34.828.113.19.25.333.399.429v-3.754a5.734 5.734 0 00-3.395-5.188z" fill="#ECA753"/><path d="M589.974 174.846h-2.061v46.731h2.061v-46.731z" fill="#E9533A"/><path d="M585.16 228.112c-.566 0-1.018.923-1.018 2.055 0 1.138.458 2.055 1.018 2.055.566 0 1.019-.923 1.019-2.055 0-1.132-.453-2.055-1.019-2.055z" fill="#FEFEFE"/><path d="M599.982 235.439c3.277 4.23 5.225 9.502 5.225 15.221 0 13.905-11.492 25.176-25.67 25.176-2.532 0-4.975-.363-7.286-1.031 5.415 5.13 13.195 7.793 21.53 6.196 9.728-1.865 17.33-9.556 19.099-19.296 2.061-11.349-3.753-21.613-12.898-26.266z" fill="#C75C21"/><path d="M585.977 254.407c-4.403 3.831-10.164 4.421-12.856 1.323-2.693-3.098-1.311-8.716 3.098-12.546 4.402-3.831 10.163-4.421 12.856-1.323 2.692 3.098 1.304 8.716-3.098 12.546zm14.005-18.968a24.125 24.125 0 00-4.986-1.876v1.018a1.223 1.223 0 01-.405-.428c-.304-.525-.81-.835-1.352-.835s-1.043.31-1.347.835c-.208.351-.5.554-.816.554-.31 0-.607-.203-.816-.554l-.03-.048a.36.36 0 00-.041-.078c-.036-.053-.078-.095-.102-.125-.006-.006-.012-.012-.018-.024l-.012-.011a.86.86 0 00-.107-.114l-.006-.006c-.029-.029-.059-.047-.077-.065l-.012-.012a1.445 1.445 0 00-1.192-.328c-.446.078-.84.364-1.096.805-.256.44-.655.637-1.036.512-.006-.006-.018-.006-.03-.012a.705.705 0 01-.161-.077 1.2 1.2 0 01-.375-.412c-.304-.524-.81-.834-1.347-.834-.542 0-1.042.31-1.346.834-.089.155-.197.28-.316.37v-.971c-10.526 2.681-18.307 12.218-18.307 23.579a24.25 24.25 0 007.608 17.669 26.195 26.195 0 007.286 1.031c14.178 0 25.67-11.271 25.67-25.176a24.85 24.85 0 00-5.231-15.221z" fill="#E06522"/><path d="M600.131 239.919c-2.061.417-3.479 10.682-7.095 17.753-4.247 8.311-12.957 13.833-10.252 16.377 2.079 1.954 11.908-6.315 15.375-15.096 5.416-13.702 3.462-19.332 1.972-19.034zm-11.057 1.936a5.511 5.511 0 011.156 2.205c2.091-2.109 8.251-5.928 5.296-7.364-2.079-1.012-5.069 1.263-7.035 2.467-.584.357-1.15.738-1.704 1.137a5.555 5.555 0 012.287 1.555zm-8.09 17.05c-1.584 5.791-3.55 5.469-4.581 9.502-.042.161-.048.876.012 1.037.232.625 1.472.59 2.032.298 2.257-1.174 3.342-2.413 4.605-4.623.81-1.418 1.072-3.074 1.364-4.683.417-2.293.709-3.967 1.09-5.635-1.34 1.072-2.782 1.852-4.212 2.335-.083.667-.179 1.299-.31 1.769z" fill="#2D3344"/><path d="M579.817 251.697c-.912 0-2.747 2.579-4.135 5.677 1.639.524 3.616.429 5.612-.244.119-1.031.185-2.151.215-2.901.035-1.233-.525-2.532-1.692-2.532zm-.62-8.787c-1.322 1.388-2.639 2.782-3.973 4.176-1.293 1.352-2.437 2.52-3.414 3.658-.244 1.894.161 3.663 1.305 4.98.107.125.22.244.339.357 1.412-3.044 3.688-6.612 7.435-10.514 1.829-1.901 3.753-3.73 5.892-5.267-2.979-1.102-7.173-.071-10.569 2.878-.333.286-.643.584-.941.893a37.03 37.03 0 013.295-1.989c.53-.286 1.042.393.631.828zm7.828 6.702c-.715 2.061-1.161 3.622-1.519 5.183.161-.125.316-.256.471-.394 3.497-3.038 5.087-7.202 4.253-10.341a4.373 4.373 0 00-.244.262c-.965 1.102-2.585 4.206-2.961 5.29z" fill="#EF803C"/><path d="M580.895 245.567c-3.747 3.902-6.023 7.47-7.435 10.514a5.663 5.663 0 002.222 1.293c1.388-3.098 3.223-5.677 4.135-5.677 1.167 0 1.727 1.293 1.686 2.538a35.1 35.1 0 01-.215 2.901c1.436-.483 2.878-1.269 4.212-2.335.364-1.561.804-3.122 1.519-5.183.376-1.084 1.99-4.194 2.961-5.29.072-.084.155-.173.244-.262a5.561 5.561 0 00-1.155-2.205 5.564 5.564 0 00-2.288-1.555c-2.127 1.537-4.057 3.36-5.886 5.261zm-5.665 1.519c1.334-1.394 2.651-2.788 3.973-4.176.411-.435-.101-1.114-.625-.828a36.19 36.19 0 00-3.295 1.989c-1.972 2.038-3.175 4.445-3.461 6.679.965-1.138 2.115-2.312 3.408-3.664z" fill="#535252"/><path d="M611.998 264.446c-2.401 2.954-4.712 6.022-5.159 6.648-1.132 1.602-3.681 4.271-5.475 6.714a24.087 24.087 0 01-10.616 3.342c1.317-.536 2.604-1.15 3.795-1.924 2.77-1.799 8.609-7.429 10.861-11.879 2.162-4.272 5.701-14.471 4.777-21.893a23.99 23.99 0 012.967 11.604c0 2.58-.405 5.058-1.15 7.388zm-27.201 16.4a24.069 24.069 0 01-10.95-4.98.111.111 0 00.012-.042c.197-.727.709-2.919.441-4.712-.167-1.096-.441-2.997-.482-4.373-.06-1.918.256-4.837.834-6.666a25.97 25.97 0 011.03-2.699 5.706 5.706 0 01-2.222-1.293c-1.68 3.623-2.127 6.506-2.353 8.329-.286 2.323-.196 6.136.215 9.103a24.18 24.18 0 01-3.283-4.456c-.423-3.033-.87-8.788.923-13.744.608-1.674 1.579-3.092 2.854-4.575.292-2.234 1.489-4.635 3.461-6.678a32.993 32.993 0 00-5.379 4.545c-.799.84-2.52 2.913-3.313 5.284-.863 2.592-1.334 5.278-1.257 7.983a24.377 24.377 0 01-.482-4.825c0-10.956 7.292-20.208 17.294-23.163v.751c-4.659 1.716-7.202 3.735-7.887 4.325a33.96 33.96 0 00-2.777 2.693c-.613.667-1.221 1.441-1.542 2.275-.322.817.554 1.591 1.328 1.168 1.597-.87 2.967-2.21 4.426-3.336 4.79-3.699 8.775-3.866 12.666-5.153.601-.197 1.471-.614 2.454-1.084.083.012.167.018.25.018.56 0 1.079-.292 1.436-.805.351-.161.709-.309 1.054-.452.096.071.185.166.263.291.363.626.935.977 1.566.972a.423.423 0 00.417-.423v-1.246a24.164 24.164 0 019.937 5.767c-.03 2.675.489 6.911.322 10.068-.268 5.225-5.153 13.565-9.842 20.44-2.15 3.157-7.673 7.875-11.414 10.693zm-1.805-46.497v-3.515a5.713 5.713 0 013.229-5.123.478.478 0 00.125-.083.428.428 0 00.054-.537 2.968 2.968 0 01-.495-1.638c0-.054 0-.107.006-.161v-.03c.006-.053.006-.101.012-.154 0-.012 0-.018.006-.03a1.49 1.49 0 01.024-.161v-.012c.006-.042.024-.113.036-.155.011-.048.023-.095.041-.149 0-.012.006-.018.006-.03.018-.047.03-.095.048-.143.018-.047.036-.095.059-.148 0-.006.006-.012.006-.018a.914.914 0 01.066-.137c.018-.042.167-.292.173-.304.029-.042.059-.09.089-.131.066-.084.131-.167.203-.245l.017-.017c.036-.036.066-.072.102-.108.083-.083.172-.16.268-.232v.715c-.03.03-.06.065-.084.095-.011.012-.017.024-.029.036a4.381 4.381 0 01-.054.071c-.006.012-.018.024-.024.036l-.071.107c-.006.006-.006.012-.012.018-.018.03-.036.066-.06.096a.345.345 0 01-.024.041c-.012.03-.029.054-.041.084-.006.012-.012.024-.018.041l-.054.12c0 .006 0 .006-.006.012-.012.035-.03.077-.041.113-.006.012-.006.029-.012.041-.012.03-.018.06-.03.096-.006.012-.006.024-.012.041-.012.042-.024.09-.03.131v.006c-.006.042-.018.09-.024.131 0 .012-.006.024-.006.042-.006.036-.006.072-.012.101 0 .012 0 .03-.006.042 0 .048-.005.095-.005.143 0 .638.244 1.245.697 1.704.083.083.19.125.303.125.03 0 .06 0 .084-.006a5.728 5.728 0 011.15-.113h.601c.328 0 .656.03.989.089a.426.426 0 00.381-.125 2.404 2.404 0 00.662-1.662c0-.042 0-.083-.006-.125v-.036a.518.518 0 00-.012-.101v-.024l-.018-.113c0-.012-.006-.024-.006-.042l-.018-.077c-.006-.018-.006-.03-.012-.048l-.018-.077c-.006-.024-.012-.054-.024-.078l-.017-.059c-.006-.018-.012-.042-.024-.06a.085.085 0 01-.012-.036 2.914 2.914 0 00-.101-.226c-.006-.006-.006-.012-.006-.018a2.923 2.923 0 00-.191-.31v-.786c.036.03.066.06.101.095.006.006.012.012.024.018.03.03.06.06.089.095.006.006.012.018.024.024.03.03.06.066.084.096.012.017.238.333.274.387l.053.089a.28.28 0 01.03.06c.012.03.03.059.042.089a.367.367 0 01.03.072l.035.083c.012.03.024.06.036.095.012.03.018.054.03.084.018.047.03.095.042.143.006.024.012.041.017.065.006.036.018.072.024.107a.301.301 0 01.012.072l.018.107c.006.024.006.048.012.066.006.041.006.083.012.119 0 .018.006.042.006.059.006.06.006.12.006.185 0 .554-.155 1.096-.453 1.567a.43.43 0 00.185.625 5.682 5.682 0 013.378 5.189v3.747a1.272 1.272 0 01-.4-.429 1.938 1.938 0 00-.131-.19c-.303-.399-.744-.638-1.209-.638-.536 0-1.037.31-1.34.828-.203.352-.501.549-.811.549-.309 0-.601-.203-.81-.549l-.03-.047c-.011-.024-.023-.054-.041-.078a.824.824 0 00-.102-.119l-.017-.018-.012-.012c-.03-.035-.06-.071-.102-.113l-.006-.006c-.029-.029-.059-.047-.077-.065l-.012-.012a1.45 1.45 0 00-1.185-.328c-.447.078-.834.364-1.091.798-.256.435-.649.632-1.024.513-.006-.006-.018-.006-.03-.012a.798.798 0 01-.161-.078 1.136 1.136 0 01-.375-.411 1.664 1.664 0 00-.524-.566 1.455 1.455 0 00-.817-.262c-.536 0-1.036.31-1.34.828-.018.036-.042.066-.066.102-.077.107-.16.196-.25.268l.03-.185zm4.665-11.915h2.424c.233.274.37.626.37 1.013 0 .328-.102.649-.292.918a6.37 6.37 0 00-.888-.06h-.602c-.357 0-.72.03-1.072.089a1.573 1.573 0 01-.31-.941c0-.393.137-.745.37-1.019zm.268-47.582h2.061v46.73h-2.061v-46.73zm24.109 72.478a24.984 24.984 0 00-6.243-8.793 24.88 24.88 0 00-8.692-5.141 20.289 20.289 0 00-1.299-.405v-2.163a6.528 6.528 0 00-3.473-5.766 3.792 3.792 0 00.364-1.615 3.823 3.823 0 00-1.853-3.27v-45.754a.425.425 0 00-.423-.423h-2.913a.424.424 0 00-.423.423v45.658a3.817 3.817 0 00-1.621 5.064 6.565 6.565 0 00-3.312 5.683v2.181c-.59.166-1.179.357-1.757.572a24.938 24.938 0 00-9.067 5.796 24.878 24.878 0 00-5.356 7.947 24.813 24.813 0 00-1.966 9.729c0 3.276.626 6.457 1.853 9.46.035.089.077.184.113.274a24.766 24.766 0 002.425 4.42 25.245 25.245 0 002.931 3.527c.083.083.166.161.25.244a24.86 24.86 0 0016.662 7.066 24.825 24.825 0 0012.094-2.699 24.985 24.985 0 006.35-4.617 24.867 24.867 0 005.356-7.947 24.867 24.867 0 001.299-3.962c.441-1.876.667-3.807.667-5.766 0-3.366-.661-6.643-1.966-9.723z" fill="#2D3344"/><path d="M72.053 230.592c-10.362-30.851-14.952-64.241-12.52-98.768a261.48 261.48 0 011.883-17.909L0 127.547l37.539 172.699 61.394-13.633a252.71 252.71 0 01-26.88-56.021zM512.261 13.878a245.526 245.526 0 017.17 11.873 252.936 252.936 0 0119.71 44.171c10.363 30.851 14.952 64.241 12.541 98.767a261.318 261.318 0 01-1.882 17.91l61.394-13.633L573.656.246l-61.395 13.632z" fill="#3FBDD8"/><path d="M77.383 228.765c-10.13-30.138-14.593-62.793-12.245-96.518a248.024 248.024 0 012.157-19.624l-5.9 1.314a261.443 261.443 0 00-1.883 17.91c-2.41 34.526 2.178 67.916 12.52 98.767a253.656 253.656 0 0019.71 44.171 256.3 256.3 0 007.17 11.873l5.9-1.314a256.485 256.485 0 01-8.184-13.41 249.09 249.09 0 01-19.245-43.169zM539.142 69.9a253.609 253.609 0 00-19.711-44.172 256.018 256.018 0 00-7.169-11.872l-5.9 1.314a256.167 256.167 0 018.184 13.41 245.889 245.889 0 0119.266 43.146c10.131 30.138 14.614 62.771 12.246 96.496a248.306 248.306 0 01-2.158 19.624l5.901-1.314a261.354 261.354 0 001.882-17.909c2.39-34.482-2.178-67.872-12.541-98.723z" fill="#3FBDD8"/><path d="M82.733 226.916c-9.876-29.425-14.254-61.301-11.949-94.245a243.921 243.921 0 012.432-21.362l-5.9 1.314a249.193 249.193 0 00-2.157 19.625c-2.369 33.724 2.114 66.357 12.245 96.495A245.92 245.92 0 0096.67 271.89a237.715 237.715 0 008.185 13.409l5.921-1.314a236.122 236.122 0 01-9.199-14.947 235.967 235.967 0 01-18.844-42.122zM533.79 71.749a245.89 245.89 0 00-19.266-43.147 237.635 237.635 0 00-8.185-13.41l-5.921 1.314a236.139 236.139 0 019.199 14.947 241.436 241.436 0 0118.823 42.144c9.876 29.426 14.254 61.301 11.949 94.246a244.42 244.42 0 01-2.432 21.362l5.9-1.315a248.926 248.926 0 002.157-19.624c2.39-33.747-2.093-66.379-12.224-96.517z" fill="#60C2D0"/><path d="M528.462 73.575a241.506 241.506 0 00-18.823-42.144 246.733 246.733 0 00-9.199-14.947l-5.943 1.314a237.1 237.1 0 0110.257 16.462 234.593 234.593 0 0118.357 41.142c9.644 28.734 13.916 59.83 11.674 91.995a242.946 242.946 0 01-2.749 23.1l5.942-1.315a243.587 243.587 0 002.432-21.361c2.306-32.945-2.072-64.798-11.948-94.246zM88.063 225.09c-9.644-28.735-13.916-59.831-11.674-91.996.55-7.819 1.48-15.526 2.75-23.099l-5.944 1.314a243.921 243.921 0 00-2.432 21.362c-2.305 32.945 2.073 64.82 11.95 94.245a241.466 241.466 0 0018.822 42.145 246.215 246.215 0 009.199 14.946l5.943-1.314a236.455 236.455 0 01-10.257-16.461 237.656 237.656 0 01-18.357-41.142z" fill="#7AC7C7"/><path d="M523.111 75.424a236.153 236.153 0 00-18.357-41.142 231.208 231.208 0 00-10.257-16.461l-5.964 1.314c28.953 41.565 44.454 93.154 40.627 147.839a231.978 231.978 0 01-3.088 24.837l5.964-1.314a242.963 242.963 0 002.749-23.099c2.242-32.143-2.009-63.261-11.674-91.974zM82.014 133.517a231.755 231.755 0 013.088-24.837l-5.964 1.315a242.886 242.886 0 00-2.75 23.099c-2.24 32.143 2.031 63.261 11.675 91.996a236.185 236.185 0 0018.357 41.142 231.384 231.384 0 0010.257 16.461l5.964-1.314c-28.931-41.588-44.455-93.177-40.627-147.862z" fill="#8ECCBD"/><path d="M84.806 133.717a232.079 232.079 0 013.257-25.705l-2.961.668a233.193 233.193 0 00-3.088 24.837c-3.828 54.685 11.696 106.274 40.627 147.839l2.961-.668c-28.995-41.209-44.603-92.53-40.796-146.971zM488.532 19.135l-2.96.668c29.016 41.231 44.623 92.553 40.816 146.971a232.137 232.137 0 01-3.256 25.705l2.96-.646a232.885 232.885 0 003.088-24.836c3.807-54.686-11.716-106.297-40.648-147.862z" fill="#8ECCBD"/><path d="M87.597 133.94a227 227 0 013.448-26.574l-2.982.668a232.067 232.067 0 00-3.257 25.706c-3.807 54.44 11.78 105.762 40.817 146.97l2.982-.668c-29.122-40.875-44.793-91.929-41.007-146.102zM485.572 19.803l-2.982.668c29.1 40.875 44.772 91.929 40.986 146.125a227.021 227.021 0 01-3.447 26.574l2.982-.669a232.138 232.138 0 003.257-25.705c3.806-54.462-11.78-105.784-40.796-146.993z" fill="#A0CCB8"/><path d="M482.59 20.45l-2.982.668c29.185 40.518 44.962 91.305 41.177 145.233a227.984 227.984 0 01-3.617 27.442l2.982-.668a228.032 228.032 0 003.447-26.574c3.786-54.173-11.906-105.227-41.007-146.102zM90.389 134.141a227.88 227.88 0 013.616-27.443l-2.982.668a228.22 228.22 0 00-3.447 26.575c-3.785 54.172 11.886 105.249 40.986 146.124l2.982-.669c-29.164-40.518-44.92-91.327-41.155-145.255z" fill="#B0CCB2"/><path d="M93.18 134.341a221.368 221.368 0 013.828-28.311l-2.981.668a220.252 220.252 0 00-3.617 27.443c-3.764 53.928 11.991 104.737 41.177 145.233l2.981-.668c-29.29-40.14-45.152-90.682-41.387-144.365zM479.608 21.117l-2.982.669c29.27 40.14 45.131 90.681 41.388 144.364a222.294 222.294 0 01-3.828 28.334l2.982-.668a220.233 220.233 0 003.616-27.443c3.786-53.95-11.991-104.76-41.176-145.255z" fill="#BCCAAC"/><path d="M476.626 21.786l-3.003.668c29.375 39.783 45.322 90.058 41.578 143.496a219.998 219.998 0 01-4.018 29.202l2.982-.668a221.207 221.207 0 003.828-28.334c3.764-53.683-12.097-104.225-41.367-144.364zM95.972 134.564a220.014 220.014 0 014.019-29.202l-2.982.668a221.332 221.332 0 00-3.828 28.311c-3.765 53.683 12.097 104.225 41.388 144.365l3.003-.668c-29.397-39.761-45.343-90.058-41.6-143.474z" fill="#CAC9A6"/><path d="M473.623 22.432l-3.003.668c29.481 39.427 45.533 89.434 41.811 142.627a214.762 214.762 0 01-4.251 30.071l3.003-.668a216.117 216.117 0 004.019-29.203c3.743-53.415-12.203-103.69-41.579-143.495zM98.764 134.765a215.275 215.275 0 014.251-30.072l-3.003.669a216.039 216.039 0 00-4.019 29.202c-3.743 53.438 12.224 103.713 41.579 143.496l3.003-.669c-29.481-39.426-45.533-89.434-41.811-142.626z" fill="#D6C7A2"/><path d="M470.62 23.1l-3.003.668c29.587 39.048 45.723 88.811 42.022 141.736a211.058 211.058 0 01-4.462 30.94l3.003-.668a214.804 214.804 0 004.251-30.071c3.722-53.149-12.33-103.178-41.811-142.605zM101.534 134.965a211.059 211.059 0 014.463-30.94l-3.004.668a214.952 214.952 0 00-4.25 30.071c-3.723 53.193 12.329 103.201 41.81 142.627l3.003-.668c-29.565-39.048-45.723-88.81-42.022-141.758z" fill="#E1C59C"/><path d="M104.326 135.188a208.852 208.852 0 014.695-31.831l-3.024.668a211.941 211.941 0 00-4.463 30.94c-3.7 52.948 12.457 102.71 42.022 141.736l3.025-.668c-29.672-38.648-45.935-88.165-42.255-140.845zm363.291-111.42l-3.025.668c29.693 38.67 45.935 88.187 42.255 140.868a208.89 208.89 0 01-4.695 31.831l3.025-.669a212.057 212.057 0 004.462-30.94c3.701-52.947-12.457-102.71-42.022-141.758z" fill="#ECC296"/><path d="M107.118 135.388a206.736 206.736 0 014.927-32.7l-3.024.669a208.852 208.852 0 00-4.695 31.831c-3.68 52.702 12.583 102.197 42.255 140.867l3.024-.668c-29.777-38.291-46.146-87.541-42.487-139.999zM464.593 24.459l-3.025.668c29.799 38.29 46.168 87.541 42.509 139.976a206.603 206.603 0 01-4.928 32.7l3.025-.668a209.138 209.138 0 004.695-31.831c3.658-52.681-12.584-102.198-42.276-140.845z" fill="#F3BC8F"/><path d="M461.569 25.127l-3.151.69c29.925 37.89 46.421 86.873 42.762 139.063a201.518 201.518 0 01-5.202 33.636l3.172-.713a206.736 206.736 0 004.927-32.7c3.659-52.458-12.71-101.708-42.508-139.976zM110.015 135.611a201.403 201.403 0 015.203-33.635l-3.173.69a206.736 206.736 0 00-4.927 32.7c-3.659 52.458 12.71 101.708 42.508 139.976l3.152-.69c-29.926-37.868-46.401-86.851-42.763-139.041z" fill="#F3BC8F"/><path d="M112.933 135.834a200.58 200.58 0 015.457-34.549l-3.173.713c-2.622 10.848-4.377 22.097-5.202 33.635-3.638 52.168 12.837 101.151 42.762 139.041l3.173-.713c-30.053-37.466-46.654-86.182-43.017-138.127zM458.397 25.818l-3.173.712c30.052 37.467 46.675 86.182 43.038 138.15a200.58 200.58 0 01-5.457 34.549l3.173-.713a203.23 203.23 0 005.202-33.636c3.638-52.19-12.858-101.173-42.783-139.062z" fill="#E9B598"/><path d="M455.224 26.53l-3.193.713c30.179 37.066 46.929 85.514 43.312 137.214a196.444 196.444 0 01-5.752 35.462l3.193-.713a200.47 200.47 0 005.456-34.548c3.659-51.946-12.964-100.661-43.016-138.128zM115.831 136.034a196.444 196.444 0 015.752-35.462l-3.193.713c-2.792 11.138-4.632 22.676-5.456 34.549-3.638 51.945 12.985 100.66 43.037 138.149l3.193-.713c-30.2-37.065-46.95-85.513-43.333-137.236z" fill="#DDAD9F"/><path d="M118.728 136.257a193.486 193.486 0 016.049-36.397l-3.194.712a196.774 196.774 0 00-5.752 35.462c-3.616 51.701 13.133 100.149 43.312 137.214l3.194-.712c-30.327-36.621-47.204-84.824-43.609-136.279zM452.031 27.243l-3.194.713c30.328 36.642 47.225 84.823 43.63 136.301a193.477 193.477 0 01-6.049 36.397l3.194-.713a196.671 196.671 0 005.752-35.462c3.617-51.722-13.133-100.17-43.333-137.236z" fill="#D1A4A5"/><path d="M448.837 27.934l-3.214.712c30.475 36.22 47.52 84.133 43.925 135.366-.909 12.875-3.066 25.371-6.366 37.333l3.215-.713a195.296 195.296 0 006.049-36.398c3.616-51.455-13.282-99.636-43.609-136.3zM121.626 136.48c.909-12.875 3.066-25.372 6.365-37.333l-3.214.713a195.199 195.199 0 00-6.049 36.397c-3.595 51.455 13.282 99.658 43.63 136.301l3.214-.713c-30.496-36.219-47.521-84.155-43.946-135.365z" fill="#C69DAA"/><path d="M445.622 28.669l-3.235.712c.105.134.211.245.338.38 30.433 35.75 47.479 83.241 43.926 134.05a189.05 189.05 0 01-6.683 38.269l3.236-.713c3.299-11.962 5.456-24.436 6.365-37.333 3.574-51.233-13.471-99.146-43.947-135.365zM124.523 136.702a188.906 188.906 0 016.683-38.268l-3.236.713c-3.299 11.961-5.456 24.435-6.366 37.333-3.574 51.21 13.451 99.146 43.926 135.365l3.236-.713c-.106-.134-.212-.245-.339-.379-30.412-35.751-47.457-83.264-43.904-134.051z" fill="#B994AE"/><path d="M127.42 136.903c.952-13.566 3.342-26.686 7.022-39.204l-3.236.713c-3.49 12.229-5.753 25.037-6.683 38.268-3.553 50.809 13.493 98.3 43.926 134.051.105.134.211.245.338.379l3.257-.713c-.465-.535-.931-1.047-1.375-1.582-29.967-35.172-46.738-81.927-43.249-131.912zM442.725 29.76c-.106-.134-.212-.245-.339-.379l-3.257.713c.466.535.931 1.047 1.375 1.582 29.968 35.172 46.76 81.927 43.249 131.912-.952 13.566-3.341 26.686-7.021 39.205l3.235-.713c3.49-12.229 5.753-25.037 6.683-38.269 3.553-50.809-13.492-98.322-43.925-134.05z" fill="#AD8CB1"/><path d="M440.526 31.676c-.465-.535-.931-1.047-1.375-1.582l-3.257.713a99.759 99.759 0 012.432 2.807c29.46 34.593 45.956 80.591 42.53 129.752-.973 13.921-3.489 27.353-7.381 40.139l3.257-.713c3.68-12.518 6.07-25.616 7.022-39.204 3.51-49.985-13.282-96.74-43.228-131.912zm-310.208 105.45c.972-13.922 3.489-27.354 7.38-40.14l-3.256.713c-3.68 12.519-6.07 25.616-7.022 39.204-3.489 49.985 13.282 96.74 43.228 131.913l1.375 1.581 3.257-.713a148.637 148.637 0 01-2.433-2.806c-29.46-34.593-45.955-80.569-42.529-129.752z" fill="#A285B5"/><path d="M133.236 137.348a178.04 178.04 0 017.762-41.075l-3.278.735c-3.892 12.786-6.409 26.218-7.381 40.14-3.448 49.161 13.048 95.137 42.508 129.73.804.935 1.608 1.871 2.432 2.806l3.278-.735a311.97 311.97 0 01-3.531-3.987c-28.953-34.036-45.174-79.255-41.79-127.614zm305.09-103.734c-.804-.936-1.607-1.871-2.432-2.807l-3.278.735a310.028 310.028 0 013.532 3.987c28.973 34.037 45.194 79.255 41.832 127.614a178.045 178.045 0 01-7.762 41.075l3.278-.735c3.892-12.786 6.408-26.218 7.381-40.14 3.426-49.138-13.091-95.136-42.551-129.73z" fill="#967DB7"/><path d="M136.62 137.593c1.036-14.701 3.849-28.823 8.227-42.188l-3.849.846a178.045 178.045 0 00-7.762 41.075c-3.383 48.359 12.837 93.578 41.832 127.614a122.838 122.838 0 003.532 3.987l3.849-.846a189.64 189.64 0 01-4.801-5.391c-28.423-33.346-44.348-77.673-41.028-125.097zM436.127 35.552a123.27 123.27 0 00-3.532-3.988l-3.849.847a189.9 189.9 0 014.801 5.39c28.402 33.346 44.306 77.696 41.007 125.097-1.036 14.701-3.849 28.824-8.227 42.189l3.849-.847c4.103-13.053 6.746-26.797 7.762-41.075 3.405-48.381-12.838-93.6-41.811-127.613z" fill="#967DB7"/><path d="M180.186 260.44c-27.831-32.677-43.418-76.136-40.182-122.579 1.057-15.125 4.039-29.648 8.713-43.303l-3.891.869c-4.378 13.365-7.191 27.487-8.227 42.189-3.32 47.401 12.604 91.728 41.007 125.096a188.108 188.108 0 004.801 5.391l3.891-.869a202.699 202.699 0 01-6.112-6.794zM433.568 37.801a189.896 189.896 0 00-4.801-5.39l-3.892.869a182.169 182.169 0 016.134 6.794c27.831 32.677 43.418 76.136 40.182 122.579a171.192 171.192 0 01-8.713 43.303l3.891-.869c4.378-13.365 7.191-27.487 8.227-42.189 3.278-47.401-12.626-91.75-41.028-125.097z" fill="#9585BA"/><path d="M430.988 40.051a166.136 166.136 0 00-6.133-6.794l-3.913.87c2.58 2.65 5.076 5.367 7.466 8.196 27.26 32.01 42.529 74.577 39.357 120.063a166.92 166.92 0 01-9.242 44.438l3.913-.868a171.43 171.43 0 008.713-43.303c3.278-46.466-12.33-89.902-40.161-122.602zM182.766 258.168c-27.26-32.009-42.53-74.576-39.357-120.062a166.933 166.933 0 019.242-44.439l-3.913.869a171.343 171.343 0 00-8.713 43.303c-3.257 46.443 12.351 89.902 40.182 122.579a164.95 164.95 0 006.133 6.794l3.913-.869a140.29 140.29 0 01-7.487-8.175z" fill="#948FBE"/><path d="M428.429 42.323a166.955 166.955 0 00-7.466-8.197l-3.955.869a160.59 160.59 0 018.841 9.578c26.689 31.34 41.641 73.018 38.532 117.545-1.121 15.994-4.483 31.297-9.792 45.553l3.955-.869c4.97-13.966 8.142-28.868 9.242-44.439 3.172-45.485-12.097-88.03-39.357-120.04zM185.325 255.918c-26.689-31.341-41.641-73.017-38.511-117.545 1.12-15.993 4.483-31.296 9.791-45.552l-3.954.868c-4.97 13.967-8.143 28.869-9.242 44.439-3.194 45.508 12.097 88.053 39.357 120.062a166.972 166.972 0 007.466 8.198l3.954-.869a168.821 168.821 0 01-8.861-9.601z" fill="#9397BE"/><path d="M187.905 253.669c-26.118-30.673-40.753-71.459-37.708-115.051 1.142-16.461 4.738-32.12 10.384-46.71l-3.997.89c-5.287 14.279-8.671 29.559-9.792 45.553-3.109 44.55 11.844 86.204 38.533 117.545a160.903 160.903 0 008.84 9.578l3.976-.891c-3.574-3.452-7-7.105-10.236-10.914zM425.848 44.573a160.24 160.24 0 00-8.84-9.578l-3.976.89c3.595 3.476 7 7.129 10.257 10.938 26.119 30.673 40.754 71.436 37.708 115.05-1.142 16.462-4.737 32.121-10.384 46.711l3.997-.891c5.288-14.278 8.671-29.559 9.792-45.552 3.088-44.55-11.864-86.227-38.554-117.568z" fill="#92A0C1"/><path d="M423.289 46.845a152.453 152.453 0 00-10.257-10.937l-4.039.891a157.151 157.151 0 0111.716 12.318c25.548 29.982 39.865 69.855 36.883 112.511-1.184 16.907-4.991 32.99-11.018 47.847l4.018-.891c5.647-14.568 9.221-30.249 10.384-46.711 3.067-43.592-11.568-84.355-37.687-115.028zM190.465 251.396c-25.548-30.004-39.866-69.876-36.862-112.533 1.184-16.907 4.991-32.989 11.018-47.847l-4.018.891c-5.647 14.568-9.221 30.25-10.384 46.689-3.046 43.592 11.589 84.378 37.708 115.05a152.7 152.7 0 0010.257 10.937l4.039-.891a146.26 146.26 0 01-11.758-12.296z" fill="#91A9C2"/><path d="M420.709 49.095a157.151 157.151 0 00-11.716-12.318l-4.061.89c33.119 30.25 52.66 75.134 49.256 123.694-1.227 17.397-5.288 33.858-11.696 49.005l4.082-.913c6.006-14.858 9.834-30.94 11.018-47.847 2.982-42.634-11.335-82.507-36.883-112.511zM156.986 139.13c1.227-17.374 5.287-33.858 11.695-49.005l-4.081.914c-6.007 14.857-9.835 30.94-11.019 47.846-2.982 42.635 11.336 82.529 36.883 112.534 3.68 4.321 7.593 8.42 11.717 12.318l4.06-.891c-33.119-30.272-52.66-75.156-49.255-123.716z" fill="#91B0C2"/><path d="M160.391 139.376c1.248-17.865 5.583-34.75 12.414-50.164l-4.103.913c-6.408 15.147-10.468 31.631-11.695 49.005-3.405 48.56 16.136 93.444 49.255 123.694l4.103-.914c-33.478-29.559-53.358-74.198-49.974-122.534zM404.932 37.69l-4.102.913c33.478 29.56 53.358 74.176 49.974 122.513-1.248 17.864-5.583 34.749-12.415 50.163l4.103-.913c6.408-15.147 10.469-31.631 11.696-49.005 3.404-48.537-16.137-93.421-49.256-123.67z" fill="#90B8C3"/><path d="M400.829 38.603l-4.187.936c33.88 28.846 54.14 73.196 50.756 121.332-1.29 18.354-5.9 35.662-13.196 51.344l4.187-.936c6.831-15.414 11.167-32.299 12.414-50.163 3.384-48.337-16.496-92.954-49.974-122.513zm-237.054 101.04c1.29-18.355 5.9-35.663 13.196-51.344l-4.187.935c-6.831 15.415-11.167 32.299-12.414 50.164-3.384 48.336 16.496 92.953 49.974 122.512l4.187-.935c-33.859-28.846-54.119-73.196-50.756-121.332z" fill="#8FBDC0"/><path d="M396.642 39.517l-4.23.935c34.282 28.089 54.965 72.193 51.603 120.152-1.311 18.866-6.239 36.597-14.043 52.546l4.23-.935c7.296-15.682 11.907-32.99 13.197-51.344 3.383-48.137-16.877-92.508-50.757-121.355zM167.18 139.888c1.311-18.867 6.239-36.598 14.043-52.547l-4.23.936c-7.296 15.681-11.907 32.989-13.197 51.344-3.362 48.136 16.898 92.508 50.757 121.332l4.23-.936c-34.304-28.066-54.966-72.171-51.603-120.129z" fill="#8FC5BF"/><path d="M170.563 140.133c1.354-19.402 6.62-37.556 14.953-53.75l-4.294.958c-7.782 15.949-12.71 33.68-14.042 52.547-3.363 47.958 17.32 92.063 51.602 120.151l4.293-.957c-34.747-27.287-55.853-71.169-52.512-118.949zm221.849-99.659l-4.293.958c34.747 27.287 55.854 71.169 52.512 118.927-1.353 19.401-6.619 37.555-14.952 53.749l4.293-.958c7.783-15.949 12.711-33.679 14.043-52.546 3.341-47.936-17.321-92.063-51.603-120.13z" fill="#8ECCBD"/><path d="M388.119 41.41l-8.586 1.916c35.741 25.616 57.799 69.052 54.479 116.542-1.438 20.493-7.445 39.539-16.94 56.156l8.607-1.916c8.312-16.194 13.578-34.348 14.952-53.75 3.321-47.779-17.765-91.639-52.512-118.948zm-210.936 99.235c1.438-20.493 7.444-39.538 16.94-56.155l-8.608 1.915c-8.311 16.194-13.577 34.348-14.952 53.75-3.341 47.78 17.765 91.639 52.512 118.926l8.587-1.915c-35.741-25.617-57.799-69.031-54.479-116.521z" fill="#8ECCBD"/><path d="M379.512 43.325l-8.989 2.005c36.926 23.7 60.168 66.759 56.848 114.048-1.523 21.696-8.438 41.655-19.33 58.65l8.988-2.004c9.496-16.64 15.502-35.663 16.94-56.156 3.363-47.49-18.716-90.926-54.457-116.542zm-195.731 97.81c1.523-21.696 8.439-41.654 19.33-58.65l-8.988 2.005c-9.496 16.639-15.502 35.662-16.94 56.155-3.32 47.49 18.738 90.927 54.479 116.543l8.988-1.982c-36.926-23.723-60.168-66.781-56.869-114.071z" fill="#A0CCB8"/><path d="M370.545 45.33l-9.496 2.117c38.364 21.45 63.044 64.218 59.745 111.441-1.608 23.033-9.665 43.994-22.227 61.257l9.516-2.116c10.892-16.996 17.808-36.977 19.33-58.651 3.299-47.312-19.943-90.347-56.868-114.048zm-180.144 96.295c1.607-23.032 9.665-43.993 22.227-61.256l-9.517 2.116c-10.892 16.996-17.807 36.977-19.33 58.65-3.299 47.29 19.943 90.348 56.848 114.048l9.495-2.116c-38.342-21.451-63.022-64.219-59.723-111.442z" fill="#B0CCB2"/><path d="M361.028 47.424l-10.257 2.272c40.161 18.734 66.703 61.301 63.403 108.68-1.713 24.592-11.229 46.688-25.885 64.041l10.278-2.272c12.562-17.263 20.62-38.247 22.227-61.257 3.299-47.245-21.402-89.99-59.766-111.464zM197.02 142.115c1.714-24.591 11.23-46.688 25.886-64.04l-10.278 2.272c-12.562 17.263-20.62 38.246-22.227 61.256-3.299 47.223 21.381 89.991 59.745 111.442l10.257-2.272c-40.161-18.711-66.703-61.301-63.383-108.658z" fill="#BCCAAC"/><path d="M203.619 142.605c1.861-26.507 13.345-49.962 30.75-67.07l-11.484 2.54c-14.677 17.33-24.173 39.449-25.886 64.04-3.32 47.357 23.243 89.947 63.404 108.68l11.462-2.539c-42.508-15.192-71.588-57.826-68.246-105.651zm147.152-92.909l-11.463 2.54c42.509 15.169 71.588 57.803 68.247 105.628-1.861 26.507-13.345 49.963-30.75 67.07l11.483-2.539c14.677-17.33 24.173-39.45 25.886-64.041 3.32-47.335-23.242-89.924-63.403-108.658z" fill="#CAC9A6"/><path d="M407.555 157.886c3.341-47.825-25.738-90.459-68.247-105.628l-13.725 3.051c45.913 10.047 78.8 53.149 75.373 102.087-2.03 29.158-16.538 54.351-37.856 70.612l13.705-3.052c17.405-17.107 28.91-40.563 30.75-67.07zm-197.317-14.768c2.03-29.158 16.538-54.351 37.856-70.612l-13.704 3.052c-17.405 17.107-28.91 40.562-30.75 67.07-3.342 47.824 25.738 90.458 68.246 105.628l13.726-3.052c-45.935-10.046-78.8-53.17-75.374-102.086z" fill="#D6C7A2"/><path d="M216.837 143.608c2.389-34.081 23.073-62.37 51.623-75.624l-20.387 4.522c-21.297 16.26-35.804 41.454-37.856 70.612-3.426 48.938 29.46 92.062 75.374 102.086l20.45-4.544a86.34 86.34 0 01-6.767-.245c-49.001-3.675-85.906-47.023-82.437-96.807zm184.119 13.788c3.427-48.938-29.46-92.063-75.373-102.086l-20.451 4.544c2.242 0 4.505.066 6.768.245 49.022 3.675 85.926 47 82.437 96.807-2.39 34.081-23.073 62.37-51.624 75.624l20.387-4.522c21.297-16.261 35.805-41.454 37.856-70.612z" fill="#E1C59C"/><path d="M299.76 233.688c-45.363-3.386-79.518-43.503-76.304-89.59 3.215-46.087 42.615-80.703 87.978-77.295 45.364 3.386 79.519 43.504 76.305 89.591-3.236 46.087-42.615 80.702-87.979 77.294zm94.577-76.804c3.489-49.807-33.436-93.132-82.437-96.808a86.251 86.251 0 00-6.768-.245l-36.65 8.13c-28.551 13.277-49.234 41.544-51.624 75.624-3.49 49.807 33.436 93.132 82.437 96.808 2.263.178 4.526.245 6.768.245l36.65-8.131c28.551-13.253 49.234-41.52 51.624-75.623z" fill="#ECC296"/><path d="M381.119 155.904c-2.961 42.367-39.188 74.198-80.893 71.079-41.705-3.118-73.111-40.006-70.15-82.395 2.961-42.367 39.188-74.198 80.893-71.08 41.705 3.141 73.111 40.006 70.15 82.396zm-69.684-89.1c-45.364-3.386-84.743 31.207-87.979 77.294-3.214 46.087 30.941 86.204 76.305 89.59 45.363 3.386 84.742-31.207 87.978-77.294 3.214-46.087-30.941-86.205-76.304-89.59z" fill="#F3BC8F"/><path d="M376.551 155.569c-2.791 39.828-36.82 69.721-76.008 66.781-39.188-2.94-68.712-37.6-65.92-77.406 2.791-39.828 36.82-69.72 76.008-66.78 39.188 2.918 68.712 37.578 65.92 77.405zm-65.582-82.06c-41.705-3.12-77.932 28.689-80.893 71.079-2.961 42.367 28.445 79.254 70.15 82.395 41.705 3.119 77.932-28.69 80.893-71.08 2.961-42.389-28.445-79.254-70.15-82.395z" fill="#F3BC8F"/><path d="M372.004 155.213c-2.602 37.266-34.451 65.244-71.123 62.504-36.672-2.74-64.292-35.173-61.69-72.439 2.601-37.266 34.451-65.243 71.122-62.503 36.672 2.74 64.292 35.172 61.691 72.438zm-61.373-77.072c-39.189-2.94-73.217 26.975-76.009 66.781-2.791 39.828 26.732 74.488 65.921 77.406 39.188 2.94 73.216-26.975 76.008-66.781 2.791-39.805-26.732-74.465-65.92-77.406z" fill="#E9B598"/><path d="M367.436 154.879c-2.411 34.704-32.083 60.766-66.238 58.205-34.155-2.562-59.893-32.767-57.46-67.471 2.432-34.705 32.082-60.767 66.258-58.205 34.155 2.562 59.872 32.766 57.44 67.471zm-57.123-72.104c-36.671-2.74-68.521 25.237-71.122 62.503-2.602 37.267 25.018 69.699 61.69 72.439 36.672 2.74 68.522-25.238 71.123-62.504 2.601-37.266-25.019-69.698-61.691-72.438z" fill="#DDAD9F"/><path d="M362.889 154.545c-2.241 32.143-29.714 56.289-61.373 53.928-31.638-2.361-55.473-30.361-53.231-62.504 2.242-32.143 29.714-56.289 61.373-53.928 31.639 2.361 55.473 30.339 53.231 62.504zm-52.892-67.137c-34.155-2.562-63.827 23.5-66.259 58.205-2.432 34.704 23.306 64.909 57.461 67.471 34.155 2.561 63.826-23.501 66.237-58.205 2.432-34.704-23.284-64.91-57.439-67.471z" fill="#D1A4A5"/><path d="M358.321 154.188c-2.052 29.604-27.345 51.812-56.488 49.651-29.122-2.183-51.053-27.933-49.001-57.536 2.072-29.581 27.366-51.812 56.487-49.629 29.143 2.183 51.074 27.933 49.002 57.514zm-48.663-62.147c-31.638-2.361-59.111 21.763-61.373 53.928-2.242 32.143 21.571 60.12 53.231 62.504 31.638 2.361 59.11-21.763 61.373-53.928 2.242-32.165-21.593-60.143-53.231-62.504z" fill="#C69DAA"/><path d="M353.774 153.854c-1.882 27.042-24.998 47.335-51.603 45.352-26.605-1.982-46.654-25.527-44.75-52.569 1.882-27.042 24.997-47.334 51.602-45.352 26.605 2.005 46.633 25.528 44.751 52.569zm-44.433-57.18c-29.122-2.183-54.416 20.048-56.488 49.629-2.073 29.581 19.858 55.354 48.98 57.537 29.121 2.182 54.415-20.048 56.488-49.629 2.072-29.604-19.859-55.354-48.98-57.537z" fill="#B994AE"/><path d="M349.206 153.52c-1.713 24.48-22.629 42.857-46.717 41.053-24.089-1.804-42.234-23.099-40.521-47.579 1.713-24.481 22.629-42.857 46.717-41.053 24.11 1.782 42.234 23.099 40.521 47.579zm-40.183-52.212c-26.604-1.983-49.72 18.31-51.602 45.352-1.882 27.041 18.145 50.564 44.75 52.569 26.605 1.982 49.721-18.31 51.603-45.352 1.882-27.064-18.146-50.587-44.751-52.569z" fill="#AD8CB1"/><path d="M344.659 153.164c-1.523 21.918-20.26 38.38-41.853 36.776-21.572-1.626-37.814-20.694-36.291-42.612 1.523-21.919 20.26-38.38 41.853-36.776 21.572 1.626 37.835 20.693 36.291 42.612zm-35.974-47.246c-24.088-1.804-45.004 16.573-46.717 41.053-1.713 24.481 16.433 45.775 40.521 47.58 24.088 1.804 45.004-16.573 46.717-41.053 1.713-24.458-16.411-45.775-40.521-47.58z" fill="#A285B5"/><path d="M340.112 152.83c-1.354 19.357-17.913 33.902-36.968 32.477-19.055-1.426-33.415-18.288-32.061-37.645 1.353-19.357 17.913-33.903 36.968-32.477 19.055 1.425 33.414 18.288 32.061 37.645zm-31.744-42.278c-21.572-1.626-40.309 14.857-41.853 36.776-1.544 21.918 14.719 41.008 36.291 42.612 21.571 1.604 40.309-14.835 41.853-36.776 1.544-21.919-14.72-40.986-36.291-42.612z" fill="#967DB7"/><path d="M336.961 152.607c-1.227 17.597-16.285 30.828-33.605 29.536-17.321-1.291-30.37-16.617-29.143-34.214 1.226-17.597 16.284-30.829 33.605-29.537 17.321 1.27 30.369 16.595 29.143 34.215zm-28.91-37.422c-19.055-1.426-35.615 13.12-36.968 32.477-1.354 19.357 13.006 36.219 32.061 37.645 19.055 1.425 35.614-13.12 36.968-32.477 1.353-19.357-13.007-36.22-32.061-37.645z" fill="#967DB7"/><path d="M333.831 152.362c-1.1 15.837-14.656 27.732-30.243 26.574-15.586-1.158-27.345-14.947-26.224-30.806 1.1-15.838 14.656-27.733 30.243-26.574 15.586 1.18 27.324 14.968 26.224 30.806zm-26.013-33.992c-17.321-1.292-32.378 11.917-33.605 29.537-1.227 17.597 11.822 32.922 29.143 34.214 17.32 1.292 32.378-11.917 33.605-29.536 1.226-17.598-11.822-32.923-29.143-34.215z" fill="#9184BC"/><path d="M330.68 152.117c-.994 14.077-13.028 24.658-26.88 23.611-13.853-1.047-24.3-13.298-23.306-27.376.994-14.078 13.028-24.658 26.88-23.611 13.852 1.047 24.3 13.298 23.306 27.376zm-23.074-30.562c-15.586-1.158-29.142 10.737-30.242 26.574-1.1 15.838 10.638 29.626 26.224 30.807 15.587 1.158 29.143-10.737 30.243-26.574 1.099-15.838-10.638-29.626-26.225-30.807z" fill="#8B8DC0"/><path d="M327.549 151.894c-.867 12.318-11.399 21.584-23.517 20.671-12.139-.913-21.254-11.627-20.408-23.945.867-12.319 11.399-21.585 23.517-20.672 12.139.891 21.275 11.628 20.408 23.946zm-20.176-27.153c-13.852-1.047-25.907 9.533-26.879 23.611-.994 14.078 9.453 26.352 23.305 27.376 13.853 1.047 25.907-9.533 26.88-23.611.994-14.078-9.453-26.329-23.306-27.376z" fill="#8495C6"/><path d="M324.42 151.649c-.74 10.558-9.771 18.488-20.155 17.709-10.405-.78-18.23-9.98-17.49-20.538.74-10.558 9.771-18.488 20.155-17.709 10.405.78 18.23 9.98 17.49 20.538zm-17.258-23.723c-12.139-.913-22.65 8.353-23.517 20.671-.867 12.318 8.269 23.055 20.409 23.946 12.139.913 22.65-8.353 23.517-20.671.846-12.296-8.29-23.033-20.409-23.946z" fill="#7F9CC9"/><path d="M321.269 151.426c-.614 8.799-8.143 15.414-16.792 14.768-8.671-.646-15.185-8.308-14.572-17.107.613-8.798 8.142-15.414 16.792-14.768 8.671.646 15.206 8.309 14.572 17.107zm-14.339-20.292c-10.405-.78-19.415 7.15-20.155 17.708-.74 10.559 7.085 19.758 17.49 20.538 10.405.779 19.414-7.15 20.155-17.709.74-10.58-7.085-19.78-17.49-20.537z" fill="#77A3CE"/><path d="M318.138 151.181c-.486 7.039-6.513 12.341-13.45 11.806-6.937-.512-12.16-6.638-11.653-13.699.486-7.039 6.514-12.34 13.451-11.806 6.936.535 12.139 6.66 11.652 13.699zm-11.441-16.862c-8.671-.646-16.179 5.97-16.792 14.769-.613 8.798 5.901 16.461 14.571 17.107 8.671.646 16.179-5.97 16.792-14.769.635-8.798-5.9-16.461-14.571-17.107z" fill="#6FA8CF"/><path d="M315.009 150.958c-.36 5.28-4.886 9.245-10.088 8.866-5.203-.379-9.115-4.99-8.735-10.269.36-5.279 4.886-9.244 10.088-8.865 5.182.378 9.094 4.989 8.735 10.268zm-8.523-13.454c-6.937-.512-12.943 4.767-13.451 11.806-.486 7.039 4.716 13.165 11.653 13.699 6.937.513 12.943-4.767 13.451-11.806.486-7.061-4.717-13.186-11.653-13.699z" fill="#65AED2"/><path d="M311.857 150.713c-.253 3.52-3.257 6.171-6.725 5.903-3.468-.267-6.07-3.319-5.837-6.838.254-3.52 3.257-6.17 6.725-5.903 3.49.267 6.091 3.319 5.837 6.838zm-5.604-10.023c-5.203-.379-9.707 3.586-10.088 8.865-.359 5.279 3.553 9.868 8.734 10.269 5.203.379 9.708-3.586 10.088-8.866.381-5.279-3.532-9.89-8.734-10.268z" fill="#5AB3D4"/><path d="M308.727 150.491c-.127 1.759-1.628 3.074-3.363 2.962-1.734-.133-3.045-1.67-2.918-3.43.127-1.76 1.628-3.074 3.363-2.963 1.734.134 3.045 1.671 2.918 3.431zm-2.686-6.616c-3.468-.267-6.471 2.383-6.725 5.903-.254 3.519 2.369 6.593 5.837 6.838 3.468.268 6.471-2.383 6.725-5.903.233-3.519-2.368-6.571-5.837-6.838z" fill="#4DB7D6"/><path d="M305.808 147.06c-1.734-.133-3.235 1.203-3.362 2.963-.127 1.76 1.184 3.297 2.918 3.43 1.735.134 3.236-1.202 3.363-2.962.127-1.76-1.184-3.297-2.919-3.431z" fill="#3FBDD8"/><path d="M253 334.267L54.814 339 54 267.733 252.186 263l.814 71.267z" fill="#2960A5"/><path d="M81.164 293.592c.972.072 4.752.036 6.336 0a86.383 86.383 0 010-4.32c-3.132-.036-9.324 0-12.42 0 0 3.204.144 21.528.216 28.728 1.512.036 3.744.036 4.968.036 4.032.072 9.9-2.412 9.9-7.092 0-5.148-4.176-7.56-8.928-8.028l-.072-9.324zm3.708 18.72c-.936.72-2.304 1.152-3.564 1.332l-.036-6.408c4.5.576 4.536 3.636 4.536 3.708 0 .576-.504 1.08-.936 1.368zm22.131-18.108V289.2H91.955V318h15.048v-5.904h-9.36l.216-8.28h8.28v-5.004h-8.496v-4.608h9.36zm9.559 23.976h.36c4.536-.18 8.46-5.076 8.46-8.964 0-2.196-1.26-4.284-3.132-5.832.468-.36.9-.756 1.296-1.152 1.44-1.548 2.196-3.348 2.124-5.076-.216-4.032-3.132-8.316-8.136-8.316-3.708 0-6.552 1.944-7.848 5.364l4.428 1.692c.792-2.052 2.34-2.304 3.42-2.304 2.34 0 3.312 2.268 3.384 3.78 0 .324-.216.936-.828 1.584-1.152 1.224-2.988 1.98-4.716 1.98v4.752c3.06 0 5.256 2.304 5.256 3.528 0 1.584-2.16 4.176-3.924 4.248-.576.036-2.268.108-4.212-3.096l-4.068 2.412c2.664 4.428 5.832 5.4 8.136 5.4zm34.706-21.888l3.348-2.628c-1.908-4.824-5.832-4.824-5.832-4.824-4.968 0-11.556 4.392-11.556 14.616s5.4 15.012 9.504 15.012c4.104 0 7.02-4.212 7.452-9.756-1.188-.72-2.34-1.008-3.672-1.62-.864 3.096-1.44 3.96-4.068 3.96-1.908 0-3.096-2.34-3.096-7.164 0-5.256 2.484-9.936 4.68-9.936 2.196 0 2.484 1.476 3.24 2.34zm4.057-7.092l6.12 14.184L156.009 318h6.408l11.412-28.8h-6.408l-3.204 8.892-4.428-8.892h-4.464zm34.823 5.004V289.2H175.1V318h15.048v-5.904h-9.36l.216-8.28h8.28v-5.004h-8.496v-4.608h9.36zm17.335-5.004h-15.552v6.048h5.184V318h5.472v-22.752h4.896V289.2zm24.108 0h-5.796v28.944h5.796V289.2zm-12.42 23.292c.432-.324.936-.828.936-1.368 0-.936 0-3.204-4.572-3.744l.036 6.444c1.26-.18 2.628-.612 3.6-1.332zm-3.672-9.54c8.064.828 9 5.868 9 8.172 0 1.836-.972 3.6-2.7 4.86-1.98 1.476-4.752 2.268-7.308 2.268-.504 0-1.008-.036-1.512-.108l-3.492.036-.216-28.152 6.12-.036.108 12.96z" fill="#fff"/><path d="M146.461 133.698l-10.075-4.07 17.21 97.977-17.27-97.944-22.17 3.909 6.696 37.972-34.164 6.024-.023-.127 9.098-1.474L90 143.653l-10.004-4.038-.004-.021-.02.004-.047-.014.004.021-22.106 3.898 17.274 97.965.148-.026 10.028 4.055 22.001-3.879-7.117-40.362 25.171-4.329 6.102 34.608.043-.008 10.05 4.052 22.106-3.898.046.014-.004-.021.063-.011-17.273-97.965zm196.199 35.508c-1.954-11.085-8.248-17.587-18.886-19.529l.075.052c-.046-.013-.089-.006-.135-.019l-.846-.593c6.469-5.372 8.916-12.522 7.335-21.491-1.201-6.812-4.121-11.99-8.752-15.492-1.288-.994-2.722-1.832-4.269-2.563-2.043-.948-4.239-1.651-6.631-2.102l.025.017a23.534 23.534 0 00-3.444-1.966c-6.108-2.849-13.763-3.463-22.923-1.848l-32.366 5.707 17.271 97.944-.022.004.022-.004.003.021-.063.012 10.142 4.079 32.789-5.782c7.89-1.391 14.279-3.63 19.183-6.742 10.031-6.327 13.868-16.23 11.492-29.705zm-29.36-23.637c-.315-.053-.63-.107-.941-.139.315.053.626.086.941.139zm7.317 2.287c-.021.004-.025-.017-.046-.013 0 0 .021-.004.046.013zm-1.773-.778a1.394 1.394 0 01-.259-.107c.096.049.188.076.259.107zm-.723-.265a5.283 5.283 0 00-.372-.131c.117.045.255.086.372.131zm-1.066-.357c-.159-.037-.301-.1-.46-.137.163.058.322.096.46.137zm-.825-.225c-.184-.055-.365-.089-.549-.144.181.034.365.089.549.144zm-.846-.222c-.273-.061-.57-.139-.842-.201.272.062.545.123.842.201zm-1.115-.262l-.679-.141c.23.068.453.094.679.141zm11.909 6.058c-.004-.021-.025-.017-.029-.038a.066.066 0 01.029.038zm6.139 12.179c-.023-.126-.062-.229-.085-.355.019.105.041.232.085.355zm-.273-1.173c-.022-.127-.069-.271-.092-.398.027.148.049.275.092.398zm-.31-1.145c-.044-.123-.066-.25-.11-.373.044.123.066.25.11.373zm-.382-1.176c-.036-.081-.051-.165-.087-.246.036.081.072.162.087.246zm-.891-2.329c-.032-.06-.068-.141-.101-.201.036.081.069.141.101.201zm-.458-.988c-.036-.081-.068-.141-.104-.222.015.085.072.162.104.222zm-.521-.977l-.097-.179.097.179zm-1.887-2.787c-.004-.021-.029-.038-.029-.038s.025.017.029.038zm-.665-.798c-.024-.018-.053-.057-.078-.074.025.017.05.035.078.074zm-5.763-4.481l.025.018-.025-.018z" fill="#232F40"/><path d="M432.896 83.235l-10.184-4.072.018.106-.063.011-.046-.013.004.02-22.043 3.887 10.966 62.194c-3.043-5.876-7.69-9.965-13.962-12.261a33.965 33.965 0 00-4.455-1.265l.1.069c-.067-.009-.113-.023-.18-.033a27.172 27.172 0 00-5.621-2.804c-5.549-2.032-12.639-2.658-21.231-1.906l-5.487-31.118-10.047-4.03-.007-.043-.085.015-.046-.013.004.02-.063.012-21.959 3.872 17.263 97.901.106-.018 9.969 4.087 28.41-5.009c5.987-1.056 11.162-2.753 15.53-5.072 3.391-1.798 6.302-3.969 8.708-6.531 3.814-4.097 6.086-8.903 6.835-14.423l2.507 14.216-.042.007.05.035.003.021.021-.004 9.923 4.075.085-.015.046.013 22.17-3.909-.026-.148.117.045-17.267-97.923-.021.004zm-28.038 68.722c-.06-.339-.116-.656-.197-.991.077.314.137.652.197.991zm-.253-1.308c-.041-.233-.103-.462-.144-.694.045.254.103.461.144.694zm-.221-1.008c-.062-.229-.103-.462-.165-.691.062.229.124.458.165.691zm-.235-.962zm-.286-1.127c-.062-.229-.128-.479-.212-.705.066.251.129.48.212.705zm-.31-1.014c-.055-.187-.134-.391-.189-.578.055.187.113.395.189.578zm-.312-.905c-.08-.204-.142-.433-.221-.637.083.225.163.429.221.637zm-.305-.862c-.091-.268-.202-.532-.318-.817.116.285.227.549.318.817zm-.434-1.102c-.076-.183-.148-.344-.224-.527.076.183.152.365.224.527zm-.368-.851zm-.357-.788c-.101-.2-.198-.379-.299-.58.101.201.198.38.299.58zm-.493-.938a17.304 17.304 0 00-.287-.516c.114.154.211.333.287.516zm-.456-.857c-.069-.141-.155-.257-.223-.397.065.119.133.26.223.397zm-.434-.731c-.086-.116-.155-.256-.241-.372.065.12.151.235.241.372zm-.452-.705a9.093 9.093 0 00-.412-.604c.143.193.269.411.412.604zm-.644-.934a5.833 5.833 0 00-.254-.326c.086.116.168.21.254.326zm-.512-.673c-.082-.095-.164-.189-.229-.309.086.116.147.214.229.309zm-.504-.631l-.246-.284c.086.116.164.189.246.284zm-.739-.851c-.082-.095-.16-.168-.242-.263.082.095.164.189.242.263zm-.56-.578c-.078-.073-.16-.168-.238-.241.078.073.156.147.238.241zm-.556-.556l-.235-.22.235.22zm-.573-.531a1.572 1.572 0 01-.207-.182c.054.056.128.108.207.182zm-.901-.779c-.075-.053-.153-.126-.228-.178.079.073.153.125.228.178zm-.605-.461c-.074-.052-.153-.126-.249-.174.096.048.171.101.249.174zm-.626-.457l-.248-.174c.095.049.17.101.248.174zm73.241-66.571c5.049 3.646 10.599 4.936 16.67 3.866 6.262-1.104 11.176-4.283 14.722-9.532 3.135-4.61 4.454-9.62 3.984-15.011a28.619 28.619 0 00-.309-2.367l-10.035-3.967c-.013.046-.002.11-.016.155l-.03-.169-13.729 2.42c1.123 6.368-.727 10.228-5.527 11.576-.729-1.289-1.256-2.788-1.554-4.48l-.209-.073-9.851-3.912-.011-.064-13.729 2.421c1.089 6.177 4.187 11.127 9.283 14.918 3.25 2.35 6.685 3.773 10.341 4.219zm5.73-13.029c-.187.055-.356.085-.543.14.187-.055.356-.085.543-.14zm51.995 14.324l-.012-.064-10.067-4.027-.007-.042-.085.015-.046-.014.004.021-18.13 3.197-30.735 67.278-.03-.169.034.19 6.751-14.779-7.259-41.166-9.994-4.105.008.042-.117-.045.007.042-22.127 3.902 17.27 97.944.064-.011 10.011 4.08 18.192-3.208.355.156.107-.259.064-.011-.046-.014 23.823-52.667-.007-.042.076-.188 7.326 41.547-.085.015.046.014-.063.011 10.184 4.071 21.662-3.819.142.062-17.316-97.957zm-283.715 64.902c-4.667-3.213-9.573-5.554-14.71-6.982.12.066.266.15.387.216-.139-.042-.277-.083-.394-.127-9.853-5.286-20.713-6.883-32.581-4.791-13.75 2.425-24.595 9.201-32.553 20.354-7.958 11.153-10.737 23.596-8.316 37.325 2.425 13.751 9.278 24.539 20.607 32.378 4.799 3.342 9.846 5.746 15.08 7.222 9.87 5.261 20.604 6.88 32.196 4.836 13.92-2.454 24.783-9.255 32.606-20.428 4.164-5.948 6.867-12.27 8.128-18.97 1.117-5.912 1.112-12.127-.033-18.622-2.476-13.915-9.266-24.715-20.417-32.411zm-3.53 60.758c-4.132 6.748-10.09 10.809-17.875 12.182-7.615 1.342-14.511-.408-20.687-5.252-6.177-4.844-9.944-11.116-11.301-18.816-1.358-7.7.044-14.84 4.206-21.419 4.162-6.58 10.051-10.541 17.666-11.884 7.785-1.372 14.683.269 20.695 4.923 6.012 4.655 9.712 10.917 11.1 18.786 1.387 7.87.12 15.029-3.804 21.48z" fill="#232F40"/><path d="M286.778 140.758l-2.245-12.735 8.63-1.522c.614-.108 1.21-.192 1.789-.25-1.773-3.374-5.492-4.55-11.183-3.547l-8.631 1.522 3.178 18.024 7.743-1.366c.257-.023.486-.085.719-.126zm71.811-44.748l-9.504-3.799 6.107 34.019c3.004-.53 5.836-.92 8.522-1.154l-5.125-29.066zm-50.3 46.997c3.847.543 7.107 1.713 9.814 3.46 6.031-5.011 8.32-11.697 6.847-20.052-1.432-8.124-5.476-13.736-12.13-16.838-1.901-.886-3.955-1.527-6.17-1.966 4.745 3.286 7.72 8.28 8.906 15.007 1.507 8.546-.916 15.342-7.267 20.389zm-112.795 51.428a29.36 29.36 0 01-2.098-1.506c-6.176-4.843-9.943-11.115-11.301-18.815-1.358-7.701.044-14.84 4.206-21.42 4.162-6.579 10.051-10.54 17.667-11.883 3.363-.593 6.566-.613 9.605-.08-5.608-3.722-11.934-4.963-19-3.717-7.615 1.343-13.504 5.304-17.666 11.884-4.162 6.579-5.564 13.719-4.206 21.419 1.358 7.7 5.125 13.972 11.301 18.816 3.572 2.816 7.417 4.581 11.492 5.302zm95.04-32.375l11.487-2.026c1.1-.194 2.148-.313 3.143-.357-2.291-3.348-6.466-4.51-12.537-3.439l-11.487 2.025 3.626 20.562 8.461-1.492-2.693-15.273zm80.006 1.728l-2.887-16.373 4.971-.877c1.861-.328 3.53-.513 5.027-.559-.934-1.34-2.134-2.328-3.57-2.926-2.474-1.047-6.092-1.15-10.851-.311l-4.972.876 3.85 21.831 4.971-.876c1.248-.22 2.4-.489 3.461-.785zm92.381-86.174l-9.334-3.83 9.809 56.007 6.295-13.783-6.77-38.394zm25.113-36.078c-.247 3.796-1.212 12.669-3.48 16.013-3.323 4.905-7.904 7.872-13.742 8.902a20.946 20.946 0 01-6.161.192c4.7 3.402 9.885 4.604 15.555 3.604 5.838-1.03 10.419-3.997 13.742-8.901 3.323-4.905 4.47-10.277 3.44-16.115l-9.354-3.695zM468.88 54.751c.401-.07.778-.16 1.152-.269-.693-1.208-1.179-2.605-1.455-4.17l-9.313-3.703c.351.505-1.715 3.509-1.269 3.932 6.843 6.646 8.261 4.673 10.885 4.21zm-36.302 116.987l-20.629 3.616 9.335 3.829 20.689-3.648-16.114-91.386-9.504-3.8 16.223 91.389zm-39.656-41.081a34.278 34.278 0 00-4.157-1.186c5.803 3.841 9.478 10.085 11.004 18.737 1.686 9.562-.331 17.421-6.051 23.577-5.147 5.445-12.671 9.04-22.571 10.785l-26.468 4.645 9.335 3.829 26.527-4.677c9.9-1.746 17.424-5.341 22.571-10.785 3.612-3.887 5.734-8.428 6.402-13.671l-3.462-19.631c-2.842-5.606-7.212-9.482-13.13-11.623zm56.047 38.169l9.377 3.822 17.389-3.066 22.35-49.397-3.118-17.685-28.626 63.285-17.372 3.041zM509.01 64.012l16.224 91.389-20.418 3.578 9.504 3.799 20.308-3.581-16.114-91.386-9.504-3.799zM156.645 225.846l-16.114-91.386-9.334-3.829 16.054 91.418 9.394 3.797zm162.251-78.842c4.324 3.12 7.07 7.936 8.212 14.409 3.297 18.7-6.224 30.02-28.562 33.959l-30.657 5.383 9.462 3.807 30.589-5.394c22.339-3.939 31.859-15.258 28.562-33.959-1.824-10.344-7.69-16.398-17.606-18.205zm-96.15-24.14a53.333 53.333 0 014.841 2.963c10.778 7.435 17.352 17.88 19.725 31.334 2.357 13.37-.245 25.454-7.807 36.254-7.562 10.8-18.07 17.386-31.524 19.758-7.637 1.347-14.887 1.054-21.749-.876 9.537 5.101 19.91 6.653 31.143 4.673 13.454-2.373 23.962-8.959 31.524-19.759 7.562-10.799 10.164-22.884 7.807-36.253-2.372-13.454-8.947-23.899-19.725-31.334-4.5-3.133-9.257-5.37-14.235-6.76z" fill="#399FCF"/><path d="M468.692 54.675c.402-.07.779-.159 1.152-.268-.693-1.209-1.179-2.606-1.455-4.172l-9.312-3.702c.351.506-1.715 3.51-1.27 3.932 6.843 6.646 8.262 4.673 10.885 4.21z" fill="#F4B0C9"/><path d="M488.037 41.427c-.247 3.795-1.213 12.668-3.48 16.013-3.323 4.904-7.904 7.872-13.743 8.901a20.944 20.944 0 01-6.161.192c4.701 3.403 9.886 4.604 15.555 3.605 5.839-1.03 10.42-3.997 13.743-8.902 3.323-4.904 4.47-10.276 3.44-16.115l-9.354-3.694z" fill="#DF5846"/><path d="M116.693 169.723l-31.858 5.618-6.245-35.412-20.688 3.648 16.114 91.386 20.688-3.648-6.624-37.57 31.858-5.618 6.624 37.57 20.689-3.648-16.114-91.386-20.688 3.648 6.244 35.412zm74.547-51.49c-13.284 2.343-23.775 8.904-31.471 19.684-7.697 10.78-10.374 22.812-8.031 36.097 2.342 13.285 8.98 23.718 19.914 31.3 10.935 7.582 23.044 10.202 36.329 7.859 13.454-2.372 23.962-8.958 31.524-19.758 7.562-10.8 10.165-22.884 7.807-36.254-2.372-13.454-8.947-23.898-19.724-31.334-10.778-7.435-22.893-9.966-36.348-7.594zm31.304 63.973c-4.132 6.749-10.091 10.81-17.875 12.182-7.616 1.343-14.512-.407-20.688-5.251-6.176-4.844-9.943-11.116-11.301-18.816-1.358-7.7.045-14.84 4.207-21.419 4.162-6.58 10.05-10.541 17.666-11.884 7.785-1.373 14.683.268 20.695 4.923 6.012 4.655 9.712 10.917 11.099 18.786 1.388 7.869.12 15.029-3.803 21.479zm85.745-39.199c6.352-5.046 8.774-11.843 7.267-20.389-1.432-8.123-5.475-13.736-12.13-16.837-5.703-2.659-12.828-3.235-21.375-1.728l-30.208 5.326 16.114 91.387 30.589-5.394c22.339-3.939 31.86-15.259 28.562-33.959-1.895-10.746-8.168-16.882-18.819-18.406zm-33.146-18.759l8.63-1.522c7.108-1.254 11.155.912 12.139 6.497 1.134 6.431-2.149 10.325-9.849 11.683l-7.742 1.365-3.178-18.023zm20.729 52.619l-11.106 1.958-3.626-20.561 11.487-2.026c8.335-1.47 13.11 1.244 14.326 8.14 1.201 6.812-2.492 10.975-11.081 12.489zm116.018-1.481l20.689-3.648-16.114-91.386L395.776 84l16.114 91.386zm-28.361-48.525c-6.925-2.531-16.363-2.742-28.336-.631l-5.998-34.016-20.689 3.648 16.114 91.386 26.527-4.678c9.9-1.745 17.424-5.34 22.571-10.785 5.72-6.156 7.737-14.015 6.051-23.577-1.939-11-7.36-18.114-16.24-21.347zm-16.428 37.708l-4.972.877-3.849-21.831 4.971-.877c4.76-.839 8.398-.739 10.852.312 3.042 1.295 4.948 4.187 5.739 8.672 1.208 6.854-3.032 11.135-12.741 12.847zm103.711-98.118c5.839-1.03 10.419-3.997 13.742-8.902 3.324-4.904 4.47-10.276 3.441-16.115l-12.82 2.26c1.134 6.432-.964 10.117-6.295 11.057-2.623.463-4.776-.117-6.458-1.74-1.682-1.623-2.762-3.789-3.239-6.496l-12.82 2.26c1.015 5.754 3.905 10.392 8.67 13.914 4.765 3.522 10.025 4.776 15.779 3.762zm21.258.57l-28.673 62.77-9.87-55.974-20.689 3.648 16.114 91.386 17.389-3.066 28.626-63.285 9.959 56.482 20.308-3.581-16.114-91.386-17.05 3.006z" fill="#fff"/><path d="M83.511 238.719l20.52-3.618-9.394-3.796-20.52 3.618 9.394 3.796z" fill="#399FCF"/><path d="M94.637 231.305l9.394 3.796-6.64-37.654-9.393-3.797 6.64 37.655z" fill="#DF5846"/><path d="M87.998 193.65l31.942-5.632.93 5.398-23.478 4.031-9.394-3.797z" fill="#F4B0C9"/><path d="M78.523 139.918l9.395 3.797 5.378 30.134-8.543 1.397-6.23-35.328zm48.057 85.754l20.731-3.655 9.394 3.796-20.731 3.656-9.394-3.797z" fill="#C8762C"/><path d="M195.494 194.435a29.344 29.344 0 01-2.097-1.506c-6.176-4.843-9.943-11.115-11.301-18.815-1.358-7.701.044-14.84 4.206-21.42 4.162-6.579 10.051-10.54 17.666-11.883 3.364-.593 6.567-.613 9.605-.08-5.607-3.722-11.933-4.963-18.999-3.717-7.615 1.343-13.504 5.304-17.666 11.884-4.162 6.579-5.564 13.719-4.206 21.419 1.357 7.7 5.124 13.972 11.301 18.816 3.572 2.816 7.416 4.581 11.491 5.302z" fill="#399FCF"/><path d="M222.773 122.772a53.347 53.347 0 014.842 2.963c10.777 7.435 17.352 17.88 19.724 31.334 2.358 13.37-.245 25.454-7.807 36.254-7.562 10.8-18.07 17.386-31.524 19.758-7.637 1.347-14.886 1.054-21.748-.877 9.537 5.102 19.909 6.654 31.142 4.674 13.454-2.373 23.962-8.959 31.524-19.759 7.562-10.799 10.165-22.884 7.807-36.253-2.372-13.454-8.947-23.899-19.724-31.334-4.522-3.129-9.257-5.37-14.236-6.76z" fill="#F4B0C9"/><path d="M284.562 128.061l8.63-1.521a23.82 23.82 0 011.789-.25c-1.773-3.374-5.492-4.55-11.183-3.547l-8.631 1.522 9.395 3.796z" fill="#DF5846"/><path d="M308.264 142.989c3.848.543 7.108 1.713 9.815 3.461 6.031-5.012 8.32-11.697 6.847-20.053-1.433-8.123-5.476-13.736-12.13-16.837-1.902-.887-3.956-1.528-6.171-1.966 4.746 3.286 7.72 8.28 8.906 15.007 1.507 8.546-.915 15.342-7.267 20.388z" fill="#C8762C"/><path d="M318.956 146.971c4.324 3.121 7.07 7.937 8.212 14.41 3.297 18.7-6.224 30.02-28.562 33.959l-30.657 5.383 9.462 3.807L308 199.136c22.339-3.939 31.859-15.258 28.562-33.959-1.824-10.344-7.69-16.399-17.606-18.206z" fill="#DF5846"/><path d="M290.496 162.088l11.487-2.025c1.1-.194 2.148-.313 3.143-.358-2.292-3.347-6.466-4.509-12.537-3.439l-11.487 2.026 9.394 3.796z" fill="#F4B0C9"/><path d="M290.51 162.042l-9.394-3.796 3.625 20.562 8.462-1.492-2.693-15.274z" fill="#C8762C"/><path d="M131.197 130.631l16.114 91.386 9.394 3.796-16.114-91.386-9.394-3.796z" fill="#E95228"/><path d="M358.525 96.021l-9.503-3.799 6.107 34.019c3.004-.53 5.836-.92 8.522-1.154l-5.126-29.066z" fill="#F4B0C9"/><path d="M370.525 163.704l-2.887-16.374-9.394-3.796 3.849 21.831 4.972-.877c1.248-.22 2.4-.488 3.46-.784z" fill="#C8762C"/><path d="M392.982 130.625a34.458 34.458 0 00-4.157-1.187c5.803 3.841 9.478 10.086 11.004 18.738 1.686 9.562-.331 17.42-6.051 23.577-5.147 5.444-12.671 9.039-22.571 10.785l-26.468 4.645 9.335 3.829 26.527-4.678c9.9-1.745 17.424-5.34 22.571-10.785 3.612-3.887 5.734-8.427 6.402-13.67l-3.462-19.632c-2.842-5.606-7.212-9.481-13.13-11.622z" fill="#399FCF"/><path d="M432.67 171.635l9.394 3.796-16.114-91.386-9.503-3.799 16.223 91.389z" fill="#E95228"/><path d="M432.469 171.736l-20.629 3.615 9.335 3.829 20.688-3.648-9.394-3.796zm30.339-94.146l-9.313-3.833 9.789 56.01 6.294-13.782-6.77-38.395z" fill="#C8762C"/><path d="M475.663 169.791l22.346-49.418-3.114-17.664-28.626 63.285 9.394 3.797z" fill="#DF5846"/><path d="M449.072 168.786l9.376 3.822 17.389-3.066-9.394-3.797-17.371 3.041zm59.971-104.714l16.224 91.388 9.394 3.797-16.114-91.386-9.504-3.8z" fill="#F4B0C9"/><path d="M525.251 155.376l-20.417 3.578 9.503 3.799 20.308-3.581-9.394-3.796z" fill="#8EA2CE"/><path d="M358.356 229.466v.098h-47.711v90.805h.156l8.255 4.949h20.599v-72.515h27.112v-18.29l-8.411-5.047z" fill="#232F40"/><path d="M443.272 246.289c-3.951-3.892-8.313-6.944-13.067-9.115-8.04-6.084-17.507-9.136-28.403-9.136-12.989 0-24.041 4.461-33.137 13.4-9.116 8.94-13.654 19.914-13.654 32.903 0 12.989 4.557 24.002 13.654 33.02 4.068 4.029 8.528 7.159 13.38 9.389 8.039 6.064 17.39 9.096 28.051 9.096 13.165 0 24.217-4.479 33.196-13.458 2.973-2.973 5.438-6.162 7.433-9.566l.92-1.662c3.403-6.495 5.125-13.791 5.125-21.851-.039-13.165-4.519-24.178-13.498-33.02zm-12.343 54.166c-4.773 5.399-10.759 8.099-17.958 8.099-7.042 0-12.949-2.661-17.722-7.981-4.773-5.321-7.16-11.542-7.16-18.662 0-7.12 2.387-13.302 7.16-18.544 4.773-5.243 10.68-7.864 17.722-7.864 7.199 0 13.126 2.562 17.782 7.688 4.656 5.125 6.983 11.326 6.983 18.603 0 7.277-2.269 13.497-6.807 18.661z" fill="#232F40"/><path d="M540.513 307.067l-8.392-5.047v4.363l-.078-.255v-4.01h-1.311l-.039-.098-21.87-67.389-8.411-5.028 1.682 5.126h-.039l-1.643-5.028h-23.298l-23.552 72.417h-7.942v35.896h.156l8.255 4.949v.097h18.506v-17.644h40.981v12.519h-.078l.078.039v.04h.078l8.236 4.949h.078v.097h18.525v-.097h.078v-35.896z" fill="#232F40"/><path d="M337.601 251.258l-7.825-4.695v67.488l7.825 4.694v-67.487z" fill="#DF5846"/><path d="M329.776 246.563h25.234l7.825 4.695h-25.234l-7.825-4.695z" fill="#C8762C"/><path d="M355.011 229.545l7.824 4.695v17.018l-7.824-4.695v-17.018z" fill="#F4B0C9"/><path d="M438.558 245.233c-3.736-3.678-7.864-6.553-12.363-8.627a47.1 47.1 0 014.538 3.932c8.49 8.373 12.735 18.779 12.735 31.221 0 12.362-4.245 22.789-12.735 31.278-8.489 8.49-18.955 12.735-31.396 12.735-6.788 0-13.028-1.311-18.701-3.912 7.61 5.731 16.432 8.607 26.526 8.607 12.441 0 22.906-4.245 31.396-12.735 2.797-2.797 5.145-5.829 7.023-9.057v-1.565h.86c3.228-6.142 4.852-13.028 4.852-20.657 0-12.441-4.245-22.848-12.735-31.22z" fill="#E95228"/><path d="M391.434 297.13a27.538 27.538 0 01-1.995-2.015c-4.773-5.321-7.16-11.541-7.16-18.662 0-7.12 2.387-13.302 7.16-18.544 4.773-5.242 10.68-7.864 17.723-7.864 2.973 0 5.751.45 8.294 1.33-4.382-4.01-9.742-6.025-16.119-6.025-7.042 0-12.95 2.622-17.723 7.864-4.773 5.243-7.159 11.424-7.159 18.545 0 7.12 2.386 13.341 7.159 18.661 2.856 3.189 6.142 5.438 9.82 6.71z" fill="#F4B0C9"/><path d="M533.92 335.255h-17.253v-16.431h-46.009v16.431h-17.253v-33.45h7.394l21.948-67.487h21.714l21.948 67.487h7.511v33.45zm-26.643-33.45l-13.614-44.835-13.615 44.835h27.229zM310.606 314.05h19.17l7.824 4.695h-19.17l-7.824-4.695z" fill="#399FCF"/><path d="M445.58 330.482l7.825 4.695h17.214l-7.825-4.695H445.58z" fill="#C8762C"/><path d="M470.619 335.177v-16.432l-7.824-4.694v16.431l7.824 4.695z" fill="#399FCF"/><path d="M462.795 314.051h45.969l.079 4.773-38.224-.079-7.824-4.694z" fill="#F4B0C9"/><path d="M472.184 297.032l13.694-44.796 4.577 15.278-8.979 29.596-9.292-.078zm36.581 33.45h17.41l7.824 4.695h-17.41l-7.824-4.695z" fill="#DF5846"/><path d="M526.174 297.032v33.45l7.825 4.695v-33.45l-7.825-4.695z" fill="#C8762C"/><path d="M524.844 297.032l-20.383-62.793-7.825-4.694 21.909 67.487h6.299z" fill="#399FCF"/><path d="M355.088 229.623h-44.483v84.506h19.132v-67.488h25.351v-17.018zm44.249-1.643c-12.285 0-22.731 4.225-31.338 12.676-8.607 8.45-12.911 18.818-12.911 31.102 0 12.285 4.304 22.692 12.911 31.221 8.607 8.528 19.053 12.793 31.338 12.793 12.441 0 22.906-4.245 31.396-12.735 8.49-8.489 12.734-18.916 12.734-31.279 0-12.441-4.244-22.847-12.734-31.22-8.49-8.372-18.955-12.558-31.396-12.558zm17.957 62.323c-4.773 5.399-10.759 8.098-17.957 8.098-7.043 0-12.95-2.66-17.723-7.981s-7.16-11.541-7.16-18.662c0-7.12 2.387-13.301 7.16-18.544 4.773-5.242 10.68-7.864 17.723-7.864 7.198 0 13.125 2.563 17.781 7.688 4.656 5.125 6.984 11.326 6.984 18.603 0 7.277-2.27 13.498-6.808 18.662zm101.29 6.807l-21.948-67.487h-21.714l-21.948 67.487h-7.394v33.45h17.253v-16.431h46.009v16.431h17.253v-33.45h-7.511zm-46.361 0l13.615-44.835 13.615 44.835h-27.23z" fill="#fff"/></svg>