<svg width="319" height="267" viewBox="0 0 319 267" fill="none" xmlns="http://www.w3.org/2000/svg">
<path d="M135.174 202.695C139.136 217.484 130.351 232.7 115.563 236.662C100.774 240.625 85.5581 231.84 81.5955 217.051C77.6329 202.263 86.418 187.046 101.207 183.084C115.995 179.121 131.211 187.906 135.174 202.695Z" stroke="#1D568A" stroke-width="2"/>
<path d="M219.165 190.969C223.128 205.758 214.343 220.974 199.554 224.936C184.766 228.899 169.55 220.114 165.587 205.325C161.625 190.537 170.41 175.321 185.198 171.358C200.008 167.39 215.203 176.18 219.165 190.969Z" stroke="#1D568A" stroke-width="2"/>
<path d="M306.44 86.5519C310.402 101.34 301.617 116.557 286.829 120.519C272.04 124.482 256.824 115.697 252.861 100.908C248.899 86.1196 257.684 70.9034 272.472 66.9408C287.261 62.9781 302.472 71.7424 306.44 86.5519Z" stroke="#1D568A" stroke-width="2"/>
<path d="M323.926 4.57221L320.74 3.63699L317.559 2.72319L316.624 5.90958C310.44 27.085 300.397 48.2393 285.056 72.3042C284.274 72.1239 283.476 71.9707 282.696 71.8817C279.728 71.5071 276.754 71.7076 273.887 72.4759C270.955 73.2615 268.221 74.6134 265.791 76.5029C261.118 80.1176 258.067 85.3387 257.182 91.1951C256.428 96.168 257.328 101.156 259.68 105.48C256.344 109.379 253.617 112.472 252.233 113.897C242.873 123.561 232.693 132.39 222.032 140.109C210.718 148.301 198.84 155.246 186.707 160.813L185.361 157.756C184.842 156.588 183.913 155.69 182.733 155.226C181.787 154.861 180.738 154.798 179.775 155.056C179.54 155.119 179.331 155.198 179.102 155.282L170.459 159.066C169.291 159.585 168.393 160.514 167.929 161.693C167.466 162.872 167.493 164.172 167.985 165.325L169.097 167.848C165.02 169.239 160.909 170.501 156.8 171.602C155.131 172.049 153.435 172.481 151.754 172.885C141.488 175.315 130.969 176.803 120.396 177.32C120.289 176.408 119.947 175.559 119.339 174.828C118.527 173.853 117.399 173.237 116.128 173.119L106.751 172.191C106.186 172.136 105.601 172.178 105.045 172.327C103.14 172.838 101.749 174.495 101.54 176.454L101.461 177.187C92.2887 176.594 83.2166 175.263 74.4546 173.207C60.2811 169.872 48.9974 164.226 39.927 155.968C29.4149 146.354 22.5162 134.303 20.5265 122.084C20.2979 120.631 20.532 119.536 20.7754 118.989C20.8782 119.031 21.0081 119.088 21.1652 119.16L26.0723 115.047L27.5701 112.077L29.0678 109.107L30.5655 106.137L27.5954 104.639C24.3054 102.975 19.69 108.776 18.0208 109.223C16.9509 109.51 15.9325 109.989 15.0513 110.638C10.8152 113.745 10.0858 119.583 10.74 123.651C13.0891 138.067 21.0863 152.163 33.2898 163.297C43.6432 172.748 56.3905 179.149 72.2528 182.88C79.9627 184.69 87.8731 185.965 95.8928 186.706L95.498 190.711C92.8828 192.421 90.6306 194.63 88.917 197.222C86.8785 200.314 85.5898 203.894 85.2118 207.619C83.9667 220.177 93.1735 231.426 105.732 232.671C108.488 232.942 111.252 232.729 113.906 232.018C118.357 230.825 122.302 228.346 125.334 224.85C128.433 221.267 130.31 216.888 130.79 212.172C131.156 208.404 130.614 204.582 129.18 201.113C127.97 198.226 126.163 195.591 123.88 193.404L124.354 188.667C124.415 188.124 124.363 187.587 124.247 187.068C134.295 186.393 144.325 184.876 154.093 182.557C155.817 182.141 157.577 181.692 159.31 181.227C162.478 180.379 165.665 179.433 168.829 178.402C168.883 178.777 169.008 179.157 169.154 179.53L172.401 186.94C170.873 189.712 169.958 192.801 169.689 195.993C169.355 199.798 169.995 203.64 171.499 207.113C173.942 212.72 178.421 217.025 184.112 219.261C188.699 221.059 193.637 221.342 198.345 220.08C199.458 219.782 200.569 219.393 201.615 218.929C207.221 216.486 211.526 212.007 213.762 206.316C215.999 200.625 215.867 194.399 213.425 188.792C211.944 185.404 209.647 182.396 206.808 180.106C204.411 178.179 201.625 176.77 198.666 175.912L195.273 168.128C195.217 168.005 195.167 167.904 195.117 167.803C206.417 162.298 217.425 155.701 227.895 148.125C239.04 140.07 249.649 130.874 259.421 120.779C260.784 119.359 263.236 116.614 266.33 113.01C271.864 117.055 279.051 118.455 285.813 116.643C288.745 115.857 291.479 114.505 293.887 112.622C298.73 108.87 301.805 103.482 302.584 97.4014C303.342 91.3268 301.715 85.3407 297.963 80.4973C296.837 79.0331 295.546 77.7274 294.119 76.596C309.625 52.12 319.847 30.436 326.23 8.6338L327.165 5.44742L323.926 4.57221Z" fill="#184670"/>
<path d="M186.494 213.6C190.649 215.239 195.188 215.146 199.275 213.363C203.361 211.58 206.52 208.303 208.137 204.154C209.776 199.999 209.684 195.459 207.901 191.373C205.877 186.732 201.946 183.358 197.178 181.998C198.469 183.395 199.577 185.048 200.372 186.899C204.24 195.771 200.195 206.098 191.323 209.966C188.426 211.224 185.376 211.652 182.447 211.335C183.677 212.244 185.028 213.006 186.494 213.6Z" fill="#1D568A"/>
<path d="M208.153 204.127C206.514 208.282 203.377 211.553 199.29 213.336C195.204 215.119 190.664 215.212 186.51 213.573C185.049 213.001 183.692 212.218 182.463 211.309C180.241 209.61 178.446 207.362 177.3 204.71C175.059 199.6 175.566 193.615 178.583 188.954L195.462 181.587C196.039 181.685 196.605 181.831 197.172 181.977C201.962 183.331 205.877 186.732 207.916 191.346C209.678 195.438 209.771 199.978 208.153 204.127ZM190.309 172.027L193.5 179.314L193.356 179.376L192.902 179.566L179.72 185.323L178.733 185.748L175.542 178.461L190.309 172.027ZM180.407 161.607L184.665 171.338L178.669 173.953L174.41 164.223L180.407 161.607ZM210.547 190.205C207.954 184.295 202.724 180.1 196.426 178.851L192.374 169.547C192.212 169.201 191.933 168.931 191.571 168.776C191.214 168.642 190.821 168.633 190.475 168.795L187.311 170.17L182.487 159.1C182.325 158.753 182.047 158.484 181.684 158.329C181.327 158.195 180.94 158.207 180.588 158.347L171.967 162.125C171.621 162.287 171.351 162.565 171.196 162.928C171.063 163.285 171.074 163.672 171.215 164.024L176.039 175.094L173.083 176.39C172.363 176.698 172.017 177.548 172.352 178.284L176.27 187.257C172.655 192.767 172.042 199.812 174.67 205.851C176.755 210.636 180.59 214.333 185.458 216.24C189.402 217.775 193.619 218.021 197.642 216.943C198.584 216.691 199.529 216.369 200.452 215.961C205.238 213.876 208.935 210.041 210.841 205.172C212.726 200.31 212.632 194.991 210.547 190.205Z" fill="#1D568A"/>
<path d="M106.468 226.602C115.636 227.518 123.836 220.802 124.751 211.635C125.238 206.688 123.567 201.906 120.176 198.411L120.087 199.192C120.083 199.262 120.079 199.332 120.047 199.386C120.053 199.407 120.032 199.413 120.037 199.434C120.033 199.504 120.002 199.559 119.97 199.613C119.97 199.613 119.976 199.634 119.955 199.64C119.923 199.694 119.914 199.743 119.882 199.797C119.861 199.803 119.867 199.824 119.867 199.824C119.835 199.878 119.804 199.933 119.745 199.971L119.73 199.998C119.708 200.004 119.714 200.026 119.693 200.031C119.853 201.227 119.905 202.451 119.803 203.694C119.088 213.267 110.776 220.425 101.21 219.732C98.1427 219.498 95.3258 218.487 92.9293 216.904C95.3174 222.136 100.342 225.996 106.468 226.602Z" fill="#1D568A"/>
<path d="M124.751 211.634C123.836 220.802 115.636 227.517 106.468 226.602C100.342 225.996 95.3173 222.136 92.9292 216.904C91.7302 214.312 91.1973 211.382 91.5004 208.319C91.9884 203.463 94.5063 199.165 98.399 196.402L98.3341 197.015C98.2508 197.817 98.8268 198.512 99.6289 198.595L118.529 200.48C118.599 200.485 118.69 200.483 118.781 200.482L118.803 200.476C118.873 200.48 118.958 200.457 119.022 200.44L119.044 200.434L119.065 200.428C119.129 200.411 119.194 200.394 119.231 200.361L119.252 200.355C119.295 200.344 119.353 200.305 119.39 200.272C119.412 200.267 119.412 200.267 119.427 200.24C119.486 200.201 119.523 200.168 119.581 200.13C119.603 200.124 119.597 200.102 119.619 200.097C119.656 200.064 119.671 200.037 119.708 200.004C119.73 199.998 119.724 199.977 119.745 199.971L119.761 199.944C119.792 199.889 119.829 199.857 119.882 199.797C119.904 199.791 119.898 199.77 119.898 199.77C119.929 199.715 119.961 199.661 119.97 199.612C119.97 199.612 119.965 199.591 119.986 199.585C120.017 199.531 120.022 199.461 120.053 199.407C120.047 199.385 120.069 199.38 120.063 199.358C120.067 199.288 120.098 199.234 120.103 199.164L120.192 198.383C123.545 201.911 125.238 206.687 124.751 211.634ZM114.275 179.212L113.581 186.21L107.078 185.567L107.772 178.569L114.275 179.212ZM101.65 192.87L102.148 187.966L118.173 189.566L117.722 194.045L117.588 195.343L117.382 197.485L101.357 195.884L101.65 192.87ZM120.524 194.831L121.163 188.398C121.2 188.022 121.096 187.636 120.833 187.34C120.592 187.038 120.245 186.855 119.868 186.819L116.428 186.479L117.265 178.044C117.301 177.667 117.198 177.282 116.935 176.985C116.694 176.683 116.347 176.501 115.97 176.464L106.593 175.536C105.79 175.453 105.096 176.029 105.013 176.831L104.204 185.282L100.995 184.949C100.193 184.866 99.499 185.442 99.4158 186.244L98.7629 192.795C93.0596 195.906 89.296 201.547 88.6531 208.05C87.587 218.794 95.4604 228.405 106.205 229.471C108.611 229.72 110.983 229.498 113.187 228.907C120.826 226.86 126.788 220.263 127.626 211.919C128.267 205.325 125.608 198.996 120.524 194.831Z" fill="#1E568A"/>
<path d="M290.201 107.853C293.734 105.117 295.978 101.167 296.538 96.7509C297.098 92.3348 295.901 87.9537 293.165 84.4206C291.869 82.7496 290.282 81.363 288.507 80.3019C289.606 82.0945 290.451 84.0471 291.024 86.1871C293.702 96.1806 289.15 106.414 280.586 111.346C283.964 111.198 287.331 110.067 290.201 107.853Z" fill="#1D568A"/>
<path d="M266.763 104.866C261.122 97.5935 262.455 87.0756 269.728 81.4342C271.516 80.0606 273.519 79.065 275.638 78.4973C277.714 77.9411 279.877 77.7973 282.058 78.0615C284.384 78.3556 286.563 79.125 288.501 80.2801C290.276 81.3411 291.863 82.7278 293.16 84.3988C295.895 87.9318 297.092 92.313 296.532 96.7291C295.973 101.145 293.728 105.095 290.195 107.831C287.325 110.045 283.964 111.198 280.575 111.303C275.403 111.519 270.196 109.29 266.763 104.866ZM295.441 82.6407C292.244 78.4974 287.615 75.8614 282.418 75.2126C277.222 74.5638 272.091 75.9614 267.97 79.153C259.445 85.772 257.884 98.094 264.482 106.624C269.459 113.043 277.669 115.522 285.052 113.544C287.491 112.89 289.847 111.754 291.953 110.112C296.096 106.915 298.732 102.286 299.381 97.0896C300.036 91.9142 298.638 86.784 295.441 82.6407Z" fill="#1D568A"/>
</svg>
