<svg width="452" height="733" viewBox="0 0 452 733" fill="none" xmlns="http://www.w3.org/2000/svg">
<path d="M-59.1953 557.314C-59.1953 556.989 -59.2766 556.745 -59.1953 556.42C-59.1953 556.745 -59.1953 556.989 -59.1953 557.314ZM-59.1953 557.314C-59.1953 557.396 -59.1953 557.477 -59.1953 557.558C-59.1953 557.477 -59.1953 557.396 -59.1953 557.314ZM-59.0328 558.046C-59.1141 557.884 -59.1141 557.721 -59.1141 557.558C-59.1141 557.721 -59.1141 557.884 -59.0328 558.046ZM-59.0328 558.209C-59.0328 558.29 -58.9516 558.372 -58.9516 558.453C-58.9516 558.372 -58.9516 558.29 -59.0328 558.209ZM-57.9768 559.998C-57.8955 560.08 -57.8143 560.161 -57.8143 560.161C-57.8955 560.08 -57.9768 560.08 -57.9768 559.998ZM-57.3269 560.649C-57.2457 560.73 -57.1644 560.73 -57.0832 560.812C-57.1644 560.73 -57.2457 560.649 -57.3269 560.649C-57.4081 560.568 -57.5706 560.486 -57.6519 560.324C-57.5706 560.405 -57.4081 560.486 -57.3269 560.649ZM-56.2708 561.218C-56.5958 561.137 -56.8395 560.974 -57.0832 560.812C-56.8395 560.974 -56.5145 561.137 -56.2708 561.218ZM43.9749 519.818C56.5665 532.507 120.175 585.05 312.38 584.399C316.279 584.399 317.985 588.385 316.685 591.15C316.604 591.394 316.442 591.638 316.279 591.882C316.279 591.882 316.279 591.964 316.198 591.964C316.035 592.207 315.873 592.37 315.629 592.533C315.548 592.533 315.548 592.614 315.467 592.614C315.304 592.777 315.061 592.939 314.817 593.021C314.736 593.102 314.654 593.102 314.654 593.184C314.329 593.346 314.004 593.509 313.679 593.59C299.382 597.657 279.885 602.293 255.839 605.628C253.971 605.872 252.021 606.116 250.071 606.36C246.335 606.848 242.516 607.255 238.536 607.661C225.294 609.044 210.834 609.939 195.318 610.264C192.556 610.345 189.713 610.345 186.87 610.345C184.92 610.345 182.97 610.345 181.021 610.345C177.284 610.345 173.466 610.264 169.566 610.101C165.261 610.02 160.874 609.776 156.487 609.613C154.375 609.532 152.263 609.369 150.069 609.288C148.77 609.207 147.551 609.125 146.251 609.044C141.621 608.719 136.99 608.393 132.279 607.905C131.873 607.905 131.385 607.824 130.979 607.824C129.273 607.661 127.486 607.499 125.78 607.336C123.343 607.092 120.906 606.848 118.387 606.523C120.824 606.848 123.343 607.092 125.78 607.336C132.766 608.312 139.59 609.125 146.251 609.857V610.508C146.495 610.508 146.739 610.589 146.983 610.589C149.663 610.833 151.694 613.111 151.694 615.876V722.508H156.487H195.318H234.23V618.072C234.23 615.47 236.099 613.355 238.536 612.867C238.78 612.867 238.942 612.785 239.186 612.785C299.707 609.044 340.487 595.786 355.273 590.255C355.597 590.174 355.922 590.011 356.166 589.93C401.902 577.811 430.579 562.845 441.221 556.745L440.814 556.013L347.149 405.541C345.605 403.02 345.199 400.01 346.093 397.164C346.986 394.317 349.099 392.04 351.779 390.901C363.071 386.183 370.951 381.873 375.663 379.026L293.533 239.941C292.152 237.582 291.746 234.654 292.558 231.97C293.37 229.286 295.239 227.009 297.757 225.789C312.298 218.631 321.478 210.904 325.784 206.756L221.882 33.9984C221.72 33.6731 221.557 33.3478 221.395 33.0224L209.535 13.5018L204.173 21.7167C203.767 22.3674 203.198 22.8554 202.548 23.2621L199.136 17.6499L202.548 23.2621L203.523 24.8888C204.417 26.4342 204.417 28.3863 203.442 29.8503L195.481 42.4574L113.269 172.432C111.888 174.628 112.538 177.557 114.732 178.939C125.211 185.609 158.843 201.876 235.286 201.225C240.242 201.225 241.948 207.895 237.48 210.172C231.062 213.426 222.776 217.086 212.621 220.095C194.343 225.707 170.216 229.53 141.133 226.277L74.4385 339.171C73.5449 340.717 73.5449 342.669 74.5197 344.214C81.0998 354.056 114.894 387.485 268.675 390.657C274.361 390.738 275.011 399.034 269.406 400.01C257.139 402.207 242.598 404.403 226.35 406.029C192.069 409.527 150.394 410.584 107.339 404.403L42.9188 513.962C42.1876 515.996 42.5126 518.273 43.9749 519.818ZM-65.1255 558.372C-64.9631 558.046 -64.8007 557.721 -64.6382 557.396L29.921 394.398C19.5227 390.413 9.4494 385.858 -0.136475 380.978L-0.217743 380.896C-2.9798 379.839 -5.17316 377.643 -6.14798 374.796C-7.12283 371.95 -6.79791 368.859 -5.25443 366.337L14.3236 333.884L81.2623 220.095C74.1948 216.923 67.046 213.507 59.9784 209.928C59.9784 209.928 59.8972 209.928 59.8972 209.847C59.3285 209.603 58.8411 209.196 58.3537 208.871C58.1912 208.708 58.0287 208.546 57.8662 208.383C57.5413 208.058 57.2164 207.813 56.9727 207.488C56.8102 207.244 56.6477 207.081 56.4852 206.837C56.3228 206.593 56.079 206.268 55.9166 206.024C55.7541 205.78 55.5916 205.455 55.5104 205.211C55.4291 205.048 55.3479 204.885 55.2667 204.723C54.698 203.34 54.5356 201.957 54.6168 200.493C54.6168 200.412 54.6168 200.412 54.6168 200.331C54.698 198.541 55.2667 196.914 56.2415 195.45L180.533 4.55482C181.914 2.44009 184.026 0.976027 186.382 0.325339C187.276 0.081331 188.169 0 189.063 0C190.038 0 191.094 0.162677 192.069 0.488021C192.475 0.650693 192.881 0.81337 193.287 0.976042C195.074 1.7894 196.537 3.1721 197.512 4.79882L200.03 8.94696L201.248 7.07624C203.117 4.14815 206.366 2.44009 209.778 2.52142C213.271 2.60276 216.358 4.39214 218.227 7.32024L231.062 28.4676C231.225 28.7929 231.387 29.1183 231.55 29.525L335.126 201.713C337.563 205.78 336.913 210.823 333.501 214.076C328.871 218.55 318.879 227.09 302.956 234.98L385.086 374.227C387.848 378.944 386.305 385.045 381.674 387.891C376.719 390.901 368.352 395.537 356.41 400.58L450.482 551.621C451.944 553.979 452.35 556.664 451.7 559.348C451.05 562.032 449.344 564.228 446.988 565.611C436.346 571.792 406.533 587.49 358.847 600.178C344.062 605.709 303.931 618.804 244.71 622.952V727.713C244.71 730.641 242.354 733 239.429 733H238.455H195.237H156.406H146.414C146.333 733 146.333 733 146.251 733C143.408 732.919 141.133 730.56 141.133 727.713V620.594C135.772 620.024 130.329 619.292 125.13 618.56C124.399 618.479 123.586 618.398 122.855 618.316L122.124 618.235C121.149 618.154 120.175 617.991 119.281 617.91C118.225 617.828 117.169 617.666 116.113 617.503C115.138 617.422 114.082 617.259 113.107 617.096H112.863C111.97 617.015 110.995 616.852 110.101 616.771C108.314 616.527 106.446 616.283 104.658 616.039C104.008 615.958 103.277 615.876 102.627 615.714L101.815 615.632C100.678 615.47 99.6217 615.307 98.4844 615.144C97.4283 614.982 96.4535 614.819 95.3974 614.656C94.2601 614.493 93.1228 614.331 91.9855 614.087L91.3356 614.005C90.6045 613.924 89.8734 613.761 89.061 613.68C87.1113 613.355 85.1617 613.029 83.212 612.704C82.6433 612.623 81.9934 612.46 81.4248 612.379L80.6124 612.216C79.3126 611.972 78.0128 611.728 76.7131 611.484C75.7383 611.321 74.7634 611.159 73.7886 610.915C72.4888 610.671 71.189 610.427 69.9705 610.183L69.5643 610.101C68.8332 609.939 68.0208 609.776 67.2896 609.613C65.2588 609.207 63.1466 608.8 61.1157 608.393C60.6283 608.312 60.2221 608.231 59.7347 608.068L58.9223 607.905C57.4601 607.58 55.9166 607.255 54.3731 606.929C53.4795 606.767 52.5859 606.523 51.6111 606.279C50.1488 605.953 48.7678 605.628 47.3055 605.302L46.6556 605.14C46.0057 604.977 45.4371 604.815 44.7872 604.733C42.5938 604.245 40.4005 603.676 38.2071 603.188L36.4199 602.781C34.7139 602.374 33.0079 601.886 31.2207 601.48C30.3271 601.236 29.5147 601.073 28.6212 600.829C27.0777 600.422 25.4529 600.016 23.9095 599.609L23.4221 599.446C22.7722 599.284 22.1223 599.121 21.4724 598.958C19.1978 598.308 16.9231 597.738 14.5673 597.088L13.2675 596.681C11.3178 596.112 9.36816 595.542 7.41849 594.973L4.98138 594.241C3.27542 593.753 1.56949 593.183 -0.136475 592.695L-2.41113 591.964C-4.767 591.231 -7.20407 590.499 -9.64114 589.686L-10.4535 589.442C-12.6469 588.71 -14.8403 588.059 -16.9524 587.327L-19.3083 586.514C-21.0955 585.945 -22.8827 585.294 -24.6699 584.643L-26.9445 583.83C-29.4628 582.935 -31.8999 582.122 -34.4182 581.227L-34.7432 581.064C-37.0991 580.17 -39.5361 579.356 -41.892 578.462L-44.1666 577.567C-46.035 576.835 -47.9035 576.184 -49.7719 575.452L-52.0465 574.558C-54.5648 573.582 -57.1644 572.524 -59.764 571.548C-62.2823 570.491 -64.3132 568.539 -65.288 566.017C-66.2629 563.659 -66.2629 560.812 -65.1255 558.372Z" fill="url(#paint0_linear_128:37035)"/>
<defs>
<linearGradient id="paint0_linear_128:37035" x1="193" y1="0" x2="193" y2="733" gradientUnits="userSpaceOnUse">
<stop stop-color="#184670"/>
<stop offset="1" stop-color="#184670" stop-opacity="0"/>
</linearGradient>
</defs>
</svg>
