<svg width="40" height="87" viewBox="0 0 40 87" fill="none" xmlns="http://www.w3.org/2000/svg">
<path d="M16.9283 43.3048C17.3811 43.3048 17.7433 44.0435 17.7433 44.949C17.7433 45.8593 17.3763 46.5932 16.9283 46.5932C16.4756 46.5932 16.1134 45.8545 16.1134 44.949C16.1134 44.0387 16.4756 43.3048 16.9283 43.3048ZM22.0564 41.3031C21.923 41.2412 21.8372 41.103 21.8563 40.9409C21.861 40.8933 21.8849 40.8456 21.9087 40.8027C22.147 40.4262 22.2709 39.9925 22.2709 39.5493C22.2709 39.5016 22.2709 39.4492 22.2661 39.4015C22.2661 39.3872 22.2614 39.3682 22.2614 39.3539C22.2566 39.3205 22.2566 39.2872 22.2518 39.2586C22.2518 39.2395 22.2471 39.2204 22.2423 39.2014C22.2375 39.1728 22.2328 39.1442 22.228 39.1156C22.2232 39.0965 22.2232 39.0775 22.2185 39.0584C22.2137 39.0298 22.2042 39.0012 22.1994 38.9726C22.1947 38.9535 22.1899 38.9392 22.1851 38.9202C22.1756 38.8821 22.1613 38.8439 22.1518 38.8058C22.1422 38.782 22.1375 38.7629 22.1279 38.7391C22.1184 38.7153 22.1089 38.6914 22.0993 38.6628C22.0898 38.639 22.0803 38.6199 22.0707 38.5961C22.0612 38.577 22.0517 38.558 22.0469 38.5389C22.0374 38.5151 22.0231 38.4913 22.0135 38.4674C22.004 38.4531 21.9945 38.4341 21.9897 38.4198C21.9754 38.3959 21.9611 38.3721 21.9468 38.3483C21.923 38.3054 21.8896 38.2673 21.8849 38.2101C21.8801 38.1386 21.8324 38.0814 21.7657 38.0671C21.7466 38.0623 21.7371 38.048 21.7276 38.0337C21.7038 38.0051 21.6847 37.9813 21.6609 37.9575C21.6561 37.9527 21.6513 37.9432 21.6418 37.9384C21.618 37.9146 21.5942 37.8908 21.5703 37.8622C21.5656 37.8574 21.5608 37.8526 21.5512 37.8479C21.5274 37.824 21.4988 37.8002 21.4702 37.7716V38.4007V38.4055C21.5274 38.4865 21.5798 38.5675 21.6227 38.6533C21.6275 38.6581 21.6275 38.6628 21.6323 38.6724C21.6609 38.7248 21.6847 38.782 21.7038 38.8344C21.7085 38.8487 21.7133 38.863 21.7228 38.8821C21.7276 38.8964 21.7323 38.9154 21.7419 38.9297C21.7466 38.944 21.7514 38.9583 21.7562 38.9774C21.761 38.9964 21.7705 39.0203 21.7753 39.0393C21.78 39.0584 21.7848 39.0775 21.7895 39.1013C21.7943 39.1156 21.7943 39.1251 21.7991 39.1394C21.8038 39.1585 21.8086 39.1823 21.8134 39.2014C21.8134 39.2109 21.8181 39.2204 21.8181 39.2347C21.8229 39.2633 21.8277 39.2967 21.8325 39.3253C21.8325 39.33 21.8325 39.3396 21.8325 39.3443C21.8372 39.3729 21.8372 39.4015 21.842 39.4254C21.842 39.4349 21.842 39.4444 21.842 39.454C21.842 39.4873 21.8467 39.5207 21.8467 39.554C21.8467 40.0497 21.6609 40.5215 21.3177 40.8837C21.2415 40.9695 21.1223 41.0076 21.0127 40.9838C20.7458 40.9361 20.4789 40.9123 20.2216 40.9123H19.7402C19.4304 40.9123 19.1207 40.9457 18.8204 41.0029C18.7966 41.0076 18.7728 41.0076 18.7537 41.0076C18.6631 41.0076 18.5773 40.9695 18.5106 40.9076C18.1532 40.5406 17.953 40.0592 17.953 39.5445C17.953 39.5064 17.953 39.4683 17.9578 39.4301C17.9578 39.4206 17.9578 39.4111 17.9578 39.4015C17.9578 39.3729 17.9626 39.3443 17.9673 39.3158C17.9673 39.3062 17.9721 39.2919 17.9721 39.2824C17.9769 39.249 17.9816 39.2109 17.9912 39.1775V39.1728C17.9959 39.1394 18.0054 39.1013 18.015 39.0679C18.0197 39.0584 18.0197 39.0441 18.0245 39.0346C18.0293 39.0107 18.0388 38.9821 18.0483 38.9583C18.0531 38.9488 18.0531 38.9345 18.0579 38.9249C18.0674 38.8964 18.0769 38.863 18.0912 38.8344C18.0912 38.8296 18.0912 38.8296 18.096 38.8249C18.1103 38.7915 18.1246 38.7581 18.1389 38.7295C18.1437 38.72 18.1484 38.7105 18.1532 38.6962C18.1627 38.6724 18.177 38.6533 18.1866 38.6295C18.1913 38.6199 18.1961 38.6104 18.2056 38.5961C18.2199 38.5675 18.2342 38.5437 18.2533 38.5199C18.258 38.5151 18.258 38.5103 18.2628 38.5056C18.2819 38.477 18.3009 38.4484 18.32 38.4198C18.3248 38.4102 18.3343 38.4007 18.3391 38.3912C18.3533 38.3721 18.3676 38.353 18.3819 38.334C18.3915 38.3244 18.3962 38.3149 18.4058 38.3054C18.4296 38.2768 18.4487 38.253 18.4725 38.2291V37.6572L18.4582 37.6668C18.3915 37.7192 18.3248 37.7764 18.2676 37.8336C18.2342 37.8669 18.2008 37.9003 18.1675 37.9384C18.1103 38.0004 18.0579 38.0671 18.0054 38.1338C17.9816 38.1672 17.9578 38.2005 17.934 38.2387C17.9292 38.2482 17.9244 38.2577 17.9101 38.2625C17.8672 38.2816 17.8291 38.3197 17.8291 38.3673C17.8291 38.415 17.81 38.4484 17.791 38.4817C17.7719 38.5199 17.7528 38.5532 17.7385 38.5913C17.7385 38.5961 17.7338 38.6009 17.7338 38.6056C17.7195 38.6438 17.7004 38.6819 17.6861 38.7248C17.6718 38.7629 17.6575 38.801 17.648 38.8392C17.648 38.8487 17.6432 38.8535 17.6432 38.863C17.6337 38.9011 17.6194 38.9392 17.6099 38.9821C17.6004 39.0155 17.5908 39.0727 17.5813 39.1061L17.5765 39.1204C17.567 39.1632 17.5622 39.2061 17.5575 39.249C17.5575 39.2586 17.5574 39.2633 17.5527 39.2729C17.5479 39.311 17.5432 39.3539 17.5432 39.3968C17.5432 39.4063 17.5432 39.4111 17.5432 39.4206C17.5432 39.4635 17.5384 39.5064 17.5384 39.5493C17.5384 40.0163 17.6718 40.4643 17.9292 40.8551C17.953 40.8885 17.9721 40.9266 17.9816 40.9647C18.0197 41.1315 17.9387 41.2888 17.7957 41.3555C16.223 42.1038 15.2079 43.7147 15.2079 45.4542V47.6465V48.4186C15.3032 48.3471 15.3842 48.247 15.4557 48.1231C15.6988 47.7085 16.0991 47.4606 16.528 47.4606C16.9569 47.4606 17.3573 47.7085 17.6003 48.1231C17.6814 48.2613 17.7815 48.3709 17.9006 48.4519C17.9387 48.4758 17.9816 48.4996 18.0293 48.5139C18.0388 48.5187 18.0436 48.5187 18.0531 48.5234C18.3581 48.6187 18.6679 48.4662 18.8728 48.1136C19.0778 47.7656 19.3875 47.5369 19.745 47.4749C20.0786 47.4177 20.417 47.5083 20.6934 47.7371L20.7029 47.7466C20.7172 47.7609 20.741 47.7752 20.7649 47.799L20.7696 47.8038C20.803 47.8371 20.8268 47.8657 20.8507 47.8943L20.8602 47.9039C20.865 47.9086 20.8697 47.9134 20.8745 47.9182C20.8983 47.942 20.9269 47.9706 20.9555 48.0135C20.9698 48.0325 20.9794 48.0516 20.9889 48.0754C20.9984 48.085 21.0032 48.0993 21.0127 48.1136C21.1748 48.39 21.413 48.552 21.6609 48.552C21.9087 48.552 22.1422 48.39 22.309 48.1136C22.5521 47.6989 22.9524 47.4511 23.3814 47.4511C23.8103 47.4511 24.2106 47.6989 24.4537 48.1136C24.5442 48.2661 24.6539 48.3804 24.773 48.4567V47.6465V45.4542C24.7587 43.6622 23.6959 42.0323 22.0564 41.3031Z" fill="#ECA753"/>
<path d="M20.7792 0.677246H19.1302V38.0617H20.7792V0.677246Z" fill="#E9533A"/>
<path d="M16.9283 43.29C16.4756 43.29 16.1134 44.0287 16.1134 44.9343C16.1134 45.8445 16.4804 46.5785 16.9283 46.5785C17.3811 46.5785 17.7433 45.8398 17.7433 44.9343C17.7433 44.0287 17.3811 43.29 16.9283 43.29Z" fill="#FEFEFE"/>
<path d="M28.7858 49.1523C31.4071 52.5361 32.9655 56.7539 32.9655 61.3292C32.9655 72.4527 23.7721 81.4697 12.4294 81.4697C10.4039 81.4697 8.44987 81.179 6.60071 80.6452C10.9329 84.7487 17.1571 86.879 23.8246 85.6018C31.6072 84.11 37.6885 77.9573 39.104 70.1651C40.7529 61.0861 36.1014 52.8745 28.7858 49.1523Z" fill="#C75C21"/>
<path d="M17.5814 64.3268C14.0594 67.3912 9.45079 67.863 7.29661 65.3848C5.14244 62.9065 6.24812 58.4123 9.77487 55.3479C13.2968 52.2834 17.9054 51.8116 20.0596 54.2898C22.2138 56.7681 21.1033 61.2623 17.5814 64.3268ZM28.7859 49.1522C28.5524 49.0331 28.3141 48.9187 28.0758 48.8091C27.0273 48.3277 25.936 47.9417 24.7969 47.651V48.4659C24.673 48.3897 24.5633 48.2753 24.4728 48.1228C24.2297 47.7034 23.8247 47.4556 23.391 47.4556C22.9573 47.4556 22.5569 47.7034 22.3139 48.1228C22.1471 48.404 21.9135 48.566 21.661 48.566C21.4131 48.566 21.1748 48.404 21.008 48.1228C20.9985 48.1085 20.9937 48.099 20.9842 48.0847C20.9747 48.0608 20.9651 48.0418 20.9508 48.0227C20.9222 47.9798 20.8889 47.9465 20.8698 47.9226C20.865 47.9179 20.8603 47.9131 20.8555 47.9036L20.846 47.894C20.8222 47.8654 20.7936 47.8321 20.7602 47.8035L20.7554 47.7987C20.7316 47.7749 20.7078 47.7606 20.6935 47.7463L20.6839 47.7368C20.4075 47.508 20.0692 47.4127 19.7308 47.4746C19.3733 47.5366 19.0588 47.7653 18.8539 48.118C18.6489 48.4707 18.3296 48.628 18.0246 48.5279C18.0198 48.5231 18.0103 48.5231 18.0007 48.5184C17.9531 48.5041 17.9102 48.4802 17.8721 48.4564C17.7529 48.3801 17.6528 48.2658 17.5718 48.1276C17.3288 47.7082 16.9237 47.4603 16.4948 47.4603C16.0611 47.4603 15.6607 47.7082 15.4177 48.1276C15.3462 48.2515 15.2604 48.3516 15.1651 48.423V47.6462C6.74375 49.7908 0.519531 57.421 0.519531 66.5095C0.519531 71.7949 2.62604 76.5846 6.04317 80.0923C6.22428 80.2781 6.41493 80.464 6.60556 80.6451C8.45472 81.1789 10.4087 81.4696 12.4342 81.4696C23.777 81.4696 32.9704 72.4526 32.9704 61.329C32.9609 56.749 31.4024 52.5312 28.7859 49.1522Z" fill="#E06522"/>
<path d="M28.905 52.7365C27.2561 53.0701 26.1218 61.2817 23.2289 66.9388C19.8308 73.5872 12.8631 78.0052 15.0268 80.0402C16.6901 81.6034 24.5538 74.9884 27.3276 67.9635C31.6597 57.002 30.0965 52.4982 28.905 52.7365Z" fill="#2D3344"/>
<path d="M20.0596 54.2852C20.5028 54.7951 20.8078 55.3956 20.9842 56.0485C22.657 54.3614 27.5849 51.3065 25.221 50.1579C23.5577 49.3477 21.1653 51.1683 19.5925 52.131C19.1255 52.4169 18.6727 52.722 18.2295 53.0413C18.9396 53.3034 19.5639 53.718 20.0596 54.2852Z" fill="#2D3344"/>
<path d="M13.5875 67.9248C12.3197 72.5572 10.747 72.2999 9.92249 75.5264C9.88913 75.6551 9.88437 76.227 9.93203 76.3556C10.1179 76.8561 11.1092 76.8275 11.5572 76.5939C13.3635 75.6551 14.2308 74.6638 15.2412 72.8956C15.8894 71.7613 16.0991 70.4364 16.3326 69.1496C16.6662 67.3148 16.8997 65.9756 17.2048 64.6411C16.1324 65.499 14.9791 66.1233 13.8353 66.5093C13.7686 67.0431 13.6923 67.5483 13.5875 67.9248Z" fill="#2D3344"/>
<path d="M12.6533 62.1582C11.9242 62.1582 10.4563 64.2218 9.34583 66.7001C10.6564 67.1195 12.2387 67.0432 13.8353 66.5047C13.9306 65.6802 13.983 64.7842 14.0068 64.1837C14.0354 63.1972 13.5874 62.1582 12.6533 62.1582Z" fill="#EF803C"/>
<path d="M12.1577 55.1285C11.0997 56.2389 10.0464 57.3541 8.97885 58.4694C7.94466 59.5512 7.02962 60.4853 6.24802 61.3956C6.05262 62.9111 6.37669 64.3266 7.29174 65.3799C7.37753 65.48 7.46806 65.5753 7.56338 65.6658C8.69289 63.2305 10.5135 60.3757 13.5112 57.2541C14.9743 55.7337 16.5137 54.2706 18.2247 53.041C15.8417 52.1593 12.4865 52.9838 9.76999 55.3429C9.50311 55.5717 9.25527 55.81 9.01697 56.0578C9.8653 55.4811 10.747 54.9521 11.6525 54.466C12.0767 54.2373 12.4865 54.7806 12.1577 55.1285Z" fill="#EF803C"/>
<path d="M18.4201 60.4901C17.8482 62.1391 17.4908 63.3878 17.2048 64.6364C17.3335 64.5364 17.4574 64.4315 17.5813 64.3219C20.3789 61.8913 21.6514 58.56 20.9842 56.0483C20.9127 56.1198 20.8459 56.1913 20.7888 56.258C20.0167 57.1397 18.7204 59.6227 18.4201 60.4901Z" fill="#EF803C"/>
<path d="M13.5161 57.2542C10.5183 60.3758 8.69775 63.2306 7.56824 65.6659C8.06865 66.1425 8.66917 66.4857 9.34592 66.7001C10.4564 64.2219 11.9243 62.1583 12.6534 62.1583C13.5875 62.1583 14.0355 63.1924 14.0022 64.1885C13.9831 64.789 13.9307 65.685 13.8306 66.5095C14.9792 66.1235 16.1325 65.4944 17.2001 64.6413C17.4908 63.3926 17.8435 62.144 18.4154 60.495C18.7156 59.6276 20.0072 57.1398 20.784 56.2629C20.8412 56.1961 20.9079 56.1247 20.9794 56.0532C20.8031 55.4002 20.4981 54.8045 20.0548 54.2898C19.5592 53.7227 18.9349 53.308 18.2247 53.0459C16.5233 54.2755 14.9792 55.7339 13.5161 57.2542Z" fill="#535252"/>
<path d="M8.98366 58.4695C10.0512 57.3543 11.1045 56.2391 12.1625 55.1286C12.4913 54.7807 12.0815 54.2374 11.6621 54.4661C10.7518 54.9523 9.87487 55.4813 9.02655 56.0579C7.44904 57.6879 6.48633 59.6133 6.25757 61.4005C7.02964 60.4902 7.94946 59.5513 8.98366 58.4695Z" fill="#535252"/>
<path d="M38.3986 72.3574C36.478 74.7213 34.6289 77.1757 34.2714 77.6762C33.3659 78.9582 31.3261 81.0933 29.8916 83.0473C27.3752 84.5486 24.4871 85.497 21.3988 85.721C22.452 85.292 23.4815 84.8011 24.4346 84.1816C26.6508 82.7423 31.3213 78.2385 33.1228 74.6784C34.8528 71.2613 37.6838 63.1021 36.945 57.1638C38.4606 59.9185 39.3184 63.0831 39.3184 66.4478C39.3184 68.5114 38.9944 70.494 38.3986 72.3574ZM16.6377 85.4779C13.3588 84.9012 10.3658 83.5001 7.87798 81.4936C7.88275 81.4841 7.88752 81.4698 7.88752 81.4603C8.0448 80.8788 8.45466 79.125 8.24019 77.6905C8.10675 76.8135 7.88751 75.2932 7.85415 74.1923C7.80649 72.6577 8.05908 70.3224 8.52137 68.8593C8.75014 68.1301 9.0361 67.4009 9.34589 66.7004C8.6739 66.4859 8.06862 66.1427 7.5682 65.6662C6.22422 68.5638 5.86678 70.8705 5.68568 72.3288C5.45692 74.1875 5.52841 77.2377 5.85726 79.6111C4.85166 78.5293 3.96996 77.3378 3.23125 76.0462C2.89288 73.6204 2.53544 69.0166 3.96996 65.0514C4.45608 63.7122 5.23292 62.5779 6.25281 61.3912C6.48634 59.604 7.44429 57.6833 9.02179 56.0486C7.47288 57.1019 6.02883 58.3076 4.71822 59.685C4.07959 60.357 2.70225 62.0155 2.06838 63.9123C1.37733 65.9855 1.00082 68.1349 1.06278 70.2986C0.810189 69.0499 0.67674 67.7584 0.67674 66.4382C0.67674 57.6738 6.51018 50.2724 14.5121 47.9085V48.509C10.7852 49.8816 8.75015 51.4972 8.20208 51.969C7.42047 52.6458 6.67699 53.3654 5.98117 54.1232C5.49029 54.657 5.00417 55.2766 4.74682 55.9438C4.48946 56.5967 5.19003 57.2163 5.8096 56.8779C7.08685 56.1821 8.18299 55.1098 9.35063 54.209C13.1824 51.2494 16.3708 51.1159 19.4829 50.0865C19.9642 49.9292 20.6601 49.5956 21.4464 49.2191C21.5132 49.2287 21.5799 49.2334 21.6466 49.2334C22.0946 49.2334 22.5092 48.9999 22.7952 48.59C23.0764 48.4614 23.3623 48.3422 23.6387 48.2278C23.715 48.285 23.7865 48.3613 23.8484 48.4613C24.1392 48.9618 24.5967 49.243 25.1018 49.2382C25.2877 49.2334 25.4355 49.0857 25.4355 48.8998V47.9037C28.457 48.7902 31.1736 50.3915 33.3849 52.5171C33.3611 54.657 33.7758 58.0455 33.6423 60.5714C33.4278 64.7511 29.5198 71.4233 25.7691 76.9232C24.0486 79.4491 19.6306 83.2236 16.6377 85.4779ZM15.1936 48.2802V47.7369V47.0364V45.4684C15.1936 43.7288 16.2087 42.1227 17.7767 41.3697C17.8148 41.3507 17.8482 41.3316 17.8768 41.303C17.9959 41.1791 18.0055 41.0028 17.9197 40.8741C17.6623 40.4833 17.5241 40.0305 17.5241 39.5635C17.5241 39.5206 17.5241 39.4777 17.5289 39.4348C17.5289 39.4253 17.5289 39.4205 17.5289 39.411C17.5336 39.3681 17.5337 39.3299 17.5384 39.287C17.5384 39.2775 17.5384 39.2727 17.5432 39.2632C17.548 39.2203 17.5527 39.1774 17.5622 39.1345V39.125C17.567 39.0916 17.5813 39.0345 17.5908 39.0011C17.6004 38.963 17.6099 38.9248 17.6242 38.8819C17.6242 38.8724 17.629 38.8676 17.629 38.8581C17.6433 38.82 17.6528 38.7819 17.6671 38.7437C17.6814 38.7056 17.6957 38.6675 17.7147 38.6246C17.7147 38.6198 17.7195 38.6151 17.7195 38.6103C17.7338 38.5722 17.7529 38.534 17.7719 38.5007C17.7862 38.4673 17.9054 38.2671 17.9101 38.2576C17.934 38.2243 17.9578 38.1861 17.9816 38.1528C18.0341 38.086 18.0865 38.0193 18.1437 37.9574L18.158 37.9431C18.1866 37.9145 18.2104 37.8859 18.239 37.8573C18.3057 37.7906 18.3772 37.7286 18.4535 37.6714V38.2433C18.4296 38.2671 18.4058 38.2957 18.3867 38.3196C18.3772 38.3291 18.3724 38.3386 18.3629 38.3482C18.3486 38.3672 18.3343 38.3863 18.32 38.4054C18.3153 38.4149 18.3057 38.4244 18.301 38.434C18.2819 38.4625 18.2628 38.4911 18.2438 38.5197C18.239 38.5245 18.239 38.5293 18.2342 38.534C18.2199 38.5579 18.2056 38.5865 18.1866 38.6103C18.1818 38.6198 18.177 38.6294 18.1675 38.6437C18.158 38.6675 18.1437 38.6865 18.1342 38.7104C18.1294 38.7199 18.1246 38.7294 18.1198 38.7437C18.1055 38.7771 18.0913 38.8057 18.077 38.8391C18.077 38.8438 18.077 38.8438 18.0722 38.8486C18.0627 38.8772 18.0484 38.9105 18.0388 38.9391C18.0341 38.9487 18.0341 38.963 18.0293 38.9725C18.0198 38.9963 18.015 39.0202 18.0055 39.0487C18.0007 39.0583 18.0007 39.0678 17.9959 39.0821C17.9864 39.1155 17.9769 39.1536 17.9721 39.187V39.1917C17.9674 39.2251 17.9578 39.2632 17.953 39.2966C17.953 39.3061 17.9483 39.3156 17.9483 39.3299C17.9435 39.3585 17.9435 39.3871 17.9387 39.411C17.9387 39.4205 17.9387 39.4348 17.934 39.4443C17.934 39.4824 17.9292 39.5206 17.9292 39.5587C17.9292 40.0686 18.1246 40.5548 18.4868 40.9217C18.5535 40.9885 18.6393 41.0218 18.7299 41.0218C18.7537 41.0218 18.7775 41.0218 18.7966 41.0171C19.0969 40.9551 19.4066 40.9265 19.7164 40.9265H20.1978C20.4599 40.9265 20.722 40.9503 20.9889 40.998C21.1033 41.0171 21.2177 40.9789 21.2939 40.8979C21.6371 40.5357 21.8229 40.0639 21.8229 39.5682C21.8229 39.5349 21.8229 39.5015 21.8182 39.4681C21.8182 39.4586 21.8182 39.4491 21.8182 39.4395C21.8182 39.411 21.8134 39.3824 21.8086 39.3585C21.8086 39.3538 21.8086 39.3442 21.8086 39.3395C21.8039 39.3061 21.7991 39.2775 21.7943 39.2489C21.7943 39.2394 21.7896 39.2299 21.7896 39.2156C21.7848 39.1965 21.78 39.1727 21.7753 39.1536C21.7705 39.1393 21.7705 39.1298 21.7657 39.1155C21.761 39.0964 21.7562 39.0726 21.7514 39.0535C21.7467 39.0345 21.7419 39.0106 21.7324 38.9916C21.7276 38.9773 21.7228 38.963 21.7181 38.9439C21.7133 38.9296 21.7086 38.9105 21.699 38.8962C21.6943 38.8867 21.6895 38.8772 21.6895 38.8676C21.6657 38.8057 21.6371 38.7437 21.6085 38.6865C21.6037 38.6818 21.6037 38.677 21.6037 38.6722C21.556 38.5865 21.5084 38.5007 21.4512 38.4244V38.4197V37.7953C21.4798 37.8192 21.5036 37.843 21.5322 37.8716C21.537 37.8763 21.5417 37.8811 21.5513 37.8859C21.5751 37.9097 21.5989 37.9335 21.6228 37.9621C21.6275 37.9669 21.6323 37.9764 21.6418 37.9812C21.6657 38.005 21.6895 38.0336 21.7086 38.0574C21.7181 38.0717 21.8992 38.3243 21.9278 38.3672C21.9421 38.3911 21.9564 38.4149 21.9707 38.4387C21.9802 38.453 21.9897 38.4721 21.9945 38.4864C22.004 38.5102 22.0183 38.534 22.0279 38.5579C22.0374 38.5769 22.0469 38.596 22.0517 38.6151C22.0612 38.6389 22.0708 38.6579 22.0803 38.6818C22.0898 38.7056 22.0994 38.7294 22.1089 38.758C22.1184 38.7819 22.1232 38.8009 22.1327 38.8248C22.147 38.8629 22.1566 38.901 22.1661 38.9391C22.1709 38.9582 22.1756 38.9725 22.1804 38.9916C22.1851 39.0202 22.1947 39.0487 22.1995 39.0773C22.2042 39.0964 22.209 39.1155 22.209 39.1345C22.2137 39.1631 22.2185 39.1917 22.2233 39.2203C22.2281 39.2394 22.228 39.2584 22.2328 39.2727C22.2375 39.3061 22.2376 39.3395 22.2423 39.3681C22.2423 39.3824 22.2471 39.4014 22.2471 39.4157C22.2519 39.4634 22.2519 39.511 22.2519 39.5635C22.2519 40.0067 22.1279 40.4404 21.8897 40.8169C21.8611 40.8598 21.842 40.9074 21.8372 40.9551C21.8134 41.1124 21.904 41.2554 22.0374 41.3173C23.6816 42.0465 24.7397 43.6764 24.7397 45.4684V46.7313V47.0221V47.7226V47.8275V48.4661C24.6205 48.3899 24.5109 48.2755 24.4203 48.123C24.387 48.0705 24.3536 48.0181 24.3155 47.9705C24.0724 47.6512 23.7198 47.4605 23.348 47.4605C22.9191 47.4605 22.5188 47.7083 22.2757 48.123C22.1137 48.4042 21.8754 48.5614 21.6275 48.5614C21.3797 48.5614 21.1462 48.3994 20.9794 48.123C20.9698 48.1087 20.9651 48.0991 20.9555 48.0849C20.946 48.0658 20.9365 48.042 20.9222 48.0229C20.8936 47.98 20.8602 47.9466 20.8412 47.9276C20.8364 47.9228 20.8316 47.918 20.8269 47.9133L20.8173 47.9037C20.7935 47.8751 20.7697 47.8466 20.7363 47.8132L20.7316 47.8084C20.7077 47.7846 20.6839 47.7703 20.6696 47.756L20.6601 47.7465C20.3836 47.5177 20.05 47.4272 19.7117 47.4843C19.3542 47.5463 19.0444 47.7751 18.8395 48.123C18.6346 48.4709 18.32 48.6282 18.0198 48.5328C18.015 48.5281 18.0055 48.5281 17.9959 48.5233C17.9531 48.509 17.9054 48.4852 17.8673 48.4613C17.7481 48.3851 17.648 48.2755 17.567 48.1325C17.4574 47.9419 17.3144 47.7894 17.1476 47.6797C16.9522 47.5463 16.7282 47.47 16.4947 47.47C16.0658 47.47 15.6654 47.7179 15.4224 48.1325C15.4081 48.1611 15.389 48.1849 15.3699 48.2135C15.308 48.2993 15.2413 48.3708 15.1698 48.428L15.1936 48.2802ZM18.9253 38.7485H20.865C21.0509 38.9677 21.1605 39.2489 21.1605 39.5587C21.1605 39.8208 21.0795 40.0782 20.927 40.2926C20.6887 40.2593 20.4504 40.245 20.2168 40.245H19.7355C19.4495 40.245 19.1588 40.2688 18.8776 40.3165C18.7156 40.0972 18.6298 39.8351 18.6298 39.5635C18.6298 39.2489 18.7394 38.9677 18.9253 38.7485ZM19.1398 0.682497H20.7887V38.067H19.1398V0.682497ZM38.4273 58.6651C37.9316 57.4927 37.3311 56.3822 36.6305 55.3337C35.9061 54.2519 35.0768 53.2415 34.1427 52.3074C33.9092 52.0739 33.6756 51.8499 33.4326 51.6307C31.7598 50.1103 29.8677 48.8998 27.785 48.0181C27.3513 47.837 26.9177 47.6702 26.4792 47.5177C26.1361 47.3986 25.7882 47.2889 25.4403 47.1936V46.8076V45.4636C25.4403 43.5239 24.3631 41.751 22.6617 40.8503C22.8523 40.4452 22.9525 40.0067 22.9525 39.5587C22.9525 38.4482 22.3567 37.4808 21.4703 36.9422V0.339354C21.4703 0.153485 21.3178 0.000976562 21.1319 0.000976562H18.8014C18.6155 0.000976562 18.463 0.153485 18.463 0.339354V36.866C17.5003 37.3807 16.8474 38.3958 16.8474 39.5587C16.8474 40.0353 16.957 40.4976 17.1667 40.917C15.5463 41.8368 14.5169 43.5811 14.5169 45.4636V47.2079C14.045 47.3414 13.5732 47.4939 13.1109 47.6655C12.8107 47.7751 12.5104 47.8942 12.2149 48.0181C9.83199 49.0237 7.69688 50.4678 5.85726 52.3026C4.02239 54.1375 2.57834 56.2774 1.57274 58.6603C0.529012 61.1243 0 63.7455 0 66.443C0 69.0642 0.500421 71.6092 1.48219 74.0112C1.51079 74.0827 1.54414 74.159 1.57274 74.2304C2.10175 75.4791 2.7499 76.661 3.51244 77.7667C4.20349 78.7723 4.9851 79.7112 5.85726 80.5881C5.92398 80.6548 5.99071 80.7168 6.05743 80.7835C6.50066 81.2172 6.96295 81.6271 7.43953 82.0131C8.88836 83.1855 10.4897 84.1482 12.2149 84.8774C13.4064 85.3826 14.636 85.7639 15.8942 86.026C17.038 86.2643 18.2056 86.4025 19.3876 86.4358C19.5925 86.4406 19.7974 86.4454 20.0024 86.4454C22.6998 86.4454 25.3211 85.9164 27.785 84.8726C28.2187 84.6868 28.6429 84.4914 29.0623 84.2769C30.9353 83.3237 32.6415 82.0846 34.1427 80.5833C35.9776 78.7485 37.4217 76.6086 38.4273 74.2257C38.8657 73.1962 39.2089 72.1334 39.4662 71.0564C39.8189 69.5551 40 68.011 40 66.443C40 63.7503 39.471 61.1291 38.4273 58.6651Z" fill="#2D3344"/>
</svg>
