<svg width="115" height="114" viewBox="0 0 115 114" fill="none" xmlns="http://www.w3.org/2000/svg">
<path d="M114.67 71.0768L74.274 56.8241C74.1058 56.768 74.0497 56.5623 74.1618 56.4252L101.627 23.5447C101.807 23.3266 101.546 23.0212 101.303 23.1708L64.9695 45.8681C64.8199 45.9615 64.6268 45.8743 64.5894 45.706L56.0016 3.73296C55.9455 3.45251 55.5404 3.47121 55.503 3.75165L50.5921 46.3043C50.5734 46.4788 50.3864 46.5785 50.2306 46.4975L12.0654 27.0472C11.8099 26.9163 11.5731 27.2466 11.7725 27.446L41.9856 57.8212C42.1102 57.9458 42.0728 58.1577 41.9108 58.2263L2.91045 75.9379C2.6487 76.0563 2.75465 76.4489 3.04133 76.4177L45.6189 71.7312C45.7934 71.7125 45.9305 71.8745 45.8931 72.0428L35.4232 113.58C35.3547 113.854 35.7286 114.016 35.8782 113.773L58.7624 77.5644C58.8559 77.4149 59.0677 77.4086 59.1737 77.5457L85.1179 111.629C85.2924 111.853 85.6476 111.666 85.5541 111.392L71.5132 70.921C71.4571 70.7528 71.5818 70.5845 71.7563 70.5845L114.583 71.5505C114.87 71.5692 114.945 71.1703 114.67 71.0768Z" fill="#2D3344"/>
<path d="M49.5514 44.5159L52.8606 52.5926L53.7643 7.99585L49.5514 44.5159Z" fill="#407B7C"/>
<path d="M90.8328 27.1782L63.5113 44.2479L56.2634 51.7638L90.8328 27.1782Z" fill="#EB6135"/>
<path d="M52.1752 54.1568L12.3708 26.8167L40.9886 55.5839L52.1752 54.1568Z" fill="#D77E88"/>
<path d="M40.9574 56.3444L10.7754 70.0487L50.0936 55.179L40.9574 56.3444Z" fill="#399FCF"/>
<path d="M44.9398 69.7369L36.4454 103.428L51.6206 57.9458L44.9398 69.7369Z" fill="#EB6135"/>
<path d="M57.9149 75.003L81.7775 106.35L54.0697 56.7368L57.9149 75.003Z" fill="#407B7C"/>
<path d="M56.4254 54.8113L107.51 67.3315L72.4855 54.9733L56.4254 54.8113Z" fill="#399FCF"/>
<path d="M44.9397 69.7371L51.6205 57.946L36.4454 103.428L44.9397 69.7371ZM10.7754 70.0487L40.9511 56.3443L50.0874 55.1789L10.7754 70.0487ZM12.3708 26.8167L52.1751 54.1569L40.9885 55.584L12.3708 26.8167ZM53.7643 7.99583L52.8607 52.5926L49.5514 44.5158L53.7643 7.99583ZM81.7775 106.351L57.9149 75.0032L54.0697 56.737L81.7775 106.351ZM63.5113 44.2479L90.8327 27.1844L56.2634 51.77L63.5113 44.2479ZM107.51 67.3315L56.4316 54.8112L72.4855 54.9733L107.51 67.3315ZM34.0211 112.202C34.0709 112.202 34.1208 112.178 34.1519 112.128L57.4288 75.3023C57.4537 75.2649 57.4849 75.2462 57.5222 75.2338L57.5659 75.1652L57.6282 75.2462C57.6469 75.2587 57.6718 75.2712 57.6843 75.2899L84.0709 109.953C84.1021 109.996 84.1519 110.015 84.1956 110.015C84.2953 110.015 84.3888 109.922 84.3452 109.803L70.0114 68.4844H70.1048C70.136 68.4533 70.1734 68.4346 70.217 68.4346H70.2233L113.773 69.4192C113.773 69.4192 113.773 69.4192 113.779 69.4192C113.91 69.4192 113.966 69.2821 113.916 69.1887L72.554 54.5931L72.6475 54.4809C72.6413 54.4435 72.6538 54.3999 72.6849 54.3625L100.605 20.9212C100.686 20.8215 100.623 20.703 100.53 20.6719L63.2807 43.9425L63.2308 43.7057C63.2246 43.6932 63.2184 43.6807 63.2184 43.6683L54.4748 0.9972C54.4561 0.909951 54.3875 0.872559 54.319 0.872559C54.2691 0.872559 54.2255 0.897487 54.1943 0.934879L49.1588 44.5657L10.0276 24.6168C9.92163 24.6417 9.85929 24.7851 9.95278 24.8785L40.6769 55.7647C40.6956 55.7897 40.7143 55.8146 40.7206 55.8395L40.8577 55.9766L0.885095 74.1307C0.860167 74.2242 0.922482 74.3301 1.03466 74.3301C1.04089 74.3301 1.04714 74.3301 1.05337 74.3301L44.3539 69.5688C44.3601 69.5688 44.3663 69.5688 44.3726 69.5688C44.4162 69.5688 44.4473 69.5875 44.4785 69.6124L44.5969 69.6L33.884 112.109C33.8964 112.159 33.9588 112.202 34.0211 112.202Z" fill="#FEFEFE"/>
<path d="M113.773 69.4254L70.217 68.4407H70.2108C70.1671 68.4407 70.1235 68.4594 70.0986 68.4906C70.0612 68.5342 70.0425 68.5903 70.0612 68.6526L84.3389 109.809C84.3763 109.928 84.2828 110.021 84.1893 110.021C84.1457 110.021 84.1021 110.002 84.0647 109.959L57.678 75.296C57.6593 75.2773 57.6407 75.2586 57.622 75.2524C57.6033 75.2399 57.5783 75.2399 57.5534 75.2399C57.5409 75.2399 57.5285 75.2399 57.516 75.2462C57.4786 75.2524 57.4475 75.2773 57.4225 75.3147L34.1457 112.14C34.1146 112.19 34.0647 112.215 34.0148 112.215C33.9525 112.215 33.8902 112.177 33.8653 112.115C33.8528 112.084 33.8466 112.053 33.859 112.015L44.5097 69.7744C44.5221 69.7121 44.5034 69.656 44.4598 69.6186C44.4349 69.5937 44.3975 69.575 44.3539 69.575C44.3476 69.575 44.3414 69.575 44.3352 69.575L1.03465 74.3363C1.02841 74.3363 1.02219 74.3363 1.01596 74.3363C0.903784 74.3363 0.84147 74.2241 0.866398 74.1368C0.878862 74.0995 0.903784 74.0621 0.953641 74.0371L40.6208 56.0264C40.6894 55.9953 40.7268 55.9142 40.7081 55.8457C40.7019 55.8208 40.6894 55.7896 40.6645 55.7709L9.94029 24.8847C9.8468 24.7912 9.90914 24.6479 10.0151 24.623C10.0275 24.623 10.04 24.6167 10.0525 24.6167C10.0774 24.6167 10.1023 24.623 10.1272 24.6354L48.9407 44.4161C48.9656 44.4285 48.9905 44.4347 49.0092 44.4347C49.084 44.4347 49.1588 44.3787 49.165 44.2976L54.1569 1.02206C54.1631 0.990901 54.1756 0.965973 54.1881 0.947277C54.2192 0.909884 54.2629 0.884956 54.3127 0.884956C54.3813 0.884956 54.4498 0.92858 54.4685 1.0096L63.1997 43.6869C63.1997 43.6994 63.2059 43.7118 63.2121 43.7243C63.2371 43.7804 63.2931 43.8115 63.3492 43.8115C63.3804 43.8115 63.4053 43.8053 63.4303 43.7866L100.38 20.7092C100.411 20.6905 100.436 20.6843 100.468 20.6843C100.486 20.6843 100.499 20.6843 100.511 20.6905C100.605 20.7217 100.667 20.8463 100.586 20.9398L72.6662 54.3811C72.635 54.4123 72.6288 54.4559 72.6288 54.4996C72.6351 54.5556 72.6724 54.6117 72.7348 54.6304L113.817 69.1263C113.86 69.1387 113.891 69.1699 113.904 69.201C113.96 69.2883 113.904 69.4254 113.773 69.4254ZM114.116 68.2912L74.0061 54.1381L101.265 21.4945C101.527 21.1828 101.577 20.7653 101.409 20.3976C101.24 20.0361 100.873 19.7993 100.474 19.7993C100.281 19.7993 100.094 19.8554 99.9253 19.9551L63.8603 42.4903L55.3348 0.822635C55.2351 0.336532 54.8175 0 54.3252 0C53.8017 0 53.3592 0.392621 53.3031 0.909884L48.4296 43.1634L10.5386 23.8502C10.3952 23.7754 10.227 23.738 10.0712 23.738C9.65362 23.738 9.2797 23.9873 9.11767 24.3737C8.95564 24.7601 9.04289 25.1963 9.34203 25.4954L39.3246 55.6525L0.604638 73.2332C0.155928 73.4326 -0.0808787 73.9125 0.0250667 74.3924C0.131012 74.8722 0.542305 75.2088 1.02841 75.2088C1.0658 75.2088 1.10322 75.2088 1.14684 75.2025L43.419 70.5472L33.0239 111.791C32.9429 112.103 33.0115 112.427 33.2109 112.676C33.3293 112.826 33.4789 112.938 33.6534 113C33.7718 113.044 33.8964 113.069 34.0273 113.069C34.3825 113.069 34.7066 112.888 34.8936 112.589L57.6157 76.6359L83.3792 110.476C83.5786 110.738 83.8715 110.881 84.1955 110.881C84.3638 110.881 84.5259 110.838 84.6754 110.763C84.6754 110.763 84.6817 110.763 84.6817 110.757C84.825 110.682 84.9496 110.576 85.0431 110.445C85.2363 110.177 85.2862 109.828 85.174 109.51L71.2328 69.3257L113.754 70.2854H113.767H113.779C114.284 70.2854 114.708 69.924 114.795 69.4316C114.876 68.9455 114.589 68.4594 114.116 68.2912Z" fill="#232F40"/>
<path d="M55.341 8.0455L54.481 3.86377L54.4125 7.26649C54.7241 7.51577 55.0357 7.77752 55.341 8.0455Z" fill="#E7C297"/>
<path d="M61.3301 40.6955C61.112 41.3374 60.8627 41.9668 60.601 42.5963C60.4202 43.0138 60.2333 43.4251 60.0338 43.8364C59.9341 44.0421 59.8344 44.2478 59.7285 44.4472C58.9931 45.8681 58.133 47.2329 57.1421 48.5292C56.9988 48.7162 56.8554 48.8969 56.7121 49.0776C56.4192 49.4453 56.1139 49.8005 55.8022 50.1558C55.6464 50.3303 55.4844 50.5048 55.3224 50.6793C54.9983 51.0283 54.6618 51.3648 54.319 51.6951C54.1445 51.8634 53.97 52.0254 53.7955 52.1874C53.6958 52.2747 53.5961 52.3682 53.4964 52.4554L53.4777 53.4214L62.6762 43.8863L61.7539 39.3743C61.7477 39.3867 61.7476 39.3992 61.7414 39.4117C61.6168 39.8417 61.4797 40.2717 61.3301 40.6955Z" fill="#F3BC8F"/>
<path d="M54.3314 11.4047C54.8923 11.9469 55.4283 12.514 55.9518 13.1123C56.145 13.3304 56.3319 13.5548 56.5126 13.7791L55.341 8.04561C55.0356 7.77763 54.7303 7.51588 54.4187 7.2666L54.3314 11.4047Z" fill="#F3BC8F"/>
<path d="M58.0769 42.8831C57.3415 44.3912 56.4503 45.8433 55.4096 47.2082C55.1478 47.5509 54.8798 47.8875 54.5994 48.2178C54.4623 48.386 54.319 48.548 54.1756 48.7101C54.0323 48.8721 53.8827 49.0342 53.7331 49.1962C53.6771 49.2585 53.621 49.3146 53.5587 49.3769L53.4963 52.4618C53.5961 52.3745 53.6958 52.2873 53.7955 52.1938C53.97 52.0318 54.1445 51.8635 54.319 51.7015C54.6617 51.3712 54.9983 51.0284 55.3223 50.6857C55.4844 50.5112 55.6464 50.3367 55.8022 50.1622C56.1138 49.8069 56.4192 49.4517 56.7121 49.084C56.8554 48.9033 57.005 48.7163 57.1421 48.5356C58.133 47.2393 58.993 45.8745 59.7284 44.4536C59.8344 44.2479 59.9341 44.0485 60.0338 43.8428C60.2332 43.4315 60.4202 43.0202 60.6009 42.6026C60.8689 41.9794 61.1119 41.3438 61.33 40.7019C61.4796 40.2718 61.6105 39.8481 61.7414 39.4118C61.7476 39.3994 61.7476 39.3869 61.7538 39.3744L60.5947 33.7219C60.3267 36.8754 59.4854 39.9914 58.0769 42.8831Z" fill="#F3BC8F"/>
<path d="M54.3315 11.4048L54.2692 14.4897C54.2816 14.5084 54.3003 14.5208 54.3128 14.5395C55.6402 16.0602 56.7558 17.693 57.6657 19.4005L56.5127 13.7792C56.3258 13.5549 56.1388 13.3305 55.9518 13.1124C55.4283 12.5141 54.8861 11.947 54.3315 11.4048Z" fill="#F3BC8F"/>
<path d="M54.2691 14.4958L54.2005 17.9173C54.6554 18.5592 55.0668 19.2135 55.4469 19.8866C55.8333 20.5721 56.1885 21.2701 56.5001 21.9806C56.6559 22.3358 56.8055 22.691 56.9426 23.0525C57.0797 23.414 57.2106 23.7754 57.329 24.1431C58.2888 27.066 58.6627 30.1321 58.457 33.1547C58.2513 36.1773 57.4661 39.1624 56.12 41.9295C56.0327 42.104 55.9517 42.2722 55.8582 42.4467C55.6837 42.7895 55.4968 43.126 55.2974 43.4626C55.1976 43.6308 55.0979 43.7991 54.9982 43.9611C54.5931 44.6217 54.1506 45.2699 53.6708 45.8931C53.6521 45.9118 53.6396 45.9367 53.6209 45.9554L53.5524 49.3768C53.6085 49.3145 53.6645 49.2584 53.7269 49.1961C53.8764 49.0341 54.026 48.8783 54.1693 48.71C54.3127 48.5479 54.456 48.3859 54.5931 48.2176C54.8736 47.8873 55.1415 47.5508 55.4033 47.2081C56.444 45.8432 57.3352 44.3911 58.0706 42.883C59.4791 39.9913 60.3204 36.8753 60.5884 33.7156L57.6593 19.3943C56.7494 17.6867 55.6339 16.0539 54.3065 14.5332C54.294 14.527 54.2815 14.5083 54.2691 14.4958Z" fill="#E5B29B"/>
<path d="M55.0045 43.9611C55.1042 43.7928 55.2039 43.6308 55.3036 43.4625C55.4968 43.126 55.6838 42.7895 55.8645 42.4467C55.9518 42.2784 56.039 42.1039 56.1262 41.9294C57.4724 39.1624 58.2576 36.1772 58.4633 33.1547C58.6689 30.1321 58.295 27.0659 57.3353 24.1431C57.2169 23.7754 57.086 23.4139 56.9489 23.0525C56.8118 22.691 56.6622 22.3358 56.5064 21.9806C56.1948 21.2701 55.8396 20.5721 55.4532 19.8866C55.073 19.2135 54.6555 18.5591 54.2068 17.9172L54.1257 22.0179C54.4997 22.772 54.8237 23.5448 55.1042 24.3238C55.1603 24.4859 55.2226 24.6541 55.2725 24.8224C56.145 27.4773 56.4815 30.2568 56.2945 33.0051C56.1076 35.7535 55.3971 38.4644 54.1756 40.9759C54.0323 41.2688 53.8827 41.5618 53.7207 41.8484L53.6396 45.9554C53.6583 45.9367 53.6708 45.9118 53.6895 45.8931C54.1569 45.2698 54.5994 44.6217 55.0045 43.9611Z" fill="#D5A7A4"/>
<path d="M56.2883 33.0052C56.4753 30.2569 56.1388 27.4774 55.2663 24.8225C55.2102 24.6542 55.1541 24.4922 55.098 24.3239C54.8176 23.5387 54.4935 22.7721 54.1196 22.0181L53.9825 28.8734C53.9949 28.9668 54.0074 29.0541 54.0199 29.1476C54.0386 29.3034 54.0572 29.4529 54.0697 29.6087C54.1133 30.0699 54.1445 30.5373 54.1569 30.9985C54.1756 31.6155 54.1632 32.2387 54.1196 32.8557C54.0697 33.5661 53.9825 34.2766 53.8578 34.9808L53.7207 41.8486C53.8765 41.5619 54.0323 41.269 54.1757 40.9761C55.3909 38.4645 56.1014 35.7536 56.2883 33.0052Z" fill="#C69DAA"/>
<path d="M54.1507 31.0045C54.1383 30.5434 54.1071 30.076 54.0634 29.6148C54.051 29.459 54.0323 29.3094 54.0136 29.1536C54.0011 29.0601 53.9887 28.9729 53.9762 28.8794L53.8516 34.9868C53.9762 34.2826 54.0697 33.5722 54.1133 32.8617C54.1569 32.2447 54.1694 31.6215 54.1507 31.0045Z" fill="#B592AF"/>
<path d="M98.2365 22.8842L98.5855 22.4604L98.2115 22.7284C98.224 22.7783 98.2302 22.8281 98.2365 22.8842Z" fill="#967DB7"/>
<path d="M96.6161 23.8626L95.002 25.0093L93.3754 26.1685L91.7301 27.3339L90.0662 28.518L88.3835 29.7146C88.4209 30.8176 88.4209 31.9207 88.396 33.0238C88.4271 31.9207 88.4209 30.8176 88.3835 29.7146L86.6759 30.9298L84.9434 32.1638L81.6965 34.4696L78.3062 36.8815L74.7041 39.4428L70.7716 42.2411L70.7467 42.3345L70.7716 42.2411L66.2284 45.4755C66.2098 45.5129 66.1973 45.5441 66.1786 45.5814C66.1973 45.5441 66.2098 45.5129 66.2284 45.4755L60.1085 49.8255L54.2317 54.0072L56.4503 54.0322L60.7629 54.0758L60.7941 54.0384L60.7629 54.0758L64.7951 54.1132L68.6403 54.1506L68.6527 54.1319L68.6403 54.1506L72.1053 54.188L72.9529 53.1721L79.8767 44.871L84.314 39.555L86.3955 37.0622L88.3274 34.7501L90.1472 32.5689L91.8797 30.4936L93.5437 28.4993L95.1516 26.5736C95.1329 26.3181 95.1079 26.0688 95.083 25.8133C95.1079 26.0688 95.1266 26.3181 95.1516 26.5736L96.7158 24.704L98.2364 22.878C98.2302 22.8281 98.224 22.772 98.2177 22.7222L96.6161 23.8626ZM59.8468 50.1807C59.7845 50.268 59.7159 50.3552 59.6536 50.4425C59.5477 50.5858 59.4355 50.7229 59.3233 50.8663C59.4355 50.7291 59.5414 50.5858 59.6536 50.4425C59.7159 50.3552 59.7845 50.268 59.8468 50.1807ZM57.0299 53.4588C56.8616 53.6271 56.6871 53.8016 56.5189 53.9636C56.5126 53.9698 56.5002 53.9823 56.4939 53.9885C56.5002 53.9823 56.5126 53.9698 56.5189 53.9636C56.6871 53.7953 56.8616 53.6271 57.0299 53.4588ZM66.1848 45.5814C66.1599 45.6375 66.135 45.6874 66.1163 45.7435C66.135 45.6874 66.1599 45.6313 66.1848 45.5814ZM66.0913 45.7933C66.0789 45.8245 66.0664 45.8494 66.054 45.8806L66.0913 45.7933ZM65.6738 46.6721C65.6489 46.7219 65.6302 46.7655 65.6052 46.8154C65.6302 46.7655 65.6489 46.7219 65.6738 46.6721ZM65.5678 46.884C65.4868 47.046 65.4058 47.2143 65.3186 47.3763C65.4058 47.2143 65.4868 47.0522 65.5678 46.884ZM65.2812 47.4448C65.2313 47.5383 65.1815 47.6318 65.1316 47.7253C65.1877 47.6318 65.2375 47.5383 65.2812 47.4448ZM65.1378 47.7253C65.1004 47.7938 65.0631 47.8624 65.0257 47.9309C65.0631 47.8624 65.1004 47.7938 65.1378 47.7253ZM64.9509 48.068C64.8886 48.1802 64.8262 48.2986 64.7577 48.4108C64.82 48.2986 64.8886 48.1865 64.9509 48.068ZM64.7577 48.417C64.7203 48.4856 64.6829 48.5542 64.6393 48.6227C64.6829 48.5542 64.7203 48.4856 64.7577 48.417ZM64.6393 48.6227C64.6019 48.6913 64.5583 48.7598 64.5209 48.8284C64.5645 48.7598 64.6019 48.6913 64.6393 48.6227ZM64.4025 49.0278C64.3651 49.0963 64.3214 49.1649 64.284 49.2334C64.3214 49.1649 64.3651 49.0963 64.4025 49.0278ZM64.2404 49.302C64.1968 49.3706 64.1594 49.4391 64.1158 49.5077C64.1594 49.4391 64.1968 49.3706 64.2404 49.302ZM61.1431 53.6271L61.0932 53.6894L61.087 53.6956L61.0932 53.6894L61.1431 53.6271ZM68.6714 47.7253C68.6278 47.8125 68.5904 47.8998 68.5468 47.987C68.5281 48.0182 68.5156 48.0556 68.4969 48.0867C68.5156 48.0556 68.5281 48.0182 68.5468 47.987C68.5904 47.8998 68.6278 47.8125 68.6714 47.7253ZM68.4969 48.0867C68.4658 48.1491 68.4408 48.2052 68.4097 48.2675L68.3972 48.2862C68.3785 48.3173 68.3661 48.3547 68.3474 48.3859C68.3287 48.417 68.3162 48.4544 68.2975 48.4856C68.2788 48.5168 68.2663 48.5541 68.2476 48.5853C68.2289 48.6165 68.2165 48.6539 68.1978 48.685C68.1791 48.7162 68.1666 48.7536 68.1479 48.7847L68.4969 48.0867ZM71.5257 49.0714C71.4759 49.1711 71.4323 49.2708 71.3824 49.3706C70.8028 50.5609 70.1671 51.72 69.4691 52.8543C69.3943 52.9789 69.3196 53.0973 69.2385 53.222C69.3133 53.1036 69.3943 52.9789 69.4691 52.8543C70.1671 51.72 70.809 50.5547 71.3824 49.3706C71.4323 49.2708 71.4821 49.1711 71.5257 49.0714ZM77.8638 39.7794C77.2592 42.964 76.2995 46.0862 74.9908 49.0901C76.2995 46.0925 77.2592 42.964 77.8638 39.7794ZM74.9908 49.0901C74.9284 49.2272 74.8661 49.3706 74.8038 49.5077C74.8661 49.3706 74.9284 49.2334 74.9908 49.0901ZM74.0123 51.1716C73.7755 51.639 73.5325 52.1064 73.2769 52.5676C73.5325 52.1064 73.7817 51.6453 74.0123 51.1716ZM81.6965 34.6504C81.6965 34.6815 81.6903 34.7065 81.6903 34.7376C81.5033 37.5234 81.0608 40.2904 80.3815 43.0014C81.0608 40.2842 81.4971 37.5171 81.6903 34.7376C81.6965 34.7065 81.6965 34.6753 81.6965 34.6504ZM80.3441 43.1572C80.3192 43.2631 80.288 43.3628 80.2631 43.4688C80.2943 43.3691 80.3192 43.2631 80.3441 43.1572ZM80.2631 43.4688C80.2382 43.5747 80.207 43.6744 80.1821 43.7804C80.207 43.6807 80.2382 43.5747 80.2631 43.4688ZM80.1821 43.7804C80.1572 43.8863 80.126 43.986 80.0948 44.092C80.126 43.9923 80.1509 43.8863 80.1821 43.7804ZM84.9496 32.1575C84.9496 32.2012 84.9496 32.2448 84.9496 32.2884V32.332V32.3757V32.4193V32.4629V32.5065V32.5502V32.5938V32.6374V32.681V32.7247V32.7683V32.8119V32.8992C84.9309 33.5847 84.8998 34.264 84.8499 34.9495C84.8374 35.1676 84.8188 35.3858 84.8001 35.5977C84.8188 35.3795 84.8312 35.1614 84.8499 34.9495C84.8935 34.2702 84.9309 33.5847 84.9496 32.8992V32.1575ZM95.0705 25.6201C95.0768 25.6762 95.083 25.7323 95.0892 25.7884C95.0768 25.7385 95.0705 25.6824 95.0705 25.6201Z" fill="#FEFEFE"/>
<path d="M37.4674 39.1062L35.1864 37.9408C34.9807 37.9533 34.7689 37.9533 34.5632 37.9471C34.7689 37.9533 34.9807 37.9533 35.1864 37.9408L29.428 35.0055C29.4404 35.0242 29.4529 35.0491 29.4654 35.0678C29.4529 35.0491 29.4404 35.0305 29.428 35.0055L27.147 33.8464L25.3086 32.9053L23.6197 32.0453L22.0055 31.2226L19.8929 30.1445L17.8301 29.0913L15.7984 28.0568V28.063V28.0568L14.446 27.365L15.761 28.2686C15.7673 28.2437 15.7672 28.2188 15.7735 28.2001C15.7672 28.225 15.7673 28.2437 15.761 28.2686L17.7615 29.6459L17.774 29.5587L17.7615 29.6459L19.8368 31.0731L22.0492 32.5937C22.043 32.5439 22.0429 32.494 22.0367 32.4441C22.0429 32.494 22.043 32.5439 22.0492 32.5937L23.844 33.8277L25.9692 35.286L34.5071 41.1504L36.6323 42.6087L38.4271 43.8426L40.6395 45.3632L42.7148 46.7904L44.7153 48.1677L46.6659 49.5076L48.5854 50.8288C48.6228 50.8039 48.6602 50.7727 48.7038 50.7478C48.6664 50.7727 48.629 50.8039 48.5854 50.8288L50.4799 52.1313L52.2685 53.359L51.4521 51.3585C51.3774 51.4208 51.3026 51.4831 51.2278 51.5455C51.3026 51.4831 51.3774 51.4208 51.4521 51.3585L50.5796 49.2334C50.5547 49.2521 50.536 49.2708 50.5111 49.2957C50.536 49.277 50.5547 49.2583 50.5796 49.2334L49.7009 47.0833L48.8097 44.9021L48.8035 44.8834L46.7843 43.8551C46.6721 43.961 46.56 44.067 46.4478 44.1729C46.56 44.067 46.6721 43.961 46.7843 43.8551L44.7215 42.8019L42.6088 41.7237L41.001 40.9011L39.3121 40.041L37.4674 39.1062ZM50.1185 49.6322C50.212 49.5512 50.3054 49.4764 50.3927 49.3954C50.4114 49.3767 50.4301 49.3642 50.4488 49.3455C50.4301 49.3642 50.4114 49.3767 50.3927 49.3954C50.3054 49.4764 50.212 49.5512 50.1185 49.6322ZM47.5508 48.8906C47.6132 48.847 47.6693 48.8034 47.7316 48.7535C47.6693 48.8034 47.6132 48.847 47.5508 48.8906ZM47.7316 48.7535C47.9622 48.5852 48.1865 48.4045 48.4109 48.2238C48.1865 48.4107 47.9622 48.5852 47.7316 48.7535ZM49.2148 47.5382C49.2834 47.4759 49.3519 47.4136 49.4205 47.3513C49.3519 47.4136 49.2834 47.4759 49.2148 47.5382ZM45.7186 47.5258C45.7809 47.4822 45.837 47.4448 45.8993 47.4011C45.837 47.4448 45.7747 47.4822 45.7186 47.5258ZM46.2484 47.1456C46.2795 47.1269 46.3044 47.102 46.3356 47.0833C46.3044 47.1082 46.2795 47.1269 46.2484 47.1456ZM46.3356 47.0833C46.3668 47.0646 46.3917 47.0397 46.4229 47.021C46.3917 47.0397 46.3668 47.0646 46.3356 47.0833ZM46.4665 46.9836C46.4976 46.9587 46.5226 46.94 46.5537 46.915C46.5226 46.94 46.4976 46.9649 46.4665 46.9836ZM46.7718 46.753C46.803 46.7281 46.828 46.7094 46.8591 46.6844C46.828 46.7031 46.7968 46.7281 46.7718 46.753ZM46.9838 46.5785C47.0149 46.5536 47.0398 46.5349 47.071 46.5099C47.0398 46.5349 47.0149 46.5536 46.9838 46.5785ZM47.1956 46.404C47.2268 46.3791 47.2517 46.3541 47.2829 46.3354C47.2517 46.3604 47.2268 46.3791 47.1956 46.404ZM47.2829 46.3354C47.314 46.3105 47.339 46.2856 47.3701 46.2669C47.339 46.2856 47.314 46.3105 47.2829 46.3354ZM47.3701 46.2607C47.4262 46.2108 47.4823 46.1672 47.5384 46.1173C47.6007 46.0612 47.663 46.0051 47.7254 45.9491C47.663 46.0051 47.6007 46.0612 47.5384 46.1173C47.4823 46.1672 47.4262 46.217 47.3701 46.2607ZM40.7828 42.8891C40.8452 42.8517 40.9137 42.8206 40.976 42.7832C40.9137 42.8206 40.8514 42.8517 40.7828 42.8891ZM41.1069 42.7084C41.4933 42.4903 41.8734 42.2472 42.2411 41.9855C41.8734 42.2534 41.4933 42.4903 41.1069 42.7084ZM23.7069 33.0237C23.7069 33.0424 23.7131 33.0611 23.7131 33.0798C23.7131 33.0611 23.7069 33.0424 23.7069 33.0237ZM23.7194 33.1359C23.7381 33.273 23.763 33.4163 23.7879 33.5534C23.763 33.4101 23.7443 33.273 23.7194 33.1359ZM34.3825 37.9346C34.0833 37.9159 33.7904 37.8723 33.4975 37.81C33.7904 37.8723 34.0833 37.9159 34.3825 37.9346ZM33.1485 37.7289C33.0924 37.7165 33.0363 37.6978 32.974 37.6791C33.0301 37.6978 33.0924 37.7165 33.1485 37.7289ZM30.1197 35.9029C30.0761 35.8531 30.0325 35.8095 29.9889 35.7596C29.9702 35.7409 29.9577 35.7222 29.939 35.7035C29.9577 35.7222 29.9702 35.7409 29.9889 35.7596C30.0325 35.8095 30.0761 35.8531 30.1197 35.9029ZM29.9452 35.7035C29.9328 35.6848 29.9141 35.6661 29.9016 35.6474C29.9141 35.6661 29.9265 35.6848 29.9452 35.7035Z" fill="#FEFEFE"/>
<path d="M5.98912 72.5724L4.03849 73.3078L3.30933 73.582L4.26906 73.4761L6.88654 73.1894L12.0093 72.6285L17.9049 71.9804L25.5392 71.1391L44.3289 69.07L45.1578 67.6055L47.4948 63.4798L50.212 58.6874L52.2623 55.0728L32.2636 62.6323L26.4054 64.8509L21.6192 66.6582L17.3502 68.2723L13.3804 69.7742L9.61621 71.2014L5.98912 72.5724ZM50.1871 58.6998L50.1808 58.7061C49.9565 58.8307 49.7259 58.9616 49.5015 59.08C49.7321 58.9553 49.9565 58.8307 50.1808 58.7061L50.1871 58.6998ZM44.3227 61.2674C44.1108 61.336 43.8989 61.3983 43.687 61.4606C43.8989 61.3983 44.1108 61.336 44.3227 61.2674ZM42.2224 61.8595C42.0293 61.9031 41.8423 61.953 41.6491 61.9966C41.3749 62.0589 41.0944 62.115 40.8202 62.1711C41.1007 62.115 41.3749 62.0589 41.6491 61.9966C41.8423 61.9467 42.0355 61.9031 42.2224 61.8595ZM34.8063 62.7444C34.7689 62.7444 34.7377 62.7444 34.7003 62.7444C34.7377 62.7444 34.7689 62.7444 34.8063 62.7444ZM34.7003 62.7444C34.4448 62.7444 34.1831 62.7382 33.9276 62.732C34.1831 62.7382 34.4448 62.7382 34.7003 62.7444ZM39.4305 62.4017L39.524 62.3892L39.4305 62.4017ZM46.5101 63.86C46.454 63.8787 46.4042 63.8974 46.3481 63.9161C46.2608 63.9472 46.1736 63.9784 46.0863 64.0096C46.1736 63.9784 46.2608 63.9472 46.3481 63.9161C46.4042 63.8974 46.454 63.8787 46.5101 63.86ZM46.0739 64.0096C45.8994 64.0719 45.7249 64.128 45.5504 64.1841C45.2513 64.2838 44.9521 64.3773 44.653 64.4645C44.9521 64.3773 45.2513 64.2838 45.5504 64.1841C45.7311 64.128 45.9056 64.0719 46.0739 64.0096ZM42.5964 65.0129C42.5091 65.0316 42.4281 65.0503 42.3409 65.069C42.2723 65.0815 42.2038 65.1002 42.1352 65.1126C42.2038 65.1002 42.2723 65.0815 42.3409 65.069C42.4281 65.0503 42.5091 65.0316 42.5964 65.0129ZM38.2651 65.7296C37.7104 65.7857 37.162 65.8293 36.6074 65.8543C36.2833 65.8729 35.9655 65.8854 35.6414 65.8917C35.9655 65.8854 36.2833 65.8729 36.6074 65.8543C37.162 65.8231 37.7166 65.7795 38.2651 65.7296ZM43.3505 64.826L43.4502 64.801L43.3505 64.826ZM45.1328 67.6117C45.0269 67.6429 44.9209 67.674 44.8212 67.7052C44.9272 67.674 45.0269 67.6429 45.1328 67.6117ZM39.0628 68.8145C38.9382 68.827 38.8135 68.8394 38.6826 68.8581C38.8073 68.8457 38.9319 68.8332 39.0628 68.8145ZM37.5048 68.9578C37.4674 68.9578 37.43 68.9641 37.3926 68.9641C37.43 68.9641 37.4674 68.9641 37.5048 68.9578ZM34.8001 69.0513C34.2392 69.0513 33.672 69.0389 33.1112 69.0139C33.6783 69.0389 34.2392 69.0513 34.8001 69.0513ZM4.06965 73.3265L4.13197 73.3764C4.11328 73.3577 4.09458 73.3452 4.06965 73.3265Z" fill="#FEFEFE"/>
<path d="M35.174 109.224L35.0244 109.666L35.3049 109.224C35.2612 109.224 35.2176 109.224 35.174 109.224Z" fill="#CAC9A6"/>
<path d="M36.1525 107.884C35.9718 107.884 35.7973 107.89 35.6165 107.89L35.1678 109.223C35.2115 109.223 35.2551 109.223 35.2987 109.223L36.1525 107.884Z" fill="#D9C5A0"/>
<path d="M37.0062 106.531C36.975 106.531 36.9501 106.531 36.919 106.531C36.6323 106.537 36.3456 106.544 36.0589 106.55L35.6102 107.884C35.791 107.884 35.9654 107.877 36.1462 107.877L37.0062 106.531Z" fill="#E7C297"/>
<path d="M37.0062 106.531L37.8663 105.166C37.536 105.179 37.2119 105.191 36.8816 105.197C36.757 105.204 36.6323 105.204 36.5077 105.204L36.059 106.544C36.3456 106.537 36.6323 106.531 36.919 106.525C36.9502 106.537 36.9813 106.531 37.0062 106.531Z" fill="#F3BC8F"/>
<path d="M37.8725 105.173L38.7761 103.745C38.1779 103.777 37.5796 103.801 36.9813 103.82L36.5139 105.216C36.6386 105.216 36.7632 105.21 36.8878 105.21C37.2119 105.197 37.5422 105.185 37.8725 105.173Z" fill="#F3BC8F"/>
<path d="M39.686 102.3C38.9382 102.349 38.1966 102.387 37.4487 102.418L36.9813 103.82C37.5796 103.801 38.1779 103.777 38.7762 103.745L39.686 102.3Z" fill="#E5B29B"/>
<path d="M40.6084 100.841C39.711 100.916 38.8136 100.972 37.9161 101.01L37.4487 102.412C38.1966 102.387 38.9382 102.343 39.686 102.293L40.6084 100.841Z" fill="#D5A7A4"/>
<path d="M41.537 99.3643C40.49 99.4702 39.4368 99.545 38.3835 99.6011L37.9161 101.01C38.8136 100.972 39.711 100.916 40.6084 100.841L41.537 99.3643Z" fill="#C69DAA"/>
<path d="M42.4842 97.8748C41.2752 98.0119 40.0662 98.1178 38.8572 98.1926L38.3835 99.6073C39.4368 99.5512 40.4837 99.4764 41.537 99.3705L42.4842 97.8748Z" fill="#B592AF"/>
<path d="M43.4378 96.3604C43.2633 96.3853 43.095 96.404 42.9205 96.4289C41.7239 96.5785 40.5274 96.6907 39.3308 96.7717L38.8572 98.1926C40.0662 98.1178 41.2752 98.0181 42.4843 97.8748L43.4378 96.3604Z" fill="#A487B4"/>
<path d="M43.4377 96.3605L44.41 94.8274C43.8553 94.9084 43.3069 94.9894 42.7522 95.058C41.7738 95.1764 40.7891 95.2761 39.8045 95.3509L39.3308 96.7718C40.5274 96.6908 41.7302 96.5786 42.9205 96.429C43.095 96.4041 43.2632 96.3854 43.4377 96.3605Z" fill="#967DB7"/>
<path d="M44.4099 94.8275L45.6501 92.8706C44.6156 93.0513 43.5811 93.2071 42.5403 93.338C41.8299 93.4253 41.1194 93.5001 40.409 93.5624L39.8107 95.351C40.7953 95.2762 41.7738 95.1765 42.7584 95.0581C43.3006 94.9833 43.8553 94.9085 44.4099 94.8275Z" fill="#967DB7"/>
<path d="M45.6439 92.8704L46.909 90.8699C45.3884 91.1815 43.8553 91.4308 42.316 91.6177C41.8797 91.6738 41.4372 91.7237 40.9948 91.7673L40.3965 93.5684C41.1069 93.506 41.8174 93.4313 42.5279 93.344C43.5749 93.2069 44.6094 93.0511 45.6439 92.8704Z" fill="#958BBB"/>
<path d="M46.9152 90.8637L48.2177 88.8071C46.1985 89.2808 44.1606 89.6422 42.1103 89.8915C41.942 89.9102 41.7738 89.9289 41.6117 89.9476L41.0072 91.7549C41.4497 91.7113 41.8859 91.6614 42.3284 91.6053C43.8553 91.4246 45.3884 91.1753 46.9152 90.8637Z" fill="#9397BF"/>
<path d="M48.2116 88.8071L49.5515 86.6882C47.1334 87.3301 44.678 87.8162 42.2101 88.1341L41.6056 89.9538C41.7739 89.9351 41.9421 89.9165 42.1042 89.8978C44.1545 89.6422 46.1924 89.2808 48.2116 88.8071Z" fill="#92A3C1"/>
<path d="M50.9411 84.4883C48.2738 85.2985 45.5566 85.903 42.8207 86.3018L42.21 88.134C44.6779 87.8162 47.1271 87.3301 49.5513 86.6882L50.9411 84.4883Z" fill="#91AFC3"/>
<path d="M52.3933 82.1951C52.1191 82.2885 51.8449 82.382 51.5706 82.4755C48.9033 83.3542 46.1861 84.0086 43.4378 84.4573L42.8208 86.302C45.5567 85.9032 48.2739 85.2986 50.9412 84.4885L52.3933 82.1951Z" fill="#90B9C1"/>
<path d="M51.5706 82.4752C51.8448 82.388 52.119 82.2945 52.3933 82.1948L53.9201 79.783C52.9666 80.1631 52.0006 80.5121 51.0284 80.83C48.7413 81.584 46.4104 82.1699 44.061 82.5936L43.4377 84.457C46.1861 84.0083 48.9033 83.3477 51.5706 82.4752Z" fill="#8FC3C1"/>
<path d="M51.0284 80.824C52.0006 80.5061 52.9603 80.1571 53.9201 79.777L55.5467 77.2031C55.3846 77.2779 55.2288 77.3465 55.0668 77.415C53.5648 78.0818 52.0318 78.6677 50.4862 79.1725C48.5792 79.8019 46.641 80.3067 44.6904 80.6993L44.0609 82.5814C46.4104 82.1639 48.7412 81.578 51.0284 80.824Z" fill="#8ECCBD"/>
<path d="M50.4863 79.1787C52.0318 78.6739 53.5587 78.0818 55.0668 77.4212C55.2289 77.3527 55.3847 77.2779 55.5467 77.2093L57.0299 74.8661L56.6685 73.146C56.413 73.2831 56.1512 73.414 55.8957 73.5449C55.204 73.8938 54.506 74.2241 53.8017 74.5358C52.3933 75.159 50.9599 75.7074 49.5078 76.181C48.305 76.5736 47.0836 76.9164 45.8621 77.2155L44.6967 80.7055C46.6411 80.3129 48.5792 79.8081 50.4863 79.1787Z" fill="#8ECCBD"/>
<path d="M49.5016 76.1811C50.9537 75.7074 52.3808 75.159 53.7955 74.5358C54.4997 74.2242 55.1977 73.8939 55.8895 73.5449C56.1512 73.414 56.4067 73.2769 56.6623 73.1461L55.983 69.9241C54.2131 70.9025 52.3871 71.7501 50.5299 72.4668C49.8631 72.7223 49.19 72.9591 48.5169 73.1835C48.0308 73.3455 47.5447 73.4888 47.0524 73.6322L45.8558 77.2156C47.0773 76.9165 48.2988 76.5799 49.5016 76.1811Z" fill="#A5CBB5"/>
<path d="M48.5168 73.1834C49.1899 72.9591 49.8629 72.7222 50.5298 72.4667C52.3869 71.75 54.2129 70.9025 55.9828 69.924L55.2973 66.6833C55.1415 66.7706 54.9919 66.8641 54.8361 66.9513C52.7796 68.1167 50.6482 69.0889 48.4669 69.8617C48.4046 69.8804 48.3485 69.9053 48.2862 69.924L47.0522 73.6321C47.5383 73.4888 48.0307 73.3454 48.5168 73.1834Z" fill="#BACBAF"/>
<path d="M54.8363 66.9512C54.9921 66.864 55.1479 66.7705 55.2975 66.6832L54.6119 63.4114C54.1757 63.6856 53.7332 63.9536 53.2845 64.2028C53.0103 64.3587 52.7423 64.5082 52.4681 64.6516C52.1939 64.7949 51.9197 64.9382 51.6455 65.0816C50.9662 65.4243 50.2806 65.7359 49.5889 66.0351L48.2926 69.9239C48.3549 69.9052 48.411 69.8865 48.4733 69.8616C50.6483 69.0888 52.7797 68.1166 54.8363 66.9512Z" fill="#CAC9A6"/>
<path d="M51.6392 65.0816C51.9134 64.9445 52.1939 64.8012 52.4619 64.6516C52.7361 64.5083 53.0103 64.3524 53.2783 64.2029C53.727 63.9474 54.1695 63.6856 54.6057 63.4114L53.9077 60.1084C53.4341 60.4262 52.948 60.7316 52.4619 61.0245C52.2188 61.1741 51.9695 61.3174 51.7203 61.4545C51.471 61.5979 51.2154 61.735 50.9599 61.8721L49.5702 66.0351C50.2744 65.736 50.9662 65.4181 51.6392 65.0816Z" fill="#D9C5A0"/>
<path d="M52.4742 61.0245C52.9603 60.7316 53.4464 60.4262 53.9201 60.1084L53.2096 56.7493C53.0787 56.8427 52.9541 56.9362 52.8232 57.0297C52.7235 57.0983 52.6238 57.1668 52.5241 57.2354L50.9785 61.872C51.234 61.7349 51.4833 61.5978 51.7388 61.4545C51.9819 61.3174 52.2249 61.1678 52.4742 61.0245Z" fill="#E7C297"/>
<path d="M53.2096 56.7431L53.0039 55.7771L52.5178 57.2354C52.6175 57.1669 52.7172 57.0983 52.817 57.0297C52.9541 56.9363 53.0787 56.8428 53.2096 56.7431Z" fill="#F3BC8F"/>
<path d="M82.5691 106.381L82.0082 104.755L81.2541 102.586L80.5001 100.417C80.1448 100.536 79.7896 100.654 79.4344 100.766L80.5749 102.81L80.5935 102.804L80.5749 102.81L81.7153 104.848C81.7589 104.836 81.8026 104.817 81.84 104.805L81.7153 104.848L82.5691 106.381ZM56.8493 57.9956L54.4873 56.02L54.45 56.0387L55.553 58.0143L57.1422 60.8623C58.0957 60.8187 59.0368 60.7377 59.9778 60.6193L56.8493 57.9956ZM62.8944 63.0623L59.984 60.6255C59.043 60.7439 58.0957 60.825 57.1484 60.8686L58.7065 63.6543C58.9495 63.6356 59.1926 63.6107 59.4356 63.5858C59.1926 63.6107 58.9495 63.6356 58.7065 63.6543L60.9188 67.6179C61.7726 67.5057 62.6202 67.3686 63.4615 67.2066C62.6202 67.3686 61.7726 67.5057 60.9188 67.6179L63.1001 71.5192C64.1471 71.3447 65.1878 71.1328 66.2161 70.8898C65.1878 71.1391 64.1471 71.3447 63.1001 71.5192L65.2564 75.3769L67.3878 79.1971L69.5067 82.9925L71.6131 86.7629L71.7315 86.7317L71.6131 86.7629L73.7133 90.5208L73.7632 90.5084L73.7133 90.5208L74.86 92.5774L76.0067 94.634L77.1534 96.6844L77.2719 96.647L77.1534 96.6844L78.3001 98.7347C78.3812 98.7098 78.4684 98.6849 78.5494 98.6537C78.4684 98.6786 78.3812 98.7098 78.3001 98.7347L79.4406 100.779C79.7958 100.667 80.1511 100.548 80.5063 100.43L79.7522 98.2611C79.4967 98.3483 79.2412 98.4356 78.9794 98.5166C79.235 98.4356 79.4967 98.3483 79.7522 98.2611L78.9981 96.0923C78.942 96.111 78.886 96.1297 78.8236 96.1484C78.8797 96.1297 78.9358 96.111 78.9981 96.0923L78.244 93.9235C78.082 93.9796 77.92 94.0295 77.7579 94.0856C77.92 94.0295 78.082 93.9796 78.244 93.9235L77.49 91.7548C76.711 92.0165 75.9319 92.2596 75.1467 92.4964C75.9319 92.2658 76.711 92.0165 77.49 91.7548L76.7359 89.586L75.3648 85.6411L73.9938 81.6962L72.6227 77.7513L71.2517 73.8064L69.8806 69.8552L69.4319 68.5527L66.8705 66.4089L62.8944 63.0623Z" fill="#FEFEFE"/>
<path d="M54.4187 55.9641L54.4125 55.9703L54.4497 56.0385L54.4868 56.0199L54.4187 55.9641Z" fill="#D5A7A4"/>
<path d="M109.71 68.6213C109.685 68.6961 109.666 68.7709 109.641 68.8519L110.744 68.8769L109.71 68.6213Z" fill="#967DB7"/>
<path d="M107.46 68.0732C107.385 68.3163 107.31 68.5593 107.229 68.7962L109.635 68.8523C109.66 68.7775 109.678 68.7027 109.703 68.6217L107.46 68.0732Z" fill="#958BBB"/>
<path d="M105.21 67.5186C105.085 67.9299 104.955 68.335 104.818 68.74L107.229 68.7961C107.304 68.5531 107.385 68.3163 107.46 68.0732L105.21 67.5186Z" fill="#9397BF"/>
<path d="M102.96 66.97C102.78 67.5433 102.593 68.1167 102.4 68.69L104.818 68.7461C104.948 68.341 105.086 67.9297 105.21 67.5246L102.96 66.97Z" fill="#92A3C1"/>
<path d="M100.704 66.4153C100.468 67.1569 100.225 67.8985 99.9628 68.6339L102.393 68.69C102.586 68.1166 102.773 67.5433 102.954 66.9699L100.704 66.4153Z" fill="#91AFC3"/>
<path d="M98.4546 65.8669C98.1617 66.7768 97.8563 67.6805 97.5322 68.5779L99.969 68.634C100.224 67.8986 100.474 67.1632 100.711 66.4154L98.4546 65.8669Z" fill="#90B9C1"/>
<path d="M96.2048 65.3123C95.8558 66.3904 95.4881 67.4623 95.0892 68.5218L97.5322 68.5779C97.8563 67.6804 98.1679 66.7768 98.4546 65.8669L96.2048 65.3123Z" fill="#8FC3C1"/>
<path d="M93.955 64.7576C93.5499 66.004 93.1137 67.2379 92.6338 68.4657L95.0892 68.5217C95.4881 67.4623 95.862 66.3904 96.2048 65.3122L93.955 64.7576Z" fill="#8ECCBD"/>
<path d="M89.848 63.7544C89.337 65.3124 88.7636 66.8517 88.1279 68.3661L92.6275 68.4658C93.1011 67.2444 93.5436 66.0104 93.9487 64.7578L89.848 63.7544Z" fill="#8ECCBD"/>
<path d="M89.8481 63.7543L85.7412 62.751C85.1117 64.6206 84.395 66.4653 83.5786 68.2664L88.128 68.3661C88.7637 66.8517 89.3371 65.3124 89.8481 63.7543Z" fill="#A5CBB5"/>
<path d="M85.7473 62.7509L81.6403 61.7476C80.8925 63.935 80.0013 66.0789 78.973 68.1604L83.5785 68.2663C84.3949 66.459 85.1179 64.6206 85.7473 62.7509Z" fill="#BACBAF"/>
<path d="M81.6405 61.7413L77.5335 60.7317C76.6486 63.2495 75.5642 65.6924 74.2866 68.0482L78.9794 68.1541C80.0015 66.0726 80.8926 63.935 81.6405 61.7413Z" fill="#CAC9A6"/>
<path d="M77.5335 60.7379L73.4203 59.7283C72.417 62.5015 71.1519 65.1813 69.625 67.7303L69.893 67.9546L74.2866 68.0543C75.5642 65.6986 76.6486 63.2494 77.5335 60.7379Z" fill="#D9C5A0"/>
<path d="M73.4203 59.7283L69.3072 58.7188C68.5032 60.8813 67.5123 62.9753 66.3531 64.982L69.625 67.7241C71.1456 65.1814 72.417 62.5016 73.4203 59.7283Z" fill="#E7C297"/>
<path d="M69.3008 58.7188L65.1814 57.7092C64.5769 59.261 63.8727 60.7754 63.0687 62.2337L66.353 64.9821C67.506 62.9753 68.4969 60.8814 69.3008 58.7188Z" fill="#F3BC8F"/>
<path d="M65.1815 57.7092L62.3334 57.0112C61.8785 58.1455 61.3674 59.2548 60.7941 60.3329L63.0688 62.2337C63.8727 60.7692 64.577 59.261 65.1815 57.7092Z" fill="#F3BC8F"/>
<path d="M62.3334 57.0112L59.4854 56.3132C59.1862 57.0299 58.8622 57.7341 58.5132 58.4259L60.7941 60.3392C61.3675 59.2548 61.8785 58.1455 62.3334 57.0112Z" fill="#E5B29B"/>
<path d="M59.4853 56.313L56.631 55.615C56.5002 55.9141 56.3631 56.2133 56.226 56.5062L58.5193 58.4257C58.8621 57.7277 59.1862 57.0297 59.4853 56.313Z" fill="#D5A7A4"/>
<path d="M56.6248 55.615L54.5496 55.104L56.2197 56.5062C56.3631 56.2071 56.5002 55.9142 56.6248 55.615Z" fill="#C69DAA"/>
</svg>
