<svg width="440" height="186" viewBox="0 0 440 186" fill="none" xmlns="http://www.w3.org/2000/svg">
    <g filter="url(#filter0_d_128:36735)">
        <path d="M60 38C60 33.5817 63.5817 30 68 30H372C376.418 30 380 33.5817 380 38V88C380 92.4183 376.418 96 372 96H68C63.5817 96 60 92.4183 60 88V38Z"
              fill="#A14228"/>
    </g>
    <path d="M60 39C60 34.5817 63.5817 31 68 31H372C376.418 31 380 34.5817 380 39V88C380 92.4183 376.418 96 372 96H68C63.5817 96 60 92.4183 60 88V39Z"
          fill="#A14228"/>
    <path d="M60 38C60 33.5817 63.5817 30 68 30H372C376.418 30 380 33.5817 380 38V82C380 86.4183 376.418 90 372 90H68C63.5817 90 60 86.4183 60 82V38Z"
          fill="url(#paint0_linear_128:36735)"/>
    <path d="M102.41 64.1H100.21V68H97.7896V64.1H91.7296V62.62L98.0696 53.9H100.21V62.02H102.41V64.1ZM97.7896 58.96L97.9696 57.28H97.8896L97.2096 58.72L95.1296 61.42L94.1296 62.18L95.4096 62.02H97.7896V58.96ZM108.896 68V58H111.496V65.7H113.996V58H116.596V65.7H119.096V58H121.696V68H108.896ZM123.914 58.58C124.447 58.34 125.081 58.1533 125.814 58.02C126.547 57.8733 127.314 57.8 128.114 57.8C128.807 57.8 129.387 57.8867 129.854 58.06C130.321 58.22 130.687 58.4533 130.954 58.76C131.234 59.0667 131.427 59.4333 131.534 59.86C131.654 60.2867 131.714 60.7667 131.714 61.3C131.714 61.8867 131.694 62.48 131.654 63.08C131.614 63.6667 131.587 64.2467 131.574 64.82C131.574 65.3933 131.594 65.9533 131.634 66.5C131.674 67.0333 131.774 67.54 131.934 68.02H129.814L129.394 66.64H129.294C129.027 67.0533 128.654 67.4133 128.174 67.72C127.707 68.0133 127.101 68.16 126.354 68.16C125.887 68.16 125.467 68.0933 125.094 67.96C124.721 67.8133 124.401 67.6133 124.134 67.36C123.867 67.0933 123.661 66.7867 123.514 66.44C123.367 66.08 123.294 65.68 123.294 65.24C123.294 64.6267 123.427 64.1133 123.694 63.7C123.974 63.2733 124.367 62.9333 124.874 62.68C125.394 62.4133 126.007 62.2333 126.714 62.14C127.434 62.0333 128.234 62 129.114 62.04C129.207 61.2933 129.154 60.76 128.954 60.44C128.754 60.1067 128.307 59.94 127.614 59.94C127.094 59.94 126.541 59.9933 125.954 60.1C125.381 60.2067 124.907 60.3467 124.534 60.52L123.914 58.58ZM127.214 66.02C127.734 66.02 128.147 65.9067 128.454 65.68C128.761 65.44 128.987 65.1867 129.134 64.92V63.62C128.721 63.58 128.321 63.5733 127.934 63.6C127.561 63.6267 127.227 63.6867 126.934 63.78C126.641 63.8733 126.407 64.0067 126.234 64.18C126.061 64.3533 125.974 64.5733 125.974 64.84C125.974 65.2133 126.081 65.5067 126.294 65.72C126.521 65.92 126.827 66.02 127.214 66.02ZM140.356 60.3H136.576V68H133.896V58H140.356V60.3ZM141.355 58.58C141.889 58.34 142.522 58.1533 143.255 58.02C143.989 57.8733 144.755 57.8 145.555 57.8C146.249 57.8 146.829 57.8867 147.295 58.06C147.762 58.22 148.129 58.4533 148.395 58.76C148.675 59.0667 148.869 59.4333 148.975 59.86C149.095 60.2867 149.155 60.7667 149.155 61.3C149.155 61.8867 149.135 62.48 149.095 63.08C149.055 63.6667 149.029 64.2467 149.015 64.82C149.015 65.3933 149.035 65.9533 149.075 66.5C149.115 67.0333 149.215 67.54 149.375 68.02H147.255L146.835 66.64H146.735C146.469 67.0533 146.095 67.4133 145.615 67.72C145.149 68.0133 144.542 68.16 143.795 68.16C143.329 68.16 142.909 68.0933 142.535 67.96C142.162 67.8133 141.842 67.6133 141.575 67.36C141.309 67.0933 141.102 66.7867 140.955 66.44C140.809 66.08 140.735 65.68 140.735 65.24C140.735 64.6267 140.869 64.1133 141.135 63.7C141.415 63.2733 141.809 62.9333 142.315 62.68C142.835 62.4133 143.449 62.2333 144.155 62.14C144.875 62.0333 145.675 62 146.555 62.04C146.649 61.2933 146.595 60.76 146.395 60.44C146.195 60.1067 145.749 59.94 145.055 59.94C144.535 59.94 143.982 59.9933 143.395 60.1C142.822 60.2067 142.349 60.3467 141.975 60.52L141.355 58.58ZM144.655 66.02C145.175 66.02 145.589 65.9067 145.895 65.68C146.202 65.44 146.429 65.1867 146.575 64.92V63.62C146.162 63.58 145.762 63.5733 145.375 63.6C145.002 63.6267 144.669 63.6867 144.375 63.78C144.082 63.8733 143.849 64.0067 143.675 64.18C143.502 64.3533 143.415 64.5733 143.415 64.84C143.415 65.2133 143.522 65.5067 143.735 65.72C143.962 65.92 144.269 66.02 144.655 66.02ZM166.336 70.28H164.436L164.136 68H157.416L157.116 70.28H155.216V65.7H156.396C156.503 65.5533 156.636 65.3067 156.796 64.96C156.969 64.6 157.136 64.1133 157.296 63.5C157.469 62.8867 157.616 62.1267 157.736 61.22C157.856 60.3133 157.916 59.24 157.916 58H164.876V65.7H166.336V70.28ZM162.276 65.82V60.2H160.176C160.149 60.68 160.103 61.1933 160.036 61.74C159.969 62.2733 159.883 62.7933 159.776 63.3C159.683 63.8067 159.569 64.28 159.436 64.72C159.303 65.16 159.156 65.5267 158.996 65.82H162.276ZM173.809 60.3H171.829C171.749 61.2467 171.655 62.1867 171.549 63.12C171.442 64.0533 171.269 64.8933 171.029 65.64C170.802 66.3733 170.489 66.9733 170.089 67.44C169.689 67.8933 169.169 68.12 168.529 68.12C167.755 68.12 167.209 68.02 166.889 67.82L167.209 65.66C167.422 65.74 167.622 65.78 167.809 65.78C168.075 65.78 168.309 65.6667 168.509 65.44C168.709 65.2133 168.875 64.8067 169.009 64.22C169.155 63.6333 169.269 62.84 169.349 61.84C169.442 60.8267 169.509 59.5467 169.549 58H176.409V68H173.809V60.3ZM183.941 64.22L182.741 64.46L180.821 68H177.721L179.661 64.86L180.641 64.12C179.988 64.0133 179.448 63.7067 179.021 63.2C178.595 62.68 178.381 62.0333 178.381 61.26C178.381 60.0467 178.781 59.1533 179.581 58.58C180.395 58.0067 181.635 57.72 183.301 57.72C183.941 57.72 184.535 57.7533 185.081 57.82C185.641 57.8867 186.128 57.96 186.541 58.04V68H183.941V64.22ZM183.941 62.86V60.1C183.795 60.0333 183.635 59.9867 183.461 59.96C183.288 59.9333 183.121 59.92 182.961 59.92C182.361 59.92 181.895 60.0467 181.561 60.3C181.228 60.5533 181.061 60.9333 181.061 61.44C181.061 61.9467 181.241 62.32 181.601 62.56C181.975 62.8 182.515 62.9133 183.221 62.9L183.941 62.86ZM199.059 64.22L197.859 64.46L195.939 68H192.839L194.779 64.86L195.759 64.12C195.105 64.0133 194.565 63.7067 194.139 63.2C193.712 62.68 193.499 62.0333 193.499 61.26C193.499 60.0467 193.899 59.1533 194.699 58.58C195.512 58.0067 196.752 57.72 198.419 57.72C199.059 57.72 199.652 57.7533 200.199 57.82C200.759 57.8867 201.245 57.96 201.659 58.04V68H199.059V64.22ZM199.059 62.86V60.1C198.912 60.0333 198.752 59.9867 198.579 59.96C198.405 59.9333 198.239 59.92 198.079 59.92C197.479 59.92 197.012 60.0467 196.679 60.3C196.345 60.5533 196.179 60.9333 196.179 61.44C196.179 61.9467 196.359 62.32 196.719 62.56C197.092 62.8 197.632 62.9133 198.339 62.9L199.059 62.86ZM203.837 58H205.737L206.037 59.2H206.117C206.464 58.6933 206.871 58.32 207.337 58.08C207.817 57.84 208.397 57.72 209.077 57.72C210.331 57.72 211.271 58.12 211.897 58.92C212.524 59.7067 212.837 60.98 212.837 62.74C212.837 63.5933 212.737 64.3667 212.537 65.06C212.337 65.74 212.037 66.32 211.637 66.8C211.251 67.28 210.771 67.6467 210.197 67.9C209.637 68.1533 208.991 68.28 208.257 68.28C207.844 68.28 207.504 68.2467 207.237 68.18C206.971 68.1267 206.704 68.0333 206.437 67.9V72H203.837V58ZM208.297 59.92C207.791 59.92 207.391 60.0467 207.097 60.3C206.817 60.5533 206.597 60.9333 206.437 61.44V65.6C206.624 65.7467 206.824 65.8667 207.037 65.96C207.264 66.04 207.557 66.08 207.917 66.08C208.664 66.08 209.224 65.82 209.597 65.3C209.971 64.7667 210.157 63.8933 210.157 62.68C210.157 61.8 210.011 61.12 209.717 60.64C209.424 60.16 208.951 59.92 208.297 59.92ZM217.938 63.86H217.238V68H214.638V58H217.238V62.26L217.858 61.98L220.198 58H222.978L220.558 61.8L219.538 62.56L220.658 63.34L223.358 68H220.378L217.938 63.86ZM223.689 63C223.689 61.3067 224.103 60.0067 224.929 59.1C225.756 58.18 226.916 57.72 228.409 57.72C229.209 57.72 229.903 57.8467 230.489 58.1C231.076 58.3533 231.563 58.7133 231.949 59.18C232.336 59.6333 232.623 60.1867 232.809 60.84C233.009 61.4933 233.109 62.2133 233.109 63C233.109 64.6933 232.696 66 231.869 66.92C231.056 67.8267 229.903 68.28 228.409 68.28C227.609 68.28 226.916 68.1533 226.329 67.9C225.743 67.6467 225.249 67.2933 224.849 66.84C224.463 66.3733 224.169 65.8133 223.969 65.16C223.783 64.5067 223.689 63.7867 223.689 63ZM226.369 63C226.369 63.44 226.409 63.8467 226.489 64.22C226.569 64.5933 226.689 64.92 226.849 65.2C227.009 65.48 227.216 65.7 227.469 65.86C227.736 66.0067 228.049 66.08 228.409 66.08C229.089 66.08 229.596 65.8333 229.929 65.34C230.263 64.8467 230.429 64.0667 230.429 63C230.429 62.08 230.276 61.34 229.969 60.78C229.663 60.2067 229.143 59.92 228.409 59.92C227.769 59.92 227.269 60.16 226.909 60.64C226.549 61.12 226.369 61.9067 226.369 63ZM241.371 60.3H237.591V68H234.911V58H241.371V60.3ZM241.795 63C241.795 61.3067 242.208 60.0067 243.035 59.1C243.861 58.18 245.021 57.72 246.515 57.72C247.315 57.72 248.008 57.8467 248.595 58.1C249.181 58.3533 249.668 58.7133 250.055 59.18C250.441 59.6333 250.728 60.1867 250.915 60.84C251.115 61.4933 251.215 62.2133 251.215 63C251.215 64.6933 250.801 66 249.975 66.92C249.161 67.8267 248.008 68.28 246.515 68.28C245.715 68.28 245.021 68.1533 244.435 67.9C243.848 67.6467 243.355 67.2933 242.955 66.84C242.568 66.3733 242.275 65.8133 242.075 65.16C241.888 64.5067 241.795 63.7867 241.795 63ZM244.475 63C244.475 63.44 244.515 63.8467 244.595 64.22C244.675 64.5933 244.795 64.92 244.955 65.2C245.115 65.48 245.321 65.7 245.575 65.86C245.841 66.0067 246.155 66.08 246.515 66.08C247.195 66.08 247.701 65.8333 248.035 65.34C248.368 64.8467 248.535 64.0667 248.535 63C248.535 62.08 248.381 61.34 248.075 60.78C247.768 60.2067 247.248 59.92 246.515 59.92C245.875 59.92 245.375 60.16 245.015 60.64C244.655 61.12 244.475 61.9067 244.475 63ZM263.836 60.3H260.676V68H258.076V58H266.436V68H263.836V60.3ZM268.72 58H270.62L270.92 59.2H271C271.347 58.6933 271.753 58.32 272.22 58.08C272.7 57.84 273.28 57.72 273.96 57.72C275.213 57.72 276.153 58.12 276.78 58.92C277.407 59.7067 277.72 60.98 277.72 62.74C277.72 63.5933 277.62 64.3667 277.42 65.06C277.22 65.74 276.92 66.32 276.52 66.8C276.133 67.28 275.653 67.6467 275.08 67.9C274.52 68.1533 273.873 68.28 273.14 68.28C272.727 68.28 272.387 68.2467 272.12 68.18C271.853 68.1267 271.587 68.0333 271.32 67.9V72H268.72V58ZM273.18 59.92C272.673 59.92 272.273 60.0467 271.98 60.3C271.7 60.5533 271.48 60.9333 271.32 61.44V65.6C271.507 65.7467 271.707 65.8667 271.92 65.96C272.147 66.04 272.44 66.08 272.8 66.08C273.547 66.08 274.107 65.82 274.48 65.3C274.853 64.7667 275.04 63.8933 275.04 62.68C275.04 61.8 274.893 61.12 274.6 60.64C274.307 60.16 273.833 59.92 273.18 59.92ZM279.461 58.58C279.994 58.34 280.628 58.1533 281.361 58.02C282.094 57.8733 282.861 57.8 283.661 57.8C284.354 57.8 284.934 57.8867 285.401 58.06C285.868 58.22 286.234 58.4533 286.501 58.76C286.781 59.0667 286.974 59.4333 287.081 59.86C287.201 60.2867 287.261 60.7667 287.261 61.3C287.261 61.8867 287.241 62.48 287.201 63.08C287.161 63.6667 287.134 64.2467 287.121 64.82C287.121 65.3933 287.141 65.9533 287.181 66.5C287.221 67.0333 287.321 67.54 287.481 68.02H285.361L284.941 66.64H284.841C284.574 67.0533 284.201 67.4133 283.721 67.72C283.254 68.0133 282.648 68.16 281.901 68.16C281.434 68.16 281.014 68.0933 280.641 67.96C280.268 67.8133 279.948 67.6133 279.681 67.36C279.414 67.0933 279.208 66.7867 279.061 66.44C278.914 66.08 278.841 65.68 278.841 65.24C278.841 64.6267 278.974 64.1133 279.241 63.7C279.521 63.2733 279.914 62.9333 280.421 62.68C280.941 62.4133 281.554 62.2333 282.261 62.14C282.981 62.0333 283.781 62 284.661 62.04C284.754 61.2933 284.701 60.76 284.501 60.44C284.301 60.1067 283.854 59.94 283.161 59.94C282.641 59.94 282.088 59.9933 281.501 60.1C280.928 60.2067 280.454 60.3467 280.081 60.52L279.461 58.58ZM282.761 66.02C283.281 66.02 283.694 65.9067 284.001 65.68C284.308 65.44 284.534 65.1867 284.681 64.92V63.62C284.268 63.58 283.868 63.5733 283.481 63.6C283.108 63.6267 282.774 63.6867 282.481 63.78C282.188 63.8733 281.954 64.0067 281.781 64.18C281.608 64.3533 281.521 64.5733 281.521 64.84C281.521 65.2133 281.628 65.5067 281.841 65.72C282.068 65.92 282.374 66.02 282.761 66.02ZM290.483 63.86V62.04H291.703C292.169 62.04 292.549 61.9467 292.843 61.76C293.149 61.5733 293.303 61.3267 293.303 61.02C293.303 60.66 293.169 60.4067 292.903 60.26C292.636 60.1 292.229 60.02 291.683 60.02C291.163 60.02 290.703 60.0867 290.303 60.22C289.903 60.3533 289.583 60.4933 289.343 60.64L288.783 58.66C289.183 58.4333 289.709 58.24 290.363 58.08C291.029 57.9067 291.736 57.82 292.483 57.82C293.629 57.82 294.483 58.0333 295.043 58.46C295.616 58.8867 295.903 59.5067 295.903 60.32C295.903 60.5467 295.869 60.78 295.803 61.02C295.749 61.2467 295.656 61.4667 295.523 61.68C295.389 61.8933 295.223 62.0867 295.023 62.26C294.836 62.42 294.609 62.5467 294.343 62.64V62.72C295.049 62.88 295.549 63.1667 295.843 63.58C296.136 63.98 296.283 64.52 296.283 65.2C296.283 65.6267 296.196 66.0267 296.023 66.4C295.849 66.76 295.583 67.0733 295.223 67.34C294.876 67.6067 294.436 67.82 293.903 67.98C293.369 68.14 292.736 68.22 292.003 68.22C291.269 68.22 290.629 68.1467 290.083 68C289.549 67.84 289.103 67.66 288.743 67.46L289.303 65.44C289.609 65.6133 289.976 65.7533 290.403 65.86C290.843 65.9667 291.329 66.02 291.863 66.02C293.076 66.02 293.683 65.6333 293.683 64.86C293.683 64.5133 293.523 64.26 293.203 64.1C292.896 63.94 292.316 63.86 291.463 63.86H290.483ZM308.016 70.28H306.116L305.816 68H299.096L298.796 70.28H296.896V65.7H298.076C298.182 65.5533 298.316 65.3067 298.476 64.96C298.649 64.6 298.816 64.1133 298.976 63.5C299.149 62.8867 299.296 62.1267 299.416 61.22C299.536 60.3133 299.596 59.24 299.596 58H306.556V65.7H308.016V70.28ZM303.956 65.82V60.2H301.856C301.829 60.68 301.782 61.1933 301.716 61.74C301.649 62.2733 301.562 62.7933 301.456 63.3C301.362 63.8067 301.249 64.28 301.116 64.72C300.982 65.16 300.836 65.5267 300.676 65.82H303.956ZM315.303 64.06H312.043V68H309.443V58H312.043V61.76H315.303V58H317.903V68H315.303V64.06ZM326.205 63.44L326.305 62.02H326.245L325.385 63.48L321.825 68H320.185V58H322.785V62.76L322.665 64.12H322.745L323.565 62.7L327.165 58H328.805V68H326.205V63.44ZM334.383 63.86H333.683V68H331.083V58H333.683V62.26L334.303 61.98L336.643 58H339.423L337.003 61.8L335.983 62.56L337.103 63.34L339.803 68H336.823L334.383 63.86ZM340.809 58.58C341.342 58.34 341.975 58.1533 342.709 58.02C343.442 57.8733 344.209 57.8 345.009 57.8C345.702 57.8 346.282 57.8867 346.749 58.06C347.215 58.22 347.582 58.4533 347.849 58.76C348.129 59.0667 348.322 59.4333 348.429 59.86C348.549 60.2867 348.609 60.7667 348.609 61.3C348.609 61.8867 348.589 62.48 348.549 63.08C348.509 63.6667 348.482 64.2467 348.469 64.82C348.469 65.3933 348.489 65.9533 348.529 66.5C348.569 67.0333 348.669 67.54 348.829 68.02H346.709L346.289 66.64H346.189C345.922 67.0533 345.549 67.4133 345.069 67.72C344.602 68.0133 343.995 68.16 343.249 68.16C342.782 68.16 342.362 68.0933 341.989 67.96C341.615 67.8133 341.295 67.6133 341.029 67.36C340.762 67.0933 340.555 66.7867 340.409 66.44C340.262 66.08 340.189 65.68 340.189 65.24C340.189 64.6267 340.322 64.1133 340.589 63.7C340.869 63.2733 341.262 62.9333 341.769 62.68C342.289 62.4133 342.902 62.2333 343.609 62.14C344.329 62.0333 345.129 62 346.009 62.04C346.102 61.2933 346.049 60.76 345.849 60.44C345.649 60.1067 345.202 59.94 344.509 59.94C343.989 59.94 343.435 59.9933 342.849 60.1C342.275 60.2067 341.802 60.3467 341.429 60.52L340.809 58.58ZM344.109 66.02C344.629 66.02 345.042 65.9067 345.349 65.68C345.655 65.44 345.882 65.1867 346.029 64.92V63.62C345.615 63.58 345.215 63.5733 344.829 63.6C344.455 63.6267 344.122 63.6867 343.829 63.78C343.535 63.8733 343.302 64.0067 343.129 64.18C342.955 64.3533 342.869 64.5733 342.869 64.84C342.869 65.2133 342.975 65.5067 343.189 65.72C343.415 65.92 343.722 66.02 344.109 66.02Z"
          fill="white"/>
    <circle cx="220" cy="90" r="15" fill="url(#paint1_linear_128:36735)"/>
    <path d="M215 88L220 93L225 88" stroke="white" stroke-width="2"/>
    <defs>
        <filter id="filter0_d_128:36735" x="0" y="0" width="440" height="186" filterUnits="userSpaceOnUse"
                color-interpolation-filters="sRGB">
            <feFlood flood-opacity="0" result="BackgroundImageFix"/>
            <feColorMatrix in="SourceAlpha" type="matrix" values="0 0 0 0 0 0 0 0 0 0 0 0 0 0 0 0 0 0 127 0"
                           result="hardAlpha"/>
            <feOffset dy="30"/>
            <feGaussianBlur stdDeviation="30"/>
            <feComposite in2="hardAlpha" operator="out"/>
            <feColorMatrix type="matrix" values="0 0 0 0 0.41 0 0 0 0 0.148251 0 0 0 0 0.10206 0 0 0 1 0"/>
            <feBlend mode="normal" in2="BackgroundImageFix" result="effect1_dropShadow_128:36735"/>
            <feBlend mode="normal" in="SourceGraphic" in2="effect1_dropShadow_128:36735" result="shape"/>
        </filter>
        <linearGradient id="paint0_linear_128:36735" x1="220" y1="30" x2="220" y2="90" gradientUnits="userSpaceOnUse">
            <stop stop-color="#E9533A"/>
            <stop offset="1" stop-color="#CF4A33"/>
        </linearGradient>
        <linearGradient id="paint1_linear_128:36735" x1="220" y1="75" x2="220" y2="105" gradientUnits="userSpaceOnUse">
            <stop stop-color="#D44B34"/>
            <stop offset="0.46875" stop-color="#CF4933"/>
            <stop offset="1" stop-color="#CE4933"/>
        </linearGradient>
    </defs>
</svg>
