<svg width="1920" height="115" viewBox="0 0 1920 115" fill="none" xmlns="http://www.w3.org/2000/svg">
<path d="M1781.73 77.9709C1893.85 105.34 2069.16 20.2172 2105.32 114.816L2098.24 60.1016C2098.24 60.1016 2097.19 60.0786 2095.16 60.0209L2069.16 40.2172H1883.16L1681.16 30.0209L1408.11 15.2172H1158.16L138.158 10.0209L-32.7172 70.8186H-32.3484L-37.1653 107.925C-0.266544 110.656 -51.9667 101.08 60.1584 73.7225C254.158 50.2172 384.86 109.071 527.158 107.925C669.457 106.778 673.158 82.2172 796.158 82.2172C940.158 91.2172 1007.16 114.816 1184.16 91.2172C1184.16 91.2172 1254.16 83.2172 1427.16 91.2172C1600.16 99.2172 1669.6 50.6137 1781.73 77.9709Z" fill="#D4EDFC"/>
<path d="M1781.73 57.9709C1893.85 85.3395 2069.16 10.2172 2105.32 104.816L2098.24 50.1016C2098.24 50.1016 2097.19 50.0786 2095.16 50.0209L2069.16 30.2172L1883.16 10.2172L1681.16 0.0209351L1408.11 5.21719H1158.16L138.158 0.0209351L-32.7172 0.818588L-32.3484 60.8186L-37.1653 97.9248C-0.266544 100.656 -51.9667 91.0797 60.1584 63.7225C254.158 40.2172 384.86 89.0712 527.158 87.9248C669.457 86.7783 673.158 62.2172 796.158 62.2172C940.158 71.2172 1007.16 104.816 1184.16 81.2172C1184.16 81.2172 1254.16 78.2172 1427.16 86.2172C1600.16 94.2172 1669.6 30.6137 1781.73 57.9709Z" fill="white"/>
</svg>
