<svg width="1920" height="115" viewBox="0 0 1920 115" fill="none" xmlns="http://www.w3.org/2000/svg">
<path d="M286.43 36.8451C174.305 9.47638 -1 94.5987 -37.1653 0L-30.0781 54.7143C-30.0781 54.7143 -29.0295 54.7374 -27.0015 54.795L-1 74.5987H185L387 84.795L660.05 99.5987H910L1930 104.795L2100.88 43.9973H2100.51L2105.32 6.89115C2068.42 4.16004 2120.13 13.7362 2008 41.0934C1814 64.5988 1683.3 5.7447 1541 6.89115C1398.7 8.0376 1395 32.5988 1272 32.5988C1128 23.5987 1061 1.90735e-06 884 23.5987C884 23.5987 814 31.5987 641 23.5987C468 15.5987 398.556 64.2022 286.43 36.8451Z" fill="#D4EDFC"/>
<path d="M286.43 56.8451C174.305 29.4764 -1 104.599 -37.1653 10L-30.0781 64.7143C-30.0781 64.7143 -29.0295 64.7374 -27.0015 64.795L-1 84.5987H185L387 94.795L660.05 109.599H910L1930 114.795L2100.88 53.9973H2100.51L2105.32 16.8911C2068.42 14.16 2120.13 23.7362 2008 51.0934C1814 74.5988 1683.3 25.7447 1541 26.8911C1398.7 28.0376 1395 52.5988 1272 52.5988C1128 43.5987 1061 10 884 33.5987C884 33.5987 814 36.5987 641 28.5987C468 20.5987 398.556 84.2022 286.43 56.8451Z" fill="white"/>
</svg>
