<svg width="614" height="382" viewBox="0 0 614 382" fill="none" xmlns="http://www.w3.org/2000/svg">
<path d="M585.16 228.13C585.726 228.13 586.179 229.053 586.179 230.185C586.179 231.323 585.72 232.24 585.16 232.24C584.595 232.24 584.142 231.317 584.142 230.185C584.142 229.047 584.595 228.13 585.16 228.13ZM591.571 225.628C591.404 225.55 591.297 225.377 591.32 225.175C591.326 225.115 591.356 225.056 591.386 225.002C591.684 224.531 591.839 223.989 591.839 223.435C591.839 223.376 591.839 223.31 591.833 223.251C591.833 223.233 591.827 223.209 591.827 223.191C591.821 223.149 591.821 223.108 591.815 223.072C591.815 223.048 591.809 223.024 591.803 223C591.797 222.965 591.791 222.929 591.785 222.893C591.779 222.869 591.779 222.845 591.773 222.822C591.767 222.786 591.755 222.75 591.749 222.714C591.743 222.691 591.737 222.673 591.731 222.649C591.719 222.601 591.702 222.554 591.69 222.506C591.678 222.476 591.672 222.452 591.66 222.422C591.648 222.393 591.636 222.363 591.624 222.327C591.612 222.297 591.6 222.274 591.588 222.244C591.577 222.22 591.565 222.196 591.559 222.172C591.547 222.142 591.529 222.113 591.517 222.083C591.505 222.065 591.493 222.041 591.487 222.023C591.469 221.994 591.451 221.964 591.434 221.934C591.404 221.88 591.362 221.833 591.356 221.761C591.35 221.672 591.291 221.6 591.207 221.582C591.183 221.577 591.171 221.559 591.16 221.541C591.13 221.505 591.106 221.475 591.076 221.445C591.07 221.44 591.064 221.428 591.052 221.422C591.023 221.392 590.993 221.362 590.963 221.326C590.957 221.32 590.951 221.314 590.939 221.308C590.909 221.279 590.874 221.249 590.838 221.213V222V222.005C590.909 222.107 590.975 222.208 591.028 222.315C591.034 222.321 591.034 222.327 591.04 222.339C591.076 222.405 591.106 222.476 591.13 222.542C591.136 222.559 591.142 222.577 591.154 222.601C591.16 222.619 591.165 222.643 591.177 222.661C591.183 222.679 591.189 222.697 591.195 222.72C591.201 222.744 591.213 222.774 591.219 222.798C591.225 222.822 591.231 222.845 591.237 222.875C591.243 222.893 591.243 222.905 591.249 222.923C591.255 222.947 591.261 222.977 591.267 223C591.267 223.012 591.273 223.024 591.273 223.042C591.279 223.078 591.285 223.119 591.291 223.155C591.291 223.161 591.291 223.173 591.291 223.179C591.297 223.215 591.297 223.251 591.302 223.28C591.302 223.292 591.302 223.304 591.302 223.316C591.302 223.358 591.308 223.399 591.308 223.441C591.308 224.061 591.076 224.651 590.647 225.103C590.552 225.211 590.403 225.258 590.266 225.228C589.932 225.169 589.599 225.139 589.277 225.139H588.675C588.288 225.139 587.901 225.181 587.526 225.252C587.496 225.258 587.466 225.258 587.442 225.258C587.329 225.258 587.222 225.211 587.138 225.133C586.692 224.674 586.441 224.073 586.441 223.429C586.441 223.382 586.441 223.334 586.447 223.286C586.447 223.274 586.447 223.262 586.447 223.251C586.447 223.215 586.453 223.179 586.459 223.143C586.459 223.131 586.465 223.114 586.465 223.102C586.471 223.06 586.477 223.012 586.489 222.971V222.965C586.495 222.923 586.507 222.875 586.519 222.834C586.525 222.822 586.525 222.804 586.531 222.792C586.537 222.762 586.549 222.726 586.56 222.697C586.566 222.685 586.566 222.667 586.572 222.655C586.584 222.619 586.596 222.577 586.614 222.542C586.614 222.536 586.614 222.536 586.62 222.53C586.638 222.488 586.656 222.446 586.674 222.411C586.68 222.399 586.686 222.387 586.692 222.369C586.703 222.339 586.721 222.315 586.733 222.285C586.739 222.274 586.745 222.262 586.757 222.244C586.775 222.208 586.793 222.178 586.817 222.148C586.823 222.142 586.823 222.137 586.829 222.131C586.852 222.095 586.876 222.059 586.9 222.023C586.906 222.011 586.918 222 586.924 221.988C586.942 221.964 586.96 221.94 586.977 221.916C586.989 221.904 586.995 221.892 587.007 221.88C587.037 221.845 587.061 221.815 587.091 221.785V221.07L587.073 221.082C586.989 221.148 586.906 221.219 586.834 221.291C586.793 221.332 586.751 221.374 586.709 221.422C586.638 221.499 586.572 221.582 586.507 221.666C586.477 221.708 586.447 221.749 586.417 221.797C586.412 221.809 586.406 221.821 586.388 221.827C586.334 221.851 586.286 221.898 586.286 221.958C586.286 222.017 586.263 222.059 586.239 222.101C586.215 222.148 586.191 222.19 586.173 222.238C586.173 222.244 586.167 222.25 586.167 222.256C586.149 222.303 586.126 222.351 586.108 222.405C586.09 222.452 586.072 222.5 586.06 222.548C586.06 222.559 586.054 222.565 586.054 222.577C586.042 222.625 586.024 222.673 586.012 222.726C586 222.768 585.989 222.839 585.977 222.881L585.971 222.899C585.959 222.953 585.953 223.006 585.947 223.06C585.947 223.072 585.947 223.078 585.941 223.09C585.935 223.137 585.929 223.191 585.929 223.245C585.929 223.257 585.929 223.262 585.929 223.274C585.929 223.328 585.923 223.382 585.923 223.435C585.923 224.019 586.09 224.579 586.412 225.068C586.441 225.109 586.465 225.157 586.477 225.205C586.525 225.413 586.423 225.61 586.245 225.693C584.279 226.628 583.01 228.642 583.01 230.816V233.557V234.522C583.129 234.432 583.23 234.307 583.32 234.152C583.623 233.634 584.124 233.324 584.66 233.324C585.196 233.324 585.697 233.634 586 234.152C586.102 234.325 586.227 234.462 586.376 234.564C586.423 234.593 586.477 234.623 586.537 234.641C586.549 234.647 586.554 234.647 586.566 234.653C586.948 234.772 587.335 234.581 587.591 234.141C587.847 233.706 588.234 233.42 588.681 233.342C589.098 233.271 589.521 233.384 589.867 233.67L589.879 233.682C589.897 233.7 589.926 233.718 589.956 233.747L589.962 233.753C590.004 233.795 590.034 233.831 590.063 233.867L590.075 233.878C590.081 233.884 590.087 233.89 590.093 233.896C590.123 233.926 590.159 233.962 590.194 234.015C590.212 234.039 590.224 234.063 590.236 234.093C590.248 234.105 590.254 234.123 590.266 234.141C590.468 234.486 590.766 234.689 591.076 234.689C591.386 234.689 591.678 234.486 591.886 234.141C592.19 233.622 592.691 233.313 593.227 233.313C593.763 233.313 594.263 233.622 594.567 234.141C594.68 234.331 594.817 234.474 594.966 234.57V233.557V230.816C594.948 228.576 593.62 226.539 591.571 225.628Z" fill="#ECA753"/>
<path d="M589.974 174.846H587.913V221.577H589.974V174.846Z" fill="#E9533A"/>
<path d="M585.16 228.112C584.594 228.112 584.142 229.035 584.142 230.167C584.142 231.305 584.6 232.222 585.16 232.222C585.726 232.222 586.179 231.299 586.179 230.167C586.179 229.035 585.726 228.112 585.16 228.112Z" fill="#FEFEFE"/>
<path d="M599.982 235.439C603.259 239.669 605.207 244.941 605.207 250.66C605.207 264.565 593.715 275.836 579.537 275.836C577.005 275.836 574.562 275.473 572.251 274.805C577.666 279.935 585.446 282.598 593.781 281.001C603.509 279.136 611.111 271.445 612.88 261.705C614.941 250.356 609.127 240.092 599.982 235.439Z" fill="#C75C21"/>
<path d="M585.977 254.407C581.574 258.238 575.813 258.828 573.121 255.73C570.428 252.632 571.81 247.014 576.219 243.184C580.621 239.353 586.382 238.763 589.075 241.861C591.767 244.959 590.379 250.577 585.977 254.407ZM599.982 235.439C599.69 235.29 599.393 235.147 599.095 235.01C597.784 234.409 596.42 233.926 594.996 233.563V234.581C594.841 234.486 594.704 234.343 594.591 234.153C594.287 233.628 593.781 233.318 593.239 233.318C592.697 233.318 592.196 233.628 591.892 234.153C591.684 234.504 591.392 234.707 591.076 234.707C590.766 234.707 590.469 234.504 590.26 234.153C590.248 234.135 590.242 234.123 590.23 234.105C590.218 234.075 590.206 234.051 590.189 234.027C590.153 233.974 590.111 233.932 590.087 233.902C590.081 233.896 590.075 233.89 590.069 233.878L590.057 233.867C590.028 233.831 589.992 233.789 589.95 233.753L589.944 233.747C589.915 233.718 589.885 233.7 589.867 233.682L589.855 233.67C589.509 233.384 589.086 233.265 588.663 233.342C588.217 233.42 587.823 233.706 587.567 234.147C587.311 234.587 586.912 234.784 586.531 234.659C586.525 234.653 586.513 234.653 586.501 234.647C586.441 234.629 586.388 234.599 586.34 234.57C586.191 234.474 586.066 234.331 585.965 234.158C585.661 233.634 585.155 233.324 584.618 233.324C584.076 233.324 583.576 233.634 583.272 234.158C583.183 234.313 583.075 234.438 582.956 234.528V233.557C572.43 236.238 564.649 245.775 564.649 257.136C564.649 263.743 567.283 269.73 571.554 274.114C571.78 274.347 572.019 274.579 572.257 274.805C574.568 275.473 577.011 275.836 579.543 275.836C593.721 275.836 605.213 264.565 605.213 250.66C605.201 244.935 603.253 239.663 599.982 235.439Z" fill="#E06522"/>
<path d="M600.131 239.919C598.07 240.336 596.652 250.601 593.036 257.672C588.789 265.983 580.079 271.505 582.784 274.049C584.863 276.003 594.692 267.734 598.159 258.953C603.575 245.251 601.621 239.621 600.131 239.919Z" fill="#2D3344"/>
<path d="M589.074 241.855C589.629 242.493 590.01 243.243 590.23 244.06C592.321 241.951 598.481 238.132 595.526 236.696C593.447 235.684 590.457 237.959 588.491 239.163C587.907 239.52 587.341 239.901 586.787 240.3C587.675 240.628 588.455 241.146 589.074 241.855Z" fill="#2D3344"/>
<path d="M580.984 258.905C579.4 264.696 577.434 264.374 576.403 268.407C576.361 268.568 576.355 269.283 576.415 269.444C576.647 270.069 577.887 270.034 578.447 269.742C580.704 268.568 581.789 267.329 583.052 265.119C583.862 263.701 584.124 262.045 584.416 260.436C584.833 258.143 585.125 256.469 585.506 254.801C584.166 255.873 582.724 256.653 581.294 257.136C581.211 257.803 581.115 258.435 580.984 258.905Z" fill="#2D3344"/>
<path d="M579.817 251.697C578.905 251.697 577.07 254.276 575.682 257.374C577.321 257.898 579.298 257.803 581.294 257.13C581.413 256.099 581.479 254.979 581.509 254.229C581.544 252.996 580.984 251.697 579.817 251.697Z" fill="#EF803C"/>
<path d="M579.197 242.91C577.875 244.298 576.558 245.692 575.224 247.086C573.931 248.438 572.787 249.606 571.81 250.744C571.566 252.638 571.971 254.407 573.115 255.724C573.222 255.849 573.335 255.968 573.454 256.081C574.866 253.037 577.142 249.469 580.889 245.567C582.718 243.666 584.642 241.837 586.781 240.3C583.802 239.198 579.608 240.229 576.212 243.178C575.879 243.464 575.569 243.762 575.271 244.071C576.332 243.351 577.434 242.689 578.566 242.082C579.096 241.796 579.608 242.475 579.197 242.91Z" fill="#EF803C"/>
<path d="M587.025 249.612C586.31 251.673 585.864 253.234 585.506 254.795C585.667 254.67 585.822 254.539 585.977 254.401C589.474 251.363 591.064 247.199 590.23 244.06C590.141 244.149 590.057 244.238 589.986 244.322C589.021 245.424 587.401 248.528 587.025 249.612Z" fill="#EF803C"/>
<path d="M580.895 245.567C577.148 249.469 574.872 253.037 573.46 256.081C574.086 256.677 574.836 257.106 575.682 257.374C577.07 254.276 578.905 251.697 579.817 251.697C580.984 251.697 581.544 252.99 581.503 254.235C581.479 254.985 581.413 256.105 581.288 257.136C582.724 256.653 584.166 255.867 585.5 254.801C585.864 253.24 586.304 251.679 587.019 249.618C587.395 248.534 589.009 245.424 589.98 244.328C590.052 244.244 590.135 244.155 590.224 244.066C590.004 243.249 589.623 242.505 589.069 241.861C588.449 241.152 587.669 240.634 586.781 240.306C584.654 241.843 582.724 243.666 580.895 245.567Z" fill="#535252"/>
<path d="M575.23 247.086C576.564 245.692 577.881 244.298 579.203 242.91C579.614 242.475 579.102 241.796 578.578 242.082C577.44 242.689 576.344 243.351 575.283 244.071C573.311 246.109 572.108 248.516 571.822 250.75C572.787 249.612 573.937 248.438 575.23 247.086Z" fill="#535252"/>
<path d="M611.998 264.446C609.597 267.4 607.286 270.468 606.839 271.094C605.707 272.696 603.158 275.365 601.364 277.808C598.219 279.684 594.609 280.87 590.748 281.15C592.065 280.614 593.352 280 594.543 279.226C597.313 277.427 603.152 271.797 605.404 267.347C607.566 263.075 611.105 252.876 610.181 245.454C612.076 248.897 613.148 252.853 613.148 257.058C613.148 259.638 612.743 262.116 611.998 264.446ZM584.797 280.846C580.698 280.125 576.957 278.374 573.847 275.866C573.853 275.854 573.859 275.836 573.859 275.824C574.056 275.097 574.568 272.905 574.3 271.112C574.133 270.016 573.859 268.115 573.818 266.739C573.758 264.821 574.074 261.902 574.652 260.073C574.938 259.161 575.295 258.25 575.682 257.374C574.842 257.106 574.086 256.677 573.46 256.081C571.78 259.704 571.333 262.587 571.107 264.41C570.821 266.733 570.911 270.546 571.322 273.513C570.065 272.16 568.962 270.671 568.039 269.057C567.616 266.024 567.169 260.269 568.962 255.313C569.57 253.639 570.541 252.221 571.816 250.738C572.108 248.504 573.305 246.103 575.277 244.06C573.341 245.376 571.536 246.883 569.898 248.605C569.099 249.445 567.378 251.518 566.585 253.889C565.722 256.481 565.251 259.167 565.328 261.872C565.013 260.311 564.846 258.697 564.846 257.047C564.846 246.091 572.138 236.839 582.14 233.884V234.635C577.481 236.351 574.938 238.37 574.253 238.96C573.276 239.806 572.346 240.706 571.476 241.653C570.863 242.32 570.255 243.094 569.934 243.928C569.612 244.745 570.488 245.519 571.262 245.096C572.859 244.226 574.229 242.886 575.688 241.76C580.478 238.061 584.463 237.894 588.354 236.607C588.955 236.41 589.825 235.993 590.808 235.523C590.891 235.535 590.975 235.541 591.058 235.541C591.618 235.541 592.137 235.249 592.494 234.736C592.845 234.575 593.203 234.427 593.548 234.284C593.644 234.355 593.733 234.45 593.811 234.575C594.174 235.201 594.746 235.552 595.377 235.547C595.61 235.541 595.794 235.356 595.794 235.124V233.878C599.571 234.987 602.967 236.988 605.731 239.645C605.701 242.32 606.22 246.556 606.053 249.713C605.785 254.938 600.9 263.278 596.211 270.153C594.061 273.31 588.538 278.028 584.797 280.846ZM582.992 234.349V233.67V232.794V230.834C582.992 228.66 584.261 226.652 586.221 225.711C586.269 225.687 586.31 225.663 586.346 225.628C586.495 225.473 586.507 225.252 586.4 225.091C586.078 224.603 585.905 224.037 585.905 223.453C585.905 223.399 585.905 223.346 585.911 223.292C585.911 223.28 585.911 223.274 585.911 223.262C585.917 223.209 585.917 223.161 585.923 223.108C585.923 223.096 585.923 223.09 585.929 223.078C585.935 223.024 585.941 222.971 585.953 222.917V222.905C585.959 222.863 585.977 222.792 585.989 222.75C586 222.702 586.012 222.655 586.03 222.601C586.03 222.589 586.036 222.583 586.036 222.571C586.054 222.524 586.066 222.476 586.084 222.428C586.102 222.381 586.12 222.333 586.143 222.28C586.143 222.274 586.149 222.268 586.149 222.262C586.167 222.214 586.191 222.166 586.215 222.125C586.233 222.083 586.382 221.833 586.388 221.821C586.417 221.779 586.447 221.731 586.477 221.69C586.543 221.606 586.608 221.523 586.68 221.445L586.697 221.428C586.733 221.392 586.763 221.356 586.799 221.32C586.882 221.237 586.971 221.16 587.067 221.088V221.803C587.037 221.833 587.007 221.868 586.983 221.898C586.972 221.91 586.966 221.922 586.954 221.934C586.936 221.958 586.918 221.982 586.9 222.005C586.894 222.017 586.882 222.029 586.876 222.041C586.852 222.077 586.829 222.113 586.805 222.148C586.799 222.154 586.799 222.16 586.793 222.166C586.775 222.196 586.757 222.232 586.733 222.262C586.727 222.274 586.721 222.285 586.709 222.303C586.697 222.333 586.68 222.357 586.668 222.387C586.662 222.399 586.656 222.411 586.65 222.428C586.632 222.47 586.614 222.506 586.596 222.548C586.596 222.554 586.596 222.554 586.59 222.56C586.578 222.595 586.56 222.637 586.549 222.673C586.543 222.685 586.543 222.702 586.537 222.714C586.525 222.744 586.519 222.774 586.507 222.81C586.501 222.822 586.501 222.834 586.495 222.851C586.483 222.893 586.471 222.941 586.465 222.982V222.988C586.459 223.03 586.447 223.078 586.441 223.119C586.441 223.131 586.435 223.143 586.435 223.161C586.429 223.197 586.429 223.233 586.423 223.262C586.423 223.274 586.423 223.292 586.417 223.304C586.417 223.352 586.412 223.399 586.412 223.447C586.412 224.085 586.656 224.692 587.109 225.151C587.192 225.234 587.299 225.276 587.412 225.276C587.442 225.276 587.472 225.276 587.496 225.27C587.871 225.193 588.258 225.157 588.646 225.157H589.247C589.575 225.157 589.903 225.187 590.236 225.246C590.379 225.27 590.522 225.222 590.617 225.121C591.046 224.668 591.279 224.079 591.279 223.459C591.279 223.417 591.279 223.376 591.273 223.334C591.273 223.322 591.273 223.31 591.273 223.298C591.273 223.262 591.267 223.227 591.261 223.197C591.261 223.191 591.261 223.179 591.261 223.173C591.255 223.131 591.249 223.096 591.243 223.06C591.243 223.048 591.237 223.036 591.237 223.018C591.231 222.994 591.225 222.965 591.219 222.941C591.213 222.923 591.213 222.911 591.207 222.893C591.201 222.869 591.195 222.84 591.189 222.816C591.183 222.792 591.177 222.762 591.165 222.738C591.16 222.72 591.154 222.702 591.148 222.679C591.142 222.661 591.136 222.637 591.124 222.619C591.118 222.607 591.112 222.595 591.112 222.583C591.082 222.506 591.046 222.428 591.011 222.357C591.005 222.351 591.005 222.345 591.005 222.339C590.945 222.232 590.885 222.125 590.814 222.029V222.023V221.243C590.85 221.273 590.88 221.303 590.915 221.338C590.921 221.344 590.927 221.35 590.939 221.356C590.969 221.386 590.999 221.416 591.028 221.451C591.034 221.457 591.04 221.469 591.052 221.475C591.082 221.505 591.112 221.541 591.136 221.571C591.148 221.588 591.374 221.904 591.41 221.958C591.428 221.988 591.445 222.017 591.463 222.047C591.475 222.065 591.487 222.089 591.493 222.107C591.505 222.137 591.523 222.166 591.535 222.196C591.547 222.22 591.559 222.244 591.565 222.268C591.577 222.297 591.588 222.321 591.6 222.351C591.612 222.381 591.624 222.411 591.636 222.446C591.648 222.476 591.654 222.5 591.666 222.53C591.684 222.577 591.696 222.625 591.708 222.673C591.714 222.697 591.72 222.714 591.725 222.738C591.731 222.774 591.743 222.81 591.749 222.845C591.755 222.869 591.761 222.893 591.761 222.917C591.767 222.953 591.773 222.988 591.779 223.024C591.785 223.048 591.785 223.072 591.791 223.09C591.797 223.131 591.797 223.173 591.803 223.209C591.803 223.227 591.809 223.251 591.809 223.268C591.815 223.328 591.815 223.388 591.815 223.453C591.815 224.007 591.66 224.549 591.362 225.02C591.326 225.074 591.302 225.133 591.297 225.193C591.267 225.389 591.38 225.568 591.547 225.645C593.602 226.557 594.925 228.594 594.925 230.834V232.413V232.776V233.652V233.783V234.581C594.776 234.486 594.639 234.343 594.525 234.152C594.484 234.087 594.442 234.021 594.394 233.962C594.091 233.563 593.65 233.324 593.185 233.324C592.649 233.324 592.148 233.634 591.845 234.152C591.642 234.504 591.344 234.701 591.034 234.701C590.725 234.701 590.433 234.498 590.224 234.152C590.212 234.135 590.206 234.123 590.194 234.105C590.183 234.081 590.171 234.051 590.153 234.027C590.117 233.974 590.075 233.932 590.051 233.908C590.045 233.902 590.04 233.896 590.034 233.89L590.022 233.878C589.992 233.843 589.962 233.807 589.92 233.765L589.914 233.759C589.885 233.73 589.855 233.712 589.837 233.694L589.825 233.682C589.48 233.396 589.063 233.283 588.64 233.354C588.193 233.432 587.806 233.718 587.549 234.152C587.293 234.587 586.9 234.784 586.525 234.665C586.519 234.659 586.507 234.659 586.495 234.653C586.441 234.635 586.382 234.605 586.334 234.575C586.185 234.48 586.06 234.343 585.959 234.164C585.822 233.926 585.643 233.735 585.435 233.598C585.19 233.432 584.91 233.336 584.618 233.336C584.082 233.336 583.582 233.646 583.278 234.164C583.26 234.2 583.236 234.23 583.212 234.266C583.135 234.373 583.052 234.462 582.962 234.534L582.992 234.349ZM587.657 222.434H590.081C590.314 222.708 590.451 223.06 590.451 223.447C590.451 223.775 590.349 224.096 590.159 224.365C589.861 224.323 589.563 224.305 589.271 224.305H588.669C588.312 224.305 587.949 224.335 587.597 224.394C587.394 224.12 587.287 223.793 587.287 223.453C587.287 223.06 587.424 222.708 587.657 222.434ZM587.925 174.852H589.986V221.582H587.925V174.852ZM612.034 247.33C611.415 245.865 610.664 244.477 609.788 243.166C608.883 241.814 607.846 240.551 606.678 239.383C606.386 239.091 606.095 238.811 605.791 238.537C603.7 236.637 601.335 235.124 598.731 234.021C598.189 233.795 597.647 233.587 597.099 233.396C596.67 233.247 596.235 233.11 595.8 232.991V232.508V230.828C595.8 228.404 594.454 226.188 592.327 225.062C592.565 224.555 592.691 224.007 592.691 223.447C592.691 222.059 591.946 220.85 590.838 220.177V174.423C590.838 174.191 590.647 174 590.415 174H587.502C587.269 174 587.079 174.191 587.079 174.423V220.081C585.875 220.725 585.059 221.994 585.059 223.447C585.059 224.043 585.196 224.621 585.458 225.145C583.433 226.295 582.146 228.475 582.146 230.828V233.009C581.556 233.175 580.967 233.366 580.389 233.581C580.013 233.718 579.638 233.867 579.269 234.021C576.29 235.278 573.621 237.084 571.322 239.377C569.028 241.671 567.223 244.346 565.966 247.324C564.661 250.404 564 253.681 564 257.053C564 260.329 564.626 263.51 565.853 266.513C565.888 266.602 565.93 266.697 565.966 266.787C566.627 268.348 567.437 269.825 568.391 271.207C569.254 272.464 570.231 273.638 571.322 274.734C571.405 274.817 571.488 274.895 571.572 274.978C572.126 275.52 572.704 276.033 573.299 276.515C575.11 277.981 577.112 279.184 579.269 280.096C580.758 280.727 582.295 281.204 583.868 281.531C585.298 281.829 586.757 282.002 588.234 282.044C588.491 282.05 588.747 282.055 589.003 282.055C592.375 282.055 595.651 281.394 598.731 280.09C599.273 279.857 599.804 279.613 600.328 279.345C602.669 278.153 604.802 276.605 606.678 274.728C608.972 272.434 610.777 269.76 612.034 266.781C612.582 265.494 613.011 264.166 613.333 262.819C613.774 260.943 614 259.012 614 257.053C614 253.687 613.339 250.41 612.034 247.33Z" fill="#2D3344"/>
<path d="M72.0533 230.592C61.6905 199.741 57.1012 166.351 59.5333 131.824C59.9563 125.788 60.5908 119.818 61.4156 113.915L0 127.547L37.5388 300.246L98.9332 286.613C96.4376 282.738 94.0479 278.773 91.7638 274.741C83.8542 260.797 77.2347 246.006 72.0533 230.592Z" fill="#3FBDD8"/>
<path d="M512.261 13.8781C514.757 17.7539 517.146 21.7189 519.431 25.7506C527.34 39.7171 533.96 54.4854 539.141 69.922C549.504 100.773 554.093 134.163 551.682 168.689C551.259 174.726 550.625 180.696 549.8 186.599L611.194 172.966L573.656 0.245743L512.261 13.8781Z" fill="#3FBDD8"/>
<path d="M77.3826 228.765C67.2524 198.627 62.7901 165.972 65.1376 132.247C65.6028 125.609 66.3219 119.083 67.2947 112.623L61.3943 113.937C60.5695 119.84 59.935 125.81 59.512 131.847C57.1011 166.373 61.6903 199.763 72.032 230.614C77.2134 246.028 83.8329 260.819 91.7425 274.785C94.0266 278.817 96.4164 282.76 98.9119 286.658L104.812 285.344C101.957 280.978 99.2291 276.5 96.6279 271.934C88.9086 258.257 82.4371 243.823 77.3826 228.765Z" fill="#3FBDD8"/>
<path d="M539.142 69.8997C533.961 54.4854 527.341 39.6948 519.431 25.7283C517.147 21.6966 514.758 17.7539 512.262 13.8557L506.362 15.17C509.217 19.5359 511.945 24.0132 514.546 28.5795C522.286 42.2118 528.758 56.6683 533.812 71.7262C543.943 101.864 548.426 134.497 546.058 168.222C545.592 174.86 544.873 181.386 543.9 187.846L549.801 186.532C550.626 180.629 551.26 174.659 551.683 168.623C554.073 134.141 549.505 100.751 539.142 69.8997Z" fill="#3FBDD8"/>
<path d="M82.7332 226.916C72.8568 197.491 68.479 165.615 70.7842 132.671C71.2918 125.454 72.0954 118.326 73.2163 111.309L67.3158 112.623C66.343 119.083 65.6239 125.632 65.1587 132.248C62.79 165.972 67.2735 198.605 77.4037 228.743C82.4582 243.801 88.9297 258.257 96.6701 271.89C99.2502 276.456 101.978 280.911 104.855 285.299L110.776 283.985C107.54 279.129 104.453 274.139 101.577 269.038C93.9842 255.74 87.6608 241.64 82.7332 226.916Z" fill="#60C2D0"/>
<path d="M533.79 71.7485C528.736 56.6905 522.264 42.2341 514.524 28.6017C511.944 24.0354 509.216 19.5804 506.339 15.1922L500.418 16.5064C503.654 21.3624 506.741 26.352 509.617 31.4529C517.168 44.7734 523.491 58.8735 528.44 73.5973C538.316 103.023 542.694 134.898 540.389 167.843C539.881 175.06 539.077 182.188 537.957 189.205L543.857 187.89C544.83 181.431 545.549 174.882 546.014 168.266C548.404 134.519 543.921 101.887 533.79 71.7485Z" fill="#60C2D0"/>
<path d="M528.462 73.5751C523.513 58.8513 517.189 44.7512 509.639 31.4308C506.742 26.3298 503.675 21.3402 500.44 16.4842L494.497 17.7984C498.134 23.1445 501.56 28.6241 504.754 34.2597C512.135 47.2683 518.289 61.0343 523.111 75.4016C532.755 104.136 537.027 135.232 534.785 167.397C534.235 175.216 533.305 182.923 532.036 190.497L537.978 189.182C539.099 182.166 539.903 175.038 540.41 167.821C542.716 134.876 538.338 103.023 528.462 73.5751Z" fill="#7AC7C7"/>
<path d="M88.0628 225.09C78.4191 196.355 74.1471 165.259 76.3888 133.094C76.9387 125.275 77.8692 117.568 79.1381 109.995L73.1954 111.309C72.0745 118.326 71.2709 125.454 70.7633 132.671C68.4581 165.616 72.8358 197.491 82.7123 226.916C87.661 241.64 93.9845 255.74 101.535 269.061C104.432 274.162 107.498 279.151 110.734 284.007L116.677 282.693C113.039 277.347 109.613 271.867 106.42 266.232C99.0601 253.201 92.8847 239.435 88.0628 225.09Z" fill="#7AC7C7"/>
<path d="M523.111 75.424C518.289 61.0566 512.114 47.2907 504.754 34.282C501.561 28.6465 498.135 23.1445 494.497 17.8208L488.533 19.135C517.486 60.7002 532.987 112.289 529.16 166.974C528.567 175.417 527.531 183.703 526.072 191.811L532.036 190.497C533.305 182.923 534.235 175.216 534.785 167.398C537.027 135.255 532.776 104.137 523.111 75.424Z" fill="#8ECCBD"/>
<path d="M82.0144 133.517C82.6066 125.075 83.6429 116.788 85.1021 108.68L79.1382 109.995C77.8693 117.568 76.9388 125.275 76.3889 133.094C74.1472 165.237 78.4192 196.355 88.0629 225.09C92.8848 239.457 99.0602 253.223 106.42 266.232C109.613 271.867 113.039 277.369 116.677 282.693L122.641 281.379C93.7096 239.791 78.1865 188.202 82.0144 133.517Z" fill="#8ECCBD"/>
<path d="M84.806 133.717C85.4193 124.986 86.519 116.41 88.0628 108.012L85.102 108.68C83.6428 116.811 82.6065 125.097 82.0143 133.517C78.1864 188.202 93.7095 239.791 122.641 281.356L125.602 280.688C96.6069 239.479 80.9992 188.158 84.806 133.717Z" fill="#8ECCBD"/>
<path d="M488.532 19.135L485.572 19.8033C514.588 61.0344 530.195 112.356 526.388 166.774C525.775 175.506 524.675 184.082 523.132 192.479L526.092 191.833C527.552 183.703 528.588 175.417 529.18 166.997C532.987 112.311 517.464 60.7002 488.532 19.135Z" fill="#8ECCBD"/>
<path d="M87.5975 133.94C88.232 124.897 89.3952 116.031 91.0448 107.366L88.0628 108.034C86.519 116.432 85.4192 125.008 84.8059 133.74C80.9992 188.18 96.5857 239.502 125.623 280.71L128.605 280.042C99.4831 239.167 83.8119 188.113 87.5975 133.94Z" fill="#A0CCB8"/>
<path d="M485.572 19.8032L482.59 20.4715C511.69 61.3461 527.362 112.4 523.576 166.596C522.942 175.639 521.778 184.505 520.129 193.17L523.111 192.501C524.655 184.104 525.754 175.528 526.368 166.796C530.174 112.334 514.588 61.012 485.572 19.8032Z" fill="#A0CCB8"/>
<path d="M482.59 20.4492L479.608 21.1175C508.793 61.6357 524.57 112.423 520.785 166.351C520.129 175.684 518.902 184.861 517.168 193.793L520.15 193.125C521.8 184.438 522.963 175.572 523.597 166.551C527.383 112.378 511.691 61.3239 482.59 20.4492Z" fill="#B0CCB2"/>
<path d="M90.3889 134.141C91.0445 124.808 92.2711 115.63 94.0053 106.698L91.0234 107.366C89.3738 116.054 88.2106 124.919 87.5762 133.941C83.7906 188.113 99.4617 239.19 128.562 280.065L131.544 279.396C102.38 238.878 86.6245 188.069 90.3889 134.141Z" fill="#B0CCB2"/>
<path d="M93.1806 134.341C93.8574 124.696 95.1475 115.252 97.0085 106.03L94.0266 106.698C92.2713 115.653 91.0446 124.808 90.4102 134.141C86.6457 188.069 102.401 238.878 131.587 279.374L134.568 278.706C105.278 238.566 89.4162 188.024 93.1806 134.341Z" fill="#BCCAAC"/>
<path d="M479.608 21.1175L476.626 21.7857C505.896 61.9253 521.757 112.467 518.014 166.15C517.337 175.795 516.047 185.24 514.186 194.484L517.168 193.816C518.923 184.861 520.15 175.706 520.784 166.373C524.57 112.423 508.793 61.6135 479.608 21.1175Z" fill="#BCCAAC"/>
<path d="M476.626 21.7858L473.623 22.454C502.998 62.2372 518.945 112.512 515.201 165.95C514.503 175.907 513.15 185.641 511.183 195.152L514.165 194.484C516.026 185.262 517.316 175.818 517.993 166.15C521.757 112.467 505.896 61.9254 476.626 21.7858Z" fill="#CAC9A6"/>
<path d="M95.9725 134.564C96.6704 124.607 98.0239 114.873 99.9907 105.362L97.0088 106.03C95.1477 115.252 93.8576 124.696 93.1809 134.341C89.4164 188.024 105.278 238.566 134.569 278.706L137.572 278.038C108.175 238.277 92.2292 187.98 95.9725 134.564Z" fill="#CAC9A6"/>
<path d="M473.623 22.4317L470.62 23.1C500.101 62.5267 516.153 112.534 512.431 165.727C511.712 175.996 510.274 186.042 508.18 195.798L511.183 195.13C513.15 185.641 514.525 175.884 515.202 165.927C518.945 112.512 502.999 62.2372 473.623 22.4317Z" fill="#D6C7A2"/>
<path d="M98.7639 134.765C99.483 124.496 100.921 114.472 103.015 104.693L100.012 105.362C98.0448 114.851 96.6702 124.607 95.9934 134.564C92.2501 188.002 108.217 238.277 137.572 278.06L140.575 277.391C111.094 237.965 95.0417 187.957 98.7639 134.765Z" fill="#D6C7A2"/>
<path d="M470.62 23.0998L467.617 23.7681C497.204 62.8162 513.34 112.579 509.639 165.504C508.899 176.085 507.398 186.42 505.177 196.444L508.18 195.776C510.274 186.019 511.712 175.973 512.431 165.705C516.153 112.556 500.101 62.5266 470.62 23.0998Z" fill="#E1C59C"/>
<path d="M101.534 134.965C102.274 124.384 103.776 114.049 105.997 104.025L102.993 104.693C100.9 114.45 99.4616 124.496 98.7426 134.764C95.0204 187.957 111.072 237.965 140.553 277.391L143.556 276.723C113.991 237.675 97.8332 187.913 101.534 134.965Z" fill="#E1C59C"/>
<path d="M104.326 135.188C105.087 124.295 106.673 113.67 109.021 103.357L105.997 104.025C103.776 114.071 102.274 124.407 101.534 134.965C97.8332 187.913 113.991 237.675 143.556 276.701L146.581 276.033C116.909 237.385 100.646 187.868 104.326 135.188Z" fill="#ECC296"/>
<path d="M467.617 23.7681L464.592 24.4363C494.285 63.1058 510.527 112.623 506.847 165.304C506.086 176.196 504.5 186.821 502.152 197.135L505.177 196.466C507.397 186.42 508.899 176.085 509.639 165.526C513.34 112.579 497.182 62.8162 467.617 23.7681Z" fill="#ECC296"/>
<path d="M107.118 135.388C107.9 124.184 109.571 113.269 112.045 102.688L109.021 103.357C106.673 113.67 105.087 124.295 104.326 135.188C100.646 187.89 116.909 237.385 146.581 276.055L149.605 275.387C119.828 237.096 103.459 187.846 107.118 135.388Z" fill="#F3BC8F"/>
<path d="M464.593 24.4588L461.568 25.127C491.367 63.4178 507.736 112.668 504.077 165.103C503.295 176.308 501.624 187.222 499.149 197.803L502.174 197.135C504.521 186.821 506.107 176.196 506.869 165.304C510.527 112.623 494.285 63.1059 464.593 24.4588Z" fill="#F3BC8F"/>
<path d="M461.569 25.1268L458.418 25.8173C488.343 63.7071 504.839 112.69 501.18 164.88C500.376 176.419 498.621 187.645 495.978 198.516L499.15 197.803C501.624 187.222 503.295 176.307 504.077 165.103C507.736 112.645 491.367 63.3953 461.569 25.1268Z" fill="#F3BC8F"/>
<path d="M110.015 135.611C110.819 124.073 112.574 112.846 115.218 101.976L112.045 102.666C109.571 113.247 107.9 124.162 107.118 135.366C103.459 187.824 119.828 237.074 149.626 275.342L152.778 274.652C122.852 236.784 106.377 187.801 110.015 135.611Z" fill="#F3BC8F"/>
<path d="M112.933 135.834C113.758 123.961 115.619 112.423 118.39 101.285L115.217 101.998C112.595 112.846 110.84 124.095 110.015 135.633C106.377 187.801 122.852 236.784 152.777 274.674L155.95 273.961C125.897 236.495 109.296 187.779 112.933 135.834Z" fill="#E9B598"/>
<path d="M458.397 25.8176L455.224 26.5304C485.276 63.9969 501.899 112.712 498.262 164.68C497.437 176.553 495.576 188.091 492.805 199.229L495.978 198.516C498.6 187.668 500.377 176.419 501.18 164.88C504.818 112.69 488.322 63.7074 458.397 25.8176Z" fill="#E9B598"/>
<path d="M455.224 26.5302L452.031 27.243C482.21 64.3086 498.96 112.757 495.343 164.457C494.497 176.664 492.53 188.514 489.591 199.919L492.784 199.206C495.555 188.069 497.416 176.53 498.24 164.658C501.899 112.712 485.276 63.9968 455.224 26.5302Z" fill="#DDAD9F"/>
<path d="M115.831 136.034C116.677 123.827 118.644 111.977 121.583 100.572L118.39 101.285C115.598 112.423 113.758 123.961 112.934 135.834C109.296 187.779 125.919 236.494 155.971 273.983L159.164 273.27C128.964 236.205 112.214 187.757 115.831 136.034Z" fill="#DDAD9F"/>
<path d="M118.728 136.257C119.595 123.716 121.668 111.554 124.777 99.8596L121.583 100.572C118.644 111.977 116.677 123.85 115.831 136.034C112.215 187.735 128.964 236.183 159.143 273.248L162.337 272.536C132.01 235.915 115.133 187.712 118.728 136.257Z" fill="#D1A4A5"/>
<path d="M452.031 27.243L448.837 27.9558C479.165 64.5982 496.062 112.779 492.467 164.257C491.6 176.798 489.527 188.96 486.418 200.654L489.612 199.941C492.552 188.536 494.518 176.664 495.364 164.479C498.981 112.757 482.231 64.3087 452.031 27.243Z" fill="#D1A4A5"/>
<path d="M448.837 27.9336L445.623 28.6464C476.098 64.8656 493.143 112.779 489.548 164.012C488.639 176.887 486.482 189.383 483.182 201.345L486.397 200.632C489.506 188.937 491.557 176.775 492.446 164.234C496.062 112.779 479.164 64.5983 448.837 27.9336Z" fill="#C69DAA"/>
<path d="M121.626 136.48C122.535 123.605 124.692 111.108 127.991 99.1468L124.777 99.8596C121.668 111.554 119.616 123.716 118.728 136.257C115.133 187.712 132.01 235.915 162.358 272.558L165.572 271.845C135.076 235.626 118.051 187.69 121.626 136.48Z" fill="#C69DAA"/>
<path d="M445.622 28.6687L442.387 29.3815C442.492 29.5152 442.598 29.6265 442.725 29.7602C473.158 65.5116 490.204 113.002 486.651 163.811C485.72 177.043 483.436 189.828 479.968 202.08L483.204 201.367C486.503 189.405 488.66 176.931 489.569 164.034C493.143 112.801 476.098 64.8879 445.622 28.6687Z" fill="#B994AE"/>
<path d="M124.523 136.702C125.453 123.471 127.737 110.685 131.206 98.4338L127.97 99.1466C124.671 111.108 122.514 123.582 121.604 136.48C118.03 187.69 135.055 235.626 165.53 271.845L168.766 271.132C168.66 270.998 168.554 270.887 168.427 270.753C138.015 235.002 120.97 187.489 124.523 136.702Z" fill="#B994AE"/>
<path d="M127.42 136.903C128.372 123.337 130.762 110.217 134.442 97.6987L131.206 98.4115C127.716 110.641 125.453 123.449 124.523 136.68C120.97 187.489 138.016 234.98 168.449 270.731C168.554 270.865 168.66 270.976 168.787 271.11L172.044 270.397C171.579 269.862 171.113 269.35 170.669 268.815C140.702 233.643 123.931 186.888 127.42 136.903Z" fill="#AD8CB1"/>
<path d="M442.725 29.7602C442.619 29.6265 442.513 29.5152 442.386 29.3815L439.129 30.0943C439.595 30.6289 440.06 31.1412 440.504 31.6758C470.472 66.8481 487.264 113.603 483.753 163.588C482.801 177.154 480.412 190.274 476.732 202.793L479.967 202.08C483.457 189.851 485.72 177.043 486.65 163.811C490.203 113.002 473.158 65.4893 442.725 29.7602Z" fill="#AD8CB1"/>
<path d="M440.526 31.6757C440.061 31.1411 439.595 30.6288 439.151 30.0942L435.894 30.807C436.719 31.7203 437.523 32.6558 438.326 33.6136C467.786 68.2067 484.282 114.205 480.856 163.366C479.883 177.287 477.367 190.719 473.475 203.505L476.732 202.792C480.412 190.274 482.802 177.176 483.754 163.588C487.264 113.603 470.472 66.848 440.526 31.6757Z" fill="#A285B5"/>
<path d="M130.318 137.126C131.29 123.204 133.807 109.772 137.698 96.9862L134.442 97.699C130.762 110.218 128.372 123.315 127.42 136.903C123.931 186.888 140.702 233.643 170.648 268.816C171.113 269.35 171.579 269.885 172.023 270.397L175.28 269.684C174.455 268.749 173.651 267.836 172.847 266.878C143.387 232.285 126.892 186.309 130.318 137.126Z" fill="#A285B5"/>
<path d="M133.236 137.348C134.23 123.07 136.895 109.326 140.998 96.2733L137.72 97.0083C133.828 109.794 131.311 123.226 130.339 137.148C126.891 186.309 143.387 232.285 172.847 266.878C173.651 267.813 174.455 268.749 175.279 269.684L178.557 268.949C177.373 267.635 176.189 266.298 175.026 264.962C146.073 230.926 129.852 185.707 133.236 137.348Z" fill="#967DB7"/>
<path d="M438.326 33.6137C437.522 32.6781 436.719 31.7426 435.894 30.807L432.616 31.5421C433.8 32.8563 434.985 34.1928 436.148 35.5293C465.121 69.5656 481.342 114.784 477.98 163.143C476.986 177.421 474.321 191.165 470.218 204.218L473.496 203.483C477.388 190.697 479.904 177.265 480.877 163.343C484.303 114.205 467.786 68.2068 438.326 33.6137Z" fill="#967DB7"/>
<path d="M136.62 137.593C137.656 122.892 140.469 108.77 144.847 95.4046L140.998 96.251C136.895 109.304 134.23 123.048 133.236 137.326C129.853 185.685 146.073 230.904 175.068 264.94C176.21 266.299 177.395 267.613 178.6 268.927L182.449 268.081C180.821 266.321 179.213 264.517 177.648 262.69C149.225 229.344 133.3 185.017 136.62 137.593Z" fill="#967DB7"/>
<path d="M436.127 35.5516C434.985 34.1928 433.8 32.8786 432.595 31.5644L428.746 32.4108C430.374 34.1706 431.982 35.9748 433.547 37.8014C461.949 71.1471 477.853 115.497 474.554 162.898C473.518 177.599 470.705 191.722 466.327 205.087L470.176 204.24C474.279 191.187 476.922 177.443 477.938 163.165C481.343 114.784 465.1 69.5656 436.127 35.5516Z" fill="#967DB7"/>
<path d="M180.186 260.44C152.355 227.763 136.768 184.304 140.004 137.861C141.061 122.736 144.043 108.213 148.717 94.5583L144.826 95.427C140.448 108.792 137.635 122.914 136.599 137.616C133.279 185.017 149.203 229.344 177.606 262.712C179.171 264.539 180.778 266.343 182.407 268.103L186.298 267.234C184.226 265.029 182.174 262.757 180.186 260.44Z" fill="#9585BA"/>
<path d="M433.568 37.8014C432.003 35.9749 430.395 34.1706 428.767 32.4109L424.875 33.2796C426.969 35.4848 429.021 37.7569 431.009 40.0735C458.84 72.751 474.427 116.21 471.191 162.653C470.134 177.778 467.13 192.301 462.478 205.956L466.369 205.087C470.747 191.722 473.56 177.6 474.596 162.898C477.874 115.497 461.97 71.1472 433.568 37.8014Z" fill="#9585BA"/>
<path d="M430.988 40.0512C429 37.7346 426.969 35.4626 424.855 33.2573L420.942 34.1261C423.522 36.7768 426.018 39.4943 428.408 42.3233C455.668 74.3325 470.937 116.9 467.765 162.386C466.687 177.956 463.493 192.836 458.523 206.824L462.436 205.956C467.088 192.279 470.091 177.778 471.149 162.653C474.427 116.187 458.819 72.7509 430.988 40.0512Z" fill="#948FBE"/>
<path d="M182.766 258.168C155.506 226.159 140.236 183.592 143.409 138.106C144.487 122.536 147.681 107.656 152.651 93.6672L148.738 94.536C144.085 108.213 141.082 122.714 140.025 137.839C136.768 184.282 152.376 227.741 180.207 260.418C182.195 262.735 184.225 265.007 186.34 267.212L190.253 266.343C187.651 263.715 185.156 260.997 182.766 258.168Z" fill="#948FBE"/>
<path d="M428.429 42.3232C426.039 39.5165 423.543 36.7767 420.963 34.126L417.008 34.9947C420.075 38.0687 423.036 41.254 425.849 44.573C452.538 75.9139 467.49 117.591 464.381 162.118C463.26 178.112 459.898 193.415 454.589 207.671L458.544 206.802C463.514 192.836 466.686 177.934 467.786 162.363C470.958 116.878 455.689 74.3324 428.429 42.3232Z" fill="#9397BE"/>
<path d="M185.325 255.918C158.636 224.577 143.684 182.901 146.814 138.373C147.934 122.38 151.297 107.077 156.605 92.8207L152.651 93.6894C147.681 107.656 144.508 122.558 143.409 138.128C140.215 183.636 155.506 226.181 182.766 258.19C185.156 260.997 187.652 263.737 190.232 266.388L194.186 265.519C191.099 262.423 188.159 259.237 185.325 255.918Z" fill="#9397BE"/>
<path d="M187.905 253.669C161.787 222.996 147.152 182.21 150.197 138.618C151.339 122.157 154.935 106.498 160.581 91.9075L156.584 92.7985C151.297 107.077 147.913 122.357 146.792 138.351C143.683 182.901 158.636 224.555 185.325 255.896C188.138 259.215 191.099 262.4 194.165 265.474L198.141 264.583C194.567 261.131 191.141 257.478 187.905 253.669Z" fill="#92A0C1"/>
<path d="M425.848 44.5731C423.036 41.2541 420.075 38.0688 417.008 34.9948L413.032 35.8858C416.627 39.3607 420.032 43.0138 423.289 46.8229C449.408 77.4956 464.043 118.259 460.997 161.873C459.855 178.335 456.26 193.994 450.613 208.584L454.61 207.693C459.898 193.415 463.281 178.134 464.402 162.141C467.49 117.591 452.538 75.914 425.848 44.5731Z" fill="#92A0C1"/>
<path d="M423.289 46.8451C420.054 43.0361 416.628 39.383 413.032 35.9081L408.993 36.7991C413.117 40.6972 417.029 44.7958 420.709 49.1172C446.257 79.0993 460.574 118.972 457.592 161.628C456.408 178.535 452.601 194.618 446.574 209.475L450.592 208.584C456.239 194.016 459.813 178.335 460.976 161.873C464.043 118.281 449.408 77.5178 423.289 46.8451Z" fill="#91A9C2"/>
<path d="M190.465 251.396C164.917 221.392 150.599 181.52 153.603 138.863C154.787 121.956 158.594 105.874 164.621 91.0164L160.603 91.9074C154.956 106.475 151.382 122.157 150.219 138.596C147.173 182.188 161.808 222.974 187.927 253.646C191.162 257.455 194.589 261.108 198.184 264.583L202.223 263.692C198.057 259.816 194.144 255.718 190.465 251.396Z" fill="#91A9C2"/>
<path d="M420.709 49.0949C417.029 44.7735 413.117 40.6749 408.993 36.7768L404.932 37.6678C438.051 67.9173 457.592 112.801 454.188 161.361C452.961 178.758 448.9 195.219 442.492 210.366L446.574 209.453C452.58 194.595 456.408 178.513 457.592 161.606C460.574 118.972 446.257 79.0993 420.709 49.0949Z" fill="#91B0C2"/>
<path d="M156.986 139.13C158.213 121.756 162.273 105.272 168.681 90.1254L164.6 91.0387C158.593 105.896 154.765 121.979 153.581 138.885C150.599 181.52 164.917 221.414 190.464 251.419C194.144 255.74 198.057 259.839 202.181 263.737L206.241 262.846C173.122 232.574 153.581 187.69 156.986 139.13Z" fill="#91B0C2"/>
<path d="M160.391 139.376C161.639 121.511 165.974 104.626 172.805 89.2122L168.702 90.1254C162.294 105.272 158.234 121.756 157.007 139.13C153.602 187.69 173.143 232.574 206.262 262.824L210.365 261.91C176.887 232.351 157.007 187.712 160.391 139.376Z" fill="#90B8C3"/>
<path d="M404.932 37.6901L400.83 38.6033C434.308 68.1623 454.188 112.779 450.804 161.116C449.556 178.98 445.221 195.865 438.389 211.279L442.492 210.366C448.9 195.219 452.961 178.735 454.188 161.361C457.592 112.824 438.051 67.9395 404.932 37.6901Z" fill="#90B8C3"/>
<path d="M400.829 38.6033L396.642 39.5388C430.522 68.385 450.782 112.735 447.398 160.871C446.108 179.225 441.498 196.533 434.202 212.215L438.389 211.279C445.22 195.865 449.556 178.98 450.803 161.116C454.187 112.779 434.307 68.1622 400.829 38.6033Z" fill="#8FBDC0"/>
<path d="M163.775 139.643C165.065 121.288 169.675 103.98 176.971 88.2987L172.784 89.2343C165.953 104.649 161.617 121.533 160.37 139.398C156.986 187.734 176.866 232.351 210.344 261.91L214.531 260.975C180.672 232.129 160.412 187.779 163.775 139.643Z" fill="#8FBDC0"/>
<path d="M396.642 39.5165L392.412 40.4521C426.694 68.5409 447.377 112.645 444.015 160.604C442.704 179.47 437.776 197.201 429.972 213.15L434.202 212.215C441.498 196.533 446.109 179.225 447.399 160.871C450.782 112.734 430.522 68.3627 396.642 39.5165Z" fill="#8FC5BF"/>
<path d="M167.18 139.888C168.491 121.021 173.419 103.29 181.223 87.3411L176.993 88.2766C169.697 103.958 165.086 121.266 163.796 139.621C160.434 187.757 180.694 232.129 214.553 260.953L218.783 260.017C184.479 231.951 163.817 187.846 167.18 139.888Z" fill="#8FC5BF"/>
<path d="M170.563 140.133C171.917 120.731 177.183 102.577 185.516 86.3833L181.222 87.3411C173.44 103.29 168.512 121.021 167.18 139.888C163.817 187.846 184.5 231.951 218.782 260.039L223.075 259.082C188.328 231.795 167.222 187.913 170.563 140.133Z" fill="#8ECCBD"/>
<path d="M392.412 40.4745L388.119 41.4323C422.866 68.7192 443.973 112.601 440.631 160.359C439.278 179.76 434.012 197.914 425.679 214.108L429.972 213.15C437.755 197.201 442.683 179.471 444.015 160.604C447.356 112.668 426.694 68.541 392.412 40.4745Z" fill="#8ECCBD"/>
<path d="M388.119 41.4099L379.533 43.3256C415.274 68.9418 437.332 112.378 434.012 159.868C432.574 180.361 426.567 199.407 417.072 216.024L425.679 214.108C433.991 197.914 439.257 179.76 440.631 160.358C443.952 112.579 422.866 68.7191 388.119 41.4099Z" fill="#8ECCBD"/>
<path d="M177.183 140.645C178.621 120.152 184.627 101.107 194.123 84.4897L185.515 86.4054C177.204 102.599 171.938 120.753 170.563 140.155C167.222 187.935 188.328 231.794 223.075 259.081L231.662 257.166C195.921 231.549 173.863 188.135 177.183 140.645Z" fill="#8ECCBD"/>
<path d="M379.512 43.3255L370.523 45.3303C407.449 69.0309 430.691 112.089 427.371 159.378C425.848 181.074 418.933 201.033 408.041 218.028L417.029 216.024C426.525 199.384 432.531 180.361 433.969 159.868C437.332 112.378 415.253 68.9418 379.512 43.3255Z" fill="#A0CCB8"/>
<path d="M183.781 141.135C185.304 119.439 192.22 99.4809 203.111 82.4851L194.123 84.4899C184.627 101.129 178.621 120.152 177.183 140.645C173.863 188.135 195.921 231.572 231.662 257.188L240.65 255.206C203.724 231.483 180.482 188.425 183.781 141.135Z" fill="#A0CCB8"/>
<path d="M370.545 45.3304L361.049 47.4465C399.413 68.8973 424.093 111.665 420.794 158.888C419.186 181.921 411.129 202.882 398.567 220.145L408.083 218.029C418.975 201.033 425.891 181.052 427.413 159.378C430.712 112.066 407.47 69.031 370.545 45.3304Z" fill="#B0CCB2"/>
<path d="M190.401 141.625C192.008 118.593 200.066 97.6321 212.628 80.369L203.111 82.4851C192.219 99.4809 185.304 119.462 183.781 141.135C180.482 188.425 203.724 231.483 240.629 255.183L250.124 253.067C211.782 231.616 187.102 188.848 190.401 141.625Z" fill="#B0CCB2"/>
<path d="M361.028 47.4242L350.771 49.6962C390.932 68.4295 417.474 110.997 414.174 158.376C412.461 182.968 402.945 205.064 388.289 222.417L398.567 220.145C411.129 202.882 419.187 181.898 420.794 158.888C424.093 111.643 399.392 68.8973 361.028 47.4242Z" fill="#BCCAAC"/>
<path d="M197.02 142.115C198.734 117.524 208.25 95.4269 222.906 78.0746L212.628 80.3467C200.066 97.6098 192.008 118.593 190.401 141.603C187.102 188.826 211.782 231.594 250.146 253.045L260.403 250.773C220.242 232.062 193.7 189.472 197.02 142.115Z" fill="#BCCAAC"/>
<path d="M203.619 142.605C205.48 116.098 216.964 92.6425 234.369 75.5353L222.885 78.0747C208.208 95.4046 198.712 117.524 196.999 142.115C193.679 189.472 220.242 232.062 260.403 250.795L271.865 248.256C229.357 233.064 200.277 190.43 203.619 142.605Z" fill="#CAC9A6"/>
<path d="M350.771 49.6963L339.308 52.2356C381.817 67.4049 410.896 110.039 407.555 157.864C405.694 184.371 394.21 207.827 376.805 224.934L388.288 222.395C402.965 205.065 412.461 182.945 414.174 158.354C417.494 111.019 390.932 68.4296 350.771 49.6963Z" fill="#CAC9A6"/>
<path d="M407.555 157.886C410.896 110.061 381.817 67.427 339.308 52.2578L325.583 55.3094C371.496 65.3555 404.383 108.458 400.956 157.396C398.926 186.554 384.418 211.747 363.1 228.008L376.805 224.956C394.21 207.849 405.715 184.393 407.555 157.886Z" fill="#D6C7A2"/>
<path d="M210.238 143.118C212.268 113.96 226.776 88.7666 248.094 72.5059L234.39 75.5575C216.985 92.6647 205.48 116.12 203.64 142.628C200.298 190.452 229.378 233.086 271.886 248.256L285.612 245.204C239.677 235.158 206.812 192.034 210.238 143.118Z" fill="#D6C7A2"/>
<path d="M216.837 143.608C219.226 109.527 239.91 81.2377 268.46 67.9841L248.073 72.5059C226.776 88.7667 212.269 113.96 210.217 143.118C206.791 192.056 239.677 235.18 285.591 245.204L306.041 240.66C303.8 240.66 301.537 240.593 299.274 240.415C250.273 236.74 213.368 193.392 216.837 143.608Z" fill="#E1C59C"/>
<path d="M400.956 157.396C404.383 108.458 371.496 65.3333 325.583 55.3095L305.132 59.8536C307.374 59.8536 309.637 59.9204 311.9 60.0986C360.922 63.774 397.826 107.099 394.337 156.906C391.947 190.987 371.264 219.276 342.713 232.53L363.1 228.008C384.397 211.747 398.905 186.554 400.956 157.396Z" fill="#E1C59C"/>
<path d="M299.76 233.688C254.397 230.302 220.242 190.185 223.456 144.098C226.671 98.0108 266.071 63.3954 311.434 66.8035C356.798 70.1893 390.953 110.307 387.739 156.394C384.503 202.481 345.124 237.096 299.76 233.688ZM394.337 156.884C397.826 107.077 360.901 63.7518 311.9 60.0764C309.637 59.8982 307.374 59.8314 305.132 59.8314L268.482 67.9618C239.931 81.2377 219.248 109.505 216.858 143.585C213.368 193.392 250.294 236.717 299.295 240.393C301.558 240.571 303.821 240.638 306.063 240.638L342.713 232.507C371.264 219.254 391.947 190.987 394.337 156.884Z" fill="#ECC296"/>
<path d="M381.119 155.904C378.158 198.271 341.931 230.102 300.226 226.983C258.521 223.865 227.115 186.977 230.076 144.588C233.037 102.221 269.264 70.3897 310.969 73.5082C352.674 76.649 384.08 113.514 381.119 155.904ZM311.435 66.8034C266.071 63.4176 226.692 98.0107 223.456 144.098C220.242 190.185 254.397 230.302 299.761 233.688C345.124 237.074 384.503 202.481 387.739 156.394C390.953 110.307 356.798 70.1892 311.435 66.8034Z" fill="#F3BC8F"/>
<path d="M376.551 155.569C373.76 195.397 339.731 225.29 300.543 222.35C261.355 219.41 231.831 184.75 234.623 144.944C237.414 105.116 271.443 75.2233 310.631 78.1636C349.819 81.0817 379.343 115.742 376.551 155.569ZM310.969 73.5082C269.264 70.3897 233.037 102.198 230.076 144.588C227.115 186.955 258.521 223.842 300.226 226.983C341.931 230.102 378.158 198.293 381.119 155.903C384.08 113.514 352.674 76.6489 310.969 73.5082Z" fill="#F3BC8F"/>
<path d="M372.004 155.213C369.402 192.479 337.553 220.457 300.881 217.717C264.209 214.977 236.589 182.544 239.191 145.278C241.792 108.012 273.642 80.0348 310.313 82.7746C346.985 85.5145 374.605 117.947 372.004 155.213ZM310.631 78.1414C271.442 75.2011 237.414 105.116 234.622 144.922C231.831 184.75 261.354 219.41 300.543 222.328C339.731 225.268 373.759 195.353 376.551 155.547C379.342 115.742 349.819 81.0817 310.631 78.1414Z" fill="#E9B598"/>
<path d="M367.436 154.879C365.025 189.583 335.353 215.645 301.198 213.084C267.043 210.522 241.305 180.317 243.738 145.613C246.17 110.908 275.82 84.8463 309.996 87.4079C344.151 89.9696 369.868 120.174 367.436 154.879ZM310.313 82.7747C273.642 80.0349 241.792 108.012 239.191 145.278C236.589 182.545 264.209 214.977 300.881 217.717C337.553 220.457 369.403 192.479 372.004 155.213C374.605 117.947 346.985 85.5146 310.313 82.7747Z" fill="#DDAD9F"/>
<path d="M362.889 154.545C360.648 186.688 333.175 210.834 301.516 208.473C269.878 206.112 246.043 178.112 248.285 145.969C250.527 113.826 277.999 89.68 309.658 92.0412C341.297 94.4023 365.131 122.38 362.889 154.545ZM309.997 87.408C275.842 84.8463 246.17 110.908 243.738 145.613C241.306 180.317 267.044 210.522 301.199 213.084C335.354 215.645 365.025 189.583 367.436 154.879C369.868 120.175 344.152 89.9696 309.997 87.408Z" fill="#D1A4A5"/>
<path d="M358.321 154.188C356.269 183.792 330.976 206 301.833 203.839C272.711 201.656 250.78 175.906 252.832 146.303C254.904 116.722 280.198 94.4913 309.319 96.6742C338.462 98.8572 360.393 124.607 358.321 154.188ZM309.658 92.041C278.02 89.6799 250.547 113.804 248.285 145.969C246.043 178.112 269.856 206.089 301.516 208.473C333.154 210.834 360.626 186.71 362.889 154.545C365.131 122.38 341.296 94.4022 309.658 92.041Z" fill="#C69DAA"/>
<path d="M353.774 153.854C351.892 180.896 328.776 201.189 302.171 199.206C275.566 197.224 255.517 173.679 257.421 146.637C259.303 119.595 282.418 99.3029 309.023 101.285C335.628 103.29 355.656 126.813 353.774 153.854ZM309.341 96.6744C280.219 94.4915 254.925 116.722 252.853 146.303C250.78 175.884 272.711 201.657 301.833 203.84C330.954 206.022 356.248 183.792 358.321 154.211C360.393 124.607 338.462 98.8574 309.341 96.6744Z" fill="#B994AE"/>
<path d="M349.206 153.52C347.493 178 326.577 196.377 302.489 194.573C278.4 192.769 260.255 171.474 261.968 146.994C263.681 122.513 284.597 104.137 308.685 105.941C332.795 107.723 350.919 129.04 349.206 153.52ZM309.023 101.308C282.419 99.3251 259.303 119.618 257.421 146.66C255.539 173.701 275.566 197.224 302.171 199.229C328.776 201.211 351.892 180.919 353.774 153.877C355.656 126.813 335.628 103.29 309.023 101.308Z" fill="#AD8CB1"/>
<path d="M344.659 153.164C343.136 175.082 324.399 191.544 302.806 189.94C281.234 188.314 264.992 169.246 266.515 147.328C268.038 125.409 286.775 108.948 308.368 110.552C329.94 112.178 346.203 131.245 344.659 153.164ZM308.685 105.918C284.597 104.114 263.681 122.491 261.968 146.971C260.255 171.452 278.401 192.746 302.489 194.551C326.577 196.355 347.493 177.978 349.206 153.498C350.919 129.04 332.795 107.723 308.685 105.918Z" fill="#A285B5"/>
<path d="M340.112 152.83C338.758 172.187 322.199 186.732 303.144 185.307C284.089 183.881 269.729 167.019 271.083 147.662C272.436 128.305 288.996 113.759 308.051 115.185C327.106 116.61 341.465 133.473 340.112 152.83ZM308.368 110.552C286.796 108.926 268.059 125.409 266.515 147.328C264.971 169.246 281.234 188.336 302.806 189.94C324.377 191.544 343.115 175.105 344.659 153.164C346.203 131.245 329.939 112.178 308.368 110.552Z" fill="#967DB7"/>
<path d="M336.961 152.607C335.734 170.204 320.676 183.435 303.356 182.143C286.035 180.852 272.986 165.526 274.213 147.929C275.439 130.332 290.497 117.1 307.818 118.392C325.139 119.662 338.187 134.987 336.961 152.607ZM308.051 115.185C288.996 113.759 272.436 128.305 271.083 147.662C269.729 167.019 284.089 183.881 303.144 185.307C322.199 186.732 338.758 172.187 340.112 152.83C341.465 133.473 327.105 116.61 308.051 115.185Z" fill="#967DB7"/>
<path d="M333.831 152.362C332.731 168.199 319.175 180.094 303.588 178.936C288.002 177.778 276.243 163.989 277.364 148.13C278.464 132.292 292.02 120.397 307.607 121.556C323.193 122.736 334.931 136.524 333.831 152.362ZM307.818 118.37C290.497 117.078 275.44 130.287 274.213 147.907C272.986 165.504 286.035 180.829 303.356 182.121C320.676 183.413 335.734 170.204 336.961 152.585C338.187 134.987 325.139 119.662 307.818 118.37Z" fill="#9184BC"/>
<path d="M330.68 152.117C329.686 166.194 317.652 176.775 303.8 175.728C289.947 174.681 279.5 162.43 280.494 148.352C281.488 134.274 293.522 123.694 307.374 124.741C321.226 125.788 331.674 138.039 330.68 152.117ZM307.606 121.555C292.02 120.397 278.464 132.292 277.364 148.129C276.264 163.967 288.002 177.755 303.588 178.936C319.175 180.094 332.731 168.199 333.831 152.362C334.93 136.524 323.193 122.736 307.606 121.555Z" fill="#8B8DC0"/>
<path d="M327.549 151.894C326.682 164.212 316.15 173.478 304.032 172.565C291.893 171.652 282.778 160.938 283.624 148.62C284.491 136.301 295.023 127.035 307.141 127.948C319.28 128.839 328.416 139.576 327.549 151.894ZM307.373 124.741C293.521 123.694 281.466 134.274 280.494 148.352C279.5 162.43 289.947 174.704 303.799 175.728C317.652 176.775 329.706 166.195 330.679 152.117C331.673 138.039 321.226 125.788 307.373 124.741Z" fill="#8495C6"/>
<path d="M324.42 151.649C323.68 162.207 314.649 170.137 304.265 169.358C293.86 168.578 286.035 159.378 286.775 148.82C287.515 138.262 296.546 130.332 306.93 131.111C317.335 131.891 325.16 141.091 324.42 151.649ZM307.162 127.926C295.023 127.013 284.512 136.279 283.645 148.597C282.778 160.915 291.914 171.652 304.054 172.543C316.193 173.456 326.704 164.19 327.571 151.872C328.417 139.576 319.281 128.839 307.162 127.926Z" fill="#7F9CC9"/>
<path d="M321.269 151.426C320.655 160.225 313.126 166.84 304.477 166.194C295.806 165.548 289.292 157.886 289.905 149.087C290.518 140.289 298.047 133.673 306.697 134.319C315.368 134.965 321.903 142.628 321.269 151.426ZM306.93 131.134C296.525 130.354 287.515 138.284 286.775 148.842C286.035 159.401 293.86 168.6 304.265 169.38C314.67 170.159 323.679 162.23 324.42 151.671C325.16 141.091 317.335 131.891 306.93 131.134Z" fill="#77A3CE"/>
<path d="M318.138 151.181C317.652 158.22 311.625 163.522 304.688 162.987C297.751 162.475 292.528 156.349 293.035 149.288C293.521 142.249 299.549 136.948 306.486 137.482C313.422 138.017 318.625 144.142 318.138 151.181ZM306.697 134.319C298.026 133.673 290.518 140.289 289.905 149.088C289.292 157.886 295.806 165.549 304.476 166.195C313.147 166.841 320.655 160.225 321.268 151.426C321.903 142.628 315.368 134.965 306.697 134.319Z" fill="#6FA8CF"/>
<path d="M315.009 150.958C314.649 156.238 310.123 160.203 304.921 159.824C299.718 159.445 295.806 154.834 296.186 149.555C296.546 144.276 301.072 140.311 306.274 140.69C311.456 141.068 315.368 145.679 315.009 150.958ZM306.486 137.504C299.549 136.992 293.543 142.271 293.035 149.31C292.549 156.349 297.751 162.475 304.688 163.009C311.625 163.522 317.631 158.242 318.139 151.203C318.625 144.142 313.422 138.017 306.486 137.504Z" fill="#65AED2"/>
<path d="M311.857 150.713C311.604 154.233 308.6 156.884 305.132 156.616C301.664 156.349 299.062 153.297 299.295 149.778C299.549 146.258 302.552 143.608 306.02 143.875C309.51 144.142 312.111 147.194 311.857 150.713ZM306.253 140.69C301.05 140.311 296.546 144.276 296.165 149.555C295.806 154.834 299.718 159.423 304.899 159.824C310.102 160.203 314.607 156.238 314.987 150.958C315.368 145.679 311.455 141.068 306.253 140.69Z" fill="#5AB3D4"/>
<path d="M308.727 150.491C308.6 152.25 307.099 153.565 305.364 153.453C303.63 153.32 302.319 151.783 302.446 150.023C302.573 148.263 304.074 146.949 305.809 147.06C307.543 147.194 308.854 148.731 308.727 150.491ZM306.041 143.875C302.573 143.608 299.57 146.258 299.316 149.778C299.062 153.297 301.685 156.371 305.153 156.616C308.621 156.884 311.624 154.233 311.878 150.713C312.111 147.194 309.51 144.142 306.041 143.875Z" fill="#4DB7D6"/>
<path d="M305.808 147.06C304.074 146.927 302.573 148.263 302.446 150.023C302.319 151.783 303.63 153.32 305.364 153.453C307.099 153.587 308.6 152.251 308.727 150.491C308.854 148.731 307.543 147.194 305.808 147.06Z" fill="#3FBDD8"/>
<path d="M253 334.267L54.814 339L54 267.733L252.186 263L253 334.267Z" fill="#2960A5"/>
<path d="M81.164 293.592C82.136 293.664 85.916 293.628 87.5 293.592C87.464 292.584 87.464 290.388 87.5 289.272C84.368 289.236 78.176 289.272 75.08 289.272C75.08 292.476 75.224 310.8 75.296 318C76.808 318.036 79.04 318.036 80.264 318.036C84.296 318.108 90.164 315.624 90.164 310.944C90.164 305.796 85.988 303.384 81.236 302.916L81.164 293.592ZM84.872 312.312C83.936 313.032 82.568 313.464 81.308 313.644L81.272 307.236C85.772 307.812 85.808 310.872 85.808 310.944C85.808 311.52 85.304 312.024 84.872 312.312ZM107.003 294.204V289.2H97.643H91.955V294.204V298.812V303.816V312.096V318H97.643H107.003V312.096H97.643L97.859 303.816H106.139V298.812H97.643V294.204H107.003ZM116.562 318.18C116.67 318.18 116.778 318.18 116.922 318.18C121.458 318 125.382 313.104 125.382 309.216C125.382 307.02 124.122 304.932 122.25 303.384C122.718 303.024 123.15 302.628 123.546 302.232C124.986 300.684 125.742 298.884 125.67 297.156C125.454 293.124 122.538 288.84 117.534 288.84C113.826 288.84 110.982 290.784 109.686 294.204L114.114 295.896C114.906 293.844 116.454 293.592 117.534 293.592C119.874 293.592 120.846 295.86 120.918 297.372C120.918 297.696 120.702 298.308 120.09 298.956C118.938 300.18 117.102 300.936 115.374 300.936V305.688C118.434 305.688 120.63 307.992 120.63 309.216C120.63 310.8 118.47 313.392 116.706 313.464C116.13 313.5 114.438 313.572 112.494 310.368L108.426 312.78C111.09 317.208 114.258 318.18 116.562 318.18ZM151.268 296.292L154.616 293.664C152.708 288.84 148.784 288.84 148.784 288.84C143.816 288.84 137.228 293.232 137.228 303.456C137.228 313.68 142.628 318.468 146.732 318.468C150.836 318.468 153.752 314.256 154.184 308.712C152.996 307.992 151.844 307.704 150.512 307.092C149.648 310.188 149.072 311.052 146.444 311.052C144.536 311.052 143.348 308.712 143.348 303.888C143.348 298.632 145.832 293.952 148.028 293.952C150.224 293.952 150.512 295.428 151.268 296.292ZM155.325 289.2L161.445 303.384L156.009 318H162.417L173.829 289.2H167.421L164.217 298.092L159.789 289.2H155.325ZM190.148 294.204V289.2H180.788H175.1V294.204V298.812V303.816V312.096V318H180.788H190.148V312.096H180.788L181.004 303.816H189.284V298.812H180.788V294.204H190.148ZM207.483 289.2H191.931V295.248H197.115V318H202.587V295.248H207.483V289.2ZM231.591 289.2H225.795V318.144H231.591V289.2ZM219.171 312.492C219.603 312.168 220.107 311.664 220.107 311.124C220.107 310.188 220.107 307.92 215.535 307.38L215.571 313.824C216.831 313.644 218.199 313.212 219.171 312.492ZM215.499 302.952C223.563 303.78 224.499 308.82 224.499 311.124C224.499 312.96 223.527 314.724 221.799 315.984C219.819 317.46 217.047 318.252 214.491 318.252C213.987 318.252 213.483 318.216 212.979 318.144L209.487 318.18L209.271 290.028L215.391 289.992L215.499 302.952Z" fill="white"/>
<path d="M146.461 133.698L136.386 129.628L153.596 227.605L136.326 129.661L114.156 133.57L120.852 171.542L86.6879 177.566L86.6655 177.439L95.763 175.965L90 143.653L79.9962 139.615L79.9924 139.594L79.9713 139.598L79.9252 139.584L79.929 139.605L57.8228 143.503L75.0967 241.468L75.2448 241.442L85.2735 245.497L107.274 241.618L100.157 201.256L125.328 196.927L131.43 231.535L131.473 231.527L141.523 235.579L163.629 231.681L163.675 231.695L163.671 231.674L163.734 231.663L146.461 133.698Z" fill="#232F40"/>
<path d="M342.66 169.206C340.706 158.121 334.412 151.619 323.774 149.677C323.799 149.695 323.824 149.712 323.849 149.729C323.803 149.716 323.76 149.723 323.714 149.71C323.441 149.518 323.142 149.309 322.868 149.117C329.337 143.745 331.784 136.595 330.203 127.626C329.002 120.814 326.082 115.636 321.451 112.134C320.163 111.14 318.729 110.302 317.182 109.571C315.139 108.623 312.943 107.92 310.551 107.469L310.576 107.486C309.51 106.758 308.366 106.087 307.132 105.52C301.024 102.671 293.369 102.057 284.209 103.672L251.843 109.379L269.114 207.323L269.092 207.327L269.114 207.323L269.117 207.344L269.054 207.356L279.196 211.435L311.985 205.653C319.875 204.262 326.264 202.023 331.168 198.911C341.199 192.584 345.036 182.681 342.66 169.206ZM313.3 145.569C312.985 145.516 312.67 145.462 312.359 145.43C312.674 145.483 312.985 145.516 313.3 145.569ZM320.617 147.856C320.596 147.86 320.592 147.839 320.571 147.843C320.571 147.843 320.592 147.839 320.617 147.856ZM318.844 147.078C318.752 147.051 318.681 147.02 318.585 146.971C318.681 147.02 318.773 147.047 318.844 147.078ZM318.121 146.813C318.004 146.768 317.887 146.724 317.749 146.682C317.866 146.727 318.004 146.768 318.121 146.813ZM317.055 146.456C316.896 146.419 316.754 146.356 316.595 146.319C316.758 146.377 316.917 146.415 317.055 146.456ZM316.23 146.231C316.046 146.176 315.865 146.142 315.681 146.087C315.862 146.121 316.046 146.176 316.23 146.231ZM315.384 146.009C315.111 145.948 314.814 145.87 314.542 145.808C314.814 145.87 315.087 145.931 315.384 146.009ZM314.269 145.747C314.043 145.7 313.816 145.653 313.59 145.606C313.82 145.674 314.043 145.7 314.269 145.747ZM326.178 151.805C326.174 151.784 326.153 151.788 326.149 151.767C326.174 151.784 326.178 151.805 326.178 151.805ZM332.317 163.984C332.294 163.858 332.255 163.755 332.232 163.629C332.251 163.734 332.273 163.861 332.317 163.984ZM332.044 162.811C332.022 162.684 331.975 162.54 331.952 162.413C331.979 162.561 332.001 162.688 332.044 162.811ZM331.734 161.666C331.69 161.543 331.668 161.416 331.624 161.293C331.668 161.416 331.69 161.543 331.734 161.666ZM331.352 160.49C331.316 160.409 331.301 160.325 331.265 160.244C331.301 160.325 331.337 160.406 331.352 160.49ZM330.461 158.161C330.429 158.101 330.393 158.02 330.36 157.96C330.396 158.041 330.429 158.101 330.461 158.161ZM330.003 157.173C329.967 157.092 329.935 157.032 329.899 156.951C329.914 157.036 329.971 157.113 330.003 157.173ZM329.482 156.196C329.45 156.136 329.417 156.076 329.385 156.017C329.417 156.076 329.45 156.136 329.482 156.196ZM327.595 153.409C327.591 153.388 327.566 153.371 327.566 153.371C327.566 153.371 327.591 153.388 327.595 153.409ZM326.93 152.611C326.906 152.593 326.877 152.554 326.852 152.537C326.877 152.554 326.902 152.572 326.93 152.611ZM321.167 148.13L321.192 148.148C321.192 148.148 321.192 148.148 321.167 148.13Z" fill="#232F40"/>
<path d="M432.896 83.2349L422.712 79.1633L422.73 79.2691L422.667 79.2803L422.621 79.2666L422.625 79.2877L400.582 83.1744L411.548 145.368C408.505 139.492 403.858 135.403 397.586 133.107C396.19 132.611 394.717 132.173 393.131 131.842C393.156 131.859 393.206 131.894 393.231 131.911C393.164 131.902 393.118 131.888 393.051 131.878C391.349 130.76 389.482 129.824 387.43 129.074C381.881 127.042 374.791 126.416 366.199 127.168L360.712 96.0502L350.665 92.0197L350.658 91.9774L350.573 91.9923L350.527 91.9786L350.531 91.9998L350.468 92.0109L328.509 95.8827L345.772 193.784L345.878 193.766L355.847 197.853L384.257 192.844C390.244 191.788 395.419 190.091 399.787 187.772C403.178 185.974 406.089 183.803 408.495 181.241C412.309 177.144 414.581 172.338 415.33 166.818L417.837 181.034L417.795 181.041L417.845 181.076L417.848 181.097L417.869 181.093L427.792 185.168L427.877 185.153L427.923 185.166L450.093 181.257L450.067 181.109L450.184 181.154L432.917 83.2312L432.896 83.2349ZM404.858 151.957C404.798 151.618 404.742 151.301 404.661 150.966C404.738 151.28 404.798 151.618 404.858 151.957ZM404.605 150.649C404.564 150.416 404.502 150.187 404.461 149.955C404.506 150.209 404.564 150.416 404.605 150.649ZM404.384 149.641C404.322 149.412 404.281 149.179 404.219 148.95C404.281 149.179 404.343 149.408 404.384 149.641ZM404.149 148.679C404.072 148.366 403.998 148.073 403.9 147.763C403.998 148.073 404.072 148.366 404.149 148.679ZM403.863 147.552C403.801 147.323 403.735 147.073 403.651 146.847C403.717 147.098 403.78 147.327 403.863 147.552ZM403.553 146.538C403.498 146.351 403.419 146.147 403.364 145.96C403.419 146.147 403.477 146.355 403.553 146.538ZM403.241 145.633C403.161 145.429 403.099 145.2 403.02 144.996C403.103 145.221 403.183 145.425 403.241 145.633ZM402.936 144.771C402.845 144.503 402.734 144.239 402.618 143.954C402.734 144.239 402.845 144.503 402.936 144.771ZM402.502 143.669C402.426 143.486 402.354 143.325 402.278 143.142C402.354 143.325 402.43 143.507 402.502 143.669ZM402.134 142.818C402.062 142.656 401.99 142.495 401.917 142.333C401.99 142.495 402.062 142.656 402.134 142.818ZM401.777 142.03C401.676 141.83 401.579 141.651 401.478 141.45C401.579 141.651 401.676 141.83 401.777 142.03ZM401.284 141.092C401.187 140.913 401.09 140.734 400.997 140.576C401.111 140.73 401.208 140.909 401.284 141.092ZM400.828 140.235C400.759 140.094 400.673 139.978 400.605 139.838C400.67 139.957 400.738 140.098 400.828 140.235ZM400.394 139.504C400.308 139.388 400.239 139.248 400.153 139.132C400.218 139.252 400.304 139.367 400.394 139.504ZM399.942 138.799C399.82 138.602 399.673 138.388 399.53 138.195C399.673 138.388 399.799 138.606 399.942 138.799ZM399.298 137.865C399.212 137.749 399.126 137.634 399.044 137.539C399.13 137.655 399.212 137.749 399.298 137.865ZM398.786 137.192C398.704 137.097 398.622 137.003 398.557 136.883C398.643 136.999 398.704 137.097 398.786 137.192ZM398.282 136.561C398.2 136.466 398.118 136.372 398.036 136.277C398.122 136.393 398.2 136.466 398.282 136.561ZM397.543 135.71C397.461 135.615 397.383 135.542 397.301 135.447C397.383 135.542 397.465 135.636 397.543 135.71ZM396.983 135.132C396.905 135.059 396.823 134.964 396.745 134.891C396.823 134.964 396.901 135.038 396.983 135.132ZM396.427 134.576C396.349 134.503 396.271 134.429 396.192 134.356C396.271 134.429 396.349 134.503 396.427 134.576ZM395.854 134.045C395.779 133.992 395.701 133.919 395.647 133.863C395.701 133.919 395.775 133.971 395.854 134.045ZM394.953 133.266C394.878 133.213 394.8 133.14 394.725 133.088C394.804 133.161 394.878 133.213 394.953 133.266ZM394.348 132.805C394.274 132.753 394.195 132.679 394.099 132.631C394.195 132.679 394.27 132.732 394.348 132.805ZM393.722 132.348C393.648 132.296 393.548 132.226 393.474 132.174C393.569 132.223 393.644 132.275 393.722 132.348Z" fill="#232F40"/>
<path d="M466.963 65.7768C472.012 69.4234 477.562 70.7133 483.633 69.6428C489.895 68.5387 494.809 65.3601 498.355 60.1107C501.49 55.5009 502.809 50.4914 502.339 45.0997C502.268 44.3269 502.172 43.5368 502.03 42.7329L491.995 38.7658C491.982 38.8119 491.993 38.8753 491.979 38.9214C491.968 38.8579 491.961 38.8156 491.949 38.7521L478.22 41.1729C479.343 47.5403 477.493 51.4 472.693 52.7482C471.964 51.459 471.437 49.9595 471.139 48.2671L470.93 48.1949L461.079 44.2826C461.075 44.2615 461.072 44.2403 461.068 44.2191L447.339 46.64C448.428 52.817 451.526 57.7674 456.622 61.5583C459.872 63.9081 463.307 65.3308 466.963 65.7768ZM472.693 52.7482C472.506 52.8029 472.337 52.8327 472.15 52.8875C472.337 52.8327 472.506 52.8029 472.693 52.7482ZM524.688 67.0715L524.676 67.008L514.609 62.9812L514.602 62.9389L514.517 62.9538L514.471 62.9401L514.475 62.9613L496.345 66.1579L465.61 133.436L465.58 133.267L465.614 133.457L472.365 118.678L465.106 77.5118L455.112 73.4066L455.12 73.449L455.003 73.4041L455.01 73.4464L432.883 77.3481L450.153 175.292L450.217 175.281L460.228 179.361L478.42 176.153L478.775 176.309L478.882 176.05L478.946 176.039L478.9 176.025L502.723 123.358L502.716 123.316L502.792 123.128L510.118 164.675L510.033 164.69L510.079 164.704L510.016 164.715L520.2 168.786L541.862 164.967L542.004 165.029L524.688 67.0715Z" fill="#232F40"/>
<path d="M240.973 131.974C236.306 128.761 231.4 126.42 226.263 124.992C226.383 125.058 226.529 125.142 226.65 125.208C226.511 125.166 226.373 125.125 226.256 125.081C216.403 119.795 205.543 118.198 193.675 120.29C179.925 122.715 169.08 129.491 161.122 140.644C153.164 151.797 150.385 164.24 152.806 177.969C155.231 191.72 162.084 202.508 173.413 210.347C178.212 213.689 183.259 216.093 188.493 217.569C198.363 222.83 209.097 224.449 220.689 222.405C234.609 219.951 245.472 213.15 253.295 201.977C257.459 196.029 260.162 189.707 261.423 183.007C262.54 177.095 262.535 170.88 261.39 164.385C258.914 150.47 252.124 139.67 240.973 131.974ZM237.443 192.732C233.311 199.48 227.353 203.541 219.568 204.914C211.953 206.256 205.057 204.506 198.881 199.662C192.704 194.818 188.937 188.546 187.58 180.846C186.222 173.146 187.624 166.006 191.786 159.427C195.948 152.847 201.837 148.886 209.452 147.543C217.237 146.171 224.135 147.812 230.147 152.466C236.159 157.121 239.859 163.383 241.247 171.252C242.634 179.122 241.367 186.281 237.443 192.732Z" fill="#232F40"/>
<path d="M286.778 140.758L284.533 128.023L293.163 126.501C293.777 126.393 294.373 126.309 294.952 126.251C293.179 122.877 289.46 121.701 283.769 122.704L275.138 124.226L278.316 142.25L286.059 140.884C286.316 140.861 286.545 140.799 286.778 140.758ZM358.589 96.0102L349.085 92.2112L355.192 126.23C358.196 125.7 361.028 125.31 363.714 125.076L358.589 96.0102ZM308.289 143.007C312.136 143.55 315.396 144.72 318.103 146.467C324.134 141.456 326.423 134.77 324.95 126.415C323.518 118.291 319.474 112.679 312.82 109.577C310.919 108.691 308.865 108.05 306.65 107.611C311.395 110.897 314.37 115.891 315.556 122.618C317.063 131.164 314.64 137.96 308.289 143.007ZM195.494 194.435C194.78 193.972 194.079 193.463 193.396 192.929C187.22 188.086 183.453 181.814 182.095 174.114C180.737 166.413 182.139 159.274 186.301 152.694C190.463 146.115 196.352 142.154 203.968 140.811C207.331 140.218 210.534 140.198 213.573 140.731C207.965 137.009 201.639 135.768 194.573 137.014C186.958 138.357 181.069 142.318 176.907 148.898C172.745 155.477 171.343 162.617 172.701 170.317C174.059 178.017 177.826 184.289 184.002 189.133C187.574 191.949 191.419 193.714 195.494 194.435ZM290.534 162.06L302.021 160.034C303.121 159.84 304.169 159.721 305.164 159.677C302.873 156.329 298.698 155.167 292.627 156.238L281.14 158.263L284.766 178.825L293.227 177.333L290.534 162.06ZM370.54 163.788L367.653 147.415L372.624 146.538C374.485 146.21 376.154 146.025 377.651 145.979C376.717 144.639 375.517 143.651 374.081 143.053C371.607 142.006 367.989 141.903 363.23 142.742L358.258 143.618L362.108 165.449L367.079 164.573C368.327 164.353 369.479 164.084 370.54 163.788ZM462.921 77.6136L453.587 73.7847L463.396 129.791L469.691 116.008L462.921 77.6136ZM488.034 41.5364C487.787 45.3316 486.822 54.2048 484.554 57.5492C481.231 62.4539 476.65 65.421 470.812 66.4505C468.696 66.8235 466.634 66.8817 464.651 66.6425C469.351 70.0452 474.536 71.2467 480.206 70.247C486.044 69.2175 490.625 66.2504 493.948 61.3457C497.271 56.441 498.418 51.0694 497.388 45.2309L488.034 41.5364ZM468.88 54.751C469.281 54.6801 469.658 54.5918 470.032 54.4824C469.339 53.2741 468.853 51.8766 468.577 50.3112L459.264 46.6092C459.615 47.1145 457.549 50.118 457.995 50.5412C464.838 57.1869 466.256 55.2135 468.88 54.751ZM432.578 171.738L411.949 175.354L421.284 179.183L441.973 175.535L425.859 84.1486L416.355 80.3496L432.578 171.738ZM392.922 130.657C391.618 130.189 390.241 129.799 388.765 129.471C394.568 133.312 398.243 139.556 399.769 148.208C401.455 157.77 399.438 165.629 393.718 171.785C388.571 177.23 381.047 180.825 371.147 182.57L344.679 187.215L354.014 191.044L380.541 186.367C390.441 184.621 397.965 181.026 403.112 175.582C406.724 171.695 408.846 167.154 409.514 161.911L406.052 142.28C403.21 136.674 398.84 132.798 392.922 130.657ZM448.969 168.826L458.346 172.648L475.735 169.582L498.085 120.185L494.967 102.5L466.341 165.785L448.969 168.826ZM509.01 64.012L525.234 155.401L504.816 158.979L514.32 162.778L534.628 159.197L518.514 67.811L509.01 64.012ZM156.645 225.846L140.531 134.46L131.197 130.631L147.251 222.049L156.645 225.846ZM318.896 147.004C323.22 150.124 325.966 154.94 327.108 161.413C330.405 180.113 320.884 191.433 298.546 195.372L267.889 200.755L277.351 204.562L307.94 199.168C330.279 195.229 339.799 183.91 336.502 165.209C334.678 154.865 328.812 148.811 318.896 147.004ZM222.746 122.864C224.386 123.753 225.998 124.733 227.587 125.827C238.365 133.262 244.939 143.707 247.312 157.161C249.669 170.531 247.067 182.615 239.505 193.415C231.943 204.215 221.435 210.801 207.981 213.173C200.344 214.52 193.094 214.227 186.232 212.297C195.769 217.398 206.142 218.95 217.375 216.97C230.829 214.597 241.337 208.011 248.899 197.211C256.461 186.412 259.063 174.327 256.706 160.958C254.334 147.504 247.759 137.059 236.981 129.624C232.481 126.491 227.724 124.254 222.746 122.864Z" fill="#399FCF"/>
<path d="M468.692 54.6751C469.094 54.6043 469.471 54.516 469.844 54.4065C469.151 53.1982 468.665 51.8007 468.389 50.2353L459.077 46.5334C459.428 47.0386 457.362 50.0422 457.807 50.4653C464.65 57.111 466.069 55.1377 468.692 54.6751Z" fill="#F4B0C9"/>
<path d="M488.037 41.4269C487.79 45.2221 486.824 54.0953 484.557 57.4398C481.234 62.3445 476.653 65.3116 470.814 66.3411C468.699 66.7141 466.637 66.7723 464.653 66.5331C469.354 69.9358 474.539 71.1373 480.208 70.1376C486.047 69.1081 490.628 66.141 493.951 61.2363C497.274 56.3316 498.421 50.96 497.391 45.1214L488.037 41.4269Z" fill="#DF5846"/>
<path d="M116.693 169.723L84.8346 175.341L78.5904 139.929L57.9016 143.577L74.0155 234.963L94.7043 231.315L88.0797 193.745L119.938 188.127L126.562 225.697L147.251 222.049L131.137 130.663L110.449 134.311L116.693 169.723ZM191.24 118.233C177.956 120.576 167.465 127.137 159.769 137.917C152.072 148.697 149.395 160.729 151.738 174.014C154.08 187.299 160.718 197.732 171.652 205.314C182.587 212.896 194.696 215.516 207.981 213.173C221.435 210.801 231.943 204.215 239.505 193.415C247.067 182.615 249.67 170.531 247.312 157.161C244.94 143.707 238.365 133.263 227.588 125.827C216.81 118.392 204.695 115.861 191.24 118.233ZM222.544 182.206C218.412 188.955 212.453 193.016 204.669 194.388C197.053 195.731 190.157 193.981 183.981 189.137C177.805 184.293 174.038 178.021 172.68 170.321C171.322 162.621 172.725 155.481 176.887 148.902C181.049 142.322 186.937 138.361 194.553 137.018C202.338 135.645 209.236 137.286 215.248 141.941C221.26 146.596 224.96 152.858 226.347 160.727C227.735 168.596 226.467 175.756 222.544 182.206ZM308.289 143.007C314.641 137.961 317.063 131.164 315.556 122.618C314.124 114.495 310.081 108.882 303.426 105.781C297.723 103.122 290.598 102.546 282.051 104.053L251.843 109.379L267.957 200.766L298.546 195.372C320.885 191.433 330.406 180.113 327.108 161.413C325.213 150.667 318.94 144.531 308.289 143.007ZM275.143 124.248L283.773 122.726C290.881 121.472 294.928 123.638 295.912 129.223C297.046 135.654 293.763 139.548 286.063 140.906L278.321 142.271L275.143 124.248ZM295.872 176.867L284.766 178.825L281.14 158.264L292.627 156.238C300.962 154.768 305.737 157.482 306.953 164.378C308.154 171.19 304.461 175.353 295.872 176.867ZM411.89 175.386L432.579 171.738L416.465 80.3522L395.776 84.0002L411.89 175.386ZM383.529 126.861C376.604 124.33 367.166 124.119 355.193 126.23L349.195 92.2138L328.506 95.8618L344.62 187.248L371.147 182.57C381.047 180.825 388.571 177.23 393.718 171.785C399.438 165.629 401.455 157.77 399.769 148.208C397.83 137.208 392.409 130.094 383.529 126.861ZM367.101 164.569L362.129 165.446L358.28 143.615L363.251 142.738C368.011 141.899 371.649 141.999 374.103 143.05C377.145 144.345 379.051 147.237 379.842 151.722C381.05 158.576 376.81 162.857 367.101 164.569ZM470.812 66.4506C476.651 65.4211 481.231 62.454 484.554 57.5493C487.878 52.6446 489.024 47.273 487.995 41.4344L475.175 43.6949C476.309 50.1257 474.211 53.8112 468.88 54.7511C466.257 55.2137 464.104 54.6335 462.422 53.0107C460.74 51.3878 459.66 49.2225 459.183 46.5148L446.363 48.7752C447.378 54.5291 450.268 59.1672 455.033 62.6893C459.798 66.2114 465.058 67.4652 470.812 66.4506ZM492.07 67.021L463.397 129.791L453.527 73.8172L432.838 77.4652L448.952 168.851L466.341 165.785L494.967 102.5L504.926 158.982L525.234 155.401L509.12 64.0146L492.07 67.021Z" fill="white"/>
<path d="M83.5114 238.719L104.031 235.101L94.6368 231.305L74.1172 234.923L83.5114 238.719Z" fill="#399FCF"/>
<path d="M94.6371 231.305L104.031 235.101L97.3918 197.447L87.9976 193.65L94.6371 231.305Z" fill="#DF5846"/>
<path d="M87.9976 193.65L119.94 188.018L120.87 193.416L97.3917 197.447L87.9976 193.65Z" fill="#F4B0C9"/>
<path d="M78.5234 139.918L87.9176 143.715L93.2964 173.849L84.7526 175.246L78.5234 139.918Z" fill="#C8762C"/>
<path d="M126.58 225.672L147.311 222.017L156.705 225.813L135.974 229.469L126.58 225.672Z" fill="#C8762C"/>
<path d="M195.494 194.435C194.78 193.972 194.08 193.463 193.397 192.929C187.221 188.086 183.454 181.814 182.096 174.114C180.738 166.413 182.14 159.274 186.302 152.694C190.464 146.115 196.353 142.154 203.968 140.811C207.332 140.218 210.535 140.198 213.573 140.731C207.966 137.009 201.64 135.768 194.574 137.014C186.959 138.357 181.07 142.318 176.908 148.898C172.746 155.477 171.344 162.617 172.702 170.317C174.059 178.017 177.826 184.289 184.003 189.133C187.575 191.949 191.419 193.714 195.494 194.435Z" fill="#399FCF"/>
<path d="M222.773 122.772C224.413 123.661 226.026 124.641 227.615 125.735C238.392 133.17 244.967 143.615 247.339 157.069C249.697 170.439 247.094 182.523 239.532 193.323C231.97 204.123 221.462 210.709 208.008 213.081C200.371 214.428 193.122 214.135 186.26 212.204C195.797 217.306 206.169 218.858 217.402 216.878C230.856 214.505 241.364 207.919 248.926 197.119C256.488 186.32 259.091 174.235 256.733 160.866C254.361 147.412 247.786 136.967 237.009 129.532C232.487 126.403 227.752 124.162 222.773 122.772Z" fill="#F4B0C9"/>
<path d="M284.562 128.061L293.192 126.54C293.806 126.431 294.402 126.348 294.981 126.29C293.208 122.916 289.489 121.74 283.798 122.743L275.167 124.265L284.562 128.061Z" fill="#DF5846"/>
<path d="M308.264 142.989C312.112 143.532 315.372 144.702 318.079 146.45C324.11 141.438 326.399 134.753 324.926 126.397C323.493 118.274 319.45 112.661 312.796 109.56C310.894 108.673 308.84 108.032 306.625 107.594C311.371 110.88 314.345 115.874 315.531 122.601C317.038 131.147 314.616 137.943 308.264 142.989Z" fill="#C8762C"/>
<path d="M318.956 146.971C323.28 150.092 326.026 154.908 327.168 161.381C330.465 180.081 320.944 191.401 298.606 195.34L267.949 200.723L277.411 204.53L308 199.136C330.339 195.197 339.859 183.878 336.562 165.177C334.738 154.833 328.872 148.778 318.956 146.971Z" fill="#DF5846"/>
<path d="M290.496 162.088L301.983 160.063C303.083 159.869 304.131 159.75 305.126 159.705C302.834 156.358 298.66 155.196 292.589 156.266L281.102 158.292L290.496 162.088Z" fill="#F4B0C9"/>
<path d="M290.51 162.042L281.116 158.246L284.741 178.808L293.203 177.316L290.51 162.042Z" fill="#C8762C"/>
<path d="M131.197 130.631L147.311 222.017L156.705 225.813L140.591 134.427L131.197 130.631Z" fill="#E95228"/>
<path d="M358.525 96.0214L349.022 92.2224L355.129 126.241C358.133 125.711 360.965 125.321 363.651 125.087L358.525 96.0214Z" fill="#F4B0C9"/>
<path d="M370.525 163.704L367.638 147.33L358.244 143.534L362.093 165.365L367.065 164.488C368.313 164.268 369.465 164 370.525 163.704Z" fill="#C8762C"/>
<path d="M392.982 130.625C391.678 130.157 390.301 129.767 388.825 129.438C394.628 133.279 398.303 139.524 399.829 148.176C401.515 157.738 399.498 165.596 393.778 171.753C388.631 177.197 381.107 180.792 371.207 182.538L344.739 187.183L354.074 191.012L380.601 186.334C390.501 184.589 398.025 180.994 403.172 175.549C406.784 171.662 408.906 167.122 409.574 161.879L406.112 142.247C403.27 136.641 398.9 132.766 392.982 130.625Z" fill="#399FCF"/>
<path d="M432.67 171.635L442.064 175.431L425.95 84.0453L416.447 80.2463L432.67 171.635Z" fill="#E95228"/>
<path d="M432.469 171.736L411.84 175.351L421.175 179.18L441.863 175.532L432.469 171.736Z" fill="#C8762C"/>
<path d="M462.808 77.5898L453.495 73.7572L463.284 129.767L469.578 115.985L462.808 77.5898Z" fill="#C8762C"/>
<path d="M475.663 169.791L498.009 120.373L494.895 102.709L466.269 165.994L475.663 169.791Z" fill="#DF5846"/>
<path d="M449.072 168.786L458.448 172.608L475.837 169.542L466.443 165.745L449.072 168.786Z" fill="#F4B0C9"/>
<path d="M509.043 64.0716L525.267 155.46L534.661 159.257L518.547 67.8706L509.043 64.0716Z" fill="#F4B0C9"/>
<path d="M525.251 155.376L504.834 158.954L514.337 162.753L534.645 159.172L525.251 155.376Z" fill="#8EA2CE"/>
<path d="M358.356 229.466L358.356 229.564L310.645 229.564L310.645 320.369L310.801 320.369L319.056 325.318L339.655 325.318L339.655 252.803L366.767 252.803L366.767 234.513L358.356 229.466Z" fill="#232F40"/>
<path d="M443.272 246.289C439.321 242.397 434.959 239.345 430.205 237.174C422.165 231.09 412.698 228.038 401.802 228.038C388.813 228.038 377.761 232.499 368.665 241.438C359.549 250.378 355.011 261.352 355.011 274.341C355.011 287.33 359.568 298.343 368.665 307.361C372.733 311.39 377.193 314.52 382.045 316.75C390.084 322.814 399.435 325.846 410.096 325.846C423.261 325.846 434.313 321.367 443.292 312.388C446.265 309.415 448.73 306.226 450.725 302.822L451.645 301.16C455.048 294.665 456.77 287.369 456.77 279.309C456.731 266.144 452.251 255.131 443.272 246.289ZM430.929 300.455C426.156 305.854 420.17 308.554 412.971 308.554C405.929 308.554 400.022 305.893 395.249 300.573C390.476 295.252 388.089 289.031 388.089 281.911C388.089 274.791 390.476 268.609 395.249 263.367C400.022 258.124 405.929 255.503 412.971 255.503C420.17 255.503 426.097 258.065 430.753 263.191C435.409 268.316 437.736 274.517 437.736 281.794C437.736 289.071 435.467 295.291 430.929 300.455Z" fill="#232F40"/>
<path d="M540.513 307.067L532.121 302.02L532.121 306.383L532.043 306.128L532.043 302.118L530.732 302.118L530.693 302.02L508.823 234.631L500.412 229.603L502.094 234.729L502.055 234.729L500.412 229.701L477.114 229.701L453.562 302.118L445.62 302.118L445.62 338.014L445.776 338.014L454.031 342.963L454.031 343.06L472.537 343.06L472.537 325.416L513.518 325.416L513.518 337.935L513.44 337.935L513.518 337.974L513.518 338.014L513.596 338.014L521.832 342.963L521.91 342.963L521.91 343.06L540.435 343.06L540.435 342.963L540.513 342.963L540.513 307.067Z" fill="#232F40"/>
<path d="M337.601 251.258L329.776 246.563L329.776 314.051L337.601 318.745L337.601 251.258Z" fill="#DF5846"/>
<path d="M329.776 246.563L355.01 246.563L362.835 251.258L337.601 251.258L329.776 246.563Z" fill="#C8762C"/>
<path d="M355.011 229.545L362.835 234.24L362.835 251.258L355.011 246.563L355.011 229.545Z" fill="#F4B0C9"/>
<path d="M438.558 245.233C434.822 241.555 430.694 238.68 426.195 236.606C427.76 237.8 429.266 239.091 430.733 240.538C439.223 248.911 443.468 259.317 443.468 271.759C443.468 284.121 439.223 294.548 430.733 303.037C422.244 311.527 411.778 315.772 399.337 315.772C392.549 315.772 386.309 314.461 380.636 311.86C388.246 317.591 397.068 320.467 407.162 320.467C419.603 320.467 430.068 316.222 438.558 307.732C441.355 304.935 443.703 301.903 445.581 298.675L445.581 297.11L446.441 297.11C449.669 290.968 451.293 284.082 451.293 276.453C451.293 264.012 447.048 253.605 438.558 245.233Z" fill="#E95228"/>
<path d="M391.434 297.13C390.749 296.504 390.084 295.839 389.439 295.115C384.666 289.794 382.279 283.574 382.279 276.453C382.279 269.333 384.666 263.151 389.439 257.909C394.212 252.667 400.119 250.045 407.162 250.045C410.135 250.045 412.913 250.495 415.456 251.375C411.074 247.365 405.714 245.35 399.337 245.35C392.295 245.35 386.387 247.972 381.614 253.214C376.841 258.457 374.455 264.638 374.455 271.759C374.455 278.879 376.841 285.1 381.614 290.42C384.47 293.609 387.756 295.858 391.434 297.13Z" fill="#F4B0C9"/>
<path d="M533.92 335.255L516.667 335.255L516.667 318.824L470.658 318.824L470.658 335.255L453.405 335.255L453.405 301.805L460.799 301.805L482.747 234.318L504.461 234.318L526.409 301.805L533.92 301.805L533.92 335.255ZM507.277 301.805L493.663 256.97L480.048 301.805L507.277 301.805Z" fill="#399FCF"/>
<path d="M310.606 314.05L329.776 314.05L337.6 318.745L318.43 318.745L310.606 314.05Z" fill="#399FCF"/>
<path d="M445.58 330.482L453.405 335.177L470.619 335.177L462.794 330.482L445.58 330.482Z" fill="#C8762C"/>
<path d="M470.619 335.177L470.619 318.745L462.795 314.051L462.795 330.482L470.619 335.177Z" fill="#399FCF"/>
<path d="M462.795 314.051L508.764 314.051L508.843 318.824L470.619 318.745L462.795 314.051Z" fill="#F4B0C9"/>
<path d="M472.184 297.032L485.878 252.236L490.455 267.514L481.476 297.11L472.184 297.032Z" fill="#DF5846"/>
<path d="M508.765 330.482L526.175 330.482L533.999 335.177L516.589 335.177L508.765 330.482Z" fill="#DF5846"/>
<path d="M526.174 297.032L526.174 330.482L533.999 335.177L533.999 301.727L526.174 297.032Z" fill="#C8762C"/>
<path d="M524.844 297.032L504.461 234.239L496.636 229.545L518.545 297.032L524.844 297.032Z" fill="#399FCF"/>
<path d="M355.088 229.623L310.605 229.623L310.605 314.129L329.737 314.129L329.737 246.641L355.088 246.641L355.088 229.623ZM399.337 227.98C387.052 227.98 376.606 232.205 367.999 240.656C359.392 249.106 355.088 259.474 355.088 271.758C355.088 284.043 359.392 294.45 367.999 302.979C376.606 311.507 387.052 315.772 399.337 315.772C411.778 315.772 422.243 311.527 430.733 303.037C439.223 294.548 443.467 284.121 443.467 271.758C443.467 259.317 439.223 248.911 430.733 240.538C422.243 232.166 411.778 227.98 399.337 227.98ZM417.294 290.303C412.521 295.702 406.535 298.401 399.337 298.401C392.294 298.401 386.387 295.741 381.614 290.42C376.841 285.099 374.454 278.879 374.454 271.758C374.454 264.638 376.841 258.457 381.614 253.214C386.387 247.972 392.294 245.35 399.337 245.35C406.535 245.35 412.462 247.913 417.118 253.038C421.774 258.163 424.102 264.364 424.102 271.641C424.102 278.918 421.832 285.139 417.294 290.303ZM518.584 297.11L496.636 229.623L474.922 229.623L452.974 297.11L445.58 297.11L445.58 330.56L462.833 330.56L462.833 314.129L508.842 314.129L508.842 330.56L526.095 330.56L526.095 297.11L518.584 297.11ZM472.223 297.11L485.838 252.275L499.453 297.11L472.223 297.11Z" fill="white"/>
</svg>
