<svg width="95" height="107" fill="none" xmlns="http://www.w3.org/2000/svg"><path d="M65.91 24.705c.294.057.587.114.872.179h-.88c0-.065 0-.122.009-.18z" fill="#958BBB"/><path d="M64.2 24.876c.009-.171.009-.342.017-.505.57.114 1.14.228 1.693.342 0 .057 0 .114-.008.17-.57-.007-1.131-.007-1.701-.007z" fill="#9397BF"/><path d="M62.5 24.867c.007-.276.016-.561.016-.838.578.114 1.14.228 1.693.342 0 .17-.008.342-.016.505-.562-.009-1.124-.009-1.694-.009z" fill="#92A3C1"/><path d="M60.797 24.86l.025-1.173c.578.114 1.14.228 1.693.342-.008.277-.008.562-.016.839-.57 0-1.132-.008-1.702-.008z" fill="#91AFC3"/><path d="M59.096 24.851c.017-.505.025-1.01.025-1.506.578.114 1.148.228 1.701.342 0 .39-.008.782-.024 1.172-.57 0-1.132 0-1.702-.008z" fill="#90B9C1"/><path d="M59.096 24.851h-1.702c.017-.619.025-1.23.025-1.848.578.114 1.148.228 1.701.342 0 .505-.008 1.001-.024 1.506z" fill="#8FC3C1"/><path d="M57.394 24.851h-1.701c.024-.724.032-1.449.024-2.165h.073c.554.113 1.1.22 1.629.325 0 .61 0 1.221-.025 1.84z" fill="#8ECCBD"/><path d="M55.693 24.843c-1.034 0-2.068-.008-3.102-.008.024-.741.033-1.474.024-2.207l3.094.05a38.42 38.42 0 01-.016 2.165z" fill="#8ECCBD"/><path d="M52.59 24.843h-2.425c-.22-.065-.44-.122-.668-.187a41.69 41.69 0 00.016-2.06c1.043.016 2.068.032 3.102.04.008.733.008 1.466-.024 2.207z" fill="#A5CBB5"/><path d="M49.505 24.656c-.993-.277-2.01-.562-3.077-.855.008-.415.008-.83 0-1.246 1.042.017 2.068.025 3.094.041.008.676 0 1.368-.017 2.06z" fill="#BACBAF"/><path d="M46.42 23.801c-.994-.277-2.02-.554-3.094-.855v-.431c1.042.016 2.076.024 3.102.04 0 .407 0 .823-.008 1.246z" fill="#CAC9A6"/><path d="M41.673 22.49l1.653.025v.431c-.537-.147-1.091-.301-1.653-.456z" fill="#D9C5A0"/><path d="M52.265 28.947c.652.211 1.327.423 2.02.65-.7.009-1.401.009-2.11.017.033-.228.066-.448.09-.668z" fill="#8ECCBD"/><path d="M49.041 29.639a53.8 53.8 0 00.22-1.653l3.004.96c-.024.22-.057.448-.081.668-1.042 0-2.093.008-3.143.024z" fill="#A5CBB5"/><path d="M49.041 29.639l-3.134.024c.122-.765.22-1.53.3-2.312h1.06c.65.203 1.318.415 1.994.635-.057.553-.138 1.099-.22 1.653z" fill="#BACBAF"/><path d="M45.907 29.663c-1.042.008-2.093.016-3.151.032.138-.765.252-1.546.334-2.328 1.042 0 2.076-.008 3.118-.008-.073.773-.18 1.539-.301 2.304z" fill="#CAC9A6"/><path d="M42.756 29.695c-1.05.009-2.1.017-3.159.033.147-.774.277-1.555.375-2.353 1.042 0 2.084-.008 3.118-.008a32.04 32.04 0 01-.334 2.328z" fill="#D9C5A0"/><path d="M39.605 29.72c-1.05.008-2.109.024-3.167.033.171-.782.31-1.572.415-2.37 1.042 0 2.084-.008 3.118-.008-.09.79-.22 1.571-.366 2.345z" fill="#E7C297"/><path d="M36.853 27.383a31.963 31.963 0 01-.415 2.37c-1.058.008-2.117.024-3.183.032.187-.782.35-1.58.472-2.394 1.034 0 2.084-.008 3.127-.008z" fill="#F3BC8F"/><path d="M33.247 29.785l-2.207.024c.212-.79.383-1.587.513-2.41.725 0 1.441-.008 2.166-.008a25.385 25.385 0 01-.472 2.394z" fill="#F3BC8F"/><path d="M31.04 29.81l-2.223.024c.236-.79.424-1.596.57-2.426.725 0 1.45-.008 2.166-.008-.13.822-.301 1.62-.513 2.41z" fill="#E5B29B"/><path d="M28.818 29.834l-2.027.024a1.818 1.818 0 00-.196-.065c.253-.773.456-1.563.619-2.369.725 0 1.45-.008 2.174-.008a23.768 23.768 0 01-.57 2.418z" fill="#D5A7A4"/><path d="M26.595 29.785c-.692-.244-1.368-.48-2.02-.708.172-.538.326-1.091.449-1.653.724 0 1.457-.008 2.182-.008a18.7 18.7 0 01-.611 2.37z" fill="#C69DAA"/><path d="M24.576 29.085c-.692-.245-1.368-.48-2.02-.7.098-.31.188-.62.27-.937.732 0 1.465-.008 2.198-.008a16.355 16.355 0 01-.448 1.645z" fill="#B592AF"/><path d="M22.565 28.377c-.692-.245-1.368-.473-2.02-.7.025-.074.05-.155.074-.229l2.215-.008a15.71 15.71 0 01-.27.936z" fill="#A487B4"/><path d="M19.903 27.456h.716l-.073.229c-.22-.082-.432-.155-.643-.229z" fill="#967DB7"/><path d="M37.122 24.184c.725.22 1.425.44 2.117.65h-2.15c.017-.219.025-.439.033-.65z" fill="#E7C297"/><path d="M33.988 24.843a27.11 27.11 0 00.048-1.612c1.075.326 2.1.643 3.086.944-.008.22-.016.44-.032.66-1.035 0-2.069 0-3.102.008z" fill="#F3BC8F"/><path d="M33.987 24.843h-2.14c.048-.765.064-1.514.04-2.263l2.141.66c.008.528-.008 1.058-.04 1.603z" fill="#F3BC8F"/><path d="M31.846 24.843c-.716 0-1.424 0-2.141.008.057-.838.073-1.669.04-2.491.49.008.978.008 1.466.016.228.073.456.139.676.204.024.749.008 1.498-.04 2.263z" fill="#E5B29B"/><path d="M29.705 24.851c-.716 0-1.425 0-2.141.008.065-.846.081-1.693.049-2.524l2.133.025c.032.814.024 1.645-.04 2.491z" fill="#D5A7A4"/><path d="M27.572 24.851c-.717 0-1.425 0-2.141.008v-.024a18.7 18.7 0 00.04-2.524l2.142.024a23.7 23.7 0 01-.041 2.516z" fill="#C69DAA"/><path d="M25.43 24.835v.024c-.716 0-1.432 0-2.149.008.009-.073.017-.138.017-.211.065-.798.073-1.588.032-2.361l2.142.024c.04.822.032 1.661-.041 2.516z" fill="#B592AF"/><path d="M23.298 24.656c-.008.073-.017.138-.017.212-.716 0-1.432.008-2.149.008.016-.13.024-.26.04-.391.066-.741.066-1.482.025-2.207a187.8 187.8 0 002.141.017 16.37 16.37 0 01-.04 2.36z" fill="#A487B4"/><path d="M21.173 24.477c-.008.13-.025.26-.041.39-.716 0-1.433 0-2.15.009.025-.196.05-.383.066-.578a12.23 12.23 0 000-2.044c.716.008 1.433.016 2.14.016.058.725.05 1.458-.015 2.207z" fill="#967DB7"/><path d="M19.048 24.297c-.017.196-.041.391-.065.578-.53 0-1.059 0-1.588.009.033-.236.065-.473.09-.717a10.9 10.9 0 00-.009-1.93c.53.009 1.059.009 1.58.017.049.668.049 1.351-.008 2.043z" fill="#967DB7"/><path d="M17.477 24.167c-.017.245-.05.48-.09.717-.53 0-1.058 0-1.596.008.05-.277.09-.562.114-.855.049-.61.04-1.221-.024-1.807.529.008 1.058.008 1.58.016.064.619.073 1.262.016 1.921z" fill="#8D89BF"/><path d="M15.913 24.037c-.024.285-.065.57-.114.855-.537 0-1.067 0-1.604.008a7.87 7.87 0 00.106-2.687c.53.008 1.058.008 1.588.017a9.53 9.53 0 01.024 1.807z" fill="#8694C5"/><path d="M14.35 23.899a7.763 7.763 0 01-.147.985c-.537 0-1.074 0-1.62.008.098-.366.171-.74.204-1.123a5.926 5.926 0 00-.065-1.572c.529.008 1.058.008 1.587.016.065.546.09 1.116.04 1.686z" fill="#7C9ECB"/><path d="M12.779 23.768a5.61 5.61 0 01-.204 1.124h-.138c-.456-.155-.904-.31-1.368-.464.065-.26.114-.521.138-.798.041-.505 0-.993-.105-1.457.537.008 1.074.008 1.604.016a5.7 5.7 0 01.073 1.58z" fill="#70A7D0"/><path d="M11.215 23.638a5.107 5.107 0 01-.138.798c-.497-.163-.993-.334-1.498-.505a3.167 3.167 0 00-.114-1.759c.554.009 1.1.009 1.645.017.105.456.146.953.105 1.45z" fill="#65AFD3"/><path d="M9.644 23.508c-.008.146-.04.285-.065.423-.497-.163-.993-.334-1.506-.505 0-.016.008-.032.008-.048.04-.465-.13-.904-.432-1.222.611.009 1.214.009 1.816.017.155.415.22.863.18 1.335zm-4.486-1.051c-.317-.105-.643-.211-.969-.325.407 0 .806.008 1.213.008a1.525 1.525 0 00-.244.317z" fill="#52B6D6"/><path d="M8.081 23.378c0 .016-.008.032-.008.049-.936-.31-1.905-.636-2.915-.97.065-.113.147-.22.236-.317.758.008 1.507.008 2.256.016.3.318.472.75.431 1.222z" fill="#3FBDD8"/><path d="M8.203 40.638a47.22 47.22 0 00-3.42.757c-.08-.969-.162-1.938-.244-2.915 1.311.766 2.516 1.482 3.664 2.158z" fill="#B592AF"/><path d="M8.203 40.638c1.392.822 2.687 1.596 3.933 2.345v.122l.024 1.237v.082l.024 1.351v.122c-2.369.245-4.681.7-6.904 1.344a932.315 932.315 0 01-.505-5.846 48.479 48.479 0 013.428-.757z" fill="#A487B4"/><path d="M12.193 45.897l.024 1.368v.073l.049 2.899v.081c.008.456.016.912.016 1.368a33.848 33.848 0 00-6.472 1.425c-.05-.57-.098-1.14-.155-1.71-.122-1.376-.244-2.76-.366-4.169a40.77 40.77 0 016.904-1.335z" fill="#967DB7"/><path d="M12.282 51.694v.236c.008.456.016.92.016 1.384v.212c.008.464.008.928.017 1.392v.212c0 .276.008.553.008.838a29.5 29.5 0 00-6.147 1.506c-.122-1.449-.252-2.898-.383-4.363a34.854 34.854 0 016.489-1.417z" fill="#967DB7"/><path d="M12.339 55.976v.302c0 .179.008.366.008.545.008.342.008.684.016 1.034 0 .22.008.448.008.668 0 .138 0 .285.009.423.008.432.008.871.016 1.31a25.268 25.268 0 00-5.821 1.637c-.122-1.465-.253-2.939-.375-4.412a28.811 28.811 0 016.139-1.507z" fill="#8D89BF"/><path d="M12.388 60.259l.049 4.299a21.1 21.1 0 00-5.512 1.831 419.127 419.127 0 00-.366-4.502 25.861 25.861 0 015.829-1.628z" fill="#8694C5"/><path d="M12.445 64.558l.049 4.33a16.91 16.91 0 00-5.219 2.175c-.106-1.564-.228-3.119-.342-4.674a21.203 21.203 0 015.512-1.831z" fill="#7C9ECB"/><path d="M12.494 68.889c.016 1.457.032 2.915.057 4.38a12.69 12.69 0 00-4.942 2.89 334.8 334.8 0 00-.334-5.096 16.913 16.913 0 015.219-2.174z" fill="#70A7D0"/><path d="M12.616 77.804A8.521 8.521 0 007.99 83.83a443.552 443.552 0 00-.382-7.67 12.791 12.791 0 014.942-2.89c.016 1.515.04 3.02.065 4.535zm.284 15.42c.017.765.041 1.522.058 2.28-.367-.27-.725-.538-1.091-.806-1.189-.88-2.394-1.767-3.648-2.703a250.106 250.106 0 00-.105-4.348 8.576 8.576 0 004.787 5.577z" fill="#65AFD3"/><path d="M12.616 77.804c.024 1.816.057 3.631.09 5.439a4.254 4.254 0 00.081 4.534c.032 1.824.073 3.648.122 5.44a8.5 8.5 0 01-4.78-5.578A542.41 542.41 0 008 83.821a8.508 8.508 0 014.617-6.017z" fill="#52B6D6"/><path d="M12.095 85.653a4.27 4.27 0 01.61-2.41c.025 1.514.057 3.028.082 4.534a4.12 4.12 0 01-.692-2.124z" fill="#3FBDD8"/><path d="M26.644 105.591c.008-.138.008-.431.016-.871.285.261.562.521.855.774l-.871.097z" fill="#92A0C1"/><path d="M26.692 102.001a85.076 85.076 0 003.493 3.175c-.87.106-1.766.212-2.67.309-.285-.26-.57-.513-.855-.773.008-.619.016-1.547.032-2.711z" fill="#91A9C2"/><path d="M29.03 104.166a85.218 85.218 0 01-2.337-2.165l.024-2.777a89.318 89.318 0 006.18 5.634c-.888.106-1.792.22-2.712.326-.39-.334-.773-.676-1.156-1.018z" fill="#91B0C2"/><path d="M30.364 102.676a91.236 91.236 0 01-3.647-3.451l.024-2.842a83.681 83.681 0 004.959 4.795 88.189 88.189 0 003.957 3.33c-.904.114-1.824.228-2.76.342a68.892 68.892 0 01-2.532-2.174z" fill="#90B8C3"/><path d="M31.7 101.187a89.264 89.264 0 01-4.959-4.796c.009-.92.017-1.897.025-2.914a82.146 82.146 0 006.269 6.212 86.584 86.584 0 005.43 4.461c-.92.122-1.856.236-2.809.358a83.54 83.54 0 01-3.956-3.321z" fill="#8FBDC0"/><path d="M33.027 99.689a85.229 85.229 0 01-6.27-6.212l.025-2.996a80.597 80.597 0 007.58 7.718 81.3 81.3 0 006.97 5.577c-.945.122-1.906.252-2.875.374a86.527 86.527 0 01-5.43-4.461z" fill="#8FC5BF"/><path d="M34.362 98.198a82.564 82.564 0 01-7.58-7.718l.025-3.094a79.775 79.775 0 008.89 9.323 80.139 80.139 0 008.59 6.684l-2.948.391a81.966 81.966 0 01-6.977-5.586z" fill="#8ECCBD"/><path d="M35.697 96.709a81.141 81.141 0 01-8.89-9.322c.016-2.06.032-4.21.04-6.4a75.905 75.905 0 0011.44 12.807 76.89 76.89 0 0010.274 7.734c-.016.432-.032.863-.057 1.303-1.213.163-2.434.318-3.68.489l-.562.073a82.387 82.387 0 01-8.565-6.684z" fill="#8ECCBD"/><path d="M26.896 73.888a71.784 71.784 0 0013.995 17 71.967 71.967 0 007.857 6.106c-.057 1.481-.114 2.996-.18 4.535a75.781 75.781 0 01-10.274-7.735 75.87 75.87 0 01-11.439-12.807c.017-2.344.025-4.73.041-7.1z" fill="#A0CCB8"/><path d="M26.953 65.584c.122.268.252.537.375.814 3.77 7.978 9.167 15.347 16.16 21.591a68.357 68.357 0 005.43 4.38l-.17 4.633a71.18 71.18 0 01-7.857-6.106 71.748 71.748 0 01-13.987-17l.049-8.312z" fill="#B0CCB2"/><path d="M43.489 87.98c-6.994-6.244-12.392-13.612-16.161-21.59a26.32 26.32 0 01-.375-.815c.025-4.233.049-8.109.065-11.202a63.305 63.305 0 003.835 10.348 63.859 63.859 0 0015.233 20.353 66.58 66.58 0 003.004 2.524c-.057 1.555-.114 3.143-.17 4.763a66.887 66.887 0 01-5.431-4.38z" fill="#BCCAAC"/><path d="M30.853 64.72a64.55 64.55 0 01-3.835-10.347c.008-1.132.017-2.166.017-3.062 1.05-.097 2.1-.187 3.15-.285.082.367.171.725.26 1.091a59.624 59.624 0 003.925 10.934 59.995 59.995 0 0014.305 19.117l.586.513c-.057 1.612-.122 3.248-.18 4.917a62.37 62.37 0 01-3.003-2.524c-6.587-5.886-11.675-12.83-15.225-20.353z" fill="#CAC9A6"/><path d="M34.378 63.06a60.057 60.057 0 01-3.924-10.935c-.09-.358-.18-.724-.26-1.09 1.31-.123 2.613-.237 3.924-.35.04.162.073.325.114.48a55.97 55.97 0 0015.24 26.41 809.267 809.267 0 00-.203 5.114l-.586-.513a59.965 59.965 0 01-14.305-19.117z" fill="#D6C7A2"/><path d="M37.904 61.39a56.182 56.182 0 01-3.672-10.225c-.04-.163-.073-.326-.114-.48 1.31-.115 2.621-.237 3.924-.35a52.434 52.434 0 003.379 9.395 52.149 52.149 0 008.288 12.473c-.09 1.758-.163 3.55-.244 5.373A56.127 56.127 0 0137.904 61.39z" fill="#E1C59C"/><path d="M41.429 59.722a51.815 51.815 0 01-3.379-9.396l3.94-.342a48.56 48.56 0 002.964 8.077 48.393 48.393 0 005.08 8.402c-.114 1.88-.22 3.786-.317 5.74a51.869 51.869 0 01-8.288-12.481z" fill="#ECC296"/><path d="M44.946 58.053a47.833 47.833 0 01-2.963-8.077l3.948-.342a44.48 44.48 0 004.551 10.52c-.17 2.059-.325 4.151-.456 6.292a48.523 48.523 0 01-5.08-8.393z" fill="#F3BC8F"/><path d="M45.94 49.642a311.18 311.18 0 012.735-.228 41.594 41.594 0 002.271 5.903 217.516 217.516 0 00-.456 4.844 44.284 44.284 0 01-4.55-10.519z" fill="#F3BC8F"/><path d="M48.667 49.414c.911-.073 1.831-.154 2.743-.228.066.196.123.4.188.595a190.686 190.686 0 00-.66 5.536 43.671 43.671 0 01-2.271-5.903z" fill="#E9B598"/><path d="M60.83 101.488a.414.414 0 01-.098.016c.082-.725.155-1.449.236-2.174a66.41 66.41 0 003.86 1.588c-1.197.114-2.402.236-3.615.366a.633.633 0 00-.383.204z" fill="#B0CCB2"/><path d="M61.392 95.243a63.443 63.443 0 0014.468 4.812 313.9 313.9 0 00-11.04.863 71.655 71.655 0 01-3.86-1.588c.147-1.36.294-2.719.432-4.087z" fill="#BCCAAC"/><path d="M61.392 95.243l.415-4.136a59.778 59.778 0 0019.247 5.862c-.122.961-.236 1.906-.35 2.834-1.637.073-3.249.162-4.836.252a63.041 63.041 0 01-7.84-2.125 64.624 64.624 0 01-6.636-2.687z" fill="#CAC9A6"/><path d="M62.214 86.923a55.963 55.963 0 0019.345 6.18c-.171 1.31-.342 2.596-.505 3.866a59.904 59.904 0 01-19.247-5.862c.139-1.4.277-2.792.407-4.184z" fill="#D6C7A2"/><path d="M62.613 82.68a52.15 52.15 0 0019.467 6.555c-.18 1.302-.358 2.589-.521 3.859a56.016 56.016 0 01-19.345-6.18c.139-1.408.27-2.817.4-4.233z" fill="#E1C59C"/><path d="M63.004 78.366a48.124 48.124 0 0019.613 7.01c-.187 1.294-.366 2.58-.545 3.859a52.148 52.148 0 01-19.467-6.554c.139-1.433.277-2.874.4-4.315z" fill="#ECC296"/><path d="M63.395 73.953a44.35 44.35 0 0019.784 7.564l-.562 3.859a48.123 48.123 0 01-19.613-7.01c.138-1.474.26-2.94.39-4.413z" fill="#F3BC8F"/><path d="M63.663 70.835a41.647 41.647 0 0019.907 8.027l-.391 2.663a44.351 44.351 0 01-19.784-7.564l.268-3.126z" fill="#F3BC8F"/><path d="M63.94 67.635A38.885 38.885 0 0083.977 76.2c-.13.88-.269 1.767-.4 2.654a41.647 41.647 0 01-19.905-8.027c.081-1.059.179-2.125.268-3.192z" fill="#E9B598"/><path d="M64.21 64.322c.072.073.146.138.227.211a36.308 36.308 0 0019.939 9.013c-.139.88-.269 1.767-.407 2.654a38.951 38.951 0 01-20.037-8.565c.098-1.107.188-2.214.277-3.314z" fill="#DDAD9F"/><path d="M64.209 64.322c.098-1.157.187-2.304.285-3.46a33.51 33.51 0 001.734 1.66 33.652 33.652 0 0018.563 8.362c-.139.879-.277 1.766-.407 2.654a36.309 36.309 0 01-19.939-9.013 5.282 5.282 0 01-.236-.203z" fill="#D1A4A5"/><path d="M64.494 60.861l.293-3.68a31.976 31.976 0 003.224 3.347 30.998 30.998 0 0017.187 7.71c-.138.87-.277 1.758-.415 2.654A33.677 33.677 0 0166.22 62.53a41.933 41.933 0 01-1.726-1.669z" fill="#C69DAA"/><path d="M64.795 57.181c.106-1.351.212-2.703.326-4.054a28.152 28.152 0 004.698 5.39 28.271 28.271 0 0015.81 7.05c-.138.871-.276 1.759-.423 2.654a30.935 30.935 0 01-17.187-7.71 30.294 30.294 0 01-3.224-3.33z" fill="#B994AE"/><path d="M65.113 53.127c.122-1.596.252-3.184.374-4.771a25.58 25.58 0 006.115 8.158 25.645 25.645 0 0014.443 6.399c-.139.871-.277 1.758-.424 2.654a28.247 28.247 0 01-15.81-7.05 28.443 28.443 0 01-4.698-5.39z" fill="#AD8CB1"/><path d="M65.487 48.356c.008-.073.008-.147.017-.22.928-.057 1.856-.122 2.784-.18a22.858 22.858 0 005.097 6.547 22.936 22.936 0 0013.083 5.748c-.138.863-.285 1.75-.431 2.654a25.59 25.59 0 01-14.444-6.4 25.673 25.673 0 01-6.106-8.15z" fill="#A285B5"/><path d="M68.296 47.965c.993-.057 1.987-.122 2.98-.179a20.599 20.599 0 003.908 4.722 20.246 20.246 0 0011.724 5.089c-.139.863-.285 1.75-.432 2.654a22.883 22.883 0 01-13.083-5.748 22.826 22.826 0 01-5.097-6.538z" fill="#967DB7"/><path d="M71.276 47.786c.708-.04 1.417-.081 2.117-.114a18.576 18.576 0 003.02 3.46 18.417 18.417 0 0010.796 4.641c-.098.594-.195 1.205-.301 1.832a20.224 20.224 0 01-11.724-5.089 20.398 20.398 0 01-3.908-4.73z" fill="#967DB7"/><path d="M73.393 47.672c.732-.04 1.465-.073 2.198-.114a15.74 15.74 0 002.052 2.19 16.603 16.603 0 009.859 4.185c-.098.594-.195 1.205-.301 1.832a18.44 18.44 0 01-10.796-4.64 18.521 18.521 0 01-3.012-3.453z" fill="#9184BC"/><path d="M75.59 47.558c.782-.04 1.564-.073 2.346-.114a14.68 14.68 0 009.876 4.657c-.098.594-.196 1.205-.302 1.84a16.583 16.583 0 01-9.86-4.185 17.407 17.407 0 01-2.06-2.198z" fill="#8B8DC0"/><path d="M78.88 48.372c-.334-.293-.643-.61-.944-.928.863-.04 1.718-.073 2.58-.114a12.87 12.87 0 007.605 2.931c-.098.586-.195 1.197-.301 1.832a14.72 14.72 0 01-8.94-3.72z" fill="#8495C6"/><path d="M80.508 47.33l3.16-.122a11.148 11.148 0 004.746 1.213c-.098.578-.196 1.189-.31 1.84a12.834 12.834 0 01-7.596-2.93z" fill="#7F9CC9"/><path d="M88.65 47.061c-.073.424-.147.88-.228 1.36a11.117 11.117 0 01-4.747-1.213c1.653-.057 3.314-.106 4.975-.147z" fill="#77A3CE"/><path d="M56.28 41.476c-.066.953-.14 1.962-.213 3.078l-2.45.122a36.706 36.706 0 002.662-3.2z" fill="#A285B5"/><path d="M47.307 44.994a30.336 30.336 0 009.583-12.946c-.228 3.623-.391 6.188-.611 9.428a33.086 33.086 0 01-2.67 3.2l-6.302.318z" fill="#967DB7"/><path d="M54.423 30.73c.855-.009 1.701-.017 2.548-.017-.032.464-.057.904-.081 1.335a30.335 30.335 0 01-9.583 12.945c-1.807.09-3.615.188-5.414.277a32.819 32.819 0 001.767-1.066 27.548 27.548 0 0010.763-13.475z" fill="#967DB7"/><path d="M32.945 45.571a24.74 24.74 0 009.192-3.688 24.85 24.85 0 009.29-11.13c1.001-.007 1.994-.015 2.988-.024A27.565 27.565 0 0143.65 44.196a24.82 24.82 0 01-1.766 1.066c-3.59.187-7.14.366-10.658.554a20.263 20.263 0 001.718-.245z" fill="#9184BC"/><path d="M40.623 39.563a22.005 22.005 0 007.75-8.785l3.062-.024a24.849 24.849 0 01-9.29 11.13 24.99 24.99 0 01-9.192 3.688c-.57.105-1.14.187-1.717.252-.977.049-1.946.098-2.907.155h-.18a29.586 29.586 0 01-1.212-.05c.024-.992.057-1.904.073-2.776 4.64.31 9.42-.838 13.613-3.59z" fill="#8B8DC0"/><path d="M39.1 37.25a19.285 19.285 0 006.115-6.44c1.058-.007 2.108-.015 3.158-.024a22.066 22.066 0 01-7.75 8.785 22.061 22.061 0 01-13.621 3.582c0-.073 0-.146.008-.22.024-.895.049-1.734.065-2.548 4.095.285 8.32-.708 12.025-3.134z" fill="#8495C6"/><path d="M37.578 34.93a16.79 16.79 0 004.307-4.087c1.115-.008 2.223-.024 3.33-.032a19.36 19.36 0 01-6.114 6.44 19.302 19.302 0 01-12.025 3.126c.024-.936.04-1.848.065-2.776 3.55.285 7.23-.562 10.437-2.67z" fill="#7F9CC9"/><path d="M27.19 34.825a13.841 13.841 0 008.865-2.207 14.037 14.037 0 002.15-1.734c1.237-.016 2.459-.024 3.68-.032a16.52 16.52 0 01-4.307 4.087 16.566 16.566 0 01-10.446 2.67c.025-.904.041-1.815.057-2.784z" fill="#77A3CE"/><path d="M33.442 30.925l4.763-.049a13.619 13.619 0 01-2.15 1.734 13.741 13.741 0 01-8.866 2.206c.017-.87.033-1.783.05-2.776a10.995 10.995 0 006.203-1.115z" fill="#6FA8CF"/><path d="M27.262 30.99c2.085-.024 4.145-.049 6.18-.065a10.995 10.995 0 01-6.204 1.115l.024-1.05z" fill="#65AED2"/><path d="M1.177 22.335c.106.033.203.066.301.098-.098.04-.195.073-.293.114-.008-.065-.008-.138-.008-.212z" fill="#8ECCBD"/><path d="M1.218 23.272c-.008-.236-.025-.473-.033-.717.098-.04.196-.081.293-.114.342.114.676.22 1.002.334-.424.155-.847.326-1.262.497z" fill="#A5CBB5"/><path d="M1.25 23.996c-.008-.236-.024-.472-.032-.716.423-.18.838-.342 1.262-.505.35.114.692.228 1.025.342-.757.26-1.506.554-2.255.88z" fill="#BACBAF"/><path d="M1.275 24.713v-.017c0-.065-.008-.122-.008-.187 0-.032 0-.073-.009-.106-.008-.138-.008-.276-.016-.415.75-.317 1.506-.61 2.263-.88.359.123.709.237 1.059.351a40.57 40.57 0 00-3.29 1.254z" fill="#CAC9A6"/><path d="M1.307 25.43c0-.041 0-.082-.008-.13v-.01c-.008-.097-.008-.203-.016-.308v-.066c0-.073-.008-.138-.008-.211a39.482 39.482 0 013.289-1.254c.366.122.733.244 1.09.358a41.843 41.843 0 00-4.347 1.62z" fill="#D9C5A0"/><path d="M1.51 26.08c-.056.025-.113.05-.17.082-.008-.236-.017-.48-.033-.725a40.015 40.015 0 014.348-1.612c.382.13.757.253 1.123.375a38.058 38.058 0 00-5.267 1.88z" fill="#E7C297"/><path d="M1.78 26.7c-.14.064-.278.13-.416.187a21.58 21.58 0 00-.033-.725c.057-.024.114-.057.171-.081A38.057 38.057 0 016.77 24.2c.399.13.782.26 1.172.39A37.757 37.757 0 001.78 26.7z" fill="#F3BC8F"/><path d="M2.064 27.343c-.228.097-.447.203-.667.309a23.817 23.817 0 00-.033-.757 37.494 37.494 0 016.578-2.296c.432.146.855.285 1.27.423a36.228 36.228 0 00-7.148 2.32z" fill="#F3BC8F"/><path d="M2.35 27.978c-.31.138-.62.276-.92.423-.009-.253-.017-.505-.033-.757.22-.106.44-.204.668-.31a36.678 36.678 0 017.156-2.32c.358.122.708.236 1.05.358v.147a36.31 36.31 0 00-7.922 2.459z" fill="#E5B29B"/><path d="M2.35 27.978a35.668 35.668 0 017.93-2.46c.007.245.007.481.015.71a35.63 35.63 0 00-8.833 2.938c-.008-.26-.016-.513-.033-.765.301-.139.61-.285.92-.423z" fill="#D5A7A4"/><path d="M2.634 28.62a35.619 35.619 0 017.662-2.393c.008.244.008.48.016.717a34.997 34.997 0 00-7.393 2.32 29.3 29.3 0 00-1.432.676l-.025-.766c.383-.195.774-.374 1.172-.553z" fill="#C69DAA"/><path d="M2.92 29.264a34.534 34.534 0 017.392-2.32c.008.244.008.48.016.716a33.473 33.473 0 00-8.809 3.061l-.024-.773c.464-.244.936-.472 1.424-.684z" fill="#B592AF"/><path d="M3.204 29.907a34.091 34.091 0 017.124-2.255c.008.244.008.48.016.716A33.017 33.017 0 003.49 30.55c-.66.293-1.31.61-1.946.936l-.024-.773a26.772 26.772 0 011.685-.806z" fill="#A487B4"/><path d="M3.481 30.55a33.513 33.513 0 016.855-2.182c.008.245.008.48.016.717a32.44 32.44 0 00-8.784 3.183l-.025-.773a28.393 28.393 0 011.938-.945z" fill="#967DB7"/><path d="M3.766 31.185a32.44 32.44 0 016.586-2.108c.008.3.008.602.017.895a31.965 31.965 0 00-6.253 2.02 32.73 32.73 0 00-2.524 1.253c-.008-.342-.024-.667-.032-.985.724-.383 1.457-.74 2.206-1.075z" fill="#967DB7"/><path d="M4.124 31.991a31.966 31.966 0 016.253-2.019c.008.302.008.595.016.896a30.753 30.753 0 00-5.91 1.93c-.766.341-1.515.708-2.24 1.099-.203-.098-.415-.204-.626-.302 0-.065-.008-.13-.008-.195 0-.049 0-.098-.009-.155a31.66 31.66 0 012.524-1.253z" fill="#958BBB"/><path d="M4.474 32.797a30.746 30.746 0 015.911-1.93c.008.302.008.603.016.896a30.395 30.395 0 00-5.577 1.832c-.553.245-1.09.505-1.612.774a105.01 105.01 0 01-.977-.48 33.524 33.524 0 012.24-1.092z" fill="#9397BF"/><path d="M4.833 33.595a29.778 29.778 0 015.576-1.832c.009.302.009.595.017.896A29.253 29.253 0 005.19 34.4c-.334.147-.652.301-.977.456-.285-.138-.57-.277-.863-.423-.04-.025-.09-.041-.13-.065.52-.27 1.058-.53 1.612-.774z" fill="#92A3C1"/><path d="M5.183 34.401a29.253 29.253 0 015.235-1.742c.008.293.008.594.016.896a28.12 28.12 0 00-5.219 1.79c-.333-.162-.667-.325-1.01-.496.326-.146.652-.301.978-.448z" fill="#91AFC3"/><path d="M10.434 33.563c.008.293.008.594.016.895a27.057 27.057 0 00-4.2 1.4c-.335-.162-.685-.333-1.035-.504a27.677 27.677 0 015.219-1.791z" fill="#90B9C1"/><path d="M10.458 35.362A25.444 25.444 0 007.3 36.38c-.35-.171-.7-.342-1.05-.521a27.942 27.942 0 014.201-1.4c0 .292.008.594.008.903z" fill="#8FC3C1"/><path d="M10.475 36.266c-.7.179-1.4.399-2.093.643-.358-.171-.716-.35-1.083-.53a25.38 25.38 0 013.16-1.009c.008.285.008.586.016.896z" fill="#8ECCBD"/><path d="M10.491 37.919c-.016 0-.024.008-.04.008-.676-.334-1.36-.676-2.069-1.018a28.141 28.141 0 012.093-.643c.008.52.008 1.074.016 1.653z" fill="#8ECCBD"/><path d="M19.495 28.523a38.341 38.341 0 00-1.93-.098c.009-.187.009-.374.017-.561.627.211 1.262.431 1.913.66z" fill="#967DB7"/><path d="M19.496 28.523c1.481.513 3.045 1.058 4.746 1.653a28.583 28.583 0 00-1.807-.383 30.56 30.56 0 00-4.893-.488l.024-.88c.643.017 1.295.05 1.93.098z" fill="#967DB7"/><path d="M22.434 29.793c.611.106 1.214.236 1.808.383.61.211 1.23.431 1.88.66-.008.26-.008.52-.016.773a30.796 30.796 0 00-8.58-1.425l.023-.88a30.6 30.6 0 014.885.49z" fill="#958BBB"/><path d="M26.106 31.6c-.008.31-.008.62-.016.92a30.022 30.022 0 00-8.59-1.465l.025-.88c2.931.074 5.822.555 8.581 1.426z" fill="#9397BF"/><path d="M26.09 32.52c-.008.318-.008.62-.016.92a28.989 28.989 0 00-8.597-1.505l.024-.88c2.93.065 5.83.57 8.59 1.466z" fill="#92A3C1"/><path d="M26.074 33.44c-.008.318-.008.62-.017.92a28.239 28.239 0 00-8.605-1.546l.024-.88c2.94.066 5.838.579 8.598 1.507z" fill="#91AFC3"/><path d="M26.058 34.36c-.009.27-.009.538-.017.799v.122a27.341 27.341 0 00-8.613-1.596l.024-.88c2.947.074 5.854.603 8.606 1.556z" fill="#90B9C1"/><path d="M26.041 35.289c-.008.317-.016.627-.016.928a26.47 26.47 0 00-8.622-1.645l.025-.879c2.955.065 5.862.602 8.613 1.596z" fill="#8FC3C1"/><path d="M26.017 36.217c-.008.31-.017.627-.017.928a25.266 25.266 0 00-8.63-1.693l.025-.88a26.26 26.26 0 018.622 1.645z" fill="#8ECCBD"/><path d="M17.37 35.452A25.48 25.48 0 0126 37.145c-.016.57-.024 1.14-.04 1.71-.163-.065-.334-.139-.497-.196a23.866 23.866 0 00-8.141-1.604c.016-.553.032-1.082.049-1.603z" fill="#8ECCBD"/><path d="M25.463 38.651c.163.065.334.13.497.196-.016.57-.024 1.14-.04 1.726a22.264 22.264 0 00-8.654-1.93c.015-.553.04-1.083.056-1.596 2.8.057 5.56.603 8.141 1.604z" fill="#A5CBB5"/><path d="M24.885 40.141c.35.139.692.277 1.034.432l-.049 1.742a22.2 22.2 0 00-1.563-.684 20.663 20.663 0 00-7.1-1.392c.017-.554.041-1.083.058-1.596 2.621.049 5.202.562 7.62 1.498z" fill="#BACBAF"/><path d="M24.307 41.631c.53.204 1.05.432 1.563.684l-.049 1.767a18.964 18.964 0 00-7.466-2.19c-.398-.204-.79-.4-1.18-.603.016-.358.025-.716.04-1.05 2.443.049 4.845.52 7.092 1.392z" fill="#CAC9A6"/><path d="M23.729 43.13c.716.276 1.416.593 2.092.96a712.92 712.92 0 00-.049 1.62c-2.792-1.441-5.186-2.67-7.425-3.802 1.857.138 3.672.553 5.382 1.221z" fill="#D9C5A0"/><path d="M5.264 36.648c.09.041.18.09.269.13.26.13.529.261.781.383.041.017.082.04.122.057.302.147.595.293.888.432.065.032.122.065.187.09.269.13.538.26.798.39.024.016.057.024.081.04.302.147.603.302.896.449.024.008.04.024.065.032.92.456 1.824.904 2.711 1.352v.105c.025.937.041 1.898.065 2.875-1.245-.75-2.54-1.523-3.932-2.345-1.148-.676-2.353-1.392-3.664-2.166-.016-.22-.032-.431-.057-.651a.653.653 0 00-.04-.171c-.033-.521-.074-1.01-.106-1.458.325.155.635.302.936.456zm12.913 40.505l.024-4.315c.008-1.433.024-2.866.04-4.283.017-1.44.033-2.866.058-4.266.024-1.45.04-2.874.065-4.258.024-1.465.049-2.89.081-4.25.033-1.498.057-2.915.09-4.25.049-2.19.098-4.144.146-5.772.025-.888.05-1.685.066-2.37.268.14.537.277.806.416.008 0 .008.008.016.008 1.075.554 2.206 1.132 3.395 1.742l.187.098c.22.114.448.228.676.35l.244.122c.228.114.448.236.684.35.081.041.155.082.236.122l.147.074c.26.13.513.268.773.399l-.033 4.347a1146.891 1146.891 0 00-6.252-3.867c.04 1.23.09 2.597.122 4.079.032 1.327.065 2.76.09 4.282.024 1.36.04 2.785.048 4.291.009 1.376.017 2.809.009 4.299a395.5 395.5 0 01-.025 4.323c-.016 1.408-.04 2.866-.065 4.364-.033 1.449-.065 2.939-.106 4.461a638.816 638.816 0 01-.17 5.016c-.074 1.896-.164 3.85-.261 5.853-.082 1.637-.18 3.306-.277 5.007-.09 1.466-.188 2.948-.293 4.454-.041.578-.082 1.156-.122 1.742-.057-.04-.106-.081-.163-.122-.017-.505-.033-1.026-.057-1.555a306.244 306.244 0 01-.106-4.307 704.251 704.251 0 01-.065-4.453 760.031 760.031 0 01-.041-7.662c.016-1.49.025-2.98.033-4.47zM65.74 45.205c.073 0 .146-.008.211-.008.367-.016.741-.033 1.108-.057.944-.049 1.88-.09 2.825-.138l1.066-.05c.301-.015.603-.032.904-.04.065 0 .122-.008.187-.008.603-.033 1.213-.057 1.816-.09l2.051-.097 1.458-.074c.065 0 .122-.008.187-.008l.464-.024c.75-.033 1.49-.073 2.239-.106.773-.04 1.547-.073 2.312-.114l.171-.008c.383-.016.757-.033 1.14-.057.716-.033 1.433-.065 2.15-.106l3.11-.146c-.033.179-.066.398-.106.643-.082.504-.188 1.14-.31 1.856-.008.04-.016.073-.016.114a5.2 5.2 0 01-.065.366c-1.661.041-3.322.09-4.975.147-1.05.04-2.108.073-3.159.122-.863.032-1.718.073-2.58.114-.782.032-1.564.073-2.337.114-.733.04-1.466.073-2.198.114-.709.04-1.417.073-2.117.114-.993.057-1.987.114-2.98.179-.928.057-1.856.114-2.784.18.073-.97.146-1.947.228-2.932zm-38.681 1.979l2.345-.122c.342-.017.684-.033 1.026-.057.586-.033 1.172-.058 1.758-.09.375-.016.757-.04 1.132-.057l.399-.024c.724-.041 1.449-.074 2.182-.115.374-.016.757-.04 1.131-.056.074 0 .139-.009.212-.009l2.377-.122.472-.024c.359-.016.725-.04 1.083-.057 1.303-.065 2.614-.13 3.933-.204.904-.048 1.807-.09 2.719-.138.904-.049 1.807-.09 2.72-.139.78-.04 1.563-.08 2.344-.122a1394.973 1394.973 0 00-.79 11.708c-.097 1.547-.203 3.102-.3 4.657l-.392 5.984c-.122 1.816-.236 3.623-.358 5.438-.114 1.702-.236 3.396-.358 5.097-.114 1.62-.236 3.24-.358 4.86a848.943 848.943 0 01-.375 4.69 410.756 410.756 0 01-.39 4.551c-.131 1.482-.27 2.964-.416 4.438a356.017 356.017 0 01-.448 4.347c-.04.399-.081.806-.13 1.205-.024 0-.04.008-.065.008.016-.439.032-.871.057-1.302.065-1.54.122-3.045.179-4.535.057-1.572.114-3.118.171-4.633l.171-4.763c.057-1.669.122-3.313.18-4.917.064-1.734.13-3.436.203-5.113.073-1.824.154-3.623.244-5.373.098-1.954.203-3.868.317-5.74.13-2.141.285-4.234.456-6.294a221.6 221.6 0 01.456-4.844 193.8 193.8 0 01.66-5.536c.024-.204.057-.416.081-.619l-.277.024c-.911.074-1.831.155-2.743.228-.912.074-1.824.147-2.736.228l-3.949.342-3.94.342c-1.31.114-2.622.236-3.924.35-1.311.114-2.614.236-3.925.35-1.05.098-2.1.188-3.15.285.008-2.589.016-4.127.016-4.127z" fill="#A14228"/><path d="M48.708 101.618c.154-1.441.3-2.89.447-4.348.147-1.473.285-2.955.415-4.437.139-1.514.27-3.028.391-4.55.13-1.564.253-3.127.375-4.69.122-1.62.244-3.24.358-4.861.122-1.693.236-3.395.358-5.088.122-1.816.245-3.623.358-5.439l.391-5.984c.098-1.555.204-3.11.301-4.657.123-1.832.237-3.656.359-5.48.138-2.084.285-4.16.431-6.228.13-.008.253-.016.383-.016.74-.04 1.482-.073 2.223-.114l.512-.024.44-.025c.733-.04 1.474-.073 2.206-.114.033 0 .066 0 .09-.008l1.425-.073c.44-.024.887-.04 1.327-.065.195-.008.399-.017.594-.033l1.979-.098c.065 0 .13-.008.195-.008.456-.024.92-.048 1.376-.065.032 0 .057 0 .09-.008-.074.977-.155 1.954-.228 2.931-.009.073-.009.147-.017.22-.122 1.587-.252 3.175-.374 4.77a742.698 742.698 0 01-.326 4.055l-.293 3.68c-.09 1.156-.187 2.304-.285 3.46-.09 1.1-.18 2.207-.277 3.314l-.269 3.2-.268 3.118-.391 4.413-.39 4.315a675.45 675.45 0 01-.4 4.233c-.13 1.392-.268 2.793-.407 4.185l-.415 4.136a627.05 627.05 0 01-.431 4.095 200.45 200.45 0 01-.237 2.174c-.586.114-1.815.301-3.256.505-2.215.309-4.95.667-6.693.855a45.77 45.77 0 01-1.245.122c-.017-.025-.041-.049-.057-.065a.622.622 0 00-.383-.163c-.033 0-.057 0-.09.008-.138.016-.284.041-.423.057.049-.399.09-.806.13-1.205zM12.583 24.9c.538 0 1.075 0 1.62-.008.538 0 1.067 0 1.604-.008.53 0 1.059 0 1.596-.008.53 0 1.059 0 1.588-.008.716 0 1.433-.009 2.149-.009s1.433-.008 2.15-.008c.716 0 1.432 0 2.149-.008.716 0 1.425 0 2.141-.008.717 0 1.425 0 2.141-.008.717 0 1.425 0 2.141-.008h7.393c-.692-.212-1.392-.432-2.117-.652-.985-.3-2.01-.618-3.085-.944-.692-.212-1.409-.431-2.142-.66-.22-.065-.448-.138-.675-.203.22 0 .447.008.667.008l2.133.024c1.042.009 2.076.025 3.102.033 1.042.008 2.076.024 3.102.04.48.009.969.009 1.45.017.57.155 1.115.31 1.66.456 1.075.293 2.109.578 3.094.855 1.066.293 2.084.578 3.078.855.22.065.447.122.667.187h2.426c1.034 0 2.068.008 3.102.008.57 0 1.132 0 1.702.008h1.701c.57 0 1.132 0 1.702.008.57 0 1.132.009 1.702.009.57 0 1.131.008 1.701.008.57 0 1.132 0 1.702.008h.88c.276.057.545.114.821.163.57.114 1.132.228 1.694.342.456.09.903.187 1.351.277.456.089.904.187 1.352.276.456.09.903.188 1.351.277.448.09.896.187 1.344.277.448.09.895.187 1.343.277.448.09.896.187 1.343.276.448.09.896.188 1.344.277v.041c-.456 0-.904 0-1.36-.008-.456 0-.904 0-1.36-.008-.456 0-.903 0-1.36-.008-.455 0-.903 0-1.359-.009-.456 0-.904 0-1.36-.008-.455-.008-.903 0-1.36 0H59.08l-.073-.024v.024h.073c.529.147 1.058.302 1.596.456.545.155 1.099.318 1.66.48.546.155 1.1.318 1.67.481.545.155 1.099.318 1.66.48.31.09.627.18.953.277-.326 0-.651 0-.977.008-.57 0-1.14.008-1.71.008-.57 0-1.14.009-1.718.009-.57 0-1.14.008-1.718.008-.57 0-1.14.008-1.718.016-.57.008-1.14.008-1.717.016-.57.008-1.14.008-1.718.016-.342 0-.684.009-1.018.009-.692-.22-1.368-.44-2.02-.652l-3.003-.96a220.37 220.37 0 01-1.995-.635h-1.058c-1.043 0-2.077.008-3.119.008-1.042 0-2.084.008-3.118.008-1.042 0-2.084.008-3.118.008-1.042 0-2.092.008-3.134.008-.725 0-1.442.008-2.166.008-.725 0-1.45.009-2.166.009-.725 0-1.449.008-2.174.008-.724 0-1.457.008-2.182.008-.732 0-1.465.008-2.198.008l-2.214.008h-.717c-.464-.163-.928-.317-1.376-.48a158.81 158.81 0 01-1.49-.513c-.504-.171-.993-.342-1.49-.513-.496-.171-.993-.342-1.49-.505a94.074 94.074 0 00-1.62-.545l.106.032zm-2.019.57c.48.163.953.318 1.425.48.513.171 1.034.35 1.547.521.562.196 1.132.383 1.701.578.636.22 1.279.44 1.93.66.138.049.277.098.423.146-.008.188-.008.383-.016.562a469.432 469.432 0 01-.049 1.759 573.857 573.857 0 01-.049 1.758l-.024.88-.025.879-.024.88-.024.879-.05 1.595c-.015.521-.032 1.05-.056 1.596-.017.513-.033 1.042-.057 1.596-.008.342-.025.692-.04 1.058-.66-.334-1.312-.667-1.963-.993-.847-.424-1.685-.847-2.524-1.27-.725-.358-1.45-.725-2.19-1.091v-.033c-.008-.578-.016-1.123-.016-1.652 0-.31-.008-.611-.008-.904-.008-.31-.008-.61-.017-.904-.008-.301-.008-.602-.016-.896-.008-.3-.008-.602-.016-.895-.008-.301-.008-.602-.017-.896-.008-.3-.008-.594-.016-.895-.008-.293-.008-.595-.016-.896-.008-.293-.008-.586-.016-.895-.009-.237-.009-.473-.017-.717-.008-.236-.008-.472-.016-.716-.008-.236-.008-.472-.016-.717-.008-.236-.008-.472-.016-.716-.009-.228-.009-.464-.017-.708v-.147c.09.049.188.081.285.114zM56.28 41.476c.219-3.24.39-5.805.61-9.428.024-.431.057-.87.081-1.335h.4c1.416-.008 2.824-.024 4.225-.032l4.184-.025 4.022-.024c-.024.293-.057.586-.081.87-.456 4.772-.733 7.605-1.23 12.433-1.432.073-2.857.138-4.282.212-1.702.081-3.403.17-5.097.252-1.017.049-2.035.106-3.053.155.082-1.116.155-2.125.22-3.078zM12.25 40.1c.48.237.96.48 1.44.725.017.008.033.016.057.024.253.123.505.253.75.383l.048.025c.538.268 1.075.545 1.62.814.017.008.025.016.041.024.269.139.538.269.806.407.008 0 .008.008.017.008.561.285 1.131.578 1.717.88-.024.684-.04 1.481-.065 2.369-.04 1.636-.098 3.582-.146 5.772-.033 1.336-.057 2.76-.09 4.25-.024 1.36-.057 2.785-.081 4.25a650.346 650.346 0 00-.065 4.258c-.025 1.4-.041 2.825-.058 4.266a743.591 743.591 0 00-.04 4.283c-.008 1.433-.025 2.874-.025 4.315-.008 1.49-.008 2.98-.008 4.461a634.617 634.617 0 00.106 12.115c.033 1.498.065 2.94.106 4.307.016.53.033 1.05.057 1.555a.13.13 0 01-.04-.033c-.164-.122-.318-.244-.481-.358-.008-.008-.024-.016-.033-.024l-.496-.375c-.009-.008-.025-.016-.033-.024l-.496-.375c-.025-.016-.05-.032-.074-.057l-.195-.146c-.09-.074-.188-.139-.277-.212-.033-.024-.073-.049-.106-.081a21.922 21.922 0 00-.456-.342c-.057-.05-.122-.09-.179-.139l-.383-.285c-.138-.106-.276-.203-.415-.31l-.17-.121c-.204-.147-.408-.301-.62-.456-.333-.252-.675-.497-1.01-.75-.015-.756-.04-1.513-.056-2.279l-.122-5.438c-.033-1.507-.057-3.02-.082-4.535-.032-1.808-.057-3.623-.09-5.439-.024-1.514-.04-3.028-.064-4.535-.016-1.465-.041-2.93-.057-4.38a22050.217 22050.217 0 00-.098-8.63c-.008-.44-.008-.88-.016-1.31 0-.139 0-.286-.008-.424 0-.22-.009-.448-.009-.668-.008-.342-.008-.684-.016-1.034 0-.179-.008-.366-.008-.545v-.301c0-.277-.008-.562-.008-.839v-.212c-.008-.464-.008-.928-.016-1.392v-.212a79.775 79.775 0 01-.017-1.383v-.236a76.08 76.08 0 01-.016-1.368v-.082l-.049-2.898v-.074l-.024-1.367V45.8l-.025-1.352v-.081l-.024-1.238v-.122a277.53 277.53 0 00-.065-2.874v-.106c.024.008.09.04.146.073z" fill="#E9533A"/><path d="M86.435 29.41c.008-.146.025-.293.033-.44.423.09.855.18 1.286.278 0 .057-.008.105-.016.162h-1.303zm2.093 0h-.774c.008-.057.008-.105.017-.162.244.048.496.105.757.162z" fill="#8ECCBD"/><path d="M85.125 29.419c.016-.245.04-.48.057-.717.423.09.854.18 1.294.277-.008.147-.024.293-.032.44-.44-.008-.88 0-1.32 0z" fill="#A5CBB5"/><path d="M83.814 29.419l.073-1.002c.424.09.855.18 1.295.277-.017.236-.033.48-.057.716-.432.009-.871.009-1.311.009z" fill="#BACBAF"/><path d="M82.503 29.427c.033-.424.065-.855.09-1.278.423.09.855.179 1.294.268l-.073 1.002c-.432 0-.871.008-1.31.008z" fill="#CAC9A6"/><path d="M82.503 29.427c-.44 0-.871 0-1.31.008.04-.521.08-1.034.113-1.555.432.09.855.179 1.295.269-.033.423-.057.854-.098 1.278z" fill="#D9C5A0"/><path d="M81.192 29.427c-.44 0-.87 0-1.31.008v-.032c.048-.603.09-1.197.13-1.792.431.09.855.18 1.294.269a47.312 47.312 0 01-.114 1.547z" fill="#E7C297"/><path d="M79.89 29.402v.033c-.44 0-.871 0-1.311.008.008-.049.008-.098.016-.147.057-.643.098-1.278.139-1.913h.187c.366.073.733.155 1.107.228-.049.595-.09 1.189-.138 1.791zm-2.687.041l.024-.269c.05-.602.09-1.205.13-1.807.457 0 .904 0 1.36.008a72.32 72.32 0 01-.138 1.913c-.008.05-.008.098-.016.147a76.62 76.62 0 01-1.36.008z" fill="#F3BC8F"/><path d="M75.876 29.06c.048-.57.09-1.131.122-1.701.456 0 .903 0 1.36.008-.033.602-.082 1.205-.13 1.807l-.025.27c-.456 0-.912.007-1.368.007.016-.13.033-.26.04-.39z" fill="#E5B29B"/><path d="M75.843 29.451c-.456 0-.912.008-1.368.008l.05-.512c.04-.53.08-1.059.113-1.588.456 0 .904 0 1.36.008a62.274 62.274 0 01-.122 1.702c-.008.122-.025.252-.033.382z" fill="#D5A7A4"/><path d="M74.475 29.46c-.456 0-.911.008-1.367.008.016-.212.04-.424.057-.627.04-.497.073-.986.105-1.482.456 0 .904 0 1.36.008-.032.53-.073 1.058-.114 1.588-.008.163-.024.333-.04.504z" fill="#C69DAA"/><path d="M73.108 29.468c-.456 0-.912.008-1.368.008.024-.253.049-.497.065-.75a40.6 40.6 0 00.098-1.375c.456 0 .903 0 1.36.008-.033.497-.066.985-.106 1.482a8.434 8.434 0 01-.05.627z" fill="#B592AF"/><path d="M71.748 29.476c-.456 0-.912.008-1.368.008.025-.293.057-.578.082-.871.032-.424.065-.839.09-1.262h1.359l-.098 1.376a25.6 25.6 0 01-.065.749z" fill="#A487B4"/><path d="M70.462 28.613c-.025.293-.05.586-.082.87-.456 0-.911.01-1.367.01.032-.335.065-.66.09-.994.032-.383.056-.765.08-1.148h1.36c-.016.415-.049.838-.081 1.262z" fill="#967DB7"/><path d="M69.102 28.499c-.025.334-.057.66-.09.993-.57 0-1.14.008-1.71.008.041-.383.074-.765.106-1.148l.074-1.01h1.701c-.016.383-.049.766-.081 1.157z" fill="#967DB7"/><path d="M67.303 29.5c-.244 0-.489 0-.733.008-.317-.09-.635-.187-.952-.276l.097-1.018c.025-.293.05-.578.065-.871h1.702l-.073 1.01c-.033.382-.065.764-.106 1.147z" fill="#958BBB"/><path d="M65.617 29.231c-.57-.163-1.115-.325-1.66-.48.024-.228.04-.456.065-.684.024-.244.04-.488.057-.733h1.701c-.016.293-.04.578-.065.872a21.95 21.95 0 01-.098 1.025z" fill="#9397BF"/><path d="M62.328 27.929l.049-.586h1.71c-.017.244-.033.488-.057.732-.017.228-.041.456-.066.684-.57-.163-1.123-.325-1.669-.48.009-.122.025-.236.033-.35z" fill="#92A3C1"/><path d="M62.328 27.929c-.008.114-.024.228-.032.342-.562-.163-1.116-.318-1.661-.48v-.009c.016-.146.024-.301.032-.448h1.71l-.049.595z" fill="#91AFC3"/><path d="M60.635 27.79c-.538-.154-1.075-.31-1.596-.456h1.628c-.008.147-.016.302-.032.448v.008z" fill="#90B9C1"/><path d="M92.297 40.459c-.008.122-.024.244-.04.374-.066.619-.123 1.27-.196 1.97l-.537.025c.228-.676.456-1.344.668-2.027.032-.114.073-.228.105-.342z" fill="#F3BC8F"/><path d="M89.855 33.774c.22-1.074.415-2.15.578-3.232.944 0 1.88-.008 2.817-.008-.374 3.932-.61 6.407-.96 9.916a5.608 5.608 0 01-.107.342c-.211.676-.44 1.352-.667 2.028-.595.024-1.189.056-1.783.081l-2.565.122a62.941 62.941 0 002.687-9.249z" fill="#F3BC8F"/><path d="M82.772 43.235a59.37 59.37 0 003.142-10.275c.163-.798.31-1.604.448-2.401 1.368 0 2.728-.009 4.08-.009a62.58 62.58 0 01-.579 3.233 62.187 62.187 0 01-2.678 9.248c-1.482.066-2.948.139-4.413.204z" fill="#E9B598"/><path d="M78.302 43.455a55.017 55.017 0 003.664-11.309c.105-.521.203-1.05.3-1.571 1.369-.008 2.736-.008 4.088-.017a58.942 58.942 0 01-3.59 12.676l-4.462.22z" fill="#DDAD9F"/><path d="M69.729 31.478l.081-.846 4.275-.025a46.606 46.606 0 01-5.015 13.328l-.57.024c.488-4.852.765-7.693 1.229-12.48z" fill="#B994AE"/><path d="M78.905 42.176c-.18.424-.367.855-.554 1.279h-.049l-4.527.22a50.814 50.814 0 004.291-12.376c.049-.236.098-.472.138-.716 1.36-.008 2.72-.008 4.063-.016h.049c-.09.52-.187 1.034-.293 1.555a55.27 55.27 0 01-3.118 10.054z" fill="#D1A4A5"/><path d="M78.204 30.583c-.048.236-.09.48-.138.716a51.049 51.049 0 01-4.29 12.375h-.033c-1.555.074-3.11.155-4.665.228a46.856 46.856 0 004.999-13.295 687.15 687.15 0 014.095-.016c.008-.008.016-.008.032-.008z" fill="#C69DAA"/><path d="M19.764 51.62c-.04-1.49-.081-2.849-.122-4.078a2682.81 2682.81 0 016.253 3.867l-.008 1.409a34.077 34.077 0 00-6.123-1.197z" fill="#967DB7"/><path d="M25.846 57.255a29.36 29.36 0 00-5.992-1.344 501.504 501.504 0 00-.09-4.282c2.1.212 4.144.61 6.115 1.189l-.033 4.437z" fill="#967DB7"/><path d="M19.854 55.911c2.068.245 4.07.7 5.992 1.344l-.033 4.518a25.24 25.24 0 00-5.902-1.571c-.017-1.506-.033-2.94-.057-4.29z" fill="#8D89BF"/><path d="M25.813 61.773l-.032 4.64a21.183 21.183 0 00-5.854-1.904c0-1.49 0-2.931-.008-4.299 2.043.277 4.022.814 5.894 1.563z" fill="#8694C5"/><path d="M25.773 66.414l-.041 4.877a17.026 17.026 0 00-5.846-2.467 395.5 395.5 0 00.024-4.323 20.896 20.896 0 015.863 1.913z" fill="#7C9ECB"/><path d="M25.56 94.242l-.04 5.511a17.15 17.15 0 01-4.29 1.979c-.587-.448-1.173-.904-1.75-1.343a.207.207 0 01-.042-.033c-.276-.212-.561-.431-.846-.643.04-.586.081-1.164.122-1.742a12.714 12.714 0 006.847-3.73zm-5.674-25.418a16.717 16.717 0 015.846 2.467l-.041 5.511a12.696 12.696 0 00-5.878-3.606c.04-1.506.057-2.964.073-4.372z" fill="#70A7D0"/><path d="M24.828 85.034a8.514 8.514 0 00-5.113-7.393c.041-1.522.082-3.012.106-4.461a12.804 12.804 0 015.878 3.606l-.13 17.44a12.685 12.685 0 01-6.855 3.728c.106-1.506.204-2.988.293-4.453a8.469 8.469 0 005.821-8.467z" fill="#65AFD3"/><path d="M20.578 85.246a4.232 4.232 0 00-1.034-2.581c.066-1.71.122-3.387.171-5.016a8.504 8.504 0 015.113 7.393c.187 3.9-2.288 7.311-5.821 8.483.106-1.701.195-3.37.277-5.007a4.278 4.278 0 001.294-3.272z" fill="#52B6D6"/><path d="M19.544 82.665a4.184 4.184 0 011.034 2.58 4.204 4.204 0 01-1.302 3.265c.105-1.995.195-3.949.268-5.845z" fill="#3FBDD8"/><path d="M25.52 99.754l-.032 4.119c-.009.253-.025.513-.033.765l-.318.147a414.953 414.953 0 00-3.916-3.061 16.525 16.525 0 004.299-1.97z" fill="#7C9ECB"/><path d="M25.43 104.655c.009 0 .017-.008.025-.008-.008.13-.008.26-.016.382-.098-.081-.204-.154-.301-.236.097-.049.195-.089.293-.138z" fill="#8694C5"/><path d="M1.185 22.555c.008.245.025.489.033.717.008.244.024.488.032.716.008.139.008.277.017.416 0 .032 0 .073.008.105 0 .065.008.13.008.188v.016c0 .073.008.138.008.211v.066c.008.106.008.203.016.3v.009c0 .04 0 .082.008.13.009.245.025.489.033.725.008.244.016.488.032.724.009.253.017.505.033.758.008.252.016.505.033.757.008.252.016.505.032.765l.025.765.024.774.024.773.025.774c.008.317.024.643.032.985 0 .049 0 .098.009.155 0 .065.008.13.008.195.211.106.415.204.627.301.333.163.66.318.977.48.04.025.09.041.13.066.293.138.578.285.863.423.342.171.676.334 1.01.497.35.17.691.342 1.033.505.359.179.709.35 1.05.52.367.18.725.359 1.084.53.7.35 1.392.684 2.068 1.017.016 0 .024-.008.04-.008v.033c.741.366 1.466.733 2.19 1.09.847.424 1.686.84 2.532 1.27.644.327 1.295.652 1.962.994.391.196.782.4 1.18.603 2.232 1.14 4.634 2.369 7.426 3.802l.049-1.62c.016-.611.032-1.197.049-1.767.016-.603.032-1.18.049-1.742.016-.587.032-1.157.04-1.726.017-.57.025-1.132.041-1.71.008-.31.016-.619.016-.928.008-.31.017-.619.017-.928v-.123c.008-.26.008-.529.016-.797.008-.302.008-.611.016-.92.008-.302.008-.603.016-.92.009-.302.009-.603.017-.92.008-.253.008-.513.016-.774a1842.85 1842.85 0 00-6.627-2.312 196.26 196.26 0 00-1.922-.66c-.138-.048-.285-.097-.423-.146a137.79 137.79 0 00-1.93-.66c-.57-.195-1.131-.39-1.701-.578a80.135 80.135 0 00-1.547-.52c-.472-.163-.945-.318-1.425-.481l-.293-.098c-.35-.114-.7-.236-1.05-.358-.415-.138-.839-.285-1.27-.423-.383-.13-.774-.26-1.173-.391-.366-.122-.74-.252-1.123-.375-.358-.122-.717-.236-1.091-.366-.35-.114-.7-.236-1.059-.35a75.694 75.694 0 00-1.025-.342c-.326-.106-.66-.22-1.002-.334-.097-.032-.203-.065-.301-.098 0 .074 0 .147.008.22zM4.45 37.65a.527.527 0 01.04.17c.017.22.033.44.058.652.081.977.162 1.954.244 2.915.163 1.97.334 3.924.505 5.845.122 1.4.244 2.793.366 4.169.049.57.098 1.14.155 1.71.13 1.457.26 2.914.382 4.364.13 1.473.253 2.947.375 4.412l.366 4.502a442.6 442.6 0 01.342 4.674c.122 1.693.228 3.387.334 5.096.146 2.524.277 5.073.383 7.67.048 1.262.097 2.532.13 3.818.04 1.433.081 2.882.106 4.348 1.253.936 2.45 1.823 3.647 2.703.367.268.725.537 1.091.806.334.252.668.496 1.01.749.211.154.415.31.618.456l.171.122c.139.106.277.212.416.31.13.097.252.186.382.284.057.049.122.09.18.139.154.114.3.228.455.342.033.024.073.048.106.08.098.074.187.14.277.213l.195.146a.435.435 0 01.074.057c.17.13.333.252.496.375.008.008.025.016.033.024.17.13.334.252.497.375.008.008.024.016.032.024.163.122.317.244.48.358a.143.143 0 01.041.033c.057.04.106.081.163.122.285.212.562.431.847.643.016.008.032.016.04.033.587.447 1.165.895 1.75 1.343a536.35 536.35 0 013.917 3.061c.09.074.179.139.269.212.008.008.024.016.032.024.008-.13.008-.26.016-.382.009-.236.017-.481.033-.717v-.049l.032-4.12.041-5.511.13-17.44.041-5.511.04-4.877.034-4.64.032-4.52.033-4.444.008-1.409.032-4.347a7.634 7.634 0 00-.447-.228c-.114-.058-.22-.115-.334-.172l-.147-.073c-.081-.04-.154-.081-.236-.122a27.29 27.29 0 00-.684-.35l-.244-.122c-.228-.114-.456-.236-.676-.35l-.187-.098a433.64 433.64 0 00-2.581-1.327c-.277-.138-.545-.277-.814-.415-.008 0-.008-.008-.016-.008-.253-.13-.505-.253-.75-.383-.056-.032-.122-.057-.178-.09-.204-.105-.416-.211-.62-.317a2.901 2.901 0 00-.227-.114 32.58 32.58 0 00-.757-.383c-.009 0-.009-.008-.017-.008-.268-.138-.537-.277-.806-.407-.016-.008-.024-.016-.04-.024-.546-.277-1.083-.546-1.62-.814l-.05-.025c-.252-.13-.504-.252-.748-.383-.017-.008-.033-.016-.057-.024-.48-.244-.961-.48-1.442-.725-.048-.024-.105-.048-.154-.073l-.05-.024c-.43-.22-.87-.432-1.31-.652l-.024-.016c-.448-.22-.896-.448-1.352-.668-.024-.008-.04-.024-.065-.032-.293-.147-.594-.293-.895-.448-.025-.016-.057-.024-.082-.04-.26-.13-.53-.261-.798-.391-.065-.033-.122-.066-.187-.09-.293-.146-.586-.285-.887-.431-.041-.017-.082-.041-.123-.057-.26-.13-.52-.253-.781-.383-.09-.04-.18-.09-.269-.13-.301-.147-.61-.302-.92-.448.025.431.057.912.098 1.433zm22.34-7.792l2.028-.024 2.222-.024 2.207-.025c1.066-.008 2.124-.024 3.183-.032 1.058-.009 2.117-.025 3.167-.033 1.058-.008 2.109-.024 3.159-.033 1.058-.008 2.1-.016 3.15-.032l3.135-.025 3.135-.024c.708-.008 1.408-.008 2.108-.016.342 0 .684-.009 1.018-.009.57-.008 1.148-.008 1.718-.016.57-.008 1.148-.008 1.718-.016.57-.008 1.148-.008 1.718-.016.57 0 1.148-.009 1.718-.009.57 0 1.148-.008 1.718-.008.57 0 1.14-.008 1.71-.008.325 0 .65-.008.976-.008.244 0 .489 0 .733-.008.57 0 1.14-.008 1.71-.008.456 0 .912-.008 1.367-.008.456 0 .912-.008 1.368-.008.456 0 .912-.009 1.368-.009.456 0 .912-.008 1.368-.008.456 0 .912-.008 1.368-.008.456 0 .911-.008 1.367-.008.456 0 .912 0 1.368-.008.44 0 .88 0 1.31-.008.44 0 .88 0 1.312-.009.44 0 .87 0 1.31-.008.44 0 .872 0 1.311-.008.44 0 .871 0 1.311-.008h3.395c-.26-.057-.513-.106-.765-.163-.432-.09-.863-.187-1.287-.276-.44-.09-.863-.188-1.294-.277-.432-.09-.863-.188-1.295-.277-.431-.09-.863-.18-1.294-.277l-1.295-.269-1.294-.268c-.367-.082-.741-.155-1.107-.228h-.188v-.041c-.447-.098-.895-.187-1.343-.277-.448-.09-.896-.187-1.343-.277-.448-.09-.896-.187-1.344-.276-.447-.09-.895-.188-1.343-.277-.448-.09-.896-.188-1.352-.277-.447-.09-.895-.187-1.351-.277-.448-.09-.896-.179-1.352-.277-.553-.114-1.123-.228-1.693-.342a24.607 24.607 0 00-.822-.163c-.285-.056-.578-.113-.871-.179a210.13 210.13 0 00-1.694-.341c-.553-.114-1.123-.229-1.693-.343-.554-.113-1.124-.227-1.694-.341-.553-.114-1.123-.228-1.701-.342-.554-.114-1.124-.228-1.702-.342-.537-.106-1.075-.212-1.628-.326h-.074l-3.093-.049c-1.026-.016-2.06-.032-3.094-.04-1.026-.017-2.06-.025-3.094-.041-1.026-.017-2.06-.025-3.102-.04-.545-.01-1.099-.017-1.653-.025-.48-.008-.96-.008-1.449-.017-1.026-.016-2.06-.024-3.102-.04-1.026-.009-2.06-.025-3.102-.033l-2.133-.024c-.22 0-.448-.009-.667-.009-.489-.008-.977-.008-1.466-.016l-2.133-.024-2.141-.025-2.141-.024c-.709-.008-1.425-.016-2.142-.016a184.98 184.98 0 00-2.14-.017c-.522-.008-1.051-.008-1.58-.016-.521-.008-1.05-.008-1.58-.016-.529-.008-1.05-.008-1.587-.017-.53-.008-1.059-.008-1.588-.016-.53-.008-1.067-.008-1.604-.016-.545-.008-1.09-.008-1.645-.016-.602-.008-1.213-.008-1.815-.017-.75-.008-1.498-.008-2.255-.016-.407 0-.806-.008-1.213-.008.325.106.65.22.968.326 1.01.334 1.979.66 2.915.968.513.172 1.01.342 1.506.505.505.171 1.002.334 1.498.505l1.368.464.13.04c.497.172.994.335 1.49.506.497.17.994.333 1.49.504.489.171.985.342 1.49.513.489.171.985.342 1.49.513.448.155.912.318 1.376.472.212.074.431.147.643.22.651.228 1.327.464 2.02.7.65.228 1.326.465 2.018.7.652.229 1.32.465 2.02.709.032.09.097.114.162.138zm.725 75.635c.912-.105 1.8-.211 2.67-.309.92-.106 1.824-.22 2.712-.326.936-.114 1.856-.228 2.76-.342.952-.122 1.888-.236 2.808-.358.97-.122 1.922-.252 2.874-.374l2.947-.391.562-.073c1.246-.163 2.467-.326 3.68-.489.025 0 .041-.008.065-.008.139-.016.285-.041.424-.057.032 0 .057-.008.09-.008.146 0 .284.057.382.163.024.024.04.04.057.065a45.81 45.81 0 001.246-.122 295.35 295.35 0 006.692-.855c1.45-.204 2.67-.391 3.257-.505a.414.414 0 01.097-.016.585.585 0 01.375-.196 327.15 327.15 0 013.615-.366c3.704-.358 7.327-.643 11.04-.863 1.595-.098 3.2-.18 4.836-.252.114-.929.228-1.881.35-2.834.163-1.27.325-2.556.505-3.867.17-1.278.342-2.564.52-3.859.18-1.278.359-2.565.546-3.86.187-1.285.367-2.572.562-3.858l.39-2.662c.131-.888.27-1.775.4-2.655.138-.887.268-1.774.407-2.654.138-.895.277-1.783.407-2.654.138-.895.277-1.783.415-2.654.138-.896.285-1.783.423-2.654.147-.904.285-1.791.424-2.654.146-.904.285-1.791.431-2.654.147-.912.293-1.8.432-2.655.106-.627.203-1.237.301-1.831.106-.627.204-1.238.301-1.832.106-.635.204-1.246.302-1.84.105-.635.203-1.254.3-1.832.107-.651.212-1.262.31-1.84.081-.48.155-.937.228-1.36.025-.122.04-.252.065-.366.008-.04.017-.073.017-.114.122-.717.228-1.352.309-1.856.04-.245.073-.465.106-.644a8472.8 8472.8 0 01-3.11.147l-2.15.098c-.382.016-.757.032-1.14.057l-.17.008c-.774.04-1.547.073-2.313.114-.749.032-1.498.073-2.239.105l-.464.025c-.065 0-.122.008-.187.008l-1.457.073-2.052.098c-.603.033-1.213.057-1.816.09-.065 0-.122.008-.187.008-.301.016-.602.032-.904.04l-1.066.05c-.945.048-1.88.089-2.825.138-.367.016-.741.032-1.107.057-.074 0-.147.008-.212.008-.033 0-.057 0-.09.008-.456.024-.92.049-1.376.065-.065 0-.13.008-.195.008l-1.978.098c-.196.008-.4.016-.595.033-.44.024-.887.04-1.327.065l-1.425.073c-.032 0-.065 0-.09.008-.74.04-1.473.073-2.206.114l-.44.024-.512.025c-.741.04-1.482.073-2.223.114-.13.008-.252.016-.382.016l-2.345.122c-.912.05-1.816.09-2.72.139-.911.049-1.815.09-2.719.138-1.31.065-2.621.13-3.932.204-.358.016-.725.04-1.083.057l-.472.024-2.377.122c-.074 0-.139.008-.212.008-.375.017-.757.041-1.132.057-.724.041-1.457.074-2.182.114l-.399.025c-.374.016-.757.04-1.131.057-.587.032-1.173.057-1.759.09-.342.016-.684.032-1.026.056l-2.345.122-.024 4.136c-.008.904-.008 1.93-.016 3.062l-.065 11.202-.05 8.313-.048 7.1c-.016 2.181-.033 4.33-.04 6.399a7067.608 7067.608 0 01-.074 9.004l-.024 2.842-.025 2.776c-.008 1.164-.024 2.084-.032 2.719-.009.44-.017.741-.017.871.269-.097.554-.13.847-.163zM91.524 42.82l.537-.025c.073-.7.13-1.351.196-1.97.016-.122.024-.244.04-.375.35-3.509.587-5.984.961-9.916-.936 0-1.88 0-2.817.008-1.351 0-2.711.008-4.079.008-1.335 0-2.687.008-4.038.017h-.049c-1.351.008-2.703.008-4.063.016h-.032c-1.36.008-2.72.016-4.095.016h-.017l-4.258.025-4.022.024-4.184.024c-1.4.009-2.81.017-4.226.033h-.399c-.846.008-1.693.016-2.548.016l-2.988.025-3.061.024-3.16.025c-1.106.008-2.214.024-3.33.032-1.22.008-2.442.025-3.68.033l-4.762.049c-2.043.024-4.103.04-6.18.065-.008.358-.007.708-.016 1.05a1255.936 1255.936 0 01-.106 5.56c-.016.929-.04 1.84-.065 2.777-.016.822-.04 1.66-.065 2.548 0 .074 0 .147-.008.22-.024.863-.049 1.783-.073 2.776.407.025.814.041 1.213.05h.18c.968-.05 1.937-.099 2.914-.155 3.517-.18 7.075-.367 10.657-.554 1.8-.09 3.599-.187 5.414-.277l6.31-.318c.814-.04 1.636-.08 2.45-.122 1.018-.048 2.036-.105 3.054-.154 1.693-.082 3.395-.171 5.096-.253 1.425-.073 2.85-.138 4.283-.211l.57-.025h.016c1.555-.073 3.102-.154 4.665-.228h.033l4.526-.22h.05c1.473-.073 2.946-.138 4.42-.211 1.466-.073 2.931-.139 4.405-.212l2.564-.122c.578-.016 1.173-.04 1.767-.073zM.004 21.432c0-.016.009-.025.009-.04l.024-.082c.008-.017.016-.025.025-.041.016-.024.024-.049.04-.065a.144.144 0 01.033-.04c.008-.009.008-.017.016-.025.016-.017.033-.025.04-.041l.025-.024s.008 0 .008-.009a.61.61 0 01.098-.057L.33 21c.04-.016.082-.024.122-.032h.041c.024 0 .04-.008.065-.008 21.34.146 38.909.333 55.29.578.032 0 .065.008.105.008 15.852 3.15 23.407 4.722 38.03 7.856.016 0 .024.008.04.008l.074.025c.008.008.016.008.032.016a.178.178 0 01.065.041.117.117 0 00.033.024c.016.017.04.033.057.05.008.007.008.007.016.007.008.008.008.017.017.025.016.016.024.032.04.057.008.016.017.024.025.04.008.017.016.041.032.066.008.016.008.024.016.04a.237.237 0 01.017.074c0 .008.008.024.008.032 0 .04.008.073 0 .114-.505 5.317-.757 7.946-1.295 13.385a.57.57 0 01-.545.513l-1.474.073-.822.04c-.082.49-.228 1.369-.472 2.859-1.441 8.605-5.813 34.78-8.06 53.53a.574.574 0 01-.538.505l-.545.024v.025c-.985.041-1.946.081-2.89.122-5.455.301-10.674.716-16.161 1.303a.595.595 0 01-.196.114c-.814.285-11.618 1.718-12.432 1.644a.59.59 0 01-.375-.187c-1.204.155-2.41.318-3.647.48-5.78.766-11.748 1.555-18.88 2.353h-.074a.639.639 0 01-.122-.016h-.008a.228.228 0 01-.081-.033c-.008 0-.008-.008-.017-.008-.024-.008-.04-.024-.065-.032l-.008-.008-.008-.009c-.008-.008-.016-.008-.024-.016-.066-.049-1.336-.961-1.824-1.36a360.563 360.563 0 00-4.087-3.224 376.631 376.631 0 00-4.584-3.517c-.057-.04-.114-.09-.17-.13a166.09 166.09 0 00-1.727-1.278c-.692-.513-1.376-1.018-2.06-1.523a762.354 762.354 0 01-3.908-2.898.478.478 0 01-.162-.195c-.041-.025-.074-.058-.114-.082-.033-3.191-.114-6.31-.228-9.37-.464-10.87-1.36-20.998-2.304-31.59-.383-4.348-.782-8.842-1.157-13.442a.444.444 0 01-.04-.179c-.057-.847-.114-1.612-.163-2.271-.757-.367-1.539-.75-2.353-1.148a.575.575 0 01-.318-.497A1068.09 1068.09 0 00.03 21.562a.158.158 0 01-.024-.13z" fill="#232F40"/><path d="M51.337 18.297l-.024-.154-.025-.171a6 6 0 01-.024-.155c.016-.024.024-.04.04-.065.033-.049.057-.098.09-.147.033-.057.065-.114.098-.163.024-.048.057-.097.081-.146l.098-.171c.024-.049.057-.098.081-.147.033-.057.065-.122.106-.179.025-.04.049-.09.073-.13.033-.065.074-.13.106-.195.025-.041.05-.09.074-.13.04-.066.073-.13.114-.196.024-.04.048-.09.073-.13.04-.065.073-.13.114-.204.024-.04.049-.081.073-.13.04-.065.073-.138.114-.204.024-.04.04-.081.065-.122.04-.073.073-.138.114-.212.025-.04.04-.08.065-.122.04-.073.073-.138.114-.211.025-.041.04-.082.065-.122.041-.074.074-.139.114-.212.025-.04.041-.081.065-.122.041-.073.074-.139.114-.212.025-.04.041-.081.066-.114.04-.073.073-.138.114-.212.024-.04.04-.081.065-.114.032-.065.073-.138.105-.203.025-.04.041-.082.066-.122.032-.065.073-.13.105-.204.025-.04.041-.081.066-.122l.097-.195c.017-.04.041-.082.057-.114l.098-.196c.016-.04.04-.073.057-.114l.098-.195a.748.748 0 01.057-.114l.097-.195a.753.753 0 01.057-.114c.033-.066.057-.123.09-.188a.739.739 0 01.057-.114c.032-.057.057-.122.081-.179.017-.04.033-.073.05-.106.024-.056.056-.114.08-.17l.05-.115.073-.17c.016-.033.032-.074.049-.106.024-.057.048-.106.073-.163.016-.033.032-.073.049-.106.024-.049.04-.106.065-.155a.56.56 0 00.04-.105c.025-.05.041-.098.066-.147.016-.033.024-.065.04-.098.017-.049.041-.097.057-.146a.3.3 0 01.041-.09.688.688 0 01.057-.138c.008-.025.025-.057.033-.09.016-.049.032-.09.049-.138.008-.025.016-.057.032-.082.016-.049.033-.09.049-.13l.024-.073c.017-.049.025-.09.041-.13a.15.15 0 00.016-.057 6.814 6.814 0 00.171-.7c.008-.05.025-.106.033-.155l.073-.359c.008-.057.016-.105.033-.162.008-.066.024-.13.032-.196 2.06-.146 6.741-.195 10.812 1.808 0 .122-.016.252-.032.382-.163 1.026-.896 2.166-2.174 3.395a543.97 543.97 0 00-2.923 1.84c-.464.293-.912.578-1.36.855-2.084.57-5.634 1.645-9.037 3.127-.008-.098-.024-.196-.032-.293-.033-.009-.033-.041-.041-.066z" fill="#E9533A"/><path d="M56.092 7.274c.008-.066.024-.13.032-.196.008-.032.008-.065.017-.098.024-.154.04-.309.057-.464 0-.04.008-.081.008-.122l.024-.325c0-.05.008-.098.008-.147.008-.106.008-.212.008-.317V5.49c0-.139 0-.277-.008-.407v-.082c-.008-.106-.008-.212-.016-.317 0-.041-.008-.082-.008-.123l-.024-.268c-.009-.04-.009-.074-.017-.114-.016-.114-.032-.236-.049-.35v-.008a4.056 4.056 0 00-.065-.334l-.024-.098c-.016-.081-.04-.155-.057-.228a34.84 34.84 0 00-.025-.098l-.073-.244c-.008-.016-.008-.04-.016-.057a10.782 10.782 0 00-.098-.277l-.024-.073c-.025-.065-.057-.13-.082-.195-.008-.025-.024-.057-.032-.082-.025-.065-.057-.122-.09-.187l-.024-.049.122.049c2.564 1.05 6.44 2.915 8.947 4.201.115.057.22.114.326.18l.082.048c.073.04.146.09.22.13l.073.05.032.024.163.114c.04.032.09.065.13.097l.098.074c.83.659 1.238 1.384 1.221 2.214-4.087-2.003-8.768-1.954-10.836-1.807z" fill="#F08666"/><path d="M59.764 15.96c-2.882 1.255-5.7 2.793-8.19 4.17l-.074-.497-.049-.342a7.787 7.787 0 00-.073-.611c3.403-1.474 6.953-2.548 9.037-3.126-.212.13-.431.268-.651.407zm-9.966-7.001c1.32-4.356 2.06-6.57 2.68-7.417a.763.763 0 01.13-.155c.008 0 .008-.008.008-.008.008-.008.016-.016.024-.016.008-.008.016-.008.016-.017.008-.008.017-.008.025-.016s.016-.008.024-.016c.008 0 .016-.008.016-.008.009-.008.017-.008.025-.017.008 0 .008-.008.016-.008s.016-.008.033-.008c.008 0 .008-.008.016-.008s.024-.008.032-.008h.017c.016 0 .024-.008.04-.008h.139c.016 0 .04 0 .065.008h.008c.024 0 .049.008.073.008h.008c.139.024.31.065.53.13.635.521 1.824 2.361 1.237 5.83a15.05 15.05 0 01-.252 1.164c0 .008-.008.016-.008.024-.008.033-.017.074-.033.106-.008.016-.008.04-.016.057-.008.033-.016.057-.025.09-.008.024-.016.049-.024.065a.399.399 0 01-.032.09l-.025.073c-.008.032-.024.057-.032.09-.009.024-.017.048-.033.08-.008.033-.024.066-.033.098-.008.025-.024.057-.032.082-.017.032-.025.065-.04.106-.01.032-.025.057-.033.09-.017.04-.033.072-.05.113-.008.025-.024.057-.032.082-.016.048-.04.09-.057.138a.287.287 0 01-.033.073c-.032.074-.065.139-.089.212-.008.024-.025.049-.033.073-.024.05-.048.106-.073.155-.016.033-.032.065-.04.098-.025.048-.041.09-.066.138l-.048.106c-.025.049-.041.09-.066.138-.016.033-.032.073-.049.106-.024.049-.048.098-.065.147a.747.747 0 01-.057.114l-.073.146c-.016.04-.04.073-.057.114l-.073.155c-.017.04-.04.073-.057.114-.025.057-.057.114-.082.17a.438.438 0 01-.057.107c-.032.073-.073.146-.114.22-.016.024-.024.056-.04.08-.05.09-.09.18-.139.27a.853.853 0 01-.065.122c-.032.057-.057.122-.09.179a.977.977 0 00-.065.13c-.032.057-.056.114-.09.171-.023.049-.048.09-.072.138-.033.057-.057.114-.09.171l-.073.147c-.033.057-.057.114-.09.17-.024.05-.057.099-.081.147a1.76 1.76 0 00-.09.171c-.024.05-.057.098-.081.147l-.098.187a1.323 1.323 0 01-.081.147c-.033.065-.074.13-.106.195a.768.768 0 01-.081.139c-.058.106-.123.22-.18.325-.024.05-.048.09-.073.139-.04.065-.073.138-.114.203-.032.057-.057.106-.09.163a2.188 2.188 0 01-.105.187l-.098.171c-.024.033-.04.074-.065.106-.44-1.555-1.107-2.687-2.011-3.444-.04-.032-.073-.065-.114-.098a67.138 67.138 0 011.01-3.663z" fill="#A14228"/><path d="M51.63 22.555c.122-.154.18-.423.269-.797 0-.009.008-.025.008-.033v-.016c.024-.098.04-.188.065-.269a28.456 28.456 0 012.931-1.669c.53-.269 1.034-.505 1.53-.733 1.197-.562 2.427-1.14 3.917-2.084 3.167-1.368 5.764-2.141 7.71-2.304l.317-.024c0 .016.008.024.008.04.009.065.025.13.033.196.008.04.008.081.016.114.008.065.008.138.017.203 0 .04 0 .073.008.114v.318l-.025.325c0 .017 0 .025-.008.041a3.64 3.64 0 01-.04.293.405.405 0 00-.017.098l-.049.236-.024.114c-.016.073-.04.155-.057.228-.008.032-.025.073-.033.106l-.073.244a.4.4 0 01-.032.09 3.424 3.424 0 01-.114.309c0 .008-.009.008-.009.016a5.97 5.97 0 01-.138.342c-.008.016-.008.024-.016.04a3.26 3.26 0 01-.13.286c-.017.032-.025.057-.041.081-.041.082-.074.163-.114.244a.893.893 0 01-.05.09c-.04.081-.08.155-.121.236-.016.033-.033.057-.05.09-.04.081-.089.17-.138.252-.008.016-.024.04-.032.057-.114.204-.236.407-.35.603-.008.016-.025.032-.033.048-.049.082-.097.155-.138.228l-.049.074-.122.195c-.016.024-.033.057-.049.081-.04.066-.081.122-.122.18l-.049.073a2.34 2.34 0 01-.13.187c-.016.016-.025.033-.04.057-.05.073-.107.147-.156.22a.171.171 0 00-.032.049 1.012 1.012 0 00-.073.105c-3.037.025-9.493 1.181-14.42 2.435.213-.415.318-.88.245-1.409z" fill="#E9533A"/><path d="M65.903 21.375c.048-.073.105-.147.154-.22.008-.016.025-.033.04-.057.042-.057.082-.122.131-.187l.049-.074c.04-.057.081-.122.122-.179.016-.024.033-.049.049-.081l.122-.196.049-.073c.049-.073.098-.154.138-.228.008-.016.025-.032.033-.049.114-.195.236-.398.35-.602.008-.016.024-.04.033-.057.048-.081.09-.163.138-.252a.3.3 0 00.04-.09c.041-.081.082-.155.123-.236a.915.915 0 01.049-.09c.04-.081.081-.163.114-.244.016-.024.024-.057.04-.081.041-.098.09-.188.13-.285.009-.017.009-.025.017-.041.049-.114.098-.228.138-.342 0-.008.008-.008.008-.016.041-.106.074-.212.114-.31a.397.397 0 01.033-.09l.073-.243c.008-.033.025-.074.033-.106.024-.074.04-.155.057-.228l.024-.114c.016-.082.033-.155.05-.236.007-.033.015-.065.015-.098.017-.098.033-.195.041-.293 0-.016.008-.024.008-.04a2.19 2.19 0 00.025-.326v-.082c0-.081.008-.163 0-.236 0-.04 0-.073-.008-.114 0-.065-.009-.138-.017-.204a.483.483 0 00-.016-.114c-.008-.065-.016-.13-.033-.195 0-.016 0-.024-.008-.04 1.376-.074 2.418.179 3.11.74.09.074.163.139.228.204.228.236.61 1.58.578 5.113a46.063 46.063 0 01-.203 3.973c-1.018-1.246-2.996-3.07-5.968-3.135h-.326c.025-.032.05-.065.074-.105.024-.009.032-.025.049-.041z" fill="#F08666"/><path d="M48.854 25.893c.928-.187 1.457-.374 1.767-.553.154-.04.317-.082.472-.13 5.048-1.328 12.147-2.614 14.997-2.54 2.898.064 4.738 2.165 5.446 3.166-.081.033-.17.066-.252.098-5.805 2.19-17.236 1.026-23.065.212.212-.082.423-.163.635-.253zm-27.356-4.502c.057-.122.13-.236.204-.358a.275.275 0 00.048-.098c.334-.79.692-1.368 1.075-1.766.057-.058.114-.114.18-.172a1.854 1.854 0 011.375-.48c.586.025 1.335.285 2.312.96.066.042.13.09.196.131l.073.049c.049.033.09.057.139.09a.735.735 0 00.09.048c.048.025.089.057.137.082.033.016.066.04.098.057.049.024.09.049.139.081l.105.057c.05.025.09.05.139.073.04.017.081.041.114.058l.146.073c.041.024.082.04.122.065l.147.073c.04.025.09.04.13.065.05.025.106.05.155.074.049.024.09.04.138.065.057.024.106.049.163.073.05.024.098.04.147.065l.17.073c.05.025.098.041.155.066.057.024.114.048.18.073.048.024.105.04.154.065.065.024.122.049.188.073.056.025.113.04.17.065.066.025.123.05.188.074a1.3 1.3 0 00.179.065 248.145 248.145 0 00.374.138 4.3 4.3 0 00.204.073c.065.025.122.05.187.066.065.024.139.048.204.073l.195.073c.065.024.139.049.212.073.065.025.138.05.211.074.074.024.139.049.212.073.073.024.139.049.212.073l.22.073.22.074.227.073.228.073c.082.025.155.05.236.074.082.024.155.048.237.073.081.024.162.049.236.073l.244.073.244.074c.082.024.163.049.253.073l.244.073c.09.025.17.05.26.082l.253.073c.09.024.179.049.268.081.09.025.171.05.26.074.09.024.18.048.278.081.09.024.17.049.26.073.098.025.196.057.285.082.09.024.171.049.26.073.099.024.196.057.302.081.09.025.171.05.26.074.106.024.212.057.31.081.09.024.179.049.26.073.106.033.212.057.318.082l.269.073c.114.033.22.057.333.09a.588.588 0 01.114.032c.017.098.033.187.057.285.041.22.09.432.139.643.016.082.04.163.057.244.008.041.024.082.032.13-5.25.546-9.607 1.06-16.706 1.955-.35-.448-1.1-1.506-1.514-2.744a6.06 6.06 0 01-.22-.863c-.114-.757-.065-1.555.31-2.296z" fill="#A14228"/><path d="M29.273 14.04c.872-.172 1.596-.082 2.036.26.497.423 1.05.887 1.66 1.384.204.163.408.333.62.505a.111.111 0 00.032.024c.204.163.415.334.635.513.017.016.033.024.049.04.212.172.431.35.66.522.016.016.04.032.056.04.147.114.294.236.448.35l.245.196c.016.016.032.024.048.04.236.188.48.375.733.57a.179.179 0 01.04.033c.253.195.506.39.758.594.016.017.032.025.057.041.26.195.521.399.79.61a.21.21 0 00.057.041c.26.204.529.407.797.611.017.008.033.024.05.033-.033.374-.025.806.008 1.294.024.334.065.684.114 1.075v.016c-.057-.016-.106-.024-.163-.04-.098-.025-.188-.05-.285-.074l-.277-.073c-.098-.025-.187-.05-.285-.073l-.269-.074-.276-.073c-.09-.024-.171-.049-.261-.073l-.269-.074a9.659 9.659 0 01-.252-.073 8.987 8.987 0 01-.26-.073l-.245-.073-.269-.074c-.081-.024-.154-.049-.236-.073-.09-.024-.17-.049-.26-.073-.082-.025-.155-.05-.228-.065l-.253-.074c-.073-.024-.146-.04-.22-.065-.08-.024-.17-.049-.252-.081a8.138 8.138 0 00-.35-.106 14.778 14.778 0 01-.31-.098c-.08-.024-.154-.049-.235-.073-.074-.024-.147-.049-.228-.073-.073-.025-.139-.05-.212-.065l-.22-.074a1.974 1.974 0 00-.203-.065c-.074-.024-.139-.049-.212-.073-.065-.024-.13-.049-.204-.065-.065-.025-.138-.05-.203-.073l-.196-.074-.195-.073a4.513 4.513 0 01-.375-.138c-.065-.025-.122-.05-.178-.066-.066-.024-.123-.048-.18-.065a1.573 1.573 0 00-.179-.065c-.057-.024-.114-.04-.17-.065-.058-.024-.115-.049-.18-.065-.057-.024-.114-.04-.163-.065a1.45 1.45 0 00-.17-.065c-.058-.025-.106-.041-.163-.065-.057-.025-.106-.05-.163-.066-.05-.024-.106-.04-.155-.065a1.252 1.252 0 00-.155-.065c-.049-.024-.097-.04-.146-.065a.88.88 0 00-.155-.065c-.049-.025-.09-.04-.138-.065-.05-.025-.098-.05-.147-.065-.04-.017-.09-.041-.13-.057-.049-.025-.098-.05-.138-.066-.041-.016-.082-.04-.123-.056-.049-.025-.09-.05-.13-.066-.04-.016-.081-.04-.114-.057a.977.977 0 00-.13-.065c-.033-.016-.073-.04-.106-.057l-.122-.073a131.621 131.621 0 00-.22-.13c-.032-.017-.057-.033-.09-.05l-.13-.08c-.024-.017-.04-.025-.065-.041a3.39 3.39 0 01-.179-.122 4.903 4.903 0 00-.415-.27c-.114-.072-.228-.137-.342-.203-.025-.008-.04-.024-.065-.032-.114-.057-.22-.114-.326-.163-.024-.008-.049-.024-.065-.033a5.35 5.35 0 00-.375-.162 4.297 4.297 0 00-.317-.114c-.008 0-.025-.009-.033-.009-.106-.032-.203-.056-.301-.081-.016 0-.024-.008-.04-.008a4.853 4.853 0 00-.302-.057c-.016 0-.04-.008-.057-.008a16.087 16.087 0 01-.285-.025h-.301c1.596-1.97 3.655-3.11 5.153-3.403z" fill="#E9533A"/><path d="M46.086 11.719c-.293.008-.587.04-.88.098h-.008c-.016 0-.024.008-.04.008a3.122 3.122 0 00-.228.057c-.057.016-.106.032-.163.049-.017.008-.033.008-.049.016a5.83 5.83 0 00-.489.17c-.96-2.523-2.686-4.567-4.42-5.242v-.008c0-.025 0-.05.008-.082l.024-.31c.008-.048.008-.089.016-.13.009-.081.017-.154.033-.236a4.65 4.65 0 01.024-.138c.009-.073.025-.138.041-.212a.856.856 0 01.033-.138l.049-.196a.795.795 0 01.04-.13c.017-.065.041-.122.065-.187.017-.04.025-.081.041-.114.025-.065.049-.13.081-.187.017-.033.025-.065.041-.09.04-.09.09-.179.139-.26.048-.09.105-.171.162-.253.017-.024.041-.049.057-.073.041-.049.082-.098.114-.147.025-.024.05-.048.066-.073.04-.04.073-.081.113-.114.025-.024.05-.04.074-.065.04-.033.081-.065.114-.098.024-.016.049-.032.073-.057a1.06 1.06 0 01.122-.081.328.328 0 01.074-.04c.04-.025.08-.05.13-.074.024-.008.04-.025.065-.033.04-.024.09-.04.13-.057.016-.008.04-.016.057-.024.049-.016.09-.033.139-.049.016-.008.032-.008.048-.016a.983.983 0 01.147-.04c.008 0 .024-.009.032-.009.05-.016.098-.024.147-.033h.024l.155-.024a2.62 2.62 0 01.48-.016h.009c1.954.74 3.525 3.85 4.396 8.622-.448-.098-.887-.041-1.286.016z" fill="#A14228"/><path d="M38.742 8.74c.082.773.228 1.603.44 2.482.26 1.083.952 2.72 1.547 4.014a10.636 10.636 0 00-1.53 3.9c-.025-.016-.042-.033-.066-.049-.212-.163-.415-.317-.619-.48-.057-.05-.122-.09-.179-.139-.203-.163-.415-.317-.61-.472-.05-.032-.09-.073-.139-.106-.203-.154-.407-.317-.602-.472-.025-.024-.05-.04-.082-.065-.195-.155-.39-.301-.578-.456-.04-.033-.073-.057-.114-.09-.195-.154-.383-.3-.562-.447l-.122-.098c-.187-.147-.366-.293-.537-.432-.033-.024-.065-.056-.106-.081-.187-.147-.366-.293-.537-.431-.008-.009-.025-.017-.033-.033a1868.052 1868.052 0 00-.553-.448c-1.555-2.15-2.614-4.038-3.167-5.61 1.945.538 5.788.155 8.15-.488zm1.287-6.107c.162.016.325.032.472.049l-.008.008c-.017.008-.025.016-.041.032a2.55 2.55 0 00-.171.139c-.016.016-.033.024-.049.04a1.94 1.94 0 00-.187.18c-.017.016-.025.032-.04.04a1.781 1.781 0 00-.164.188c-.008.008-.016.024-.024.032a5.64 5.64 0 00-.171.228c-.016.016-.025.04-.04.057a4.144 4.144 0 00-.399.716c-.815.237-1.54.367-2.199.432-2.605.252-4.038-.635-4.844-1.123 2.15-1.254 5.47-1.246 7.864-1.018z" fill="#E9533A"/><path d="M30.234 6.223c.22-.96.725-1.71 1.53-2.304.131-.097.27-.187.408-.268.806.488 2.239 1.376 4.844 1.123a12.238 12.238 0 002.198-.431c-.317.708-.496 1.547-.537 2.515-.008.139-.008.277-.008.416 0 .447.024.92.073 1.4 0 .016.008.04.008.057-2.36.643-6.204 1.026-8.158.488-.024-.073-.056-.154-.081-.227-.358-1.083-.448-2.02-.277-2.769z" fill="#F08666"/><path d="M41.803 15.733c.017-.033.041-.057.057-.09a.496.496 0 00.09-.228c.578-.798 1.278-1.473 2.084-1.938a.503.503 0 00.155-.056l.049-.025c.138-.081.285-.146.423-.212l-.399.326a12.724 12.724 0 00-2.28 2.638c-.407.635-.724 1.278-.92 1.889a2.138 2.138 0 00-.463.098c.293-.83.7-1.653 1.204-2.402zm5.879-.611a.567.567 0 01.081-.065 3.82 3.82 0 01.757-.489c.114-.056.236-.105.358-.154.05.065.09.138.139.212.488.814.855 1.888 1.083 3.191.032.187.065.375.09.562 0 .016.008.032.008.049l.024.203c.016.122.032.244.04.366.009.058.017.106.017.163.008.09.016.171.032.26.066.677.098 1.303.098 1.89 0 .236-.008.472-.016.692-.016.244-.033.488-.057.724a8.178 8.178 0 01-.147.928c-.3.391-.822.733-1.449 1.026-.098.033-.195.057-.293.09a32.12 32.12 0 00-1.042.342c-.13.04-.252.09-.366.13-.033.016-.066.024-.106.04-.041-.048-.09-.089-.139-.13v-.065l-.024-.26c-.008-.04-.008-.082-.016-.122a5.678 5.678 0 00-.09-.456 8.2 8.2 0 00-.13-.48c0-.009-.008-.017-.008-.017a16.79 16.79 0 00-.212-.586c-.016-.049-.033-.09-.049-.138-.35-.92-.765-1.865-1.343-2.695.464-1.743 1.31-3.973 2.76-5.21z" fill="#E9533A"/><path d="M41.999 16.156a12.726 12.726 0 012.28-2.638c.13-.114.26-.22.398-.325.18-.074.359-.139.538-.188a.843.843 0 01.138-.032c.017 0 .025-.008.04-.008.278-.009.538-.05.79-.09h.098c.318.008.627.065.912.163.196.065.391.155.586.277.025.024.057.04.09.057.024.016.04.032.065.04.04.033.082.057.122.09l.008.008c.017.016.033.024.057.04.008.009.025.017.033.025s.024.017.032.033c.09.081.18.163.27.252.154.163.3.35.439.554-.122.04-.245.098-.358.154a4.145 4.145 0 00-.84.554c-1.456 1.238-2.295 3.468-2.759 5.194a7.317 7.317 0 00-.586-.74 5.896 5.896 0 00-1.1-.953c-.024-.016-.048-.04-.08-.057-.66-.423-1.41-.602-2.085-.521.187-.619.513-1.262.912-1.889z" fill="#F08666"/><path d="M40.183 20.382c.008-.041.008-.074.017-.114l.008-.066c.073-.464.285-.781.635-.936a.914.914 0 01.211-.065c.448-.106 1.01.008 1.498.326.636.407 1.132.952 1.54 1.58.17.26.325.537.471.822.35.692.627 1.432.888 2.173.024.09.049.18.073.277.024.098.049.204.065.301l.025.155c.016.081.024.155.032.228.008.049.008.09.017.13v.041c.008.073.008.146.008.203-.057.074-.114.147-.171.245-.155.26-.644.488-1.14.562-.26.032-.521.032-.733-.041a9.345 9.345 0 01-1.498-.619 5.095 5.095 0 01-.904-.586c-.423-.358-.675-.75-.732-1.148-.009-.04-.017-.09-.033-.13l-.024-.122v-.017c-.008-.032-.008-.057-.017-.09-.024-.13-.048-.26-.065-.382a29.135 29.135 0 00-.073-.464c-.122-.936-.163-1.702-.098-2.263z" fill="#A14228"/><path d="M21.213 23.703c.05.293.123.587.22.863.416 1.238 1.165 2.296 1.515 2.744 7.1-.896 11.447-1.4 16.706-1.954-.008-.04-.024-.081-.032-.13-.017-.082-.041-.163-.057-.244a13.8 13.8 0 01-.139-.644c-.016-.097-.04-.195-.057-.285a.597.597 0 01-.114-.032c-.114-.033-.22-.057-.334-.09l-.268-.073c-.106-.033-.212-.057-.318-.082a7.156 7.156 0 01-.26-.073c-.106-.024-.212-.057-.31-.081-.09-.025-.179-.049-.26-.073-.098-.025-.204-.057-.301-.082-.09-.024-.171-.049-.26-.073-.099-.024-.196-.057-.294-.081-.09-.025-.171-.05-.26-.074-.09-.024-.188-.049-.277-.081-.09-.025-.171-.05-.261-.074a3.425 3.425 0 01-.269-.08c-.081-.025-.17-.05-.252-.074a2.418 2.418 0 01-.26-.082l-.245-.073-.252-.073-.244-.073-.245-.074a7.965 7.965 0 01-.236-.073c-.081-.024-.154-.049-.236-.073-.081-.025-.155-.05-.236-.073-.073-.025-.155-.05-.228-.074l-.228-.073-.22-.073-.22-.074a6.301 6.301 0 01-.211-.073 5.715 5.715 0 01-.212-.073c-.073-.025-.138-.049-.212-.073-.073-.025-.138-.05-.211-.074l-.196-.073a5.49 5.49 0 01-.203-.073 2.623 2.623 0 00-.188-.065c-.065-.025-.13-.05-.203-.074a1.591 1.591 0 00-.18-.065l-.194-.073c-.058-.024-.114-.049-.18-.065-.065-.025-.122-.05-.187-.073-.057-.025-.114-.041-.17-.066-.066-.024-.123-.049-.188-.073-.049-.024-.106-.04-.155-.065l-.179-.073c-.049-.025-.106-.041-.155-.065l-.17-.074c-.05-.024-.098-.04-.147-.065-.057-.024-.106-.049-.163-.073-.049-.024-.09-.04-.138-.065-.057-.025-.106-.05-.155-.073-.04-.025-.09-.041-.13-.066a2.743 2.743 0 00-.155-.073c-.04-.024-.081-.04-.122-.065l-.147-.073c-.04-.017-.081-.041-.114-.057a2.155 2.155 0 01-.138-.074c-.033-.016-.073-.04-.106-.057a1.217 1.217 0 01-.138-.081c-.033-.016-.065-.04-.098-.057-.049-.024-.09-.057-.138-.081-.025-.017-.057-.033-.082-.05-.049-.032-.09-.056-.138-.089l-.074-.049c-.065-.04-.13-.09-.195-.13-.977-.676-1.726-.928-2.312-.96a1.854 1.854 0 00-1.376.48c-.065.057-.122.114-.18.17-.382.4-.74.978-1.074 1.767l-.049.098a2.248 2.248 0 00-.203.358c-.391.725-.44 1.523-.302 2.296zm19.076-1.05c.025.146.04.301.073.464.025.122.041.252.066.383.008.032.008.057.016.09v.016l.024.122a.55.55 0 01.033.13c.057.399.301.782.733 1.148a4.7 4.7 0 00.903.586c.424.22.92.432 1.498.619.22.073.473.073.733.04.497-.073.993-.3 1.14-.561a3.12 3.12 0 01.17-.244c0-.057 0-.13-.007-.204v-.04c0-.041-.008-.082-.017-.131a2.539 2.539 0 00-.032-.228c-.008-.049-.016-.106-.025-.155a3.989 3.989 0 00-.065-.3 8.462 8.462 0 00-.073-.278c-.26-.74-.537-1.481-.887-2.174a9.017 9.017 0 00-.473-.822c-.407-.627-.911-1.172-1.546-1.58-.489-.309-1.05-.43-1.498-.325a1.46 1.46 0 00-.212.065c-.35.155-.562.473-.635.936l-.008.066c-.009.032-.009.073-.017.114-.065.553-.032 1.319.106 2.263zm5.984.35c.016.049.033.09.05.139a16.79 16.79 0 01.219.602c.032.098.081.269.13.48.033.139.065.293.09.456.008.041.008.082.016.122.008.09.025.171.025.26v.066a.427.427 0 01.138.13c.032-.008.065-.024.106-.04.122-.041.244-.09.366-.13.326-.115.668-.229 1.042-.343.098-.032.188-.057.293-.09.627-.292 1.14-.634 1.45-1.025a7.8 7.8 0 00.146-.928c.024-.236.04-.472.057-.725.008-.228.016-.456.016-.692 0-.594-.032-1.221-.097-1.889-.008-.09-.025-.17-.033-.26-.008-.057-.016-.106-.016-.163-.008-.122-.025-.244-.04-.366-.01-.066-.017-.139-.025-.204 0-.016-.009-.032-.009-.049a11.491 11.491 0 00-.09-.561c-.227-1.303-.593-2.378-1.082-3.192-.04-.073-.09-.138-.138-.212a4.38 4.38 0 00-.44-.553c-.09-.09-.17-.18-.269-.253-.008-.008-.024-.016-.032-.032-.008-.008-.025-.017-.033-.033-.016-.016-.032-.024-.057-.04l-.008-.009a1.156 1.156 0 00-.122-.09c-.024-.015-.04-.032-.065-.04-.033-.016-.057-.04-.09-.057a2.726 2.726 0 00-.586-.277 3.403 3.403 0 00-.912-.163h-.097a5.94 5.94 0 01-.79.09c-.017 0-.025.008-.04.008-.05.008-.09.024-.14.033a3.551 3.551 0 00-.537.195c-.138.065-.285.13-.423.212l-.049.024a.6.6 0 01-.155.057c-.806.464-1.506 1.14-2.084 1.938a.559.559 0 01-.09.228.55.55 0 00-.056.09 9.713 9.713 0 00-1.189 2.401c.147-.049.31-.081.464-.098.676-.073 1.425.106 2.084.521.025.017.05.041.082.058.415.276.781.594 1.099.952.212.236.407.48.586.74.562.856.985 1.792 1.335 2.712zm25.02 2.923c.08-.033.17-.065.252-.098-.717-1.001-2.557-3.094-5.447-3.167-2.85-.065-9.949 1.213-14.997 2.54a9.005 9.005 0 00-.472.13c-.31.18-.839.367-1.767.554-.211.09-.423.171-.627.253 5.822.814 17.244 1.986 23.057-.212zm1-5.235c.033-3.525-.35-4.869-.577-5.113a3.02 3.02 0 00-.228-.204c-.692-.57-1.734-.814-3.11-.74-.008-.025-.008-.05-.017-.074.008.025.008.05.017.074l-.318.024c-1.946.163-4.543.944-7.71 2.304-1.49.945-2.72 1.523-3.916 2.084-.497.236-1.002.473-1.53.733l-.098.049a29.42 29.42 0 00-2.834 1.62c-.016.081-.04.171-.065.269v.016c0 .016-.008.024-.008.033-.09.374-.147.643-.269.797a2.21 2.21 0 01-.26 1.409c4.925-1.254 11.382-2.41 14.419-2.434h.325c2.972.073 4.959 1.888 5.968 3.134.106-.969.195-2.41.212-3.981zM66.872 9.464c.025-.13.033-.253.033-.383.016-.83-.39-1.555-1.221-2.214a73.11 73.11 0 01-.098-.074c-.04-.032-.09-.065-.13-.097-.05-.041-.106-.074-.163-.114l-.033-.025-.073-.049c-.073-.04-.146-.09-.22-.13l-.081-.049c-.106-.057-.212-.122-.326-.179-2.508-1.286-6.384-3.15-8.948-4.2l-.123-.049.025.049c.032.057.057.122.09.187.008.025.024.057.032.082.024.065.057.13.081.195a.561.561 0 00.025.065c.033.09.065.187.098.277.008.016.008.04.016.057l.073.244.025.098c.016.073.04.155.057.228l.024.098c.024.105.049.22.065.333v.009c.016.114.04.228.049.35.008.04.008.073.016.114l.025.268c0 .041.008.082.008.122.008.106.016.212.016.318v.081c.008.13.008.269.008.407v.114c0 .106-.008.212-.008.318 0 .049-.008.098-.008.146l-.024.326c0 .04-.009.082-.009.122a10.198 10.198 0 01-.073.562c-.008.065-.024.13-.032.195-.009.066-.017.13-.033.196a1.145 1.145 0 01-.033.163l-.073.358c-.008.049-.024.106-.032.155-.041.17-.082.342-.122.52a5.355 5.355 0 00-.05.18.152.152 0 00-.016.057c-.016.04-.024.09-.04.13l-.025.073c-.016.041-.032.09-.049.13-.008.025-.016.058-.032.082-.017.04-.033.09-.05.138-.007.025-.023.057-.032.082a.655.655 0 01-.057.138.3.3 0 01-.04.09c-.017.049-.041.097-.057.146-.017.033-.025.065-.041.098-.024.049-.04.098-.065.147a.558.558 0 00-.04.105c-.025.05-.042.098-.066.155l-.049.106c-.024.057-.049.106-.073.163-.016.032-.033.073-.049.106a3.156 3.156 0 01-.073.162l-.05.114a1.636 1.636 0 01-.08.171c-.017.033-.033.074-.05.106-.024.057-.056.122-.08.18-.017.032-.033.073-.058.113-.032.066-.057.122-.09.188-.016.032-.032.073-.056.114l-.098.195c-.016.033-.033.073-.057.106l-.098.195c-.016.04-.04.074-.057.114l-.097.196c-.017.04-.041.081-.057.114l-.098.195c-.024.04-.04.081-.065.122-.033.065-.065.13-.106.204-.024.04-.04.081-.065.122l-.106.203c-.024.041-.04.082-.065.122-.04.074-.073.139-.114.212-.025.04-.04.082-.065.114-.041.073-.074.139-.114.212-.025.04-.041.081-.065.122-.041.073-.074.138-.114.212-.025.04-.041.081-.066.122-.04.073-.073.138-.114.211-.024.041-.04.082-.065.123-.04.073-.073.138-.114.211-.024.04-.04.082-.065.122-.04.065-.073.139-.114.204-.024.04-.049.081-.073.13-.04.065-.073.13-.114.204-.024.04-.049.09-.073.13-.04.065-.074.13-.114.195-.025.041-.05.09-.074.13-.032.066-.073.13-.105.196-.025.04-.05.09-.074.13-.032.057-.073.122-.105.18-.025.048-.057.097-.082.146l-.097.17c-.025.05-.058.098-.082.147a2.79 2.79 0 01-.098.163c-.032.05-.057.098-.09.147-.016.024-.024.04-.04.065l.024.155.025.17.024.155c0 .033.008.057.008.082.017.097.025.195.041.293l.073.61.05.342c.024.163.048.334.073.497 2.49-1.368 5.308-2.915 8.19-4.168.212-.139.431-.277.651-.416.44-.277.888-.562 1.36-.855l2.923-1.84c1.335-1.22 2.06-2.36 2.222-3.378zM53.715 1.387a4.862 4.862 0 00-.53-.13h-.008c-.024 0-.048-.008-.073-.008h-.008c-.024 0-.04-.008-.065-.008h-.139c-.016 0-.024 0-.04.008h-.017c-.008 0-.024.008-.032.008s-.008 0-.017.008c-.008 0-.016.008-.032.008-.008 0-.016.008-.016.008-.008 0-.017.009-.025.017-.008 0-.016.008-.016.008-.008.008-.016.008-.025.016-.008.008-.016.008-.024.016-.008.009-.016.009-.016.017-.008.008-.016.016-.025.016-.008 0-.008.008-.008.008l-.13.155c-.627.847-1.36 3.061-2.679 7.417a80.829 80.829 0 00-1.01 3.663c.042.033.074.066.115.098.904.757 1.571 1.889 2.01 3.444.025-.032.041-.073.066-.106l.098-.17a2.16 2.16 0 01.105-.188c.033-.057.057-.106.09-.163.04-.065.073-.138.114-.203.025-.05.049-.09.073-.139.057-.106.122-.22.18-.325a.752.752 0 01.08-.139c.033-.065.074-.13.107-.195.024-.05.049-.098.081-.147l.098-.187c.024-.049.057-.098.081-.147.033-.057.065-.114.09-.17.024-.05.057-.098.081-.155.033-.057.057-.114.09-.171l.073-.147a1.71 1.71 0 00.09-.17c.024-.05.048-.09.073-.14.032-.056.057-.113.09-.17a.964.964 0 00.065-.13c.032-.057.065-.123.09-.18.023-.04.04-.081.064-.122.05-.09.09-.179.139-.268.016-.025.024-.057.04-.082.041-.073.074-.146.114-.22a.439.439 0 01.057-.105c.025-.057.057-.114.082-.171.016-.041.04-.074.057-.114l.073-.155c.016-.04.04-.082.057-.114l.073-.147a.73.73 0 01.057-.114.894.894 0 00.065-.146c.017-.033.033-.073.05-.106.024-.049.04-.098.064-.138.017-.033.033-.074.05-.106.024-.05.04-.09.064-.139a.447.447 0 00.041-.097c.025-.057.049-.106.073-.155.008-.024.025-.049.033-.073.032-.074.065-.147.09-.212.008-.024.016-.049.032-.073.016-.05.04-.09.057-.139.008-.032.024-.057.033-.081.016-.04.032-.073.048-.114.009-.033.025-.057.033-.09.016-.032.024-.065.04-.105.009-.033.025-.057.033-.082a.461.461 0 00.033-.098c.008-.024.016-.057.032-.081.009-.033.025-.065.033-.09l.024-.073a.398.398 0 01.033-.09.551.551 0 01.024-.064c.008-.033.017-.057.025-.09.008-.016.008-.04.016-.057.008-.04.025-.073.033-.114 0-.008.008-.016.008-.024.106-.408.187-.798.252-1.165.586-3.46-.594-5.3-1.237-5.813zm-10.74 1.694h-.007a2.577 2.577 0 00-.48.016l-.155.024h-.025c-.048.009-.097.017-.146.033-.008 0-.025.008-.033.008a.983.983 0 00-.146.04c-.017.009-.033.009-.05.017-.048.016-.089.033-.138.049-.016.008-.04.016-.057.024-.04.017-.09.041-.13.057-.024.008-.04.025-.065.033-.04.024-.081.049-.13.073-.025.016-.05.025-.073.04-.041.025-.082.058-.123.082a.444.444 0 00-.073.057c-.04.033-.081.065-.114.098-.024.024-.049.04-.073.065-.04.04-.073.082-.114.114a.53.53 0 00-.065.073c-.041.05-.082.098-.114.147-.017.024-.041.049-.057.073-.057.082-.114.163-.163.253a2.646 2.646 0 00-.139.26c-.016.033-.024.065-.04.09-.025.065-.057.122-.082.187-.016.04-.024.081-.04.114-.025.057-.041.122-.065.187-.017.04-.025.09-.041.13l-.049.196c-.008.049-.024.09-.033.138-.016.065-.024.139-.04.212l-.025.138c-.008.074-.024.155-.032.236-.008.041-.008.09-.017.13l-.024.31c0 .025-.008.049-.008.082v.008c1.734.675 3.46 2.719 4.42 5.243.164-.065.326-.122.49-.171.015-.008.032-.008.048-.016l.163-.05c.073-.016.147-.04.228-.056.016 0 .024-.008.04-.008h.009c.293-.066.586-.098.879-.098.39-.057.839-.114 1.278-.016-.863-4.771-2.442-7.881-4.388-8.622zm-1.473 11.105a7.793 7.793 0 011.718-1.523c-.757-2.043-2.068-3.777-3.387-4.51.008.138.017.277.033.415.073.741.22 1.547.423 2.394.171.708.586 1.815 1.213 3.224zM40.03 2.633c-2.394-.228-5.724-.244-7.857 1.018a4.397 4.397 0 00-.407.268c-.806.586-1.31 1.344-1.53 2.304-.172.75-.082 1.677.276 2.777.025.073.05.154.082.228.545 1.57 1.612 3.46 3.167 5.61a.174.174 0 01.04.032c.171.138.334.277.513.415.008.008.025.016.033.033.179.138.358.284.537.431.033.024.065.057.106.081.18.139.358.285.537.432l.122.098c.188.146.375.293.562.447.033.033.074.057.106.09l.578.456c.025.024.049.04.082.065.195.155.398.31.602.472.049.033.09.073.139.106.203.155.407.318.61.472.057.05.122.09.18.139.203.154.406.317.618.48.024.016.04.033.065.049.228-1.32.765-2.695 1.53-3.9-.594-1.295-1.286-2.93-1.546-4.014a19.349 19.349 0 01-.44-2.483c0-.016-.008-.04-.008-.057a13.94 13.94 0 01-.073-1.4c0-.139.008-.277.008-.415.04-.97.228-1.816.537-2.516a4.29 4.29 0 01.399-.717c.017-.016.025-.04.04-.057.058-.081.115-.154.172-.228.008-.008.016-.024.024-.032l.163-.187c.016-.017.025-.033.04-.041.066-.065.123-.122.188-.18.016-.016.033-.024.049-.04.057-.049.114-.098.17-.138.017-.009.025-.017.042-.033l.008-.008a6.583 6.583 0 00-.464-.057zM29.274 14.039c-1.498.293-3.558 1.433-5.178 3.338.081-.008.163-.008.244 0h.057c.098 0 .195.008.293.025.016 0 .04.008.057.008.098.016.204.032.301.057.017 0 .025.008.04.008.099.024.204.049.302.081.008 0 .025.008.033.008.106.033.211.074.317.114.017.009.04.017.057.025.106.04.212.09.318.138.024.008.049.025.065.033.106.049.22.106.326.163.024.008.04.024.065.032a6.84 6.84 0 01.382.228c.123.082.253.155.375.244.057.041.122.082.179.123.024.016.04.024.065.04.04.025.082.057.13.082a.9.9 0 00.09.049l.122.073a.552.552 0 01.098.057l.122.073c.032.016.073.04.106.057.04.025.081.049.13.065.04.017.073.041.114.057.04.025.09.05.13.065.04.017.082.041.122.057.05.025.09.05.139.066.04.016.09.04.13.056.049.025.098.05.147.066.048.024.09.04.138.065a.884.884 0 00.155.065c.049.024.097.04.146.065.049.024.106.049.155.065.049.025.098.04.155.065.057.025.105.05.162.065.057.025.106.041.163.066.057.024.114.048.171.065.057.024.114.04.163.065.057.024.114.049.18.065.056.024.113.04.17.065.057.024.122.049.18.065.056.025.121.05.178.065.057.025.122.05.18.066.065.024.122.048.187.073.065.024.13.049.187.065l.195.073.196.073c.065.025.138.05.203.074.066.024.13.049.204.065.073.024.138.049.212.073.065.025.138.049.203.065.073.025.147.05.22.073.065.025.138.05.212.066.073.024.146.049.227.073.082.024.155.049.237.073l.309.098c.114.033.228.073.35.106.081.024.171.049.252.081.074.025.147.04.22.065l.253.074c.073.024.154.048.228.073.081.024.17.049.26.073.082.025.155.049.236.065.09.025.18.05.269.073l.244.074c.09.024.18.049.26.073l.253.073.269.074c.09.024.17.049.26.073l.277.073.269.073c.09.025.187.05.285.074.09.024.179.049.277.073.097.024.187.049.285.073.056.017.105.025.162.041v-.016c-.057-.383-.09-.741-.114-1.075a8.637 8.637 0 01-.008-1.294c-.016-.009-.032-.025-.049-.033-.268-.204-.537-.407-.797-.61a.246.246 0 00-.057-.041c-.27-.204-.53-.407-.79-.611-.017-.016-.033-.024-.057-.04-.26-.204-.513-.4-.757-.595-.017-.008-.033-.025-.041-.033-.252-.195-.489-.382-.733-.57-.016-.016-.032-.024-.049-.04l-.244-.196-.448-.35a.245.245 0 00-.057-.04c-.228-.18-.447-.35-.66-.521-.015-.017-.032-.025-.048-.041a21.684 21.684 0 01-.668-.538c-.211-.17-.415-.342-.618-.504a96.421 96.421 0 01-1.661-1.384c-.424-.277-1.148-.367-2.02-.196zm-8.54 6.4c.374-.872.78-1.523 1.237-2.012 1.848-3.207 4.885-5.08 7.083-5.511.781-.155 1.49-.139 2.076.032-.79-1.319-1.36-2.524-1.71-3.598-.415-1.295-.52-2.435-.301-3.38A4.989 4.989 0 0131.089 3C34.183.743 39.89 1.386 42.203 1.761c.504.081.854.154.985.179.024.008.048.008.065.016a.06.06 0 00.032.008c2.687.953 4.153 4.633 4.942 8.248.155-.546.31-1.083.464-1.604 1.58-5.195 2.28-7.197 3.086-8.044.008-.008.016-.016.032-.024.611-.62 1.263-.587 1.775-.48h.009l.122.024h.008a.959.959 0 01.146.04l.025.008c.049.009.09.025.138.041l.18.049c.439.13 1.058.358 1.831.668 2.614 1.066 6.424 2.898 9.045 4.241.13.065.253.13.367.204.024.016.04.024.065.04l.024.017c.09.049.171.098.253.155.032.016.057.04.09.057l.024.016c.065.04.13.09.195.13.049.04.106.073.155.114.04.033.073.057.114.09 1.278 1.01 1.832 2.28 1.612 3.671-.204 1.287-1.067 2.655-2.557 4.08a.86.86 0 01-.09.073c-.162.105-.325.203-.488.31 1.14-.318 2.166-.514 3.094-.587 1.84-.155 3.273.17 4.25.977.122.106.236.203.326.301 1.335 1.4.854 9.143.578 10.804-.09.537-.18.822-.44.977a.017.017 0 00-.016.016h-.008c-.008 0-.008.008-.017.008-3.004 1.466-7.783 1.84-12.635 1.726-5.48-.13-11.032-.887-14.207-1.384-.53.318-1.214.48-1.816.464a2.38 2.38 0 01-.7-.114c-.985-.325-1.791-.708-2.418-1.148-.008.009-.008.025-.016.033a.606.606 0 01-.416.252c-5.626.587-10.087 1.1-17.659 2.06-.032 0-.057.008-.081.008a.56.56 0 01-.415-.195c-.147-.171-3.794-4.396-1.523-7.848z" fill="#232F40"/></svg>