<svg width="368" height="534" fill="none" xmlns="http://www.w3.org/2000/svg"><path d="M347.406 201.016c-.111 0-.223.037-.334.037-32.155 5.398-64.31 10.795-96.167 16.23-4.019.67-8.038 1.377-12.095 2.047-2.94.484-5.88 1.005-8.783 1.489-1.191.223-2.419.41-3.61.633-2.493.409-5.024.856-7.517 1.266-2.159.372-4.28.744-6.439 1.116-1.823.298-3.647.633-5.47.931-4.169.707-8.337 1.414-12.468 2.122-4.689.819-9.378 1.6-14.03 2.419a92780.366 92780.366 0 00-119.091 20.511c-.112-.112-.187-.261-.298-.335-2.42-26.653-3.834-41.207-6.625-68.27 47.6-6.216 92.891-12.098 136.36-17.607 19.873-2.531 39.374-4.988 58.503-7.407 36.695-4.616 72.162-8.971 106.624-13.141.112 4.058.186 7.78.261 11.317v.632c0 .335 0 .67.037.968 0 .261 0 .559.037.819 0 .335 0 .67.037 1.042v.559c0 .409.038.782.038 1.154v.372c0 .447.037.893.037 1.303v.26c0 .484.037.968.037 1.452v.037c0 .522.037 1.005.037 1.527v.446c0 .41.037.819.037 1.229v.074c.038 1.005.038 2.01.075 3.053v.521c.186 8.524.372 16.974.595 27.881 0 .558.038 1.117.038 1.712-3.313.521-6.551 1.08-9.826 1.601zM344.02 218.4c0 .297-.037.558-.037.818-2.047 44.074-7.481 160.438-7.592 247.394-30.145 5.025-58.132 10.534-87.719 17.346-.074.038-.148.038-.26.075-.112.037-.223.037-.335.074a2.716 2.716 0 00-1.675 1.154c-7.071 2.308-41.421 11.13-50.651 13.029a1.573 1.573 0 00-.26-.223 2.867 2.867 0 00-1.787-.596c-.074 0-.111.037-.186.037.038.447.075.931.112 1.377-.037-.446-.074-.93-.112-1.377-.149 0-.297.037-.483.075a4711.33 4711.33 0 00-18.795 4.802c-25.12 6.439-51.097 13.065-81.8 20.324-.745-9.418-21.362-191.073-27.987-249.403-1.265-11.205-2.047-17.868-2.047-17.868 38.482-6.626 78.08-13.475 118.384-20.362 4.839-.819 9.677-1.638 14.515-2.494 9.676-1.638 19.426-3.313 29.177-4.988 4.875-.819 9.751-1.675 14.663-2.494a50622.05 50622.05 0 01105.396-17.793c-.149 2.568-.298 6.44-.521 11.093zM76.735 514.855a2184.293 2184.293 0 00-20.023-11.987c-.037-.037-.074-.037-.111-.074-.038-.037-.075-.037-.112-.074-.484-.261-.93-.559-1.414-.819-.15-.075-.298-.186-.447-.261l-3.796-2.233c-.149-.075-.298-.187-.446-.261-1.229-.707-2.457-1.452-3.722-2.159 0 0-.037 0-.037-.037a317.224 317.224 0 00-3.647-2.122c-3.722-2.159-7.555-4.355-11.575-6.663-.074-.037-.149-.112-.26-.149-.633-.372-1.265-.745-1.935-1.117-.447-.26-.893-.521-1.34-.744-.223-.112-.41-.261-.633-.373-.558-.297-1.116-.632-1.637-.93-1.34-.782-2.717-1.526-4.057-2.308-.893-.521-1.786-1.005-2.68-1.526-5.88-3.35-11.909-6.775-18.198-10.386a2130.424 2130.424 0 00-2.717-19.022c-1.451-9.827-3.014-19.468-4.577-28.997-.335-2.048-.67-4.095-1.042-6.142-.298-1.862-.633-3.686-.968-5.51-1.675-9.678-3.424-19.207-5.21-28.7-.037-.26-.112-.521-.15-.781-.669-3.537-1.339-7.073-2.009-10.572-1.08-5.658-2.195-11.279-3.312-16.937a515.553 515.553 0 00-1.489-7.371c-.26-1.302-.52-2.568-.781-3.871l-3.461-16.863-1.005-4.913c-.037-.261-.112-.484-.149-.745l-2.345-11.279c-.781-3.759-1.563-7.556-2.381-11.316-.15-.744-.335-1.526-.484-2.271-.633-3.015-1.266-6.067-1.935-9.12a4113.232 4113.232 0 01-3.462-16.49c-.967-4.579-1.935-9.194-2.902-13.847-.82-3.909-1.638-7.818-2.457-11.763-.26-1.266-.52-2.494-.781-3.76a2212.99 2212.99 0 00-2.829-13.773c-.148-.633-.26-1.303-.409-1.936-.037-.149-.074-.26-.112-.409a1.156 1.156 0 00-.186-.372c-.223-1.117-.41-2.197-.632-3.202a232.564 232.564 0 00-.559-3.015c4.466 1.563 8.746 3.052 12.877 4.504 2.494.856 4.913 1.713 7.294 2.569 1.6.558 3.164 1.116 4.727 1.675.781.26 1.563.558 2.345.819 2.344.819 4.614 1.638 6.922 2.457 1.525.558 3.051 1.079 4.577 1.637l.112.038c1.712.595 3.387 1.228 5.098 1.824.484.186.968.335 1.452.521a266.62 266.62 0 015.024 1.824c.149.037.26.111.41.149a428.08 428.08 0 015.098 1.861 8.6 8.6 0 01.707.26c.223.075.447.187.707.261 1.787.67 3.573 1.303 5.434 1.973 2.754 1.005 5.545 2.047 8.41 3.09 9.974 3.685 20.767 7.668 33.123 12.284l17.194 153.513.595 5.211.67 5.919 6.662 59.522 1.19 10.758 3.387 30.338c-3.2-1.936-6.4-3.872-9.602-5.807zM-57.988 208.051c-1.19-.409-2.381-.819-3.572-1.265-3.126-20.213-4.876-31.269-8.113-50.849 16.933 3.425 30.926 6.291 44.212 9.083a4358.274 4358.274 0 0134.76 7.407c11.76 2.569 24.451 5.324 39.45 8.636 2.753 27.063 4.167 41.617 6.55 67.786a15851.801 15851.801 0 00-32.267-11.986c-2.68-.968-5.285-1.936-7.853-2.866-1.265-.447-2.493-.931-3.759-1.378-.372-.149-.744-.26-1.116-.409-.856-.298-1.75-.633-2.605-.931-.447-.149-.893-.335-1.34-.484-.856-.298-1.712-.633-2.568-.93-.372-.149-.744-.261-1.116-.41-1.117-.409-2.233-.819-3.35-1.191-.595-.223-1.19-.447-1.786-.633-.558-.186-1.117-.409-1.675-.595-.67-.261-1.34-.484-2.047-.745-.446-.149-.893-.335-1.34-.484-1.972-.707-3.944-1.414-5.954-2.122l-3.796-1.34c-12.281-4.392-25.27-8.934-40.715-14.294zm8.449-55.539c3.126-.335 6.215-.707 9.266-1.042 2.866-.335 5.732-.633 8.56-.968 2.53-.298 5.024-.558 7.518-.856 2.456-.26 4.875-.558 7.331-.819 2.42-.26 4.838-.521 7.257-.819 2.42-.26 4.801-.521 7.22-.819 2.42-.26 4.801-.521 7.183-.781 2.419-.261 4.8-.522 7.183-.782 3.275-.372 6.512-.707 9.75-1.08 3.275-.372 6.513-.707 9.714-1.079 3.275-.372 6.512-.707 9.713-1.08 3.238-.372 6.513-.707 9.713-1.079 3.238-.372 6.476-.707 9.714-1.08 3.238-.372 6.475-.707 9.713-1.042A30.435 30.435 0 0172.12 139c2.642-.298 5.284-.558 7.89-.856.111 0 .26-.037.372-.037.409-.038.818-.075 1.265-.149 2.345-.261 4.652-.522 6.96-.745h.111c.335-.037.67-.074.968-.112.67.187 1.377.41 2.046.596.856.261 1.713.484 2.606.745 1.86.521 3.721 1.042 5.62 1.563 1.153.298 2.307.633 3.46.931 1.861.483 3.759.967 5.657 1.451 2.047.521 4.094 1.005 6.178 1.527.112 0 .186-.038.298-.038a35.99 35.99 0 001.637-.223c-.446.074-1.005.112-1.637.223-.075 0-.186.038-.261.038h-.037c1.228.297 2.456.595 3.722.893 1.526.372 3.051.707 4.614 1.042.968.224 1.973.447 2.94.67 1.266.298 2.568.559 3.834.856a.8.8 0 00.297.038c1.489.149 2.866.297 4.206.409 1.079.112 2.047.186 3.014.223.224 0 .447.038.67.038 1.154.074 2.196.111 3.201.149.484 0 .967.037 1.414.037h1.265c.41.037.819.074 1.266.074 1.302.075 2.679.112 4.205.112.67 0 1.414 0 2.121-.037h.112c.075 0 .186 0 .261-.038h.111c.112-.037.261-.074.372-.111h.038c.074-.037.186-.075.26-.112a329.2 329.2 0 009.006-4.43c1.154-.595 2.419-1.228 3.722-1.898a416.852 416.852 0 0010.421-5.546c1.042-.559 2.084-1.154 3.126-1.713 2.381-1.303 4.838-2.717 7.368-4.169 1.191-.707 2.419-1.414 3.648-2.122 1.339.112 2.679.224 3.982.298 2.679.223 5.322.41 7.89.633 2.679.223 5.321.409 7.889.633 2.68.223 5.322.409 7.89.633 1.191.111 2.382.186 3.573.297 1.451.112 2.903.224 4.317.335 1.675.149 3.349.261 4.987.41.967.074 1.898.149 2.865.223.559.037 1.117.075 1.675.149 1.489.112 2.977.261 4.466.372.596.038 1.154.112 1.712.149h.037c.596.037 1.191.112 1.749.149 1.489.112 3.015.261 4.504.372.223.038.483.038.744.075 1.712.149 3.424.298 5.136.409.149 0 .26.037.409.037 2.121.187 4.205.335 6.252.522 1.154.111 2.308.186 3.424.297.968.075 1.898.149 2.829.224 1.265.111 2.568.223 3.833.335l2.456.223c1.377.112 2.791.223 4.168.372.707.075 1.377.112 2.084.186l6.253.559c2.009.186 4.019.335 6.029.521 2.009.186 4.019.335 6.029.521 2.009.186 3.982.372 6.029.521 1.972.186 3.982.373 5.991.521 1.973.187 3.983.373 5.992.522 1.973.186 3.982.372 5.992.558 1.972.186 3.982.372 5.992.558 1.377.112 2.717.261 4.131.373-1.34.148-2.717.335-4.057.483-1.972.261-3.945.484-5.954.745-1.973.261-3.982.484-5.955.744-1.972.261-3.945.484-5.955.745-1.972.26-3.982.484-5.954.744-1.972.261-3.945.484-5.955.745-1.972.26-3.982.484-5.954.744-1.973.261-3.945.484-5.955.745-2.047.26-4.131.521-6.178.782-2.046.26-4.131.521-6.177.781-2.047.261-4.131.521-6.178.782-2.047.261-4.131.521-6.178.782-2.047.26-4.131.521-6.178.781-2.047.261-4.131.522-6.178.782-2.047.261-4.131.521-6.178.782-1.042.149-2.084.26-3.126.409-1.526.186-3.089.373-4.615.596-2.568.335-5.173.633-7.778.968-2.568.335-5.173.67-7.778.968-2.568.335-5.173.67-7.778.967-2.568.335-5.173.67-7.778 1.005-2.605.336-5.173.671-7.778 1.006l-6.923.893c-.297.037-.558.074-.855.112-2.159.26-4.28.558-6.439.819-.446.037-.893.111-1.34.186-4.726.595-9.453 1.191-14.179 1.824-4.726.595-9.453 1.191-14.179 1.824-4.727.595-9.453 1.228-14.217 1.824-4.726.595-9.49 1.228-14.253 1.824a1831.01 1831.01 0 00-14.291 1.861c-4.764.633-9.528 1.228-14.366 1.861-4.8.633-9.602 1.266-14.44 1.861-3.312.447-6.661.856-10.01 1.303-3.35.447-6.7.894-10.086 1.303-3.052.409-6.066.782-9.155 1.191-.335-.074-.633-.149-.93-.223-3.276-.745-6.44-1.415-9.528-2.122-3.275-.707-6.438-1.414-9.527-2.085-3.275-.707-6.439-1.414-9.528-2.084-1.488-.335-2.94-.633-4.391-.968-1.75-.372-3.461-.744-5.173-1.117-1.303-.297-2.605-.558-3.908-.856l-3.126-.67c-1.898-.409-3.759-.819-5.62-1.228-.483-.112-.93-.186-1.377-.298-2.344-.521-4.726-1.005-7.033-1.489-1.452-.298-2.94-.633-4.392-.931-.893-.186-1.786-.372-2.642-.558-.521-.112-1.08-.223-1.6-.335-1.824-.372-3.61-.745-5.434-1.154-2.345-.484-4.69-.968-7.071-1.489-2.382-.484-4.764-1.005-7.183-1.489-4.317-.893-8.783-1.824-13.472-2.755-1.414-.297-2.829-.595-4.28-.893 1.712-.372 3.498-.558 5.248-.782zm83.661-42.77a90.94 90.94 0 01-3.275-1.713s-.037 0-.037-.037a171.88 171.88 0 01-4.615-2.531 216.559 216.559 0 01-4.317-2.532c-.037-.037-.112-.074-.149-.111a122.011 122.011 0 01-3.945-2.457 103.503 103.503 0 01-3.647-2.457.79.79 0 01-.186-.149 108.806 108.806 0 01-2.159-1.563c-.037-.037-.111-.075-.148-.112a139.868 139.868 0 01-4.02-3.09.985.985 0 01-.223-.186c-.595-.484-1.19-.967-1.75-1.451a.988.988 0 00-.222-.186 30.457 30.457 0 01-1.638-1.49l-.037-.037c-.521-.484-1.042-.968-1.526-1.451l-.149-.15-1.377-1.377-.223-.223A14.124 14.124 0 01-.75 85.062c-.037-.075-.112-.112-.15-.186a40.424 40.424 0 00-1.116-1.303l-.111-.112c-.372-.447-.707-.893-1.042-1.303-.075-.074-.112-.149-.186-.26-.298-.41-.596-.856-.894-1.266-.037-.074-.111-.149-.148-.223a25.056 25.056 0 01-.82-1.303 19.212 19.212 0 00-.557-.93 27.227 27.227 0 01-.894-1.825c-.632-1.489-1.004-2.866-1.079-4.057.186 0 .372-.037.596-.075.223 0 .446-.037.67-.037.93-.074 1.86-.149 2.79-.186 1.266-.075 2.569-.112 3.834-.149 1.265-.037 2.53-.037 3.796-.037 1.898.037 3.759.111 5.62.223 4.652.298 9.266.968 13.844 1.899.93.186 1.823.41 2.754.632.26.075.558.15.856.224.298.074.558.149.856.223.149.037.335.075.52.15.373.11.745.185 1.117.297.075 0 .112.037.186.037h.038c.111.037.186.037.297.075.298 3.164 1.489 6.328 3.201 9.417a38.128 38.128 0 001.935 3.053 50.267 50.267 0 002.568 3.35c2.94 3.536 6.401 6.85 9.937 9.827.074.075.149.112.186.149.484.41.968.782 1.451 1.191.856.67 1.675 1.34 2.531 1.973.186.149.335.261.521.41a129.128 129.128 0 006.438 4.578c.968.67 1.973 1.303 2.978 1.936.26.186.558.335.818.521a62.156 62.156 0 002.606 1.601 6.1 6.1 0 01.52.335 85.858 85.858 0 003.09 1.824c.297.149.558.335.855.484.82.483 1.638.93 2.494 1.377.298.149.558.335.856.484 1.042.558 2.084 1.117 3.163 1.675.298.149.596.298.856.447.819.409 1.638.856 2.494 1.265.372.186.744.372 1.079.521a84.916 84.916 0 003.2 1.527l.782.335c.856.409 1.75.781 2.605 1.191l1.228.558c.856.372 1.675.745 2.531 1.08.298.149.633.26.93.409 1.042.447 2.122.856 3.164 1.266.446.186.856.335 1.302.521.782.298 1.526.595 2.308.893.41.149.781.298 1.19.447.559.223 1.117.409 1.675.596 1.712.595 3.424 1.191 5.136 1.749l.335.112c.372.111.707.223 1.042.335 1.749.558 3.498 1.079 5.248 1.563 2.009.559 4.019 1.117 5.991 1.601.67.67 1.303 1.34 1.936 2.01.148.149.297.298.446.484.372.372.707.744 1.079 1.117a501.854 501.854 0 01-14.216-3.462c-1.079-.298-2.196-.559-3.275-.856-2.307-.596-4.54-1.229-6.736-1.824a308.003 308.003 0 01-8.039-2.308 442.634 442.634 0 01-5.136-1.564c-20.803-6.328-37.737-13.177-51.209-20.026zm76.814 18.277c-17.231-5.323-34.983-13.662-49.125-23.191-14.254-9.604-23.483-19.469-25.754-27.323 23.595 8.04 48.195 24.606 74.879 50.514zM37.472 45.604h.223c.856.037 1.75.074 2.68.186 3.163.298 6.661.93 10.346 1.824.297.074.558.149.856.223.074 0 .148.038.223.038.93.26 1.86.52 2.828.781 1.898.559 3.796 1.191 5.769 1.861.967.335 1.935.708 2.903 1.08a144.507 144.507 0 0114.812 6.775 153.626 153.626 0 0117.417 10.87c1.86 1.377 3.721 2.754 5.508 4.206 1.786 1.452 3.572 2.94 5.284 4.504a120.064 120.064 0 014.987 4.727c.819.82 1.6 1.638 2.382 2.457 7.778 8.301 14.105 17.57 17.938 27.435.075.335.186.707.298 1.116v.038c.037.186.111.372.149.595 0 .037 0 .075.037.112.037.186.112.372.149.558l.037.149c.037.186.112.372.149.558 0 .075.037.112.037.187.037.186.075.372.149.558.037.074.037.149.074.223.038.186.112.373.149.596.037.074.037.149.075.223.037.186.111.41.149.633.037.074.037.186.074.261.037.223.112.409.149.632.037.075.037.187.074.261.037.223.112.447.149.67a.637.637 0 01.037.261c.038.223.112.484.149.744 0 .075.037.149.037.223.038.261.112.522.149.782 0 .075.038.149.038.223.074.298.111.596.186.894 0 .037 0 .074.037.149.372 1.935.744 3.946 1.042 6.03v.037c0 .038 0 .112.037.149.596 4.318.968 8.785.707 12.619-1.116-.111-2.27-.186-3.535-.335l-.075-.074-.111-.112c-.261-.298-.559-.595-.819-.856-.075-.112-.186-.186-.261-.298-.26-.298-.558-.595-.818-.893-.373-.41-.745-.782-1.117-1.191-.112-.112-.223-.261-.335-.373-.335-.372-.707-.744-1.042-1.116-.558-.596-1.116-1.154-1.675-1.75-.297-.298-.558-.595-.856-.893l-.037-.037c-.074-.075-.112-.149-.186-.187-.633-.632-1.265-1.302-1.898-1.935a5.763 5.763 0 01-.447-.484l-.632-.633c-.931-.931-1.824-1.861-2.754-2.792-6.662-6.663-13.212-12.768-19.65-18.314l-.112-.112c-.781-.67-1.6-1.34-2.382-2.01-.149-.112-.297-.261-.446-.372-.707-.596-1.452-1.191-2.159-1.787-.223-.186-.41-.335-.632-.521a76.07 76.07 0 00-2.01-1.638c-.26-.223-.521-.41-.782-.633-.632-.521-1.265-1.005-1.898-1.526a17.13 17.13 0 01-.856-.67c-.595-.484-1.228-.93-1.823-1.415-.298-.223-.633-.484-.93-.707l-1.787-1.34c-.335-.26-.67-.484-1.005-.745-.558-.409-1.154-.818-1.712-1.228-.335-.26-.707-.484-1.042-.744a44.927 44.927 0 00-1.675-1.154c-.372-.26-.707-.484-1.079-.745-.558-.372-1.08-.744-1.637-1.117-.373-.26-.745-.483-1.117-.744-.52-.335-1.042-.707-1.6-1.042-.372-.26-.744-.484-1.154-.745-.52-.335-1.042-.67-1.526-.968-.372-.26-.781-.484-1.153-.744-.521-.298-1.005-.633-1.526-.93-.41-.224-.782-.485-1.191-.708-.484-.298-1.005-.596-1.489-.893-.41-.224-.819-.484-1.228-.708-.484-.26-.968-.558-1.451-.819-.41-.223-.82-.446-1.228-.67a46.42 46.42 0 01-1.415-.781 36.578 36.578 0 00-1.265-.67c-.447-.261-.93-.484-1.377-.745-.41-.223-.856-.447-1.265-.633-.447-.223-.893-.446-1.377-.67-.447-.223-.856-.41-1.303-.633-.447-.223-.893-.409-1.34-.632-.446-.224-.893-.41-1.34-.596-.446-.186-.855-.41-1.302-.596-.447-.186-.893-.409-1.34-.595-.41-.186-.856-.372-1.265-.559-.447-.186-.93-.372-1.377-.558-.41-.149-.819-.335-1.228-.484l-1.452-.558c-.372-.149-.781-.298-1.153-.447-.521-.186-1.005-.372-1.526-.558-.372-.112-.707-.26-1.08-.373l-1.674-.558a6.794 6.794 0 00-.93-.298c-.857-.26-1.675-.52-2.531-.781-.038 0-.038 0-.075-.037-.037 0-.037 0-.074-.038-1.452-.447-2.866-.819-4.243-1.191l-1.786-.447a31.94 31.94 0 00-1.787-.41l-.558-.11c-.41-.075-.819-.187-1.228-.261-.223-.038-.447-.075-.633-.112-.409-.075-.818-.149-1.19-.223-.224-.038-.41-.075-.633-.112-.447-.075-.893-.149-1.303-.223-.149-.038-.335-.038-.483-.075-1.229-.186-2.42-.372-3.648-.521-.148-.037-.335-.037-.483-.074-.447-.038-.894-.112-1.34-.15-.186-.037-.372-.037-.559-.074-.446-.037-.855-.074-1.302-.112-.186 0-.372-.037-.558-.037l-1.452-.111c-.111 0-.26-.038-.372-.038l-1.898-.111h-.074c-.596-.037-1.191-.037-1.75-.075h-.52c-.447 0-.856-.037-1.303-.037H1.409c13.398-7.705 31.82-18.352 36.063-20.436zm100.297 67.674c.93-36.592 17.231-65.999 33.196-82.899a83.534 83.534 0 016.774-6.477c.409-.372.856-.707 1.265-1.08.447-.334.856-.67 1.303-1.005 9.527-7.444 19.091-11.092 26.572-10.125 12.802 2.122 39.151 8.934 53.703 12.806.074 0 .148.037.223.037h-.037l-2.457.893c-.186.075-.409.15-.595.224-.782.297-1.563.595-2.382.93-.037 0-.074.037-.112.037-.818.335-1.637.67-2.456 1.043-.186.074-.409.186-.632.26-.819.335-1.601.707-2.42 1.08-.037 0-.074.037-.074.037-.819.372-1.637.782-2.493 1.154-.224.112-.41.186-.633.298-.819.372-1.6.782-2.419 1.19-.037 0-.037.038-.075.038-.818.41-1.637.856-2.456 1.266a9.357 9.357 0 00-.632.335c-.819.447-1.601.856-2.42 1.34h-.074a177.49 177.49 0 00-2.717 1.563 164.133 164.133 0 00-5.433 3.35c-2.196 1.378-4.355 2.867-6.513 4.393a217.708 217.708 0 00-6.885 5.063c-.037.037-.112.074-.149.111-1.116.856-2.196 1.75-3.312 2.643-.744.596-1.489 1.228-2.196 1.824-.744.596-1.451 1.229-2.158 1.861-.186.186-.373.335-.596.521-.521.447-1.042.931-1.6 1.378-.335.298-.633.558-.968.856l-1.191 1.08c-.409.372-.781.744-1.191 1.079-.297.298-.632.558-.93.856-.409.41-.856.82-1.265 1.229-.261.26-.559.52-.819.781l-1.34 1.34-.707.708-1.451 1.451-.596.596c-.484.521-1.005 1.042-1.488 1.563-.187.186-.335.373-.522.521l-1.6 1.713c-.149.149-.26.298-.409.41-.558.595-1.117 1.19-1.638 1.823-.111.112-.186.224-.297.335-.559.633-1.154 1.266-1.712 1.936-.075.074-.149.186-.224.26-.595.67-1.153 1.34-1.712 2.01-.074.075-.111.15-.186.187-.558.67-1.153 1.377-1.712 2.047-.037.075-.111.112-.148.186a89.577 89.577 0 00-1.75 2.16c-.037.037-.037.074-.074.074-.596.744-1.191 1.489-1.786 2.27l-.038.038c-9.49 12.246-17.64 25.536-23.93 39.271a1.118 1.118 0 01-.148.298c-.075.149-.149.335-.224.484-.297.633-.558 1.266-.856 1.899-.074.148-.111.26-.186.409-.074.149-.149.335-.223.484-.186.372-.335.782-.484 1.154-.037.112-.111.223-.149.335-.111.298-.26.595-.372.93 0 .038-.037.075-.037.075-.149.298-.261.633-.372.931a2.524 2.524 0 00-.186.483c-.149.335-.261.671-.41 1.043-.111.26-.223.558-.335.819-.074.186-.149.372-.223.595-.149.335-.26.708-.409 1.043-.186.483-.335.93-.521 1.377-.075.149-.112.335-.186.484-.075.149-.112.335-.186.484 0 .037-.038.037-.038.074-.074.261-.186.484-.26.745l-.223.67c-.112.335-.261.67-.373 1.005-.149.409-.26.781-.409 1.191a.69.69 0 00-.074.26c-.038.075-.038.149-.075.224-.074.223-.149.484-.26.707-.038.112-.075.186-.112.298h-1.638c-.967 0-1.86-.037-2.679-.112-.261 0-.558-.037-.819-.037h-.93c-.67 0-1.414 0-2.233-.037.037-.633.074-1.266.074-1.936v-1.414c0-.41 0-.857-.037-1.266 0-.41-.037-.856-.037-1.303-.075-1.601-.224-3.238-.372-4.876 0-.112-.038-.261-.038-.373-.111-.818-.186-1.637-.297-2.456 0-.075 0-.149-.038-.186-.111-.857-.26-1.676-.372-2.495l-.111-.67c-.075-.335-.112-.707-.186-1.042a5.443 5.443 0 00-.149-.744c-.075-.335-.112-.708-.186-1.043-.038-.223-.075-.446-.149-.707a8.51 8.51 0 01-.186-1.042c-.038-.223-.075-.447-.149-.633l-.223-1.005c-.038-.186-.075-.409-.112-.596l-.223-1.005c-.038-.186-.075-.335-.112-.521l-.223-1.005c-.038-.149-.075-.298-.112-.409-.074-.373-.186-.708-.261-1.043-.037-.074-.037-.186-.074-.26-.112-.41-.186-.819-.298-1.191.038.111.075.074.075.037zm30.703 1.191c10.532-19.133 24.6-36.964 40.826-51.667-4.727 11.316-15.631 29.295-40.826 51.667zm93.97-84.462c.41-.149.856-.298 1.266-.447.186-.074.372-.149.558-.186.595-.186 1.228-.41 1.824-.595l.334-.112c.484-.15 1.005-.298 1.489-.447.223-.074.447-.112.67-.186.335-.112.67-.186 1.005-.298 2.828 6.105 3.052 12.62.744 19.952-5.061 15.932-22.664 34.991-50.949 55.204-10.271 7.333-20.692 13.922-30.256 19.617-1.638.968-3.201 1.899-4.801 2.792-1.34.782-2.642 1.527-3.945 2.234-.558.298-1.116.633-1.637.93-.298.187-.596.335-.931.522-.186.111-.335.186-.521.297-.819.447-1.6.894-2.419 1.34l-.447.224c-.744.409-1.451.781-2.195 1.191-.112.037-.186.112-.298.149-.782.409-1.526.819-2.27 1.228-.149.075-.335.186-.484.261-.744.409-1.451.782-2.158 1.154l-.224.111c-.521.261-1.005.522-1.526.782l-.446.224c-.112.074-.224.111-.335.186-.67.335-1.34.67-1.973 1.005-.111.074-.223.111-.335.186-1.265.633-2.419 1.228-3.535 1.787-.112.074-.223.111-.335.186-.521.26-1.042.521-1.526.744.037-.111.075-.26.149-.372.112-.335.26-.67.372-1.005.149-.447.335-.856.484-1.303.074-.186.149-.372.223-.596.372-.967.745-1.898 1.117-2.829l.335-.781c.297-.708.558-1.378.856-2.085.148-.335.297-.67.409-1.005l.223-.558c.224-.484.41-.968.633-1.452.112-.223.186-.41.298-.633.409-.335.781-.633 1.153-.968 1.377-1.116 2.68-2.233 3.983-3.35 38.406-32.46 48.194-57.177 50.688-67.45.409-.336.781-.633 1.191-.968.446-.335.893-.708 1.339-1.043.521-.41 1.08-.819 1.601-1.228l1.339-1.005c.559-.41 1.08-.782 1.638-1.191.447-.335.893-.633 1.34-.968.558-.41 1.116-.782 1.674-1.154.447-.298.894-.633 1.34-.93l1.675-1.117c.447-.298.856-.596 1.303-.857.595-.372 1.153-.744 1.749-1.116.409-.26.856-.522 1.265-.82.633-.372 1.265-.781 1.898-1.153l1.117-.67c.855-.521 1.749-1.005 2.605-1.49.148-.074.297-.148.409-.26.112-.074.186-.111.298-.149.521-.297 1.042-.558 1.563-.856.223-.111.484-.26.707-.372.372-.224.781-.41 1.154-.633.26-.149.521-.26.781-.41.372-.185.707-.372 1.079-.558.261-.149.559-.26.819-.41.335-.185.707-.334 1.042-.52.261-.15.558-.26.819-.41.335-.149.707-.335 1.042-.484.261-.111.558-.26.819-.372.335-.149.67-.298 1.042-.484.26-.112.558-.26.819-.372.335-.15.669-.298 1.042-.447.26-.111.558-.223.818-.372.335-.149.707-.298 1.042-.447.261-.111.559-.223.819-.335.335-.149.707-.298 1.042-.41.261-.11.521-.223.819-.334.372-.15.707-.26 1.079-.41.261-.111.521-.186.782-.298.372-.149.744-.26 1.116-.409.224 0 .484-.112.707-.186zm99.255 116.363c-.037-2.121-.111-4.318-.148-6.626 0-.111 0-.186-.038-.297v-.075c0-.074-.037-.149-.037-.186 0-.037 0-.074-.037-.074 0-.075-.037-.112-.037-.187 0-.037-.038-.074-.038-.074-.037-.074-.037-.112-.074-.186 0-.037-.037-.075-.037-.075-.037-.074-.075-.111-.075-.148 0-.038-.037-.075-.037-.075-.037-.037-.074-.112-.111-.149 0-.037-.038-.037-.038-.074-.074-.075-.111-.149-.186-.224l-.186-.186-.037-.037c-.037-.037-.112-.074-.149-.112-.037 0-.037-.037-.074-.037-.038-.037-.112-.074-.149-.112-.037 0-.037-.037-.075-.037-.074-.037-.111-.074-.186-.074-.037 0-.037-.037-.074-.037-.075-.038-.112-.038-.186-.075-.037 0-.037 0-.075-.037-.074-.037-.149-.037-.223-.037h-.074c-.075 0-.186-.038-.261-.038-62.783-5.769-97.766-8.859-160.029-13.698 7.704-4.728 15.817-10.013 23.781-15.746 29.699-21.218 47.525-40.76 53.033-58.107 3.015-9.53 2.308-18.39-2.158-26.355 0-.037-.038-.037-.038-.075-.037-.037-.074-.111-.111-.149-.038-.074-.112-.148-.149-.223-.037-.074-.112-.112-.149-.149l-.186-.186-.037-.037c-.038-.037-.075-.037-.112-.075-.074-.074-.149-.111-.223-.186-.075-.037-.112-.074-.186-.111-.075-.038-.186-.075-.261-.112-.037 0-.074-.037-.111-.037-.038 0-.075-.038-.112-.038-.335-.111-.67-.186-1.117-.297-7.703-2.085-46.52-12.582-63.155-15.3h-.075c-9.899-1.34-21.845 3.462-33.643 13.513-11.09 9.455-21.25 23.005-28.545 38.118-6.624 13.773-10.941 28.774-12.616 43.999-8.336-15.374-21.027-27.174-31.075-34.88-14.85-11.316-32.527-20.212-48.493-24.456-4.391-1.154-8.56-1.935-12.355-2.27a39.588 39.588 0 00-4.02-.224c-.409 0-.781.075-1.153.224-.782.335-3.164 1.34-25.717 14.443-5.805 3.35-11.425 6.663-15.11 8.822-2.009 1.191-3.72 2.159-4.875 2.866l-1.34.782c-.111.074-.26.149-.371.223a2.81 2.81 0 00-1.08 1.005c-.223.298-.372.67-.41 1.117-.855 3.574.224 7.966 3.09 12.768 6.326 10.46 20.73 21.888 40.565 32.125 13.026 6.663 28.284 12.879 45.515 18.537a40056.523 40056.523 0 00-149.496 16.565h-.075c-.037 0-.111 0-.149.037-.074 0-.111.038-.186.038-.037 0-.074.037-.149.037-.074.037-.111.037-.186.074-.037 0-.074.038-.111.038a.6.6 0 00-.26.148c-.038 0-.038.038-.075.038a.762.762 0 00-.224.149c-.037.037-.074.037-.074.074a.288.288 0 00-.149.149l-.037.037-.037.037a23.25 23.25 0 01-.15.149c-.036.037-.036.075-.073.075l-.038.037c-.037.037-.074.112-.111.149 0 .037-.038.037-.038.074-.037.075-.111.186-.149.298v.037c-.037.075-.074.186-.111.261 0 .037-.037.074-.037.112 0 .037-.038.074-.038.148 0 .038 0 .075-.037.112 0 .075-.037.149-.037.186v.447c0 .112 0 .223.037.335 3.759 22.781 5.545 33.911 9.006 56.581.038.261.112.521.224.745a2.94 2.94 0 001.675 1.526c1.302.446 2.53.893 3.796 1.303.595.186 1.153.409 1.749.595.111.037.186.075.297.112a458.32 458.32 0 015.471 1.898 1277.48 1277.48 0 001.973 10.2c.074.298.148.595.297.819 4.206 20.845 8.486 41.207 12.654 60.862 12.876 61.234 25.083 119.08 34.127 185.34a2.845 2.845 0 001.414 2.085c6.699 3.871 13.175 7.519 19.427 11.092 3.46 1.973 6.885 3.909 10.346 5.882 10.085 5.77 18.794 10.795 27.39 15.895l.224.111a1976.612 1976.612 0 0134.35 20.772c.075.037.187.111.261.148.037 0 .037 0 .075.038.074.037.148.074.223.074.037 0 .037 0 .074.037.075.038.15.038.224.075h.074a.825.825 0 00.298.037h.707c.074 0 .111-.037.186-.037h.037c32.192-7.557 59.099-14.443 85.113-21.106 5.508-1.415 10.942-2.792 16.338-4.17.521.41 1.191.633 1.861.633 3.758-.111 52.549-12.582 56.121-14.368.335-.149.633-.373.856-.633 29.922-6.85 58.206-12.396 88.835-17.458a2.847 2.847 0 002.382-2.83c0-87.105 5.694-209.387 7.592-249.552.335-6.775.521-10.869.595-13.177 1.228-.187 2.419-.41 3.647-.596 2.233-.372 4.429-.744 6.662-1.117.856-.149 1.6-.67 2.01-1.414.26-.447.372-.931.372-1.452-.521-22.744-.782-34.879-1.303-55.353z" stroke="url(#paint0_linear_128:42176)" stroke-width="10"/><defs><linearGradient id="paint0_linear_128:42176" x1="143.5" y1="6" x2="143.5" y2="529" gradientUnits="userSpaceOnUse"><stop stop-color="#184670"/><stop offset="1" stop-color="#184670" stop-opacity="0"/></linearGradient></defs></svg>